G04 #@! TF.GenerationSoftware,KiCad,Pcbnew,(5.0.1)-3*
G04 #@! TF.CreationDate,2018-11-05T16:43:38-06:00*
G04 #@! TF.ProjectId,power_board,706F7765725F626F6172642E6B696361,rev?*
G04 #@! TF.SameCoordinates,Original*
G04 #@! TF.FileFunction,Soldermask,Bot*
G04 #@! TF.FilePolarity,Negative*
%FSLAX46Y46*%
G04 Gerber Fmt 4.6, Leading zero omitted, Abs format (unit mm)*
G04 Created by KiCad (PCBNEW (5.0.1)-3) date 11/5/2018 4:43:38 PM*
%MOMM*%
%LPD*%
G01*
G04 APERTURE LIST*
%ADD10C,0.100000*%
G04 APERTURE END LIST*
D10*
G36*
X217909820Y-143129617D02*
X217948997Y-143141501D01*
X217985094Y-143160795D01*
X218016736Y-143186764D01*
X218042705Y-143218406D01*
X218061999Y-143254503D01*
X218073883Y-143293680D01*
X218078500Y-143340556D01*
X218078500Y-148759444D01*
X218073883Y-148806320D01*
X218061999Y-148845497D01*
X218042705Y-148881594D01*
X218016736Y-148913236D01*
X217985094Y-148939205D01*
X217948997Y-148958499D01*
X217909820Y-148970383D01*
X217862944Y-148975000D01*
X215969056Y-148975000D01*
X215922180Y-148970383D01*
X215883003Y-148958499D01*
X215846906Y-148939205D01*
X215815264Y-148913236D01*
X215789295Y-148881594D01*
X215770001Y-148845497D01*
X215758117Y-148806320D01*
X215753500Y-148759444D01*
X215753500Y-143340556D01*
X215758117Y-143293680D01*
X215770001Y-143254503D01*
X215789295Y-143218406D01*
X215815264Y-143186764D01*
X215846906Y-143160795D01*
X215883003Y-143141501D01*
X215922180Y-143129617D01*
X215969056Y-143125000D01*
X217862944Y-143125000D01*
X217909820Y-143129617D01*
X217909820Y-143129617D01*
G37*
G36*
X211134820Y-143129617D02*
X211173997Y-143141501D01*
X211210094Y-143160795D01*
X211241736Y-143186764D01*
X211267705Y-143218406D01*
X211286999Y-143254503D01*
X211298883Y-143293680D01*
X211303500Y-143340556D01*
X211303500Y-148759444D01*
X211298883Y-148806320D01*
X211286999Y-148845497D01*
X211267705Y-148881594D01*
X211241736Y-148913236D01*
X211210094Y-148939205D01*
X211173997Y-148958499D01*
X211134820Y-148970383D01*
X211087944Y-148975000D01*
X209194056Y-148975000D01*
X209147180Y-148970383D01*
X209108003Y-148958499D01*
X209071906Y-148939205D01*
X209040264Y-148913236D01*
X209014295Y-148881594D01*
X208995001Y-148845497D01*
X208983117Y-148806320D01*
X208978500Y-148759444D01*
X208978500Y-143340556D01*
X208983117Y-143293680D01*
X208995001Y-143254503D01*
X209014295Y-143218406D01*
X209040264Y-143186764D01*
X209071906Y-143160795D01*
X209108003Y-143141501D01*
X209147180Y-143129617D01*
X209194056Y-143125000D01*
X211087944Y-143125000D01*
X211134820Y-143129617D01*
X211134820Y-143129617D01*
G37*
G36*
X223315000Y-148639000D02*
X219915000Y-148639000D01*
X219915000Y-145239000D01*
X223315000Y-145239000D01*
X223315000Y-148639000D01*
X223315000Y-148639000D01*
G37*
G36*
X229533822Y-143293680D02*
X229709241Y-143328573D01*
X230036820Y-143464261D01*
X230327711Y-143658628D01*
X230331636Y-143661251D01*
X230582349Y-143911964D01*
X230779340Y-144206782D01*
X230915027Y-144534360D01*
X230984200Y-144882114D01*
X230984200Y-145236686D01*
X230915027Y-145584440D01*
X230779340Y-145912018D01*
X230582349Y-146206836D01*
X230331636Y-146457549D01*
X230331633Y-146457551D01*
X230036820Y-146654539D01*
X229709241Y-146790227D01*
X229593322Y-146813285D01*
X229361486Y-146859400D01*
X229006914Y-146859400D01*
X228775078Y-146813285D01*
X228659159Y-146790227D01*
X228331580Y-146654539D01*
X228036767Y-146457551D01*
X228036764Y-146457549D01*
X227786051Y-146206836D01*
X227589060Y-145912018D01*
X227453373Y-145584440D01*
X227384200Y-145236686D01*
X227384200Y-144882114D01*
X227453373Y-144534360D01*
X227589060Y-144206782D01*
X227786051Y-143911964D01*
X228036764Y-143661251D01*
X228040689Y-143658628D01*
X228331580Y-143464261D01*
X228659159Y-143328573D01*
X228834578Y-143293680D01*
X229006914Y-143259400D01*
X229361486Y-143259400D01*
X229533822Y-143293680D01*
X229533822Y-143293680D01*
G37*
G36*
X165747000Y-146324000D02*
X154547000Y-146324000D01*
X154547000Y-136524000D01*
X165747000Y-136524000D01*
X165747000Y-146324000D01*
X165747000Y-146324000D01*
G37*
G36*
X124218000Y-146324000D02*
X113018000Y-146324000D01*
X113018000Y-136524000D01*
X124218000Y-136524000D01*
X124218000Y-146324000D01*
X124218000Y-146324000D01*
G37*
G36*
X222001393Y-140202553D02*
X222110872Y-140224330D01*
X222420252Y-140352479D01*
X222698687Y-140538523D01*
X222935477Y-140775313D01*
X223121521Y-141053748D01*
X223249670Y-141363128D01*
X223315000Y-141691565D01*
X223315000Y-142026435D01*
X223249670Y-142354872D01*
X223121521Y-142664252D01*
X222935477Y-142942687D01*
X222698687Y-143179477D01*
X222420252Y-143365521D01*
X222110872Y-143493670D01*
X222001393Y-143515447D01*
X221782437Y-143559000D01*
X221447563Y-143559000D01*
X221228607Y-143515447D01*
X221119128Y-143493670D01*
X220809748Y-143365521D01*
X220531313Y-143179477D01*
X220294523Y-142942687D01*
X220108479Y-142664252D01*
X219980330Y-142354872D01*
X219915000Y-142026435D01*
X219915000Y-141691565D01*
X219980330Y-141363128D01*
X220108479Y-141053748D01*
X220294523Y-140775313D01*
X220531313Y-140538523D01*
X220809748Y-140352479D01*
X221119128Y-140224330D01*
X221228607Y-140202553D01*
X221447563Y-140159000D01*
X221782437Y-140159000D01*
X222001393Y-140202553D01*
X222001393Y-140202553D01*
G37*
G36*
X103181000Y-139677000D02*
X100781000Y-139677000D01*
X100781000Y-137277000D01*
X103181000Y-137277000D01*
X103181000Y-139677000D01*
X103181000Y-139677000D01*
G37*
G36*
X142170000Y-139503000D02*
X139770000Y-139503000D01*
X139770000Y-137103000D01*
X142170000Y-137103000D01*
X142170000Y-139503000D01*
X142170000Y-139503000D01*
G37*
G36*
X211134820Y-132461617D02*
X211173997Y-132473501D01*
X211210094Y-132492795D01*
X211241736Y-132518764D01*
X211267705Y-132550406D01*
X211286999Y-132586503D01*
X211298883Y-132625680D01*
X211303500Y-132672556D01*
X211303500Y-138091444D01*
X211298883Y-138138320D01*
X211286999Y-138177497D01*
X211267705Y-138213594D01*
X211241736Y-138245236D01*
X211210094Y-138271205D01*
X211173997Y-138290499D01*
X211134820Y-138302383D01*
X211087944Y-138307000D01*
X209194056Y-138307000D01*
X209147180Y-138302383D01*
X209108003Y-138290499D01*
X209071906Y-138271205D01*
X209040264Y-138245236D01*
X209014295Y-138213594D01*
X208995001Y-138177497D01*
X208983117Y-138138320D01*
X208978500Y-138091444D01*
X208978500Y-132672556D01*
X208983117Y-132625680D01*
X208995001Y-132586503D01*
X209014295Y-132550406D01*
X209040264Y-132518764D01*
X209071906Y-132492795D01*
X209108003Y-132473501D01*
X209147180Y-132461617D01*
X209194056Y-132457000D01*
X211087944Y-132457000D01*
X211134820Y-132461617D01*
X211134820Y-132461617D01*
G37*
G36*
X217909820Y-132461617D02*
X217948997Y-132473501D01*
X217985094Y-132492795D01*
X218016736Y-132518764D01*
X218042705Y-132550406D01*
X218061999Y-132586503D01*
X218073883Y-132625680D01*
X218078500Y-132672556D01*
X218078500Y-138091444D01*
X218073883Y-138138320D01*
X218061999Y-138177497D01*
X218042705Y-138213594D01*
X218016736Y-138245236D01*
X217985094Y-138271205D01*
X217948997Y-138290499D01*
X217909820Y-138302383D01*
X217862944Y-138307000D01*
X215969056Y-138307000D01*
X215922180Y-138302383D01*
X215883003Y-138290499D01*
X215846906Y-138271205D01*
X215815264Y-138245236D01*
X215789295Y-138213594D01*
X215770001Y-138177497D01*
X215758117Y-138138320D01*
X215753500Y-138091444D01*
X215753500Y-132672556D01*
X215758117Y-132625680D01*
X215770001Y-132586503D01*
X215789295Y-132550406D01*
X215815264Y-132518764D01*
X215846906Y-132492795D01*
X215883003Y-132473501D01*
X215922180Y-132461617D01*
X215969056Y-132457000D01*
X217862944Y-132457000D01*
X217909820Y-132461617D01*
X217909820Y-132461617D01*
G37*
G36*
X223315000Y-137082000D02*
X219915000Y-137082000D01*
X219915000Y-133682000D01*
X223315000Y-133682000D01*
X223315000Y-137082000D01*
X223315000Y-137082000D01*
G37*
G36*
X164557000Y-134774000D02*
X155737000Y-134774000D01*
X155737000Y-129774000D01*
X164557000Y-129774000D01*
X164557000Y-134774000D01*
X164557000Y-134774000D01*
G37*
G36*
X123028000Y-134774000D02*
X114208000Y-134774000D01*
X114208000Y-129774000D01*
X123028000Y-129774000D01*
X123028000Y-134774000D01*
X123028000Y-134774000D01*
G37*
G36*
X102331026Y-132323115D02*
X102549412Y-132413573D01*
X102745958Y-132544901D01*
X102913099Y-132712042D01*
X103044427Y-132908588D01*
X103134885Y-133126974D01*
X103181000Y-133358809D01*
X103181000Y-133595191D01*
X103134885Y-133827026D01*
X103044427Y-134045412D01*
X102913099Y-134241958D01*
X102745958Y-134409099D01*
X102549412Y-134540427D01*
X102331026Y-134630885D01*
X102099191Y-134677000D01*
X101862809Y-134677000D01*
X101630974Y-134630885D01*
X101412588Y-134540427D01*
X101216042Y-134409099D01*
X101048901Y-134241958D01*
X100917573Y-134045412D01*
X100827115Y-133827026D01*
X100781000Y-133595191D01*
X100781000Y-133358809D01*
X100827115Y-133126974D01*
X100917573Y-132908588D01*
X101048901Y-132712042D01*
X101216042Y-132544901D01*
X101412588Y-132413573D01*
X101630974Y-132323115D01*
X101862809Y-132277000D01*
X102099191Y-132277000D01*
X102331026Y-132323115D01*
X102331026Y-132323115D01*
G37*
G36*
X141320026Y-132149115D02*
X141538412Y-132239573D01*
X141734958Y-132370901D01*
X141902099Y-132538042D01*
X142033427Y-132734588D01*
X142123885Y-132952974D01*
X142170000Y-133184809D01*
X142170000Y-133421191D01*
X142123885Y-133653026D01*
X142033427Y-133871412D01*
X141902099Y-134067958D01*
X141734958Y-134235099D01*
X141538412Y-134366427D01*
X141320026Y-134456885D01*
X141088191Y-134503000D01*
X140851809Y-134503000D01*
X140619974Y-134456885D01*
X140401588Y-134366427D01*
X140205042Y-134235099D01*
X140037901Y-134067958D01*
X139906573Y-133871412D01*
X139816115Y-133653026D01*
X139770000Y-133421191D01*
X139770000Y-133184809D01*
X139816115Y-132952974D01*
X139906573Y-132734588D01*
X140037901Y-132538042D01*
X140205042Y-132370901D01*
X140401588Y-132239573D01*
X140619974Y-132149115D01*
X140851809Y-132103000D01*
X141088191Y-132103000D01*
X141320026Y-132149115D01*
X141320026Y-132149115D01*
G37*
G36*
X206784122Y-129691115D02*
X206900041Y-129714173D01*
X207227620Y-129849861D01*
X207518511Y-130044228D01*
X207522436Y-130046851D01*
X207773149Y-130297564D01*
X207773151Y-130297567D01*
X207887990Y-130469435D01*
X207970140Y-130592382D01*
X208105827Y-130919960D01*
X208175000Y-131267714D01*
X208175000Y-131622286D01*
X208174962Y-131622477D01*
X208105827Y-131970041D01*
X208009881Y-132201674D01*
X207994183Y-132239574D01*
X207970139Y-132297620D01*
X207859768Y-132462802D01*
X207773149Y-132592436D01*
X207522436Y-132843149D01*
X207522433Y-132843151D01*
X207227620Y-133040139D01*
X206900041Y-133175827D01*
X206854885Y-133184809D01*
X206552286Y-133245000D01*
X206197714Y-133245000D01*
X205895115Y-133184809D01*
X205849959Y-133175827D01*
X205522380Y-133040139D01*
X205227567Y-132843151D01*
X205227564Y-132843149D01*
X204976851Y-132592436D01*
X204890232Y-132462802D01*
X204779861Y-132297620D01*
X204755818Y-132239574D01*
X204740119Y-132201674D01*
X204644173Y-131970041D01*
X204575038Y-131622477D01*
X204575000Y-131622286D01*
X204575000Y-131267714D01*
X204644173Y-130919960D01*
X204779860Y-130592382D01*
X204862011Y-130469435D01*
X204976849Y-130297567D01*
X204976851Y-130297564D01*
X205227564Y-130046851D01*
X205231489Y-130044228D01*
X205522380Y-129849861D01*
X205849959Y-129714173D01*
X205965878Y-129691115D01*
X206197714Y-129645000D01*
X206552286Y-129645000D01*
X206784122Y-129691115D01*
X206784122Y-129691115D01*
G37*
G36*
X222001393Y-128645553D02*
X222110872Y-128667330D01*
X222420252Y-128795479D01*
X222698687Y-128981523D01*
X222935477Y-129218313D01*
X223121521Y-129496748D01*
X223211581Y-129714173D01*
X223249670Y-129806129D01*
X223315000Y-130134563D01*
X223315000Y-130469437D01*
X223271447Y-130688393D01*
X223249670Y-130797872D01*
X223121521Y-131107252D01*
X222935477Y-131385687D01*
X222698687Y-131622477D01*
X222420252Y-131808521D01*
X222110872Y-131936670D01*
X222001393Y-131958447D01*
X221782437Y-132002000D01*
X221447563Y-132002000D01*
X221228607Y-131958447D01*
X221119128Y-131936670D01*
X220809748Y-131808521D01*
X220531313Y-131622477D01*
X220294523Y-131385687D01*
X220108479Y-131107252D01*
X219980330Y-130797872D01*
X219958553Y-130688393D01*
X219915000Y-130469437D01*
X219915000Y-130134563D01*
X219980330Y-129806129D01*
X220018419Y-129714173D01*
X220108479Y-129496748D01*
X220294523Y-129218313D01*
X220531313Y-128981523D01*
X220809748Y-128795479D01*
X221119128Y-128667330D01*
X221228607Y-128645553D01*
X221447563Y-128602000D01*
X221782437Y-128602000D01*
X222001393Y-128645553D01*
X222001393Y-128645553D01*
G37*
G36*
X160625445Y-122916929D02*
X160761006Y-122943894D01*
X161144091Y-123102573D01*
X161486536Y-123331388D01*
X161488862Y-123332942D01*
X161782058Y-123626138D01*
X161782060Y-123626141D01*
X162012427Y-123970909D01*
X162171106Y-124353994D01*
X162252000Y-124760676D01*
X162252000Y-125175324D01*
X162171106Y-125582006D01*
X162012427Y-125965091D01*
X161783612Y-126307536D01*
X161782058Y-126309862D01*
X161488862Y-126603058D01*
X161488859Y-126603060D01*
X161144091Y-126833427D01*
X160761006Y-126992106D01*
X160625445Y-127019071D01*
X160354326Y-127073000D01*
X159939674Y-127073000D01*
X159668555Y-127019071D01*
X159532994Y-126992106D01*
X159149909Y-126833427D01*
X158805141Y-126603060D01*
X158805138Y-126603058D01*
X158511942Y-126309862D01*
X158510388Y-126307536D01*
X158281573Y-125965091D01*
X158122894Y-125582006D01*
X158042000Y-125175324D01*
X158042000Y-124760676D01*
X158122894Y-124353994D01*
X158281573Y-123970909D01*
X158511940Y-123626141D01*
X158511942Y-123626138D01*
X158805138Y-123332942D01*
X158807464Y-123331388D01*
X159149909Y-123102573D01*
X159532994Y-122943894D01*
X159668555Y-122916929D01*
X159939674Y-122863000D01*
X160354326Y-122863000D01*
X160625445Y-122916929D01*
X160625445Y-122916929D01*
G37*
G36*
X103856445Y-122916929D02*
X103992006Y-122943894D01*
X104375091Y-123102573D01*
X104717536Y-123331388D01*
X104719862Y-123332942D01*
X105013058Y-123626138D01*
X105013060Y-123626141D01*
X105243427Y-123970909D01*
X105402106Y-124353994D01*
X105483000Y-124760676D01*
X105483000Y-125175324D01*
X105402106Y-125582006D01*
X105243427Y-125965091D01*
X105014612Y-126307536D01*
X105013058Y-126309862D01*
X104719862Y-126603058D01*
X104719859Y-126603060D01*
X104375091Y-126833427D01*
X103992006Y-126992106D01*
X103856445Y-127019071D01*
X103585326Y-127073000D01*
X103170674Y-127073000D01*
X102899555Y-127019071D01*
X102763994Y-126992106D01*
X102380909Y-126833427D01*
X102036141Y-126603060D01*
X102036138Y-126603058D01*
X101742942Y-126309862D01*
X101741388Y-126307536D01*
X101512573Y-125965091D01*
X101353894Y-125582006D01*
X101273000Y-125175324D01*
X101273000Y-124760676D01*
X101353894Y-124353994D01*
X101512573Y-123970909D01*
X101742940Y-123626141D01*
X101742942Y-123626138D01*
X102036138Y-123332942D01*
X102038464Y-123331388D01*
X102380909Y-123102573D01*
X102763994Y-122943894D01*
X102899555Y-122916929D01*
X103170674Y-122863000D01*
X103585326Y-122863000D01*
X103856445Y-122916929D01*
X103856445Y-122916929D01*
G37*
G36*
X111476445Y-122916929D02*
X111612006Y-122943894D01*
X111995091Y-123102573D01*
X112337536Y-123331388D01*
X112339862Y-123332942D01*
X112633058Y-123626138D01*
X112633060Y-123626141D01*
X112863427Y-123970909D01*
X113022106Y-124353994D01*
X113103000Y-124760676D01*
X113103000Y-125175324D01*
X113022106Y-125582006D01*
X112863427Y-125965091D01*
X112634612Y-126307536D01*
X112633058Y-126309862D01*
X112339862Y-126603058D01*
X112339859Y-126603060D01*
X111995091Y-126833427D01*
X111612006Y-126992106D01*
X111476445Y-127019071D01*
X111205326Y-127073000D01*
X110790674Y-127073000D01*
X110519555Y-127019071D01*
X110383994Y-126992106D01*
X110000909Y-126833427D01*
X109656141Y-126603060D01*
X109656138Y-126603058D01*
X109362942Y-126309862D01*
X109361388Y-126307536D01*
X109132573Y-125965091D01*
X108973894Y-125582006D01*
X108893000Y-125175324D01*
X108893000Y-124760676D01*
X108973894Y-124353994D01*
X109132573Y-123970909D01*
X109362940Y-123626141D01*
X109362942Y-123626138D01*
X109656138Y-123332942D01*
X109658464Y-123331388D01*
X110000909Y-123102573D01*
X110383994Y-122943894D01*
X110519555Y-122916929D01*
X110790674Y-122863000D01*
X111205326Y-122863000D01*
X111476445Y-122916929D01*
X111476445Y-122916929D01*
G37*
G36*
X119096445Y-122916929D02*
X119232006Y-122943894D01*
X119615091Y-123102573D01*
X119957536Y-123331388D01*
X119959862Y-123332942D01*
X120253058Y-123626138D01*
X120253060Y-123626141D01*
X120483427Y-123970909D01*
X120642106Y-124353994D01*
X120723000Y-124760676D01*
X120723000Y-125175324D01*
X120642106Y-125582006D01*
X120483427Y-125965091D01*
X120254612Y-126307536D01*
X120253058Y-126309862D01*
X119959862Y-126603058D01*
X119959859Y-126603060D01*
X119615091Y-126833427D01*
X119232006Y-126992106D01*
X119096445Y-127019071D01*
X118825326Y-127073000D01*
X118410674Y-127073000D01*
X118139555Y-127019071D01*
X118003994Y-126992106D01*
X117620909Y-126833427D01*
X117276141Y-126603060D01*
X117276138Y-126603058D01*
X116982942Y-126309862D01*
X116981388Y-126307536D01*
X116752573Y-125965091D01*
X116593894Y-125582006D01*
X116513000Y-125175324D01*
X116513000Y-124760676D01*
X116593894Y-124353994D01*
X116752573Y-123970909D01*
X116982940Y-123626141D01*
X116982942Y-123626138D01*
X117276138Y-123332942D01*
X117278464Y-123331388D01*
X117620909Y-123102573D01*
X118003994Y-122943894D01*
X118139555Y-122916929D01*
X118410674Y-122863000D01*
X118825326Y-122863000D01*
X119096445Y-122916929D01*
X119096445Y-122916929D01*
G37*
G36*
X145385445Y-122916929D02*
X145521006Y-122943894D01*
X145904091Y-123102573D01*
X146246536Y-123331388D01*
X146248862Y-123332942D01*
X146542058Y-123626138D01*
X146542060Y-123626141D01*
X146772427Y-123970909D01*
X146931106Y-124353994D01*
X147012000Y-124760676D01*
X147012000Y-125175324D01*
X146931106Y-125582006D01*
X146772427Y-125965091D01*
X146543612Y-126307536D01*
X146542058Y-126309862D01*
X146248862Y-126603058D01*
X146248859Y-126603060D01*
X145904091Y-126833427D01*
X145521006Y-126992106D01*
X145385445Y-127019071D01*
X145114326Y-127073000D01*
X144699674Y-127073000D01*
X144428555Y-127019071D01*
X144292994Y-126992106D01*
X143909909Y-126833427D01*
X143565141Y-126603060D01*
X143565138Y-126603058D01*
X143271942Y-126309862D01*
X143270388Y-126307536D01*
X143041573Y-125965091D01*
X142882894Y-125582006D01*
X142802000Y-125175324D01*
X142802000Y-124760676D01*
X142882894Y-124353994D01*
X143041573Y-123970909D01*
X143271940Y-123626141D01*
X143271942Y-123626138D01*
X143565138Y-123332942D01*
X143567464Y-123331388D01*
X143909909Y-123102573D01*
X144292994Y-122943894D01*
X144428555Y-122916929D01*
X144699674Y-122863000D01*
X145114326Y-122863000D01*
X145385445Y-122916929D01*
X145385445Y-122916929D01*
G37*
G36*
X153005445Y-122916929D02*
X153141006Y-122943894D01*
X153524091Y-123102573D01*
X153866536Y-123331388D01*
X153868862Y-123332942D01*
X154162058Y-123626138D01*
X154162060Y-123626141D01*
X154392427Y-123970909D01*
X154551106Y-124353994D01*
X154632000Y-124760676D01*
X154632000Y-125175324D01*
X154551106Y-125582006D01*
X154392427Y-125965091D01*
X154163612Y-126307536D01*
X154162058Y-126309862D01*
X153868862Y-126603058D01*
X153868859Y-126603060D01*
X153524091Y-126833427D01*
X153141006Y-126992106D01*
X153005445Y-127019071D01*
X152734326Y-127073000D01*
X152319674Y-127073000D01*
X152048555Y-127019071D01*
X151912994Y-126992106D01*
X151529909Y-126833427D01*
X151185141Y-126603060D01*
X151185138Y-126603058D01*
X150891942Y-126309862D01*
X150890388Y-126307536D01*
X150661573Y-125965091D01*
X150502894Y-125582006D01*
X150422000Y-125175324D01*
X150422000Y-124760676D01*
X150502894Y-124353994D01*
X150661573Y-123970909D01*
X150891940Y-123626141D01*
X150891942Y-123626138D01*
X151185138Y-123332942D01*
X151187464Y-123331388D01*
X151529909Y-123102573D01*
X151912994Y-122943894D01*
X152048555Y-122916929D01*
X152319674Y-122863000D01*
X152734326Y-122863000D01*
X153005445Y-122916929D01*
X153005445Y-122916929D01*
G37*
G36*
X211134820Y-120904617D02*
X211173997Y-120916501D01*
X211210094Y-120935795D01*
X211241736Y-120961764D01*
X211267705Y-120993406D01*
X211286999Y-121029503D01*
X211298883Y-121068680D01*
X211303500Y-121115556D01*
X211303500Y-126534444D01*
X211298883Y-126581320D01*
X211286999Y-126620497D01*
X211267705Y-126656594D01*
X211241736Y-126688236D01*
X211210094Y-126714205D01*
X211173997Y-126733499D01*
X211134820Y-126745383D01*
X211087944Y-126750000D01*
X209194056Y-126750000D01*
X209147180Y-126745383D01*
X209108003Y-126733499D01*
X209071906Y-126714205D01*
X209040264Y-126688236D01*
X209014295Y-126656594D01*
X208995001Y-126620497D01*
X208983117Y-126581320D01*
X208978500Y-126534444D01*
X208978500Y-121115556D01*
X208983117Y-121068680D01*
X208995001Y-121029503D01*
X209014295Y-120993406D01*
X209040264Y-120961764D01*
X209071906Y-120935795D01*
X209108003Y-120916501D01*
X209147180Y-120904617D01*
X209194056Y-120900000D01*
X211087944Y-120900000D01*
X211134820Y-120904617D01*
X211134820Y-120904617D01*
G37*
G36*
X217909820Y-120904617D02*
X217948997Y-120916501D01*
X217985094Y-120935795D01*
X218016736Y-120961764D01*
X218042705Y-120993406D01*
X218061999Y-121029503D01*
X218073883Y-121068680D01*
X218078500Y-121115556D01*
X218078500Y-126534444D01*
X218073883Y-126581320D01*
X218061999Y-126620497D01*
X218042705Y-126656594D01*
X218016736Y-126688236D01*
X217985094Y-126714205D01*
X217948997Y-126733499D01*
X217909820Y-126745383D01*
X217862944Y-126750000D01*
X215969056Y-126750000D01*
X215922180Y-126745383D01*
X215883003Y-126733499D01*
X215846906Y-126714205D01*
X215815264Y-126688236D01*
X215789295Y-126656594D01*
X215770001Y-126620497D01*
X215758117Y-126581320D01*
X215753500Y-126534444D01*
X215753500Y-121115556D01*
X215758117Y-121068680D01*
X215770001Y-121029503D01*
X215789295Y-120993406D01*
X215815264Y-120961764D01*
X215846906Y-120935795D01*
X215883003Y-120916501D01*
X215922180Y-120904617D01*
X215969056Y-120900000D01*
X217862944Y-120900000D01*
X217909820Y-120904617D01*
X217909820Y-120904617D01*
G37*
G36*
X223315000Y-125525000D02*
X219915000Y-125525000D01*
X219915000Y-122125000D01*
X223315000Y-122125000D01*
X223315000Y-125525000D01*
X223315000Y-125525000D01*
G37*
G36*
X222001393Y-117088553D02*
X222110872Y-117110330D01*
X222420252Y-117238479D01*
X222698687Y-117424523D01*
X222935477Y-117661313D01*
X223121521Y-117939748D01*
X223249670Y-118249128D01*
X223315000Y-118577565D01*
X223315000Y-118912435D01*
X223249670Y-119240872D01*
X223121521Y-119550252D01*
X222935477Y-119828687D01*
X222698687Y-120065477D01*
X222420252Y-120251521D01*
X222110872Y-120379670D01*
X222001393Y-120401447D01*
X221782437Y-120445000D01*
X221447563Y-120445000D01*
X221228607Y-120401447D01*
X221119128Y-120379670D01*
X220809748Y-120251521D01*
X220531313Y-120065477D01*
X220294523Y-119828687D01*
X220108479Y-119550252D01*
X219980330Y-119240872D01*
X219915000Y-118912435D01*
X219915000Y-118577565D01*
X219980330Y-118249128D01*
X220108479Y-117939748D01*
X220294523Y-117661313D01*
X220531313Y-117424523D01*
X220809748Y-117238479D01*
X221119128Y-117110330D01*
X221228607Y-117088553D01*
X221447563Y-117045000D01*
X221782437Y-117045000D01*
X222001393Y-117088553D01*
X222001393Y-117088553D01*
G37*
G36*
X71783122Y-112368315D02*
X71899041Y-112391373D01*
X72226620Y-112527061D01*
X72517511Y-112721428D01*
X72521436Y-112724051D01*
X72772149Y-112974764D01*
X72969140Y-113269582D01*
X73104827Y-113597160D01*
X73174000Y-113944914D01*
X73174000Y-114299486D01*
X73104827Y-114647240D01*
X72979437Y-114949960D01*
X72969139Y-114974820D01*
X72823356Y-115193000D01*
X72772149Y-115269636D01*
X72521436Y-115520349D01*
X72521433Y-115520351D01*
X72226620Y-115717339D01*
X71899041Y-115853027D01*
X71783122Y-115876085D01*
X71551286Y-115922200D01*
X71196714Y-115922200D01*
X70964878Y-115876085D01*
X70848959Y-115853027D01*
X70521380Y-115717339D01*
X70226567Y-115520351D01*
X70226564Y-115520349D01*
X69975851Y-115269636D01*
X69924644Y-115193000D01*
X69778861Y-114974820D01*
X69768564Y-114949960D01*
X69643173Y-114647240D01*
X69574000Y-114299486D01*
X69574000Y-113944914D01*
X69643173Y-113597160D01*
X69778860Y-113269582D01*
X69975851Y-112974764D01*
X70226564Y-112724051D01*
X70230489Y-112721428D01*
X70521380Y-112527061D01*
X70848959Y-112391373D01*
X70964878Y-112368315D01*
X71196714Y-112322200D01*
X71551286Y-112322200D01*
X71783122Y-112368315D01*
X71783122Y-112368315D01*
G37*
G36*
X217909820Y-109347617D02*
X217948997Y-109359501D01*
X217985094Y-109378795D01*
X218016736Y-109404764D01*
X218042705Y-109436406D01*
X218061999Y-109472503D01*
X218073883Y-109511680D01*
X218078500Y-109558556D01*
X218078500Y-114977444D01*
X218073883Y-115024320D01*
X218061999Y-115063497D01*
X218042705Y-115099594D01*
X218016736Y-115131236D01*
X217985094Y-115157205D01*
X217948997Y-115176499D01*
X217909820Y-115188383D01*
X217862944Y-115193000D01*
X215969056Y-115193000D01*
X215922180Y-115188383D01*
X215883003Y-115176499D01*
X215846906Y-115157205D01*
X215815264Y-115131236D01*
X215789295Y-115099594D01*
X215770001Y-115063497D01*
X215758117Y-115024320D01*
X215753500Y-114977444D01*
X215753500Y-109558556D01*
X215758117Y-109511680D01*
X215770001Y-109472503D01*
X215789295Y-109436406D01*
X215815264Y-109404764D01*
X215846906Y-109378795D01*
X215883003Y-109359501D01*
X215922180Y-109347617D01*
X215969056Y-109343000D01*
X217862944Y-109343000D01*
X217909820Y-109347617D01*
X217909820Y-109347617D01*
G37*
G36*
X211134820Y-109347617D02*
X211173997Y-109359501D01*
X211210094Y-109378795D01*
X211241736Y-109404764D01*
X211267705Y-109436406D01*
X211286999Y-109472503D01*
X211298883Y-109511680D01*
X211303500Y-109558556D01*
X211303500Y-114977444D01*
X211298883Y-115024320D01*
X211286999Y-115063497D01*
X211267705Y-115099594D01*
X211241736Y-115131236D01*
X211210094Y-115157205D01*
X211173997Y-115176499D01*
X211134820Y-115188383D01*
X211087944Y-115193000D01*
X209194056Y-115193000D01*
X209147180Y-115188383D01*
X209108003Y-115176499D01*
X209071906Y-115157205D01*
X209040264Y-115131236D01*
X209014295Y-115099594D01*
X208995001Y-115063497D01*
X208983117Y-115024320D01*
X208978500Y-114977444D01*
X208978500Y-109558556D01*
X208983117Y-109511680D01*
X208995001Y-109472503D01*
X209014295Y-109436406D01*
X209040264Y-109404764D01*
X209071906Y-109378795D01*
X209108003Y-109359501D01*
X209147180Y-109347617D01*
X209194056Y-109343000D01*
X211087944Y-109343000D01*
X211134820Y-109347617D01*
X211134820Y-109347617D01*
G37*
G36*
X223315000Y-113968000D02*
X219915000Y-113968000D01*
X219915000Y-110568000D01*
X223315000Y-110568000D01*
X223315000Y-113968000D01*
X223315000Y-113968000D01*
G37*
G36*
X81945195Y-98888874D02*
X82820119Y-99062907D01*
X83781018Y-99460924D01*
X84645804Y-100038756D01*
X85381244Y-100774196D01*
X85959076Y-101638982D01*
X86357093Y-102599881D01*
X86560000Y-103619965D01*
X86560000Y-104660035D01*
X86357093Y-105680119D01*
X85959076Y-106641018D01*
X85381244Y-107505804D01*
X84645804Y-108241244D01*
X83781018Y-108819076D01*
X82820119Y-109217093D01*
X81945195Y-109391126D01*
X81800036Y-109420000D01*
X80759964Y-109420000D01*
X80614805Y-109391126D01*
X79739881Y-109217093D01*
X78778982Y-108819076D01*
X77914196Y-108241244D01*
X77178756Y-107505804D01*
X76600924Y-106641018D01*
X76202907Y-105680119D01*
X76000000Y-104660035D01*
X76000000Y-103619965D01*
X76202907Y-102599881D01*
X76600924Y-101638982D01*
X77178756Y-100774196D01*
X77914196Y-100038756D01*
X78778982Y-99460924D01*
X79739881Y-99062907D01*
X80614805Y-98888874D01*
X80759964Y-98860000D01*
X81800036Y-98860000D01*
X81945195Y-98888874D01*
X81945195Y-98888874D01*
G37*
G36*
X222001393Y-105531553D02*
X222110872Y-105553330D01*
X222420252Y-105681479D01*
X222698687Y-105867523D01*
X222935477Y-106104313D01*
X223121521Y-106382748D01*
X223249670Y-106692128D01*
X223249670Y-106692129D01*
X223315000Y-107020563D01*
X223315000Y-107355437D01*
X223271447Y-107574393D01*
X223249670Y-107683872D01*
X223121521Y-107993252D01*
X222935477Y-108271687D01*
X222698687Y-108508477D01*
X222420252Y-108694521D01*
X222110872Y-108822670D01*
X222001393Y-108844447D01*
X221782437Y-108888000D01*
X221447563Y-108888000D01*
X221228607Y-108844447D01*
X221119128Y-108822670D01*
X220809748Y-108694521D01*
X220531313Y-108508477D01*
X220294523Y-108271687D01*
X220108479Y-107993252D01*
X219980330Y-107683872D01*
X219958553Y-107574393D01*
X219915000Y-107355437D01*
X219915000Y-107020563D01*
X219980330Y-106692129D01*
X219980330Y-106692128D01*
X220108479Y-106382748D01*
X220294523Y-106104313D01*
X220531313Y-105867523D01*
X220809748Y-105681479D01*
X221119128Y-105553330D01*
X221228607Y-105531553D01*
X221447563Y-105488000D01*
X221782437Y-105488000D01*
X222001393Y-105531553D01*
X222001393Y-105531553D01*
G37*
G36*
X201931707Y-102208596D02*
X202008836Y-102216193D01*
X202140787Y-102256220D01*
X202206763Y-102276233D01*
X202389172Y-102373733D01*
X202549054Y-102504946D01*
X202680267Y-102664828D01*
X202777767Y-102847237D01*
X202777767Y-102847238D01*
X202837807Y-103045164D01*
X202858080Y-103251000D01*
X202837807Y-103456836D01*
X202797780Y-103588787D01*
X202777767Y-103654763D01*
X202680267Y-103837172D01*
X202549054Y-103997054D01*
X202389172Y-104128267D01*
X202206763Y-104225767D01*
X202140787Y-104245780D01*
X202008836Y-104285807D01*
X201931707Y-104293403D01*
X201854580Y-104301000D01*
X201751420Y-104301000D01*
X201674293Y-104293404D01*
X201597164Y-104285807D01*
X201465213Y-104245780D01*
X201399237Y-104225767D01*
X201216828Y-104128267D01*
X201056946Y-103997054D01*
X200925733Y-103837172D01*
X200828233Y-103654763D01*
X200808220Y-103588787D01*
X200768193Y-103456836D01*
X200747920Y-103251000D01*
X200768193Y-103045164D01*
X200828233Y-102847238D01*
X200828233Y-102847237D01*
X200925733Y-102664828D01*
X201056946Y-102504946D01*
X201216828Y-102373733D01*
X201399237Y-102276233D01*
X201465213Y-102256220D01*
X201597164Y-102216193D01*
X201674293Y-102208596D01*
X201751420Y-102201000D01*
X201854580Y-102201000D01*
X201931707Y-102208596D01*
X201931707Y-102208596D01*
G37*
G36*
X199391707Y-102208596D02*
X199468836Y-102216193D01*
X199600787Y-102256220D01*
X199666763Y-102276233D01*
X199849172Y-102373733D01*
X200009054Y-102504946D01*
X200140267Y-102664828D01*
X200237767Y-102847237D01*
X200237767Y-102847238D01*
X200297807Y-103045164D01*
X200318080Y-103251000D01*
X200297807Y-103456836D01*
X200257780Y-103588787D01*
X200237767Y-103654763D01*
X200140267Y-103837172D01*
X200009054Y-103997054D01*
X199849172Y-104128267D01*
X199666763Y-104225767D01*
X199600787Y-104245780D01*
X199468836Y-104285807D01*
X199391707Y-104293403D01*
X199314580Y-104301000D01*
X199211420Y-104301000D01*
X199134293Y-104293404D01*
X199057164Y-104285807D01*
X198925213Y-104245780D01*
X198859237Y-104225767D01*
X198676828Y-104128267D01*
X198516946Y-103997054D01*
X198385733Y-103837172D01*
X198288233Y-103654763D01*
X198268220Y-103588787D01*
X198228193Y-103456836D01*
X198207920Y-103251000D01*
X198228193Y-103045164D01*
X198288233Y-102847238D01*
X198288233Y-102847237D01*
X198385733Y-102664828D01*
X198516946Y-102504946D01*
X198676828Y-102373733D01*
X198859237Y-102276233D01*
X198925213Y-102256220D01*
X199057164Y-102216193D01*
X199134293Y-102208596D01*
X199211420Y-102201000D01*
X199314580Y-102201000D01*
X199391707Y-102208596D01*
X199391707Y-102208596D01*
G37*
G36*
X204471707Y-102208596D02*
X204548836Y-102216193D01*
X204680787Y-102256220D01*
X204746763Y-102276233D01*
X204929172Y-102373733D01*
X205089054Y-102504946D01*
X205220267Y-102664828D01*
X205317767Y-102847237D01*
X205317767Y-102847238D01*
X205377807Y-103045164D01*
X205398080Y-103251000D01*
X205377807Y-103456836D01*
X205337780Y-103588787D01*
X205317767Y-103654763D01*
X205220267Y-103837172D01*
X205089054Y-103997054D01*
X204929172Y-104128267D01*
X204746763Y-104225767D01*
X204680787Y-104245780D01*
X204548836Y-104285807D01*
X204471707Y-104293403D01*
X204394580Y-104301000D01*
X204291420Y-104301000D01*
X204214293Y-104293404D01*
X204137164Y-104285807D01*
X204005213Y-104245780D01*
X203939237Y-104225767D01*
X203756828Y-104128267D01*
X203596946Y-103997054D01*
X203465733Y-103837172D01*
X203368233Y-103654763D01*
X203348220Y-103588787D01*
X203308193Y-103456836D01*
X203287920Y-103251000D01*
X203308193Y-103045164D01*
X203368233Y-102847238D01*
X203368233Y-102847237D01*
X203465733Y-102664828D01*
X203596946Y-102504946D01*
X203756828Y-102373733D01*
X203939237Y-102276233D01*
X204005213Y-102256220D01*
X204137164Y-102216193D01*
X204214293Y-102208596D01*
X204291420Y-102201000D01*
X204394580Y-102201000D01*
X204471707Y-102208596D01*
X204471707Y-102208596D01*
G37*
G36*
X197773000Y-104301000D02*
X195673000Y-104301000D01*
X195673000Y-102201000D01*
X197773000Y-102201000D01*
X197773000Y-104301000D01*
X197773000Y-104301000D01*
G37*
G36*
X223315000Y-101395000D02*
X219915000Y-101395000D01*
X219915000Y-97995000D01*
X223315000Y-97995000D01*
X223315000Y-101395000D01*
X223315000Y-101395000D01*
G37*
G36*
X70796000Y-101022000D02*
X68396000Y-101022000D01*
X68396000Y-98622000D01*
X70796000Y-98622000D01*
X70796000Y-101022000D01*
X70796000Y-101022000D01*
G37*
G36*
X222001393Y-92958553D02*
X222110872Y-92980330D01*
X222420252Y-93108479D01*
X222698687Y-93294523D01*
X222935477Y-93531313D01*
X223121521Y-93809748D01*
X223154721Y-93889901D01*
X223249670Y-94119129D01*
X223315000Y-94447563D01*
X223315000Y-94782437D01*
X223271447Y-95001393D01*
X223249670Y-95110872D01*
X223121521Y-95420252D01*
X222935477Y-95698687D01*
X222698687Y-95935477D01*
X222420252Y-96121521D01*
X222110872Y-96249670D01*
X222001393Y-96271447D01*
X221782437Y-96315000D01*
X221447563Y-96315000D01*
X221228607Y-96271447D01*
X221119128Y-96249670D01*
X220809748Y-96121521D01*
X220531313Y-95935477D01*
X220294523Y-95698687D01*
X220108479Y-95420252D01*
X219980330Y-95110872D01*
X219958553Y-95001393D01*
X219915000Y-94782437D01*
X219915000Y-94447563D01*
X219980330Y-94119129D01*
X220075279Y-93889901D01*
X220108479Y-93809748D01*
X220294523Y-93531313D01*
X220531313Y-93294523D01*
X220809748Y-93108479D01*
X221119128Y-92980330D01*
X221228607Y-92958553D01*
X221447563Y-92915000D01*
X221782437Y-92915000D01*
X222001393Y-92958553D01*
X222001393Y-92958553D01*
G37*
G36*
X69946026Y-93668115D02*
X70164412Y-93758573D01*
X70360958Y-93889901D01*
X70528099Y-94057042D01*
X70659427Y-94253588D01*
X70749885Y-94471974D01*
X70796000Y-94703809D01*
X70796000Y-94940191D01*
X70749885Y-95172026D01*
X70659427Y-95390412D01*
X70528099Y-95586958D01*
X70360958Y-95754099D01*
X70164412Y-95885427D01*
X69946026Y-95975885D01*
X69714191Y-96022000D01*
X69477809Y-96022000D01*
X69245974Y-95975885D01*
X69027588Y-95885427D01*
X68831042Y-95754099D01*
X68663901Y-95586958D01*
X68532573Y-95390412D01*
X68442115Y-95172026D01*
X68396000Y-94940191D01*
X68396000Y-94703809D01*
X68442115Y-94471974D01*
X68532573Y-94253588D01*
X68663901Y-94057042D01*
X68831042Y-93889901D01*
X69027588Y-93758573D01*
X69245974Y-93668115D01*
X69477809Y-93622000D01*
X69714191Y-93622000D01*
X69946026Y-93668115D01*
X69946026Y-93668115D01*
G37*
G36*
X222665000Y-91093000D02*
X220565000Y-91093000D01*
X220565000Y-88993000D01*
X222665000Y-88993000D01*
X222665000Y-91093000D01*
X222665000Y-91093000D01*
G37*
G36*
X221743707Y-86460597D02*
X221820836Y-86468193D01*
X221952787Y-86508220D01*
X222018763Y-86528233D01*
X222201172Y-86625733D01*
X222361054Y-86756946D01*
X222492267Y-86916828D01*
X222589767Y-87099237D01*
X222589767Y-87099238D01*
X222649807Y-87297164D01*
X222670080Y-87503000D01*
X222649807Y-87708836D01*
X222609780Y-87840787D01*
X222589767Y-87906763D01*
X222492267Y-88089172D01*
X222361054Y-88249054D01*
X222201172Y-88380267D01*
X222018763Y-88477767D01*
X221952787Y-88497780D01*
X221820836Y-88537807D01*
X221743707Y-88545404D01*
X221666580Y-88553000D01*
X221563420Y-88553000D01*
X221486293Y-88545404D01*
X221409164Y-88537807D01*
X221277213Y-88497780D01*
X221211237Y-88477767D01*
X221028828Y-88380267D01*
X220868946Y-88249054D01*
X220737733Y-88089172D01*
X220640233Y-87906763D01*
X220620220Y-87840787D01*
X220580193Y-87708836D01*
X220559920Y-87503000D01*
X220580193Y-87297164D01*
X220640233Y-87099238D01*
X220640233Y-87099237D01*
X220737733Y-86916828D01*
X220868946Y-86756946D01*
X221028828Y-86625733D01*
X221211237Y-86528233D01*
X221277213Y-86508220D01*
X221409164Y-86468193D01*
X221486293Y-86460597D01*
X221563420Y-86453000D01*
X221666580Y-86453000D01*
X221743707Y-86460597D01*
X221743707Y-86460597D01*
G37*
G36*
X222665000Y-85886000D02*
X220565000Y-85886000D01*
X220565000Y-83786000D01*
X222665000Y-83786000D01*
X222665000Y-85886000D01*
X222665000Y-85886000D01*
G37*
G36*
X221743707Y-81253596D02*
X221820836Y-81261193D01*
X221952787Y-81301220D01*
X222018763Y-81321233D01*
X222201172Y-81418733D01*
X222361054Y-81549946D01*
X222492267Y-81709828D01*
X222589767Y-81892237D01*
X222589767Y-81892238D01*
X222649807Y-82090164D01*
X222670080Y-82296000D01*
X222649807Y-82501836D01*
X222609780Y-82633787D01*
X222589767Y-82699763D01*
X222492267Y-82882172D01*
X222361054Y-83042054D01*
X222201172Y-83173267D01*
X222018763Y-83270767D01*
X221952787Y-83290780D01*
X221820836Y-83330807D01*
X221743707Y-83338403D01*
X221666580Y-83346000D01*
X221563420Y-83346000D01*
X221486293Y-83338403D01*
X221409164Y-83330807D01*
X221277213Y-83290780D01*
X221211237Y-83270767D01*
X221028828Y-83173267D01*
X220868946Y-83042054D01*
X220737733Y-82882172D01*
X220640233Y-82699763D01*
X220620220Y-82633787D01*
X220580193Y-82501836D01*
X220559920Y-82296000D01*
X220580193Y-82090164D01*
X220640233Y-81892238D01*
X220640233Y-81892237D01*
X220737733Y-81709828D01*
X220868946Y-81549946D01*
X221028828Y-81418733D01*
X221211237Y-81321233D01*
X221277213Y-81301220D01*
X221409164Y-81261193D01*
X221486293Y-81253596D01*
X221563420Y-81246000D01*
X221666580Y-81246000D01*
X221743707Y-81253596D01*
X221743707Y-81253596D01*
G37*
G36*
X201075000Y-82076000D02*
X198975000Y-82076000D01*
X198975000Y-79976000D01*
X201075000Y-79976000D01*
X201075000Y-82076000D01*
X201075000Y-82076000D01*
G37*
G36*
X200153707Y-77443597D02*
X200230836Y-77451193D01*
X200362787Y-77491220D01*
X200428763Y-77511233D01*
X200611172Y-77608733D01*
X200771054Y-77739946D01*
X200902267Y-77899828D01*
X200999767Y-78082237D01*
X200999767Y-78082238D01*
X201059807Y-78280164D01*
X201080080Y-78486000D01*
X201059807Y-78691836D01*
X201019780Y-78823787D01*
X200999767Y-78889763D01*
X200902267Y-79072172D01*
X200771054Y-79232054D01*
X200611172Y-79363267D01*
X200428763Y-79460767D01*
X200362787Y-79480780D01*
X200230836Y-79520807D01*
X200153707Y-79528404D01*
X200076580Y-79536000D01*
X199973420Y-79536000D01*
X199896293Y-79528404D01*
X199819164Y-79520807D01*
X199687213Y-79480780D01*
X199621237Y-79460767D01*
X199438828Y-79363267D01*
X199278946Y-79232054D01*
X199147733Y-79072172D01*
X199050233Y-78889763D01*
X199030220Y-78823787D01*
X198990193Y-78691836D01*
X198969920Y-78486000D01*
X198990193Y-78280164D01*
X199050233Y-78082238D01*
X199050233Y-78082237D01*
X199147733Y-77899828D01*
X199278946Y-77739946D01*
X199438828Y-77608733D01*
X199621237Y-77511233D01*
X199687213Y-77491220D01*
X199819164Y-77451193D01*
X199896293Y-77443597D01*
X199973420Y-77436000D01*
X200076580Y-77436000D01*
X200153707Y-77443597D01*
X200153707Y-77443597D01*
G37*
G36*
X224528026Y-77006115D02*
X224746412Y-77096573D01*
X224942958Y-77227901D01*
X225110099Y-77395042D01*
X225241427Y-77591588D01*
X225331885Y-77809974D01*
X225378000Y-78041809D01*
X225378000Y-78278191D01*
X225331885Y-78510026D01*
X225241427Y-78728412D01*
X225110099Y-78924958D01*
X224942958Y-79092099D01*
X224746412Y-79223427D01*
X224528026Y-79313885D01*
X224296191Y-79360000D01*
X224059809Y-79360000D01*
X223827974Y-79313885D01*
X223609588Y-79223427D01*
X223413042Y-79092099D01*
X223245901Y-78924958D01*
X223114573Y-78728412D01*
X223024115Y-78510026D01*
X222978000Y-78278191D01*
X222978000Y-78041809D01*
X223024115Y-77809974D01*
X223114573Y-77591588D01*
X223245901Y-77395042D01*
X223413042Y-77227901D01*
X223609588Y-77096573D01*
X223827974Y-77006115D01*
X224059809Y-76960000D01*
X224296191Y-76960000D01*
X224528026Y-77006115D01*
X224528026Y-77006115D01*
G37*
G36*
X218028026Y-77006115D02*
X218246412Y-77096573D01*
X218442958Y-77227901D01*
X218610099Y-77395042D01*
X218741427Y-77591588D01*
X218831885Y-77809974D01*
X218878000Y-78041809D01*
X218878000Y-78278191D01*
X218831885Y-78510026D01*
X218741427Y-78728412D01*
X218610099Y-78924958D01*
X218442958Y-79092099D01*
X218246412Y-79223427D01*
X218028026Y-79313885D01*
X217796191Y-79360000D01*
X217559809Y-79360000D01*
X217327974Y-79313885D01*
X217109588Y-79223427D01*
X216913042Y-79092099D01*
X216745901Y-78924958D01*
X216614573Y-78728412D01*
X216524115Y-78510026D01*
X216478000Y-78278191D01*
X216478000Y-78041809D01*
X216524115Y-77809974D01*
X216614573Y-77591588D01*
X216745901Y-77395042D01*
X216913042Y-77227901D01*
X217109588Y-77096573D01*
X217327974Y-77006115D01*
X217559809Y-76960000D01*
X217796191Y-76960000D01*
X218028026Y-77006115D01*
X218028026Y-77006115D01*
G37*
G36*
X200153707Y-74903597D02*
X200230836Y-74911193D01*
X200362787Y-74951220D01*
X200428763Y-74971233D01*
X200611172Y-75068733D01*
X200771054Y-75199946D01*
X200902267Y-75359828D01*
X200999767Y-75542237D01*
X200999767Y-75542238D01*
X201059807Y-75740164D01*
X201080080Y-75946000D01*
X201059807Y-76151836D01*
X201047591Y-76192106D01*
X200999767Y-76349763D01*
X200902267Y-76532172D01*
X200771054Y-76692054D01*
X200611172Y-76823267D01*
X200428763Y-76920767D01*
X200362787Y-76940780D01*
X200230836Y-76980807D01*
X200153707Y-76988404D01*
X200076580Y-76996000D01*
X199973420Y-76996000D01*
X199896293Y-76988404D01*
X199819164Y-76980807D01*
X199687213Y-76940780D01*
X199621237Y-76920767D01*
X199438828Y-76823267D01*
X199278946Y-76692054D01*
X199147733Y-76532172D01*
X199050233Y-76349763D01*
X199002409Y-76192106D01*
X198990193Y-76151836D01*
X198969920Y-75946000D01*
X198990193Y-75740164D01*
X199050233Y-75542238D01*
X199050233Y-75542237D01*
X199147733Y-75359828D01*
X199278946Y-75199946D01*
X199438828Y-75068733D01*
X199621237Y-74971233D01*
X199687213Y-74951220D01*
X199819164Y-74911193D01*
X199896293Y-74903597D01*
X199973420Y-74896000D01*
X200076580Y-74896000D01*
X200153707Y-74903597D01*
X200153707Y-74903597D01*
G37*
G36*
X158714158Y-70825088D02*
X158866122Y-70888033D01*
X159002884Y-70979415D01*
X159119185Y-71095716D01*
X159210567Y-71232478D01*
X159273512Y-71384442D01*
X159305600Y-71545758D01*
X159305600Y-71710242D01*
X159273512Y-71871558D01*
X159210568Y-72023520D01*
X159204904Y-72031996D01*
X159193353Y-72053607D01*
X159186239Y-72077056D01*
X159183837Y-72101442D01*
X159186239Y-72125829D01*
X159193351Y-72149278D01*
X159204902Y-72170889D01*
X159220447Y-72189831D01*
X159239389Y-72205377D01*
X159261000Y-72216928D01*
X159284449Y-72224042D01*
X159308835Y-72226444D01*
X159333222Y-72224042D01*
X159356672Y-72216929D01*
X159356674Y-72216928D01*
X159532994Y-72143894D01*
X159668555Y-72116929D01*
X159939674Y-72063000D01*
X160354326Y-72063000D01*
X160625445Y-72116929D01*
X160761006Y-72143894D01*
X161144091Y-72302573D01*
X161446795Y-72504834D01*
X161488862Y-72532942D01*
X161782058Y-72826138D01*
X161782060Y-72826141D01*
X162012427Y-73170909D01*
X162166059Y-73541810D01*
X162171106Y-73553995D01*
X162252000Y-73960674D01*
X162252000Y-74375326D01*
X162238975Y-74440807D01*
X162171106Y-74782006D01*
X162012427Y-75165091D01*
X161882307Y-75359829D01*
X161782058Y-75509862D01*
X161488862Y-75803058D01*
X161488859Y-75803060D01*
X161144091Y-76033427D01*
X160761006Y-76192106D01*
X160625445Y-76219071D01*
X160354326Y-76273000D01*
X159939674Y-76273000D01*
X159668555Y-76219071D01*
X159532994Y-76192106D01*
X159149909Y-76033427D01*
X158805141Y-75803060D01*
X158805138Y-75803058D01*
X158511942Y-75509862D01*
X158411693Y-75359829D01*
X158281573Y-75165091D01*
X158122894Y-74782006D01*
X158055025Y-74440807D01*
X158042000Y-74375326D01*
X158042000Y-73960674D01*
X158122894Y-73553995D01*
X158127941Y-73541810D01*
X158281573Y-73170909D01*
X158511940Y-72826141D01*
X158511942Y-72826138D01*
X158663716Y-72674364D01*
X158679262Y-72655422D01*
X158690813Y-72633811D01*
X158697926Y-72610362D01*
X158700328Y-72585976D01*
X158697926Y-72561590D01*
X158690813Y-72538141D01*
X158679262Y-72516530D01*
X158663716Y-72497588D01*
X158644774Y-72482042D01*
X158623163Y-72470491D01*
X158599714Y-72463378D01*
X158575328Y-72460976D01*
X158554780Y-72463000D01*
X158388358Y-72463000D01*
X158227042Y-72430912D01*
X158075078Y-72367967D01*
X157938316Y-72276585D01*
X157822015Y-72160284D01*
X157730633Y-72023522D01*
X157667688Y-71871558D01*
X157635600Y-71710242D01*
X157635600Y-71545758D01*
X157667688Y-71384442D01*
X157730633Y-71232478D01*
X157822015Y-71095716D01*
X157938316Y-70979415D01*
X158075078Y-70888033D01*
X158227042Y-70825088D01*
X158388358Y-70793000D01*
X158552842Y-70793000D01*
X158714158Y-70825088D01*
X158714158Y-70825088D01*
G37*
G36*
X117185158Y-70825088D02*
X117337122Y-70888033D01*
X117473884Y-70979415D01*
X117590185Y-71095716D01*
X117681567Y-71232478D01*
X117744512Y-71384442D01*
X117776600Y-71545758D01*
X117776600Y-71710242D01*
X117744512Y-71871558D01*
X117681568Y-72023520D01*
X117675904Y-72031996D01*
X117664353Y-72053607D01*
X117657239Y-72077056D01*
X117654837Y-72101442D01*
X117657239Y-72125829D01*
X117664351Y-72149278D01*
X117675902Y-72170889D01*
X117691447Y-72189831D01*
X117710389Y-72205377D01*
X117732000Y-72216928D01*
X117755449Y-72224042D01*
X117779835Y-72226444D01*
X117804222Y-72224042D01*
X117827672Y-72216929D01*
X117827674Y-72216928D01*
X118003994Y-72143894D01*
X118139555Y-72116929D01*
X118410674Y-72063000D01*
X118825326Y-72063000D01*
X119096445Y-72116929D01*
X119232006Y-72143894D01*
X119615091Y-72302573D01*
X119917795Y-72504834D01*
X119959862Y-72532942D01*
X120253058Y-72826138D01*
X120253060Y-72826141D01*
X120483427Y-73170909D01*
X120637059Y-73541810D01*
X120642106Y-73553995D01*
X120723000Y-73960674D01*
X120723000Y-74375326D01*
X120709975Y-74440807D01*
X120642106Y-74782006D01*
X120483427Y-75165091D01*
X120353307Y-75359829D01*
X120253058Y-75509862D01*
X119959862Y-75803058D01*
X119959859Y-75803060D01*
X119615091Y-76033427D01*
X119232006Y-76192106D01*
X119096445Y-76219071D01*
X118825326Y-76273000D01*
X118410674Y-76273000D01*
X118139555Y-76219071D01*
X118003994Y-76192106D01*
X117620909Y-76033427D01*
X117276141Y-75803060D01*
X117276138Y-75803058D01*
X116982942Y-75509862D01*
X116882693Y-75359829D01*
X116752573Y-75165091D01*
X116593894Y-74782006D01*
X116526025Y-74440807D01*
X116513000Y-74375326D01*
X116513000Y-73960674D01*
X116593894Y-73553995D01*
X116598941Y-73541810D01*
X116752573Y-73170909D01*
X116982940Y-72826141D01*
X116982942Y-72826138D01*
X117134716Y-72674364D01*
X117150262Y-72655422D01*
X117161813Y-72633811D01*
X117168926Y-72610362D01*
X117171328Y-72585976D01*
X117168926Y-72561590D01*
X117161813Y-72538141D01*
X117150262Y-72516530D01*
X117134716Y-72497588D01*
X117115774Y-72482042D01*
X117094163Y-72470491D01*
X117070714Y-72463378D01*
X117046328Y-72460976D01*
X117025780Y-72463000D01*
X116859358Y-72463000D01*
X116698042Y-72430912D01*
X116546078Y-72367967D01*
X116409316Y-72276585D01*
X116293015Y-72160284D01*
X116201633Y-72023522D01*
X116138688Y-71871558D01*
X116106600Y-71710242D01*
X116106600Y-71545758D01*
X116138688Y-71384442D01*
X116201633Y-71232478D01*
X116293015Y-71095716D01*
X116409316Y-70979415D01*
X116546078Y-70888033D01*
X116698042Y-70825088D01*
X116859358Y-70793000D01*
X117023842Y-70793000D01*
X117185158Y-70825088D01*
X117185158Y-70825088D01*
G37*
G36*
X146826958Y-70825088D02*
X146978922Y-70888033D01*
X147115684Y-70979415D01*
X147231985Y-71095716D01*
X147323367Y-71232478D01*
X147386312Y-71384442D01*
X147418400Y-71545758D01*
X147418400Y-71710242D01*
X147386312Y-71871558D01*
X147323367Y-72023522D01*
X147231985Y-72160284D01*
X147115684Y-72276585D01*
X146978922Y-72367967D01*
X146826958Y-72430912D01*
X146665642Y-72463000D01*
X146499219Y-72463000D01*
X146478670Y-72460976D01*
X146454284Y-72463378D01*
X146430835Y-72470492D01*
X146409224Y-72482043D01*
X146390283Y-72497589D01*
X146374737Y-72516531D01*
X146363186Y-72538142D01*
X146356074Y-72561591D01*
X146353672Y-72585978D01*
X146356074Y-72610364D01*
X146363188Y-72633813D01*
X146374739Y-72655424D01*
X146390284Y-72674364D01*
X146542058Y-72826138D01*
X146542060Y-72826141D01*
X146772427Y-73170909D01*
X146926059Y-73541810D01*
X146931106Y-73553995D01*
X147012000Y-73960674D01*
X147012000Y-74375326D01*
X146998975Y-74440807D01*
X146931106Y-74782006D01*
X146772427Y-75165091D01*
X146642307Y-75359829D01*
X146542058Y-75509862D01*
X146248862Y-75803058D01*
X146248859Y-75803060D01*
X145904091Y-76033427D01*
X145521006Y-76192106D01*
X145385445Y-76219071D01*
X145114326Y-76273000D01*
X144699674Y-76273000D01*
X144428555Y-76219071D01*
X144292994Y-76192106D01*
X143909909Y-76033427D01*
X143565141Y-75803060D01*
X143565138Y-75803058D01*
X143271942Y-75509862D01*
X143171693Y-75359829D01*
X143041573Y-75165091D01*
X142882894Y-74782006D01*
X142815025Y-74440807D01*
X142802000Y-74375326D01*
X142802000Y-73960674D01*
X142882894Y-73553995D01*
X142887941Y-73541810D01*
X143041573Y-73170909D01*
X143271940Y-72826141D01*
X143271942Y-72826138D01*
X143565138Y-72532942D01*
X143607205Y-72504834D01*
X143909909Y-72302573D01*
X144292994Y-72143894D01*
X144428555Y-72116929D01*
X144699674Y-72063000D01*
X145114326Y-72063000D01*
X145385445Y-72116929D01*
X145521006Y-72143894D01*
X145697326Y-72216928D01*
X145697328Y-72216929D01*
X145720777Y-72224042D01*
X145745163Y-72226444D01*
X145769549Y-72224042D01*
X145792999Y-72216929D01*
X145814609Y-72205378D01*
X145833551Y-72189832D01*
X145849097Y-72170890D01*
X145860648Y-72149279D01*
X145867761Y-72125830D01*
X145870163Y-72101444D01*
X145867761Y-72077058D01*
X145860648Y-72053608D01*
X145849096Y-72031996D01*
X145843432Y-72023520D01*
X145780488Y-71871558D01*
X145748400Y-71710242D01*
X145748400Y-71545758D01*
X145780488Y-71384442D01*
X145843433Y-71232478D01*
X145934815Y-71095716D01*
X146051116Y-70979415D01*
X146187878Y-70888033D01*
X146339842Y-70825088D01*
X146501158Y-70793000D01*
X146665642Y-70793000D01*
X146826958Y-70825088D01*
X146826958Y-70825088D01*
G37*
G36*
X105297958Y-70825088D02*
X105449922Y-70888033D01*
X105586684Y-70979415D01*
X105702985Y-71095716D01*
X105794367Y-71232478D01*
X105857312Y-71384442D01*
X105889400Y-71545758D01*
X105889400Y-71710242D01*
X105857312Y-71871558D01*
X105794367Y-72023522D01*
X105702985Y-72160284D01*
X105586684Y-72276585D01*
X105449922Y-72367967D01*
X105297958Y-72430912D01*
X105136642Y-72463000D01*
X104970219Y-72463000D01*
X104949670Y-72460976D01*
X104925284Y-72463378D01*
X104901835Y-72470492D01*
X104880224Y-72482043D01*
X104861283Y-72497589D01*
X104845737Y-72516531D01*
X104834186Y-72538142D01*
X104827074Y-72561591D01*
X104824672Y-72585978D01*
X104827074Y-72610364D01*
X104834188Y-72633813D01*
X104845739Y-72655424D01*
X104861284Y-72674364D01*
X105013058Y-72826138D01*
X105013060Y-72826141D01*
X105243427Y-73170909D01*
X105397059Y-73541810D01*
X105402106Y-73553995D01*
X105483000Y-73960674D01*
X105483000Y-74375326D01*
X105469975Y-74440807D01*
X105402106Y-74782006D01*
X105243427Y-75165091D01*
X105113307Y-75359829D01*
X105013058Y-75509862D01*
X104719862Y-75803058D01*
X104719859Y-75803060D01*
X104375091Y-76033427D01*
X103992006Y-76192106D01*
X103856445Y-76219071D01*
X103585326Y-76273000D01*
X103170674Y-76273000D01*
X102899555Y-76219071D01*
X102763994Y-76192106D01*
X102380909Y-76033427D01*
X102036141Y-75803060D01*
X102036138Y-75803058D01*
X101742942Y-75509862D01*
X101642693Y-75359829D01*
X101512573Y-75165091D01*
X101353894Y-74782006D01*
X101286025Y-74440807D01*
X101273000Y-74375326D01*
X101273000Y-73960674D01*
X101353894Y-73553995D01*
X101358941Y-73541810D01*
X101512573Y-73170909D01*
X101742940Y-72826141D01*
X101742942Y-72826138D01*
X102036138Y-72532942D01*
X102078205Y-72504834D01*
X102380909Y-72302573D01*
X102763994Y-72143894D01*
X102899555Y-72116929D01*
X103170674Y-72063000D01*
X103585326Y-72063000D01*
X103856445Y-72116929D01*
X103992006Y-72143894D01*
X104168326Y-72216928D01*
X104168328Y-72216929D01*
X104191777Y-72224042D01*
X104216163Y-72226444D01*
X104240549Y-72224042D01*
X104263999Y-72216929D01*
X104285609Y-72205378D01*
X104304551Y-72189832D01*
X104320097Y-72170890D01*
X104331648Y-72149279D01*
X104338761Y-72125830D01*
X104341163Y-72101444D01*
X104338761Y-72077058D01*
X104331648Y-72053608D01*
X104320096Y-72031996D01*
X104314432Y-72023520D01*
X104251488Y-71871558D01*
X104219400Y-71710242D01*
X104219400Y-71545758D01*
X104251488Y-71384442D01*
X104314433Y-71232478D01*
X104405815Y-71095716D01*
X104522116Y-70979415D01*
X104658878Y-70888033D01*
X104810842Y-70825088D01*
X104972158Y-70793000D01*
X105136642Y-70793000D01*
X105297958Y-70825088D01*
X105297958Y-70825088D01*
G37*
G36*
X152770558Y-70825088D02*
X152922522Y-70888033D01*
X153059284Y-70979415D01*
X153175585Y-71095716D01*
X153266967Y-71232478D01*
X153329912Y-71384442D01*
X153362000Y-71545758D01*
X153362000Y-71710242D01*
X153329912Y-71871558D01*
X153266967Y-72023522D01*
X153175585Y-72160284D01*
X153059284Y-72276585D01*
X152922522Y-72367967D01*
X152770558Y-72430912D01*
X152666142Y-72451682D01*
X152642693Y-72458795D01*
X152621082Y-72470346D01*
X152602140Y-72485892D01*
X152586594Y-72504834D01*
X152575043Y-72526444D01*
X152567930Y-72549894D01*
X152565528Y-72574280D01*
X152567930Y-72598666D01*
X152575043Y-72622115D01*
X152586594Y-72643726D01*
X152602140Y-72662668D01*
X152621082Y-72678214D01*
X152642692Y-72689765D01*
X152666142Y-72696878D01*
X152955781Y-72754490D01*
X153223307Y-72865303D01*
X153464074Y-73026178D01*
X153668822Y-73230926D01*
X153829697Y-73471693D01*
X153940510Y-73739219D01*
X153997000Y-74023216D01*
X153997000Y-74312784D01*
X153940510Y-74596781D01*
X153829697Y-74864307D01*
X153668822Y-75105074D01*
X153464074Y-75309822D01*
X153223307Y-75470697D01*
X152955781Y-75581510D01*
X152671784Y-75638000D01*
X152382216Y-75638000D01*
X152098219Y-75581510D01*
X151830693Y-75470697D01*
X151589926Y-75309822D01*
X151385178Y-75105074D01*
X151224303Y-74864307D01*
X151113490Y-74596781D01*
X151057000Y-74312784D01*
X151057000Y-74023216D01*
X151113490Y-73739219D01*
X151224303Y-73471693D01*
X151385178Y-73230926D01*
X151589926Y-73026178D01*
X151830693Y-72865303D01*
X152098219Y-72754490D01*
X152387858Y-72696878D01*
X152411307Y-72689765D01*
X152432918Y-72678214D01*
X152451860Y-72662669D01*
X152467405Y-72643727D01*
X152478957Y-72622116D01*
X152486070Y-72598667D01*
X152488472Y-72574280D01*
X152486070Y-72549894D01*
X152478957Y-72526445D01*
X152467406Y-72504834D01*
X152451861Y-72485892D01*
X152432919Y-72470347D01*
X152411308Y-72458795D01*
X152387858Y-72451682D01*
X152283442Y-72430912D01*
X152131478Y-72367967D01*
X151994716Y-72276585D01*
X151878415Y-72160284D01*
X151787033Y-72023522D01*
X151724088Y-71871558D01*
X151692000Y-71710242D01*
X151692000Y-71545758D01*
X151724088Y-71384442D01*
X151787033Y-71232478D01*
X151878415Y-71095716D01*
X151994716Y-70979415D01*
X152131478Y-70888033D01*
X152283442Y-70825088D01*
X152444758Y-70793000D01*
X152609242Y-70793000D01*
X152770558Y-70825088D01*
X152770558Y-70825088D01*
G37*
G36*
X111241558Y-70825088D02*
X111393522Y-70888033D01*
X111530284Y-70979415D01*
X111646585Y-71095716D01*
X111737967Y-71232478D01*
X111800912Y-71384442D01*
X111833000Y-71545758D01*
X111833000Y-71710242D01*
X111800912Y-71871558D01*
X111737967Y-72023522D01*
X111646585Y-72160284D01*
X111530284Y-72276585D01*
X111393522Y-72367967D01*
X111241558Y-72430912D01*
X111137142Y-72451682D01*
X111113693Y-72458795D01*
X111092082Y-72470346D01*
X111073140Y-72485892D01*
X111057594Y-72504834D01*
X111046043Y-72526444D01*
X111038930Y-72549894D01*
X111036528Y-72574280D01*
X111038930Y-72598666D01*
X111046043Y-72622115D01*
X111057594Y-72643726D01*
X111073140Y-72662668D01*
X111092082Y-72678214D01*
X111113692Y-72689765D01*
X111137142Y-72696878D01*
X111426781Y-72754490D01*
X111694307Y-72865303D01*
X111935074Y-73026178D01*
X112139822Y-73230926D01*
X112300697Y-73471693D01*
X112411510Y-73739219D01*
X112468000Y-74023216D01*
X112468000Y-74312784D01*
X112411510Y-74596781D01*
X112300697Y-74864307D01*
X112139822Y-75105074D01*
X111935074Y-75309822D01*
X111694307Y-75470697D01*
X111426781Y-75581510D01*
X111142784Y-75638000D01*
X110853216Y-75638000D01*
X110569219Y-75581510D01*
X110301693Y-75470697D01*
X110060926Y-75309822D01*
X109856178Y-75105074D01*
X109695303Y-74864307D01*
X109584490Y-74596781D01*
X109528000Y-74312784D01*
X109528000Y-74023216D01*
X109584490Y-73739219D01*
X109695303Y-73471693D01*
X109856178Y-73230926D01*
X110060926Y-73026178D01*
X110301693Y-72865303D01*
X110569219Y-72754490D01*
X110858858Y-72696878D01*
X110882307Y-72689765D01*
X110903918Y-72678214D01*
X110922860Y-72662669D01*
X110938405Y-72643727D01*
X110949957Y-72622116D01*
X110957070Y-72598667D01*
X110959472Y-72574280D01*
X110957070Y-72549894D01*
X110949957Y-72526445D01*
X110938406Y-72504834D01*
X110922861Y-72485892D01*
X110903919Y-72470347D01*
X110882308Y-72458795D01*
X110858858Y-72451682D01*
X110754442Y-72430912D01*
X110602478Y-72367967D01*
X110465716Y-72276585D01*
X110349415Y-72160284D01*
X110258033Y-72023522D01*
X110195088Y-71871558D01*
X110163000Y-71710242D01*
X110163000Y-71545758D01*
X110195088Y-71384442D01*
X110258033Y-71232478D01*
X110349415Y-71095716D01*
X110465716Y-70979415D01*
X110602478Y-70888033D01*
X110754442Y-70825088D01*
X110915758Y-70793000D01*
X111080242Y-70793000D01*
X111241558Y-70825088D01*
X111241558Y-70825088D01*
G37*
G36*
X218028026Y-72506115D02*
X218246412Y-72596573D01*
X218442958Y-72727901D01*
X218610099Y-72895042D01*
X218741427Y-73091588D01*
X218831885Y-73309974D01*
X218878000Y-73541809D01*
X218878000Y-73778191D01*
X218831885Y-74010026D01*
X218741427Y-74228412D01*
X218610099Y-74424958D01*
X218442958Y-74592099D01*
X218246412Y-74723427D01*
X218028026Y-74813885D01*
X217796191Y-74860000D01*
X217559809Y-74860000D01*
X217327974Y-74813885D01*
X217109588Y-74723427D01*
X216913042Y-74592099D01*
X216745901Y-74424958D01*
X216614573Y-74228412D01*
X216524115Y-74010026D01*
X216478000Y-73778191D01*
X216478000Y-73541809D01*
X216524115Y-73309974D01*
X216614573Y-73091588D01*
X216745901Y-72895042D01*
X216913042Y-72727901D01*
X217109588Y-72596573D01*
X217327974Y-72506115D01*
X217559809Y-72460000D01*
X217796191Y-72460000D01*
X218028026Y-72506115D01*
X218028026Y-72506115D01*
G37*
G36*
X224528026Y-72506115D02*
X224746412Y-72596573D01*
X224942958Y-72727901D01*
X225110099Y-72895042D01*
X225241427Y-73091588D01*
X225331885Y-73309974D01*
X225378000Y-73541809D01*
X225378000Y-73778191D01*
X225331885Y-74010026D01*
X225241427Y-74228412D01*
X225110099Y-74424958D01*
X224942958Y-74592099D01*
X224746412Y-74723427D01*
X224528026Y-74813885D01*
X224296191Y-74860000D01*
X224059809Y-74860000D01*
X223827974Y-74813885D01*
X223609588Y-74723427D01*
X223413042Y-74592099D01*
X223245901Y-74424958D01*
X223114573Y-74228412D01*
X223024115Y-74010026D01*
X222978000Y-73778191D01*
X222978000Y-73541809D01*
X223024115Y-73309974D01*
X223114573Y-73091588D01*
X223245901Y-72895042D01*
X223413042Y-72727901D01*
X223609588Y-72596573D01*
X223827974Y-72506115D01*
X224059809Y-72460000D01*
X224296191Y-72460000D01*
X224528026Y-72506115D01*
X224528026Y-72506115D01*
G37*
G36*
X200153707Y-72363597D02*
X200230836Y-72371193D01*
X200362787Y-72411220D01*
X200428763Y-72431233D01*
X200611172Y-72528733D01*
X200771054Y-72659946D01*
X200902267Y-72819828D01*
X200999767Y-73002237D01*
X201007029Y-73026178D01*
X201059807Y-73200164D01*
X201080080Y-73406000D01*
X201059807Y-73611836D01*
X201021167Y-73739217D01*
X200999767Y-73809763D01*
X200902267Y-73992172D01*
X200771054Y-74152054D01*
X200611172Y-74283267D01*
X200428763Y-74380767D01*
X200362787Y-74400780D01*
X200230836Y-74440807D01*
X200153707Y-74448404D01*
X200076580Y-74456000D01*
X199973420Y-74456000D01*
X199896293Y-74448404D01*
X199819164Y-74440807D01*
X199687213Y-74400780D01*
X199621237Y-74380767D01*
X199438828Y-74283267D01*
X199278946Y-74152054D01*
X199147733Y-73992172D01*
X199050233Y-73809763D01*
X199028833Y-73739217D01*
X198990193Y-73611836D01*
X198969920Y-73406000D01*
X198990193Y-73200164D01*
X199042971Y-73026178D01*
X199050233Y-73002237D01*
X199147733Y-72819828D01*
X199278946Y-72659946D01*
X199438828Y-72528733D01*
X199621237Y-72431233D01*
X199687213Y-72411220D01*
X199819164Y-72371193D01*
X199896293Y-72363597D01*
X199973420Y-72356000D01*
X200076580Y-72356000D01*
X200153707Y-72363597D01*
X200153707Y-72363597D01*
G37*
G36*
X206936522Y-69366115D02*
X207052441Y-69389173D01*
X207380020Y-69524861D01*
X207670911Y-69719228D01*
X207674836Y-69721851D01*
X207925549Y-69972564D01*
X207925551Y-69972567D01*
X208122539Y-70267380D01*
X208203252Y-70462237D01*
X208258227Y-70594960D01*
X208312141Y-70866000D01*
X208327400Y-70942716D01*
X208327400Y-71297284D01*
X208258227Y-71645041D01*
X208122539Y-71972620D01*
X207967015Y-72205378D01*
X207925549Y-72267436D01*
X207674836Y-72518149D01*
X207674833Y-72518151D01*
X207380020Y-72715139D01*
X207052441Y-72850827D01*
X206979665Y-72865303D01*
X206704686Y-72920000D01*
X206350114Y-72920000D01*
X206075135Y-72865303D01*
X206002359Y-72850827D01*
X205674780Y-72715139D01*
X205379967Y-72518151D01*
X205379964Y-72518149D01*
X205129251Y-72267436D01*
X205087785Y-72205378D01*
X204932261Y-71972620D01*
X204796573Y-71645041D01*
X204727400Y-71297284D01*
X204727400Y-70942716D01*
X204742660Y-70866000D01*
X204796573Y-70594960D01*
X204851549Y-70462237D01*
X204932261Y-70267380D01*
X205129249Y-69972567D01*
X205129251Y-69972564D01*
X205379964Y-69721851D01*
X205383889Y-69719228D01*
X205674780Y-69524861D01*
X206002359Y-69389173D01*
X206118278Y-69366115D01*
X206350114Y-69320000D01*
X206704686Y-69320000D01*
X206936522Y-69366115D01*
X206936522Y-69366115D01*
G37*
G36*
X113222758Y-70825088D02*
X113374722Y-70888033D01*
X113511484Y-70979415D01*
X113627785Y-71095716D01*
X113719167Y-71232478D01*
X113782112Y-71384442D01*
X113814200Y-71545758D01*
X113814200Y-71710242D01*
X113782112Y-71871558D01*
X113719167Y-72023522D01*
X113627785Y-72160284D01*
X113511484Y-72276585D01*
X113374722Y-72367967D01*
X113222758Y-72430912D01*
X113061442Y-72463000D01*
X112896958Y-72463000D01*
X112735642Y-72430912D01*
X112583678Y-72367967D01*
X112446916Y-72276585D01*
X112330615Y-72160284D01*
X112239233Y-72023522D01*
X112176288Y-71871558D01*
X112144200Y-71710242D01*
X112144200Y-71545758D01*
X112176288Y-71384442D01*
X112239233Y-71232478D01*
X112330615Y-71095716D01*
X112446916Y-70979415D01*
X112583678Y-70888033D01*
X112735642Y-70825088D01*
X112896958Y-70793000D01*
X113061442Y-70793000D01*
X113222758Y-70825088D01*
X113222758Y-70825088D01*
G37*
G36*
X115203958Y-70825088D02*
X115355922Y-70888033D01*
X115492684Y-70979415D01*
X115608985Y-71095716D01*
X115700367Y-71232478D01*
X115763312Y-71384442D01*
X115795400Y-71545758D01*
X115795400Y-71710242D01*
X115763312Y-71871558D01*
X115700367Y-72023522D01*
X115608985Y-72160284D01*
X115492684Y-72276585D01*
X115355922Y-72367967D01*
X115203958Y-72430912D01*
X115042642Y-72463000D01*
X114878158Y-72463000D01*
X114716842Y-72430912D01*
X114564878Y-72367967D01*
X114428116Y-72276585D01*
X114311815Y-72160284D01*
X114220433Y-72023522D01*
X114157488Y-71871558D01*
X114125400Y-71710242D01*
X114125400Y-71545758D01*
X114157488Y-71384442D01*
X114220433Y-71232478D01*
X114311815Y-71095716D01*
X114428116Y-70979415D01*
X114564878Y-70888033D01*
X114716842Y-70825088D01*
X114878158Y-70793000D01*
X115042642Y-70793000D01*
X115203958Y-70825088D01*
X115203958Y-70825088D01*
G37*
G36*
X107279158Y-70825088D02*
X107431122Y-70888033D01*
X107567884Y-70979415D01*
X107684185Y-71095716D01*
X107775567Y-71232478D01*
X107838512Y-71384442D01*
X107870600Y-71545758D01*
X107870600Y-71710242D01*
X107838512Y-71871558D01*
X107775567Y-72023522D01*
X107684185Y-72160284D01*
X107567884Y-72276585D01*
X107431122Y-72367967D01*
X107279158Y-72430912D01*
X107117842Y-72463000D01*
X106953358Y-72463000D01*
X106792042Y-72430912D01*
X106640078Y-72367967D01*
X106503316Y-72276585D01*
X106387015Y-72160284D01*
X106295633Y-72023522D01*
X106232688Y-71871558D01*
X106200600Y-71710242D01*
X106200600Y-71545758D01*
X106232688Y-71384442D01*
X106295633Y-71232478D01*
X106387015Y-71095716D01*
X106503316Y-70979415D01*
X106640078Y-70888033D01*
X106792042Y-70825088D01*
X106953358Y-70793000D01*
X107117842Y-70793000D01*
X107279158Y-70825088D01*
X107279158Y-70825088D01*
G37*
G36*
X109260358Y-70825088D02*
X109412322Y-70888033D01*
X109549084Y-70979415D01*
X109665385Y-71095716D01*
X109756767Y-71232478D01*
X109819712Y-71384442D01*
X109851800Y-71545758D01*
X109851800Y-71710242D01*
X109819712Y-71871558D01*
X109756767Y-72023522D01*
X109665385Y-72160284D01*
X109549084Y-72276585D01*
X109412322Y-72367967D01*
X109260358Y-72430912D01*
X109099042Y-72463000D01*
X108934558Y-72463000D01*
X108773242Y-72430912D01*
X108621278Y-72367967D01*
X108484516Y-72276585D01*
X108368215Y-72160284D01*
X108276833Y-72023522D01*
X108213888Y-71871558D01*
X108181800Y-71710242D01*
X108181800Y-71545758D01*
X108213888Y-71384442D01*
X108276833Y-71232478D01*
X108368215Y-71095716D01*
X108484516Y-70979415D01*
X108621278Y-70888033D01*
X108773242Y-70825088D01*
X108934558Y-70793000D01*
X109099042Y-70793000D01*
X109260358Y-70825088D01*
X109260358Y-70825088D01*
G37*
G36*
X154751758Y-70825088D02*
X154903722Y-70888033D01*
X155040484Y-70979415D01*
X155156785Y-71095716D01*
X155248167Y-71232478D01*
X155311112Y-71384442D01*
X155343200Y-71545758D01*
X155343200Y-71710242D01*
X155311112Y-71871558D01*
X155248167Y-72023522D01*
X155156785Y-72160284D01*
X155040484Y-72276585D01*
X154903722Y-72367967D01*
X154751758Y-72430912D01*
X154590442Y-72463000D01*
X154425958Y-72463000D01*
X154264642Y-72430912D01*
X154112678Y-72367967D01*
X153975916Y-72276585D01*
X153859615Y-72160284D01*
X153768233Y-72023522D01*
X153705288Y-71871558D01*
X153673200Y-71710242D01*
X153673200Y-71545758D01*
X153705288Y-71384442D01*
X153768233Y-71232478D01*
X153859615Y-71095716D01*
X153975916Y-70979415D01*
X154112678Y-70888033D01*
X154264642Y-70825088D01*
X154425958Y-70793000D01*
X154590442Y-70793000D01*
X154751758Y-70825088D01*
X154751758Y-70825088D01*
G37*
G36*
X148808158Y-70825088D02*
X148960122Y-70888033D01*
X149096884Y-70979415D01*
X149213185Y-71095716D01*
X149304567Y-71232478D01*
X149367512Y-71384442D01*
X149399600Y-71545758D01*
X149399600Y-71710242D01*
X149367512Y-71871558D01*
X149304567Y-72023522D01*
X149213185Y-72160284D01*
X149096884Y-72276585D01*
X148960122Y-72367967D01*
X148808158Y-72430912D01*
X148646842Y-72463000D01*
X148482358Y-72463000D01*
X148321042Y-72430912D01*
X148169078Y-72367967D01*
X148032316Y-72276585D01*
X147916015Y-72160284D01*
X147824633Y-72023522D01*
X147761688Y-71871558D01*
X147729600Y-71710242D01*
X147729600Y-71545758D01*
X147761688Y-71384442D01*
X147824633Y-71232478D01*
X147916015Y-71095716D01*
X148032316Y-70979415D01*
X148169078Y-70888033D01*
X148321042Y-70825088D01*
X148482358Y-70793000D01*
X148646842Y-70793000D01*
X148808158Y-70825088D01*
X148808158Y-70825088D01*
G37*
G36*
X150789358Y-70825088D02*
X150941322Y-70888033D01*
X151078084Y-70979415D01*
X151194385Y-71095716D01*
X151285767Y-71232478D01*
X151348712Y-71384442D01*
X151380800Y-71545758D01*
X151380800Y-71710242D01*
X151348712Y-71871558D01*
X151285767Y-72023522D01*
X151194385Y-72160284D01*
X151078084Y-72276585D01*
X150941322Y-72367967D01*
X150789358Y-72430912D01*
X150628042Y-72463000D01*
X150463558Y-72463000D01*
X150302242Y-72430912D01*
X150150278Y-72367967D01*
X150013516Y-72276585D01*
X149897215Y-72160284D01*
X149805833Y-72023522D01*
X149742888Y-71871558D01*
X149710800Y-71710242D01*
X149710800Y-71545758D01*
X149742888Y-71384442D01*
X149805833Y-71232478D01*
X149897215Y-71095716D01*
X150013516Y-70979415D01*
X150150278Y-70888033D01*
X150302242Y-70825088D01*
X150463558Y-70793000D01*
X150628042Y-70793000D01*
X150789358Y-70825088D01*
X150789358Y-70825088D01*
G37*
G36*
X156732958Y-70825088D02*
X156884922Y-70888033D01*
X157021684Y-70979415D01*
X157137985Y-71095716D01*
X157229367Y-71232478D01*
X157292312Y-71384442D01*
X157324400Y-71545758D01*
X157324400Y-71710242D01*
X157292312Y-71871558D01*
X157229367Y-72023522D01*
X157137985Y-72160284D01*
X157021684Y-72276585D01*
X156884922Y-72367967D01*
X156732958Y-72430912D01*
X156571642Y-72463000D01*
X156407158Y-72463000D01*
X156245842Y-72430912D01*
X156093878Y-72367967D01*
X155957116Y-72276585D01*
X155840815Y-72160284D01*
X155749433Y-72023522D01*
X155686488Y-71871558D01*
X155654400Y-71710242D01*
X155654400Y-71545758D01*
X155686488Y-71384442D01*
X155749433Y-71232478D01*
X155840815Y-71095716D01*
X155957116Y-70979415D01*
X156093878Y-70888033D01*
X156245842Y-70825088D01*
X156407158Y-70793000D01*
X156571642Y-70793000D01*
X156732958Y-70825088D01*
X156732958Y-70825088D01*
G37*
G36*
X200153707Y-69823596D02*
X200230836Y-69831193D01*
X200362787Y-69871220D01*
X200428763Y-69891233D01*
X200611172Y-69988733D01*
X200771054Y-70119946D01*
X200902267Y-70279828D01*
X200999767Y-70462237D01*
X200999767Y-70462238D01*
X201059807Y-70660164D01*
X201080080Y-70866000D01*
X201059807Y-71071836D01*
X201052563Y-71095716D01*
X200999767Y-71269763D01*
X200902267Y-71452172D01*
X200771054Y-71612054D01*
X200611172Y-71743267D01*
X200428763Y-71840767D01*
X200362787Y-71860780D01*
X200230836Y-71900807D01*
X200153707Y-71908404D01*
X200076580Y-71916000D01*
X199973420Y-71916000D01*
X199896293Y-71908404D01*
X199819164Y-71900807D01*
X199687213Y-71860780D01*
X199621237Y-71840767D01*
X199438828Y-71743267D01*
X199278946Y-71612054D01*
X199147733Y-71452172D01*
X199050233Y-71269763D01*
X198997437Y-71095716D01*
X198990193Y-71071836D01*
X198969920Y-70866000D01*
X198990193Y-70660164D01*
X199050233Y-70462238D01*
X199050233Y-70462237D01*
X199147733Y-70279828D01*
X199278946Y-70119946D01*
X199438828Y-69988733D01*
X199621237Y-69891233D01*
X199687213Y-69871220D01*
X199819164Y-69831193D01*
X199896293Y-69823596D01*
X199973420Y-69816000D01*
X200076580Y-69816000D01*
X200153707Y-69823596D01*
X200153707Y-69823596D01*
G37*
G36*
X223315000Y-68248000D02*
X219915000Y-68248000D01*
X219915000Y-64848000D01*
X223315000Y-64848000D01*
X223315000Y-68248000D01*
X223315000Y-68248000D01*
G37*
G36*
X182203600Y-68208400D02*
X180203600Y-68208400D01*
X180203600Y-66208400D01*
X182203600Y-66208400D01*
X182203600Y-68208400D01*
X182203600Y-68208400D01*
G37*
G36*
X104640306Y-58305301D02*
X104640309Y-58305302D01*
X104640310Y-58305302D01*
X105243512Y-58488281D01*
X105799427Y-58785424D01*
X106286690Y-59185310D01*
X106686576Y-59672573D01*
X106983719Y-60228488D01*
X107166698Y-60831690D01*
X107166699Y-60831694D01*
X107213000Y-61301796D01*
X107213000Y-64616204D01*
X107166699Y-65086306D01*
X107166698Y-65086309D01*
X107166698Y-65086310D01*
X106983719Y-65689512D01*
X106686576Y-66245427D01*
X106286690Y-66732690D01*
X105799426Y-67132576D01*
X105243511Y-67429719D01*
X104640309Y-67612698D01*
X104640308Y-67612698D01*
X104640305Y-67612699D01*
X104013000Y-67674483D01*
X103385694Y-67612699D01*
X103385691Y-67612698D01*
X103385690Y-67612698D01*
X102782488Y-67429719D01*
X102226573Y-67132576D01*
X101739310Y-66732690D01*
X101339424Y-66245426D01*
X101042281Y-65689511D01*
X100859302Y-65086309D01*
X100859302Y-65086308D01*
X100859301Y-65086305D01*
X100813000Y-64616203D01*
X100813000Y-61301796D01*
X100859301Y-60831689D01*
X101042281Y-60228490D01*
X101044120Y-60225050D01*
X101339425Y-59672573D01*
X101739311Y-59185310D01*
X102226574Y-58785424D01*
X102782489Y-58488281D01*
X103385691Y-58305302D01*
X103385692Y-58305302D01*
X103385695Y-58305301D01*
X104013000Y-58243517D01*
X104640306Y-58305301D01*
X104640306Y-58305301D01*
G37*
G36*
X146047306Y-58165301D02*
X146047309Y-58165302D01*
X146047310Y-58165302D01*
X146650512Y-58348281D01*
X147206427Y-58645424D01*
X147693690Y-59045310D01*
X148093576Y-59532573D01*
X148390719Y-60088488D01*
X148573698Y-60691690D01*
X148573699Y-60691694D01*
X148620000Y-61161796D01*
X148620000Y-64476204D01*
X148573699Y-64946306D01*
X148573698Y-64946309D01*
X148573698Y-64946310D01*
X148390719Y-65549512D01*
X148093576Y-66105427D01*
X147693690Y-66592690D01*
X147206426Y-66992576D01*
X146650511Y-67289719D01*
X146047309Y-67472698D01*
X146047308Y-67472698D01*
X146047305Y-67472699D01*
X145420000Y-67534483D01*
X144792694Y-67472699D01*
X144792691Y-67472698D01*
X144792690Y-67472698D01*
X144189488Y-67289719D01*
X143633573Y-66992576D01*
X143146310Y-66592690D01*
X142746424Y-66105426D01*
X142449281Y-65549511D01*
X142266302Y-64946309D01*
X142266302Y-64946308D01*
X142266301Y-64946305D01*
X142220000Y-64476203D01*
X142220000Y-61161796D01*
X142266301Y-60691689D01*
X142449281Y-60088490D01*
X142585667Y-59833330D01*
X142746425Y-59532573D01*
X143146311Y-59045310D01*
X143633574Y-58645424D01*
X144189489Y-58348281D01*
X144792691Y-58165302D01*
X144792692Y-58165302D01*
X144792695Y-58165301D01*
X145420000Y-58103517D01*
X146047306Y-58165301D01*
X146047306Y-58165301D01*
G37*
G36*
X81945195Y-55708874D02*
X82820119Y-55882907D01*
X83781018Y-56280924D01*
X84645804Y-56858756D01*
X85381244Y-57594196D01*
X85959076Y-58458982D01*
X86357093Y-59419881D01*
X86530312Y-60290713D01*
X86560000Y-60439964D01*
X86560000Y-61480036D01*
X86546282Y-61549000D01*
X86357093Y-62500119D01*
X85959076Y-63461018D01*
X85381244Y-64325804D01*
X84645804Y-65061244D01*
X83781018Y-65639076D01*
X82820119Y-66037093D01*
X81958899Y-66208400D01*
X81800036Y-66240000D01*
X80759964Y-66240000D01*
X80601101Y-66208400D01*
X79739881Y-66037093D01*
X78778982Y-65639076D01*
X77914196Y-65061244D01*
X77178756Y-64325804D01*
X76600924Y-63461018D01*
X76202907Y-62500119D01*
X76013718Y-61549000D01*
X76000000Y-61480036D01*
X76000000Y-60439964D01*
X76029688Y-60290713D01*
X76202907Y-59419881D01*
X76600924Y-58458982D01*
X77178756Y-57594196D01*
X77914196Y-56858756D01*
X78778982Y-56280924D01*
X79739881Y-55882907D01*
X80614805Y-55708874D01*
X80759964Y-55680000D01*
X81800036Y-55680000D01*
X81945195Y-55708874D01*
X81945195Y-55708874D01*
G37*
G36*
X181379370Y-63723772D02*
X181495289Y-63746829D01*
X181677278Y-63822211D01*
X181841063Y-63931649D01*
X181980351Y-64070937D01*
X182089789Y-64234722D01*
X182165171Y-64416711D01*
X182203600Y-64609909D01*
X182203600Y-64806891D01*
X182165171Y-65000089D01*
X182089789Y-65182078D01*
X181980351Y-65345863D01*
X181841063Y-65485151D01*
X181677278Y-65594589D01*
X181495289Y-65669971D01*
X181397038Y-65689514D01*
X181302093Y-65708400D01*
X181105107Y-65708400D01*
X181010162Y-65689514D01*
X180911911Y-65669971D01*
X180729922Y-65594589D01*
X180566137Y-65485151D01*
X180426849Y-65345863D01*
X180317411Y-65182078D01*
X180242029Y-65000089D01*
X180203600Y-64806891D01*
X180203600Y-64609909D01*
X180242029Y-64416711D01*
X180317411Y-64234722D01*
X180426849Y-64070937D01*
X180566137Y-63931649D01*
X180729922Y-63822211D01*
X180911911Y-63746829D01*
X181027830Y-63723772D01*
X181105107Y-63708400D01*
X181302093Y-63708400D01*
X181379370Y-63723772D01*
X181379370Y-63723772D01*
G37*
G36*
X221913217Y-59794014D02*
X222110872Y-59833330D01*
X222420252Y-59961479D01*
X222698687Y-60147523D01*
X222935477Y-60384313D01*
X223121521Y-60662748D01*
X223210720Y-60878095D01*
X223249670Y-60972129D01*
X223315000Y-61300563D01*
X223315000Y-61635437D01*
X223299759Y-61712058D01*
X223249670Y-61963872D01*
X223121521Y-62273252D01*
X222935477Y-62551687D01*
X222698687Y-62788477D01*
X222420252Y-62974521D01*
X222110872Y-63102670D01*
X222001393Y-63124447D01*
X221782437Y-63168000D01*
X221447563Y-63168000D01*
X221228607Y-63124447D01*
X221119128Y-63102670D01*
X220809748Y-62974521D01*
X220531313Y-62788477D01*
X220294523Y-62551687D01*
X220108479Y-62273252D01*
X219980330Y-61963872D01*
X219930241Y-61712058D01*
X219915000Y-61635437D01*
X219915000Y-61300563D01*
X219980330Y-60972129D01*
X220019280Y-60878095D01*
X220108479Y-60662748D01*
X220294523Y-60384313D01*
X220531313Y-60147523D01*
X220809748Y-59961479D01*
X221119128Y-59833330D01*
X221316783Y-59794014D01*
X221447563Y-59768000D01*
X221782437Y-59768000D01*
X221913217Y-59794014D01*
X221913217Y-59794014D01*
G37*
G36*
X126363000Y-56999000D02*
X126098279Y-56999000D01*
X126073893Y-57001402D01*
X126050444Y-57008515D01*
X126028833Y-57020066D01*
X126009891Y-57035612D01*
X125994345Y-57054554D01*
X125982794Y-57076165D01*
X125975681Y-57099614D01*
X125973279Y-57124000D01*
X125975681Y-57148386D01*
X125982794Y-57171835D01*
X125994345Y-57193446D01*
X126009891Y-57212388D01*
X126150913Y-57353410D01*
X126254879Y-57509006D01*
X126326492Y-57681895D01*
X126363000Y-57865433D01*
X126363000Y-58052567D01*
X126326492Y-58236105D01*
X126254879Y-58408994D01*
X126150913Y-58564590D01*
X126018590Y-58696913D01*
X125862994Y-58800879D01*
X125862988Y-58800881D01*
X125857860Y-58804308D01*
X125847090Y-58810064D01*
X125828148Y-58825609D01*
X125812602Y-58844551D01*
X125801050Y-58866161D01*
X125793936Y-58889610D01*
X125791534Y-58913997D01*
X125793935Y-58938383D01*
X125801048Y-58961832D01*
X125812598Y-58983444D01*
X125828143Y-59002386D01*
X125847085Y-59017932D01*
X125857855Y-59023689D01*
X125862987Y-59027118D01*
X125862994Y-59027121D01*
X126018590Y-59131087D01*
X126150913Y-59263410D01*
X126254879Y-59419006D01*
X126326492Y-59591895D01*
X126353873Y-59729549D01*
X126361522Y-59768000D01*
X126363000Y-59775433D01*
X126363000Y-59962567D01*
X126326492Y-60146105D01*
X126254879Y-60318994D01*
X126150913Y-60474590D01*
X126018590Y-60606913D01*
X125862994Y-60710879D01*
X125690105Y-60782492D01*
X125552452Y-60809873D01*
X125506568Y-60819000D01*
X125319432Y-60819000D01*
X125273548Y-60809873D01*
X125135895Y-60782492D01*
X124963006Y-60710879D01*
X124807410Y-60606913D01*
X124675087Y-60474590D01*
X124571121Y-60318994D01*
X124499508Y-60146105D01*
X124463000Y-59962567D01*
X124463000Y-59775433D01*
X124464479Y-59768000D01*
X124472127Y-59729549D01*
X124499508Y-59591895D01*
X124571121Y-59419006D01*
X124675087Y-59263410D01*
X124807410Y-59131087D01*
X124963006Y-59027121D01*
X124963012Y-59027119D01*
X124968140Y-59023692D01*
X124978910Y-59017936D01*
X124997852Y-59002391D01*
X125013398Y-58983449D01*
X125024950Y-58961839D01*
X125032064Y-58938390D01*
X125034466Y-58914003D01*
X125032065Y-58889617D01*
X125024952Y-58866168D01*
X125013402Y-58844556D01*
X124997857Y-58825614D01*
X124978915Y-58810068D01*
X124968145Y-58804311D01*
X124963013Y-58800882D01*
X124963006Y-58800879D01*
X124807410Y-58696913D01*
X124675087Y-58564590D01*
X124571121Y-58408994D01*
X124499508Y-58236105D01*
X124463000Y-58052567D01*
X124463000Y-57865433D01*
X124499508Y-57681895D01*
X124571121Y-57509006D01*
X124675087Y-57353410D01*
X124816109Y-57212388D01*
X124831655Y-57193446D01*
X124843206Y-57171835D01*
X124850319Y-57148386D01*
X124852721Y-57124000D01*
X124850319Y-57099614D01*
X124843206Y-57076165D01*
X124831655Y-57054554D01*
X124816109Y-57035612D01*
X124797167Y-57020066D01*
X124775556Y-57008515D01*
X124752107Y-57001402D01*
X124727721Y-56999000D01*
X124463000Y-56999000D01*
X124463000Y-55099000D01*
X126363000Y-55099000D01*
X126363000Y-56999000D01*
X126363000Y-56999000D01*
G37*
G36*
X167770000Y-56859000D02*
X167505279Y-56859000D01*
X167480893Y-56861402D01*
X167457444Y-56868515D01*
X167435833Y-56880066D01*
X167416891Y-56895612D01*
X167401345Y-56914554D01*
X167389794Y-56936165D01*
X167382681Y-56959614D01*
X167380279Y-56984000D01*
X167382681Y-57008386D01*
X167389794Y-57031835D01*
X167401345Y-57053446D01*
X167416891Y-57072388D01*
X167557913Y-57213410D01*
X167661879Y-57369006D01*
X167733492Y-57541895D01*
X167770000Y-57725433D01*
X167770000Y-57912567D01*
X167733492Y-58096105D01*
X167661879Y-58268994D01*
X167557913Y-58424590D01*
X167425590Y-58556913D01*
X167269994Y-58660879D01*
X167269988Y-58660881D01*
X167264860Y-58664308D01*
X167254090Y-58670064D01*
X167235148Y-58685609D01*
X167219602Y-58704551D01*
X167208050Y-58726161D01*
X167200936Y-58749610D01*
X167198534Y-58773997D01*
X167200935Y-58798383D01*
X167208048Y-58821832D01*
X167219598Y-58843444D01*
X167235143Y-58862386D01*
X167254085Y-58877932D01*
X167264855Y-58883689D01*
X167269987Y-58887118D01*
X167269994Y-58887121D01*
X167425590Y-58991087D01*
X167557913Y-59123410D01*
X167661879Y-59279006D01*
X167733492Y-59451895D01*
X167770000Y-59635433D01*
X167770000Y-59822567D01*
X167733492Y-60006105D01*
X167661879Y-60178994D01*
X167557913Y-60334590D01*
X167425590Y-60466913D01*
X167269994Y-60570879D01*
X167097105Y-60642492D01*
X166959452Y-60669873D01*
X166913568Y-60679000D01*
X166726432Y-60679000D01*
X166680548Y-60669873D01*
X166542895Y-60642492D01*
X166370006Y-60570879D01*
X166214410Y-60466913D01*
X166082087Y-60334590D01*
X165978121Y-60178994D01*
X165906508Y-60006105D01*
X165870000Y-59822567D01*
X165870000Y-59635433D01*
X165906508Y-59451895D01*
X165978121Y-59279006D01*
X166082087Y-59123410D01*
X166214410Y-58991087D01*
X166370006Y-58887121D01*
X166370012Y-58887119D01*
X166375140Y-58883692D01*
X166385910Y-58877936D01*
X166404852Y-58862391D01*
X166420398Y-58843449D01*
X166431950Y-58821839D01*
X166439064Y-58798390D01*
X166441466Y-58774003D01*
X166439065Y-58749617D01*
X166431952Y-58726168D01*
X166420402Y-58704556D01*
X166404857Y-58685614D01*
X166385915Y-58670068D01*
X166375145Y-58664311D01*
X166370013Y-58660882D01*
X166370006Y-58660879D01*
X166214410Y-58556913D01*
X166082087Y-58424590D01*
X165978121Y-58268994D01*
X165906508Y-58096105D01*
X165870000Y-57912567D01*
X165870000Y-57725433D01*
X165906508Y-57541895D01*
X165978121Y-57369006D01*
X166082087Y-57213410D01*
X166223109Y-57072388D01*
X166238655Y-57053446D01*
X166250206Y-57031835D01*
X166257319Y-57008386D01*
X166259721Y-56984000D01*
X166257319Y-56959614D01*
X166250206Y-56936165D01*
X166238655Y-56914554D01*
X166223109Y-56895612D01*
X166204167Y-56880066D01*
X166182556Y-56868515D01*
X166159107Y-56861402D01*
X166134721Y-56859000D01*
X165870000Y-56859000D01*
X165870000Y-54959000D01*
X167770000Y-54959000D01*
X167770000Y-56859000D01*
X167770000Y-56859000D01*
G37*
G36*
X104640306Y-48305301D02*
X104640309Y-48305302D01*
X104640310Y-48305302D01*
X105243512Y-48488281D01*
X105799427Y-48785424D01*
X106286690Y-49185310D01*
X106686576Y-49672573D01*
X106983719Y-50228488D01*
X107166698Y-50831690D01*
X107166699Y-50831694D01*
X107213000Y-51301796D01*
X107213000Y-54616204D01*
X107166699Y-55086306D01*
X107166698Y-55086309D01*
X107166698Y-55086310D01*
X106983719Y-55689512D01*
X106686576Y-56245427D01*
X106286690Y-56732690D01*
X105799426Y-57132576D01*
X105386279Y-57353408D01*
X105305527Y-57396571D01*
X105243511Y-57429719D01*
X104640309Y-57612698D01*
X104640308Y-57612698D01*
X104640305Y-57612699D01*
X104013000Y-57674483D01*
X103385694Y-57612699D01*
X103385691Y-57612698D01*
X103385690Y-57612698D01*
X102782488Y-57429719D01*
X102720473Y-57396571D01*
X102639720Y-57353408D01*
X102226573Y-57132576D01*
X101739310Y-56732690D01*
X101339424Y-56245426D01*
X101042281Y-55689511D01*
X100859302Y-55086309D01*
X100859302Y-55086308D01*
X100859301Y-55086305D01*
X100813000Y-54616203D01*
X100813000Y-51301796D01*
X100859301Y-50831689D01*
X101042281Y-50228490D01*
X101044120Y-50225050D01*
X101339425Y-49672573D01*
X101739311Y-49185310D01*
X102226574Y-48785424D01*
X102782489Y-48488281D01*
X103385691Y-48305302D01*
X103385692Y-48305302D01*
X103385695Y-48305301D01*
X104013000Y-48243517D01*
X104640306Y-48305301D01*
X104640306Y-48305301D01*
G37*
G36*
X146047306Y-48165301D02*
X146047309Y-48165302D01*
X146047310Y-48165302D01*
X146650512Y-48348281D01*
X147206427Y-48645424D01*
X147693690Y-49045310D01*
X148093576Y-49532573D01*
X148390719Y-50088488D01*
X148573698Y-50691690D01*
X148573699Y-50691694D01*
X148620000Y-51161796D01*
X148620000Y-54476204D01*
X148573699Y-54946306D01*
X148573698Y-54946309D01*
X148573698Y-54946310D01*
X148390719Y-55549512D01*
X148093576Y-56105427D01*
X147693690Y-56592690D01*
X147206426Y-56992576D01*
X146650511Y-57289719D01*
X146047309Y-57472698D01*
X146047308Y-57472698D01*
X146047305Y-57472699D01*
X145420000Y-57534483D01*
X144792694Y-57472699D01*
X144792691Y-57472698D01*
X144792690Y-57472698D01*
X144189488Y-57289719D01*
X143633573Y-56992576D01*
X143146310Y-56592690D01*
X142746424Y-56105426D01*
X142449281Y-55549511D01*
X142266302Y-54946309D01*
X142266302Y-54946308D01*
X142266301Y-54946305D01*
X142220000Y-54476203D01*
X142220000Y-51161796D01*
X142266301Y-50691689D01*
X142449281Y-50088490D01*
X142668642Y-49678095D01*
X142746425Y-49532573D01*
X143146311Y-49045310D01*
X143633574Y-48645424D01*
X144189489Y-48348281D01*
X144792691Y-48165302D01*
X144792692Y-48165302D01*
X144792695Y-48165301D01*
X145420000Y-48103517D01*
X146047306Y-48165301D01*
X146047306Y-48165301D01*
G37*
G36*
X221155770Y-55450372D02*
X221271689Y-55473429D01*
X221453678Y-55548811D01*
X221617463Y-55658249D01*
X221756751Y-55797537D01*
X221866189Y-55961322D01*
X221941571Y-56143311D01*
X221951656Y-56194014D01*
X221980000Y-56336507D01*
X221980000Y-56533493D01*
X221968225Y-56592690D01*
X221941571Y-56726689D01*
X221866189Y-56908678D01*
X221756751Y-57072463D01*
X221617463Y-57211751D01*
X221453678Y-57321189D01*
X221271689Y-57396571D01*
X221155770Y-57419628D01*
X221078493Y-57435000D01*
X220881507Y-57435000D01*
X220804230Y-57419628D01*
X220688311Y-57396571D01*
X220506322Y-57321189D01*
X220342537Y-57211751D01*
X220203249Y-57072463D01*
X220093811Y-56908678D01*
X220018429Y-56726689D01*
X219991775Y-56592690D01*
X219980000Y-56533493D01*
X219980000Y-56336507D01*
X220008344Y-56194014D01*
X220018429Y-56143311D01*
X220093811Y-55961322D01*
X220203249Y-55797537D01*
X220342537Y-55658249D01*
X220506322Y-55548811D01*
X220688311Y-55473429D01*
X220804230Y-55450372D01*
X220881507Y-55435000D01*
X221078493Y-55435000D01*
X221155770Y-55450372D01*
X221155770Y-55450372D01*
G37*
G36*
X221980000Y-52435000D02*
X219980000Y-52435000D01*
X219980000Y-50435000D01*
X221980000Y-50435000D01*
X221980000Y-52435000D01*
X221980000Y-52435000D01*
G37*
G36*
X71762872Y-36362435D02*
X71924441Y-36394573D01*
X72252020Y-36530261D01*
X72492391Y-36690872D01*
X72546836Y-36727251D01*
X72797549Y-36977964D01*
X72797551Y-36977967D01*
X72994539Y-37272780D01*
X73130227Y-37600359D01*
X73199400Y-37948116D01*
X73199400Y-38302684D01*
X73130227Y-38650441D01*
X73034281Y-38882074D01*
X72994540Y-38978018D01*
X72797549Y-39272836D01*
X72546836Y-39523549D01*
X72546833Y-39523551D01*
X72252020Y-39720539D01*
X71924441Y-39856227D01*
X71808522Y-39879285D01*
X71576686Y-39925400D01*
X71222114Y-39925400D01*
X70990278Y-39879285D01*
X70874359Y-39856227D01*
X70546780Y-39720539D01*
X70251967Y-39523551D01*
X70251964Y-39523549D01*
X70001251Y-39272836D01*
X69804260Y-38978018D01*
X69764519Y-38882074D01*
X69668573Y-38650441D01*
X69599400Y-38302684D01*
X69599400Y-37948116D01*
X69668573Y-37600359D01*
X69804261Y-37272780D01*
X70001249Y-36977967D01*
X70001251Y-36977964D01*
X70251964Y-36727251D01*
X70306409Y-36690872D01*
X70546780Y-36530261D01*
X70874359Y-36394573D01*
X71035928Y-36362435D01*
X71222114Y-36325400D01*
X71576686Y-36325400D01*
X71762872Y-36362435D01*
X71762872Y-36362435D01*
G37*
G36*
X229593322Y-35533315D02*
X229709241Y-35556373D01*
X230036820Y-35692061D01*
X230047396Y-35699128D01*
X230331636Y-35889051D01*
X230582349Y-36139764D01*
X230582351Y-36139767D01*
X230779339Y-36434580D01*
X230900568Y-36727251D01*
X230915027Y-36762160D01*
X230984200Y-37109914D01*
X230984200Y-37464486D01*
X230974057Y-37515477D01*
X230915027Y-37812241D01*
X230779339Y-38139820D01*
X230670515Y-38302686D01*
X230582349Y-38434636D01*
X230331636Y-38685349D01*
X230331633Y-38685351D01*
X230036820Y-38882339D01*
X229709241Y-39018027D01*
X229593322Y-39041085D01*
X229361486Y-39087200D01*
X229006914Y-39087200D01*
X228775078Y-39041085D01*
X228659159Y-39018027D01*
X228331580Y-38882339D01*
X228036767Y-38685351D01*
X228036764Y-38685349D01*
X227786051Y-38434636D01*
X227697885Y-38302686D01*
X227589061Y-38139820D01*
X227453373Y-37812241D01*
X227394343Y-37515477D01*
X227384200Y-37464486D01*
X227384200Y-37109914D01*
X227453373Y-36762160D01*
X227467833Y-36727251D01*
X227589061Y-36434580D01*
X227786049Y-36139767D01*
X227786051Y-36139764D01*
X228036764Y-35889051D01*
X228321004Y-35699128D01*
X228331580Y-35692061D01*
X228659159Y-35556373D01*
X228775078Y-35533315D01*
X229006914Y-35487200D01*
X229361486Y-35487200D01*
X229593322Y-35533315D01*
X229593322Y-35533315D01*
G37*
G36*
X88060000Y-37895000D02*
X84660000Y-37895000D01*
X84660000Y-34495000D01*
X88060000Y-34495000D01*
X88060000Y-37895000D01*
X88060000Y-37895000D01*
G37*
G36*
X220775000Y-37895000D02*
X217375000Y-37895000D01*
X217375000Y-34495000D01*
X220775000Y-34495000D01*
X220775000Y-37895000D01*
X220775000Y-37895000D01*
G37*
G36*
X214381393Y-34538553D02*
X214490872Y-34560330D01*
X214800252Y-34688479D01*
X215078687Y-34874523D01*
X215315477Y-35111313D01*
X215501521Y-35389748D01*
X215629670Y-35699128D01*
X215629670Y-35699129D01*
X215695000Y-36027563D01*
X215695000Y-36362437D01*
X215651447Y-36581393D01*
X215629670Y-36690872D01*
X215501521Y-37000252D01*
X215315477Y-37278687D01*
X215078687Y-37515477D01*
X214800252Y-37701521D01*
X214490872Y-37829670D01*
X214381393Y-37851447D01*
X214162437Y-37895000D01*
X213827563Y-37895000D01*
X213608607Y-37851447D01*
X213499128Y-37829670D01*
X213189748Y-37701521D01*
X212911313Y-37515477D01*
X212674523Y-37278687D01*
X212488479Y-37000252D01*
X212360330Y-36690872D01*
X212338553Y-36581393D01*
X212295000Y-36362437D01*
X212295000Y-36027563D01*
X212360330Y-35699129D01*
X212360330Y-35699128D01*
X212488479Y-35389748D01*
X212674523Y-35111313D01*
X212911313Y-34874523D01*
X213189748Y-34688479D01*
X213499128Y-34560330D01*
X213608607Y-34538553D01*
X213827563Y-34495000D01*
X214162437Y-34495000D01*
X214381393Y-34538553D01*
X214381393Y-34538553D01*
G37*
G36*
X208710000Y-37895000D02*
X205310000Y-37895000D01*
X205310000Y-34495000D01*
X208710000Y-34495000D01*
X208710000Y-37895000D01*
X208710000Y-37895000D01*
G37*
G36*
X202316393Y-34538553D02*
X202425872Y-34560330D01*
X202735252Y-34688479D01*
X203013687Y-34874523D01*
X203250477Y-35111313D01*
X203436521Y-35389748D01*
X203564670Y-35699128D01*
X203564670Y-35699129D01*
X203630000Y-36027563D01*
X203630000Y-36362437D01*
X203586447Y-36581393D01*
X203564670Y-36690872D01*
X203436521Y-37000252D01*
X203250477Y-37278687D01*
X203013687Y-37515477D01*
X202735252Y-37701521D01*
X202425872Y-37829670D01*
X202316393Y-37851447D01*
X202097437Y-37895000D01*
X201762563Y-37895000D01*
X201543607Y-37851447D01*
X201434128Y-37829670D01*
X201124748Y-37701521D01*
X200846313Y-37515477D01*
X200609523Y-37278687D01*
X200423479Y-37000252D01*
X200295330Y-36690872D01*
X200273553Y-36581393D01*
X200230000Y-36362437D01*
X200230000Y-36027563D01*
X200295330Y-35699129D01*
X200295330Y-35699128D01*
X200423479Y-35389748D01*
X200609523Y-35111313D01*
X200846313Y-34874523D01*
X201124748Y-34688479D01*
X201434128Y-34560330D01*
X201543607Y-34538553D01*
X201762563Y-34495000D01*
X202097437Y-34495000D01*
X202316393Y-34538553D01*
X202316393Y-34538553D01*
G37*
G36*
X196645000Y-37895000D02*
X193245000Y-37895000D01*
X193245000Y-34495000D01*
X196645000Y-34495000D01*
X196645000Y-37895000D01*
X196645000Y-37895000D01*
G37*
G36*
X190251393Y-34538553D02*
X190360872Y-34560330D01*
X190670252Y-34688479D01*
X190948687Y-34874523D01*
X191185477Y-35111313D01*
X191371521Y-35389748D01*
X191499670Y-35699128D01*
X191499670Y-35699129D01*
X191565000Y-36027563D01*
X191565000Y-36362437D01*
X191521447Y-36581393D01*
X191499670Y-36690872D01*
X191371521Y-37000252D01*
X191185477Y-37278687D01*
X190948687Y-37515477D01*
X190670252Y-37701521D01*
X190360872Y-37829670D01*
X190251393Y-37851447D01*
X190032437Y-37895000D01*
X189697563Y-37895000D01*
X189478607Y-37851447D01*
X189369128Y-37829670D01*
X189059748Y-37701521D01*
X188781313Y-37515477D01*
X188544523Y-37278687D01*
X188358479Y-37000252D01*
X188230330Y-36690872D01*
X188208553Y-36581393D01*
X188165000Y-36362437D01*
X188165000Y-36027563D01*
X188230330Y-35699129D01*
X188230330Y-35699128D01*
X188358479Y-35389748D01*
X188544523Y-35111313D01*
X188781313Y-34874523D01*
X189059748Y-34688479D01*
X189369128Y-34560330D01*
X189478607Y-34538553D01*
X189697563Y-34495000D01*
X190032437Y-34495000D01*
X190251393Y-34538553D01*
X190251393Y-34538553D01*
G37*
G36*
X184580000Y-37895000D02*
X181180000Y-37895000D01*
X181180000Y-34495000D01*
X184580000Y-34495000D01*
X184580000Y-37895000D01*
X184580000Y-37895000D01*
G37*
G36*
X178186393Y-34538553D02*
X178295872Y-34560330D01*
X178605252Y-34688479D01*
X178883687Y-34874523D01*
X179120477Y-35111313D01*
X179306521Y-35389748D01*
X179434670Y-35699128D01*
X179434670Y-35699129D01*
X179500000Y-36027563D01*
X179500000Y-36362437D01*
X179456447Y-36581393D01*
X179434670Y-36690872D01*
X179306521Y-37000252D01*
X179120477Y-37278687D01*
X178883687Y-37515477D01*
X178605252Y-37701521D01*
X178295872Y-37829670D01*
X178186393Y-37851447D01*
X177967437Y-37895000D01*
X177632563Y-37895000D01*
X177413607Y-37851447D01*
X177304128Y-37829670D01*
X176994748Y-37701521D01*
X176716313Y-37515477D01*
X176479523Y-37278687D01*
X176293479Y-37000252D01*
X176165330Y-36690872D01*
X176143553Y-36581393D01*
X176100000Y-36362437D01*
X176100000Y-36027563D01*
X176165330Y-35699129D01*
X176165330Y-35699128D01*
X176293479Y-35389748D01*
X176479523Y-35111313D01*
X176716313Y-34874523D01*
X176994748Y-34688479D01*
X177304128Y-34560330D01*
X177413607Y-34538553D01*
X177632563Y-34495000D01*
X177967437Y-34495000D01*
X178186393Y-34538553D01*
X178186393Y-34538553D01*
G37*
G36*
X172515000Y-37895000D02*
X169115000Y-37895000D01*
X169115000Y-34495000D01*
X172515000Y-34495000D01*
X172515000Y-37895000D01*
X172515000Y-37895000D01*
G37*
G36*
X166121393Y-34538553D02*
X166230872Y-34560330D01*
X166540252Y-34688479D01*
X166818687Y-34874523D01*
X167055477Y-35111313D01*
X167241521Y-35389748D01*
X167369670Y-35699128D01*
X167369670Y-35699129D01*
X167435000Y-36027563D01*
X167435000Y-36362437D01*
X167391447Y-36581393D01*
X167369670Y-36690872D01*
X167241521Y-37000252D01*
X167055477Y-37278687D01*
X166818687Y-37515477D01*
X166540252Y-37701521D01*
X166230872Y-37829670D01*
X166121393Y-37851447D01*
X165902437Y-37895000D01*
X165567563Y-37895000D01*
X165348607Y-37851447D01*
X165239128Y-37829670D01*
X164929748Y-37701521D01*
X164651313Y-37515477D01*
X164414523Y-37278687D01*
X164228479Y-37000252D01*
X164100330Y-36690872D01*
X164078553Y-36581393D01*
X164035000Y-36362437D01*
X164035000Y-36027563D01*
X164100330Y-35699129D01*
X164100330Y-35699128D01*
X164228479Y-35389748D01*
X164414523Y-35111313D01*
X164651313Y-34874523D01*
X164929748Y-34688479D01*
X165239128Y-34560330D01*
X165348607Y-34538553D01*
X165567563Y-34495000D01*
X165902437Y-34495000D01*
X166121393Y-34538553D01*
X166121393Y-34538553D01*
G37*
G36*
X160450000Y-37895000D02*
X157050000Y-37895000D01*
X157050000Y-34495000D01*
X160450000Y-34495000D01*
X160450000Y-37895000D01*
X160450000Y-37895000D01*
G37*
G36*
X154056393Y-34538553D02*
X154165872Y-34560330D01*
X154475252Y-34688479D01*
X154753687Y-34874523D01*
X154990477Y-35111313D01*
X155176521Y-35389748D01*
X155304670Y-35699128D01*
X155304670Y-35699129D01*
X155370000Y-36027563D01*
X155370000Y-36362437D01*
X155326447Y-36581393D01*
X155304670Y-36690872D01*
X155176521Y-37000252D01*
X154990477Y-37278687D01*
X154753687Y-37515477D01*
X154475252Y-37701521D01*
X154165872Y-37829670D01*
X154056393Y-37851447D01*
X153837437Y-37895000D01*
X153502563Y-37895000D01*
X153283607Y-37851447D01*
X153174128Y-37829670D01*
X152864748Y-37701521D01*
X152586313Y-37515477D01*
X152349523Y-37278687D01*
X152163479Y-37000252D01*
X152035330Y-36690872D01*
X152013553Y-36581393D01*
X151970000Y-36362437D01*
X151970000Y-36027563D01*
X152035330Y-35699129D01*
X152035330Y-35699128D01*
X152163479Y-35389748D01*
X152349523Y-35111313D01*
X152586313Y-34874523D01*
X152864748Y-34688479D01*
X153174128Y-34560330D01*
X153283607Y-34538553D01*
X153502563Y-34495000D01*
X153837437Y-34495000D01*
X154056393Y-34538553D01*
X154056393Y-34538553D01*
G37*
G36*
X148385000Y-37895000D02*
X144985000Y-37895000D01*
X144985000Y-34495000D01*
X148385000Y-34495000D01*
X148385000Y-37895000D01*
X148385000Y-37895000D01*
G37*
G36*
X141991393Y-34538553D02*
X142100872Y-34560330D01*
X142410252Y-34688479D01*
X142688687Y-34874523D01*
X142925477Y-35111313D01*
X143111521Y-35389748D01*
X143239670Y-35699128D01*
X143239670Y-35699129D01*
X143305000Y-36027563D01*
X143305000Y-36362437D01*
X143261447Y-36581393D01*
X143239670Y-36690872D01*
X143111521Y-37000252D01*
X142925477Y-37278687D01*
X142688687Y-37515477D01*
X142410252Y-37701521D01*
X142100872Y-37829670D01*
X141991393Y-37851447D01*
X141772437Y-37895000D01*
X141437563Y-37895000D01*
X141218607Y-37851447D01*
X141109128Y-37829670D01*
X140799748Y-37701521D01*
X140521313Y-37515477D01*
X140284523Y-37278687D01*
X140098479Y-37000252D01*
X139970330Y-36690872D01*
X139948553Y-36581393D01*
X139905000Y-36362437D01*
X139905000Y-36027563D01*
X139970330Y-35699129D01*
X139970330Y-35699128D01*
X140098479Y-35389748D01*
X140284523Y-35111313D01*
X140521313Y-34874523D01*
X140799748Y-34688479D01*
X141109128Y-34560330D01*
X141218607Y-34538553D01*
X141437563Y-34495000D01*
X141772437Y-34495000D01*
X141991393Y-34538553D01*
X141991393Y-34538553D01*
G37*
G36*
X136320000Y-37895000D02*
X132920000Y-37895000D01*
X132920000Y-34495000D01*
X136320000Y-34495000D01*
X136320000Y-37895000D01*
X136320000Y-37895000D01*
G37*
G36*
X129926393Y-34538553D02*
X130035872Y-34560330D01*
X130345252Y-34688479D01*
X130623687Y-34874523D01*
X130860477Y-35111313D01*
X131046521Y-35389748D01*
X131174670Y-35699128D01*
X131174670Y-35699129D01*
X131240000Y-36027563D01*
X131240000Y-36362437D01*
X131196447Y-36581393D01*
X131174670Y-36690872D01*
X131046521Y-37000252D01*
X130860477Y-37278687D01*
X130623687Y-37515477D01*
X130345252Y-37701521D01*
X130035872Y-37829670D01*
X129926393Y-37851447D01*
X129707437Y-37895000D01*
X129372563Y-37895000D01*
X129153607Y-37851447D01*
X129044128Y-37829670D01*
X128734748Y-37701521D01*
X128456313Y-37515477D01*
X128219523Y-37278687D01*
X128033479Y-37000252D01*
X127905330Y-36690872D01*
X127883553Y-36581393D01*
X127840000Y-36362437D01*
X127840000Y-36027563D01*
X127905330Y-35699129D01*
X127905330Y-35699128D01*
X128033479Y-35389748D01*
X128219523Y-35111313D01*
X128456313Y-34874523D01*
X128734748Y-34688479D01*
X129044128Y-34560330D01*
X129153607Y-34538553D01*
X129372563Y-34495000D01*
X129707437Y-34495000D01*
X129926393Y-34538553D01*
X129926393Y-34538553D01*
G37*
G36*
X124255000Y-37895000D02*
X120855000Y-37895000D01*
X120855000Y-34495000D01*
X124255000Y-34495000D01*
X124255000Y-37895000D01*
X124255000Y-37895000D01*
G37*
G36*
X117861393Y-34538553D02*
X117970872Y-34560330D01*
X118280252Y-34688479D01*
X118558687Y-34874523D01*
X118795477Y-35111313D01*
X118981521Y-35389748D01*
X119109670Y-35699128D01*
X119109670Y-35699129D01*
X119175000Y-36027563D01*
X119175000Y-36362437D01*
X119131447Y-36581393D01*
X119109670Y-36690872D01*
X118981521Y-37000252D01*
X118795477Y-37278687D01*
X118558687Y-37515477D01*
X118280252Y-37701521D01*
X117970872Y-37829670D01*
X117861393Y-37851447D01*
X117642437Y-37895000D01*
X117307563Y-37895000D01*
X117088607Y-37851447D01*
X116979128Y-37829670D01*
X116669748Y-37701521D01*
X116391313Y-37515477D01*
X116154523Y-37278687D01*
X115968479Y-37000252D01*
X115840330Y-36690872D01*
X115818553Y-36581393D01*
X115775000Y-36362437D01*
X115775000Y-36027563D01*
X115840330Y-35699129D01*
X115840330Y-35699128D01*
X115968479Y-35389748D01*
X116154523Y-35111313D01*
X116391313Y-34874523D01*
X116669748Y-34688479D01*
X116979128Y-34560330D01*
X117088607Y-34538553D01*
X117307563Y-34495000D01*
X117642437Y-34495000D01*
X117861393Y-34538553D01*
X117861393Y-34538553D01*
G37*
G36*
X112190000Y-37895000D02*
X108790000Y-37895000D01*
X108790000Y-34495000D01*
X112190000Y-34495000D01*
X112190000Y-37895000D01*
X112190000Y-37895000D01*
G37*
G36*
X105796393Y-34538553D02*
X105905872Y-34560330D01*
X106215252Y-34688479D01*
X106493687Y-34874523D01*
X106730477Y-35111313D01*
X106916521Y-35389748D01*
X107044670Y-35699128D01*
X107044670Y-35699129D01*
X107110000Y-36027563D01*
X107110000Y-36362437D01*
X107066447Y-36581393D01*
X107044670Y-36690872D01*
X106916521Y-37000252D01*
X106730477Y-37278687D01*
X106493687Y-37515477D01*
X106215252Y-37701521D01*
X105905872Y-37829670D01*
X105796393Y-37851447D01*
X105577437Y-37895000D01*
X105242563Y-37895000D01*
X105023607Y-37851447D01*
X104914128Y-37829670D01*
X104604748Y-37701521D01*
X104326313Y-37515477D01*
X104089523Y-37278687D01*
X103903479Y-37000252D01*
X103775330Y-36690872D01*
X103753553Y-36581393D01*
X103710000Y-36362437D01*
X103710000Y-36027563D01*
X103775330Y-35699129D01*
X103775330Y-35699128D01*
X103903479Y-35389748D01*
X104089523Y-35111313D01*
X104326313Y-34874523D01*
X104604748Y-34688479D01*
X104914128Y-34560330D01*
X105023607Y-34538553D01*
X105242563Y-34495000D01*
X105577437Y-34495000D01*
X105796393Y-34538553D01*
X105796393Y-34538553D01*
G37*
G36*
X100125000Y-37895000D02*
X96725000Y-37895000D01*
X96725000Y-34495000D01*
X100125000Y-34495000D01*
X100125000Y-37895000D01*
X100125000Y-37895000D01*
G37*
G36*
X81666393Y-34538553D02*
X81775872Y-34560330D01*
X82085252Y-34688479D01*
X82363687Y-34874523D01*
X82600477Y-35111313D01*
X82786521Y-35389748D01*
X82914670Y-35699128D01*
X82914670Y-35699129D01*
X82980000Y-36027563D01*
X82980000Y-36362437D01*
X82936447Y-36581393D01*
X82914670Y-36690872D01*
X82786521Y-37000252D01*
X82600477Y-37278687D01*
X82363687Y-37515477D01*
X82085252Y-37701521D01*
X81775872Y-37829670D01*
X81666393Y-37851447D01*
X81447437Y-37895000D01*
X81112563Y-37895000D01*
X80893607Y-37851447D01*
X80784128Y-37829670D01*
X80474748Y-37701521D01*
X80196313Y-37515477D01*
X79959523Y-37278687D01*
X79773479Y-37000252D01*
X79645330Y-36690872D01*
X79623553Y-36581393D01*
X79580000Y-36362437D01*
X79580000Y-36027563D01*
X79645330Y-35699129D01*
X79645330Y-35699128D01*
X79773479Y-35389748D01*
X79959523Y-35111313D01*
X80196313Y-34874523D01*
X80474748Y-34688479D01*
X80784128Y-34560330D01*
X80893607Y-34538553D01*
X81112563Y-34495000D01*
X81447437Y-34495000D01*
X81666393Y-34538553D01*
X81666393Y-34538553D01*
G37*
G36*
X93731393Y-34538553D02*
X93840872Y-34560330D01*
X94150252Y-34688479D01*
X94428687Y-34874523D01*
X94665477Y-35111313D01*
X94851521Y-35389748D01*
X94979670Y-35699128D01*
X94979670Y-35699129D01*
X95045000Y-36027563D01*
X95045000Y-36362437D01*
X95001447Y-36581393D01*
X94979670Y-36690872D01*
X94851521Y-37000252D01*
X94665477Y-37278687D01*
X94428687Y-37515477D01*
X94150252Y-37701521D01*
X93840872Y-37829670D01*
X93731393Y-37851447D01*
X93512437Y-37895000D01*
X93177563Y-37895000D01*
X92958607Y-37851447D01*
X92849128Y-37829670D01*
X92539748Y-37701521D01*
X92261313Y-37515477D01*
X92024523Y-37278687D01*
X91838479Y-37000252D01*
X91710330Y-36690872D01*
X91688553Y-36581393D01*
X91645000Y-36362437D01*
X91645000Y-36027563D01*
X91710330Y-35699129D01*
X91710330Y-35699128D01*
X91838479Y-35389748D01*
X92024523Y-35111313D01*
X92261313Y-34874523D01*
X92539748Y-34688479D01*
X92849128Y-34560330D01*
X92958607Y-34538553D01*
X93177563Y-34495000D01*
X93512437Y-34495000D01*
X93731393Y-34538553D01*
X93731393Y-34538553D01*
G37*
M02*
