M48
;DRILL file {KiCad (5.0.1)-3} date 11/5/2018 4:43:35 PM
;FORMAT={-:-/ absolute / inch / decimal}
FMAT,2
INCH,TZ
T1C0.0157
T2C0.0197
T3C0.0230
T4C0.0315
T5C0.0350
T6C0.0394
T7C0.0433
T8C0.0598
T9C0.0630
T10C0.0787
T11C0.0830
T12C0.2400
%
G90
G05
M72
T1
X4.67Y-5.15
X4.67Y-5.215
X4.67Y-5.28
X5.085Y-2.3
X5.885Y-3.245
X5.89Y-3.195
X6.305Y-5.15
X6.305Y-5.21
X6.305Y-5.275
X6.475Y-3.195
X6.515Y-3.245
X7.Y-5.845
X7.215Y-3.025
X7.355Y-3.665
X7.365Y-3.375
X7.375Y-3.81
X7.3996Y-3.1111
X7.405Y-3.03
X7.4227Y-3.6603
X7.425Y-3.17
X7.425Y-3.84
X7.4548Y-3.2502
X7.465Y-3.6755
X7.47Y-3.165
X7.4761Y-3.6285
X7.495Y-3.23
X7.5243Y-3.43
X7.5331Y-3.2491
X7.54Y-2.905
X7.5409Y-3.0559
X7.5546Y-3.6651
X7.565Y-3.1095
X7.5722Y-3.2537
X7.575Y-3.375
X7.58Y-3.635
X7.595Y-3.415
X7.635Y-3.455
X7.665Y-3.43
X7.695Y-3.765
X7.73Y-3.87
X7.74Y-2.91
X7.74Y-3.335
X8.105Y-3.365
X8.105Y-3.445
X8.125Y-3.05
X8.14Y-3.15
X8.145Y-3.485
X8.355Y-3.78
X8.585Y-3.345
X8.585Y-4.005
X8.71Y-2.985
X8.71Y-3.075
T2
X4.0143Y-2.0063
X4.0143Y-2.0586
X4.0143Y-2.1114
X4.0143Y-2.1637
X4.0143Y-2.4
X4.0143Y-2.4523
X4.0143Y-2.5051
X4.0143Y-2.5574
X4.0296Y-1.959
X4.0296Y-2.211
X4.0296Y-2.3527
X4.0296Y-2.6047
X4.0702Y-1.9295
X4.0702Y-2.2405
X4.0702Y-2.3232
X4.0702Y-2.6342
X4.1198Y-1.9295
X4.1198Y-2.2405
X4.1198Y-2.3232
X4.1198Y-2.6342
X4.1604Y-1.959
X4.1604Y-2.211
X4.1604Y-2.3527
X4.1604Y-2.6047
X4.1757Y-2.0063
X4.1757Y-2.0586
X4.1757Y-2.1114
X4.1757Y-2.1637
X4.1757Y-2.4
X4.1757Y-2.4523
X4.1757Y-2.5051
X4.1757Y-2.5574
X5.6445Y-2.0007
X5.6445Y-2.0531
X5.6445Y-2.1059
X5.6445Y-2.1582
X5.6445Y-2.3944
X5.6445Y-2.4468
X5.6445Y-2.4996
X5.6445Y-2.5519
X5.6598Y-1.9535
X5.6598Y-2.2055
X5.6598Y-2.3472
X5.6598Y-2.5992
X5.7004Y-1.924
X5.7004Y-2.235
X5.7004Y-2.3177
X5.7004Y-2.6287
X5.75Y-1.924
X5.75Y-2.235
X5.75Y-2.3177
X5.75Y-2.6287
X5.7906Y-1.9535
X5.7906Y-2.2055
X5.7906Y-2.3472
X5.7906Y-2.5992
X5.8059Y-2.0007
X5.8059Y-2.0531
X5.8059Y-2.1059
X5.8059Y-2.1582
X5.8059Y-2.3944
X5.8059Y-2.4468
X5.8059Y-2.4996
X5.8059Y-2.5519
T3
X2.515Y-1.35
X2.515Y-1.475
X2.515Y-1.6
X2.515Y-1.725
X2.515Y-1.85
X2.515Y-1.975
X2.515Y-2.1
X2.515Y-2.225
X2.515Y-2.35
X2.515Y-2.475
X2.515Y-2.6
X2.515Y-2.725
X2.515Y-2.85
X2.515Y-2.975
X2.515Y-3.1
X2.515Y-3.225
X2.515Y-3.35
X2.515Y-3.475
X2.515Y-3.6
X2.515Y-3.725
X2.515Y-3.92
X2.515Y-4.04
X2.515Y-4.16
X2.515Y-4.28
X2.515Y-4.4
X2.515Y-4.52
X2.62Y-4.61
X2.634Y-3.772
X2.635Y-3.92
X2.645Y-1.335
X2.798Y-1.335
X2.805Y-4.63
X2.84Y-3.775
X2.84Y-3.92
X2.937Y-1.336
X2.945Y-4.69
X2.965Y-3.92
X2.975Y-3.775
X3.06Y-4.78
X3.1Y-3.775
X3.145Y-4.895
X3.195Y-5.025
X3.215Y-5.155
X3.215Y-5.28
X3.215Y-5.405
X3.215Y-5.52
X3.215Y-5.645
X3.215Y-5.645
X3.215Y-5.77
X3.215Y-5.77
X3.225Y-3.775
X3.315Y-5.845
X3.35Y-3.775
X3.44Y-5.845
X3.45Y-3.86
X3.475Y-4.29
X3.5Y-3.985
X3.52Y-4.405
X3.545Y-4.095
X3.565Y-4.525
X3.565Y-5.845
X3.595Y-4.225
X3.615Y-4.655
X3.64Y-4.36
X3.66Y-4.77
X3.68Y-5.845
X3.69Y-4.48
X3.71Y-4.895
X3.735Y-4.595
X3.755Y-5.01
X3.775Y-4.71
X3.8Y-5.125
X3.805Y-5.845
X3.805Y-5.845
X3.82Y-4.825
X3.84Y-5.24
X3.85Y-2.355
X3.85Y-2.47
X3.85Y-2.595
X3.85Y-2.7225
X3.85Y-2.845
X3.85Y-2.97
X3.85Y-3.115
X3.865Y-4.94
X3.885Y-5.37
X3.915Y-5.065
X3.94Y-5.845
X3.975Y-3.115
X4.065Y-5.845
X4.0875Y-3.115
X4.14Y-5.29
X4.145Y-5.42
X4.19Y-5.845
X4.1925Y-2.725
X4.2Y-2.915
X4.2Y-3.115
X4.265Y-5.29
X4.27Y-5.42
X4.315Y-5.845
X4.375Y-2.34
X4.375Y-2.49
X4.375Y-2.64
X4.4Y-5.42
X4.415Y-5.12
X4.42Y-5.235
X4.44Y-5.845
X4.5Y-2.34
X4.53Y-5.455
X4.53Y-5.5675
X4.53Y-5.6825
X4.54Y-4.805
X4.565Y-5.845
X4.675Y-2.34
X4.68Y-5.845
X4.8Y-5.455
X4.8Y-5.5675
X4.8Y-5.6825
X4.805Y-5.845
X4.805Y-5.845
X4.825Y-4.805
X4.825Y-4.915
X4.825Y-5.02
X4.835Y-2.34
X4.925Y-5.42
X4.925Y-5.42
X4.93Y-4.805
X4.93Y-4.915
X4.93Y-5.02
X4.93Y-5.12
X4.93Y-5.225
X4.93Y-5.845
X5.05Y-5.42
X5.055Y-5.845
X5.165Y-2.15
X5.175Y-5.42
X5.18Y-5.845
X5.2775Y-2.455
X5.2775Y-2.58
X5.2775Y-2.705
X5.2775Y-2.83
X5.2775Y-2.955
X5.2775Y-3.08
X5.2775Y-3.205
X5.3Y-5.42
X5.305Y-5.845
X5.4Y-5.265
X5.42Y-5.845
X5.425Y-5.42
X5.485Y-2.355
X5.485Y-2.47
X5.485Y-2.595
X5.485Y-2.7225
X5.485Y-2.845
X5.485Y-2.97
X5.485Y-3.115
X5.545Y-5.845
X5.545Y-5.845
X5.5975Y-3.115
X5.665Y-5.42
X5.665Y-5.42
X5.68Y-5.845
X5.7125Y-3.1125
X5.74Y-5.265
X5.8Y-5.42
X5.805Y-5.845
X5.83Y-2.7225
X5.835Y-2.915
X5.835Y-3.115
X5.86Y-5.265
X5.925Y-5.42
X5.93Y-5.845
X6.005Y-2.345
X6.005Y-2.49
X6.005Y-2.64
X6.05Y-5.12
X6.05Y-5.235
X6.05Y-5.42
X6.055Y-5.845
X6.135Y-2.34
X6.17Y-5.46
X6.17Y-5.5675
X6.17Y-5.6825
X6.175Y-4.69
X6.175Y-4.805
X6.18Y-5.845
X6.27Y-2.34
X6.3Y-4.69
X6.305Y-5.845
X6.395Y-2.34
X6.42Y-5.845
X6.425Y-4.69
X6.445Y-5.46
X6.445Y-5.5675
X6.445Y-5.6825
X6.4675Y-4.805
X6.4675Y-4.915
X6.4675Y-5.02
X6.5425Y-5.415
X6.545Y-5.845
X6.545Y-5.845
X6.55Y-4.69
X6.565Y-5.225
X6.57Y-4.805
X6.57Y-4.915
X6.57Y-5.02
X6.57Y-5.12
X6.61Y-2.465
X6.61Y-3.11
X6.66Y-5.415
X6.66Y-5.845
X6.675Y-4.69
X6.78Y-5.845
X6.785Y-5.415
X6.8Y-4.69
X6.806Y-2.161
X6.9Y-5.845
X6.91Y-5.415
X6.92Y-4.69
X7.045Y-4.69
X7.05Y-3.13
X7.056Y-2.215
X7.061Y-2.784
X7.17Y-4.69
X7.265Y-3.342
X7.275Y-2.94
X7.295Y-4.69
X7.305Y-2.54
X7.415Y-4.69
X7.5225Y-4.69
X7.6075Y-4.6125
X7.69Y-2.375
X7.69Y-4.53
X7.738Y-3.179
X7.7575Y-2.1625
X7.775Y-4.445
X7.789Y-2.545
X7.795Y-3.56
X7.795Y-3.73
X7.86Y-4.3575
X7.95Y-4.2675
X8.0625Y-4.24
X8.076Y-2.379
X8.103Y-2.971
X8.165Y-2.22
X8.165Y-2.54
X8.185Y-4.24
X8.195Y-3.27
X8.305Y-2.38
X8.305Y-3.635
X8.305Y-4.24
X8.325Y-3.2
X8.435Y-2.22
X8.435Y-2.54
X8.478Y-2.79
X8.495Y-3.265
X8.565Y-4.65
X8.565Y-5.11
X8.565Y-5.5475
X8.815Y-4.065
X8.825Y-3.635
T4
X8.7Y-2.025
X8.7Y-2.2219
X4.9375Y-2.2067
X4.9375Y-2.2819
X4.9375Y-2.357
X7.134Y-2.5476
X7.134Y-2.646
X6.5677Y-2.2011
X6.5677Y-2.2763
X6.5677Y-2.3515
T5
X4.136Y-2.82
X4.214Y-2.82
X4.292Y-2.82
X4.37Y-2.82
X4.448Y-2.82
X4.526Y-2.82
X4.604Y-2.82
X5.771Y-2.82
X5.849Y-2.82
X5.927Y-2.82
X6.005Y-2.82
X6.083Y-2.82
X6.161Y-2.82
X6.239Y-2.82
T6
X8.725Y-3.24
X8.725Y-3.34
X5.55Y-5.2481
X5.55Y-5.445
X4.015Y-5.255
X4.015Y-5.4519
X7.745Y-4.065
X7.845Y-4.065
X7.945Y-4.065
X8.045Y-4.065
X8.725Y-3.445
X8.725Y-3.545
X2.74Y-3.7331
X2.74Y-3.93
X7.875Y-2.79
X7.875Y-2.89
X7.875Y-2.99
X7.875Y-3.09
X7.875Y-3.19
T7
X8.57Y-2.9
X8.57Y-3.0772
X8.8259Y-2.9
X8.8259Y-3.0772
T8
X8.725Y-5.13
X8.725Y-5.33
X7.475Y-1.425
X7.675Y-1.425
X4.15Y-1.425
X4.35Y-1.425
X8.725Y-5.585
X8.725Y-5.785
X6.525Y-1.425
X6.725Y-1.425
X7.Y-1.425
X7.2Y-1.425
X6.05Y-1.425
X6.25Y-1.425
X8.725Y-2.42
X8.725Y-2.62
X5.1Y-1.425
X5.3Y-1.425
X3.2Y-1.425
X3.4Y-1.425
X8.725Y-3.725
X8.725Y-3.925
X4.625Y-1.425
X4.825Y-1.425
X7.95Y-1.425
X8.15Y-1.425
X8.725Y-4.22
X8.725Y-4.42
X8.725Y-4.675
X8.725Y-4.875
X3.675Y-1.425
X3.875Y-1.425
X8.425Y-1.425
X8.625Y-1.425
X5.575Y-1.425
X5.775Y-1.425
T9
X4.07Y-4.92
X4.37Y-2.92
X4.37Y-4.92
X4.67Y-4.92
X5.705Y-4.92
X6.005Y-2.92
X6.005Y-4.92
X6.305Y-4.92
T11
X4.07Y-2.92
X4.67Y-2.92
X5.705Y-2.92
X6.305Y-2.92
T12
X3.2Y-2.4
X3.2Y-4.1
T10
X4.095Y-2.0063G85X4.095Y-2.1637
G05
X4.095Y-2.4G85X4.095Y-2.5574
G05
X5.7252Y-2.0007G85X5.7252Y-2.1582
G05
X5.7252Y-2.3944G85X5.7252Y-2.5519
G05
T0
M30
