G04 #@! TF.GenerationSoftware,KiCad,Pcbnew,(5.0.1)-3*
G04 #@! TF.CreationDate,2018-11-04T20:32:57-06:00*
G04 #@! TF.ProjectId,ProofOfConceptBoardV1,50726F6F664F66436F6E63657074426F,rev?*
G04 #@! TF.SameCoordinates,Original*
G04 #@! TF.FileFunction,Paste,Top*
G04 #@! TF.FilePolarity,Positive*
%FSLAX46Y46*%
G04 Gerber Fmt 4.6, Leading zero omitted, Abs format (unit mm)*
G04 Created by KiCad (PCBNEW (5.0.1)-3) date 11/4/2018 8:32:57 PM*
%MOMM*%
%LPD*%
G01*
G04 APERTURE LIST*
%ADD10R,2.500000X1.900000*%
%ADD11C,0.100000*%
%ADD12C,0.875000*%
%ADD13R,1.450000X0.450000*%
%ADD14R,1.550000X0.600000*%
%ADD15R,1.600000X0.650000*%
G04 APERTURE END LIST*
D10*
G04 #@! TO.C,Crystal1*
X164699951Y-80324851D03*
X164699951Y-75924851D03*
G04 #@! TD*
D11*
G04 #@! TO.C,D6*
G36*
X106322691Y-60549053D02*
X106343926Y-60552203D01*
X106364750Y-60557419D01*
X106384962Y-60564651D01*
X106404368Y-60573830D01*
X106422781Y-60584866D01*
X106440024Y-60597654D01*
X106455930Y-60612070D01*
X106470346Y-60627976D01*
X106483134Y-60645219D01*
X106494170Y-60663632D01*
X106503349Y-60683038D01*
X106510581Y-60703250D01*
X106515797Y-60724074D01*
X106518947Y-60745309D01*
X106520000Y-60766750D01*
X106520000Y-61204250D01*
X106518947Y-61225691D01*
X106515797Y-61246926D01*
X106510581Y-61267750D01*
X106503349Y-61287962D01*
X106494170Y-61307368D01*
X106483134Y-61325781D01*
X106470346Y-61343024D01*
X106455930Y-61358930D01*
X106440024Y-61373346D01*
X106422781Y-61386134D01*
X106404368Y-61397170D01*
X106384962Y-61406349D01*
X106364750Y-61413581D01*
X106343926Y-61418797D01*
X106322691Y-61421947D01*
X106301250Y-61423000D01*
X105788750Y-61423000D01*
X105767309Y-61421947D01*
X105746074Y-61418797D01*
X105725250Y-61413581D01*
X105705038Y-61406349D01*
X105685632Y-61397170D01*
X105667219Y-61386134D01*
X105649976Y-61373346D01*
X105634070Y-61358930D01*
X105619654Y-61343024D01*
X105606866Y-61325781D01*
X105595830Y-61307368D01*
X105586651Y-61287962D01*
X105579419Y-61267750D01*
X105574203Y-61246926D01*
X105571053Y-61225691D01*
X105570000Y-61204250D01*
X105570000Y-60766750D01*
X105571053Y-60745309D01*
X105574203Y-60724074D01*
X105579419Y-60703250D01*
X105586651Y-60683038D01*
X105595830Y-60663632D01*
X105606866Y-60645219D01*
X105619654Y-60627976D01*
X105634070Y-60612070D01*
X105649976Y-60597654D01*
X105667219Y-60584866D01*
X105685632Y-60573830D01*
X105705038Y-60564651D01*
X105725250Y-60557419D01*
X105746074Y-60552203D01*
X105767309Y-60549053D01*
X105788750Y-60548000D01*
X106301250Y-60548000D01*
X106322691Y-60549053D01*
X106322691Y-60549053D01*
G37*
D12*
X106045000Y-60985500D03*
D11*
G36*
X106322691Y-62124053D02*
X106343926Y-62127203D01*
X106364750Y-62132419D01*
X106384962Y-62139651D01*
X106404368Y-62148830D01*
X106422781Y-62159866D01*
X106440024Y-62172654D01*
X106455930Y-62187070D01*
X106470346Y-62202976D01*
X106483134Y-62220219D01*
X106494170Y-62238632D01*
X106503349Y-62258038D01*
X106510581Y-62278250D01*
X106515797Y-62299074D01*
X106518947Y-62320309D01*
X106520000Y-62341750D01*
X106520000Y-62779250D01*
X106518947Y-62800691D01*
X106515797Y-62821926D01*
X106510581Y-62842750D01*
X106503349Y-62862962D01*
X106494170Y-62882368D01*
X106483134Y-62900781D01*
X106470346Y-62918024D01*
X106455930Y-62933930D01*
X106440024Y-62948346D01*
X106422781Y-62961134D01*
X106404368Y-62972170D01*
X106384962Y-62981349D01*
X106364750Y-62988581D01*
X106343926Y-62993797D01*
X106322691Y-62996947D01*
X106301250Y-62998000D01*
X105788750Y-62998000D01*
X105767309Y-62996947D01*
X105746074Y-62993797D01*
X105725250Y-62988581D01*
X105705038Y-62981349D01*
X105685632Y-62972170D01*
X105667219Y-62961134D01*
X105649976Y-62948346D01*
X105634070Y-62933930D01*
X105619654Y-62918024D01*
X105606866Y-62900781D01*
X105595830Y-62882368D01*
X105586651Y-62862962D01*
X105579419Y-62842750D01*
X105574203Y-62821926D01*
X105571053Y-62800691D01*
X105570000Y-62779250D01*
X105570000Y-62341750D01*
X105571053Y-62320309D01*
X105574203Y-62299074D01*
X105579419Y-62278250D01*
X105586651Y-62258038D01*
X105595830Y-62238632D01*
X105606866Y-62220219D01*
X105619654Y-62202976D01*
X105634070Y-62187070D01*
X105649976Y-62172654D01*
X105667219Y-62159866D01*
X105685632Y-62148830D01*
X105705038Y-62139651D01*
X105725250Y-62132419D01*
X105746074Y-62127203D01*
X105767309Y-62124053D01*
X105788750Y-62123000D01*
X106301250Y-62123000D01*
X106322691Y-62124053D01*
X106322691Y-62124053D01*
G37*
D12*
X106045000Y-62560500D03*
G04 #@! TD*
D11*
G04 #@! TO.C,R10*
G36*
X110132691Y-62226053D02*
X110153926Y-62229203D01*
X110174750Y-62234419D01*
X110194962Y-62241651D01*
X110214368Y-62250830D01*
X110232781Y-62261866D01*
X110250024Y-62274654D01*
X110265930Y-62289070D01*
X110280346Y-62304976D01*
X110293134Y-62322219D01*
X110304170Y-62340632D01*
X110313349Y-62360038D01*
X110320581Y-62380250D01*
X110325797Y-62401074D01*
X110328947Y-62422309D01*
X110330000Y-62443750D01*
X110330000Y-62881250D01*
X110328947Y-62902691D01*
X110325797Y-62923926D01*
X110320581Y-62944750D01*
X110313349Y-62964962D01*
X110304170Y-62984368D01*
X110293134Y-63002781D01*
X110280346Y-63020024D01*
X110265930Y-63035930D01*
X110250024Y-63050346D01*
X110232781Y-63063134D01*
X110214368Y-63074170D01*
X110194962Y-63083349D01*
X110174750Y-63090581D01*
X110153926Y-63095797D01*
X110132691Y-63098947D01*
X110111250Y-63100000D01*
X109598750Y-63100000D01*
X109577309Y-63098947D01*
X109556074Y-63095797D01*
X109535250Y-63090581D01*
X109515038Y-63083349D01*
X109495632Y-63074170D01*
X109477219Y-63063134D01*
X109459976Y-63050346D01*
X109444070Y-63035930D01*
X109429654Y-63020024D01*
X109416866Y-63002781D01*
X109405830Y-62984368D01*
X109396651Y-62964962D01*
X109389419Y-62944750D01*
X109384203Y-62923926D01*
X109381053Y-62902691D01*
X109380000Y-62881250D01*
X109380000Y-62443750D01*
X109381053Y-62422309D01*
X109384203Y-62401074D01*
X109389419Y-62380250D01*
X109396651Y-62360038D01*
X109405830Y-62340632D01*
X109416866Y-62322219D01*
X109429654Y-62304976D01*
X109444070Y-62289070D01*
X109459976Y-62274654D01*
X109477219Y-62261866D01*
X109495632Y-62250830D01*
X109515038Y-62241651D01*
X109535250Y-62234419D01*
X109556074Y-62229203D01*
X109577309Y-62226053D01*
X109598750Y-62225000D01*
X110111250Y-62225000D01*
X110132691Y-62226053D01*
X110132691Y-62226053D01*
G37*
D12*
X109855000Y-62662500D03*
D11*
G36*
X110132691Y-60651053D02*
X110153926Y-60654203D01*
X110174750Y-60659419D01*
X110194962Y-60666651D01*
X110214368Y-60675830D01*
X110232781Y-60686866D01*
X110250024Y-60699654D01*
X110265930Y-60714070D01*
X110280346Y-60729976D01*
X110293134Y-60747219D01*
X110304170Y-60765632D01*
X110313349Y-60785038D01*
X110320581Y-60805250D01*
X110325797Y-60826074D01*
X110328947Y-60847309D01*
X110330000Y-60868750D01*
X110330000Y-61306250D01*
X110328947Y-61327691D01*
X110325797Y-61348926D01*
X110320581Y-61369750D01*
X110313349Y-61389962D01*
X110304170Y-61409368D01*
X110293134Y-61427781D01*
X110280346Y-61445024D01*
X110265930Y-61460930D01*
X110250024Y-61475346D01*
X110232781Y-61488134D01*
X110214368Y-61499170D01*
X110194962Y-61508349D01*
X110174750Y-61515581D01*
X110153926Y-61520797D01*
X110132691Y-61523947D01*
X110111250Y-61525000D01*
X109598750Y-61525000D01*
X109577309Y-61523947D01*
X109556074Y-61520797D01*
X109535250Y-61515581D01*
X109515038Y-61508349D01*
X109495632Y-61499170D01*
X109477219Y-61488134D01*
X109459976Y-61475346D01*
X109444070Y-61460930D01*
X109429654Y-61445024D01*
X109416866Y-61427781D01*
X109405830Y-61409368D01*
X109396651Y-61389962D01*
X109389419Y-61369750D01*
X109384203Y-61348926D01*
X109381053Y-61327691D01*
X109380000Y-61306250D01*
X109380000Y-60868750D01*
X109381053Y-60847309D01*
X109384203Y-60826074D01*
X109389419Y-60805250D01*
X109396651Y-60785038D01*
X109405830Y-60765632D01*
X109416866Y-60747219D01*
X109429654Y-60729976D01*
X109444070Y-60714070D01*
X109459976Y-60699654D01*
X109477219Y-60686866D01*
X109495632Y-60675830D01*
X109515038Y-60666651D01*
X109535250Y-60659419D01*
X109556074Y-60654203D01*
X109577309Y-60651053D01*
X109598750Y-60650000D01*
X110111250Y-60650000D01*
X110132691Y-60651053D01*
X110132691Y-60651053D01*
G37*
D12*
X109855000Y-61087500D03*
G04 #@! TD*
D13*
G04 #@! TO.C,U1*
X154276000Y-73283000D03*
X154276000Y-72633000D03*
X154276000Y-71983000D03*
X154276000Y-71333000D03*
X154276000Y-70683000D03*
X154276000Y-70033000D03*
X154276000Y-69383000D03*
X154276000Y-68733000D03*
X154276000Y-68083000D03*
X154276000Y-67433000D03*
X160176000Y-67433000D03*
X160176000Y-68083000D03*
X160176000Y-68733000D03*
X160176000Y-69383000D03*
X160176000Y-70033000D03*
X160176000Y-70683000D03*
X160176000Y-71333000D03*
X160176000Y-71983000D03*
X160176000Y-72633000D03*
X160176000Y-73283000D03*
G04 #@! TD*
D11*
G04 #@! TO.C,R6*
G36*
X107638691Y-79939053D02*
X107659926Y-79942203D01*
X107680750Y-79947419D01*
X107700962Y-79954651D01*
X107720368Y-79963830D01*
X107738781Y-79974866D01*
X107756024Y-79987654D01*
X107771930Y-80002070D01*
X107786346Y-80017976D01*
X107799134Y-80035219D01*
X107810170Y-80053632D01*
X107819349Y-80073038D01*
X107826581Y-80093250D01*
X107831797Y-80114074D01*
X107834947Y-80135309D01*
X107836000Y-80156750D01*
X107836000Y-80594250D01*
X107834947Y-80615691D01*
X107831797Y-80636926D01*
X107826581Y-80657750D01*
X107819349Y-80677962D01*
X107810170Y-80697368D01*
X107799134Y-80715781D01*
X107786346Y-80733024D01*
X107771930Y-80748930D01*
X107756024Y-80763346D01*
X107738781Y-80776134D01*
X107720368Y-80787170D01*
X107700962Y-80796349D01*
X107680750Y-80803581D01*
X107659926Y-80808797D01*
X107638691Y-80811947D01*
X107617250Y-80813000D01*
X107104750Y-80813000D01*
X107083309Y-80811947D01*
X107062074Y-80808797D01*
X107041250Y-80803581D01*
X107021038Y-80796349D01*
X107001632Y-80787170D01*
X106983219Y-80776134D01*
X106965976Y-80763346D01*
X106950070Y-80748930D01*
X106935654Y-80733024D01*
X106922866Y-80715781D01*
X106911830Y-80697368D01*
X106902651Y-80677962D01*
X106895419Y-80657750D01*
X106890203Y-80636926D01*
X106887053Y-80615691D01*
X106886000Y-80594250D01*
X106886000Y-80156750D01*
X106887053Y-80135309D01*
X106890203Y-80114074D01*
X106895419Y-80093250D01*
X106902651Y-80073038D01*
X106911830Y-80053632D01*
X106922866Y-80035219D01*
X106935654Y-80017976D01*
X106950070Y-80002070D01*
X106965976Y-79987654D01*
X106983219Y-79974866D01*
X107001632Y-79963830D01*
X107021038Y-79954651D01*
X107041250Y-79947419D01*
X107062074Y-79942203D01*
X107083309Y-79939053D01*
X107104750Y-79938000D01*
X107617250Y-79938000D01*
X107638691Y-79939053D01*
X107638691Y-79939053D01*
G37*
D12*
X107361000Y-80375500D03*
D11*
G36*
X107638691Y-78364053D02*
X107659926Y-78367203D01*
X107680750Y-78372419D01*
X107700962Y-78379651D01*
X107720368Y-78388830D01*
X107738781Y-78399866D01*
X107756024Y-78412654D01*
X107771930Y-78427070D01*
X107786346Y-78442976D01*
X107799134Y-78460219D01*
X107810170Y-78478632D01*
X107819349Y-78498038D01*
X107826581Y-78518250D01*
X107831797Y-78539074D01*
X107834947Y-78560309D01*
X107836000Y-78581750D01*
X107836000Y-79019250D01*
X107834947Y-79040691D01*
X107831797Y-79061926D01*
X107826581Y-79082750D01*
X107819349Y-79102962D01*
X107810170Y-79122368D01*
X107799134Y-79140781D01*
X107786346Y-79158024D01*
X107771930Y-79173930D01*
X107756024Y-79188346D01*
X107738781Y-79201134D01*
X107720368Y-79212170D01*
X107700962Y-79221349D01*
X107680750Y-79228581D01*
X107659926Y-79233797D01*
X107638691Y-79236947D01*
X107617250Y-79238000D01*
X107104750Y-79238000D01*
X107083309Y-79236947D01*
X107062074Y-79233797D01*
X107041250Y-79228581D01*
X107021038Y-79221349D01*
X107001632Y-79212170D01*
X106983219Y-79201134D01*
X106965976Y-79188346D01*
X106950070Y-79173930D01*
X106935654Y-79158024D01*
X106922866Y-79140781D01*
X106911830Y-79122368D01*
X106902651Y-79102962D01*
X106895419Y-79082750D01*
X106890203Y-79061926D01*
X106887053Y-79040691D01*
X106886000Y-79019250D01*
X106886000Y-78581750D01*
X106887053Y-78560309D01*
X106890203Y-78539074D01*
X106895419Y-78518250D01*
X106902651Y-78498038D01*
X106911830Y-78478632D01*
X106922866Y-78460219D01*
X106935654Y-78442976D01*
X106950070Y-78427070D01*
X106965976Y-78412654D01*
X106983219Y-78399866D01*
X107001632Y-78388830D01*
X107021038Y-78379651D01*
X107041250Y-78372419D01*
X107062074Y-78367203D01*
X107083309Y-78364053D01*
X107104750Y-78363000D01*
X107617250Y-78363000D01*
X107638691Y-78364053D01*
X107638691Y-78364053D01*
G37*
D12*
X107361000Y-78800500D03*
G04 #@! TD*
D14*
G04 #@! TO.C,A3*
X145956000Y-66675000D03*
X145956000Y-65405000D03*
X145956000Y-64135000D03*
X145956000Y-62865000D03*
X140556000Y-62865000D03*
X140556000Y-64135000D03*
X140556000Y-65405000D03*
X140556000Y-66675000D03*
G04 #@! TD*
G04 #@! TO.C,A4*
X113571000Y-66421000D03*
X113571000Y-67691000D03*
X113571000Y-68961000D03*
X113571000Y-70231000D03*
X108171000Y-70231000D03*
X108171000Y-68961000D03*
X108171000Y-67691000D03*
X108171000Y-66421000D03*
G04 #@! TD*
D11*
G04 #@! TO.C,C2*
G36*
X172743691Y-77338553D02*
X172764926Y-77341703D01*
X172785750Y-77346919D01*
X172805962Y-77354151D01*
X172825368Y-77363330D01*
X172843781Y-77374366D01*
X172861024Y-77387154D01*
X172876930Y-77401570D01*
X172891346Y-77417476D01*
X172904134Y-77434719D01*
X172915170Y-77453132D01*
X172924349Y-77472538D01*
X172931581Y-77492750D01*
X172936797Y-77513574D01*
X172939947Y-77534809D01*
X172941000Y-77556250D01*
X172941000Y-77993750D01*
X172939947Y-78015191D01*
X172936797Y-78036426D01*
X172931581Y-78057250D01*
X172924349Y-78077462D01*
X172915170Y-78096868D01*
X172904134Y-78115281D01*
X172891346Y-78132524D01*
X172876930Y-78148430D01*
X172861024Y-78162846D01*
X172843781Y-78175634D01*
X172825368Y-78186670D01*
X172805962Y-78195849D01*
X172785750Y-78203081D01*
X172764926Y-78208297D01*
X172743691Y-78211447D01*
X172722250Y-78212500D01*
X172209750Y-78212500D01*
X172188309Y-78211447D01*
X172167074Y-78208297D01*
X172146250Y-78203081D01*
X172126038Y-78195849D01*
X172106632Y-78186670D01*
X172088219Y-78175634D01*
X172070976Y-78162846D01*
X172055070Y-78148430D01*
X172040654Y-78132524D01*
X172027866Y-78115281D01*
X172016830Y-78096868D01*
X172007651Y-78077462D01*
X172000419Y-78057250D01*
X171995203Y-78036426D01*
X171992053Y-78015191D01*
X171991000Y-77993750D01*
X171991000Y-77556250D01*
X171992053Y-77534809D01*
X171995203Y-77513574D01*
X172000419Y-77492750D01*
X172007651Y-77472538D01*
X172016830Y-77453132D01*
X172027866Y-77434719D01*
X172040654Y-77417476D01*
X172055070Y-77401570D01*
X172070976Y-77387154D01*
X172088219Y-77374366D01*
X172106632Y-77363330D01*
X172126038Y-77354151D01*
X172146250Y-77346919D01*
X172167074Y-77341703D01*
X172188309Y-77338553D01*
X172209750Y-77337500D01*
X172722250Y-77337500D01*
X172743691Y-77338553D01*
X172743691Y-77338553D01*
G37*
D12*
X172466000Y-77775000D03*
D11*
G36*
X172743691Y-75763553D02*
X172764926Y-75766703D01*
X172785750Y-75771919D01*
X172805962Y-75779151D01*
X172825368Y-75788330D01*
X172843781Y-75799366D01*
X172861024Y-75812154D01*
X172876930Y-75826570D01*
X172891346Y-75842476D01*
X172904134Y-75859719D01*
X172915170Y-75878132D01*
X172924349Y-75897538D01*
X172931581Y-75917750D01*
X172936797Y-75938574D01*
X172939947Y-75959809D01*
X172941000Y-75981250D01*
X172941000Y-76418750D01*
X172939947Y-76440191D01*
X172936797Y-76461426D01*
X172931581Y-76482250D01*
X172924349Y-76502462D01*
X172915170Y-76521868D01*
X172904134Y-76540281D01*
X172891346Y-76557524D01*
X172876930Y-76573430D01*
X172861024Y-76587846D01*
X172843781Y-76600634D01*
X172825368Y-76611670D01*
X172805962Y-76620849D01*
X172785750Y-76628081D01*
X172764926Y-76633297D01*
X172743691Y-76636447D01*
X172722250Y-76637500D01*
X172209750Y-76637500D01*
X172188309Y-76636447D01*
X172167074Y-76633297D01*
X172146250Y-76628081D01*
X172126038Y-76620849D01*
X172106632Y-76611670D01*
X172088219Y-76600634D01*
X172070976Y-76587846D01*
X172055070Y-76573430D01*
X172040654Y-76557524D01*
X172027866Y-76540281D01*
X172016830Y-76521868D01*
X172007651Y-76502462D01*
X172000419Y-76482250D01*
X171995203Y-76461426D01*
X171992053Y-76440191D01*
X171991000Y-76418750D01*
X171991000Y-75981250D01*
X171992053Y-75959809D01*
X171995203Y-75938574D01*
X172000419Y-75917750D01*
X172007651Y-75897538D01*
X172016830Y-75878132D01*
X172027866Y-75859719D01*
X172040654Y-75842476D01*
X172055070Y-75826570D01*
X172070976Y-75812154D01*
X172088219Y-75799366D01*
X172106632Y-75788330D01*
X172126038Y-75779151D01*
X172146250Y-75771919D01*
X172167074Y-75766703D01*
X172188309Y-75763553D01*
X172209750Y-75762500D01*
X172722250Y-75762500D01*
X172743691Y-75763553D01*
X172743691Y-75763553D01*
G37*
D12*
X172466000Y-76200000D03*
G04 #@! TD*
D11*
G04 #@! TO.C,C3*
G36*
X120229691Y-81314053D02*
X120250926Y-81317203D01*
X120271750Y-81322419D01*
X120291962Y-81329651D01*
X120311368Y-81338830D01*
X120329781Y-81349866D01*
X120347024Y-81362654D01*
X120362930Y-81377070D01*
X120377346Y-81392976D01*
X120390134Y-81410219D01*
X120401170Y-81428632D01*
X120410349Y-81448038D01*
X120417581Y-81468250D01*
X120422797Y-81489074D01*
X120425947Y-81510309D01*
X120427000Y-81531750D01*
X120427000Y-82044250D01*
X120425947Y-82065691D01*
X120422797Y-82086926D01*
X120417581Y-82107750D01*
X120410349Y-82127962D01*
X120401170Y-82147368D01*
X120390134Y-82165781D01*
X120377346Y-82183024D01*
X120362930Y-82198930D01*
X120347024Y-82213346D01*
X120329781Y-82226134D01*
X120311368Y-82237170D01*
X120291962Y-82246349D01*
X120271750Y-82253581D01*
X120250926Y-82258797D01*
X120229691Y-82261947D01*
X120208250Y-82263000D01*
X119770750Y-82263000D01*
X119749309Y-82261947D01*
X119728074Y-82258797D01*
X119707250Y-82253581D01*
X119687038Y-82246349D01*
X119667632Y-82237170D01*
X119649219Y-82226134D01*
X119631976Y-82213346D01*
X119616070Y-82198930D01*
X119601654Y-82183024D01*
X119588866Y-82165781D01*
X119577830Y-82147368D01*
X119568651Y-82127962D01*
X119561419Y-82107750D01*
X119556203Y-82086926D01*
X119553053Y-82065691D01*
X119552000Y-82044250D01*
X119552000Y-81531750D01*
X119553053Y-81510309D01*
X119556203Y-81489074D01*
X119561419Y-81468250D01*
X119568651Y-81448038D01*
X119577830Y-81428632D01*
X119588866Y-81410219D01*
X119601654Y-81392976D01*
X119616070Y-81377070D01*
X119631976Y-81362654D01*
X119649219Y-81349866D01*
X119667632Y-81338830D01*
X119687038Y-81329651D01*
X119707250Y-81322419D01*
X119728074Y-81317203D01*
X119749309Y-81314053D01*
X119770750Y-81313000D01*
X120208250Y-81313000D01*
X120229691Y-81314053D01*
X120229691Y-81314053D01*
G37*
D12*
X119989500Y-81788000D03*
D11*
G36*
X121804691Y-81314053D02*
X121825926Y-81317203D01*
X121846750Y-81322419D01*
X121866962Y-81329651D01*
X121886368Y-81338830D01*
X121904781Y-81349866D01*
X121922024Y-81362654D01*
X121937930Y-81377070D01*
X121952346Y-81392976D01*
X121965134Y-81410219D01*
X121976170Y-81428632D01*
X121985349Y-81448038D01*
X121992581Y-81468250D01*
X121997797Y-81489074D01*
X122000947Y-81510309D01*
X122002000Y-81531750D01*
X122002000Y-82044250D01*
X122000947Y-82065691D01*
X121997797Y-82086926D01*
X121992581Y-82107750D01*
X121985349Y-82127962D01*
X121976170Y-82147368D01*
X121965134Y-82165781D01*
X121952346Y-82183024D01*
X121937930Y-82198930D01*
X121922024Y-82213346D01*
X121904781Y-82226134D01*
X121886368Y-82237170D01*
X121866962Y-82246349D01*
X121846750Y-82253581D01*
X121825926Y-82258797D01*
X121804691Y-82261947D01*
X121783250Y-82263000D01*
X121345750Y-82263000D01*
X121324309Y-82261947D01*
X121303074Y-82258797D01*
X121282250Y-82253581D01*
X121262038Y-82246349D01*
X121242632Y-82237170D01*
X121224219Y-82226134D01*
X121206976Y-82213346D01*
X121191070Y-82198930D01*
X121176654Y-82183024D01*
X121163866Y-82165781D01*
X121152830Y-82147368D01*
X121143651Y-82127962D01*
X121136419Y-82107750D01*
X121131203Y-82086926D01*
X121128053Y-82065691D01*
X121127000Y-82044250D01*
X121127000Y-81531750D01*
X121128053Y-81510309D01*
X121131203Y-81489074D01*
X121136419Y-81468250D01*
X121143651Y-81448038D01*
X121152830Y-81428632D01*
X121163866Y-81410219D01*
X121176654Y-81392976D01*
X121191070Y-81377070D01*
X121206976Y-81362654D01*
X121224219Y-81349866D01*
X121242632Y-81338830D01*
X121262038Y-81329651D01*
X121282250Y-81322419D01*
X121303074Y-81317203D01*
X121324309Y-81314053D01*
X121345750Y-81313000D01*
X121783250Y-81313000D01*
X121804691Y-81314053D01*
X121804691Y-81314053D01*
G37*
D12*
X121564500Y-81788000D03*
G04 #@! TD*
D11*
G04 #@! TO.C,C4*
G36*
X171981691Y-81631053D02*
X172002926Y-81634203D01*
X172023750Y-81639419D01*
X172043962Y-81646651D01*
X172063368Y-81655830D01*
X172081781Y-81666866D01*
X172099024Y-81679654D01*
X172114930Y-81694070D01*
X172129346Y-81709976D01*
X172142134Y-81727219D01*
X172153170Y-81745632D01*
X172162349Y-81765038D01*
X172169581Y-81785250D01*
X172174797Y-81806074D01*
X172177947Y-81827309D01*
X172179000Y-81848750D01*
X172179000Y-82286250D01*
X172177947Y-82307691D01*
X172174797Y-82328926D01*
X172169581Y-82349750D01*
X172162349Y-82369962D01*
X172153170Y-82389368D01*
X172142134Y-82407781D01*
X172129346Y-82425024D01*
X172114930Y-82440930D01*
X172099024Y-82455346D01*
X172081781Y-82468134D01*
X172063368Y-82479170D01*
X172043962Y-82488349D01*
X172023750Y-82495581D01*
X172002926Y-82500797D01*
X171981691Y-82503947D01*
X171960250Y-82505000D01*
X171447750Y-82505000D01*
X171426309Y-82503947D01*
X171405074Y-82500797D01*
X171384250Y-82495581D01*
X171364038Y-82488349D01*
X171344632Y-82479170D01*
X171326219Y-82468134D01*
X171308976Y-82455346D01*
X171293070Y-82440930D01*
X171278654Y-82425024D01*
X171265866Y-82407781D01*
X171254830Y-82389368D01*
X171245651Y-82369962D01*
X171238419Y-82349750D01*
X171233203Y-82328926D01*
X171230053Y-82307691D01*
X171229000Y-82286250D01*
X171229000Y-81848750D01*
X171230053Y-81827309D01*
X171233203Y-81806074D01*
X171238419Y-81785250D01*
X171245651Y-81765038D01*
X171254830Y-81745632D01*
X171265866Y-81727219D01*
X171278654Y-81709976D01*
X171293070Y-81694070D01*
X171308976Y-81679654D01*
X171326219Y-81666866D01*
X171344632Y-81655830D01*
X171364038Y-81646651D01*
X171384250Y-81639419D01*
X171405074Y-81634203D01*
X171426309Y-81631053D01*
X171447750Y-81630000D01*
X171960250Y-81630000D01*
X171981691Y-81631053D01*
X171981691Y-81631053D01*
G37*
D12*
X171704000Y-82067500D03*
D11*
G36*
X171981691Y-80056053D02*
X172002926Y-80059203D01*
X172023750Y-80064419D01*
X172043962Y-80071651D01*
X172063368Y-80080830D01*
X172081781Y-80091866D01*
X172099024Y-80104654D01*
X172114930Y-80119070D01*
X172129346Y-80134976D01*
X172142134Y-80152219D01*
X172153170Y-80170632D01*
X172162349Y-80190038D01*
X172169581Y-80210250D01*
X172174797Y-80231074D01*
X172177947Y-80252309D01*
X172179000Y-80273750D01*
X172179000Y-80711250D01*
X172177947Y-80732691D01*
X172174797Y-80753926D01*
X172169581Y-80774750D01*
X172162349Y-80794962D01*
X172153170Y-80814368D01*
X172142134Y-80832781D01*
X172129346Y-80850024D01*
X172114930Y-80865930D01*
X172099024Y-80880346D01*
X172081781Y-80893134D01*
X172063368Y-80904170D01*
X172043962Y-80913349D01*
X172023750Y-80920581D01*
X172002926Y-80925797D01*
X171981691Y-80928947D01*
X171960250Y-80930000D01*
X171447750Y-80930000D01*
X171426309Y-80928947D01*
X171405074Y-80925797D01*
X171384250Y-80920581D01*
X171364038Y-80913349D01*
X171344632Y-80904170D01*
X171326219Y-80893134D01*
X171308976Y-80880346D01*
X171293070Y-80865930D01*
X171278654Y-80850024D01*
X171265866Y-80832781D01*
X171254830Y-80814368D01*
X171245651Y-80794962D01*
X171238419Y-80774750D01*
X171233203Y-80753926D01*
X171230053Y-80732691D01*
X171229000Y-80711250D01*
X171229000Y-80273750D01*
X171230053Y-80252309D01*
X171233203Y-80231074D01*
X171238419Y-80210250D01*
X171245651Y-80190038D01*
X171254830Y-80170632D01*
X171265866Y-80152219D01*
X171278654Y-80134976D01*
X171293070Y-80119070D01*
X171308976Y-80104654D01*
X171326219Y-80091866D01*
X171344632Y-80080830D01*
X171364038Y-80071651D01*
X171384250Y-80064419D01*
X171405074Y-80059203D01*
X171426309Y-80056053D01*
X171447750Y-80055000D01*
X171960250Y-80055000D01*
X171981691Y-80056053D01*
X171981691Y-80056053D01*
G37*
D12*
X171704000Y-80492500D03*
G04 #@! TD*
D11*
G04 #@! TO.C,C5*
G36*
X118306691Y-77567053D02*
X118327926Y-77570203D01*
X118348750Y-77575419D01*
X118368962Y-77582651D01*
X118388368Y-77591830D01*
X118406781Y-77602866D01*
X118424024Y-77615654D01*
X118439930Y-77630070D01*
X118454346Y-77645976D01*
X118467134Y-77663219D01*
X118478170Y-77681632D01*
X118487349Y-77701038D01*
X118494581Y-77721250D01*
X118499797Y-77742074D01*
X118502947Y-77763309D01*
X118504000Y-77784750D01*
X118504000Y-78222250D01*
X118502947Y-78243691D01*
X118499797Y-78264926D01*
X118494581Y-78285750D01*
X118487349Y-78305962D01*
X118478170Y-78325368D01*
X118467134Y-78343781D01*
X118454346Y-78361024D01*
X118439930Y-78376930D01*
X118424024Y-78391346D01*
X118406781Y-78404134D01*
X118388368Y-78415170D01*
X118368962Y-78424349D01*
X118348750Y-78431581D01*
X118327926Y-78436797D01*
X118306691Y-78439947D01*
X118285250Y-78441000D01*
X117772750Y-78441000D01*
X117751309Y-78439947D01*
X117730074Y-78436797D01*
X117709250Y-78431581D01*
X117689038Y-78424349D01*
X117669632Y-78415170D01*
X117651219Y-78404134D01*
X117633976Y-78391346D01*
X117618070Y-78376930D01*
X117603654Y-78361024D01*
X117590866Y-78343781D01*
X117579830Y-78325368D01*
X117570651Y-78305962D01*
X117563419Y-78285750D01*
X117558203Y-78264926D01*
X117555053Y-78243691D01*
X117554000Y-78222250D01*
X117554000Y-77784750D01*
X117555053Y-77763309D01*
X117558203Y-77742074D01*
X117563419Y-77721250D01*
X117570651Y-77701038D01*
X117579830Y-77681632D01*
X117590866Y-77663219D01*
X117603654Y-77645976D01*
X117618070Y-77630070D01*
X117633976Y-77615654D01*
X117651219Y-77602866D01*
X117669632Y-77591830D01*
X117689038Y-77582651D01*
X117709250Y-77575419D01*
X117730074Y-77570203D01*
X117751309Y-77567053D01*
X117772750Y-77566000D01*
X118285250Y-77566000D01*
X118306691Y-77567053D01*
X118306691Y-77567053D01*
G37*
D12*
X118029000Y-78003500D03*
D11*
G36*
X118306691Y-75992053D02*
X118327926Y-75995203D01*
X118348750Y-76000419D01*
X118368962Y-76007651D01*
X118388368Y-76016830D01*
X118406781Y-76027866D01*
X118424024Y-76040654D01*
X118439930Y-76055070D01*
X118454346Y-76070976D01*
X118467134Y-76088219D01*
X118478170Y-76106632D01*
X118487349Y-76126038D01*
X118494581Y-76146250D01*
X118499797Y-76167074D01*
X118502947Y-76188309D01*
X118504000Y-76209750D01*
X118504000Y-76647250D01*
X118502947Y-76668691D01*
X118499797Y-76689926D01*
X118494581Y-76710750D01*
X118487349Y-76730962D01*
X118478170Y-76750368D01*
X118467134Y-76768781D01*
X118454346Y-76786024D01*
X118439930Y-76801930D01*
X118424024Y-76816346D01*
X118406781Y-76829134D01*
X118388368Y-76840170D01*
X118368962Y-76849349D01*
X118348750Y-76856581D01*
X118327926Y-76861797D01*
X118306691Y-76864947D01*
X118285250Y-76866000D01*
X117772750Y-76866000D01*
X117751309Y-76864947D01*
X117730074Y-76861797D01*
X117709250Y-76856581D01*
X117689038Y-76849349D01*
X117669632Y-76840170D01*
X117651219Y-76829134D01*
X117633976Y-76816346D01*
X117618070Y-76801930D01*
X117603654Y-76786024D01*
X117590866Y-76768781D01*
X117579830Y-76750368D01*
X117570651Y-76730962D01*
X117563419Y-76710750D01*
X117558203Y-76689926D01*
X117555053Y-76668691D01*
X117554000Y-76647250D01*
X117554000Y-76209750D01*
X117555053Y-76188309D01*
X117558203Y-76167074D01*
X117563419Y-76146250D01*
X117570651Y-76126038D01*
X117579830Y-76106632D01*
X117590866Y-76088219D01*
X117603654Y-76070976D01*
X117618070Y-76055070D01*
X117633976Y-76040654D01*
X117651219Y-76027866D01*
X117669632Y-76016830D01*
X117689038Y-76007651D01*
X117709250Y-76000419D01*
X117730074Y-75995203D01*
X117751309Y-75992053D01*
X117772750Y-75991000D01*
X118285250Y-75991000D01*
X118306691Y-75992053D01*
X118306691Y-75992053D01*
G37*
D12*
X118029000Y-76428500D03*
G04 #@! TD*
D11*
G04 #@! TO.C,C6*
G36*
X129817691Y-75814553D02*
X129838926Y-75817703D01*
X129859750Y-75822919D01*
X129879962Y-75830151D01*
X129899368Y-75839330D01*
X129917781Y-75850366D01*
X129935024Y-75863154D01*
X129950930Y-75877570D01*
X129965346Y-75893476D01*
X129978134Y-75910719D01*
X129989170Y-75929132D01*
X129998349Y-75948538D01*
X130005581Y-75968750D01*
X130010797Y-75989574D01*
X130013947Y-76010809D01*
X130015000Y-76032250D01*
X130015000Y-76469750D01*
X130013947Y-76491191D01*
X130010797Y-76512426D01*
X130005581Y-76533250D01*
X129998349Y-76553462D01*
X129989170Y-76572868D01*
X129978134Y-76591281D01*
X129965346Y-76608524D01*
X129950930Y-76624430D01*
X129935024Y-76638846D01*
X129917781Y-76651634D01*
X129899368Y-76662670D01*
X129879962Y-76671849D01*
X129859750Y-76679081D01*
X129838926Y-76684297D01*
X129817691Y-76687447D01*
X129796250Y-76688500D01*
X129283750Y-76688500D01*
X129262309Y-76687447D01*
X129241074Y-76684297D01*
X129220250Y-76679081D01*
X129200038Y-76671849D01*
X129180632Y-76662670D01*
X129162219Y-76651634D01*
X129144976Y-76638846D01*
X129129070Y-76624430D01*
X129114654Y-76608524D01*
X129101866Y-76591281D01*
X129090830Y-76572868D01*
X129081651Y-76553462D01*
X129074419Y-76533250D01*
X129069203Y-76512426D01*
X129066053Y-76491191D01*
X129065000Y-76469750D01*
X129065000Y-76032250D01*
X129066053Y-76010809D01*
X129069203Y-75989574D01*
X129074419Y-75968750D01*
X129081651Y-75948538D01*
X129090830Y-75929132D01*
X129101866Y-75910719D01*
X129114654Y-75893476D01*
X129129070Y-75877570D01*
X129144976Y-75863154D01*
X129162219Y-75850366D01*
X129180632Y-75839330D01*
X129200038Y-75830151D01*
X129220250Y-75822919D01*
X129241074Y-75817703D01*
X129262309Y-75814553D01*
X129283750Y-75813500D01*
X129796250Y-75813500D01*
X129817691Y-75814553D01*
X129817691Y-75814553D01*
G37*
D12*
X129540000Y-76251000D03*
D11*
G36*
X129817691Y-74239553D02*
X129838926Y-74242703D01*
X129859750Y-74247919D01*
X129879962Y-74255151D01*
X129899368Y-74264330D01*
X129917781Y-74275366D01*
X129935024Y-74288154D01*
X129950930Y-74302570D01*
X129965346Y-74318476D01*
X129978134Y-74335719D01*
X129989170Y-74354132D01*
X129998349Y-74373538D01*
X130005581Y-74393750D01*
X130010797Y-74414574D01*
X130013947Y-74435809D01*
X130015000Y-74457250D01*
X130015000Y-74894750D01*
X130013947Y-74916191D01*
X130010797Y-74937426D01*
X130005581Y-74958250D01*
X129998349Y-74978462D01*
X129989170Y-74997868D01*
X129978134Y-75016281D01*
X129965346Y-75033524D01*
X129950930Y-75049430D01*
X129935024Y-75063846D01*
X129917781Y-75076634D01*
X129899368Y-75087670D01*
X129879962Y-75096849D01*
X129859750Y-75104081D01*
X129838926Y-75109297D01*
X129817691Y-75112447D01*
X129796250Y-75113500D01*
X129283750Y-75113500D01*
X129262309Y-75112447D01*
X129241074Y-75109297D01*
X129220250Y-75104081D01*
X129200038Y-75096849D01*
X129180632Y-75087670D01*
X129162219Y-75076634D01*
X129144976Y-75063846D01*
X129129070Y-75049430D01*
X129114654Y-75033524D01*
X129101866Y-75016281D01*
X129090830Y-74997868D01*
X129081651Y-74978462D01*
X129074419Y-74958250D01*
X129069203Y-74937426D01*
X129066053Y-74916191D01*
X129065000Y-74894750D01*
X129065000Y-74457250D01*
X129066053Y-74435809D01*
X129069203Y-74414574D01*
X129074419Y-74393750D01*
X129081651Y-74373538D01*
X129090830Y-74354132D01*
X129101866Y-74335719D01*
X129114654Y-74318476D01*
X129129070Y-74302570D01*
X129144976Y-74288154D01*
X129162219Y-74275366D01*
X129180632Y-74264330D01*
X129200038Y-74255151D01*
X129220250Y-74247919D01*
X129241074Y-74242703D01*
X129262309Y-74239553D01*
X129283750Y-74238500D01*
X129796250Y-74238500D01*
X129817691Y-74239553D01*
X129817691Y-74239553D01*
G37*
D12*
X129540000Y-74676000D03*
G04 #@! TD*
D11*
G04 #@! TO.C,C7*
G36*
X100734691Y-63089053D02*
X100755926Y-63092203D01*
X100776750Y-63097419D01*
X100796962Y-63104651D01*
X100816368Y-63113830D01*
X100834781Y-63124866D01*
X100852024Y-63137654D01*
X100867930Y-63152070D01*
X100882346Y-63167976D01*
X100895134Y-63185219D01*
X100906170Y-63203632D01*
X100915349Y-63223038D01*
X100922581Y-63243250D01*
X100927797Y-63264074D01*
X100930947Y-63285309D01*
X100932000Y-63306750D01*
X100932000Y-63744250D01*
X100930947Y-63765691D01*
X100927797Y-63786926D01*
X100922581Y-63807750D01*
X100915349Y-63827962D01*
X100906170Y-63847368D01*
X100895134Y-63865781D01*
X100882346Y-63883024D01*
X100867930Y-63898930D01*
X100852024Y-63913346D01*
X100834781Y-63926134D01*
X100816368Y-63937170D01*
X100796962Y-63946349D01*
X100776750Y-63953581D01*
X100755926Y-63958797D01*
X100734691Y-63961947D01*
X100713250Y-63963000D01*
X100200750Y-63963000D01*
X100179309Y-63961947D01*
X100158074Y-63958797D01*
X100137250Y-63953581D01*
X100117038Y-63946349D01*
X100097632Y-63937170D01*
X100079219Y-63926134D01*
X100061976Y-63913346D01*
X100046070Y-63898930D01*
X100031654Y-63883024D01*
X100018866Y-63865781D01*
X100007830Y-63847368D01*
X99998651Y-63827962D01*
X99991419Y-63807750D01*
X99986203Y-63786926D01*
X99983053Y-63765691D01*
X99982000Y-63744250D01*
X99982000Y-63306750D01*
X99983053Y-63285309D01*
X99986203Y-63264074D01*
X99991419Y-63243250D01*
X99998651Y-63223038D01*
X100007830Y-63203632D01*
X100018866Y-63185219D01*
X100031654Y-63167976D01*
X100046070Y-63152070D01*
X100061976Y-63137654D01*
X100079219Y-63124866D01*
X100097632Y-63113830D01*
X100117038Y-63104651D01*
X100137250Y-63097419D01*
X100158074Y-63092203D01*
X100179309Y-63089053D01*
X100200750Y-63088000D01*
X100713250Y-63088000D01*
X100734691Y-63089053D01*
X100734691Y-63089053D01*
G37*
D12*
X100457000Y-63525500D03*
D11*
G36*
X100734691Y-64664053D02*
X100755926Y-64667203D01*
X100776750Y-64672419D01*
X100796962Y-64679651D01*
X100816368Y-64688830D01*
X100834781Y-64699866D01*
X100852024Y-64712654D01*
X100867930Y-64727070D01*
X100882346Y-64742976D01*
X100895134Y-64760219D01*
X100906170Y-64778632D01*
X100915349Y-64798038D01*
X100922581Y-64818250D01*
X100927797Y-64839074D01*
X100930947Y-64860309D01*
X100932000Y-64881750D01*
X100932000Y-65319250D01*
X100930947Y-65340691D01*
X100927797Y-65361926D01*
X100922581Y-65382750D01*
X100915349Y-65402962D01*
X100906170Y-65422368D01*
X100895134Y-65440781D01*
X100882346Y-65458024D01*
X100867930Y-65473930D01*
X100852024Y-65488346D01*
X100834781Y-65501134D01*
X100816368Y-65512170D01*
X100796962Y-65521349D01*
X100776750Y-65528581D01*
X100755926Y-65533797D01*
X100734691Y-65536947D01*
X100713250Y-65538000D01*
X100200750Y-65538000D01*
X100179309Y-65536947D01*
X100158074Y-65533797D01*
X100137250Y-65528581D01*
X100117038Y-65521349D01*
X100097632Y-65512170D01*
X100079219Y-65501134D01*
X100061976Y-65488346D01*
X100046070Y-65473930D01*
X100031654Y-65458024D01*
X100018866Y-65440781D01*
X100007830Y-65422368D01*
X99998651Y-65402962D01*
X99991419Y-65382750D01*
X99986203Y-65361926D01*
X99983053Y-65340691D01*
X99982000Y-65319250D01*
X99982000Y-64881750D01*
X99983053Y-64860309D01*
X99986203Y-64839074D01*
X99991419Y-64818250D01*
X99998651Y-64798038D01*
X100007830Y-64778632D01*
X100018866Y-64760219D01*
X100031654Y-64742976D01*
X100046070Y-64727070D01*
X100061976Y-64712654D01*
X100079219Y-64699866D01*
X100097632Y-64688830D01*
X100117038Y-64679651D01*
X100137250Y-64672419D01*
X100158074Y-64667203D01*
X100179309Y-64664053D01*
X100200750Y-64663000D01*
X100713250Y-64663000D01*
X100734691Y-64664053D01*
X100734691Y-64664053D01*
G37*
D12*
X100457000Y-65100500D03*
G04 #@! TD*
D10*
G04 #@! TO.C,Crystal2*
X114727000Y-81534000D03*
X114727000Y-77134000D03*
G04 #@! TD*
D15*
G04 #@! TO.C,D1*
X103457157Y-105283497D03*
X103457157Y-104333497D03*
G04 #@! TD*
G04 #@! TO.C,D2*
X144018000Y-105598000D03*
X144018000Y-104648000D03*
G04 #@! TD*
G04 #@! TO.C,D3*
X92789157Y-104554497D03*
X92789157Y-105504497D03*
G04 #@! TD*
G04 #@! TO.C,D4*
X156464000Y-104681000D03*
X156464000Y-105631000D03*
G04 #@! TD*
D11*
G04 #@! TO.C,D5*
G36*
X129479170Y-70681763D02*
X129500405Y-70684913D01*
X129521229Y-70690129D01*
X129541441Y-70697361D01*
X129560847Y-70706540D01*
X129579260Y-70717576D01*
X129596503Y-70730364D01*
X129612409Y-70744780D01*
X129626825Y-70760686D01*
X129639613Y-70777929D01*
X129650649Y-70796342D01*
X129659828Y-70815748D01*
X129667060Y-70835960D01*
X129672276Y-70856784D01*
X129675426Y-70878019D01*
X129676479Y-70899460D01*
X129676479Y-71336960D01*
X129675426Y-71358401D01*
X129672276Y-71379636D01*
X129667060Y-71400460D01*
X129659828Y-71420672D01*
X129650649Y-71440078D01*
X129639613Y-71458491D01*
X129626825Y-71475734D01*
X129612409Y-71491640D01*
X129596503Y-71506056D01*
X129579260Y-71518844D01*
X129560847Y-71529880D01*
X129541441Y-71539059D01*
X129521229Y-71546291D01*
X129500405Y-71551507D01*
X129479170Y-71554657D01*
X129457729Y-71555710D01*
X128945229Y-71555710D01*
X128923788Y-71554657D01*
X128902553Y-71551507D01*
X128881729Y-71546291D01*
X128861517Y-71539059D01*
X128842111Y-71529880D01*
X128823698Y-71518844D01*
X128806455Y-71506056D01*
X128790549Y-71491640D01*
X128776133Y-71475734D01*
X128763345Y-71458491D01*
X128752309Y-71440078D01*
X128743130Y-71420672D01*
X128735898Y-71400460D01*
X128730682Y-71379636D01*
X128727532Y-71358401D01*
X128726479Y-71336960D01*
X128726479Y-70899460D01*
X128727532Y-70878019D01*
X128730682Y-70856784D01*
X128735898Y-70835960D01*
X128743130Y-70815748D01*
X128752309Y-70796342D01*
X128763345Y-70777929D01*
X128776133Y-70760686D01*
X128790549Y-70744780D01*
X128806455Y-70730364D01*
X128823698Y-70717576D01*
X128842111Y-70706540D01*
X128861517Y-70697361D01*
X128881729Y-70690129D01*
X128902553Y-70684913D01*
X128923788Y-70681763D01*
X128945229Y-70680710D01*
X129457729Y-70680710D01*
X129479170Y-70681763D01*
X129479170Y-70681763D01*
G37*
D12*
X129201479Y-71118210D03*
D11*
G36*
X129479170Y-69106763D02*
X129500405Y-69109913D01*
X129521229Y-69115129D01*
X129541441Y-69122361D01*
X129560847Y-69131540D01*
X129579260Y-69142576D01*
X129596503Y-69155364D01*
X129612409Y-69169780D01*
X129626825Y-69185686D01*
X129639613Y-69202929D01*
X129650649Y-69221342D01*
X129659828Y-69240748D01*
X129667060Y-69260960D01*
X129672276Y-69281784D01*
X129675426Y-69303019D01*
X129676479Y-69324460D01*
X129676479Y-69761960D01*
X129675426Y-69783401D01*
X129672276Y-69804636D01*
X129667060Y-69825460D01*
X129659828Y-69845672D01*
X129650649Y-69865078D01*
X129639613Y-69883491D01*
X129626825Y-69900734D01*
X129612409Y-69916640D01*
X129596503Y-69931056D01*
X129579260Y-69943844D01*
X129560847Y-69954880D01*
X129541441Y-69964059D01*
X129521229Y-69971291D01*
X129500405Y-69976507D01*
X129479170Y-69979657D01*
X129457729Y-69980710D01*
X128945229Y-69980710D01*
X128923788Y-69979657D01*
X128902553Y-69976507D01*
X128881729Y-69971291D01*
X128861517Y-69964059D01*
X128842111Y-69954880D01*
X128823698Y-69943844D01*
X128806455Y-69931056D01*
X128790549Y-69916640D01*
X128776133Y-69900734D01*
X128763345Y-69883491D01*
X128752309Y-69865078D01*
X128743130Y-69845672D01*
X128735898Y-69825460D01*
X128730682Y-69804636D01*
X128727532Y-69783401D01*
X128726479Y-69761960D01*
X128726479Y-69324460D01*
X128727532Y-69303019D01*
X128730682Y-69281784D01*
X128735898Y-69260960D01*
X128743130Y-69240748D01*
X128752309Y-69221342D01*
X128763345Y-69202929D01*
X128776133Y-69185686D01*
X128790549Y-69169780D01*
X128806455Y-69155364D01*
X128823698Y-69142576D01*
X128842111Y-69131540D01*
X128861517Y-69122361D01*
X128881729Y-69115129D01*
X128902553Y-69109913D01*
X128923788Y-69106763D01*
X128945229Y-69105710D01*
X129457729Y-69105710D01*
X129479170Y-69106763D01*
X129479170Y-69106763D01*
G37*
D12*
X129201479Y-69543210D03*
G04 #@! TD*
D11*
G04 #@! TO.C,R1*
G36*
X97940691Y-104999053D02*
X97961926Y-105002203D01*
X97982750Y-105007419D01*
X98002962Y-105014651D01*
X98022368Y-105023830D01*
X98040781Y-105034866D01*
X98058024Y-105047654D01*
X98073930Y-105062070D01*
X98088346Y-105077976D01*
X98101134Y-105095219D01*
X98112170Y-105113632D01*
X98121349Y-105133038D01*
X98128581Y-105153250D01*
X98133797Y-105174074D01*
X98136947Y-105195309D01*
X98138000Y-105216750D01*
X98138000Y-105654250D01*
X98136947Y-105675691D01*
X98133797Y-105696926D01*
X98128581Y-105717750D01*
X98121349Y-105737962D01*
X98112170Y-105757368D01*
X98101134Y-105775781D01*
X98088346Y-105793024D01*
X98073930Y-105808930D01*
X98058024Y-105823346D01*
X98040781Y-105836134D01*
X98022368Y-105847170D01*
X98002962Y-105856349D01*
X97982750Y-105863581D01*
X97961926Y-105868797D01*
X97940691Y-105871947D01*
X97919250Y-105873000D01*
X97406750Y-105873000D01*
X97385309Y-105871947D01*
X97364074Y-105868797D01*
X97343250Y-105863581D01*
X97323038Y-105856349D01*
X97303632Y-105847170D01*
X97285219Y-105836134D01*
X97267976Y-105823346D01*
X97252070Y-105808930D01*
X97237654Y-105793024D01*
X97224866Y-105775781D01*
X97213830Y-105757368D01*
X97204651Y-105737962D01*
X97197419Y-105717750D01*
X97192203Y-105696926D01*
X97189053Y-105675691D01*
X97188000Y-105654250D01*
X97188000Y-105216750D01*
X97189053Y-105195309D01*
X97192203Y-105174074D01*
X97197419Y-105153250D01*
X97204651Y-105133038D01*
X97213830Y-105113632D01*
X97224866Y-105095219D01*
X97237654Y-105077976D01*
X97252070Y-105062070D01*
X97267976Y-105047654D01*
X97285219Y-105034866D01*
X97303632Y-105023830D01*
X97323038Y-105014651D01*
X97343250Y-105007419D01*
X97364074Y-105002203D01*
X97385309Y-104999053D01*
X97406750Y-104998000D01*
X97919250Y-104998000D01*
X97940691Y-104999053D01*
X97940691Y-104999053D01*
G37*
D12*
X97663000Y-105435500D03*
D11*
G36*
X97940691Y-103424053D02*
X97961926Y-103427203D01*
X97982750Y-103432419D01*
X98002962Y-103439651D01*
X98022368Y-103448830D01*
X98040781Y-103459866D01*
X98058024Y-103472654D01*
X98073930Y-103487070D01*
X98088346Y-103502976D01*
X98101134Y-103520219D01*
X98112170Y-103538632D01*
X98121349Y-103558038D01*
X98128581Y-103578250D01*
X98133797Y-103599074D01*
X98136947Y-103620309D01*
X98138000Y-103641750D01*
X98138000Y-104079250D01*
X98136947Y-104100691D01*
X98133797Y-104121926D01*
X98128581Y-104142750D01*
X98121349Y-104162962D01*
X98112170Y-104182368D01*
X98101134Y-104200781D01*
X98088346Y-104218024D01*
X98073930Y-104233930D01*
X98058024Y-104248346D01*
X98040781Y-104261134D01*
X98022368Y-104272170D01*
X98002962Y-104281349D01*
X97982750Y-104288581D01*
X97961926Y-104293797D01*
X97940691Y-104296947D01*
X97919250Y-104298000D01*
X97406750Y-104298000D01*
X97385309Y-104296947D01*
X97364074Y-104293797D01*
X97343250Y-104288581D01*
X97323038Y-104281349D01*
X97303632Y-104272170D01*
X97285219Y-104261134D01*
X97267976Y-104248346D01*
X97252070Y-104233930D01*
X97237654Y-104218024D01*
X97224866Y-104200781D01*
X97213830Y-104182368D01*
X97204651Y-104162962D01*
X97197419Y-104142750D01*
X97192203Y-104121926D01*
X97189053Y-104100691D01*
X97188000Y-104079250D01*
X97188000Y-103641750D01*
X97189053Y-103620309D01*
X97192203Y-103599074D01*
X97197419Y-103578250D01*
X97204651Y-103558038D01*
X97213830Y-103538632D01*
X97224866Y-103520219D01*
X97237654Y-103502976D01*
X97252070Y-103487070D01*
X97267976Y-103472654D01*
X97285219Y-103459866D01*
X97303632Y-103448830D01*
X97323038Y-103439651D01*
X97343250Y-103432419D01*
X97364074Y-103427203D01*
X97385309Y-103424053D01*
X97406750Y-103423000D01*
X97919250Y-103423000D01*
X97940691Y-103424053D01*
X97940691Y-103424053D01*
G37*
D12*
X97663000Y-103860500D03*
G04 #@! TD*
D11*
G04 #@! TO.C,R2*
G36*
X138453691Y-103932053D02*
X138474926Y-103935203D01*
X138495750Y-103940419D01*
X138515962Y-103947651D01*
X138535368Y-103956830D01*
X138553781Y-103967866D01*
X138571024Y-103980654D01*
X138586930Y-103995070D01*
X138601346Y-104010976D01*
X138614134Y-104028219D01*
X138625170Y-104046632D01*
X138634349Y-104066038D01*
X138641581Y-104086250D01*
X138646797Y-104107074D01*
X138649947Y-104128309D01*
X138651000Y-104149750D01*
X138651000Y-104587250D01*
X138649947Y-104608691D01*
X138646797Y-104629926D01*
X138641581Y-104650750D01*
X138634349Y-104670962D01*
X138625170Y-104690368D01*
X138614134Y-104708781D01*
X138601346Y-104726024D01*
X138586930Y-104741930D01*
X138571024Y-104756346D01*
X138553781Y-104769134D01*
X138535368Y-104780170D01*
X138515962Y-104789349D01*
X138495750Y-104796581D01*
X138474926Y-104801797D01*
X138453691Y-104804947D01*
X138432250Y-104806000D01*
X137919750Y-104806000D01*
X137898309Y-104804947D01*
X137877074Y-104801797D01*
X137856250Y-104796581D01*
X137836038Y-104789349D01*
X137816632Y-104780170D01*
X137798219Y-104769134D01*
X137780976Y-104756346D01*
X137765070Y-104741930D01*
X137750654Y-104726024D01*
X137737866Y-104708781D01*
X137726830Y-104690368D01*
X137717651Y-104670962D01*
X137710419Y-104650750D01*
X137705203Y-104629926D01*
X137702053Y-104608691D01*
X137701000Y-104587250D01*
X137701000Y-104149750D01*
X137702053Y-104128309D01*
X137705203Y-104107074D01*
X137710419Y-104086250D01*
X137717651Y-104066038D01*
X137726830Y-104046632D01*
X137737866Y-104028219D01*
X137750654Y-104010976D01*
X137765070Y-103995070D01*
X137780976Y-103980654D01*
X137798219Y-103967866D01*
X137816632Y-103956830D01*
X137836038Y-103947651D01*
X137856250Y-103940419D01*
X137877074Y-103935203D01*
X137898309Y-103932053D01*
X137919750Y-103931000D01*
X138432250Y-103931000D01*
X138453691Y-103932053D01*
X138453691Y-103932053D01*
G37*
D12*
X138176000Y-104368500D03*
D11*
G36*
X138453691Y-105507053D02*
X138474926Y-105510203D01*
X138495750Y-105515419D01*
X138515962Y-105522651D01*
X138535368Y-105531830D01*
X138553781Y-105542866D01*
X138571024Y-105555654D01*
X138586930Y-105570070D01*
X138601346Y-105585976D01*
X138614134Y-105603219D01*
X138625170Y-105621632D01*
X138634349Y-105641038D01*
X138641581Y-105661250D01*
X138646797Y-105682074D01*
X138649947Y-105703309D01*
X138651000Y-105724750D01*
X138651000Y-106162250D01*
X138649947Y-106183691D01*
X138646797Y-106204926D01*
X138641581Y-106225750D01*
X138634349Y-106245962D01*
X138625170Y-106265368D01*
X138614134Y-106283781D01*
X138601346Y-106301024D01*
X138586930Y-106316930D01*
X138571024Y-106331346D01*
X138553781Y-106344134D01*
X138535368Y-106355170D01*
X138515962Y-106364349D01*
X138495750Y-106371581D01*
X138474926Y-106376797D01*
X138453691Y-106379947D01*
X138432250Y-106381000D01*
X137919750Y-106381000D01*
X137898309Y-106379947D01*
X137877074Y-106376797D01*
X137856250Y-106371581D01*
X137836038Y-106364349D01*
X137816632Y-106355170D01*
X137798219Y-106344134D01*
X137780976Y-106331346D01*
X137765070Y-106316930D01*
X137750654Y-106301024D01*
X137737866Y-106283781D01*
X137726830Y-106265368D01*
X137717651Y-106245962D01*
X137710419Y-106225750D01*
X137705203Y-106204926D01*
X137702053Y-106183691D01*
X137701000Y-106162250D01*
X137701000Y-105724750D01*
X137702053Y-105703309D01*
X137705203Y-105682074D01*
X137710419Y-105661250D01*
X137717651Y-105641038D01*
X137726830Y-105621632D01*
X137737866Y-105603219D01*
X137750654Y-105585976D01*
X137765070Y-105570070D01*
X137780976Y-105555654D01*
X137798219Y-105542866D01*
X137816632Y-105531830D01*
X137836038Y-105522651D01*
X137856250Y-105515419D01*
X137877074Y-105510203D01*
X137898309Y-105507053D01*
X137919750Y-105506000D01*
X138432250Y-105506000D01*
X138453691Y-105507053D01*
X138453691Y-105507053D01*
G37*
D12*
X138176000Y-105943500D03*
G04 #@! TD*
D11*
G04 #@! TO.C,R3*
G36*
X86764691Y-103424053D02*
X86785926Y-103427203D01*
X86806750Y-103432419D01*
X86826962Y-103439651D01*
X86846368Y-103448830D01*
X86864781Y-103459866D01*
X86882024Y-103472654D01*
X86897930Y-103487070D01*
X86912346Y-103502976D01*
X86925134Y-103520219D01*
X86936170Y-103538632D01*
X86945349Y-103558038D01*
X86952581Y-103578250D01*
X86957797Y-103599074D01*
X86960947Y-103620309D01*
X86962000Y-103641750D01*
X86962000Y-104079250D01*
X86960947Y-104100691D01*
X86957797Y-104121926D01*
X86952581Y-104142750D01*
X86945349Y-104162962D01*
X86936170Y-104182368D01*
X86925134Y-104200781D01*
X86912346Y-104218024D01*
X86897930Y-104233930D01*
X86882024Y-104248346D01*
X86864781Y-104261134D01*
X86846368Y-104272170D01*
X86826962Y-104281349D01*
X86806750Y-104288581D01*
X86785926Y-104293797D01*
X86764691Y-104296947D01*
X86743250Y-104298000D01*
X86230750Y-104298000D01*
X86209309Y-104296947D01*
X86188074Y-104293797D01*
X86167250Y-104288581D01*
X86147038Y-104281349D01*
X86127632Y-104272170D01*
X86109219Y-104261134D01*
X86091976Y-104248346D01*
X86076070Y-104233930D01*
X86061654Y-104218024D01*
X86048866Y-104200781D01*
X86037830Y-104182368D01*
X86028651Y-104162962D01*
X86021419Y-104142750D01*
X86016203Y-104121926D01*
X86013053Y-104100691D01*
X86012000Y-104079250D01*
X86012000Y-103641750D01*
X86013053Y-103620309D01*
X86016203Y-103599074D01*
X86021419Y-103578250D01*
X86028651Y-103558038D01*
X86037830Y-103538632D01*
X86048866Y-103520219D01*
X86061654Y-103502976D01*
X86076070Y-103487070D01*
X86091976Y-103472654D01*
X86109219Y-103459866D01*
X86127632Y-103448830D01*
X86147038Y-103439651D01*
X86167250Y-103432419D01*
X86188074Y-103427203D01*
X86209309Y-103424053D01*
X86230750Y-103423000D01*
X86743250Y-103423000D01*
X86764691Y-103424053D01*
X86764691Y-103424053D01*
G37*
D12*
X86487000Y-103860500D03*
D11*
G36*
X86764691Y-104999053D02*
X86785926Y-105002203D01*
X86806750Y-105007419D01*
X86826962Y-105014651D01*
X86846368Y-105023830D01*
X86864781Y-105034866D01*
X86882024Y-105047654D01*
X86897930Y-105062070D01*
X86912346Y-105077976D01*
X86925134Y-105095219D01*
X86936170Y-105113632D01*
X86945349Y-105133038D01*
X86952581Y-105153250D01*
X86957797Y-105174074D01*
X86960947Y-105195309D01*
X86962000Y-105216750D01*
X86962000Y-105654250D01*
X86960947Y-105675691D01*
X86957797Y-105696926D01*
X86952581Y-105717750D01*
X86945349Y-105737962D01*
X86936170Y-105757368D01*
X86925134Y-105775781D01*
X86912346Y-105793024D01*
X86897930Y-105808930D01*
X86882024Y-105823346D01*
X86864781Y-105836134D01*
X86846368Y-105847170D01*
X86826962Y-105856349D01*
X86806750Y-105863581D01*
X86785926Y-105868797D01*
X86764691Y-105871947D01*
X86743250Y-105873000D01*
X86230750Y-105873000D01*
X86209309Y-105871947D01*
X86188074Y-105868797D01*
X86167250Y-105863581D01*
X86147038Y-105856349D01*
X86127632Y-105847170D01*
X86109219Y-105836134D01*
X86091976Y-105823346D01*
X86076070Y-105808930D01*
X86061654Y-105793024D01*
X86048866Y-105775781D01*
X86037830Y-105757368D01*
X86028651Y-105737962D01*
X86021419Y-105717750D01*
X86016203Y-105696926D01*
X86013053Y-105675691D01*
X86012000Y-105654250D01*
X86012000Y-105216750D01*
X86013053Y-105195309D01*
X86016203Y-105174074D01*
X86021419Y-105153250D01*
X86028651Y-105133038D01*
X86037830Y-105113632D01*
X86048866Y-105095219D01*
X86061654Y-105077976D01*
X86076070Y-105062070D01*
X86091976Y-105047654D01*
X86109219Y-105034866D01*
X86127632Y-105023830D01*
X86147038Y-105014651D01*
X86167250Y-105007419D01*
X86188074Y-105002203D01*
X86209309Y-104999053D01*
X86230750Y-104998000D01*
X86743250Y-104998000D01*
X86764691Y-104999053D01*
X86764691Y-104999053D01*
G37*
D12*
X86487000Y-105435500D03*
G04 #@! TD*
D11*
G04 #@! TO.C,R4*
G36*
X150645691Y-105253053D02*
X150666926Y-105256203D01*
X150687750Y-105261419D01*
X150707962Y-105268651D01*
X150727368Y-105277830D01*
X150745781Y-105288866D01*
X150763024Y-105301654D01*
X150778930Y-105316070D01*
X150793346Y-105331976D01*
X150806134Y-105349219D01*
X150817170Y-105367632D01*
X150826349Y-105387038D01*
X150833581Y-105407250D01*
X150838797Y-105428074D01*
X150841947Y-105449309D01*
X150843000Y-105470750D01*
X150843000Y-105908250D01*
X150841947Y-105929691D01*
X150838797Y-105950926D01*
X150833581Y-105971750D01*
X150826349Y-105991962D01*
X150817170Y-106011368D01*
X150806134Y-106029781D01*
X150793346Y-106047024D01*
X150778930Y-106062930D01*
X150763024Y-106077346D01*
X150745781Y-106090134D01*
X150727368Y-106101170D01*
X150707962Y-106110349D01*
X150687750Y-106117581D01*
X150666926Y-106122797D01*
X150645691Y-106125947D01*
X150624250Y-106127000D01*
X150111750Y-106127000D01*
X150090309Y-106125947D01*
X150069074Y-106122797D01*
X150048250Y-106117581D01*
X150028038Y-106110349D01*
X150008632Y-106101170D01*
X149990219Y-106090134D01*
X149972976Y-106077346D01*
X149957070Y-106062930D01*
X149942654Y-106047024D01*
X149929866Y-106029781D01*
X149918830Y-106011368D01*
X149909651Y-105991962D01*
X149902419Y-105971750D01*
X149897203Y-105950926D01*
X149894053Y-105929691D01*
X149893000Y-105908250D01*
X149893000Y-105470750D01*
X149894053Y-105449309D01*
X149897203Y-105428074D01*
X149902419Y-105407250D01*
X149909651Y-105387038D01*
X149918830Y-105367632D01*
X149929866Y-105349219D01*
X149942654Y-105331976D01*
X149957070Y-105316070D01*
X149972976Y-105301654D01*
X149990219Y-105288866D01*
X150008632Y-105277830D01*
X150028038Y-105268651D01*
X150048250Y-105261419D01*
X150069074Y-105256203D01*
X150090309Y-105253053D01*
X150111750Y-105252000D01*
X150624250Y-105252000D01*
X150645691Y-105253053D01*
X150645691Y-105253053D01*
G37*
D12*
X150368000Y-105689500D03*
D11*
G36*
X150645691Y-103678053D02*
X150666926Y-103681203D01*
X150687750Y-103686419D01*
X150707962Y-103693651D01*
X150727368Y-103702830D01*
X150745781Y-103713866D01*
X150763024Y-103726654D01*
X150778930Y-103741070D01*
X150793346Y-103756976D01*
X150806134Y-103774219D01*
X150817170Y-103792632D01*
X150826349Y-103812038D01*
X150833581Y-103832250D01*
X150838797Y-103853074D01*
X150841947Y-103874309D01*
X150843000Y-103895750D01*
X150843000Y-104333250D01*
X150841947Y-104354691D01*
X150838797Y-104375926D01*
X150833581Y-104396750D01*
X150826349Y-104416962D01*
X150817170Y-104436368D01*
X150806134Y-104454781D01*
X150793346Y-104472024D01*
X150778930Y-104487930D01*
X150763024Y-104502346D01*
X150745781Y-104515134D01*
X150727368Y-104526170D01*
X150707962Y-104535349D01*
X150687750Y-104542581D01*
X150666926Y-104547797D01*
X150645691Y-104550947D01*
X150624250Y-104552000D01*
X150111750Y-104552000D01*
X150090309Y-104550947D01*
X150069074Y-104547797D01*
X150048250Y-104542581D01*
X150028038Y-104535349D01*
X150008632Y-104526170D01*
X149990219Y-104515134D01*
X149972976Y-104502346D01*
X149957070Y-104487930D01*
X149942654Y-104472024D01*
X149929866Y-104454781D01*
X149918830Y-104436368D01*
X149909651Y-104416962D01*
X149902419Y-104396750D01*
X149897203Y-104375926D01*
X149894053Y-104354691D01*
X149893000Y-104333250D01*
X149893000Y-103895750D01*
X149894053Y-103874309D01*
X149897203Y-103853074D01*
X149902419Y-103832250D01*
X149909651Y-103812038D01*
X149918830Y-103792632D01*
X149929866Y-103774219D01*
X149942654Y-103756976D01*
X149957070Y-103741070D01*
X149972976Y-103726654D01*
X149990219Y-103713866D01*
X150008632Y-103702830D01*
X150028038Y-103693651D01*
X150048250Y-103686419D01*
X150069074Y-103681203D01*
X150090309Y-103678053D01*
X150111750Y-103677000D01*
X150624250Y-103677000D01*
X150645691Y-103678053D01*
X150645691Y-103678053D01*
G37*
D12*
X150368000Y-104114500D03*
G04 #@! TD*
D11*
G04 #@! TO.C,R5*
G36*
X162075691Y-79040053D02*
X162096926Y-79043203D01*
X162117750Y-79048419D01*
X162137962Y-79055651D01*
X162157368Y-79064830D01*
X162175781Y-79075866D01*
X162193024Y-79088654D01*
X162208930Y-79103070D01*
X162223346Y-79118976D01*
X162236134Y-79136219D01*
X162247170Y-79154632D01*
X162256349Y-79174038D01*
X162263581Y-79194250D01*
X162268797Y-79215074D01*
X162271947Y-79236309D01*
X162273000Y-79257750D01*
X162273000Y-79695250D01*
X162271947Y-79716691D01*
X162268797Y-79737926D01*
X162263581Y-79758750D01*
X162256349Y-79778962D01*
X162247170Y-79798368D01*
X162236134Y-79816781D01*
X162223346Y-79834024D01*
X162208930Y-79849930D01*
X162193024Y-79864346D01*
X162175781Y-79877134D01*
X162157368Y-79888170D01*
X162137962Y-79897349D01*
X162117750Y-79904581D01*
X162096926Y-79909797D01*
X162075691Y-79912947D01*
X162054250Y-79914000D01*
X161541750Y-79914000D01*
X161520309Y-79912947D01*
X161499074Y-79909797D01*
X161478250Y-79904581D01*
X161458038Y-79897349D01*
X161438632Y-79888170D01*
X161420219Y-79877134D01*
X161402976Y-79864346D01*
X161387070Y-79849930D01*
X161372654Y-79834024D01*
X161359866Y-79816781D01*
X161348830Y-79798368D01*
X161339651Y-79778962D01*
X161332419Y-79758750D01*
X161327203Y-79737926D01*
X161324053Y-79716691D01*
X161323000Y-79695250D01*
X161323000Y-79257750D01*
X161324053Y-79236309D01*
X161327203Y-79215074D01*
X161332419Y-79194250D01*
X161339651Y-79174038D01*
X161348830Y-79154632D01*
X161359866Y-79136219D01*
X161372654Y-79118976D01*
X161387070Y-79103070D01*
X161402976Y-79088654D01*
X161420219Y-79075866D01*
X161438632Y-79064830D01*
X161458038Y-79055651D01*
X161478250Y-79048419D01*
X161499074Y-79043203D01*
X161520309Y-79040053D01*
X161541750Y-79039000D01*
X162054250Y-79039000D01*
X162075691Y-79040053D01*
X162075691Y-79040053D01*
G37*
D12*
X161798000Y-79476500D03*
D11*
G36*
X162075691Y-80615053D02*
X162096926Y-80618203D01*
X162117750Y-80623419D01*
X162137962Y-80630651D01*
X162157368Y-80639830D01*
X162175781Y-80650866D01*
X162193024Y-80663654D01*
X162208930Y-80678070D01*
X162223346Y-80693976D01*
X162236134Y-80711219D01*
X162247170Y-80729632D01*
X162256349Y-80749038D01*
X162263581Y-80769250D01*
X162268797Y-80790074D01*
X162271947Y-80811309D01*
X162273000Y-80832750D01*
X162273000Y-81270250D01*
X162271947Y-81291691D01*
X162268797Y-81312926D01*
X162263581Y-81333750D01*
X162256349Y-81353962D01*
X162247170Y-81373368D01*
X162236134Y-81391781D01*
X162223346Y-81409024D01*
X162208930Y-81424930D01*
X162193024Y-81439346D01*
X162175781Y-81452134D01*
X162157368Y-81463170D01*
X162137962Y-81472349D01*
X162117750Y-81479581D01*
X162096926Y-81484797D01*
X162075691Y-81487947D01*
X162054250Y-81489000D01*
X161541750Y-81489000D01*
X161520309Y-81487947D01*
X161499074Y-81484797D01*
X161478250Y-81479581D01*
X161458038Y-81472349D01*
X161438632Y-81463170D01*
X161420219Y-81452134D01*
X161402976Y-81439346D01*
X161387070Y-81424930D01*
X161372654Y-81409024D01*
X161359866Y-81391781D01*
X161348830Y-81373368D01*
X161339651Y-81353962D01*
X161332419Y-81333750D01*
X161327203Y-81312926D01*
X161324053Y-81291691D01*
X161323000Y-81270250D01*
X161323000Y-80832750D01*
X161324053Y-80811309D01*
X161327203Y-80790074D01*
X161332419Y-80769250D01*
X161339651Y-80749038D01*
X161348830Y-80729632D01*
X161359866Y-80711219D01*
X161372654Y-80693976D01*
X161387070Y-80678070D01*
X161402976Y-80663654D01*
X161420219Y-80650866D01*
X161438632Y-80639830D01*
X161458038Y-80630651D01*
X161478250Y-80623419D01*
X161499074Y-80618203D01*
X161520309Y-80615053D01*
X161541750Y-80614000D01*
X162054250Y-80614000D01*
X162075691Y-80615053D01*
X162075691Y-80615053D01*
G37*
D12*
X161798000Y-81051500D03*
G04 #@! TD*
D11*
G04 #@! TO.C,R7*
G36*
X136540128Y-72149307D02*
X136561363Y-72152457D01*
X136582187Y-72157673D01*
X136602399Y-72164905D01*
X136621805Y-72174084D01*
X136640218Y-72185120D01*
X136657461Y-72197908D01*
X136673367Y-72212324D01*
X136687783Y-72228230D01*
X136700571Y-72245473D01*
X136711607Y-72263886D01*
X136720786Y-72283292D01*
X136728018Y-72303504D01*
X136733234Y-72324328D01*
X136736384Y-72345563D01*
X136737437Y-72367004D01*
X136737437Y-72879504D01*
X136736384Y-72900945D01*
X136733234Y-72922180D01*
X136728018Y-72943004D01*
X136720786Y-72963216D01*
X136711607Y-72982622D01*
X136700571Y-73001035D01*
X136687783Y-73018278D01*
X136673367Y-73034184D01*
X136657461Y-73048600D01*
X136640218Y-73061388D01*
X136621805Y-73072424D01*
X136602399Y-73081603D01*
X136582187Y-73088835D01*
X136561363Y-73094051D01*
X136540128Y-73097201D01*
X136518687Y-73098254D01*
X136081187Y-73098254D01*
X136059746Y-73097201D01*
X136038511Y-73094051D01*
X136017687Y-73088835D01*
X135997475Y-73081603D01*
X135978069Y-73072424D01*
X135959656Y-73061388D01*
X135942413Y-73048600D01*
X135926507Y-73034184D01*
X135912091Y-73018278D01*
X135899303Y-73001035D01*
X135888267Y-72982622D01*
X135879088Y-72963216D01*
X135871856Y-72943004D01*
X135866640Y-72922180D01*
X135863490Y-72900945D01*
X135862437Y-72879504D01*
X135862437Y-72367004D01*
X135863490Y-72345563D01*
X135866640Y-72324328D01*
X135871856Y-72303504D01*
X135879088Y-72283292D01*
X135888267Y-72263886D01*
X135899303Y-72245473D01*
X135912091Y-72228230D01*
X135926507Y-72212324D01*
X135942413Y-72197908D01*
X135959656Y-72185120D01*
X135978069Y-72174084D01*
X135997475Y-72164905D01*
X136017687Y-72157673D01*
X136038511Y-72152457D01*
X136059746Y-72149307D01*
X136081187Y-72148254D01*
X136518687Y-72148254D01*
X136540128Y-72149307D01*
X136540128Y-72149307D01*
G37*
D12*
X136299937Y-72623254D03*
D11*
G36*
X138115128Y-72149307D02*
X138136363Y-72152457D01*
X138157187Y-72157673D01*
X138177399Y-72164905D01*
X138196805Y-72174084D01*
X138215218Y-72185120D01*
X138232461Y-72197908D01*
X138248367Y-72212324D01*
X138262783Y-72228230D01*
X138275571Y-72245473D01*
X138286607Y-72263886D01*
X138295786Y-72283292D01*
X138303018Y-72303504D01*
X138308234Y-72324328D01*
X138311384Y-72345563D01*
X138312437Y-72367004D01*
X138312437Y-72879504D01*
X138311384Y-72900945D01*
X138308234Y-72922180D01*
X138303018Y-72943004D01*
X138295786Y-72963216D01*
X138286607Y-72982622D01*
X138275571Y-73001035D01*
X138262783Y-73018278D01*
X138248367Y-73034184D01*
X138232461Y-73048600D01*
X138215218Y-73061388D01*
X138196805Y-73072424D01*
X138177399Y-73081603D01*
X138157187Y-73088835D01*
X138136363Y-73094051D01*
X138115128Y-73097201D01*
X138093687Y-73098254D01*
X137656187Y-73098254D01*
X137634746Y-73097201D01*
X137613511Y-73094051D01*
X137592687Y-73088835D01*
X137572475Y-73081603D01*
X137553069Y-73072424D01*
X137534656Y-73061388D01*
X137517413Y-73048600D01*
X137501507Y-73034184D01*
X137487091Y-73018278D01*
X137474303Y-73001035D01*
X137463267Y-72982622D01*
X137454088Y-72963216D01*
X137446856Y-72943004D01*
X137441640Y-72922180D01*
X137438490Y-72900945D01*
X137437437Y-72879504D01*
X137437437Y-72367004D01*
X137438490Y-72345563D01*
X137441640Y-72324328D01*
X137446856Y-72303504D01*
X137454088Y-72283292D01*
X137463267Y-72263886D01*
X137474303Y-72245473D01*
X137487091Y-72228230D01*
X137501507Y-72212324D01*
X137517413Y-72197908D01*
X137534656Y-72185120D01*
X137553069Y-72174084D01*
X137572475Y-72164905D01*
X137592687Y-72157673D01*
X137613511Y-72152457D01*
X137634746Y-72149307D01*
X137656187Y-72148254D01*
X138093687Y-72148254D01*
X138115128Y-72149307D01*
X138115128Y-72149307D01*
G37*
D12*
X137874937Y-72623254D03*
G04 #@! TD*
D11*
G04 #@! TO.C,R9*
G36*
X133543170Y-69132263D02*
X133564405Y-69135413D01*
X133585229Y-69140629D01*
X133605441Y-69147861D01*
X133624847Y-69157040D01*
X133643260Y-69168076D01*
X133660503Y-69180864D01*
X133676409Y-69195280D01*
X133690825Y-69211186D01*
X133703613Y-69228429D01*
X133714649Y-69246842D01*
X133723828Y-69266248D01*
X133731060Y-69286460D01*
X133736276Y-69307284D01*
X133739426Y-69328519D01*
X133740479Y-69349960D01*
X133740479Y-69787460D01*
X133739426Y-69808901D01*
X133736276Y-69830136D01*
X133731060Y-69850960D01*
X133723828Y-69871172D01*
X133714649Y-69890578D01*
X133703613Y-69908991D01*
X133690825Y-69926234D01*
X133676409Y-69942140D01*
X133660503Y-69956556D01*
X133643260Y-69969344D01*
X133624847Y-69980380D01*
X133605441Y-69989559D01*
X133585229Y-69996791D01*
X133564405Y-70002007D01*
X133543170Y-70005157D01*
X133521729Y-70006210D01*
X133009229Y-70006210D01*
X132987788Y-70005157D01*
X132966553Y-70002007D01*
X132945729Y-69996791D01*
X132925517Y-69989559D01*
X132906111Y-69980380D01*
X132887698Y-69969344D01*
X132870455Y-69956556D01*
X132854549Y-69942140D01*
X132840133Y-69926234D01*
X132827345Y-69908991D01*
X132816309Y-69890578D01*
X132807130Y-69871172D01*
X132799898Y-69850960D01*
X132794682Y-69830136D01*
X132791532Y-69808901D01*
X132790479Y-69787460D01*
X132790479Y-69349960D01*
X132791532Y-69328519D01*
X132794682Y-69307284D01*
X132799898Y-69286460D01*
X132807130Y-69266248D01*
X132816309Y-69246842D01*
X132827345Y-69228429D01*
X132840133Y-69211186D01*
X132854549Y-69195280D01*
X132870455Y-69180864D01*
X132887698Y-69168076D01*
X132906111Y-69157040D01*
X132925517Y-69147861D01*
X132945729Y-69140629D01*
X132966553Y-69135413D01*
X132987788Y-69132263D01*
X133009229Y-69131210D01*
X133521729Y-69131210D01*
X133543170Y-69132263D01*
X133543170Y-69132263D01*
G37*
D12*
X133265479Y-69568710D03*
D11*
G36*
X133543170Y-70707263D02*
X133564405Y-70710413D01*
X133585229Y-70715629D01*
X133605441Y-70722861D01*
X133624847Y-70732040D01*
X133643260Y-70743076D01*
X133660503Y-70755864D01*
X133676409Y-70770280D01*
X133690825Y-70786186D01*
X133703613Y-70803429D01*
X133714649Y-70821842D01*
X133723828Y-70841248D01*
X133731060Y-70861460D01*
X133736276Y-70882284D01*
X133739426Y-70903519D01*
X133740479Y-70924960D01*
X133740479Y-71362460D01*
X133739426Y-71383901D01*
X133736276Y-71405136D01*
X133731060Y-71425960D01*
X133723828Y-71446172D01*
X133714649Y-71465578D01*
X133703613Y-71483991D01*
X133690825Y-71501234D01*
X133676409Y-71517140D01*
X133660503Y-71531556D01*
X133643260Y-71544344D01*
X133624847Y-71555380D01*
X133605441Y-71564559D01*
X133585229Y-71571791D01*
X133564405Y-71577007D01*
X133543170Y-71580157D01*
X133521729Y-71581210D01*
X133009229Y-71581210D01*
X132987788Y-71580157D01*
X132966553Y-71577007D01*
X132945729Y-71571791D01*
X132925517Y-71564559D01*
X132906111Y-71555380D01*
X132887698Y-71544344D01*
X132870455Y-71531556D01*
X132854549Y-71517140D01*
X132840133Y-71501234D01*
X132827345Y-71483991D01*
X132816309Y-71465578D01*
X132807130Y-71446172D01*
X132799898Y-71425960D01*
X132794682Y-71405136D01*
X132791532Y-71383901D01*
X132790479Y-71362460D01*
X132790479Y-70924960D01*
X132791532Y-70903519D01*
X132794682Y-70882284D01*
X132799898Y-70861460D01*
X132807130Y-70841248D01*
X132816309Y-70821842D01*
X132827345Y-70803429D01*
X132840133Y-70786186D01*
X132854549Y-70770280D01*
X132870455Y-70755864D01*
X132887698Y-70743076D01*
X132906111Y-70732040D01*
X132925517Y-70722861D01*
X132945729Y-70715629D01*
X132966553Y-70710413D01*
X132987788Y-70707263D01*
X133009229Y-70706210D01*
X133521729Y-70706210D01*
X133543170Y-70707263D01*
X133543170Y-70707263D01*
G37*
D12*
X133265479Y-71143710D03*
G04 #@! TD*
D11*
G04 #@! TO.C,R11*
G36*
X137945691Y-62073053D02*
X137966926Y-62076203D01*
X137987750Y-62081419D01*
X138007962Y-62088651D01*
X138027368Y-62097830D01*
X138045781Y-62108866D01*
X138063024Y-62121654D01*
X138078930Y-62136070D01*
X138093346Y-62151976D01*
X138106134Y-62169219D01*
X138117170Y-62187632D01*
X138126349Y-62207038D01*
X138133581Y-62227250D01*
X138138797Y-62248074D01*
X138141947Y-62269309D01*
X138143000Y-62290750D01*
X138143000Y-62728250D01*
X138141947Y-62749691D01*
X138138797Y-62770926D01*
X138133581Y-62791750D01*
X138126349Y-62811962D01*
X138117170Y-62831368D01*
X138106134Y-62849781D01*
X138093346Y-62867024D01*
X138078930Y-62882930D01*
X138063024Y-62897346D01*
X138045781Y-62910134D01*
X138027368Y-62921170D01*
X138007962Y-62930349D01*
X137987750Y-62937581D01*
X137966926Y-62942797D01*
X137945691Y-62945947D01*
X137924250Y-62947000D01*
X137411750Y-62947000D01*
X137390309Y-62945947D01*
X137369074Y-62942797D01*
X137348250Y-62937581D01*
X137328038Y-62930349D01*
X137308632Y-62921170D01*
X137290219Y-62910134D01*
X137272976Y-62897346D01*
X137257070Y-62882930D01*
X137242654Y-62867024D01*
X137229866Y-62849781D01*
X137218830Y-62831368D01*
X137209651Y-62811962D01*
X137202419Y-62791750D01*
X137197203Y-62770926D01*
X137194053Y-62749691D01*
X137193000Y-62728250D01*
X137193000Y-62290750D01*
X137194053Y-62269309D01*
X137197203Y-62248074D01*
X137202419Y-62227250D01*
X137209651Y-62207038D01*
X137218830Y-62187632D01*
X137229866Y-62169219D01*
X137242654Y-62151976D01*
X137257070Y-62136070D01*
X137272976Y-62121654D01*
X137290219Y-62108866D01*
X137308632Y-62097830D01*
X137328038Y-62088651D01*
X137348250Y-62081419D01*
X137369074Y-62076203D01*
X137390309Y-62073053D01*
X137411750Y-62072000D01*
X137924250Y-62072000D01*
X137945691Y-62073053D01*
X137945691Y-62073053D01*
G37*
D12*
X137668000Y-62509500D03*
D11*
G36*
X137945691Y-60498053D02*
X137966926Y-60501203D01*
X137987750Y-60506419D01*
X138007962Y-60513651D01*
X138027368Y-60522830D01*
X138045781Y-60533866D01*
X138063024Y-60546654D01*
X138078930Y-60561070D01*
X138093346Y-60576976D01*
X138106134Y-60594219D01*
X138117170Y-60612632D01*
X138126349Y-60632038D01*
X138133581Y-60652250D01*
X138138797Y-60673074D01*
X138141947Y-60694309D01*
X138143000Y-60715750D01*
X138143000Y-61153250D01*
X138141947Y-61174691D01*
X138138797Y-61195926D01*
X138133581Y-61216750D01*
X138126349Y-61236962D01*
X138117170Y-61256368D01*
X138106134Y-61274781D01*
X138093346Y-61292024D01*
X138078930Y-61307930D01*
X138063024Y-61322346D01*
X138045781Y-61335134D01*
X138027368Y-61346170D01*
X138007962Y-61355349D01*
X137987750Y-61362581D01*
X137966926Y-61367797D01*
X137945691Y-61370947D01*
X137924250Y-61372000D01*
X137411750Y-61372000D01*
X137390309Y-61370947D01*
X137369074Y-61367797D01*
X137348250Y-61362581D01*
X137328038Y-61355349D01*
X137308632Y-61346170D01*
X137290219Y-61335134D01*
X137272976Y-61322346D01*
X137257070Y-61307930D01*
X137242654Y-61292024D01*
X137229866Y-61274781D01*
X137218830Y-61256368D01*
X137209651Y-61236962D01*
X137202419Y-61216750D01*
X137197203Y-61195926D01*
X137194053Y-61174691D01*
X137193000Y-61153250D01*
X137193000Y-60715750D01*
X137194053Y-60694309D01*
X137197203Y-60673074D01*
X137202419Y-60652250D01*
X137209651Y-60632038D01*
X137218830Y-60612632D01*
X137229866Y-60594219D01*
X137242654Y-60576976D01*
X137257070Y-60561070D01*
X137272976Y-60546654D01*
X137290219Y-60533866D01*
X137308632Y-60522830D01*
X137328038Y-60513651D01*
X137348250Y-60506419D01*
X137369074Y-60501203D01*
X137390309Y-60498053D01*
X137411750Y-60497000D01*
X137924250Y-60497000D01*
X137945691Y-60498053D01*
X137945691Y-60498053D01*
G37*
D12*
X137668000Y-60934500D03*
G04 #@! TD*
D11*
G04 #@! TO.C,R12*
G36*
X137691691Y-65324053D02*
X137712926Y-65327203D01*
X137733750Y-65332419D01*
X137753962Y-65339651D01*
X137773368Y-65348830D01*
X137791781Y-65359866D01*
X137809024Y-65372654D01*
X137824930Y-65387070D01*
X137839346Y-65402976D01*
X137852134Y-65420219D01*
X137863170Y-65438632D01*
X137872349Y-65458038D01*
X137879581Y-65478250D01*
X137884797Y-65499074D01*
X137887947Y-65520309D01*
X137889000Y-65541750D01*
X137889000Y-65979250D01*
X137887947Y-66000691D01*
X137884797Y-66021926D01*
X137879581Y-66042750D01*
X137872349Y-66062962D01*
X137863170Y-66082368D01*
X137852134Y-66100781D01*
X137839346Y-66118024D01*
X137824930Y-66133930D01*
X137809024Y-66148346D01*
X137791781Y-66161134D01*
X137773368Y-66172170D01*
X137753962Y-66181349D01*
X137733750Y-66188581D01*
X137712926Y-66193797D01*
X137691691Y-66196947D01*
X137670250Y-66198000D01*
X137157750Y-66198000D01*
X137136309Y-66196947D01*
X137115074Y-66193797D01*
X137094250Y-66188581D01*
X137074038Y-66181349D01*
X137054632Y-66172170D01*
X137036219Y-66161134D01*
X137018976Y-66148346D01*
X137003070Y-66133930D01*
X136988654Y-66118024D01*
X136975866Y-66100781D01*
X136964830Y-66082368D01*
X136955651Y-66062962D01*
X136948419Y-66042750D01*
X136943203Y-66021926D01*
X136940053Y-66000691D01*
X136939000Y-65979250D01*
X136939000Y-65541750D01*
X136940053Y-65520309D01*
X136943203Y-65499074D01*
X136948419Y-65478250D01*
X136955651Y-65458038D01*
X136964830Y-65438632D01*
X136975866Y-65420219D01*
X136988654Y-65402976D01*
X137003070Y-65387070D01*
X137018976Y-65372654D01*
X137036219Y-65359866D01*
X137054632Y-65348830D01*
X137074038Y-65339651D01*
X137094250Y-65332419D01*
X137115074Y-65327203D01*
X137136309Y-65324053D01*
X137157750Y-65323000D01*
X137670250Y-65323000D01*
X137691691Y-65324053D01*
X137691691Y-65324053D01*
G37*
D12*
X137414000Y-65760500D03*
D11*
G36*
X137691691Y-66899053D02*
X137712926Y-66902203D01*
X137733750Y-66907419D01*
X137753962Y-66914651D01*
X137773368Y-66923830D01*
X137791781Y-66934866D01*
X137809024Y-66947654D01*
X137824930Y-66962070D01*
X137839346Y-66977976D01*
X137852134Y-66995219D01*
X137863170Y-67013632D01*
X137872349Y-67033038D01*
X137879581Y-67053250D01*
X137884797Y-67074074D01*
X137887947Y-67095309D01*
X137889000Y-67116750D01*
X137889000Y-67554250D01*
X137887947Y-67575691D01*
X137884797Y-67596926D01*
X137879581Y-67617750D01*
X137872349Y-67637962D01*
X137863170Y-67657368D01*
X137852134Y-67675781D01*
X137839346Y-67693024D01*
X137824930Y-67708930D01*
X137809024Y-67723346D01*
X137791781Y-67736134D01*
X137773368Y-67747170D01*
X137753962Y-67756349D01*
X137733750Y-67763581D01*
X137712926Y-67768797D01*
X137691691Y-67771947D01*
X137670250Y-67773000D01*
X137157750Y-67773000D01*
X137136309Y-67771947D01*
X137115074Y-67768797D01*
X137094250Y-67763581D01*
X137074038Y-67756349D01*
X137054632Y-67747170D01*
X137036219Y-67736134D01*
X137018976Y-67723346D01*
X137003070Y-67708930D01*
X136988654Y-67693024D01*
X136975866Y-67675781D01*
X136964830Y-67657368D01*
X136955651Y-67637962D01*
X136948419Y-67617750D01*
X136943203Y-67596926D01*
X136940053Y-67575691D01*
X136939000Y-67554250D01*
X136939000Y-67116750D01*
X136940053Y-67095309D01*
X136943203Y-67074074D01*
X136948419Y-67053250D01*
X136955651Y-67033038D01*
X136964830Y-67013632D01*
X136975866Y-66995219D01*
X136988654Y-66977976D01*
X137003070Y-66962070D01*
X137018976Y-66947654D01*
X137036219Y-66934866D01*
X137054632Y-66923830D01*
X137074038Y-66914651D01*
X137094250Y-66907419D01*
X137115074Y-66902203D01*
X137136309Y-66899053D01*
X137157750Y-66898000D01*
X137670250Y-66898000D01*
X137691691Y-66899053D01*
X137691691Y-66899053D01*
G37*
D12*
X137414000Y-67335500D03*
G04 #@! TD*
D11*
G04 #@! TO.C,R13*
G36*
X118514691Y-61006053D02*
X118535926Y-61009203D01*
X118556750Y-61014419D01*
X118576962Y-61021651D01*
X118596368Y-61030830D01*
X118614781Y-61041866D01*
X118632024Y-61054654D01*
X118647930Y-61069070D01*
X118662346Y-61084976D01*
X118675134Y-61102219D01*
X118686170Y-61120632D01*
X118695349Y-61140038D01*
X118702581Y-61160250D01*
X118707797Y-61181074D01*
X118710947Y-61202309D01*
X118712000Y-61223750D01*
X118712000Y-61661250D01*
X118710947Y-61682691D01*
X118707797Y-61703926D01*
X118702581Y-61724750D01*
X118695349Y-61744962D01*
X118686170Y-61764368D01*
X118675134Y-61782781D01*
X118662346Y-61800024D01*
X118647930Y-61815930D01*
X118632024Y-61830346D01*
X118614781Y-61843134D01*
X118596368Y-61854170D01*
X118576962Y-61863349D01*
X118556750Y-61870581D01*
X118535926Y-61875797D01*
X118514691Y-61878947D01*
X118493250Y-61880000D01*
X117980750Y-61880000D01*
X117959309Y-61878947D01*
X117938074Y-61875797D01*
X117917250Y-61870581D01*
X117897038Y-61863349D01*
X117877632Y-61854170D01*
X117859219Y-61843134D01*
X117841976Y-61830346D01*
X117826070Y-61815930D01*
X117811654Y-61800024D01*
X117798866Y-61782781D01*
X117787830Y-61764368D01*
X117778651Y-61744962D01*
X117771419Y-61724750D01*
X117766203Y-61703926D01*
X117763053Y-61682691D01*
X117762000Y-61661250D01*
X117762000Y-61223750D01*
X117763053Y-61202309D01*
X117766203Y-61181074D01*
X117771419Y-61160250D01*
X117778651Y-61140038D01*
X117787830Y-61120632D01*
X117798866Y-61102219D01*
X117811654Y-61084976D01*
X117826070Y-61069070D01*
X117841976Y-61054654D01*
X117859219Y-61041866D01*
X117877632Y-61030830D01*
X117897038Y-61021651D01*
X117917250Y-61014419D01*
X117938074Y-61009203D01*
X117959309Y-61006053D01*
X117980750Y-61005000D01*
X118493250Y-61005000D01*
X118514691Y-61006053D01*
X118514691Y-61006053D01*
G37*
D12*
X118237000Y-61442500D03*
D11*
G36*
X118514691Y-62581053D02*
X118535926Y-62584203D01*
X118556750Y-62589419D01*
X118576962Y-62596651D01*
X118596368Y-62605830D01*
X118614781Y-62616866D01*
X118632024Y-62629654D01*
X118647930Y-62644070D01*
X118662346Y-62659976D01*
X118675134Y-62677219D01*
X118686170Y-62695632D01*
X118695349Y-62715038D01*
X118702581Y-62735250D01*
X118707797Y-62756074D01*
X118710947Y-62777309D01*
X118712000Y-62798750D01*
X118712000Y-63236250D01*
X118710947Y-63257691D01*
X118707797Y-63278926D01*
X118702581Y-63299750D01*
X118695349Y-63319962D01*
X118686170Y-63339368D01*
X118675134Y-63357781D01*
X118662346Y-63375024D01*
X118647930Y-63390930D01*
X118632024Y-63405346D01*
X118614781Y-63418134D01*
X118596368Y-63429170D01*
X118576962Y-63438349D01*
X118556750Y-63445581D01*
X118535926Y-63450797D01*
X118514691Y-63453947D01*
X118493250Y-63455000D01*
X117980750Y-63455000D01*
X117959309Y-63453947D01*
X117938074Y-63450797D01*
X117917250Y-63445581D01*
X117897038Y-63438349D01*
X117877632Y-63429170D01*
X117859219Y-63418134D01*
X117841976Y-63405346D01*
X117826070Y-63390930D01*
X117811654Y-63375024D01*
X117798866Y-63357781D01*
X117787830Y-63339368D01*
X117778651Y-63319962D01*
X117771419Y-63299750D01*
X117766203Y-63278926D01*
X117763053Y-63257691D01*
X117762000Y-63236250D01*
X117762000Y-62798750D01*
X117763053Y-62777309D01*
X117766203Y-62756074D01*
X117771419Y-62735250D01*
X117778651Y-62715038D01*
X117787830Y-62695632D01*
X117798866Y-62677219D01*
X117811654Y-62659976D01*
X117826070Y-62644070D01*
X117841976Y-62629654D01*
X117859219Y-62616866D01*
X117877632Y-62605830D01*
X117897038Y-62596651D01*
X117917250Y-62589419D01*
X117938074Y-62584203D01*
X117959309Y-62581053D01*
X117980750Y-62580000D01*
X118493250Y-62580000D01*
X118514691Y-62581053D01*
X118514691Y-62581053D01*
G37*
D12*
X118237000Y-63017500D03*
G04 #@! TD*
D11*
G04 #@! TO.C,R14*
G36*
X115734191Y-71408053D02*
X115755426Y-71411203D01*
X115776250Y-71416419D01*
X115796462Y-71423651D01*
X115815868Y-71432830D01*
X115834281Y-71443866D01*
X115851524Y-71456654D01*
X115867430Y-71471070D01*
X115881846Y-71486976D01*
X115894634Y-71504219D01*
X115905670Y-71522632D01*
X115914849Y-71542038D01*
X115922081Y-71562250D01*
X115927297Y-71583074D01*
X115930447Y-71604309D01*
X115931500Y-71625750D01*
X115931500Y-72138250D01*
X115930447Y-72159691D01*
X115927297Y-72180926D01*
X115922081Y-72201750D01*
X115914849Y-72221962D01*
X115905670Y-72241368D01*
X115894634Y-72259781D01*
X115881846Y-72277024D01*
X115867430Y-72292930D01*
X115851524Y-72307346D01*
X115834281Y-72320134D01*
X115815868Y-72331170D01*
X115796462Y-72340349D01*
X115776250Y-72347581D01*
X115755426Y-72352797D01*
X115734191Y-72355947D01*
X115712750Y-72357000D01*
X115275250Y-72357000D01*
X115253809Y-72355947D01*
X115232574Y-72352797D01*
X115211750Y-72347581D01*
X115191538Y-72340349D01*
X115172132Y-72331170D01*
X115153719Y-72320134D01*
X115136476Y-72307346D01*
X115120570Y-72292930D01*
X115106154Y-72277024D01*
X115093366Y-72259781D01*
X115082330Y-72241368D01*
X115073151Y-72221962D01*
X115065919Y-72201750D01*
X115060703Y-72180926D01*
X115057553Y-72159691D01*
X115056500Y-72138250D01*
X115056500Y-71625750D01*
X115057553Y-71604309D01*
X115060703Y-71583074D01*
X115065919Y-71562250D01*
X115073151Y-71542038D01*
X115082330Y-71522632D01*
X115093366Y-71504219D01*
X115106154Y-71486976D01*
X115120570Y-71471070D01*
X115136476Y-71456654D01*
X115153719Y-71443866D01*
X115172132Y-71432830D01*
X115191538Y-71423651D01*
X115211750Y-71416419D01*
X115232574Y-71411203D01*
X115253809Y-71408053D01*
X115275250Y-71407000D01*
X115712750Y-71407000D01*
X115734191Y-71408053D01*
X115734191Y-71408053D01*
G37*
D12*
X115494000Y-71882000D03*
D11*
G36*
X114159191Y-71408053D02*
X114180426Y-71411203D01*
X114201250Y-71416419D01*
X114221462Y-71423651D01*
X114240868Y-71432830D01*
X114259281Y-71443866D01*
X114276524Y-71456654D01*
X114292430Y-71471070D01*
X114306846Y-71486976D01*
X114319634Y-71504219D01*
X114330670Y-71522632D01*
X114339849Y-71542038D01*
X114347081Y-71562250D01*
X114352297Y-71583074D01*
X114355447Y-71604309D01*
X114356500Y-71625750D01*
X114356500Y-72138250D01*
X114355447Y-72159691D01*
X114352297Y-72180926D01*
X114347081Y-72201750D01*
X114339849Y-72221962D01*
X114330670Y-72241368D01*
X114319634Y-72259781D01*
X114306846Y-72277024D01*
X114292430Y-72292930D01*
X114276524Y-72307346D01*
X114259281Y-72320134D01*
X114240868Y-72331170D01*
X114221462Y-72340349D01*
X114201250Y-72347581D01*
X114180426Y-72352797D01*
X114159191Y-72355947D01*
X114137750Y-72357000D01*
X113700250Y-72357000D01*
X113678809Y-72355947D01*
X113657574Y-72352797D01*
X113636750Y-72347581D01*
X113616538Y-72340349D01*
X113597132Y-72331170D01*
X113578719Y-72320134D01*
X113561476Y-72307346D01*
X113545570Y-72292930D01*
X113531154Y-72277024D01*
X113518366Y-72259781D01*
X113507330Y-72241368D01*
X113498151Y-72221962D01*
X113490919Y-72201750D01*
X113485703Y-72180926D01*
X113482553Y-72159691D01*
X113481500Y-72138250D01*
X113481500Y-71625750D01*
X113482553Y-71604309D01*
X113485703Y-71583074D01*
X113490919Y-71562250D01*
X113498151Y-71542038D01*
X113507330Y-71522632D01*
X113518366Y-71504219D01*
X113531154Y-71486976D01*
X113545570Y-71471070D01*
X113561476Y-71456654D01*
X113578719Y-71443866D01*
X113597132Y-71432830D01*
X113616538Y-71423651D01*
X113636750Y-71416419D01*
X113657574Y-71411203D01*
X113678809Y-71408053D01*
X113700250Y-71407000D01*
X114137750Y-71407000D01*
X114159191Y-71408053D01*
X114159191Y-71408053D01*
G37*
D12*
X113919000Y-71882000D03*
G04 #@! TD*
D13*
G04 #@! TO.C,U2*
X90395000Y-69719000D03*
X90395000Y-70369000D03*
X90395000Y-71019000D03*
X90395000Y-71669000D03*
X90395000Y-72319000D03*
X90395000Y-72969000D03*
X90395000Y-73619000D03*
X90395000Y-74269000D03*
X90395000Y-74919000D03*
X90395000Y-75569000D03*
X96295000Y-75569000D03*
X96295000Y-74919000D03*
X96295000Y-74269000D03*
X96295000Y-73619000D03*
X96295000Y-72969000D03*
X96295000Y-72319000D03*
X96295000Y-71669000D03*
X96295000Y-71019000D03*
X96295000Y-70369000D03*
X96295000Y-69719000D03*
G04 #@! TD*
D11*
G04 #@! TO.C,R8*
G36*
X94892691Y-64918053D02*
X94913926Y-64921203D01*
X94934750Y-64926419D01*
X94954962Y-64933651D01*
X94974368Y-64942830D01*
X94992781Y-64953866D01*
X95010024Y-64966654D01*
X95025930Y-64981070D01*
X95040346Y-64996976D01*
X95053134Y-65014219D01*
X95064170Y-65032632D01*
X95073349Y-65052038D01*
X95080581Y-65072250D01*
X95085797Y-65093074D01*
X95088947Y-65114309D01*
X95090000Y-65135750D01*
X95090000Y-65573250D01*
X95088947Y-65594691D01*
X95085797Y-65615926D01*
X95080581Y-65636750D01*
X95073349Y-65656962D01*
X95064170Y-65676368D01*
X95053134Y-65694781D01*
X95040346Y-65712024D01*
X95025930Y-65727930D01*
X95010024Y-65742346D01*
X94992781Y-65755134D01*
X94974368Y-65766170D01*
X94954962Y-65775349D01*
X94934750Y-65782581D01*
X94913926Y-65787797D01*
X94892691Y-65790947D01*
X94871250Y-65792000D01*
X94358750Y-65792000D01*
X94337309Y-65790947D01*
X94316074Y-65787797D01*
X94295250Y-65782581D01*
X94275038Y-65775349D01*
X94255632Y-65766170D01*
X94237219Y-65755134D01*
X94219976Y-65742346D01*
X94204070Y-65727930D01*
X94189654Y-65712024D01*
X94176866Y-65694781D01*
X94165830Y-65676368D01*
X94156651Y-65656962D01*
X94149419Y-65636750D01*
X94144203Y-65615926D01*
X94141053Y-65594691D01*
X94140000Y-65573250D01*
X94140000Y-65135750D01*
X94141053Y-65114309D01*
X94144203Y-65093074D01*
X94149419Y-65072250D01*
X94156651Y-65052038D01*
X94165830Y-65032632D01*
X94176866Y-65014219D01*
X94189654Y-64996976D01*
X94204070Y-64981070D01*
X94219976Y-64966654D01*
X94237219Y-64953866D01*
X94255632Y-64942830D01*
X94275038Y-64933651D01*
X94295250Y-64926419D01*
X94316074Y-64921203D01*
X94337309Y-64918053D01*
X94358750Y-64917000D01*
X94871250Y-64917000D01*
X94892691Y-64918053D01*
X94892691Y-64918053D01*
G37*
D12*
X94615000Y-65354500D03*
D11*
G36*
X94892691Y-63343053D02*
X94913926Y-63346203D01*
X94934750Y-63351419D01*
X94954962Y-63358651D01*
X94974368Y-63367830D01*
X94992781Y-63378866D01*
X95010024Y-63391654D01*
X95025930Y-63406070D01*
X95040346Y-63421976D01*
X95053134Y-63439219D01*
X95064170Y-63457632D01*
X95073349Y-63477038D01*
X95080581Y-63497250D01*
X95085797Y-63518074D01*
X95088947Y-63539309D01*
X95090000Y-63560750D01*
X95090000Y-63998250D01*
X95088947Y-64019691D01*
X95085797Y-64040926D01*
X95080581Y-64061750D01*
X95073349Y-64081962D01*
X95064170Y-64101368D01*
X95053134Y-64119781D01*
X95040346Y-64137024D01*
X95025930Y-64152930D01*
X95010024Y-64167346D01*
X94992781Y-64180134D01*
X94974368Y-64191170D01*
X94954962Y-64200349D01*
X94934750Y-64207581D01*
X94913926Y-64212797D01*
X94892691Y-64215947D01*
X94871250Y-64217000D01*
X94358750Y-64217000D01*
X94337309Y-64215947D01*
X94316074Y-64212797D01*
X94295250Y-64207581D01*
X94275038Y-64200349D01*
X94255632Y-64191170D01*
X94237219Y-64180134D01*
X94219976Y-64167346D01*
X94204070Y-64152930D01*
X94189654Y-64137024D01*
X94176866Y-64119781D01*
X94165830Y-64101368D01*
X94156651Y-64081962D01*
X94149419Y-64061750D01*
X94144203Y-64040926D01*
X94141053Y-64019691D01*
X94140000Y-63998250D01*
X94140000Y-63560750D01*
X94141053Y-63539309D01*
X94144203Y-63518074D01*
X94149419Y-63497250D01*
X94156651Y-63477038D01*
X94165830Y-63457632D01*
X94176866Y-63439219D01*
X94189654Y-63421976D01*
X94204070Y-63406070D01*
X94219976Y-63391654D01*
X94237219Y-63378866D01*
X94255632Y-63367830D01*
X94275038Y-63358651D01*
X94295250Y-63351419D01*
X94316074Y-63346203D01*
X94337309Y-63343053D01*
X94358750Y-63342000D01*
X94871250Y-63342000D01*
X94892691Y-63343053D01*
X94892691Y-63343053D01*
G37*
D12*
X94615000Y-63779500D03*
G04 #@! TD*
D11*
G04 #@! TO.C,C8*
G36*
X125372691Y-104999053D02*
X125393926Y-105002203D01*
X125414750Y-105007419D01*
X125434962Y-105014651D01*
X125454368Y-105023830D01*
X125472781Y-105034866D01*
X125490024Y-105047654D01*
X125505930Y-105062070D01*
X125520346Y-105077976D01*
X125533134Y-105095219D01*
X125544170Y-105113632D01*
X125553349Y-105133038D01*
X125560581Y-105153250D01*
X125565797Y-105174074D01*
X125568947Y-105195309D01*
X125570000Y-105216750D01*
X125570000Y-105654250D01*
X125568947Y-105675691D01*
X125565797Y-105696926D01*
X125560581Y-105717750D01*
X125553349Y-105737962D01*
X125544170Y-105757368D01*
X125533134Y-105775781D01*
X125520346Y-105793024D01*
X125505930Y-105808930D01*
X125490024Y-105823346D01*
X125472781Y-105836134D01*
X125454368Y-105847170D01*
X125434962Y-105856349D01*
X125414750Y-105863581D01*
X125393926Y-105868797D01*
X125372691Y-105871947D01*
X125351250Y-105873000D01*
X124838750Y-105873000D01*
X124817309Y-105871947D01*
X124796074Y-105868797D01*
X124775250Y-105863581D01*
X124755038Y-105856349D01*
X124735632Y-105847170D01*
X124717219Y-105836134D01*
X124699976Y-105823346D01*
X124684070Y-105808930D01*
X124669654Y-105793024D01*
X124656866Y-105775781D01*
X124645830Y-105757368D01*
X124636651Y-105737962D01*
X124629419Y-105717750D01*
X124624203Y-105696926D01*
X124621053Y-105675691D01*
X124620000Y-105654250D01*
X124620000Y-105216750D01*
X124621053Y-105195309D01*
X124624203Y-105174074D01*
X124629419Y-105153250D01*
X124636651Y-105133038D01*
X124645830Y-105113632D01*
X124656866Y-105095219D01*
X124669654Y-105077976D01*
X124684070Y-105062070D01*
X124699976Y-105047654D01*
X124717219Y-105034866D01*
X124735632Y-105023830D01*
X124755038Y-105014651D01*
X124775250Y-105007419D01*
X124796074Y-105002203D01*
X124817309Y-104999053D01*
X124838750Y-104998000D01*
X125351250Y-104998000D01*
X125372691Y-104999053D01*
X125372691Y-104999053D01*
G37*
D12*
X125095000Y-105435500D03*
D11*
G36*
X125372691Y-103424053D02*
X125393926Y-103427203D01*
X125414750Y-103432419D01*
X125434962Y-103439651D01*
X125454368Y-103448830D01*
X125472781Y-103459866D01*
X125490024Y-103472654D01*
X125505930Y-103487070D01*
X125520346Y-103502976D01*
X125533134Y-103520219D01*
X125544170Y-103538632D01*
X125553349Y-103558038D01*
X125560581Y-103578250D01*
X125565797Y-103599074D01*
X125568947Y-103620309D01*
X125570000Y-103641750D01*
X125570000Y-104079250D01*
X125568947Y-104100691D01*
X125565797Y-104121926D01*
X125560581Y-104142750D01*
X125553349Y-104162962D01*
X125544170Y-104182368D01*
X125533134Y-104200781D01*
X125520346Y-104218024D01*
X125505930Y-104233930D01*
X125490024Y-104248346D01*
X125472781Y-104261134D01*
X125454368Y-104272170D01*
X125434962Y-104281349D01*
X125414750Y-104288581D01*
X125393926Y-104293797D01*
X125372691Y-104296947D01*
X125351250Y-104298000D01*
X124838750Y-104298000D01*
X124817309Y-104296947D01*
X124796074Y-104293797D01*
X124775250Y-104288581D01*
X124755038Y-104281349D01*
X124735632Y-104272170D01*
X124717219Y-104261134D01*
X124699976Y-104248346D01*
X124684070Y-104233930D01*
X124669654Y-104218024D01*
X124656866Y-104200781D01*
X124645830Y-104182368D01*
X124636651Y-104162962D01*
X124629419Y-104142750D01*
X124624203Y-104121926D01*
X124621053Y-104100691D01*
X124620000Y-104079250D01*
X124620000Y-103641750D01*
X124621053Y-103620309D01*
X124624203Y-103599074D01*
X124629419Y-103578250D01*
X124636651Y-103558038D01*
X124645830Y-103538632D01*
X124656866Y-103520219D01*
X124669654Y-103502976D01*
X124684070Y-103487070D01*
X124699976Y-103472654D01*
X124717219Y-103459866D01*
X124735632Y-103448830D01*
X124755038Y-103439651D01*
X124775250Y-103432419D01*
X124796074Y-103427203D01*
X124817309Y-103424053D01*
X124838750Y-103423000D01*
X125351250Y-103423000D01*
X125372691Y-103424053D01*
X125372691Y-103424053D01*
G37*
D12*
X125095000Y-103860500D03*
G04 #@! TD*
D11*
G04 #@! TO.C,C9*
G36*
X127722691Y-63026053D02*
X127743926Y-63029203D01*
X127764750Y-63034419D01*
X127784962Y-63041651D01*
X127804368Y-63050830D01*
X127822781Y-63061866D01*
X127840024Y-63074654D01*
X127855930Y-63089070D01*
X127870346Y-63104976D01*
X127883134Y-63122219D01*
X127894170Y-63140632D01*
X127903349Y-63160038D01*
X127910581Y-63180250D01*
X127915797Y-63201074D01*
X127918947Y-63222309D01*
X127920000Y-63243750D01*
X127920000Y-63756250D01*
X127918947Y-63777691D01*
X127915797Y-63798926D01*
X127910581Y-63819750D01*
X127903349Y-63839962D01*
X127894170Y-63859368D01*
X127883134Y-63877781D01*
X127870346Y-63895024D01*
X127855930Y-63910930D01*
X127840024Y-63925346D01*
X127822781Y-63938134D01*
X127804368Y-63949170D01*
X127784962Y-63958349D01*
X127764750Y-63965581D01*
X127743926Y-63970797D01*
X127722691Y-63973947D01*
X127701250Y-63975000D01*
X127263750Y-63975000D01*
X127242309Y-63973947D01*
X127221074Y-63970797D01*
X127200250Y-63965581D01*
X127180038Y-63958349D01*
X127160632Y-63949170D01*
X127142219Y-63938134D01*
X127124976Y-63925346D01*
X127109070Y-63910930D01*
X127094654Y-63895024D01*
X127081866Y-63877781D01*
X127070830Y-63859368D01*
X127061651Y-63839962D01*
X127054419Y-63819750D01*
X127049203Y-63798926D01*
X127046053Y-63777691D01*
X127045000Y-63756250D01*
X127045000Y-63243750D01*
X127046053Y-63222309D01*
X127049203Y-63201074D01*
X127054419Y-63180250D01*
X127061651Y-63160038D01*
X127070830Y-63140632D01*
X127081866Y-63122219D01*
X127094654Y-63104976D01*
X127109070Y-63089070D01*
X127124976Y-63074654D01*
X127142219Y-63061866D01*
X127160632Y-63050830D01*
X127180038Y-63041651D01*
X127200250Y-63034419D01*
X127221074Y-63029203D01*
X127242309Y-63026053D01*
X127263750Y-63025000D01*
X127701250Y-63025000D01*
X127722691Y-63026053D01*
X127722691Y-63026053D01*
G37*
D12*
X127482500Y-63500000D03*
D11*
G36*
X129297691Y-63026053D02*
X129318926Y-63029203D01*
X129339750Y-63034419D01*
X129359962Y-63041651D01*
X129379368Y-63050830D01*
X129397781Y-63061866D01*
X129415024Y-63074654D01*
X129430930Y-63089070D01*
X129445346Y-63104976D01*
X129458134Y-63122219D01*
X129469170Y-63140632D01*
X129478349Y-63160038D01*
X129485581Y-63180250D01*
X129490797Y-63201074D01*
X129493947Y-63222309D01*
X129495000Y-63243750D01*
X129495000Y-63756250D01*
X129493947Y-63777691D01*
X129490797Y-63798926D01*
X129485581Y-63819750D01*
X129478349Y-63839962D01*
X129469170Y-63859368D01*
X129458134Y-63877781D01*
X129445346Y-63895024D01*
X129430930Y-63910930D01*
X129415024Y-63925346D01*
X129397781Y-63938134D01*
X129379368Y-63949170D01*
X129359962Y-63958349D01*
X129339750Y-63965581D01*
X129318926Y-63970797D01*
X129297691Y-63973947D01*
X129276250Y-63975000D01*
X128838750Y-63975000D01*
X128817309Y-63973947D01*
X128796074Y-63970797D01*
X128775250Y-63965581D01*
X128755038Y-63958349D01*
X128735632Y-63949170D01*
X128717219Y-63938134D01*
X128699976Y-63925346D01*
X128684070Y-63910930D01*
X128669654Y-63895024D01*
X128656866Y-63877781D01*
X128645830Y-63859368D01*
X128636651Y-63839962D01*
X128629419Y-63819750D01*
X128624203Y-63798926D01*
X128621053Y-63777691D01*
X128620000Y-63756250D01*
X128620000Y-63243750D01*
X128621053Y-63222309D01*
X128624203Y-63201074D01*
X128629419Y-63180250D01*
X128636651Y-63160038D01*
X128645830Y-63140632D01*
X128656866Y-63122219D01*
X128669654Y-63104976D01*
X128684070Y-63089070D01*
X128699976Y-63074654D01*
X128717219Y-63061866D01*
X128735632Y-63050830D01*
X128755038Y-63041651D01*
X128775250Y-63034419D01*
X128796074Y-63029203D01*
X128817309Y-63026053D01*
X128838750Y-63025000D01*
X129276250Y-63025000D01*
X129297691Y-63026053D01*
X129297691Y-63026053D01*
G37*
D12*
X129057500Y-63500000D03*
G04 #@! TD*
D11*
G04 #@! TO.C,C10*
G36*
X112672691Y-62073053D02*
X112693926Y-62076203D01*
X112714750Y-62081419D01*
X112734962Y-62088651D01*
X112754368Y-62097830D01*
X112772781Y-62108866D01*
X112790024Y-62121654D01*
X112805930Y-62136070D01*
X112820346Y-62151976D01*
X112833134Y-62169219D01*
X112844170Y-62187632D01*
X112853349Y-62207038D01*
X112860581Y-62227250D01*
X112865797Y-62248074D01*
X112868947Y-62269309D01*
X112870000Y-62290750D01*
X112870000Y-62728250D01*
X112868947Y-62749691D01*
X112865797Y-62770926D01*
X112860581Y-62791750D01*
X112853349Y-62811962D01*
X112844170Y-62831368D01*
X112833134Y-62849781D01*
X112820346Y-62867024D01*
X112805930Y-62882930D01*
X112790024Y-62897346D01*
X112772781Y-62910134D01*
X112754368Y-62921170D01*
X112734962Y-62930349D01*
X112714750Y-62937581D01*
X112693926Y-62942797D01*
X112672691Y-62945947D01*
X112651250Y-62947000D01*
X112138750Y-62947000D01*
X112117309Y-62945947D01*
X112096074Y-62942797D01*
X112075250Y-62937581D01*
X112055038Y-62930349D01*
X112035632Y-62921170D01*
X112017219Y-62910134D01*
X111999976Y-62897346D01*
X111984070Y-62882930D01*
X111969654Y-62867024D01*
X111956866Y-62849781D01*
X111945830Y-62831368D01*
X111936651Y-62811962D01*
X111929419Y-62791750D01*
X111924203Y-62770926D01*
X111921053Y-62749691D01*
X111920000Y-62728250D01*
X111920000Y-62290750D01*
X111921053Y-62269309D01*
X111924203Y-62248074D01*
X111929419Y-62227250D01*
X111936651Y-62207038D01*
X111945830Y-62187632D01*
X111956866Y-62169219D01*
X111969654Y-62151976D01*
X111984070Y-62136070D01*
X111999976Y-62121654D01*
X112017219Y-62108866D01*
X112035632Y-62097830D01*
X112055038Y-62088651D01*
X112075250Y-62081419D01*
X112096074Y-62076203D01*
X112117309Y-62073053D01*
X112138750Y-62072000D01*
X112651250Y-62072000D01*
X112672691Y-62073053D01*
X112672691Y-62073053D01*
G37*
D12*
X112395000Y-62509500D03*
D11*
G36*
X112672691Y-60498053D02*
X112693926Y-60501203D01*
X112714750Y-60506419D01*
X112734962Y-60513651D01*
X112754368Y-60522830D01*
X112772781Y-60533866D01*
X112790024Y-60546654D01*
X112805930Y-60561070D01*
X112820346Y-60576976D01*
X112833134Y-60594219D01*
X112844170Y-60612632D01*
X112853349Y-60632038D01*
X112860581Y-60652250D01*
X112865797Y-60673074D01*
X112868947Y-60694309D01*
X112870000Y-60715750D01*
X112870000Y-61153250D01*
X112868947Y-61174691D01*
X112865797Y-61195926D01*
X112860581Y-61216750D01*
X112853349Y-61236962D01*
X112844170Y-61256368D01*
X112833134Y-61274781D01*
X112820346Y-61292024D01*
X112805930Y-61307930D01*
X112790024Y-61322346D01*
X112772781Y-61335134D01*
X112754368Y-61346170D01*
X112734962Y-61355349D01*
X112714750Y-61362581D01*
X112693926Y-61367797D01*
X112672691Y-61370947D01*
X112651250Y-61372000D01*
X112138750Y-61372000D01*
X112117309Y-61370947D01*
X112096074Y-61367797D01*
X112075250Y-61362581D01*
X112055038Y-61355349D01*
X112035632Y-61346170D01*
X112017219Y-61335134D01*
X111999976Y-61322346D01*
X111984070Y-61307930D01*
X111969654Y-61292024D01*
X111956866Y-61274781D01*
X111945830Y-61256368D01*
X111936651Y-61236962D01*
X111929419Y-61216750D01*
X111924203Y-61195926D01*
X111921053Y-61174691D01*
X111920000Y-61153250D01*
X111920000Y-60715750D01*
X111921053Y-60694309D01*
X111924203Y-60673074D01*
X111929419Y-60652250D01*
X111936651Y-60632038D01*
X111945830Y-60612632D01*
X111956866Y-60594219D01*
X111969654Y-60576976D01*
X111984070Y-60561070D01*
X111999976Y-60546654D01*
X112017219Y-60533866D01*
X112035632Y-60522830D01*
X112055038Y-60513651D01*
X112075250Y-60506419D01*
X112096074Y-60501203D01*
X112117309Y-60498053D01*
X112138750Y-60497000D01*
X112651250Y-60497000D01*
X112672691Y-60498053D01*
X112672691Y-60498053D01*
G37*
D12*
X112395000Y-60934500D03*
G04 #@! TD*
D11*
G04 #@! TO.C,C11*
G36*
X135659691Y-60295053D02*
X135680926Y-60298203D01*
X135701750Y-60303419D01*
X135721962Y-60310651D01*
X135741368Y-60319830D01*
X135759781Y-60330866D01*
X135777024Y-60343654D01*
X135792930Y-60358070D01*
X135807346Y-60373976D01*
X135820134Y-60391219D01*
X135831170Y-60409632D01*
X135840349Y-60429038D01*
X135847581Y-60449250D01*
X135852797Y-60470074D01*
X135855947Y-60491309D01*
X135857000Y-60512750D01*
X135857000Y-60950250D01*
X135855947Y-60971691D01*
X135852797Y-60992926D01*
X135847581Y-61013750D01*
X135840349Y-61033962D01*
X135831170Y-61053368D01*
X135820134Y-61071781D01*
X135807346Y-61089024D01*
X135792930Y-61104930D01*
X135777024Y-61119346D01*
X135759781Y-61132134D01*
X135741368Y-61143170D01*
X135721962Y-61152349D01*
X135701750Y-61159581D01*
X135680926Y-61164797D01*
X135659691Y-61167947D01*
X135638250Y-61169000D01*
X135125750Y-61169000D01*
X135104309Y-61167947D01*
X135083074Y-61164797D01*
X135062250Y-61159581D01*
X135042038Y-61152349D01*
X135022632Y-61143170D01*
X135004219Y-61132134D01*
X134986976Y-61119346D01*
X134971070Y-61104930D01*
X134956654Y-61089024D01*
X134943866Y-61071781D01*
X134932830Y-61053368D01*
X134923651Y-61033962D01*
X134916419Y-61013750D01*
X134911203Y-60992926D01*
X134908053Y-60971691D01*
X134907000Y-60950250D01*
X134907000Y-60512750D01*
X134908053Y-60491309D01*
X134911203Y-60470074D01*
X134916419Y-60449250D01*
X134923651Y-60429038D01*
X134932830Y-60409632D01*
X134943866Y-60391219D01*
X134956654Y-60373976D01*
X134971070Y-60358070D01*
X134986976Y-60343654D01*
X135004219Y-60330866D01*
X135022632Y-60319830D01*
X135042038Y-60310651D01*
X135062250Y-60303419D01*
X135083074Y-60298203D01*
X135104309Y-60295053D01*
X135125750Y-60294000D01*
X135638250Y-60294000D01*
X135659691Y-60295053D01*
X135659691Y-60295053D01*
G37*
D12*
X135382000Y-60731500D03*
D11*
G36*
X135659691Y-58720053D02*
X135680926Y-58723203D01*
X135701750Y-58728419D01*
X135721962Y-58735651D01*
X135741368Y-58744830D01*
X135759781Y-58755866D01*
X135777024Y-58768654D01*
X135792930Y-58783070D01*
X135807346Y-58798976D01*
X135820134Y-58816219D01*
X135831170Y-58834632D01*
X135840349Y-58854038D01*
X135847581Y-58874250D01*
X135852797Y-58895074D01*
X135855947Y-58916309D01*
X135857000Y-58937750D01*
X135857000Y-59375250D01*
X135855947Y-59396691D01*
X135852797Y-59417926D01*
X135847581Y-59438750D01*
X135840349Y-59458962D01*
X135831170Y-59478368D01*
X135820134Y-59496781D01*
X135807346Y-59514024D01*
X135792930Y-59529930D01*
X135777024Y-59544346D01*
X135759781Y-59557134D01*
X135741368Y-59568170D01*
X135721962Y-59577349D01*
X135701750Y-59584581D01*
X135680926Y-59589797D01*
X135659691Y-59592947D01*
X135638250Y-59594000D01*
X135125750Y-59594000D01*
X135104309Y-59592947D01*
X135083074Y-59589797D01*
X135062250Y-59584581D01*
X135042038Y-59577349D01*
X135022632Y-59568170D01*
X135004219Y-59557134D01*
X134986976Y-59544346D01*
X134971070Y-59529930D01*
X134956654Y-59514024D01*
X134943866Y-59496781D01*
X134932830Y-59478368D01*
X134923651Y-59458962D01*
X134916419Y-59438750D01*
X134911203Y-59417926D01*
X134908053Y-59396691D01*
X134907000Y-59375250D01*
X134907000Y-58937750D01*
X134908053Y-58916309D01*
X134911203Y-58895074D01*
X134916419Y-58874250D01*
X134923651Y-58854038D01*
X134932830Y-58834632D01*
X134943866Y-58816219D01*
X134956654Y-58798976D01*
X134971070Y-58783070D01*
X134986976Y-58768654D01*
X135004219Y-58755866D01*
X135022632Y-58744830D01*
X135042038Y-58735651D01*
X135062250Y-58728419D01*
X135083074Y-58723203D01*
X135104309Y-58720053D01*
X135125750Y-58719000D01*
X135638250Y-58719000D01*
X135659691Y-58720053D01*
X135659691Y-58720053D01*
G37*
D12*
X135382000Y-59156500D03*
G04 #@! TD*
D11*
G04 #@! TO.C,C12*
G36*
X124610691Y-61768053D02*
X124631926Y-61771203D01*
X124652750Y-61776419D01*
X124672962Y-61783651D01*
X124692368Y-61792830D01*
X124710781Y-61803866D01*
X124728024Y-61816654D01*
X124743930Y-61831070D01*
X124758346Y-61846976D01*
X124771134Y-61864219D01*
X124782170Y-61882632D01*
X124791349Y-61902038D01*
X124798581Y-61922250D01*
X124803797Y-61943074D01*
X124806947Y-61964309D01*
X124808000Y-61985750D01*
X124808000Y-62423250D01*
X124806947Y-62444691D01*
X124803797Y-62465926D01*
X124798581Y-62486750D01*
X124791349Y-62506962D01*
X124782170Y-62526368D01*
X124771134Y-62544781D01*
X124758346Y-62562024D01*
X124743930Y-62577930D01*
X124728024Y-62592346D01*
X124710781Y-62605134D01*
X124692368Y-62616170D01*
X124672962Y-62625349D01*
X124652750Y-62632581D01*
X124631926Y-62637797D01*
X124610691Y-62640947D01*
X124589250Y-62642000D01*
X124076750Y-62642000D01*
X124055309Y-62640947D01*
X124034074Y-62637797D01*
X124013250Y-62632581D01*
X123993038Y-62625349D01*
X123973632Y-62616170D01*
X123955219Y-62605134D01*
X123937976Y-62592346D01*
X123922070Y-62577930D01*
X123907654Y-62562024D01*
X123894866Y-62544781D01*
X123883830Y-62526368D01*
X123874651Y-62506962D01*
X123867419Y-62486750D01*
X123862203Y-62465926D01*
X123859053Y-62444691D01*
X123858000Y-62423250D01*
X123858000Y-61985750D01*
X123859053Y-61964309D01*
X123862203Y-61943074D01*
X123867419Y-61922250D01*
X123874651Y-61902038D01*
X123883830Y-61882632D01*
X123894866Y-61864219D01*
X123907654Y-61846976D01*
X123922070Y-61831070D01*
X123937976Y-61816654D01*
X123955219Y-61803866D01*
X123973632Y-61792830D01*
X123993038Y-61783651D01*
X124013250Y-61776419D01*
X124034074Y-61771203D01*
X124055309Y-61768053D01*
X124076750Y-61767000D01*
X124589250Y-61767000D01*
X124610691Y-61768053D01*
X124610691Y-61768053D01*
G37*
D12*
X124333000Y-62204500D03*
D11*
G36*
X124610691Y-63343053D02*
X124631926Y-63346203D01*
X124652750Y-63351419D01*
X124672962Y-63358651D01*
X124692368Y-63367830D01*
X124710781Y-63378866D01*
X124728024Y-63391654D01*
X124743930Y-63406070D01*
X124758346Y-63421976D01*
X124771134Y-63439219D01*
X124782170Y-63457632D01*
X124791349Y-63477038D01*
X124798581Y-63497250D01*
X124803797Y-63518074D01*
X124806947Y-63539309D01*
X124808000Y-63560750D01*
X124808000Y-63998250D01*
X124806947Y-64019691D01*
X124803797Y-64040926D01*
X124798581Y-64061750D01*
X124791349Y-64081962D01*
X124782170Y-64101368D01*
X124771134Y-64119781D01*
X124758346Y-64137024D01*
X124743930Y-64152930D01*
X124728024Y-64167346D01*
X124710781Y-64180134D01*
X124692368Y-64191170D01*
X124672962Y-64200349D01*
X124652750Y-64207581D01*
X124631926Y-64212797D01*
X124610691Y-64215947D01*
X124589250Y-64217000D01*
X124076750Y-64217000D01*
X124055309Y-64215947D01*
X124034074Y-64212797D01*
X124013250Y-64207581D01*
X123993038Y-64200349D01*
X123973632Y-64191170D01*
X123955219Y-64180134D01*
X123937976Y-64167346D01*
X123922070Y-64152930D01*
X123907654Y-64137024D01*
X123894866Y-64119781D01*
X123883830Y-64101368D01*
X123874651Y-64081962D01*
X123867419Y-64061750D01*
X123862203Y-64040926D01*
X123859053Y-64019691D01*
X123858000Y-63998250D01*
X123858000Y-63560750D01*
X123859053Y-63539309D01*
X123862203Y-63518074D01*
X123867419Y-63497250D01*
X123874651Y-63477038D01*
X123883830Y-63457632D01*
X123894866Y-63439219D01*
X123907654Y-63421976D01*
X123922070Y-63406070D01*
X123937976Y-63391654D01*
X123955219Y-63378866D01*
X123973632Y-63367830D01*
X123993038Y-63358651D01*
X124013250Y-63351419D01*
X124034074Y-63346203D01*
X124055309Y-63343053D01*
X124076750Y-63342000D01*
X124589250Y-63342000D01*
X124610691Y-63343053D01*
X124610691Y-63343053D01*
G37*
D12*
X124333000Y-63779500D03*
G04 #@! TD*
D11*
G04 #@! TO.C,C1*
G36*
X131595691Y-81377053D02*
X131616926Y-81380203D01*
X131637750Y-81385419D01*
X131657962Y-81392651D01*
X131677368Y-81401830D01*
X131695781Y-81412866D01*
X131713024Y-81425654D01*
X131728930Y-81440070D01*
X131743346Y-81455976D01*
X131756134Y-81473219D01*
X131767170Y-81491632D01*
X131776349Y-81511038D01*
X131783581Y-81531250D01*
X131788797Y-81552074D01*
X131791947Y-81573309D01*
X131793000Y-81594750D01*
X131793000Y-82032250D01*
X131791947Y-82053691D01*
X131788797Y-82074926D01*
X131783581Y-82095750D01*
X131776349Y-82115962D01*
X131767170Y-82135368D01*
X131756134Y-82153781D01*
X131743346Y-82171024D01*
X131728930Y-82186930D01*
X131713024Y-82201346D01*
X131695781Y-82214134D01*
X131677368Y-82225170D01*
X131657962Y-82234349D01*
X131637750Y-82241581D01*
X131616926Y-82246797D01*
X131595691Y-82249947D01*
X131574250Y-82251000D01*
X131061750Y-82251000D01*
X131040309Y-82249947D01*
X131019074Y-82246797D01*
X130998250Y-82241581D01*
X130978038Y-82234349D01*
X130958632Y-82225170D01*
X130940219Y-82214134D01*
X130922976Y-82201346D01*
X130907070Y-82186930D01*
X130892654Y-82171024D01*
X130879866Y-82153781D01*
X130868830Y-82135368D01*
X130859651Y-82115962D01*
X130852419Y-82095750D01*
X130847203Y-82074926D01*
X130844053Y-82053691D01*
X130843000Y-82032250D01*
X130843000Y-81594750D01*
X130844053Y-81573309D01*
X130847203Y-81552074D01*
X130852419Y-81531250D01*
X130859651Y-81511038D01*
X130868830Y-81491632D01*
X130879866Y-81473219D01*
X130892654Y-81455976D01*
X130907070Y-81440070D01*
X130922976Y-81425654D01*
X130940219Y-81412866D01*
X130958632Y-81401830D01*
X130978038Y-81392651D01*
X130998250Y-81385419D01*
X131019074Y-81380203D01*
X131040309Y-81377053D01*
X131061750Y-81376000D01*
X131574250Y-81376000D01*
X131595691Y-81377053D01*
X131595691Y-81377053D01*
G37*
D12*
X131318000Y-81813500D03*
D11*
G36*
X131595691Y-79802053D02*
X131616926Y-79805203D01*
X131637750Y-79810419D01*
X131657962Y-79817651D01*
X131677368Y-79826830D01*
X131695781Y-79837866D01*
X131713024Y-79850654D01*
X131728930Y-79865070D01*
X131743346Y-79880976D01*
X131756134Y-79898219D01*
X131767170Y-79916632D01*
X131776349Y-79936038D01*
X131783581Y-79956250D01*
X131788797Y-79977074D01*
X131791947Y-79998309D01*
X131793000Y-80019750D01*
X131793000Y-80457250D01*
X131791947Y-80478691D01*
X131788797Y-80499926D01*
X131783581Y-80520750D01*
X131776349Y-80540962D01*
X131767170Y-80560368D01*
X131756134Y-80578781D01*
X131743346Y-80596024D01*
X131728930Y-80611930D01*
X131713024Y-80626346D01*
X131695781Y-80639134D01*
X131677368Y-80650170D01*
X131657962Y-80659349D01*
X131637750Y-80666581D01*
X131616926Y-80671797D01*
X131595691Y-80674947D01*
X131574250Y-80676000D01*
X131061750Y-80676000D01*
X131040309Y-80674947D01*
X131019074Y-80671797D01*
X130998250Y-80666581D01*
X130978038Y-80659349D01*
X130958632Y-80650170D01*
X130940219Y-80639134D01*
X130922976Y-80626346D01*
X130907070Y-80611930D01*
X130892654Y-80596024D01*
X130879866Y-80578781D01*
X130868830Y-80560368D01*
X130859651Y-80540962D01*
X130852419Y-80520750D01*
X130847203Y-80499926D01*
X130844053Y-80478691D01*
X130843000Y-80457250D01*
X130843000Y-80019750D01*
X130844053Y-79998309D01*
X130847203Y-79977074D01*
X130852419Y-79956250D01*
X130859651Y-79936038D01*
X130868830Y-79916632D01*
X130879866Y-79898219D01*
X130892654Y-79880976D01*
X130907070Y-79865070D01*
X130922976Y-79850654D01*
X130940219Y-79837866D01*
X130958632Y-79826830D01*
X130978038Y-79817651D01*
X130998250Y-79810419D01*
X131019074Y-79805203D01*
X131040309Y-79802053D01*
X131061750Y-79801000D01*
X131574250Y-79801000D01*
X131595691Y-79802053D01*
X131595691Y-79802053D01*
G37*
D12*
X131318000Y-80238500D03*
G04 #@! TD*
M02*
