M48
;DRILL file {KiCad (5.0.1)-3} date 11/4/2018 6:55:49 PM
;FORMAT={-:-/ absolute / inch / decimal}
FMAT,2
INCH,TZ
T1C0.0157
T2C0.0197
T3C0.0315
%
G90
G05
M72
T1
X2.76Y-2.27
X2.76Y-2.31
X2.76Y-2.35
X2.76Y-2.39
X2.76Y-2.43
X2.76Y-2.47
X2.76Y-2.51
X2.76Y-2.55
X2.76Y-2.59
X2.76Y-2.63
X2.76Y-2.67
X2.76Y-2.71
X2.76Y-2.75
X2.76Y-2.79
X2.76Y-2.83
X2.76Y-2.87
X2.76Y-2.91
X2.76Y-2.95
X2.76Y-2.99
X2.76Y-3.03
X2.76Y-3.07
X2.76Y-3.11
X2.76Y-3.15
X2.76Y-3.19
X2.76Y-3.23
X2.76Y-3.27
X2.76Y-3.31
X2.76Y-3.35
X2.76Y-3.39
X2.76Y-3.43
X2.76Y-3.47
X2.76Y-3.51
X2.76Y-3.55
X2.76Y-3.59
X2.76Y-3.63
X2.76Y-3.67
X2.76Y-3.71
X2.76Y-3.75
X2.76Y-3.79
X2.76Y-3.83
X2.76Y-3.87
X2.76Y-3.91
X2.76Y-3.95
X2.76Y-3.99
X2.76Y-4.03
X2.76Y-4.07
X2.76Y-4.11
X2.76Y-4.15
X2.76Y-4.19
X2.76Y-4.23
X2.8Y-2.27
X2.8Y-4.23
X2.84Y-2.27
X2.84Y-4.23
X2.88Y-2.27
X2.88Y-4.23
X2.92Y-2.27
X2.92Y-4.23
X2.93Y-3.07
X2.96Y-2.27
X2.96Y-4.23
X2.97Y-3.06
X2.98Y-3.19
X3.Y-2.27
X3.Y-4.23
X3.04Y-2.27
X3.04Y-3.12
X3.04Y-4.23
X3.0472Y-2.7383
X3.08Y-2.27
X3.08Y-2.76
X3.08Y-4.23
X3.1021Y-2.7975
X3.12Y-2.27
X3.12Y-4.23
X3.14Y-2.81
X3.16Y-2.27
X3.16Y-2.85
X3.16Y-4.23
X3.17Y-2.89
X3.18Y-2.95
X3.2Y-2.27
X3.2Y-4.23
X3.22Y-3.26
X3.24Y-2.27
X3.24Y-4.23
X3.25Y-3.19
X3.28Y-2.27
X3.28Y-4.23
X3.32Y-2.27
X3.32Y-3.66
X3.32Y-4.23
X3.3259Y-3.1559
X3.3268Y-2.8835
X3.33Y-2.61
X3.33Y-2.81
X3.36Y-2.27
X3.36Y-2.7094
X3.36Y-4.23
X3.4Y-2.27
X3.4Y-4.23
X3.44Y-2.27
X3.44Y-2.45
X3.44Y-2.7094
X3.44Y-4.23
X3.48Y-2.27
X3.48Y-4.23
X3.52Y-2.27
X3.52Y-4.23
X3.528Y-3.0318
X3.56Y-2.27
X3.56Y-2.71
X3.56Y-4.23
X3.58Y-3.58
X3.58Y-3.8
X3.6Y-2.27
X3.6Y-2.99
X3.6Y-4.23
X3.64Y-2.27
X3.64Y-4.23
X3.67Y-2.45
X3.67Y-2.73
X3.67Y-2.84
X3.67Y-2.88
X3.68Y-2.27
X3.68Y-3.05
X3.68Y-4.23
X3.72Y-2.27
X3.72Y-4.23
X3.73Y-2.58
X3.75Y-2.78
X3.76Y-2.27
X3.76Y-2.62
X3.76Y-2.6594
X3.76Y-2.7186
X3.76Y-4.23
X3.77Y-3.59
X3.77Y-3.79
X3.8Y-2.27
X3.8Y-4.23
X3.81Y-2.72
X3.82Y-2.59
X3.84Y-2.27
X3.84Y-4.23
X3.88Y-2.27
X3.88Y-2.58
X3.88Y-2.71
X3.88Y-2.77
X3.88Y-4.23
X3.92Y-2.27
X3.92Y-4.23
X3.96Y-2.27
X3.96Y-4.23
X3.97Y-3.15
X3.98Y-3.07
X4.Y-2.27
X4.Y-4.23
X4.04Y-2.27
X4.04Y-4.23
X4.08Y-2.27
X4.08Y-4.23
X4.12Y-2.27
X4.12Y-4.23
X4.13Y-3.05
X4.13Y-3.15
X4.16Y-2.27
X4.16Y-4.23
X4.2Y-2.27
X4.2Y-2.36
X4.2Y-4.23
X4.24Y-2.27
X4.24Y-4.23
X4.27Y-2.57
X4.27Y-2.77
X4.28Y-2.27
X4.28Y-4.23
X4.32Y-2.27
X4.32Y-4.23
X4.36Y-2.27
X4.36Y-4.23
X4.4Y-2.27
X4.4Y-4.23
X4.44Y-2.27
X4.44Y-4.23
X4.48Y-2.27
X4.48Y-4.23
X4.52Y-2.27
X4.52Y-4.23
X4.56Y-2.27
X4.56Y-4.23
X4.6Y-2.27
X4.6Y-4.23
X4.64Y-2.27
X4.64Y-4.23
X4.68Y-2.27
X4.68Y-2.36
X4.68Y-2.94
X4.68Y-4.23
X4.7Y-3.38
X4.72Y-2.27
X4.72Y-4.23
X4.76Y-2.27
X4.76Y-4.23
X4.8Y-2.27
X4.8Y-4.23
X4.84Y-2.27
X4.84Y-4.23
X4.88Y-2.27
X4.88Y-4.23
X4.92Y-2.27
X4.92Y-4.23
X4.96Y-2.27
X4.96Y-4.23
X5.Y-2.27
X5.Y-4.23
X5.04Y-2.27
X5.04Y-4.23
X5.06Y-3.22
X5.08Y-2.27
X5.08Y-4.23
X5.09Y-2.36
X5.12Y-2.27
X5.12Y-4.23
X5.16Y-2.27
X5.16Y-4.23
X5.2Y-2.27
X5.2Y-4.23
X5.24Y-2.27
X5.24Y-4.23
X5.25Y-2.36
X5.28Y-2.27
X5.28Y-4.23
X5.32Y-2.27
X5.32Y-4.23
X5.36Y-2.27
X5.36Y-4.23
X5.4Y-2.27
X5.4Y-4.23
X5.4346Y-3.5246
X5.44Y-2.27
X5.44Y-4.23
X5.47Y-2.86
X5.48Y-2.27
X5.48Y-4.23
X5.49Y-2.69
X5.52Y-2.27
X5.52Y-4.23
X5.55Y-3.64
X5.56Y-2.27
X5.56Y-4.23
X5.6Y-2.27
X5.6Y-4.23
X5.64Y-2.27
X5.64Y-4.23
X5.68Y-2.27
X5.68Y-3.83
X5.68Y-4.23
X5.72Y-2.27
X5.72Y-4.23
X5.74Y-3.77
X5.7496Y-2.8491
X5.76Y-2.27
X5.76Y-4.23
X5.7894Y-2.9637
X5.796Y-3.0051
X5.8Y-2.27
X5.8Y-4.23
X5.8175Y-2.7775
X5.8191Y-3.7609
X5.82Y-2.44
X5.84Y-2.27
X5.84Y-4.23
X5.86Y-3.87
X5.8759Y-2.847
X5.88Y-2.27
X5.88Y-4.23
X5.889Y-2.8841
X5.89Y-2.52
X5.92Y-2.27
X5.92Y-4.23
X5.93Y-2.75
X5.95Y-3.284
X5.96Y-2.27
X5.96Y-4.23
X5.98Y-2.89
X5.9809Y-3.8791
X5.99Y-3.59
X6.Y-2.27
X6.Y-4.23
X6.03Y-3.06
X6.04Y-2.27
X6.04Y-4.23
X6.0604Y-3.32
X6.07Y-3.68
X6.08Y-2.27
X6.08Y-3.8571
X6.08Y-4.23
X6.12Y-2.27
X6.12Y-4.23
X6.16Y-2.27
X6.16Y-4.23
X6.1869Y-3.855
X6.2Y-2.27
X6.2Y-4.23
X6.21Y-3.59
X6.24Y-2.27
X6.24Y-4.23
X6.2597Y-2.8097
X6.27Y-3.
X6.27Y-2.45
X6.28Y-2.27
X6.28Y-4.23
X6.32Y-2.27
X6.32Y-4.23
X6.34Y-2.99
X6.36Y-2.27
X6.36Y-2.73
X6.36Y-4.23
X6.39Y-2.62
X6.3944Y-2.7572
X6.4Y-2.27
X6.4Y-2.69
X6.4Y-4.23
X6.4373Y-2.6192
X6.44Y-2.27
X6.44Y-4.23
X6.48Y-2.27
X6.48Y-4.23
X6.5096Y-2.62
X6.51Y-2.69
X6.52Y-2.27
X6.52Y-4.23
X6.54Y-2.89
X6.56Y-2.27
X6.56Y-4.23
X6.58Y-3.15
X6.6Y-2.27
X6.6Y-4.23
X6.62Y-2.96
X6.64Y-2.27
X6.64Y-4.23
X6.6418Y-2.9272
X6.68Y-2.27
X6.68Y-3.45
X6.68Y-4.23
X6.72Y-2.27
X6.72Y-3.22
X6.72Y-4.23
X6.76Y-2.27
X6.76Y-4.23
X6.8Y-2.27
X6.8Y-4.23
X6.81Y-2.93
X6.84Y-2.27
X6.84Y-4.23
X6.88Y-2.27
X6.88Y-4.23
X6.92Y-2.27
X6.92Y-2.31
X6.92Y-2.35
X6.92Y-2.39
X6.92Y-2.43
X6.92Y-2.47
X6.92Y-2.51
X6.92Y-2.55
X6.92Y-2.59
X6.92Y-2.63
X6.92Y-2.67
X6.92Y-2.71
X6.92Y-2.75
X6.92Y-2.79
X6.92Y-2.83
X6.92Y-2.87
X6.92Y-2.91
X6.92Y-2.95
X6.92Y-2.99
X6.92Y-3.03
X6.92Y-3.07
X6.92Y-3.11
X6.92Y-3.15
X6.92Y-3.19
X6.92Y-3.23
X6.92Y-3.27
X6.92Y-3.31
X6.92Y-3.35
X6.92Y-3.39
X6.92Y-3.43
X6.92Y-3.47
X6.92Y-3.51
X6.92Y-3.55
X6.92Y-3.59
X6.92Y-3.63
X6.92Y-3.67
X6.92Y-3.71
X6.92Y-3.75
X6.92Y-3.79
X6.92Y-3.83
X6.92Y-3.87
X6.92Y-3.91
X6.92Y-3.95
X6.92Y-3.99
X6.92Y-4.03
X6.92Y-4.07
X6.92Y-4.11
X6.92Y-4.15
X6.92Y-4.19
X6.92Y-4.23
T2
X4.5Y-2.54
X4.49Y-2.75
T3
X3.12Y-3.395
X3.12Y-3.995
X3.22Y-3.395
X3.22Y-3.995
X3.32Y-3.395
X3.32Y-3.995
X3.42Y-3.395
X3.42Y-3.995
X3.52Y-3.395
X3.52Y-3.995
X3.62Y-3.395
X3.62Y-3.995
X3.72Y-3.395
X3.72Y-3.995
X3.82Y-3.395
X3.82Y-3.995
X3.92Y-3.395
X3.92Y-3.995
X4.02Y-3.395
X4.02Y-3.995
X4.12Y-3.395
X4.12Y-3.995
X4.22Y-3.395
X4.22Y-3.995
X4.32Y-3.395
X4.32Y-3.995
X4.42Y-3.395
X4.42Y-3.995
X4.52Y-3.395
X4.52Y-3.995
X5.18Y-3.39
X5.18Y-3.99
X5.28Y-3.39
X5.28Y-3.99
X5.38Y-3.39
X5.38Y-3.99
X5.48Y-3.39
X5.48Y-3.99
X5.58Y-3.39
X5.58Y-3.99
X5.68Y-3.39
X5.68Y-3.99
X5.78Y-3.39
X5.78Y-3.99
X5.88Y-3.39
X5.88Y-3.99
X5.98Y-3.39
X5.98Y-3.99
X6.08Y-3.39
X6.08Y-3.99
X6.18Y-3.39
X6.18Y-3.99
X6.28Y-3.39
X6.28Y-3.99
X6.38Y-3.39
X6.38Y-3.99
X6.48Y-3.39
X6.48Y-3.99
X6.58Y-3.39
X6.58Y-3.99
T0
M30
