G04 #@! TF.GenerationSoftware,KiCad,Pcbnew,(5.0.1)-3*
G04 #@! TF.CreationDate,2018-11-04T18:55:45-06:00*
G04 #@! TF.ProjectId,ProofOfConceptBoardV1,50726F6F664F66436F6E63657074426F,rev?*
G04 #@! TF.SameCoordinates,Original*
G04 #@! TF.FileFunction,Legend,Bot*
G04 #@! TF.FilePolarity,Positive*
%FSLAX46Y46*%
G04 Gerber Fmt 4.6, Leading zero omitted, Abs format (unit mm)*
G04 Created by KiCad (PCBNEW (5.0.1)-3) date 11/4/2018 6:55:45 PM*
%MOMM*%
%LPD*%
G01*
G04 APERTURE LIST*
%ADD10C,0.500000*%
G04 APERTURE END LIST*
D10*
X171012142Y-71712619D02*
X171012142Y-68512619D01*
X169945476Y-70798333D01*
X168878809Y-68512619D01*
X168878809Y-71712619D01*
X167355000Y-71712619D02*
X167355000Y-69579285D01*
X167355000Y-68512619D02*
X167507380Y-68665000D01*
X167355000Y-68817380D01*
X167202619Y-68665000D01*
X167355000Y-68512619D01*
X167355000Y-68817380D01*
X165983571Y-71560238D02*
X165678809Y-71712619D01*
X165069285Y-71712619D01*
X164764523Y-71560238D01*
X164612142Y-71255476D01*
X164612142Y-71103095D01*
X164764523Y-70798333D01*
X165069285Y-70645952D01*
X165526428Y-70645952D01*
X165831190Y-70493571D01*
X165983571Y-70188809D01*
X165983571Y-70036428D01*
X165831190Y-69731666D01*
X165526428Y-69579285D01*
X165069285Y-69579285D01*
X164764523Y-69731666D01*
X163393095Y-71560238D02*
X163088333Y-71712619D01*
X162478809Y-71712619D01*
X162174047Y-71560238D01*
X162021666Y-71255476D01*
X162021666Y-71103095D01*
X162174047Y-70798333D01*
X162478809Y-70645952D01*
X162935952Y-70645952D01*
X163240714Y-70493571D01*
X163393095Y-70188809D01*
X163393095Y-70036428D01*
X163240714Y-69731666D01*
X162935952Y-69579285D01*
X162478809Y-69579285D01*
X162174047Y-69731666D01*
X160193095Y-71712619D02*
X160497857Y-71560238D01*
X160650238Y-71407857D01*
X160802619Y-71103095D01*
X160802619Y-70188809D01*
X160650238Y-69884047D01*
X160497857Y-69731666D01*
X160193095Y-69579285D01*
X159735952Y-69579285D01*
X159431190Y-69731666D01*
X159278809Y-69884047D01*
X159126428Y-70188809D01*
X159126428Y-71103095D01*
X159278809Y-71407857D01*
X159431190Y-71560238D01*
X159735952Y-71712619D01*
X160193095Y-71712619D01*
X156383571Y-69579285D02*
X156383571Y-71712619D01*
X157755000Y-69579285D02*
X157755000Y-71255476D01*
X157602619Y-71560238D01*
X157297857Y-71712619D01*
X156840714Y-71712619D01*
X156535952Y-71560238D01*
X156383571Y-71407857D01*
X154859761Y-71712619D02*
X154859761Y-69579285D01*
X154859761Y-70188809D02*
X154707380Y-69884047D01*
X154555000Y-69731666D01*
X154250238Y-69579285D01*
X153945476Y-69579285D01*
X152878809Y-71712619D02*
X152878809Y-69579285D01*
X152878809Y-68512619D02*
X153031190Y-68665000D01*
X152878809Y-68817380D01*
X152726428Y-68665000D01*
X152878809Y-68512619D01*
X152878809Y-68817380D01*
X149069285Y-71560238D02*
X148612142Y-71712619D01*
X147850238Y-71712619D01*
X147545476Y-71560238D01*
X147393095Y-71407857D01*
X147240714Y-71103095D01*
X147240714Y-70798333D01*
X147393095Y-70493571D01*
X147545476Y-70341190D01*
X147850238Y-70188809D01*
X148459761Y-70036428D01*
X148764523Y-69884047D01*
X148916904Y-69731666D01*
X149069285Y-69426904D01*
X149069285Y-69122142D01*
X148916904Y-68817380D01*
X148764523Y-68665000D01*
X148459761Y-68512619D01*
X147697857Y-68512619D01*
X147240714Y-68665000D01*
X143278809Y-71712619D02*
X143431190Y-71712619D01*
X143735952Y-71560238D01*
X144193095Y-71103095D01*
X144955000Y-70188809D01*
X145259761Y-69731666D01*
X145412142Y-69274523D01*
X145412142Y-68969761D01*
X145259761Y-68665000D01*
X144955000Y-68512619D01*
X144802619Y-68512619D01*
X144497857Y-68665000D01*
X144345476Y-68969761D01*
X144345476Y-69122142D01*
X144497857Y-69426904D01*
X144650238Y-69579285D01*
X145564523Y-70188809D01*
X145716904Y-70341190D01*
X145869285Y-70645952D01*
X145869285Y-71103095D01*
X145716904Y-71407857D01*
X145564523Y-71560238D01*
X145259761Y-71712619D01*
X144802619Y-71712619D01*
X144497857Y-71560238D01*
X144345476Y-71407857D01*
X143888333Y-70798333D01*
X143735952Y-70341190D01*
X143735952Y-70036428D01*
X142364523Y-68512619D02*
X140535952Y-68512619D01*
X141450238Y-71712619D02*
X141450238Y-68512619D01*
X137031190Y-68512619D02*
X137031190Y-71103095D01*
X136878809Y-71407857D01*
X136726428Y-71560238D01*
X136421666Y-71712619D01*
X135812142Y-71712619D01*
X135507380Y-71560238D01*
X135355000Y-71407857D01*
X135202619Y-71103095D01*
X135202619Y-68512619D01*
X133678809Y-69579285D02*
X133678809Y-71712619D01*
X133678809Y-69884047D02*
X133526428Y-69731666D01*
X133221666Y-69579285D01*
X132764523Y-69579285D01*
X132459761Y-69731666D01*
X132307380Y-70036428D01*
X132307380Y-71712619D01*
X129412142Y-71712619D02*
X129412142Y-68512619D01*
X129412142Y-71560238D02*
X129716904Y-71712619D01*
X130326428Y-71712619D01*
X130631190Y-71560238D01*
X130783571Y-71407857D01*
X130935952Y-71103095D01*
X130935952Y-70188809D01*
X130783571Y-69884047D01*
X130631190Y-69731666D01*
X130326428Y-69579285D01*
X129716904Y-69579285D01*
X129412142Y-69731666D01*
X126669285Y-71560238D02*
X126974047Y-71712619D01*
X127583571Y-71712619D01*
X127888333Y-71560238D01*
X128040714Y-71255476D01*
X128040714Y-70036428D01*
X127888333Y-69731666D01*
X127583571Y-69579285D01*
X126974047Y-69579285D01*
X126669285Y-69731666D01*
X126516904Y-70036428D01*
X126516904Y-70341190D01*
X128040714Y-70645952D01*
X125145476Y-71712619D02*
X125145476Y-69579285D01*
X125145476Y-70188809D02*
X124993095Y-69884047D01*
X124840714Y-69731666D01*
X124535952Y-69579285D01*
X124231190Y-69579285D01*
X123469285Y-69579285D02*
X122859761Y-71712619D01*
X122250238Y-70188809D01*
X121640714Y-71712619D01*
X121031190Y-69579285D01*
X118440714Y-71712619D02*
X118440714Y-70036428D01*
X118593095Y-69731666D01*
X118897857Y-69579285D01*
X119507380Y-69579285D01*
X119812142Y-69731666D01*
X118440714Y-71560238D02*
X118745476Y-71712619D01*
X119507380Y-71712619D01*
X119812142Y-71560238D01*
X119964523Y-71255476D01*
X119964523Y-70950714D01*
X119812142Y-70645952D01*
X119507380Y-70493571D01*
X118745476Y-70493571D01*
X118440714Y-70341190D01*
X117374047Y-69579285D02*
X116155000Y-69579285D01*
X116916904Y-68512619D02*
X116916904Y-71255476D01*
X116764523Y-71560238D01*
X116459761Y-71712619D01*
X116155000Y-71712619D01*
X113869285Y-71560238D02*
X114174047Y-71712619D01*
X114783571Y-71712619D01*
X115088333Y-71560238D01*
X115240714Y-71255476D01*
X115240714Y-70036428D01*
X115088333Y-69731666D01*
X114783571Y-69579285D01*
X114174047Y-69579285D01*
X113869285Y-69731666D01*
X113716904Y-70036428D01*
X113716904Y-70341190D01*
X115240714Y-70645952D01*
X112345476Y-71712619D02*
X112345476Y-69579285D01*
X112345476Y-70188809D02*
X112193095Y-69884047D01*
X112040714Y-69731666D01*
X111735952Y-69579285D01*
X111431190Y-69579285D01*
X106097857Y-71712619D02*
X107164523Y-70188809D01*
X107926428Y-71712619D02*
X107926428Y-68512619D01*
X106707380Y-68512619D01*
X106402619Y-68665000D01*
X106250238Y-68817380D01*
X106097857Y-69122142D01*
X106097857Y-69579285D01*
X106250238Y-69884047D01*
X106402619Y-70036428D01*
X106707380Y-70188809D01*
X107926428Y-70188809D01*
X104269285Y-71712619D02*
X104574047Y-71560238D01*
X104726428Y-71407857D01*
X104878809Y-71103095D01*
X104878809Y-70188809D01*
X104726428Y-69884047D01*
X104574047Y-69731666D01*
X104269285Y-69579285D01*
X103812142Y-69579285D01*
X103507380Y-69731666D01*
X103355000Y-69884047D01*
X103202619Y-70188809D01*
X103202619Y-71103095D01*
X103355000Y-71407857D01*
X103507380Y-71560238D01*
X103812142Y-71712619D01*
X104269285Y-71712619D01*
X101831190Y-71712619D02*
X101831190Y-68512619D01*
X101831190Y-69731666D02*
X101526428Y-69579285D01*
X100916904Y-69579285D01*
X100612142Y-69731666D01*
X100459761Y-69884047D01*
X100307380Y-70188809D01*
X100307380Y-71103095D01*
X100459761Y-71407857D01*
X100612142Y-71560238D01*
X100916904Y-71712619D01*
X101526428Y-71712619D01*
X101831190Y-71560238D01*
X98478809Y-71712619D02*
X98783571Y-71560238D01*
X98935952Y-71407857D01*
X99088333Y-71103095D01*
X99088333Y-70188809D01*
X98935952Y-69884047D01*
X98783571Y-69731666D01*
X98478809Y-69579285D01*
X98021666Y-69579285D01*
X97716904Y-69731666D01*
X97564523Y-69884047D01*
X97412142Y-70188809D01*
X97412142Y-71103095D01*
X97564523Y-71407857D01*
X97716904Y-71560238D01*
X98021666Y-71712619D01*
X98478809Y-71712619D01*
X96497857Y-69579285D02*
X95278809Y-69579285D01*
X96040714Y-68512619D02*
X96040714Y-71255476D01*
X95888333Y-71560238D01*
X95583571Y-71712619D01*
X95278809Y-71712619D01*
X94212142Y-71712619D02*
X94212142Y-69579285D01*
X94212142Y-68512619D02*
X94364523Y-68665000D01*
X94212142Y-68817380D01*
X94059761Y-68665000D01*
X94212142Y-68512619D01*
X94212142Y-68817380D01*
X91316904Y-71560238D02*
X91621666Y-71712619D01*
X92231190Y-71712619D01*
X92535952Y-71560238D01*
X92688333Y-71407857D01*
X92840714Y-71103095D01*
X92840714Y-70188809D01*
X92688333Y-69884047D01*
X92535952Y-69731666D01*
X92231190Y-69579285D01*
X91621666Y-69579285D01*
X91316904Y-69731666D01*
X90097857Y-71560238D02*
X89793095Y-71712619D01*
X89183571Y-71712619D01*
X88878809Y-71560238D01*
X88726428Y-71255476D01*
X88726428Y-71103095D01*
X88878809Y-70798333D01*
X89183571Y-70645952D01*
X89640714Y-70645952D01*
X89945476Y-70493571D01*
X90097857Y-70188809D01*
X90097857Y-70036428D01*
X89945476Y-69731666D01*
X89640714Y-69579285D01*
X89183571Y-69579285D01*
X88878809Y-69731666D01*
X85374047Y-68512619D02*
X83545476Y-68512619D01*
X84459761Y-71712619D02*
X84459761Y-68512619D01*
X81259761Y-71560238D02*
X81564523Y-71712619D01*
X82174047Y-71712619D01*
X82478809Y-71560238D01*
X82631190Y-71255476D01*
X82631190Y-70036428D01*
X82478809Y-69731666D01*
X82174047Y-69579285D01*
X81564523Y-69579285D01*
X81259761Y-69731666D01*
X81107380Y-70036428D01*
X81107380Y-70341190D01*
X82631190Y-70645952D01*
X78364523Y-71712619D02*
X78364523Y-70036428D01*
X78516904Y-69731666D01*
X78821666Y-69579285D01*
X79431190Y-69579285D01*
X79735952Y-69731666D01*
X78364523Y-71560238D02*
X78669285Y-71712619D01*
X79431190Y-71712619D01*
X79735952Y-71560238D01*
X79888333Y-71255476D01*
X79888333Y-70950714D01*
X79735952Y-70645952D01*
X79431190Y-70493571D01*
X78669285Y-70493571D01*
X78364523Y-70341190D01*
X76840714Y-71712619D02*
X76840714Y-69579285D01*
X76840714Y-69884047D02*
X76688333Y-69731666D01*
X76383571Y-69579285D01*
X75926428Y-69579285D01*
X75621666Y-69731666D01*
X75469285Y-70036428D01*
X75469285Y-71712619D01*
X75469285Y-70036428D02*
X75316904Y-69731666D01*
X75012142Y-69579285D01*
X74555000Y-69579285D01*
X74250238Y-69731666D01*
X74097857Y-70036428D01*
X74097857Y-71712619D01*
X164764523Y-76707857D02*
X164916904Y-76860238D01*
X165374047Y-77012619D01*
X165678809Y-77012619D01*
X166135952Y-76860238D01*
X166440714Y-76555476D01*
X166593095Y-76250714D01*
X166745476Y-75641190D01*
X166745476Y-75184047D01*
X166593095Y-74574523D01*
X166440714Y-74269761D01*
X166135952Y-73965000D01*
X165678809Y-73812619D01*
X165374047Y-73812619D01*
X164916904Y-73965000D01*
X164764523Y-74117380D01*
X163545476Y-76098333D02*
X162021666Y-76098333D01*
X163850238Y-77012619D02*
X162783571Y-73812619D01*
X161716904Y-77012619D01*
X160650238Y-77012619D02*
X160650238Y-73812619D01*
X158821666Y-77012619D01*
X158821666Y-73812619D01*
X154859761Y-77012619D02*
X154859761Y-73812619D01*
X153640714Y-73812619D01*
X153335952Y-73965000D01*
X153183571Y-74117380D01*
X153031190Y-74422142D01*
X153031190Y-74879285D01*
X153183571Y-75184047D01*
X153335952Y-75336428D01*
X153640714Y-75488809D01*
X154859761Y-75488809D01*
X151659761Y-77012619D02*
X151659761Y-74879285D01*
X151659761Y-75488809D02*
X151507380Y-75184047D01*
X151355000Y-75031666D01*
X151050238Y-74879285D01*
X150745476Y-74879285D01*
X149221666Y-77012619D02*
X149526428Y-76860238D01*
X149678809Y-76707857D01*
X149831190Y-76403095D01*
X149831190Y-75488809D01*
X149678809Y-75184047D01*
X149526428Y-75031666D01*
X149221666Y-74879285D01*
X148764523Y-74879285D01*
X148459761Y-75031666D01*
X148307380Y-75184047D01*
X148155000Y-75488809D01*
X148155000Y-76403095D01*
X148307380Y-76707857D01*
X148459761Y-76860238D01*
X148764523Y-77012619D01*
X149221666Y-77012619D01*
X147240714Y-74879285D02*
X146021666Y-74879285D01*
X146783571Y-73812619D02*
X146783571Y-76555476D01*
X146631190Y-76860238D01*
X146326428Y-77012619D01*
X146021666Y-77012619D01*
X144497857Y-77012619D02*
X144802619Y-76860238D01*
X144955000Y-76707857D01*
X145107380Y-76403095D01*
X145107380Y-75488809D01*
X144955000Y-75184047D01*
X144802619Y-75031666D01*
X144497857Y-74879285D01*
X144040714Y-74879285D01*
X143735952Y-75031666D01*
X143583571Y-75184047D01*
X143431190Y-75488809D01*
X143431190Y-76403095D01*
X143583571Y-76707857D01*
X143735952Y-76860238D01*
X144040714Y-77012619D01*
X144497857Y-77012619D01*
X140688333Y-76860238D02*
X140993095Y-77012619D01*
X141602619Y-77012619D01*
X141907380Y-76860238D01*
X142059761Y-76707857D01*
X142212142Y-76403095D01*
X142212142Y-75488809D01*
X142059761Y-75184047D01*
X141907380Y-75031666D01*
X141602619Y-74879285D01*
X140993095Y-74879285D01*
X140688333Y-75031666D01*
X138859761Y-77012619D02*
X139164523Y-76860238D01*
X139316904Y-76707857D01*
X139469285Y-76403095D01*
X139469285Y-75488809D01*
X139316904Y-75184047D01*
X139164523Y-75031666D01*
X138859761Y-74879285D01*
X138402619Y-74879285D01*
X138097857Y-75031666D01*
X137945476Y-75184047D01*
X137793095Y-75488809D01*
X137793095Y-76403095D01*
X137945476Y-76707857D01*
X138097857Y-76860238D01*
X138402619Y-77012619D01*
X138859761Y-77012619D01*
X135964523Y-77012619D02*
X136269285Y-76860238D01*
X136421666Y-76555476D01*
X136421666Y-73812619D01*
X130021666Y-73660238D02*
X132764523Y-77774523D01*
X126516904Y-77012619D02*
X126516904Y-73812619D01*
X125755000Y-73812619D01*
X125297857Y-73965000D01*
X124993095Y-74269761D01*
X124840714Y-74574523D01*
X124688333Y-75184047D01*
X124688333Y-75641190D01*
X124840714Y-76250714D01*
X124993095Y-76555476D01*
X125297857Y-76860238D01*
X125755000Y-77012619D01*
X126516904Y-77012619D01*
X123316904Y-77012619D02*
X123316904Y-74879285D01*
X123316904Y-75488809D02*
X123164523Y-75184047D01*
X123012142Y-75031666D01*
X122707380Y-74879285D01*
X122402619Y-74879285D01*
X121335952Y-77012619D02*
X121335952Y-74879285D01*
X121335952Y-73812619D02*
X121488333Y-73965000D01*
X121335952Y-74117380D01*
X121183571Y-73965000D01*
X121335952Y-73812619D01*
X121335952Y-74117380D01*
X120116904Y-74879285D02*
X119355000Y-77012619D01*
X118593095Y-74879285D01*
X116155000Y-76860238D02*
X116459761Y-77012619D01*
X117069285Y-77012619D01*
X117374047Y-76860238D01*
X117526428Y-76555476D01*
X117526428Y-75336428D01*
X117374047Y-75031666D01*
X117069285Y-74879285D01*
X116459761Y-74879285D01*
X116155000Y-75031666D01*
X116002619Y-75336428D01*
X116002619Y-75641190D01*
X117526428Y-75945952D01*
X114631190Y-77012619D02*
X114631190Y-74879285D01*
X114631190Y-75488809D02*
X114478809Y-75184047D01*
X114326428Y-75031666D01*
X114021666Y-74879285D01*
X113716904Y-74879285D01*
X110669285Y-73812619D02*
X108840714Y-73812619D01*
X109755000Y-77012619D02*
X109755000Y-73812619D01*
X106555000Y-76860238D02*
X106859761Y-77012619D01*
X107469285Y-77012619D01*
X107774047Y-76860238D01*
X107926428Y-76555476D01*
X107926428Y-75336428D01*
X107774047Y-75031666D01*
X107469285Y-74879285D01*
X106859761Y-74879285D01*
X106555000Y-75031666D01*
X106402619Y-75336428D01*
X106402619Y-75641190D01*
X107926428Y-75945952D01*
X105183571Y-76860238D02*
X104878809Y-77012619D01*
X104269285Y-77012619D01*
X103964523Y-76860238D01*
X103812142Y-76555476D01*
X103812142Y-76403095D01*
X103964523Y-76098333D01*
X104269285Y-75945952D01*
X104726428Y-75945952D01*
X105031190Y-75793571D01*
X105183571Y-75488809D01*
X105183571Y-75336428D01*
X105031190Y-75031666D01*
X104726428Y-74879285D01*
X104269285Y-74879285D01*
X103964523Y-75031666D01*
X102897857Y-74879285D02*
X101678809Y-74879285D01*
X102440714Y-73812619D02*
X102440714Y-76555476D01*
X102288333Y-76860238D01*
X101983571Y-77012619D01*
X101678809Y-77012619D01*
X100612142Y-77012619D02*
X100612142Y-74879285D01*
X100612142Y-73812619D02*
X100764523Y-73965000D01*
X100612142Y-74117380D01*
X100459761Y-73965000D01*
X100612142Y-73812619D01*
X100612142Y-74117380D01*
X99088333Y-74879285D02*
X99088333Y-77012619D01*
X99088333Y-75184047D02*
X98935952Y-75031666D01*
X98631190Y-74879285D01*
X98174047Y-74879285D01*
X97869285Y-75031666D01*
X97716904Y-75336428D01*
X97716904Y-77012619D01*
X94821666Y-74879285D02*
X94821666Y-77469761D01*
X94974047Y-77774523D01*
X95126428Y-77926904D01*
X95431190Y-78079285D01*
X95888333Y-78079285D01*
X96193095Y-77926904D01*
X94821666Y-76860238D02*
X95126428Y-77012619D01*
X95735952Y-77012619D01*
X96040714Y-76860238D01*
X96193095Y-76707857D01*
X96345476Y-76403095D01*
X96345476Y-75488809D01*
X96193095Y-75184047D01*
X96040714Y-75031666D01*
X95735952Y-74879285D01*
X95126428Y-74879285D01*
X94821666Y-75031666D01*
X89793095Y-75336428D02*
X89335952Y-75488809D01*
X89183571Y-75641190D01*
X89031190Y-75945952D01*
X89031190Y-76403095D01*
X89183571Y-76707857D01*
X89335952Y-76860238D01*
X89640714Y-77012619D01*
X90859761Y-77012619D01*
X90859761Y-73812619D01*
X89793095Y-73812619D01*
X89488333Y-73965000D01*
X89335952Y-74117380D01*
X89183571Y-74422142D01*
X89183571Y-74726904D01*
X89335952Y-75031666D01*
X89488333Y-75184047D01*
X89793095Y-75336428D01*
X90859761Y-75336428D01*
X87202619Y-77012619D02*
X87507380Y-76860238D01*
X87659761Y-76707857D01*
X87812142Y-76403095D01*
X87812142Y-75488809D01*
X87659761Y-75184047D01*
X87507380Y-75031666D01*
X87202619Y-74879285D01*
X86745476Y-74879285D01*
X86440714Y-75031666D01*
X86288333Y-75184047D01*
X86135952Y-75488809D01*
X86135952Y-76403095D01*
X86288333Y-76707857D01*
X86440714Y-76860238D01*
X86745476Y-77012619D01*
X87202619Y-77012619D01*
X83393095Y-77012619D02*
X83393095Y-75336428D01*
X83545476Y-75031666D01*
X83850238Y-74879285D01*
X84459761Y-74879285D01*
X84764523Y-75031666D01*
X83393095Y-76860238D02*
X83697857Y-77012619D01*
X84459761Y-77012619D01*
X84764523Y-76860238D01*
X84916904Y-76555476D01*
X84916904Y-76250714D01*
X84764523Y-75945952D01*
X84459761Y-75793571D01*
X83697857Y-75793571D01*
X83393095Y-75641190D01*
X81869285Y-77012619D02*
X81869285Y-74879285D01*
X81869285Y-75488809D02*
X81716904Y-75184047D01*
X81564523Y-75031666D01*
X81259761Y-74879285D01*
X80955000Y-74879285D01*
X78516904Y-77012619D02*
X78516904Y-73812619D01*
X78516904Y-76860238D02*
X78821666Y-77012619D01*
X79431190Y-77012619D01*
X79735952Y-76860238D01*
X79888333Y-76707857D01*
X80040714Y-76403095D01*
X80040714Y-75488809D01*
X79888333Y-75184047D01*
X79735952Y-75031666D01*
X79431190Y-74879285D01*
X78821666Y-74879285D01*
X78516904Y-75031666D01*
X154935952Y-79112619D02*
X154935952Y-81398333D01*
X155088333Y-81855476D01*
X155393095Y-82160238D01*
X155850238Y-82312619D01*
X156155000Y-82312619D01*
X152040714Y-82312619D02*
X152040714Y-80636428D01*
X152193095Y-80331666D01*
X152497857Y-80179285D01*
X153107380Y-80179285D01*
X153412142Y-80331666D01*
X152040714Y-82160238D02*
X152345476Y-82312619D01*
X153107380Y-82312619D01*
X153412142Y-82160238D01*
X153564523Y-81855476D01*
X153564523Y-81550714D01*
X153412142Y-81245952D01*
X153107380Y-81093571D01*
X152345476Y-81093571D01*
X152040714Y-80941190D01*
X149145476Y-82160238D02*
X149450238Y-82312619D01*
X150059761Y-82312619D01*
X150364523Y-82160238D01*
X150516904Y-82007857D01*
X150669285Y-81703095D01*
X150669285Y-80788809D01*
X150516904Y-80484047D01*
X150364523Y-80331666D01*
X150059761Y-80179285D01*
X149450238Y-80179285D01*
X149145476Y-80331666D01*
X147774047Y-82312619D02*
X147774047Y-79112619D01*
X147469285Y-81093571D02*
X146555000Y-82312619D01*
X146555000Y-80179285D02*
X147774047Y-81398333D01*
X141831190Y-79112619D02*
X141831190Y-81398333D01*
X141983571Y-81855476D01*
X142288333Y-82160238D01*
X142745476Y-82312619D01*
X143050238Y-82312619D01*
X138935952Y-80179285D02*
X138935952Y-82312619D01*
X140307380Y-80179285D02*
X140307380Y-81855476D01*
X140155000Y-82160238D01*
X139850238Y-82312619D01*
X139393095Y-82312619D01*
X139088333Y-82160238D01*
X138935952Y-82007857D01*
X136040714Y-82312619D02*
X136040714Y-80636428D01*
X136193095Y-80331666D01*
X136497857Y-80179285D01*
X137107380Y-80179285D01*
X137412142Y-80331666D01*
X136040714Y-82160238D02*
X136345476Y-82312619D01*
X137107380Y-82312619D01*
X137412142Y-82160238D01*
X137564523Y-81855476D01*
X137564523Y-81550714D01*
X137412142Y-81245952D01*
X137107380Y-81093571D01*
X136345476Y-81093571D01*
X136040714Y-80941190D01*
X134516904Y-80179285D02*
X134516904Y-82312619D01*
X134516904Y-80484047D02*
X134364523Y-80331666D01*
X134059761Y-80179285D01*
X133602619Y-80179285D01*
X133297857Y-80331666D01*
X133145476Y-80636428D01*
X133145476Y-82312619D01*
X130250238Y-80179285D02*
X130250238Y-82769761D01*
X130402619Y-83074523D01*
X130554999Y-83226904D01*
X130859761Y-83379285D01*
X131316904Y-83379285D01*
X131621666Y-83226904D01*
X130250238Y-82160238D02*
X130554999Y-82312619D01*
X131164523Y-82312619D01*
X131469285Y-82160238D01*
X131621666Y-82007857D01*
X131774047Y-81703095D01*
X131774047Y-80788809D01*
X131621666Y-80484047D01*
X131469285Y-80331666D01*
X131164523Y-80179285D01*
X130554999Y-80179285D01*
X130250238Y-80331666D01*
X125526428Y-83379285D02*
X125526428Y-78807857D01*
X120954999Y-82160238D02*
X120497857Y-82312619D01*
X119735952Y-82312619D01*
X119431190Y-82160238D01*
X119278809Y-82007857D01*
X119126428Y-81703095D01*
X119126428Y-81398333D01*
X119278809Y-81093571D01*
X119431190Y-80941190D01*
X119735952Y-80788809D01*
X120345476Y-80636428D01*
X120650238Y-80484047D01*
X120802619Y-80331666D01*
X120954999Y-80026904D01*
X120954999Y-79722142D01*
X120802619Y-79417380D01*
X120650238Y-79265000D01*
X120345476Y-79112619D01*
X119583571Y-79112619D01*
X119126428Y-79265000D01*
X116078809Y-82312619D02*
X117907380Y-82312619D01*
X116993095Y-82312619D02*
X116993095Y-79112619D01*
X117297857Y-79569761D01*
X117602619Y-79874523D01*
X117907380Y-80026904D01*
X114707380Y-82007857D02*
X114554999Y-82160238D01*
X114707380Y-82312619D01*
X114859761Y-82160238D01*
X114707380Y-82007857D01*
X114707380Y-82312619D01*
X112574047Y-79112619D02*
X112269285Y-79112619D01*
X111964523Y-79265000D01*
X111812142Y-79417380D01*
X111659761Y-79722142D01*
X111507380Y-80331666D01*
X111507380Y-81093571D01*
X111659761Y-81703095D01*
X111812142Y-82007857D01*
X111964523Y-82160238D01*
X112269285Y-82312619D01*
X112574047Y-82312619D01*
X112878809Y-82160238D01*
X113031190Y-82007857D01*
X113183571Y-81703095D01*
X113335952Y-81093571D01*
X113335952Y-80331666D01*
X113183571Y-79722142D01*
X113031190Y-79417380D01*
X112878809Y-79265000D01*
X112574047Y-79112619D01*
X110135952Y-82007857D02*
X109983571Y-82160238D01*
X110135952Y-82312619D01*
X110288333Y-82160238D01*
X110135952Y-82007857D01*
X110135952Y-82312619D01*
X108002619Y-79112619D02*
X107697857Y-79112619D01*
X107393095Y-79265000D01*
X107240714Y-79417380D01*
X107088333Y-79722142D01*
X106935952Y-80331666D01*
X106935952Y-81093571D01*
X107088333Y-81703095D01*
X107240714Y-82007857D01*
X107393095Y-82160238D01*
X107697857Y-82312619D01*
X108002619Y-82312619D01*
X108307380Y-82160238D01*
X108459761Y-82007857D01*
X108612142Y-81703095D01*
X108764523Y-81093571D01*
X108764523Y-80331666D01*
X108612142Y-79722142D01*
X108459761Y-79417380D01*
X108307380Y-79265000D01*
X108002619Y-79112619D01*
X102059761Y-80636428D02*
X101602619Y-80788809D01*
X101450238Y-80941190D01*
X101297857Y-81245952D01*
X101297857Y-81703095D01*
X101450238Y-82007857D01*
X101602619Y-82160238D01*
X101907380Y-82312619D01*
X103126428Y-82312619D01*
X103126428Y-79112619D01*
X102059761Y-79112619D01*
X101754999Y-79265000D01*
X101602619Y-79417380D01*
X101450238Y-79722142D01*
X101450238Y-80026904D01*
X101602619Y-80331666D01*
X101754999Y-80484047D01*
X102059761Y-80636428D01*
X103126428Y-80636428D01*
X98250238Y-82312619D02*
X100078809Y-82312619D01*
X99164523Y-82312619D02*
X99164523Y-79112619D01*
X99469285Y-79569761D01*
X99774047Y-79874523D01*
X100078809Y-80026904D01*
X96878809Y-82007857D02*
X96726428Y-82160238D01*
X96878809Y-82312619D01*
X97031190Y-82160238D01*
X96878809Y-82007857D01*
X96878809Y-82312619D01*
X94745476Y-79112619D02*
X94440714Y-79112619D01*
X94135952Y-79265000D01*
X93983571Y-79417380D01*
X93831190Y-79722142D01*
X93678809Y-80331666D01*
X93678809Y-81093571D01*
X93831190Y-81703095D01*
X93983571Y-82007857D01*
X94135952Y-82160238D01*
X94440714Y-82312619D01*
X94745476Y-82312619D01*
X95050238Y-82160238D01*
X95202619Y-82007857D01*
X95354999Y-81703095D01*
X95507380Y-81093571D01*
X95507380Y-80331666D01*
X95354999Y-79722142D01*
X95202619Y-79417380D01*
X95050238Y-79265000D01*
X94745476Y-79112619D01*
X92307380Y-82007857D02*
X92154999Y-82160238D01*
X92307380Y-82312619D01*
X92459761Y-82160238D01*
X92307380Y-82007857D01*
X92307380Y-82312619D01*
X90174047Y-79112619D02*
X89869285Y-79112619D01*
X89564523Y-79265000D01*
X89412142Y-79417380D01*
X89259761Y-79722142D01*
X89107380Y-80331666D01*
X89107380Y-81093571D01*
X89259761Y-81703095D01*
X89412142Y-82007857D01*
X89564523Y-82160238D01*
X89869285Y-82312619D01*
X90174047Y-82312619D01*
X90478809Y-82160238D01*
X90631190Y-82007857D01*
X90783571Y-81703095D01*
X90935952Y-81093571D01*
X90935952Y-80331666D01*
X90783571Y-79722142D01*
X90631190Y-79417380D01*
X90478809Y-79265000D01*
X90174047Y-79112619D01*
M02*
