G04 #@! TF.GenerationSoftware,KiCad,Pcbnew,(5.0.1)-3*
G04 #@! TF.CreationDate,2018-11-04T18:55:45-06:00*
G04 #@! TF.ProjectId,ProofOfConceptBoardV1,50726F6F664F66436F6E63657074426F,rev?*
G04 #@! TF.SameCoordinates,Original*
G04 #@! TF.FileFunction,Paste,Top*
G04 #@! TF.FilePolarity,Positive*
%FSLAX46Y46*%
G04 Gerber Fmt 4.6, Leading zero omitted, Abs format (unit mm)*
G04 Created by KiCad (PCBNEW (5.0.1)-3) date 11/4/2018 6:55:45 PM*
%MOMM*%
%LPD*%
G01*
G04 APERTURE LIST*
%ADD10R,2.500000X1.900000*%
%ADD11C,0.100000*%
%ADD12C,0.875000*%
%ADD13R,1.450000X0.450000*%
%ADD14R,1.550000X0.600000*%
%ADD15R,1.600000X0.650000*%
G04 APERTURE END LIST*
D10*
G04 #@! TO.C,Crystal1*
X164699951Y-80324851D03*
X164699951Y-75924851D03*
G04 #@! TD*
D11*
G04 #@! TO.C,D6*
G36*
X98829691Y-60549053D02*
X98850926Y-60552203D01*
X98871750Y-60557419D01*
X98891962Y-60564651D01*
X98911368Y-60573830D01*
X98929781Y-60584866D01*
X98947024Y-60597654D01*
X98962930Y-60612070D01*
X98977346Y-60627976D01*
X98990134Y-60645219D01*
X99001170Y-60663632D01*
X99010349Y-60683038D01*
X99017581Y-60703250D01*
X99022797Y-60724074D01*
X99025947Y-60745309D01*
X99027000Y-60766750D01*
X99027000Y-61204250D01*
X99025947Y-61225691D01*
X99022797Y-61246926D01*
X99017581Y-61267750D01*
X99010349Y-61287962D01*
X99001170Y-61307368D01*
X98990134Y-61325781D01*
X98977346Y-61343024D01*
X98962930Y-61358930D01*
X98947024Y-61373346D01*
X98929781Y-61386134D01*
X98911368Y-61397170D01*
X98891962Y-61406349D01*
X98871750Y-61413581D01*
X98850926Y-61418797D01*
X98829691Y-61421947D01*
X98808250Y-61423000D01*
X98295750Y-61423000D01*
X98274309Y-61421947D01*
X98253074Y-61418797D01*
X98232250Y-61413581D01*
X98212038Y-61406349D01*
X98192632Y-61397170D01*
X98174219Y-61386134D01*
X98156976Y-61373346D01*
X98141070Y-61358930D01*
X98126654Y-61343024D01*
X98113866Y-61325781D01*
X98102830Y-61307368D01*
X98093651Y-61287962D01*
X98086419Y-61267750D01*
X98081203Y-61246926D01*
X98078053Y-61225691D01*
X98077000Y-61204250D01*
X98077000Y-60766750D01*
X98078053Y-60745309D01*
X98081203Y-60724074D01*
X98086419Y-60703250D01*
X98093651Y-60683038D01*
X98102830Y-60663632D01*
X98113866Y-60645219D01*
X98126654Y-60627976D01*
X98141070Y-60612070D01*
X98156976Y-60597654D01*
X98174219Y-60584866D01*
X98192632Y-60573830D01*
X98212038Y-60564651D01*
X98232250Y-60557419D01*
X98253074Y-60552203D01*
X98274309Y-60549053D01*
X98295750Y-60548000D01*
X98808250Y-60548000D01*
X98829691Y-60549053D01*
X98829691Y-60549053D01*
G37*
D12*
X98552000Y-60985500D03*
D11*
G36*
X98829691Y-62124053D02*
X98850926Y-62127203D01*
X98871750Y-62132419D01*
X98891962Y-62139651D01*
X98911368Y-62148830D01*
X98929781Y-62159866D01*
X98947024Y-62172654D01*
X98962930Y-62187070D01*
X98977346Y-62202976D01*
X98990134Y-62220219D01*
X99001170Y-62238632D01*
X99010349Y-62258038D01*
X99017581Y-62278250D01*
X99022797Y-62299074D01*
X99025947Y-62320309D01*
X99027000Y-62341750D01*
X99027000Y-62779250D01*
X99025947Y-62800691D01*
X99022797Y-62821926D01*
X99017581Y-62842750D01*
X99010349Y-62862962D01*
X99001170Y-62882368D01*
X98990134Y-62900781D01*
X98977346Y-62918024D01*
X98962930Y-62933930D01*
X98947024Y-62948346D01*
X98929781Y-62961134D01*
X98911368Y-62972170D01*
X98891962Y-62981349D01*
X98871750Y-62988581D01*
X98850926Y-62993797D01*
X98829691Y-62996947D01*
X98808250Y-62998000D01*
X98295750Y-62998000D01*
X98274309Y-62996947D01*
X98253074Y-62993797D01*
X98232250Y-62988581D01*
X98212038Y-62981349D01*
X98192632Y-62972170D01*
X98174219Y-62961134D01*
X98156976Y-62948346D01*
X98141070Y-62933930D01*
X98126654Y-62918024D01*
X98113866Y-62900781D01*
X98102830Y-62882368D01*
X98093651Y-62862962D01*
X98086419Y-62842750D01*
X98081203Y-62821926D01*
X98078053Y-62800691D01*
X98077000Y-62779250D01*
X98077000Y-62341750D01*
X98078053Y-62320309D01*
X98081203Y-62299074D01*
X98086419Y-62278250D01*
X98093651Y-62258038D01*
X98102830Y-62238632D01*
X98113866Y-62220219D01*
X98126654Y-62202976D01*
X98141070Y-62187070D01*
X98156976Y-62172654D01*
X98174219Y-62159866D01*
X98192632Y-62148830D01*
X98212038Y-62139651D01*
X98232250Y-62132419D01*
X98253074Y-62127203D01*
X98274309Y-62124053D01*
X98295750Y-62123000D01*
X98808250Y-62123000D01*
X98829691Y-62124053D01*
X98829691Y-62124053D01*
G37*
D12*
X98552000Y-62560500D03*
G04 #@! TD*
D11*
G04 #@! TO.C,R10*
G36*
X102639691Y-62226053D02*
X102660926Y-62229203D01*
X102681750Y-62234419D01*
X102701962Y-62241651D01*
X102721368Y-62250830D01*
X102739781Y-62261866D01*
X102757024Y-62274654D01*
X102772930Y-62289070D01*
X102787346Y-62304976D01*
X102800134Y-62322219D01*
X102811170Y-62340632D01*
X102820349Y-62360038D01*
X102827581Y-62380250D01*
X102832797Y-62401074D01*
X102835947Y-62422309D01*
X102837000Y-62443750D01*
X102837000Y-62881250D01*
X102835947Y-62902691D01*
X102832797Y-62923926D01*
X102827581Y-62944750D01*
X102820349Y-62964962D01*
X102811170Y-62984368D01*
X102800134Y-63002781D01*
X102787346Y-63020024D01*
X102772930Y-63035930D01*
X102757024Y-63050346D01*
X102739781Y-63063134D01*
X102721368Y-63074170D01*
X102701962Y-63083349D01*
X102681750Y-63090581D01*
X102660926Y-63095797D01*
X102639691Y-63098947D01*
X102618250Y-63100000D01*
X102105750Y-63100000D01*
X102084309Y-63098947D01*
X102063074Y-63095797D01*
X102042250Y-63090581D01*
X102022038Y-63083349D01*
X102002632Y-63074170D01*
X101984219Y-63063134D01*
X101966976Y-63050346D01*
X101951070Y-63035930D01*
X101936654Y-63020024D01*
X101923866Y-63002781D01*
X101912830Y-62984368D01*
X101903651Y-62964962D01*
X101896419Y-62944750D01*
X101891203Y-62923926D01*
X101888053Y-62902691D01*
X101887000Y-62881250D01*
X101887000Y-62443750D01*
X101888053Y-62422309D01*
X101891203Y-62401074D01*
X101896419Y-62380250D01*
X101903651Y-62360038D01*
X101912830Y-62340632D01*
X101923866Y-62322219D01*
X101936654Y-62304976D01*
X101951070Y-62289070D01*
X101966976Y-62274654D01*
X101984219Y-62261866D01*
X102002632Y-62250830D01*
X102022038Y-62241651D01*
X102042250Y-62234419D01*
X102063074Y-62229203D01*
X102084309Y-62226053D01*
X102105750Y-62225000D01*
X102618250Y-62225000D01*
X102639691Y-62226053D01*
X102639691Y-62226053D01*
G37*
D12*
X102362000Y-62662500D03*
D11*
G36*
X102639691Y-60651053D02*
X102660926Y-60654203D01*
X102681750Y-60659419D01*
X102701962Y-60666651D01*
X102721368Y-60675830D01*
X102739781Y-60686866D01*
X102757024Y-60699654D01*
X102772930Y-60714070D01*
X102787346Y-60729976D01*
X102800134Y-60747219D01*
X102811170Y-60765632D01*
X102820349Y-60785038D01*
X102827581Y-60805250D01*
X102832797Y-60826074D01*
X102835947Y-60847309D01*
X102837000Y-60868750D01*
X102837000Y-61306250D01*
X102835947Y-61327691D01*
X102832797Y-61348926D01*
X102827581Y-61369750D01*
X102820349Y-61389962D01*
X102811170Y-61409368D01*
X102800134Y-61427781D01*
X102787346Y-61445024D01*
X102772930Y-61460930D01*
X102757024Y-61475346D01*
X102739781Y-61488134D01*
X102721368Y-61499170D01*
X102701962Y-61508349D01*
X102681750Y-61515581D01*
X102660926Y-61520797D01*
X102639691Y-61523947D01*
X102618250Y-61525000D01*
X102105750Y-61525000D01*
X102084309Y-61523947D01*
X102063074Y-61520797D01*
X102042250Y-61515581D01*
X102022038Y-61508349D01*
X102002632Y-61499170D01*
X101984219Y-61488134D01*
X101966976Y-61475346D01*
X101951070Y-61460930D01*
X101936654Y-61445024D01*
X101923866Y-61427781D01*
X101912830Y-61409368D01*
X101903651Y-61389962D01*
X101896419Y-61369750D01*
X101891203Y-61348926D01*
X101888053Y-61327691D01*
X101887000Y-61306250D01*
X101887000Y-60868750D01*
X101888053Y-60847309D01*
X101891203Y-60826074D01*
X101896419Y-60805250D01*
X101903651Y-60785038D01*
X101912830Y-60765632D01*
X101923866Y-60747219D01*
X101936654Y-60729976D01*
X101951070Y-60714070D01*
X101966976Y-60699654D01*
X101984219Y-60686866D01*
X102002632Y-60675830D01*
X102022038Y-60666651D01*
X102042250Y-60659419D01*
X102063074Y-60654203D01*
X102084309Y-60651053D01*
X102105750Y-60650000D01*
X102618250Y-60650000D01*
X102639691Y-60651053D01*
X102639691Y-60651053D01*
G37*
D12*
X102362000Y-61087500D03*
G04 #@! TD*
D13*
G04 #@! TO.C,U1*
X154276000Y-73283000D03*
X154276000Y-72633000D03*
X154276000Y-71983000D03*
X154276000Y-71333000D03*
X154276000Y-70683000D03*
X154276000Y-70033000D03*
X154276000Y-69383000D03*
X154276000Y-68733000D03*
X154276000Y-68083000D03*
X154276000Y-67433000D03*
X160176000Y-67433000D03*
X160176000Y-68083000D03*
X160176000Y-68733000D03*
X160176000Y-69383000D03*
X160176000Y-70033000D03*
X160176000Y-70683000D03*
X160176000Y-71333000D03*
X160176000Y-71983000D03*
X160176000Y-72633000D03*
X160176000Y-73283000D03*
G04 #@! TD*
D11*
G04 #@! TO.C,R6*
G36*
X100145691Y-79939053D02*
X100166926Y-79942203D01*
X100187750Y-79947419D01*
X100207962Y-79954651D01*
X100227368Y-79963830D01*
X100245781Y-79974866D01*
X100263024Y-79987654D01*
X100278930Y-80002070D01*
X100293346Y-80017976D01*
X100306134Y-80035219D01*
X100317170Y-80053632D01*
X100326349Y-80073038D01*
X100333581Y-80093250D01*
X100338797Y-80114074D01*
X100341947Y-80135309D01*
X100343000Y-80156750D01*
X100343000Y-80594250D01*
X100341947Y-80615691D01*
X100338797Y-80636926D01*
X100333581Y-80657750D01*
X100326349Y-80677962D01*
X100317170Y-80697368D01*
X100306134Y-80715781D01*
X100293346Y-80733024D01*
X100278930Y-80748930D01*
X100263024Y-80763346D01*
X100245781Y-80776134D01*
X100227368Y-80787170D01*
X100207962Y-80796349D01*
X100187750Y-80803581D01*
X100166926Y-80808797D01*
X100145691Y-80811947D01*
X100124250Y-80813000D01*
X99611750Y-80813000D01*
X99590309Y-80811947D01*
X99569074Y-80808797D01*
X99548250Y-80803581D01*
X99528038Y-80796349D01*
X99508632Y-80787170D01*
X99490219Y-80776134D01*
X99472976Y-80763346D01*
X99457070Y-80748930D01*
X99442654Y-80733024D01*
X99429866Y-80715781D01*
X99418830Y-80697368D01*
X99409651Y-80677962D01*
X99402419Y-80657750D01*
X99397203Y-80636926D01*
X99394053Y-80615691D01*
X99393000Y-80594250D01*
X99393000Y-80156750D01*
X99394053Y-80135309D01*
X99397203Y-80114074D01*
X99402419Y-80093250D01*
X99409651Y-80073038D01*
X99418830Y-80053632D01*
X99429866Y-80035219D01*
X99442654Y-80017976D01*
X99457070Y-80002070D01*
X99472976Y-79987654D01*
X99490219Y-79974866D01*
X99508632Y-79963830D01*
X99528038Y-79954651D01*
X99548250Y-79947419D01*
X99569074Y-79942203D01*
X99590309Y-79939053D01*
X99611750Y-79938000D01*
X100124250Y-79938000D01*
X100145691Y-79939053D01*
X100145691Y-79939053D01*
G37*
D12*
X99868000Y-80375500D03*
D11*
G36*
X100145691Y-78364053D02*
X100166926Y-78367203D01*
X100187750Y-78372419D01*
X100207962Y-78379651D01*
X100227368Y-78388830D01*
X100245781Y-78399866D01*
X100263024Y-78412654D01*
X100278930Y-78427070D01*
X100293346Y-78442976D01*
X100306134Y-78460219D01*
X100317170Y-78478632D01*
X100326349Y-78498038D01*
X100333581Y-78518250D01*
X100338797Y-78539074D01*
X100341947Y-78560309D01*
X100343000Y-78581750D01*
X100343000Y-79019250D01*
X100341947Y-79040691D01*
X100338797Y-79061926D01*
X100333581Y-79082750D01*
X100326349Y-79102962D01*
X100317170Y-79122368D01*
X100306134Y-79140781D01*
X100293346Y-79158024D01*
X100278930Y-79173930D01*
X100263024Y-79188346D01*
X100245781Y-79201134D01*
X100227368Y-79212170D01*
X100207962Y-79221349D01*
X100187750Y-79228581D01*
X100166926Y-79233797D01*
X100145691Y-79236947D01*
X100124250Y-79238000D01*
X99611750Y-79238000D01*
X99590309Y-79236947D01*
X99569074Y-79233797D01*
X99548250Y-79228581D01*
X99528038Y-79221349D01*
X99508632Y-79212170D01*
X99490219Y-79201134D01*
X99472976Y-79188346D01*
X99457070Y-79173930D01*
X99442654Y-79158024D01*
X99429866Y-79140781D01*
X99418830Y-79122368D01*
X99409651Y-79102962D01*
X99402419Y-79082750D01*
X99397203Y-79061926D01*
X99394053Y-79040691D01*
X99393000Y-79019250D01*
X99393000Y-78581750D01*
X99394053Y-78560309D01*
X99397203Y-78539074D01*
X99402419Y-78518250D01*
X99409651Y-78498038D01*
X99418830Y-78478632D01*
X99429866Y-78460219D01*
X99442654Y-78442976D01*
X99457070Y-78427070D01*
X99472976Y-78412654D01*
X99490219Y-78399866D01*
X99508632Y-78388830D01*
X99528038Y-78379651D01*
X99548250Y-78372419D01*
X99569074Y-78367203D01*
X99590309Y-78364053D01*
X99611750Y-78363000D01*
X100124250Y-78363000D01*
X100145691Y-78364053D01*
X100145691Y-78364053D01*
G37*
D12*
X99868000Y-78800500D03*
G04 #@! TD*
D14*
G04 #@! TO.C,A3*
X145956000Y-66675000D03*
X145956000Y-65405000D03*
X145956000Y-64135000D03*
X145956000Y-62865000D03*
X140556000Y-62865000D03*
X140556000Y-64135000D03*
X140556000Y-65405000D03*
X140556000Y-66675000D03*
G04 #@! TD*
G04 #@! TO.C,A4*
X106078000Y-66421000D03*
X106078000Y-67691000D03*
X106078000Y-68961000D03*
X106078000Y-70231000D03*
X100678000Y-70231000D03*
X100678000Y-68961000D03*
X100678000Y-67691000D03*
X100678000Y-66421000D03*
G04 #@! TD*
D11*
G04 #@! TO.C,C2*
G36*
X172743691Y-77338553D02*
X172764926Y-77341703D01*
X172785750Y-77346919D01*
X172805962Y-77354151D01*
X172825368Y-77363330D01*
X172843781Y-77374366D01*
X172861024Y-77387154D01*
X172876930Y-77401570D01*
X172891346Y-77417476D01*
X172904134Y-77434719D01*
X172915170Y-77453132D01*
X172924349Y-77472538D01*
X172931581Y-77492750D01*
X172936797Y-77513574D01*
X172939947Y-77534809D01*
X172941000Y-77556250D01*
X172941000Y-77993750D01*
X172939947Y-78015191D01*
X172936797Y-78036426D01*
X172931581Y-78057250D01*
X172924349Y-78077462D01*
X172915170Y-78096868D01*
X172904134Y-78115281D01*
X172891346Y-78132524D01*
X172876930Y-78148430D01*
X172861024Y-78162846D01*
X172843781Y-78175634D01*
X172825368Y-78186670D01*
X172805962Y-78195849D01*
X172785750Y-78203081D01*
X172764926Y-78208297D01*
X172743691Y-78211447D01*
X172722250Y-78212500D01*
X172209750Y-78212500D01*
X172188309Y-78211447D01*
X172167074Y-78208297D01*
X172146250Y-78203081D01*
X172126038Y-78195849D01*
X172106632Y-78186670D01*
X172088219Y-78175634D01*
X172070976Y-78162846D01*
X172055070Y-78148430D01*
X172040654Y-78132524D01*
X172027866Y-78115281D01*
X172016830Y-78096868D01*
X172007651Y-78077462D01*
X172000419Y-78057250D01*
X171995203Y-78036426D01*
X171992053Y-78015191D01*
X171991000Y-77993750D01*
X171991000Y-77556250D01*
X171992053Y-77534809D01*
X171995203Y-77513574D01*
X172000419Y-77492750D01*
X172007651Y-77472538D01*
X172016830Y-77453132D01*
X172027866Y-77434719D01*
X172040654Y-77417476D01*
X172055070Y-77401570D01*
X172070976Y-77387154D01*
X172088219Y-77374366D01*
X172106632Y-77363330D01*
X172126038Y-77354151D01*
X172146250Y-77346919D01*
X172167074Y-77341703D01*
X172188309Y-77338553D01*
X172209750Y-77337500D01*
X172722250Y-77337500D01*
X172743691Y-77338553D01*
X172743691Y-77338553D01*
G37*
D12*
X172466000Y-77775000D03*
D11*
G36*
X172743691Y-75763553D02*
X172764926Y-75766703D01*
X172785750Y-75771919D01*
X172805962Y-75779151D01*
X172825368Y-75788330D01*
X172843781Y-75799366D01*
X172861024Y-75812154D01*
X172876930Y-75826570D01*
X172891346Y-75842476D01*
X172904134Y-75859719D01*
X172915170Y-75878132D01*
X172924349Y-75897538D01*
X172931581Y-75917750D01*
X172936797Y-75938574D01*
X172939947Y-75959809D01*
X172941000Y-75981250D01*
X172941000Y-76418750D01*
X172939947Y-76440191D01*
X172936797Y-76461426D01*
X172931581Y-76482250D01*
X172924349Y-76502462D01*
X172915170Y-76521868D01*
X172904134Y-76540281D01*
X172891346Y-76557524D01*
X172876930Y-76573430D01*
X172861024Y-76587846D01*
X172843781Y-76600634D01*
X172825368Y-76611670D01*
X172805962Y-76620849D01*
X172785750Y-76628081D01*
X172764926Y-76633297D01*
X172743691Y-76636447D01*
X172722250Y-76637500D01*
X172209750Y-76637500D01*
X172188309Y-76636447D01*
X172167074Y-76633297D01*
X172146250Y-76628081D01*
X172126038Y-76620849D01*
X172106632Y-76611670D01*
X172088219Y-76600634D01*
X172070976Y-76587846D01*
X172055070Y-76573430D01*
X172040654Y-76557524D01*
X172027866Y-76540281D01*
X172016830Y-76521868D01*
X172007651Y-76502462D01*
X172000419Y-76482250D01*
X171995203Y-76461426D01*
X171992053Y-76440191D01*
X171991000Y-76418750D01*
X171991000Y-75981250D01*
X171992053Y-75959809D01*
X171995203Y-75938574D01*
X172000419Y-75917750D01*
X172007651Y-75897538D01*
X172016830Y-75878132D01*
X172027866Y-75859719D01*
X172040654Y-75842476D01*
X172055070Y-75826570D01*
X172070976Y-75812154D01*
X172088219Y-75799366D01*
X172106632Y-75788330D01*
X172126038Y-75779151D01*
X172146250Y-75771919D01*
X172167074Y-75766703D01*
X172188309Y-75763553D01*
X172209750Y-75762500D01*
X172722250Y-75762500D01*
X172743691Y-75763553D01*
X172743691Y-75763553D01*
G37*
D12*
X172466000Y-76200000D03*
G04 #@! TD*
D11*
G04 #@! TO.C,C3*
G36*
X112736691Y-81314053D02*
X112757926Y-81317203D01*
X112778750Y-81322419D01*
X112798962Y-81329651D01*
X112818368Y-81338830D01*
X112836781Y-81349866D01*
X112854024Y-81362654D01*
X112869930Y-81377070D01*
X112884346Y-81392976D01*
X112897134Y-81410219D01*
X112908170Y-81428632D01*
X112917349Y-81448038D01*
X112924581Y-81468250D01*
X112929797Y-81489074D01*
X112932947Y-81510309D01*
X112934000Y-81531750D01*
X112934000Y-82044250D01*
X112932947Y-82065691D01*
X112929797Y-82086926D01*
X112924581Y-82107750D01*
X112917349Y-82127962D01*
X112908170Y-82147368D01*
X112897134Y-82165781D01*
X112884346Y-82183024D01*
X112869930Y-82198930D01*
X112854024Y-82213346D01*
X112836781Y-82226134D01*
X112818368Y-82237170D01*
X112798962Y-82246349D01*
X112778750Y-82253581D01*
X112757926Y-82258797D01*
X112736691Y-82261947D01*
X112715250Y-82263000D01*
X112277750Y-82263000D01*
X112256309Y-82261947D01*
X112235074Y-82258797D01*
X112214250Y-82253581D01*
X112194038Y-82246349D01*
X112174632Y-82237170D01*
X112156219Y-82226134D01*
X112138976Y-82213346D01*
X112123070Y-82198930D01*
X112108654Y-82183024D01*
X112095866Y-82165781D01*
X112084830Y-82147368D01*
X112075651Y-82127962D01*
X112068419Y-82107750D01*
X112063203Y-82086926D01*
X112060053Y-82065691D01*
X112059000Y-82044250D01*
X112059000Y-81531750D01*
X112060053Y-81510309D01*
X112063203Y-81489074D01*
X112068419Y-81468250D01*
X112075651Y-81448038D01*
X112084830Y-81428632D01*
X112095866Y-81410219D01*
X112108654Y-81392976D01*
X112123070Y-81377070D01*
X112138976Y-81362654D01*
X112156219Y-81349866D01*
X112174632Y-81338830D01*
X112194038Y-81329651D01*
X112214250Y-81322419D01*
X112235074Y-81317203D01*
X112256309Y-81314053D01*
X112277750Y-81313000D01*
X112715250Y-81313000D01*
X112736691Y-81314053D01*
X112736691Y-81314053D01*
G37*
D12*
X112496500Y-81788000D03*
D11*
G36*
X114311691Y-81314053D02*
X114332926Y-81317203D01*
X114353750Y-81322419D01*
X114373962Y-81329651D01*
X114393368Y-81338830D01*
X114411781Y-81349866D01*
X114429024Y-81362654D01*
X114444930Y-81377070D01*
X114459346Y-81392976D01*
X114472134Y-81410219D01*
X114483170Y-81428632D01*
X114492349Y-81448038D01*
X114499581Y-81468250D01*
X114504797Y-81489074D01*
X114507947Y-81510309D01*
X114509000Y-81531750D01*
X114509000Y-82044250D01*
X114507947Y-82065691D01*
X114504797Y-82086926D01*
X114499581Y-82107750D01*
X114492349Y-82127962D01*
X114483170Y-82147368D01*
X114472134Y-82165781D01*
X114459346Y-82183024D01*
X114444930Y-82198930D01*
X114429024Y-82213346D01*
X114411781Y-82226134D01*
X114393368Y-82237170D01*
X114373962Y-82246349D01*
X114353750Y-82253581D01*
X114332926Y-82258797D01*
X114311691Y-82261947D01*
X114290250Y-82263000D01*
X113852750Y-82263000D01*
X113831309Y-82261947D01*
X113810074Y-82258797D01*
X113789250Y-82253581D01*
X113769038Y-82246349D01*
X113749632Y-82237170D01*
X113731219Y-82226134D01*
X113713976Y-82213346D01*
X113698070Y-82198930D01*
X113683654Y-82183024D01*
X113670866Y-82165781D01*
X113659830Y-82147368D01*
X113650651Y-82127962D01*
X113643419Y-82107750D01*
X113638203Y-82086926D01*
X113635053Y-82065691D01*
X113634000Y-82044250D01*
X113634000Y-81531750D01*
X113635053Y-81510309D01*
X113638203Y-81489074D01*
X113643419Y-81468250D01*
X113650651Y-81448038D01*
X113659830Y-81428632D01*
X113670866Y-81410219D01*
X113683654Y-81392976D01*
X113698070Y-81377070D01*
X113713976Y-81362654D01*
X113731219Y-81349866D01*
X113749632Y-81338830D01*
X113769038Y-81329651D01*
X113789250Y-81322419D01*
X113810074Y-81317203D01*
X113831309Y-81314053D01*
X113852750Y-81313000D01*
X114290250Y-81313000D01*
X114311691Y-81314053D01*
X114311691Y-81314053D01*
G37*
D12*
X114071500Y-81788000D03*
G04 #@! TD*
D11*
G04 #@! TO.C,C4*
G36*
X171981691Y-81631053D02*
X172002926Y-81634203D01*
X172023750Y-81639419D01*
X172043962Y-81646651D01*
X172063368Y-81655830D01*
X172081781Y-81666866D01*
X172099024Y-81679654D01*
X172114930Y-81694070D01*
X172129346Y-81709976D01*
X172142134Y-81727219D01*
X172153170Y-81745632D01*
X172162349Y-81765038D01*
X172169581Y-81785250D01*
X172174797Y-81806074D01*
X172177947Y-81827309D01*
X172179000Y-81848750D01*
X172179000Y-82286250D01*
X172177947Y-82307691D01*
X172174797Y-82328926D01*
X172169581Y-82349750D01*
X172162349Y-82369962D01*
X172153170Y-82389368D01*
X172142134Y-82407781D01*
X172129346Y-82425024D01*
X172114930Y-82440930D01*
X172099024Y-82455346D01*
X172081781Y-82468134D01*
X172063368Y-82479170D01*
X172043962Y-82488349D01*
X172023750Y-82495581D01*
X172002926Y-82500797D01*
X171981691Y-82503947D01*
X171960250Y-82505000D01*
X171447750Y-82505000D01*
X171426309Y-82503947D01*
X171405074Y-82500797D01*
X171384250Y-82495581D01*
X171364038Y-82488349D01*
X171344632Y-82479170D01*
X171326219Y-82468134D01*
X171308976Y-82455346D01*
X171293070Y-82440930D01*
X171278654Y-82425024D01*
X171265866Y-82407781D01*
X171254830Y-82389368D01*
X171245651Y-82369962D01*
X171238419Y-82349750D01*
X171233203Y-82328926D01*
X171230053Y-82307691D01*
X171229000Y-82286250D01*
X171229000Y-81848750D01*
X171230053Y-81827309D01*
X171233203Y-81806074D01*
X171238419Y-81785250D01*
X171245651Y-81765038D01*
X171254830Y-81745632D01*
X171265866Y-81727219D01*
X171278654Y-81709976D01*
X171293070Y-81694070D01*
X171308976Y-81679654D01*
X171326219Y-81666866D01*
X171344632Y-81655830D01*
X171364038Y-81646651D01*
X171384250Y-81639419D01*
X171405074Y-81634203D01*
X171426309Y-81631053D01*
X171447750Y-81630000D01*
X171960250Y-81630000D01*
X171981691Y-81631053D01*
X171981691Y-81631053D01*
G37*
D12*
X171704000Y-82067500D03*
D11*
G36*
X171981691Y-80056053D02*
X172002926Y-80059203D01*
X172023750Y-80064419D01*
X172043962Y-80071651D01*
X172063368Y-80080830D01*
X172081781Y-80091866D01*
X172099024Y-80104654D01*
X172114930Y-80119070D01*
X172129346Y-80134976D01*
X172142134Y-80152219D01*
X172153170Y-80170632D01*
X172162349Y-80190038D01*
X172169581Y-80210250D01*
X172174797Y-80231074D01*
X172177947Y-80252309D01*
X172179000Y-80273750D01*
X172179000Y-80711250D01*
X172177947Y-80732691D01*
X172174797Y-80753926D01*
X172169581Y-80774750D01*
X172162349Y-80794962D01*
X172153170Y-80814368D01*
X172142134Y-80832781D01*
X172129346Y-80850024D01*
X172114930Y-80865930D01*
X172099024Y-80880346D01*
X172081781Y-80893134D01*
X172063368Y-80904170D01*
X172043962Y-80913349D01*
X172023750Y-80920581D01*
X172002926Y-80925797D01*
X171981691Y-80928947D01*
X171960250Y-80930000D01*
X171447750Y-80930000D01*
X171426309Y-80928947D01*
X171405074Y-80925797D01*
X171384250Y-80920581D01*
X171364038Y-80913349D01*
X171344632Y-80904170D01*
X171326219Y-80893134D01*
X171308976Y-80880346D01*
X171293070Y-80865930D01*
X171278654Y-80850024D01*
X171265866Y-80832781D01*
X171254830Y-80814368D01*
X171245651Y-80794962D01*
X171238419Y-80774750D01*
X171233203Y-80753926D01*
X171230053Y-80732691D01*
X171229000Y-80711250D01*
X171229000Y-80273750D01*
X171230053Y-80252309D01*
X171233203Y-80231074D01*
X171238419Y-80210250D01*
X171245651Y-80190038D01*
X171254830Y-80170632D01*
X171265866Y-80152219D01*
X171278654Y-80134976D01*
X171293070Y-80119070D01*
X171308976Y-80104654D01*
X171326219Y-80091866D01*
X171344632Y-80080830D01*
X171364038Y-80071651D01*
X171384250Y-80064419D01*
X171405074Y-80059203D01*
X171426309Y-80056053D01*
X171447750Y-80055000D01*
X171960250Y-80055000D01*
X171981691Y-80056053D01*
X171981691Y-80056053D01*
G37*
D12*
X171704000Y-80492500D03*
G04 #@! TD*
D11*
G04 #@! TO.C,C5*
G36*
X110813691Y-77567053D02*
X110834926Y-77570203D01*
X110855750Y-77575419D01*
X110875962Y-77582651D01*
X110895368Y-77591830D01*
X110913781Y-77602866D01*
X110931024Y-77615654D01*
X110946930Y-77630070D01*
X110961346Y-77645976D01*
X110974134Y-77663219D01*
X110985170Y-77681632D01*
X110994349Y-77701038D01*
X111001581Y-77721250D01*
X111006797Y-77742074D01*
X111009947Y-77763309D01*
X111011000Y-77784750D01*
X111011000Y-78222250D01*
X111009947Y-78243691D01*
X111006797Y-78264926D01*
X111001581Y-78285750D01*
X110994349Y-78305962D01*
X110985170Y-78325368D01*
X110974134Y-78343781D01*
X110961346Y-78361024D01*
X110946930Y-78376930D01*
X110931024Y-78391346D01*
X110913781Y-78404134D01*
X110895368Y-78415170D01*
X110875962Y-78424349D01*
X110855750Y-78431581D01*
X110834926Y-78436797D01*
X110813691Y-78439947D01*
X110792250Y-78441000D01*
X110279750Y-78441000D01*
X110258309Y-78439947D01*
X110237074Y-78436797D01*
X110216250Y-78431581D01*
X110196038Y-78424349D01*
X110176632Y-78415170D01*
X110158219Y-78404134D01*
X110140976Y-78391346D01*
X110125070Y-78376930D01*
X110110654Y-78361024D01*
X110097866Y-78343781D01*
X110086830Y-78325368D01*
X110077651Y-78305962D01*
X110070419Y-78285750D01*
X110065203Y-78264926D01*
X110062053Y-78243691D01*
X110061000Y-78222250D01*
X110061000Y-77784750D01*
X110062053Y-77763309D01*
X110065203Y-77742074D01*
X110070419Y-77721250D01*
X110077651Y-77701038D01*
X110086830Y-77681632D01*
X110097866Y-77663219D01*
X110110654Y-77645976D01*
X110125070Y-77630070D01*
X110140976Y-77615654D01*
X110158219Y-77602866D01*
X110176632Y-77591830D01*
X110196038Y-77582651D01*
X110216250Y-77575419D01*
X110237074Y-77570203D01*
X110258309Y-77567053D01*
X110279750Y-77566000D01*
X110792250Y-77566000D01*
X110813691Y-77567053D01*
X110813691Y-77567053D01*
G37*
D12*
X110536000Y-78003500D03*
D11*
G36*
X110813691Y-75992053D02*
X110834926Y-75995203D01*
X110855750Y-76000419D01*
X110875962Y-76007651D01*
X110895368Y-76016830D01*
X110913781Y-76027866D01*
X110931024Y-76040654D01*
X110946930Y-76055070D01*
X110961346Y-76070976D01*
X110974134Y-76088219D01*
X110985170Y-76106632D01*
X110994349Y-76126038D01*
X111001581Y-76146250D01*
X111006797Y-76167074D01*
X111009947Y-76188309D01*
X111011000Y-76209750D01*
X111011000Y-76647250D01*
X111009947Y-76668691D01*
X111006797Y-76689926D01*
X111001581Y-76710750D01*
X110994349Y-76730962D01*
X110985170Y-76750368D01*
X110974134Y-76768781D01*
X110961346Y-76786024D01*
X110946930Y-76801930D01*
X110931024Y-76816346D01*
X110913781Y-76829134D01*
X110895368Y-76840170D01*
X110875962Y-76849349D01*
X110855750Y-76856581D01*
X110834926Y-76861797D01*
X110813691Y-76864947D01*
X110792250Y-76866000D01*
X110279750Y-76866000D01*
X110258309Y-76864947D01*
X110237074Y-76861797D01*
X110216250Y-76856581D01*
X110196038Y-76849349D01*
X110176632Y-76840170D01*
X110158219Y-76829134D01*
X110140976Y-76816346D01*
X110125070Y-76801930D01*
X110110654Y-76786024D01*
X110097866Y-76768781D01*
X110086830Y-76750368D01*
X110077651Y-76730962D01*
X110070419Y-76710750D01*
X110065203Y-76689926D01*
X110062053Y-76668691D01*
X110061000Y-76647250D01*
X110061000Y-76209750D01*
X110062053Y-76188309D01*
X110065203Y-76167074D01*
X110070419Y-76146250D01*
X110077651Y-76126038D01*
X110086830Y-76106632D01*
X110097866Y-76088219D01*
X110110654Y-76070976D01*
X110125070Y-76055070D01*
X110140976Y-76040654D01*
X110158219Y-76027866D01*
X110176632Y-76016830D01*
X110196038Y-76007651D01*
X110216250Y-76000419D01*
X110237074Y-75995203D01*
X110258309Y-75992053D01*
X110279750Y-75991000D01*
X110792250Y-75991000D01*
X110813691Y-75992053D01*
X110813691Y-75992053D01*
G37*
D12*
X110536000Y-76428500D03*
G04 #@! TD*
D11*
G04 #@! TO.C,C6*
G36*
X129817691Y-75814553D02*
X129838926Y-75817703D01*
X129859750Y-75822919D01*
X129879962Y-75830151D01*
X129899368Y-75839330D01*
X129917781Y-75850366D01*
X129935024Y-75863154D01*
X129950930Y-75877570D01*
X129965346Y-75893476D01*
X129978134Y-75910719D01*
X129989170Y-75929132D01*
X129998349Y-75948538D01*
X130005581Y-75968750D01*
X130010797Y-75989574D01*
X130013947Y-76010809D01*
X130015000Y-76032250D01*
X130015000Y-76469750D01*
X130013947Y-76491191D01*
X130010797Y-76512426D01*
X130005581Y-76533250D01*
X129998349Y-76553462D01*
X129989170Y-76572868D01*
X129978134Y-76591281D01*
X129965346Y-76608524D01*
X129950930Y-76624430D01*
X129935024Y-76638846D01*
X129917781Y-76651634D01*
X129899368Y-76662670D01*
X129879962Y-76671849D01*
X129859750Y-76679081D01*
X129838926Y-76684297D01*
X129817691Y-76687447D01*
X129796250Y-76688500D01*
X129283750Y-76688500D01*
X129262309Y-76687447D01*
X129241074Y-76684297D01*
X129220250Y-76679081D01*
X129200038Y-76671849D01*
X129180632Y-76662670D01*
X129162219Y-76651634D01*
X129144976Y-76638846D01*
X129129070Y-76624430D01*
X129114654Y-76608524D01*
X129101866Y-76591281D01*
X129090830Y-76572868D01*
X129081651Y-76553462D01*
X129074419Y-76533250D01*
X129069203Y-76512426D01*
X129066053Y-76491191D01*
X129065000Y-76469750D01*
X129065000Y-76032250D01*
X129066053Y-76010809D01*
X129069203Y-75989574D01*
X129074419Y-75968750D01*
X129081651Y-75948538D01*
X129090830Y-75929132D01*
X129101866Y-75910719D01*
X129114654Y-75893476D01*
X129129070Y-75877570D01*
X129144976Y-75863154D01*
X129162219Y-75850366D01*
X129180632Y-75839330D01*
X129200038Y-75830151D01*
X129220250Y-75822919D01*
X129241074Y-75817703D01*
X129262309Y-75814553D01*
X129283750Y-75813500D01*
X129796250Y-75813500D01*
X129817691Y-75814553D01*
X129817691Y-75814553D01*
G37*
D12*
X129540000Y-76251000D03*
D11*
G36*
X129817691Y-74239553D02*
X129838926Y-74242703D01*
X129859750Y-74247919D01*
X129879962Y-74255151D01*
X129899368Y-74264330D01*
X129917781Y-74275366D01*
X129935024Y-74288154D01*
X129950930Y-74302570D01*
X129965346Y-74318476D01*
X129978134Y-74335719D01*
X129989170Y-74354132D01*
X129998349Y-74373538D01*
X130005581Y-74393750D01*
X130010797Y-74414574D01*
X130013947Y-74435809D01*
X130015000Y-74457250D01*
X130015000Y-74894750D01*
X130013947Y-74916191D01*
X130010797Y-74937426D01*
X130005581Y-74958250D01*
X129998349Y-74978462D01*
X129989170Y-74997868D01*
X129978134Y-75016281D01*
X129965346Y-75033524D01*
X129950930Y-75049430D01*
X129935024Y-75063846D01*
X129917781Y-75076634D01*
X129899368Y-75087670D01*
X129879962Y-75096849D01*
X129859750Y-75104081D01*
X129838926Y-75109297D01*
X129817691Y-75112447D01*
X129796250Y-75113500D01*
X129283750Y-75113500D01*
X129262309Y-75112447D01*
X129241074Y-75109297D01*
X129220250Y-75104081D01*
X129200038Y-75096849D01*
X129180632Y-75087670D01*
X129162219Y-75076634D01*
X129144976Y-75063846D01*
X129129070Y-75049430D01*
X129114654Y-75033524D01*
X129101866Y-75016281D01*
X129090830Y-74997868D01*
X129081651Y-74978462D01*
X129074419Y-74958250D01*
X129069203Y-74937426D01*
X129066053Y-74916191D01*
X129065000Y-74894750D01*
X129065000Y-74457250D01*
X129066053Y-74435809D01*
X129069203Y-74414574D01*
X129074419Y-74393750D01*
X129081651Y-74373538D01*
X129090830Y-74354132D01*
X129101866Y-74335719D01*
X129114654Y-74318476D01*
X129129070Y-74302570D01*
X129144976Y-74288154D01*
X129162219Y-74275366D01*
X129180632Y-74264330D01*
X129200038Y-74255151D01*
X129220250Y-74247919D01*
X129241074Y-74242703D01*
X129262309Y-74239553D01*
X129283750Y-74238500D01*
X129796250Y-74238500D01*
X129817691Y-74239553D01*
X129817691Y-74239553D01*
G37*
D12*
X129540000Y-74676000D03*
G04 #@! TD*
D11*
G04 #@! TO.C,C7*
G36*
X93241691Y-63089053D02*
X93262926Y-63092203D01*
X93283750Y-63097419D01*
X93303962Y-63104651D01*
X93323368Y-63113830D01*
X93341781Y-63124866D01*
X93359024Y-63137654D01*
X93374930Y-63152070D01*
X93389346Y-63167976D01*
X93402134Y-63185219D01*
X93413170Y-63203632D01*
X93422349Y-63223038D01*
X93429581Y-63243250D01*
X93434797Y-63264074D01*
X93437947Y-63285309D01*
X93439000Y-63306750D01*
X93439000Y-63744250D01*
X93437947Y-63765691D01*
X93434797Y-63786926D01*
X93429581Y-63807750D01*
X93422349Y-63827962D01*
X93413170Y-63847368D01*
X93402134Y-63865781D01*
X93389346Y-63883024D01*
X93374930Y-63898930D01*
X93359024Y-63913346D01*
X93341781Y-63926134D01*
X93323368Y-63937170D01*
X93303962Y-63946349D01*
X93283750Y-63953581D01*
X93262926Y-63958797D01*
X93241691Y-63961947D01*
X93220250Y-63963000D01*
X92707750Y-63963000D01*
X92686309Y-63961947D01*
X92665074Y-63958797D01*
X92644250Y-63953581D01*
X92624038Y-63946349D01*
X92604632Y-63937170D01*
X92586219Y-63926134D01*
X92568976Y-63913346D01*
X92553070Y-63898930D01*
X92538654Y-63883024D01*
X92525866Y-63865781D01*
X92514830Y-63847368D01*
X92505651Y-63827962D01*
X92498419Y-63807750D01*
X92493203Y-63786926D01*
X92490053Y-63765691D01*
X92489000Y-63744250D01*
X92489000Y-63306750D01*
X92490053Y-63285309D01*
X92493203Y-63264074D01*
X92498419Y-63243250D01*
X92505651Y-63223038D01*
X92514830Y-63203632D01*
X92525866Y-63185219D01*
X92538654Y-63167976D01*
X92553070Y-63152070D01*
X92568976Y-63137654D01*
X92586219Y-63124866D01*
X92604632Y-63113830D01*
X92624038Y-63104651D01*
X92644250Y-63097419D01*
X92665074Y-63092203D01*
X92686309Y-63089053D01*
X92707750Y-63088000D01*
X93220250Y-63088000D01*
X93241691Y-63089053D01*
X93241691Y-63089053D01*
G37*
D12*
X92964000Y-63525500D03*
D11*
G36*
X93241691Y-64664053D02*
X93262926Y-64667203D01*
X93283750Y-64672419D01*
X93303962Y-64679651D01*
X93323368Y-64688830D01*
X93341781Y-64699866D01*
X93359024Y-64712654D01*
X93374930Y-64727070D01*
X93389346Y-64742976D01*
X93402134Y-64760219D01*
X93413170Y-64778632D01*
X93422349Y-64798038D01*
X93429581Y-64818250D01*
X93434797Y-64839074D01*
X93437947Y-64860309D01*
X93439000Y-64881750D01*
X93439000Y-65319250D01*
X93437947Y-65340691D01*
X93434797Y-65361926D01*
X93429581Y-65382750D01*
X93422349Y-65402962D01*
X93413170Y-65422368D01*
X93402134Y-65440781D01*
X93389346Y-65458024D01*
X93374930Y-65473930D01*
X93359024Y-65488346D01*
X93341781Y-65501134D01*
X93323368Y-65512170D01*
X93303962Y-65521349D01*
X93283750Y-65528581D01*
X93262926Y-65533797D01*
X93241691Y-65536947D01*
X93220250Y-65538000D01*
X92707750Y-65538000D01*
X92686309Y-65536947D01*
X92665074Y-65533797D01*
X92644250Y-65528581D01*
X92624038Y-65521349D01*
X92604632Y-65512170D01*
X92586219Y-65501134D01*
X92568976Y-65488346D01*
X92553070Y-65473930D01*
X92538654Y-65458024D01*
X92525866Y-65440781D01*
X92514830Y-65422368D01*
X92505651Y-65402962D01*
X92498419Y-65382750D01*
X92493203Y-65361926D01*
X92490053Y-65340691D01*
X92489000Y-65319250D01*
X92489000Y-64881750D01*
X92490053Y-64860309D01*
X92493203Y-64839074D01*
X92498419Y-64818250D01*
X92505651Y-64798038D01*
X92514830Y-64778632D01*
X92525866Y-64760219D01*
X92538654Y-64742976D01*
X92553070Y-64727070D01*
X92568976Y-64712654D01*
X92586219Y-64699866D01*
X92604632Y-64688830D01*
X92624038Y-64679651D01*
X92644250Y-64672419D01*
X92665074Y-64667203D01*
X92686309Y-64664053D01*
X92707750Y-64663000D01*
X93220250Y-64663000D01*
X93241691Y-64664053D01*
X93241691Y-64664053D01*
G37*
D12*
X92964000Y-65100500D03*
G04 #@! TD*
D10*
G04 #@! TO.C,Crystal2*
X107234000Y-81534000D03*
X107234000Y-77134000D03*
G04 #@! TD*
D15*
G04 #@! TO.C,D1*
X95964157Y-105283497D03*
X95964157Y-104333497D03*
G04 #@! TD*
G04 #@! TO.C,D2*
X144018000Y-105598000D03*
X144018000Y-104648000D03*
G04 #@! TD*
G04 #@! TO.C,D3*
X85296157Y-104554497D03*
X85296157Y-105504497D03*
G04 #@! TD*
G04 #@! TO.C,D4*
X156464000Y-104681000D03*
X156464000Y-105631000D03*
G04 #@! TD*
D11*
G04 #@! TO.C,D5*
G36*
X129479170Y-70681763D02*
X129500405Y-70684913D01*
X129521229Y-70690129D01*
X129541441Y-70697361D01*
X129560847Y-70706540D01*
X129579260Y-70717576D01*
X129596503Y-70730364D01*
X129612409Y-70744780D01*
X129626825Y-70760686D01*
X129639613Y-70777929D01*
X129650649Y-70796342D01*
X129659828Y-70815748D01*
X129667060Y-70835960D01*
X129672276Y-70856784D01*
X129675426Y-70878019D01*
X129676479Y-70899460D01*
X129676479Y-71336960D01*
X129675426Y-71358401D01*
X129672276Y-71379636D01*
X129667060Y-71400460D01*
X129659828Y-71420672D01*
X129650649Y-71440078D01*
X129639613Y-71458491D01*
X129626825Y-71475734D01*
X129612409Y-71491640D01*
X129596503Y-71506056D01*
X129579260Y-71518844D01*
X129560847Y-71529880D01*
X129541441Y-71539059D01*
X129521229Y-71546291D01*
X129500405Y-71551507D01*
X129479170Y-71554657D01*
X129457729Y-71555710D01*
X128945229Y-71555710D01*
X128923788Y-71554657D01*
X128902553Y-71551507D01*
X128881729Y-71546291D01*
X128861517Y-71539059D01*
X128842111Y-71529880D01*
X128823698Y-71518844D01*
X128806455Y-71506056D01*
X128790549Y-71491640D01*
X128776133Y-71475734D01*
X128763345Y-71458491D01*
X128752309Y-71440078D01*
X128743130Y-71420672D01*
X128735898Y-71400460D01*
X128730682Y-71379636D01*
X128727532Y-71358401D01*
X128726479Y-71336960D01*
X128726479Y-70899460D01*
X128727532Y-70878019D01*
X128730682Y-70856784D01*
X128735898Y-70835960D01*
X128743130Y-70815748D01*
X128752309Y-70796342D01*
X128763345Y-70777929D01*
X128776133Y-70760686D01*
X128790549Y-70744780D01*
X128806455Y-70730364D01*
X128823698Y-70717576D01*
X128842111Y-70706540D01*
X128861517Y-70697361D01*
X128881729Y-70690129D01*
X128902553Y-70684913D01*
X128923788Y-70681763D01*
X128945229Y-70680710D01*
X129457729Y-70680710D01*
X129479170Y-70681763D01*
X129479170Y-70681763D01*
G37*
D12*
X129201479Y-71118210D03*
D11*
G36*
X129479170Y-69106763D02*
X129500405Y-69109913D01*
X129521229Y-69115129D01*
X129541441Y-69122361D01*
X129560847Y-69131540D01*
X129579260Y-69142576D01*
X129596503Y-69155364D01*
X129612409Y-69169780D01*
X129626825Y-69185686D01*
X129639613Y-69202929D01*
X129650649Y-69221342D01*
X129659828Y-69240748D01*
X129667060Y-69260960D01*
X129672276Y-69281784D01*
X129675426Y-69303019D01*
X129676479Y-69324460D01*
X129676479Y-69761960D01*
X129675426Y-69783401D01*
X129672276Y-69804636D01*
X129667060Y-69825460D01*
X129659828Y-69845672D01*
X129650649Y-69865078D01*
X129639613Y-69883491D01*
X129626825Y-69900734D01*
X129612409Y-69916640D01*
X129596503Y-69931056D01*
X129579260Y-69943844D01*
X129560847Y-69954880D01*
X129541441Y-69964059D01*
X129521229Y-69971291D01*
X129500405Y-69976507D01*
X129479170Y-69979657D01*
X129457729Y-69980710D01*
X128945229Y-69980710D01*
X128923788Y-69979657D01*
X128902553Y-69976507D01*
X128881729Y-69971291D01*
X128861517Y-69964059D01*
X128842111Y-69954880D01*
X128823698Y-69943844D01*
X128806455Y-69931056D01*
X128790549Y-69916640D01*
X128776133Y-69900734D01*
X128763345Y-69883491D01*
X128752309Y-69865078D01*
X128743130Y-69845672D01*
X128735898Y-69825460D01*
X128730682Y-69804636D01*
X128727532Y-69783401D01*
X128726479Y-69761960D01*
X128726479Y-69324460D01*
X128727532Y-69303019D01*
X128730682Y-69281784D01*
X128735898Y-69260960D01*
X128743130Y-69240748D01*
X128752309Y-69221342D01*
X128763345Y-69202929D01*
X128776133Y-69185686D01*
X128790549Y-69169780D01*
X128806455Y-69155364D01*
X128823698Y-69142576D01*
X128842111Y-69131540D01*
X128861517Y-69122361D01*
X128881729Y-69115129D01*
X128902553Y-69109913D01*
X128923788Y-69106763D01*
X128945229Y-69105710D01*
X129457729Y-69105710D01*
X129479170Y-69106763D01*
X129479170Y-69106763D01*
G37*
D12*
X129201479Y-69543210D03*
G04 #@! TD*
D11*
G04 #@! TO.C,R1*
G36*
X90447691Y-104999053D02*
X90468926Y-105002203D01*
X90489750Y-105007419D01*
X90509962Y-105014651D01*
X90529368Y-105023830D01*
X90547781Y-105034866D01*
X90565024Y-105047654D01*
X90580930Y-105062070D01*
X90595346Y-105077976D01*
X90608134Y-105095219D01*
X90619170Y-105113632D01*
X90628349Y-105133038D01*
X90635581Y-105153250D01*
X90640797Y-105174074D01*
X90643947Y-105195309D01*
X90645000Y-105216750D01*
X90645000Y-105654250D01*
X90643947Y-105675691D01*
X90640797Y-105696926D01*
X90635581Y-105717750D01*
X90628349Y-105737962D01*
X90619170Y-105757368D01*
X90608134Y-105775781D01*
X90595346Y-105793024D01*
X90580930Y-105808930D01*
X90565024Y-105823346D01*
X90547781Y-105836134D01*
X90529368Y-105847170D01*
X90509962Y-105856349D01*
X90489750Y-105863581D01*
X90468926Y-105868797D01*
X90447691Y-105871947D01*
X90426250Y-105873000D01*
X89913750Y-105873000D01*
X89892309Y-105871947D01*
X89871074Y-105868797D01*
X89850250Y-105863581D01*
X89830038Y-105856349D01*
X89810632Y-105847170D01*
X89792219Y-105836134D01*
X89774976Y-105823346D01*
X89759070Y-105808930D01*
X89744654Y-105793024D01*
X89731866Y-105775781D01*
X89720830Y-105757368D01*
X89711651Y-105737962D01*
X89704419Y-105717750D01*
X89699203Y-105696926D01*
X89696053Y-105675691D01*
X89695000Y-105654250D01*
X89695000Y-105216750D01*
X89696053Y-105195309D01*
X89699203Y-105174074D01*
X89704419Y-105153250D01*
X89711651Y-105133038D01*
X89720830Y-105113632D01*
X89731866Y-105095219D01*
X89744654Y-105077976D01*
X89759070Y-105062070D01*
X89774976Y-105047654D01*
X89792219Y-105034866D01*
X89810632Y-105023830D01*
X89830038Y-105014651D01*
X89850250Y-105007419D01*
X89871074Y-105002203D01*
X89892309Y-104999053D01*
X89913750Y-104998000D01*
X90426250Y-104998000D01*
X90447691Y-104999053D01*
X90447691Y-104999053D01*
G37*
D12*
X90170000Y-105435500D03*
D11*
G36*
X90447691Y-103424053D02*
X90468926Y-103427203D01*
X90489750Y-103432419D01*
X90509962Y-103439651D01*
X90529368Y-103448830D01*
X90547781Y-103459866D01*
X90565024Y-103472654D01*
X90580930Y-103487070D01*
X90595346Y-103502976D01*
X90608134Y-103520219D01*
X90619170Y-103538632D01*
X90628349Y-103558038D01*
X90635581Y-103578250D01*
X90640797Y-103599074D01*
X90643947Y-103620309D01*
X90645000Y-103641750D01*
X90645000Y-104079250D01*
X90643947Y-104100691D01*
X90640797Y-104121926D01*
X90635581Y-104142750D01*
X90628349Y-104162962D01*
X90619170Y-104182368D01*
X90608134Y-104200781D01*
X90595346Y-104218024D01*
X90580930Y-104233930D01*
X90565024Y-104248346D01*
X90547781Y-104261134D01*
X90529368Y-104272170D01*
X90509962Y-104281349D01*
X90489750Y-104288581D01*
X90468926Y-104293797D01*
X90447691Y-104296947D01*
X90426250Y-104298000D01*
X89913750Y-104298000D01*
X89892309Y-104296947D01*
X89871074Y-104293797D01*
X89850250Y-104288581D01*
X89830038Y-104281349D01*
X89810632Y-104272170D01*
X89792219Y-104261134D01*
X89774976Y-104248346D01*
X89759070Y-104233930D01*
X89744654Y-104218024D01*
X89731866Y-104200781D01*
X89720830Y-104182368D01*
X89711651Y-104162962D01*
X89704419Y-104142750D01*
X89699203Y-104121926D01*
X89696053Y-104100691D01*
X89695000Y-104079250D01*
X89695000Y-103641750D01*
X89696053Y-103620309D01*
X89699203Y-103599074D01*
X89704419Y-103578250D01*
X89711651Y-103558038D01*
X89720830Y-103538632D01*
X89731866Y-103520219D01*
X89744654Y-103502976D01*
X89759070Y-103487070D01*
X89774976Y-103472654D01*
X89792219Y-103459866D01*
X89810632Y-103448830D01*
X89830038Y-103439651D01*
X89850250Y-103432419D01*
X89871074Y-103427203D01*
X89892309Y-103424053D01*
X89913750Y-103423000D01*
X90426250Y-103423000D01*
X90447691Y-103424053D01*
X90447691Y-103424053D01*
G37*
D12*
X90170000Y-103860500D03*
G04 #@! TD*
D11*
G04 #@! TO.C,R2*
G36*
X138453691Y-103932053D02*
X138474926Y-103935203D01*
X138495750Y-103940419D01*
X138515962Y-103947651D01*
X138535368Y-103956830D01*
X138553781Y-103967866D01*
X138571024Y-103980654D01*
X138586930Y-103995070D01*
X138601346Y-104010976D01*
X138614134Y-104028219D01*
X138625170Y-104046632D01*
X138634349Y-104066038D01*
X138641581Y-104086250D01*
X138646797Y-104107074D01*
X138649947Y-104128309D01*
X138651000Y-104149750D01*
X138651000Y-104587250D01*
X138649947Y-104608691D01*
X138646797Y-104629926D01*
X138641581Y-104650750D01*
X138634349Y-104670962D01*
X138625170Y-104690368D01*
X138614134Y-104708781D01*
X138601346Y-104726024D01*
X138586930Y-104741930D01*
X138571024Y-104756346D01*
X138553781Y-104769134D01*
X138535368Y-104780170D01*
X138515962Y-104789349D01*
X138495750Y-104796581D01*
X138474926Y-104801797D01*
X138453691Y-104804947D01*
X138432250Y-104806000D01*
X137919750Y-104806000D01*
X137898309Y-104804947D01*
X137877074Y-104801797D01*
X137856250Y-104796581D01*
X137836038Y-104789349D01*
X137816632Y-104780170D01*
X137798219Y-104769134D01*
X137780976Y-104756346D01*
X137765070Y-104741930D01*
X137750654Y-104726024D01*
X137737866Y-104708781D01*
X137726830Y-104690368D01*
X137717651Y-104670962D01*
X137710419Y-104650750D01*
X137705203Y-104629926D01*
X137702053Y-104608691D01*
X137701000Y-104587250D01*
X137701000Y-104149750D01*
X137702053Y-104128309D01*
X137705203Y-104107074D01*
X137710419Y-104086250D01*
X137717651Y-104066038D01*
X137726830Y-104046632D01*
X137737866Y-104028219D01*
X137750654Y-104010976D01*
X137765070Y-103995070D01*
X137780976Y-103980654D01*
X137798219Y-103967866D01*
X137816632Y-103956830D01*
X137836038Y-103947651D01*
X137856250Y-103940419D01*
X137877074Y-103935203D01*
X137898309Y-103932053D01*
X137919750Y-103931000D01*
X138432250Y-103931000D01*
X138453691Y-103932053D01*
X138453691Y-103932053D01*
G37*
D12*
X138176000Y-104368500D03*
D11*
G36*
X138453691Y-105507053D02*
X138474926Y-105510203D01*
X138495750Y-105515419D01*
X138515962Y-105522651D01*
X138535368Y-105531830D01*
X138553781Y-105542866D01*
X138571024Y-105555654D01*
X138586930Y-105570070D01*
X138601346Y-105585976D01*
X138614134Y-105603219D01*
X138625170Y-105621632D01*
X138634349Y-105641038D01*
X138641581Y-105661250D01*
X138646797Y-105682074D01*
X138649947Y-105703309D01*
X138651000Y-105724750D01*
X138651000Y-106162250D01*
X138649947Y-106183691D01*
X138646797Y-106204926D01*
X138641581Y-106225750D01*
X138634349Y-106245962D01*
X138625170Y-106265368D01*
X138614134Y-106283781D01*
X138601346Y-106301024D01*
X138586930Y-106316930D01*
X138571024Y-106331346D01*
X138553781Y-106344134D01*
X138535368Y-106355170D01*
X138515962Y-106364349D01*
X138495750Y-106371581D01*
X138474926Y-106376797D01*
X138453691Y-106379947D01*
X138432250Y-106381000D01*
X137919750Y-106381000D01*
X137898309Y-106379947D01*
X137877074Y-106376797D01*
X137856250Y-106371581D01*
X137836038Y-106364349D01*
X137816632Y-106355170D01*
X137798219Y-106344134D01*
X137780976Y-106331346D01*
X137765070Y-106316930D01*
X137750654Y-106301024D01*
X137737866Y-106283781D01*
X137726830Y-106265368D01*
X137717651Y-106245962D01*
X137710419Y-106225750D01*
X137705203Y-106204926D01*
X137702053Y-106183691D01*
X137701000Y-106162250D01*
X137701000Y-105724750D01*
X137702053Y-105703309D01*
X137705203Y-105682074D01*
X137710419Y-105661250D01*
X137717651Y-105641038D01*
X137726830Y-105621632D01*
X137737866Y-105603219D01*
X137750654Y-105585976D01*
X137765070Y-105570070D01*
X137780976Y-105555654D01*
X137798219Y-105542866D01*
X137816632Y-105531830D01*
X137836038Y-105522651D01*
X137856250Y-105515419D01*
X137877074Y-105510203D01*
X137898309Y-105507053D01*
X137919750Y-105506000D01*
X138432250Y-105506000D01*
X138453691Y-105507053D01*
X138453691Y-105507053D01*
G37*
D12*
X138176000Y-105943500D03*
G04 #@! TD*
D11*
G04 #@! TO.C,R3*
G36*
X79271691Y-103424053D02*
X79292926Y-103427203D01*
X79313750Y-103432419D01*
X79333962Y-103439651D01*
X79353368Y-103448830D01*
X79371781Y-103459866D01*
X79389024Y-103472654D01*
X79404930Y-103487070D01*
X79419346Y-103502976D01*
X79432134Y-103520219D01*
X79443170Y-103538632D01*
X79452349Y-103558038D01*
X79459581Y-103578250D01*
X79464797Y-103599074D01*
X79467947Y-103620309D01*
X79469000Y-103641750D01*
X79469000Y-104079250D01*
X79467947Y-104100691D01*
X79464797Y-104121926D01*
X79459581Y-104142750D01*
X79452349Y-104162962D01*
X79443170Y-104182368D01*
X79432134Y-104200781D01*
X79419346Y-104218024D01*
X79404930Y-104233930D01*
X79389024Y-104248346D01*
X79371781Y-104261134D01*
X79353368Y-104272170D01*
X79333962Y-104281349D01*
X79313750Y-104288581D01*
X79292926Y-104293797D01*
X79271691Y-104296947D01*
X79250250Y-104298000D01*
X78737750Y-104298000D01*
X78716309Y-104296947D01*
X78695074Y-104293797D01*
X78674250Y-104288581D01*
X78654038Y-104281349D01*
X78634632Y-104272170D01*
X78616219Y-104261134D01*
X78598976Y-104248346D01*
X78583070Y-104233930D01*
X78568654Y-104218024D01*
X78555866Y-104200781D01*
X78544830Y-104182368D01*
X78535651Y-104162962D01*
X78528419Y-104142750D01*
X78523203Y-104121926D01*
X78520053Y-104100691D01*
X78519000Y-104079250D01*
X78519000Y-103641750D01*
X78520053Y-103620309D01*
X78523203Y-103599074D01*
X78528419Y-103578250D01*
X78535651Y-103558038D01*
X78544830Y-103538632D01*
X78555866Y-103520219D01*
X78568654Y-103502976D01*
X78583070Y-103487070D01*
X78598976Y-103472654D01*
X78616219Y-103459866D01*
X78634632Y-103448830D01*
X78654038Y-103439651D01*
X78674250Y-103432419D01*
X78695074Y-103427203D01*
X78716309Y-103424053D01*
X78737750Y-103423000D01*
X79250250Y-103423000D01*
X79271691Y-103424053D01*
X79271691Y-103424053D01*
G37*
D12*
X78994000Y-103860500D03*
D11*
G36*
X79271691Y-104999053D02*
X79292926Y-105002203D01*
X79313750Y-105007419D01*
X79333962Y-105014651D01*
X79353368Y-105023830D01*
X79371781Y-105034866D01*
X79389024Y-105047654D01*
X79404930Y-105062070D01*
X79419346Y-105077976D01*
X79432134Y-105095219D01*
X79443170Y-105113632D01*
X79452349Y-105133038D01*
X79459581Y-105153250D01*
X79464797Y-105174074D01*
X79467947Y-105195309D01*
X79469000Y-105216750D01*
X79469000Y-105654250D01*
X79467947Y-105675691D01*
X79464797Y-105696926D01*
X79459581Y-105717750D01*
X79452349Y-105737962D01*
X79443170Y-105757368D01*
X79432134Y-105775781D01*
X79419346Y-105793024D01*
X79404930Y-105808930D01*
X79389024Y-105823346D01*
X79371781Y-105836134D01*
X79353368Y-105847170D01*
X79333962Y-105856349D01*
X79313750Y-105863581D01*
X79292926Y-105868797D01*
X79271691Y-105871947D01*
X79250250Y-105873000D01*
X78737750Y-105873000D01*
X78716309Y-105871947D01*
X78695074Y-105868797D01*
X78674250Y-105863581D01*
X78654038Y-105856349D01*
X78634632Y-105847170D01*
X78616219Y-105836134D01*
X78598976Y-105823346D01*
X78583070Y-105808930D01*
X78568654Y-105793024D01*
X78555866Y-105775781D01*
X78544830Y-105757368D01*
X78535651Y-105737962D01*
X78528419Y-105717750D01*
X78523203Y-105696926D01*
X78520053Y-105675691D01*
X78519000Y-105654250D01*
X78519000Y-105216750D01*
X78520053Y-105195309D01*
X78523203Y-105174074D01*
X78528419Y-105153250D01*
X78535651Y-105133038D01*
X78544830Y-105113632D01*
X78555866Y-105095219D01*
X78568654Y-105077976D01*
X78583070Y-105062070D01*
X78598976Y-105047654D01*
X78616219Y-105034866D01*
X78634632Y-105023830D01*
X78654038Y-105014651D01*
X78674250Y-105007419D01*
X78695074Y-105002203D01*
X78716309Y-104999053D01*
X78737750Y-104998000D01*
X79250250Y-104998000D01*
X79271691Y-104999053D01*
X79271691Y-104999053D01*
G37*
D12*
X78994000Y-105435500D03*
G04 #@! TD*
D11*
G04 #@! TO.C,R4*
G36*
X150645691Y-105253053D02*
X150666926Y-105256203D01*
X150687750Y-105261419D01*
X150707962Y-105268651D01*
X150727368Y-105277830D01*
X150745781Y-105288866D01*
X150763024Y-105301654D01*
X150778930Y-105316070D01*
X150793346Y-105331976D01*
X150806134Y-105349219D01*
X150817170Y-105367632D01*
X150826349Y-105387038D01*
X150833581Y-105407250D01*
X150838797Y-105428074D01*
X150841947Y-105449309D01*
X150843000Y-105470750D01*
X150843000Y-105908250D01*
X150841947Y-105929691D01*
X150838797Y-105950926D01*
X150833581Y-105971750D01*
X150826349Y-105991962D01*
X150817170Y-106011368D01*
X150806134Y-106029781D01*
X150793346Y-106047024D01*
X150778930Y-106062930D01*
X150763024Y-106077346D01*
X150745781Y-106090134D01*
X150727368Y-106101170D01*
X150707962Y-106110349D01*
X150687750Y-106117581D01*
X150666926Y-106122797D01*
X150645691Y-106125947D01*
X150624250Y-106127000D01*
X150111750Y-106127000D01*
X150090309Y-106125947D01*
X150069074Y-106122797D01*
X150048250Y-106117581D01*
X150028038Y-106110349D01*
X150008632Y-106101170D01*
X149990219Y-106090134D01*
X149972976Y-106077346D01*
X149957070Y-106062930D01*
X149942654Y-106047024D01*
X149929866Y-106029781D01*
X149918830Y-106011368D01*
X149909651Y-105991962D01*
X149902419Y-105971750D01*
X149897203Y-105950926D01*
X149894053Y-105929691D01*
X149893000Y-105908250D01*
X149893000Y-105470750D01*
X149894053Y-105449309D01*
X149897203Y-105428074D01*
X149902419Y-105407250D01*
X149909651Y-105387038D01*
X149918830Y-105367632D01*
X149929866Y-105349219D01*
X149942654Y-105331976D01*
X149957070Y-105316070D01*
X149972976Y-105301654D01*
X149990219Y-105288866D01*
X150008632Y-105277830D01*
X150028038Y-105268651D01*
X150048250Y-105261419D01*
X150069074Y-105256203D01*
X150090309Y-105253053D01*
X150111750Y-105252000D01*
X150624250Y-105252000D01*
X150645691Y-105253053D01*
X150645691Y-105253053D01*
G37*
D12*
X150368000Y-105689500D03*
D11*
G36*
X150645691Y-103678053D02*
X150666926Y-103681203D01*
X150687750Y-103686419D01*
X150707962Y-103693651D01*
X150727368Y-103702830D01*
X150745781Y-103713866D01*
X150763024Y-103726654D01*
X150778930Y-103741070D01*
X150793346Y-103756976D01*
X150806134Y-103774219D01*
X150817170Y-103792632D01*
X150826349Y-103812038D01*
X150833581Y-103832250D01*
X150838797Y-103853074D01*
X150841947Y-103874309D01*
X150843000Y-103895750D01*
X150843000Y-104333250D01*
X150841947Y-104354691D01*
X150838797Y-104375926D01*
X150833581Y-104396750D01*
X150826349Y-104416962D01*
X150817170Y-104436368D01*
X150806134Y-104454781D01*
X150793346Y-104472024D01*
X150778930Y-104487930D01*
X150763024Y-104502346D01*
X150745781Y-104515134D01*
X150727368Y-104526170D01*
X150707962Y-104535349D01*
X150687750Y-104542581D01*
X150666926Y-104547797D01*
X150645691Y-104550947D01*
X150624250Y-104552000D01*
X150111750Y-104552000D01*
X150090309Y-104550947D01*
X150069074Y-104547797D01*
X150048250Y-104542581D01*
X150028038Y-104535349D01*
X150008632Y-104526170D01*
X149990219Y-104515134D01*
X149972976Y-104502346D01*
X149957070Y-104487930D01*
X149942654Y-104472024D01*
X149929866Y-104454781D01*
X149918830Y-104436368D01*
X149909651Y-104416962D01*
X149902419Y-104396750D01*
X149897203Y-104375926D01*
X149894053Y-104354691D01*
X149893000Y-104333250D01*
X149893000Y-103895750D01*
X149894053Y-103874309D01*
X149897203Y-103853074D01*
X149902419Y-103832250D01*
X149909651Y-103812038D01*
X149918830Y-103792632D01*
X149929866Y-103774219D01*
X149942654Y-103756976D01*
X149957070Y-103741070D01*
X149972976Y-103726654D01*
X149990219Y-103713866D01*
X150008632Y-103702830D01*
X150028038Y-103693651D01*
X150048250Y-103686419D01*
X150069074Y-103681203D01*
X150090309Y-103678053D01*
X150111750Y-103677000D01*
X150624250Y-103677000D01*
X150645691Y-103678053D01*
X150645691Y-103678053D01*
G37*
D12*
X150368000Y-104114500D03*
G04 #@! TD*
D11*
G04 #@! TO.C,R5*
G36*
X162075691Y-79040053D02*
X162096926Y-79043203D01*
X162117750Y-79048419D01*
X162137962Y-79055651D01*
X162157368Y-79064830D01*
X162175781Y-79075866D01*
X162193024Y-79088654D01*
X162208930Y-79103070D01*
X162223346Y-79118976D01*
X162236134Y-79136219D01*
X162247170Y-79154632D01*
X162256349Y-79174038D01*
X162263581Y-79194250D01*
X162268797Y-79215074D01*
X162271947Y-79236309D01*
X162273000Y-79257750D01*
X162273000Y-79695250D01*
X162271947Y-79716691D01*
X162268797Y-79737926D01*
X162263581Y-79758750D01*
X162256349Y-79778962D01*
X162247170Y-79798368D01*
X162236134Y-79816781D01*
X162223346Y-79834024D01*
X162208930Y-79849930D01*
X162193024Y-79864346D01*
X162175781Y-79877134D01*
X162157368Y-79888170D01*
X162137962Y-79897349D01*
X162117750Y-79904581D01*
X162096926Y-79909797D01*
X162075691Y-79912947D01*
X162054250Y-79914000D01*
X161541750Y-79914000D01*
X161520309Y-79912947D01*
X161499074Y-79909797D01*
X161478250Y-79904581D01*
X161458038Y-79897349D01*
X161438632Y-79888170D01*
X161420219Y-79877134D01*
X161402976Y-79864346D01*
X161387070Y-79849930D01*
X161372654Y-79834024D01*
X161359866Y-79816781D01*
X161348830Y-79798368D01*
X161339651Y-79778962D01*
X161332419Y-79758750D01*
X161327203Y-79737926D01*
X161324053Y-79716691D01*
X161323000Y-79695250D01*
X161323000Y-79257750D01*
X161324053Y-79236309D01*
X161327203Y-79215074D01*
X161332419Y-79194250D01*
X161339651Y-79174038D01*
X161348830Y-79154632D01*
X161359866Y-79136219D01*
X161372654Y-79118976D01*
X161387070Y-79103070D01*
X161402976Y-79088654D01*
X161420219Y-79075866D01*
X161438632Y-79064830D01*
X161458038Y-79055651D01*
X161478250Y-79048419D01*
X161499074Y-79043203D01*
X161520309Y-79040053D01*
X161541750Y-79039000D01*
X162054250Y-79039000D01*
X162075691Y-79040053D01*
X162075691Y-79040053D01*
G37*
D12*
X161798000Y-79476500D03*
D11*
G36*
X162075691Y-80615053D02*
X162096926Y-80618203D01*
X162117750Y-80623419D01*
X162137962Y-80630651D01*
X162157368Y-80639830D01*
X162175781Y-80650866D01*
X162193024Y-80663654D01*
X162208930Y-80678070D01*
X162223346Y-80693976D01*
X162236134Y-80711219D01*
X162247170Y-80729632D01*
X162256349Y-80749038D01*
X162263581Y-80769250D01*
X162268797Y-80790074D01*
X162271947Y-80811309D01*
X162273000Y-80832750D01*
X162273000Y-81270250D01*
X162271947Y-81291691D01*
X162268797Y-81312926D01*
X162263581Y-81333750D01*
X162256349Y-81353962D01*
X162247170Y-81373368D01*
X162236134Y-81391781D01*
X162223346Y-81409024D01*
X162208930Y-81424930D01*
X162193024Y-81439346D01*
X162175781Y-81452134D01*
X162157368Y-81463170D01*
X162137962Y-81472349D01*
X162117750Y-81479581D01*
X162096926Y-81484797D01*
X162075691Y-81487947D01*
X162054250Y-81489000D01*
X161541750Y-81489000D01*
X161520309Y-81487947D01*
X161499074Y-81484797D01*
X161478250Y-81479581D01*
X161458038Y-81472349D01*
X161438632Y-81463170D01*
X161420219Y-81452134D01*
X161402976Y-81439346D01*
X161387070Y-81424930D01*
X161372654Y-81409024D01*
X161359866Y-81391781D01*
X161348830Y-81373368D01*
X161339651Y-81353962D01*
X161332419Y-81333750D01*
X161327203Y-81312926D01*
X161324053Y-81291691D01*
X161323000Y-81270250D01*
X161323000Y-80832750D01*
X161324053Y-80811309D01*
X161327203Y-80790074D01*
X161332419Y-80769250D01*
X161339651Y-80749038D01*
X161348830Y-80729632D01*
X161359866Y-80711219D01*
X161372654Y-80693976D01*
X161387070Y-80678070D01*
X161402976Y-80663654D01*
X161420219Y-80650866D01*
X161438632Y-80639830D01*
X161458038Y-80630651D01*
X161478250Y-80623419D01*
X161499074Y-80618203D01*
X161520309Y-80615053D01*
X161541750Y-80614000D01*
X162054250Y-80614000D01*
X162075691Y-80615053D01*
X162075691Y-80615053D01*
G37*
D12*
X161798000Y-81051500D03*
G04 #@! TD*
D11*
G04 #@! TO.C,R7*
G36*
X136540128Y-72149307D02*
X136561363Y-72152457D01*
X136582187Y-72157673D01*
X136602399Y-72164905D01*
X136621805Y-72174084D01*
X136640218Y-72185120D01*
X136657461Y-72197908D01*
X136673367Y-72212324D01*
X136687783Y-72228230D01*
X136700571Y-72245473D01*
X136711607Y-72263886D01*
X136720786Y-72283292D01*
X136728018Y-72303504D01*
X136733234Y-72324328D01*
X136736384Y-72345563D01*
X136737437Y-72367004D01*
X136737437Y-72879504D01*
X136736384Y-72900945D01*
X136733234Y-72922180D01*
X136728018Y-72943004D01*
X136720786Y-72963216D01*
X136711607Y-72982622D01*
X136700571Y-73001035D01*
X136687783Y-73018278D01*
X136673367Y-73034184D01*
X136657461Y-73048600D01*
X136640218Y-73061388D01*
X136621805Y-73072424D01*
X136602399Y-73081603D01*
X136582187Y-73088835D01*
X136561363Y-73094051D01*
X136540128Y-73097201D01*
X136518687Y-73098254D01*
X136081187Y-73098254D01*
X136059746Y-73097201D01*
X136038511Y-73094051D01*
X136017687Y-73088835D01*
X135997475Y-73081603D01*
X135978069Y-73072424D01*
X135959656Y-73061388D01*
X135942413Y-73048600D01*
X135926507Y-73034184D01*
X135912091Y-73018278D01*
X135899303Y-73001035D01*
X135888267Y-72982622D01*
X135879088Y-72963216D01*
X135871856Y-72943004D01*
X135866640Y-72922180D01*
X135863490Y-72900945D01*
X135862437Y-72879504D01*
X135862437Y-72367004D01*
X135863490Y-72345563D01*
X135866640Y-72324328D01*
X135871856Y-72303504D01*
X135879088Y-72283292D01*
X135888267Y-72263886D01*
X135899303Y-72245473D01*
X135912091Y-72228230D01*
X135926507Y-72212324D01*
X135942413Y-72197908D01*
X135959656Y-72185120D01*
X135978069Y-72174084D01*
X135997475Y-72164905D01*
X136017687Y-72157673D01*
X136038511Y-72152457D01*
X136059746Y-72149307D01*
X136081187Y-72148254D01*
X136518687Y-72148254D01*
X136540128Y-72149307D01*
X136540128Y-72149307D01*
G37*
D12*
X136299937Y-72623254D03*
D11*
G36*
X138115128Y-72149307D02*
X138136363Y-72152457D01*
X138157187Y-72157673D01*
X138177399Y-72164905D01*
X138196805Y-72174084D01*
X138215218Y-72185120D01*
X138232461Y-72197908D01*
X138248367Y-72212324D01*
X138262783Y-72228230D01*
X138275571Y-72245473D01*
X138286607Y-72263886D01*
X138295786Y-72283292D01*
X138303018Y-72303504D01*
X138308234Y-72324328D01*
X138311384Y-72345563D01*
X138312437Y-72367004D01*
X138312437Y-72879504D01*
X138311384Y-72900945D01*
X138308234Y-72922180D01*
X138303018Y-72943004D01*
X138295786Y-72963216D01*
X138286607Y-72982622D01*
X138275571Y-73001035D01*
X138262783Y-73018278D01*
X138248367Y-73034184D01*
X138232461Y-73048600D01*
X138215218Y-73061388D01*
X138196805Y-73072424D01*
X138177399Y-73081603D01*
X138157187Y-73088835D01*
X138136363Y-73094051D01*
X138115128Y-73097201D01*
X138093687Y-73098254D01*
X137656187Y-73098254D01*
X137634746Y-73097201D01*
X137613511Y-73094051D01*
X137592687Y-73088835D01*
X137572475Y-73081603D01*
X137553069Y-73072424D01*
X137534656Y-73061388D01*
X137517413Y-73048600D01*
X137501507Y-73034184D01*
X137487091Y-73018278D01*
X137474303Y-73001035D01*
X137463267Y-72982622D01*
X137454088Y-72963216D01*
X137446856Y-72943004D01*
X137441640Y-72922180D01*
X137438490Y-72900945D01*
X137437437Y-72879504D01*
X137437437Y-72367004D01*
X137438490Y-72345563D01*
X137441640Y-72324328D01*
X137446856Y-72303504D01*
X137454088Y-72283292D01*
X137463267Y-72263886D01*
X137474303Y-72245473D01*
X137487091Y-72228230D01*
X137501507Y-72212324D01*
X137517413Y-72197908D01*
X137534656Y-72185120D01*
X137553069Y-72174084D01*
X137572475Y-72164905D01*
X137592687Y-72157673D01*
X137613511Y-72152457D01*
X137634746Y-72149307D01*
X137656187Y-72148254D01*
X138093687Y-72148254D01*
X138115128Y-72149307D01*
X138115128Y-72149307D01*
G37*
D12*
X137874937Y-72623254D03*
G04 #@! TD*
D11*
G04 #@! TO.C,R9*
G36*
X133543170Y-69132263D02*
X133564405Y-69135413D01*
X133585229Y-69140629D01*
X133605441Y-69147861D01*
X133624847Y-69157040D01*
X133643260Y-69168076D01*
X133660503Y-69180864D01*
X133676409Y-69195280D01*
X133690825Y-69211186D01*
X133703613Y-69228429D01*
X133714649Y-69246842D01*
X133723828Y-69266248D01*
X133731060Y-69286460D01*
X133736276Y-69307284D01*
X133739426Y-69328519D01*
X133740479Y-69349960D01*
X133740479Y-69787460D01*
X133739426Y-69808901D01*
X133736276Y-69830136D01*
X133731060Y-69850960D01*
X133723828Y-69871172D01*
X133714649Y-69890578D01*
X133703613Y-69908991D01*
X133690825Y-69926234D01*
X133676409Y-69942140D01*
X133660503Y-69956556D01*
X133643260Y-69969344D01*
X133624847Y-69980380D01*
X133605441Y-69989559D01*
X133585229Y-69996791D01*
X133564405Y-70002007D01*
X133543170Y-70005157D01*
X133521729Y-70006210D01*
X133009229Y-70006210D01*
X132987788Y-70005157D01*
X132966553Y-70002007D01*
X132945729Y-69996791D01*
X132925517Y-69989559D01*
X132906111Y-69980380D01*
X132887698Y-69969344D01*
X132870455Y-69956556D01*
X132854549Y-69942140D01*
X132840133Y-69926234D01*
X132827345Y-69908991D01*
X132816309Y-69890578D01*
X132807130Y-69871172D01*
X132799898Y-69850960D01*
X132794682Y-69830136D01*
X132791532Y-69808901D01*
X132790479Y-69787460D01*
X132790479Y-69349960D01*
X132791532Y-69328519D01*
X132794682Y-69307284D01*
X132799898Y-69286460D01*
X132807130Y-69266248D01*
X132816309Y-69246842D01*
X132827345Y-69228429D01*
X132840133Y-69211186D01*
X132854549Y-69195280D01*
X132870455Y-69180864D01*
X132887698Y-69168076D01*
X132906111Y-69157040D01*
X132925517Y-69147861D01*
X132945729Y-69140629D01*
X132966553Y-69135413D01*
X132987788Y-69132263D01*
X133009229Y-69131210D01*
X133521729Y-69131210D01*
X133543170Y-69132263D01*
X133543170Y-69132263D01*
G37*
D12*
X133265479Y-69568710D03*
D11*
G36*
X133543170Y-70707263D02*
X133564405Y-70710413D01*
X133585229Y-70715629D01*
X133605441Y-70722861D01*
X133624847Y-70732040D01*
X133643260Y-70743076D01*
X133660503Y-70755864D01*
X133676409Y-70770280D01*
X133690825Y-70786186D01*
X133703613Y-70803429D01*
X133714649Y-70821842D01*
X133723828Y-70841248D01*
X133731060Y-70861460D01*
X133736276Y-70882284D01*
X133739426Y-70903519D01*
X133740479Y-70924960D01*
X133740479Y-71362460D01*
X133739426Y-71383901D01*
X133736276Y-71405136D01*
X133731060Y-71425960D01*
X133723828Y-71446172D01*
X133714649Y-71465578D01*
X133703613Y-71483991D01*
X133690825Y-71501234D01*
X133676409Y-71517140D01*
X133660503Y-71531556D01*
X133643260Y-71544344D01*
X133624847Y-71555380D01*
X133605441Y-71564559D01*
X133585229Y-71571791D01*
X133564405Y-71577007D01*
X133543170Y-71580157D01*
X133521729Y-71581210D01*
X133009229Y-71581210D01*
X132987788Y-71580157D01*
X132966553Y-71577007D01*
X132945729Y-71571791D01*
X132925517Y-71564559D01*
X132906111Y-71555380D01*
X132887698Y-71544344D01*
X132870455Y-71531556D01*
X132854549Y-71517140D01*
X132840133Y-71501234D01*
X132827345Y-71483991D01*
X132816309Y-71465578D01*
X132807130Y-71446172D01*
X132799898Y-71425960D01*
X132794682Y-71405136D01*
X132791532Y-71383901D01*
X132790479Y-71362460D01*
X132790479Y-70924960D01*
X132791532Y-70903519D01*
X132794682Y-70882284D01*
X132799898Y-70861460D01*
X132807130Y-70841248D01*
X132816309Y-70821842D01*
X132827345Y-70803429D01*
X132840133Y-70786186D01*
X132854549Y-70770280D01*
X132870455Y-70755864D01*
X132887698Y-70743076D01*
X132906111Y-70732040D01*
X132925517Y-70722861D01*
X132945729Y-70715629D01*
X132966553Y-70710413D01*
X132987788Y-70707263D01*
X133009229Y-70706210D01*
X133521729Y-70706210D01*
X133543170Y-70707263D01*
X133543170Y-70707263D01*
G37*
D12*
X133265479Y-71143710D03*
G04 #@! TD*
D11*
G04 #@! TO.C,R11*
G36*
X137945691Y-62073053D02*
X137966926Y-62076203D01*
X137987750Y-62081419D01*
X138007962Y-62088651D01*
X138027368Y-62097830D01*
X138045781Y-62108866D01*
X138063024Y-62121654D01*
X138078930Y-62136070D01*
X138093346Y-62151976D01*
X138106134Y-62169219D01*
X138117170Y-62187632D01*
X138126349Y-62207038D01*
X138133581Y-62227250D01*
X138138797Y-62248074D01*
X138141947Y-62269309D01*
X138143000Y-62290750D01*
X138143000Y-62728250D01*
X138141947Y-62749691D01*
X138138797Y-62770926D01*
X138133581Y-62791750D01*
X138126349Y-62811962D01*
X138117170Y-62831368D01*
X138106134Y-62849781D01*
X138093346Y-62867024D01*
X138078930Y-62882930D01*
X138063024Y-62897346D01*
X138045781Y-62910134D01*
X138027368Y-62921170D01*
X138007962Y-62930349D01*
X137987750Y-62937581D01*
X137966926Y-62942797D01*
X137945691Y-62945947D01*
X137924250Y-62947000D01*
X137411750Y-62947000D01*
X137390309Y-62945947D01*
X137369074Y-62942797D01*
X137348250Y-62937581D01*
X137328038Y-62930349D01*
X137308632Y-62921170D01*
X137290219Y-62910134D01*
X137272976Y-62897346D01*
X137257070Y-62882930D01*
X137242654Y-62867024D01*
X137229866Y-62849781D01*
X137218830Y-62831368D01*
X137209651Y-62811962D01*
X137202419Y-62791750D01*
X137197203Y-62770926D01*
X137194053Y-62749691D01*
X137193000Y-62728250D01*
X137193000Y-62290750D01*
X137194053Y-62269309D01*
X137197203Y-62248074D01*
X137202419Y-62227250D01*
X137209651Y-62207038D01*
X137218830Y-62187632D01*
X137229866Y-62169219D01*
X137242654Y-62151976D01*
X137257070Y-62136070D01*
X137272976Y-62121654D01*
X137290219Y-62108866D01*
X137308632Y-62097830D01*
X137328038Y-62088651D01*
X137348250Y-62081419D01*
X137369074Y-62076203D01*
X137390309Y-62073053D01*
X137411750Y-62072000D01*
X137924250Y-62072000D01*
X137945691Y-62073053D01*
X137945691Y-62073053D01*
G37*
D12*
X137668000Y-62509500D03*
D11*
G36*
X137945691Y-60498053D02*
X137966926Y-60501203D01*
X137987750Y-60506419D01*
X138007962Y-60513651D01*
X138027368Y-60522830D01*
X138045781Y-60533866D01*
X138063024Y-60546654D01*
X138078930Y-60561070D01*
X138093346Y-60576976D01*
X138106134Y-60594219D01*
X138117170Y-60612632D01*
X138126349Y-60632038D01*
X138133581Y-60652250D01*
X138138797Y-60673074D01*
X138141947Y-60694309D01*
X138143000Y-60715750D01*
X138143000Y-61153250D01*
X138141947Y-61174691D01*
X138138797Y-61195926D01*
X138133581Y-61216750D01*
X138126349Y-61236962D01*
X138117170Y-61256368D01*
X138106134Y-61274781D01*
X138093346Y-61292024D01*
X138078930Y-61307930D01*
X138063024Y-61322346D01*
X138045781Y-61335134D01*
X138027368Y-61346170D01*
X138007962Y-61355349D01*
X137987750Y-61362581D01*
X137966926Y-61367797D01*
X137945691Y-61370947D01*
X137924250Y-61372000D01*
X137411750Y-61372000D01*
X137390309Y-61370947D01*
X137369074Y-61367797D01*
X137348250Y-61362581D01*
X137328038Y-61355349D01*
X137308632Y-61346170D01*
X137290219Y-61335134D01*
X137272976Y-61322346D01*
X137257070Y-61307930D01*
X137242654Y-61292024D01*
X137229866Y-61274781D01*
X137218830Y-61256368D01*
X137209651Y-61236962D01*
X137202419Y-61216750D01*
X137197203Y-61195926D01*
X137194053Y-61174691D01*
X137193000Y-61153250D01*
X137193000Y-60715750D01*
X137194053Y-60694309D01*
X137197203Y-60673074D01*
X137202419Y-60652250D01*
X137209651Y-60632038D01*
X137218830Y-60612632D01*
X137229866Y-60594219D01*
X137242654Y-60576976D01*
X137257070Y-60561070D01*
X137272976Y-60546654D01*
X137290219Y-60533866D01*
X137308632Y-60522830D01*
X137328038Y-60513651D01*
X137348250Y-60506419D01*
X137369074Y-60501203D01*
X137390309Y-60498053D01*
X137411750Y-60497000D01*
X137924250Y-60497000D01*
X137945691Y-60498053D01*
X137945691Y-60498053D01*
G37*
D12*
X137668000Y-60934500D03*
G04 #@! TD*
D11*
G04 #@! TO.C,R12*
G36*
X137691691Y-65324053D02*
X137712926Y-65327203D01*
X137733750Y-65332419D01*
X137753962Y-65339651D01*
X137773368Y-65348830D01*
X137791781Y-65359866D01*
X137809024Y-65372654D01*
X137824930Y-65387070D01*
X137839346Y-65402976D01*
X137852134Y-65420219D01*
X137863170Y-65438632D01*
X137872349Y-65458038D01*
X137879581Y-65478250D01*
X137884797Y-65499074D01*
X137887947Y-65520309D01*
X137889000Y-65541750D01*
X137889000Y-65979250D01*
X137887947Y-66000691D01*
X137884797Y-66021926D01*
X137879581Y-66042750D01*
X137872349Y-66062962D01*
X137863170Y-66082368D01*
X137852134Y-66100781D01*
X137839346Y-66118024D01*
X137824930Y-66133930D01*
X137809024Y-66148346D01*
X137791781Y-66161134D01*
X137773368Y-66172170D01*
X137753962Y-66181349D01*
X137733750Y-66188581D01*
X137712926Y-66193797D01*
X137691691Y-66196947D01*
X137670250Y-66198000D01*
X137157750Y-66198000D01*
X137136309Y-66196947D01*
X137115074Y-66193797D01*
X137094250Y-66188581D01*
X137074038Y-66181349D01*
X137054632Y-66172170D01*
X137036219Y-66161134D01*
X137018976Y-66148346D01*
X137003070Y-66133930D01*
X136988654Y-66118024D01*
X136975866Y-66100781D01*
X136964830Y-66082368D01*
X136955651Y-66062962D01*
X136948419Y-66042750D01*
X136943203Y-66021926D01*
X136940053Y-66000691D01*
X136939000Y-65979250D01*
X136939000Y-65541750D01*
X136940053Y-65520309D01*
X136943203Y-65499074D01*
X136948419Y-65478250D01*
X136955651Y-65458038D01*
X136964830Y-65438632D01*
X136975866Y-65420219D01*
X136988654Y-65402976D01*
X137003070Y-65387070D01*
X137018976Y-65372654D01*
X137036219Y-65359866D01*
X137054632Y-65348830D01*
X137074038Y-65339651D01*
X137094250Y-65332419D01*
X137115074Y-65327203D01*
X137136309Y-65324053D01*
X137157750Y-65323000D01*
X137670250Y-65323000D01*
X137691691Y-65324053D01*
X137691691Y-65324053D01*
G37*
D12*
X137414000Y-65760500D03*
D11*
G36*
X137691691Y-66899053D02*
X137712926Y-66902203D01*
X137733750Y-66907419D01*
X137753962Y-66914651D01*
X137773368Y-66923830D01*
X137791781Y-66934866D01*
X137809024Y-66947654D01*
X137824930Y-66962070D01*
X137839346Y-66977976D01*
X137852134Y-66995219D01*
X137863170Y-67013632D01*
X137872349Y-67033038D01*
X137879581Y-67053250D01*
X137884797Y-67074074D01*
X137887947Y-67095309D01*
X137889000Y-67116750D01*
X137889000Y-67554250D01*
X137887947Y-67575691D01*
X137884797Y-67596926D01*
X137879581Y-67617750D01*
X137872349Y-67637962D01*
X137863170Y-67657368D01*
X137852134Y-67675781D01*
X137839346Y-67693024D01*
X137824930Y-67708930D01*
X137809024Y-67723346D01*
X137791781Y-67736134D01*
X137773368Y-67747170D01*
X137753962Y-67756349D01*
X137733750Y-67763581D01*
X137712926Y-67768797D01*
X137691691Y-67771947D01*
X137670250Y-67773000D01*
X137157750Y-67773000D01*
X137136309Y-67771947D01*
X137115074Y-67768797D01*
X137094250Y-67763581D01*
X137074038Y-67756349D01*
X137054632Y-67747170D01*
X137036219Y-67736134D01*
X137018976Y-67723346D01*
X137003070Y-67708930D01*
X136988654Y-67693024D01*
X136975866Y-67675781D01*
X136964830Y-67657368D01*
X136955651Y-67637962D01*
X136948419Y-67617750D01*
X136943203Y-67596926D01*
X136940053Y-67575691D01*
X136939000Y-67554250D01*
X136939000Y-67116750D01*
X136940053Y-67095309D01*
X136943203Y-67074074D01*
X136948419Y-67053250D01*
X136955651Y-67033038D01*
X136964830Y-67013632D01*
X136975866Y-66995219D01*
X136988654Y-66977976D01*
X137003070Y-66962070D01*
X137018976Y-66947654D01*
X137036219Y-66934866D01*
X137054632Y-66923830D01*
X137074038Y-66914651D01*
X137094250Y-66907419D01*
X137115074Y-66902203D01*
X137136309Y-66899053D01*
X137157750Y-66898000D01*
X137670250Y-66898000D01*
X137691691Y-66899053D01*
X137691691Y-66899053D01*
G37*
D12*
X137414000Y-67335500D03*
G04 #@! TD*
D11*
G04 #@! TO.C,R13*
G36*
X111021691Y-61006053D02*
X111042926Y-61009203D01*
X111063750Y-61014419D01*
X111083962Y-61021651D01*
X111103368Y-61030830D01*
X111121781Y-61041866D01*
X111139024Y-61054654D01*
X111154930Y-61069070D01*
X111169346Y-61084976D01*
X111182134Y-61102219D01*
X111193170Y-61120632D01*
X111202349Y-61140038D01*
X111209581Y-61160250D01*
X111214797Y-61181074D01*
X111217947Y-61202309D01*
X111219000Y-61223750D01*
X111219000Y-61661250D01*
X111217947Y-61682691D01*
X111214797Y-61703926D01*
X111209581Y-61724750D01*
X111202349Y-61744962D01*
X111193170Y-61764368D01*
X111182134Y-61782781D01*
X111169346Y-61800024D01*
X111154930Y-61815930D01*
X111139024Y-61830346D01*
X111121781Y-61843134D01*
X111103368Y-61854170D01*
X111083962Y-61863349D01*
X111063750Y-61870581D01*
X111042926Y-61875797D01*
X111021691Y-61878947D01*
X111000250Y-61880000D01*
X110487750Y-61880000D01*
X110466309Y-61878947D01*
X110445074Y-61875797D01*
X110424250Y-61870581D01*
X110404038Y-61863349D01*
X110384632Y-61854170D01*
X110366219Y-61843134D01*
X110348976Y-61830346D01*
X110333070Y-61815930D01*
X110318654Y-61800024D01*
X110305866Y-61782781D01*
X110294830Y-61764368D01*
X110285651Y-61744962D01*
X110278419Y-61724750D01*
X110273203Y-61703926D01*
X110270053Y-61682691D01*
X110269000Y-61661250D01*
X110269000Y-61223750D01*
X110270053Y-61202309D01*
X110273203Y-61181074D01*
X110278419Y-61160250D01*
X110285651Y-61140038D01*
X110294830Y-61120632D01*
X110305866Y-61102219D01*
X110318654Y-61084976D01*
X110333070Y-61069070D01*
X110348976Y-61054654D01*
X110366219Y-61041866D01*
X110384632Y-61030830D01*
X110404038Y-61021651D01*
X110424250Y-61014419D01*
X110445074Y-61009203D01*
X110466309Y-61006053D01*
X110487750Y-61005000D01*
X111000250Y-61005000D01*
X111021691Y-61006053D01*
X111021691Y-61006053D01*
G37*
D12*
X110744000Y-61442500D03*
D11*
G36*
X111021691Y-62581053D02*
X111042926Y-62584203D01*
X111063750Y-62589419D01*
X111083962Y-62596651D01*
X111103368Y-62605830D01*
X111121781Y-62616866D01*
X111139024Y-62629654D01*
X111154930Y-62644070D01*
X111169346Y-62659976D01*
X111182134Y-62677219D01*
X111193170Y-62695632D01*
X111202349Y-62715038D01*
X111209581Y-62735250D01*
X111214797Y-62756074D01*
X111217947Y-62777309D01*
X111219000Y-62798750D01*
X111219000Y-63236250D01*
X111217947Y-63257691D01*
X111214797Y-63278926D01*
X111209581Y-63299750D01*
X111202349Y-63319962D01*
X111193170Y-63339368D01*
X111182134Y-63357781D01*
X111169346Y-63375024D01*
X111154930Y-63390930D01*
X111139024Y-63405346D01*
X111121781Y-63418134D01*
X111103368Y-63429170D01*
X111083962Y-63438349D01*
X111063750Y-63445581D01*
X111042926Y-63450797D01*
X111021691Y-63453947D01*
X111000250Y-63455000D01*
X110487750Y-63455000D01*
X110466309Y-63453947D01*
X110445074Y-63450797D01*
X110424250Y-63445581D01*
X110404038Y-63438349D01*
X110384632Y-63429170D01*
X110366219Y-63418134D01*
X110348976Y-63405346D01*
X110333070Y-63390930D01*
X110318654Y-63375024D01*
X110305866Y-63357781D01*
X110294830Y-63339368D01*
X110285651Y-63319962D01*
X110278419Y-63299750D01*
X110273203Y-63278926D01*
X110270053Y-63257691D01*
X110269000Y-63236250D01*
X110269000Y-62798750D01*
X110270053Y-62777309D01*
X110273203Y-62756074D01*
X110278419Y-62735250D01*
X110285651Y-62715038D01*
X110294830Y-62695632D01*
X110305866Y-62677219D01*
X110318654Y-62659976D01*
X110333070Y-62644070D01*
X110348976Y-62629654D01*
X110366219Y-62616866D01*
X110384632Y-62605830D01*
X110404038Y-62596651D01*
X110424250Y-62589419D01*
X110445074Y-62584203D01*
X110466309Y-62581053D01*
X110487750Y-62580000D01*
X111000250Y-62580000D01*
X111021691Y-62581053D01*
X111021691Y-62581053D01*
G37*
D12*
X110744000Y-63017500D03*
G04 #@! TD*
D11*
G04 #@! TO.C,R14*
G36*
X108241191Y-71408053D02*
X108262426Y-71411203D01*
X108283250Y-71416419D01*
X108303462Y-71423651D01*
X108322868Y-71432830D01*
X108341281Y-71443866D01*
X108358524Y-71456654D01*
X108374430Y-71471070D01*
X108388846Y-71486976D01*
X108401634Y-71504219D01*
X108412670Y-71522632D01*
X108421849Y-71542038D01*
X108429081Y-71562250D01*
X108434297Y-71583074D01*
X108437447Y-71604309D01*
X108438500Y-71625750D01*
X108438500Y-72138250D01*
X108437447Y-72159691D01*
X108434297Y-72180926D01*
X108429081Y-72201750D01*
X108421849Y-72221962D01*
X108412670Y-72241368D01*
X108401634Y-72259781D01*
X108388846Y-72277024D01*
X108374430Y-72292930D01*
X108358524Y-72307346D01*
X108341281Y-72320134D01*
X108322868Y-72331170D01*
X108303462Y-72340349D01*
X108283250Y-72347581D01*
X108262426Y-72352797D01*
X108241191Y-72355947D01*
X108219750Y-72357000D01*
X107782250Y-72357000D01*
X107760809Y-72355947D01*
X107739574Y-72352797D01*
X107718750Y-72347581D01*
X107698538Y-72340349D01*
X107679132Y-72331170D01*
X107660719Y-72320134D01*
X107643476Y-72307346D01*
X107627570Y-72292930D01*
X107613154Y-72277024D01*
X107600366Y-72259781D01*
X107589330Y-72241368D01*
X107580151Y-72221962D01*
X107572919Y-72201750D01*
X107567703Y-72180926D01*
X107564553Y-72159691D01*
X107563500Y-72138250D01*
X107563500Y-71625750D01*
X107564553Y-71604309D01*
X107567703Y-71583074D01*
X107572919Y-71562250D01*
X107580151Y-71542038D01*
X107589330Y-71522632D01*
X107600366Y-71504219D01*
X107613154Y-71486976D01*
X107627570Y-71471070D01*
X107643476Y-71456654D01*
X107660719Y-71443866D01*
X107679132Y-71432830D01*
X107698538Y-71423651D01*
X107718750Y-71416419D01*
X107739574Y-71411203D01*
X107760809Y-71408053D01*
X107782250Y-71407000D01*
X108219750Y-71407000D01*
X108241191Y-71408053D01*
X108241191Y-71408053D01*
G37*
D12*
X108001000Y-71882000D03*
D11*
G36*
X106666191Y-71408053D02*
X106687426Y-71411203D01*
X106708250Y-71416419D01*
X106728462Y-71423651D01*
X106747868Y-71432830D01*
X106766281Y-71443866D01*
X106783524Y-71456654D01*
X106799430Y-71471070D01*
X106813846Y-71486976D01*
X106826634Y-71504219D01*
X106837670Y-71522632D01*
X106846849Y-71542038D01*
X106854081Y-71562250D01*
X106859297Y-71583074D01*
X106862447Y-71604309D01*
X106863500Y-71625750D01*
X106863500Y-72138250D01*
X106862447Y-72159691D01*
X106859297Y-72180926D01*
X106854081Y-72201750D01*
X106846849Y-72221962D01*
X106837670Y-72241368D01*
X106826634Y-72259781D01*
X106813846Y-72277024D01*
X106799430Y-72292930D01*
X106783524Y-72307346D01*
X106766281Y-72320134D01*
X106747868Y-72331170D01*
X106728462Y-72340349D01*
X106708250Y-72347581D01*
X106687426Y-72352797D01*
X106666191Y-72355947D01*
X106644750Y-72357000D01*
X106207250Y-72357000D01*
X106185809Y-72355947D01*
X106164574Y-72352797D01*
X106143750Y-72347581D01*
X106123538Y-72340349D01*
X106104132Y-72331170D01*
X106085719Y-72320134D01*
X106068476Y-72307346D01*
X106052570Y-72292930D01*
X106038154Y-72277024D01*
X106025366Y-72259781D01*
X106014330Y-72241368D01*
X106005151Y-72221962D01*
X105997919Y-72201750D01*
X105992703Y-72180926D01*
X105989553Y-72159691D01*
X105988500Y-72138250D01*
X105988500Y-71625750D01*
X105989553Y-71604309D01*
X105992703Y-71583074D01*
X105997919Y-71562250D01*
X106005151Y-71542038D01*
X106014330Y-71522632D01*
X106025366Y-71504219D01*
X106038154Y-71486976D01*
X106052570Y-71471070D01*
X106068476Y-71456654D01*
X106085719Y-71443866D01*
X106104132Y-71432830D01*
X106123538Y-71423651D01*
X106143750Y-71416419D01*
X106164574Y-71411203D01*
X106185809Y-71408053D01*
X106207250Y-71407000D01*
X106644750Y-71407000D01*
X106666191Y-71408053D01*
X106666191Y-71408053D01*
G37*
D12*
X106426000Y-71882000D03*
G04 #@! TD*
D13*
G04 #@! TO.C,U2*
X82902000Y-69719000D03*
X82902000Y-70369000D03*
X82902000Y-71019000D03*
X82902000Y-71669000D03*
X82902000Y-72319000D03*
X82902000Y-72969000D03*
X82902000Y-73619000D03*
X82902000Y-74269000D03*
X82902000Y-74919000D03*
X82902000Y-75569000D03*
X88802000Y-75569000D03*
X88802000Y-74919000D03*
X88802000Y-74269000D03*
X88802000Y-73619000D03*
X88802000Y-72969000D03*
X88802000Y-72319000D03*
X88802000Y-71669000D03*
X88802000Y-71019000D03*
X88802000Y-70369000D03*
X88802000Y-69719000D03*
G04 #@! TD*
D11*
G04 #@! TO.C,R8*
G36*
X87399691Y-64918053D02*
X87420926Y-64921203D01*
X87441750Y-64926419D01*
X87461962Y-64933651D01*
X87481368Y-64942830D01*
X87499781Y-64953866D01*
X87517024Y-64966654D01*
X87532930Y-64981070D01*
X87547346Y-64996976D01*
X87560134Y-65014219D01*
X87571170Y-65032632D01*
X87580349Y-65052038D01*
X87587581Y-65072250D01*
X87592797Y-65093074D01*
X87595947Y-65114309D01*
X87597000Y-65135750D01*
X87597000Y-65573250D01*
X87595947Y-65594691D01*
X87592797Y-65615926D01*
X87587581Y-65636750D01*
X87580349Y-65656962D01*
X87571170Y-65676368D01*
X87560134Y-65694781D01*
X87547346Y-65712024D01*
X87532930Y-65727930D01*
X87517024Y-65742346D01*
X87499781Y-65755134D01*
X87481368Y-65766170D01*
X87461962Y-65775349D01*
X87441750Y-65782581D01*
X87420926Y-65787797D01*
X87399691Y-65790947D01*
X87378250Y-65792000D01*
X86865750Y-65792000D01*
X86844309Y-65790947D01*
X86823074Y-65787797D01*
X86802250Y-65782581D01*
X86782038Y-65775349D01*
X86762632Y-65766170D01*
X86744219Y-65755134D01*
X86726976Y-65742346D01*
X86711070Y-65727930D01*
X86696654Y-65712024D01*
X86683866Y-65694781D01*
X86672830Y-65676368D01*
X86663651Y-65656962D01*
X86656419Y-65636750D01*
X86651203Y-65615926D01*
X86648053Y-65594691D01*
X86647000Y-65573250D01*
X86647000Y-65135750D01*
X86648053Y-65114309D01*
X86651203Y-65093074D01*
X86656419Y-65072250D01*
X86663651Y-65052038D01*
X86672830Y-65032632D01*
X86683866Y-65014219D01*
X86696654Y-64996976D01*
X86711070Y-64981070D01*
X86726976Y-64966654D01*
X86744219Y-64953866D01*
X86762632Y-64942830D01*
X86782038Y-64933651D01*
X86802250Y-64926419D01*
X86823074Y-64921203D01*
X86844309Y-64918053D01*
X86865750Y-64917000D01*
X87378250Y-64917000D01*
X87399691Y-64918053D01*
X87399691Y-64918053D01*
G37*
D12*
X87122000Y-65354500D03*
D11*
G36*
X87399691Y-63343053D02*
X87420926Y-63346203D01*
X87441750Y-63351419D01*
X87461962Y-63358651D01*
X87481368Y-63367830D01*
X87499781Y-63378866D01*
X87517024Y-63391654D01*
X87532930Y-63406070D01*
X87547346Y-63421976D01*
X87560134Y-63439219D01*
X87571170Y-63457632D01*
X87580349Y-63477038D01*
X87587581Y-63497250D01*
X87592797Y-63518074D01*
X87595947Y-63539309D01*
X87597000Y-63560750D01*
X87597000Y-63998250D01*
X87595947Y-64019691D01*
X87592797Y-64040926D01*
X87587581Y-64061750D01*
X87580349Y-64081962D01*
X87571170Y-64101368D01*
X87560134Y-64119781D01*
X87547346Y-64137024D01*
X87532930Y-64152930D01*
X87517024Y-64167346D01*
X87499781Y-64180134D01*
X87481368Y-64191170D01*
X87461962Y-64200349D01*
X87441750Y-64207581D01*
X87420926Y-64212797D01*
X87399691Y-64215947D01*
X87378250Y-64217000D01*
X86865750Y-64217000D01*
X86844309Y-64215947D01*
X86823074Y-64212797D01*
X86802250Y-64207581D01*
X86782038Y-64200349D01*
X86762632Y-64191170D01*
X86744219Y-64180134D01*
X86726976Y-64167346D01*
X86711070Y-64152930D01*
X86696654Y-64137024D01*
X86683866Y-64119781D01*
X86672830Y-64101368D01*
X86663651Y-64081962D01*
X86656419Y-64061750D01*
X86651203Y-64040926D01*
X86648053Y-64019691D01*
X86647000Y-63998250D01*
X86647000Y-63560750D01*
X86648053Y-63539309D01*
X86651203Y-63518074D01*
X86656419Y-63497250D01*
X86663651Y-63477038D01*
X86672830Y-63457632D01*
X86683866Y-63439219D01*
X86696654Y-63421976D01*
X86711070Y-63406070D01*
X86726976Y-63391654D01*
X86744219Y-63378866D01*
X86762632Y-63367830D01*
X86782038Y-63358651D01*
X86802250Y-63351419D01*
X86823074Y-63346203D01*
X86844309Y-63343053D01*
X86865750Y-63342000D01*
X87378250Y-63342000D01*
X87399691Y-63343053D01*
X87399691Y-63343053D01*
G37*
D12*
X87122000Y-63779500D03*
G04 #@! TD*
D11*
G04 #@! TO.C,C8*
G36*
X117879691Y-104999053D02*
X117900926Y-105002203D01*
X117921750Y-105007419D01*
X117941962Y-105014651D01*
X117961368Y-105023830D01*
X117979781Y-105034866D01*
X117997024Y-105047654D01*
X118012930Y-105062070D01*
X118027346Y-105077976D01*
X118040134Y-105095219D01*
X118051170Y-105113632D01*
X118060349Y-105133038D01*
X118067581Y-105153250D01*
X118072797Y-105174074D01*
X118075947Y-105195309D01*
X118077000Y-105216750D01*
X118077000Y-105654250D01*
X118075947Y-105675691D01*
X118072797Y-105696926D01*
X118067581Y-105717750D01*
X118060349Y-105737962D01*
X118051170Y-105757368D01*
X118040134Y-105775781D01*
X118027346Y-105793024D01*
X118012930Y-105808930D01*
X117997024Y-105823346D01*
X117979781Y-105836134D01*
X117961368Y-105847170D01*
X117941962Y-105856349D01*
X117921750Y-105863581D01*
X117900926Y-105868797D01*
X117879691Y-105871947D01*
X117858250Y-105873000D01*
X117345750Y-105873000D01*
X117324309Y-105871947D01*
X117303074Y-105868797D01*
X117282250Y-105863581D01*
X117262038Y-105856349D01*
X117242632Y-105847170D01*
X117224219Y-105836134D01*
X117206976Y-105823346D01*
X117191070Y-105808930D01*
X117176654Y-105793024D01*
X117163866Y-105775781D01*
X117152830Y-105757368D01*
X117143651Y-105737962D01*
X117136419Y-105717750D01*
X117131203Y-105696926D01*
X117128053Y-105675691D01*
X117127000Y-105654250D01*
X117127000Y-105216750D01*
X117128053Y-105195309D01*
X117131203Y-105174074D01*
X117136419Y-105153250D01*
X117143651Y-105133038D01*
X117152830Y-105113632D01*
X117163866Y-105095219D01*
X117176654Y-105077976D01*
X117191070Y-105062070D01*
X117206976Y-105047654D01*
X117224219Y-105034866D01*
X117242632Y-105023830D01*
X117262038Y-105014651D01*
X117282250Y-105007419D01*
X117303074Y-105002203D01*
X117324309Y-104999053D01*
X117345750Y-104998000D01*
X117858250Y-104998000D01*
X117879691Y-104999053D01*
X117879691Y-104999053D01*
G37*
D12*
X117602000Y-105435500D03*
D11*
G36*
X117879691Y-103424053D02*
X117900926Y-103427203D01*
X117921750Y-103432419D01*
X117941962Y-103439651D01*
X117961368Y-103448830D01*
X117979781Y-103459866D01*
X117997024Y-103472654D01*
X118012930Y-103487070D01*
X118027346Y-103502976D01*
X118040134Y-103520219D01*
X118051170Y-103538632D01*
X118060349Y-103558038D01*
X118067581Y-103578250D01*
X118072797Y-103599074D01*
X118075947Y-103620309D01*
X118077000Y-103641750D01*
X118077000Y-104079250D01*
X118075947Y-104100691D01*
X118072797Y-104121926D01*
X118067581Y-104142750D01*
X118060349Y-104162962D01*
X118051170Y-104182368D01*
X118040134Y-104200781D01*
X118027346Y-104218024D01*
X118012930Y-104233930D01*
X117997024Y-104248346D01*
X117979781Y-104261134D01*
X117961368Y-104272170D01*
X117941962Y-104281349D01*
X117921750Y-104288581D01*
X117900926Y-104293797D01*
X117879691Y-104296947D01*
X117858250Y-104298000D01*
X117345750Y-104298000D01*
X117324309Y-104296947D01*
X117303074Y-104293797D01*
X117282250Y-104288581D01*
X117262038Y-104281349D01*
X117242632Y-104272170D01*
X117224219Y-104261134D01*
X117206976Y-104248346D01*
X117191070Y-104233930D01*
X117176654Y-104218024D01*
X117163866Y-104200781D01*
X117152830Y-104182368D01*
X117143651Y-104162962D01*
X117136419Y-104142750D01*
X117131203Y-104121926D01*
X117128053Y-104100691D01*
X117127000Y-104079250D01*
X117127000Y-103641750D01*
X117128053Y-103620309D01*
X117131203Y-103599074D01*
X117136419Y-103578250D01*
X117143651Y-103558038D01*
X117152830Y-103538632D01*
X117163866Y-103520219D01*
X117176654Y-103502976D01*
X117191070Y-103487070D01*
X117206976Y-103472654D01*
X117224219Y-103459866D01*
X117242632Y-103448830D01*
X117262038Y-103439651D01*
X117282250Y-103432419D01*
X117303074Y-103427203D01*
X117324309Y-103424053D01*
X117345750Y-103423000D01*
X117858250Y-103423000D01*
X117879691Y-103424053D01*
X117879691Y-103424053D01*
G37*
D12*
X117602000Y-103860500D03*
G04 #@! TD*
D11*
G04 #@! TO.C,C9*
G36*
X127722691Y-63026053D02*
X127743926Y-63029203D01*
X127764750Y-63034419D01*
X127784962Y-63041651D01*
X127804368Y-63050830D01*
X127822781Y-63061866D01*
X127840024Y-63074654D01*
X127855930Y-63089070D01*
X127870346Y-63104976D01*
X127883134Y-63122219D01*
X127894170Y-63140632D01*
X127903349Y-63160038D01*
X127910581Y-63180250D01*
X127915797Y-63201074D01*
X127918947Y-63222309D01*
X127920000Y-63243750D01*
X127920000Y-63756250D01*
X127918947Y-63777691D01*
X127915797Y-63798926D01*
X127910581Y-63819750D01*
X127903349Y-63839962D01*
X127894170Y-63859368D01*
X127883134Y-63877781D01*
X127870346Y-63895024D01*
X127855930Y-63910930D01*
X127840024Y-63925346D01*
X127822781Y-63938134D01*
X127804368Y-63949170D01*
X127784962Y-63958349D01*
X127764750Y-63965581D01*
X127743926Y-63970797D01*
X127722691Y-63973947D01*
X127701250Y-63975000D01*
X127263750Y-63975000D01*
X127242309Y-63973947D01*
X127221074Y-63970797D01*
X127200250Y-63965581D01*
X127180038Y-63958349D01*
X127160632Y-63949170D01*
X127142219Y-63938134D01*
X127124976Y-63925346D01*
X127109070Y-63910930D01*
X127094654Y-63895024D01*
X127081866Y-63877781D01*
X127070830Y-63859368D01*
X127061651Y-63839962D01*
X127054419Y-63819750D01*
X127049203Y-63798926D01*
X127046053Y-63777691D01*
X127045000Y-63756250D01*
X127045000Y-63243750D01*
X127046053Y-63222309D01*
X127049203Y-63201074D01*
X127054419Y-63180250D01*
X127061651Y-63160038D01*
X127070830Y-63140632D01*
X127081866Y-63122219D01*
X127094654Y-63104976D01*
X127109070Y-63089070D01*
X127124976Y-63074654D01*
X127142219Y-63061866D01*
X127160632Y-63050830D01*
X127180038Y-63041651D01*
X127200250Y-63034419D01*
X127221074Y-63029203D01*
X127242309Y-63026053D01*
X127263750Y-63025000D01*
X127701250Y-63025000D01*
X127722691Y-63026053D01*
X127722691Y-63026053D01*
G37*
D12*
X127482500Y-63500000D03*
D11*
G36*
X129297691Y-63026053D02*
X129318926Y-63029203D01*
X129339750Y-63034419D01*
X129359962Y-63041651D01*
X129379368Y-63050830D01*
X129397781Y-63061866D01*
X129415024Y-63074654D01*
X129430930Y-63089070D01*
X129445346Y-63104976D01*
X129458134Y-63122219D01*
X129469170Y-63140632D01*
X129478349Y-63160038D01*
X129485581Y-63180250D01*
X129490797Y-63201074D01*
X129493947Y-63222309D01*
X129495000Y-63243750D01*
X129495000Y-63756250D01*
X129493947Y-63777691D01*
X129490797Y-63798926D01*
X129485581Y-63819750D01*
X129478349Y-63839962D01*
X129469170Y-63859368D01*
X129458134Y-63877781D01*
X129445346Y-63895024D01*
X129430930Y-63910930D01*
X129415024Y-63925346D01*
X129397781Y-63938134D01*
X129379368Y-63949170D01*
X129359962Y-63958349D01*
X129339750Y-63965581D01*
X129318926Y-63970797D01*
X129297691Y-63973947D01*
X129276250Y-63975000D01*
X128838750Y-63975000D01*
X128817309Y-63973947D01*
X128796074Y-63970797D01*
X128775250Y-63965581D01*
X128755038Y-63958349D01*
X128735632Y-63949170D01*
X128717219Y-63938134D01*
X128699976Y-63925346D01*
X128684070Y-63910930D01*
X128669654Y-63895024D01*
X128656866Y-63877781D01*
X128645830Y-63859368D01*
X128636651Y-63839962D01*
X128629419Y-63819750D01*
X128624203Y-63798926D01*
X128621053Y-63777691D01*
X128620000Y-63756250D01*
X128620000Y-63243750D01*
X128621053Y-63222309D01*
X128624203Y-63201074D01*
X128629419Y-63180250D01*
X128636651Y-63160038D01*
X128645830Y-63140632D01*
X128656866Y-63122219D01*
X128669654Y-63104976D01*
X128684070Y-63089070D01*
X128699976Y-63074654D01*
X128717219Y-63061866D01*
X128735632Y-63050830D01*
X128755038Y-63041651D01*
X128775250Y-63034419D01*
X128796074Y-63029203D01*
X128817309Y-63026053D01*
X128838750Y-63025000D01*
X129276250Y-63025000D01*
X129297691Y-63026053D01*
X129297691Y-63026053D01*
G37*
D12*
X129057500Y-63500000D03*
G04 #@! TD*
D11*
G04 #@! TO.C,C10*
G36*
X105179691Y-62073053D02*
X105200926Y-62076203D01*
X105221750Y-62081419D01*
X105241962Y-62088651D01*
X105261368Y-62097830D01*
X105279781Y-62108866D01*
X105297024Y-62121654D01*
X105312930Y-62136070D01*
X105327346Y-62151976D01*
X105340134Y-62169219D01*
X105351170Y-62187632D01*
X105360349Y-62207038D01*
X105367581Y-62227250D01*
X105372797Y-62248074D01*
X105375947Y-62269309D01*
X105377000Y-62290750D01*
X105377000Y-62728250D01*
X105375947Y-62749691D01*
X105372797Y-62770926D01*
X105367581Y-62791750D01*
X105360349Y-62811962D01*
X105351170Y-62831368D01*
X105340134Y-62849781D01*
X105327346Y-62867024D01*
X105312930Y-62882930D01*
X105297024Y-62897346D01*
X105279781Y-62910134D01*
X105261368Y-62921170D01*
X105241962Y-62930349D01*
X105221750Y-62937581D01*
X105200926Y-62942797D01*
X105179691Y-62945947D01*
X105158250Y-62947000D01*
X104645750Y-62947000D01*
X104624309Y-62945947D01*
X104603074Y-62942797D01*
X104582250Y-62937581D01*
X104562038Y-62930349D01*
X104542632Y-62921170D01*
X104524219Y-62910134D01*
X104506976Y-62897346D01*
X104491070Y-62882930D01*
X104476654Y-62867024D01*
X104463866Y-62849781D01*
X104452830Y-62831368D01*
X104443651Y-62811962D01*
X104436419Y-62791750D01*
X104431203Y-62770926D01*
X104428053Y-62749691D01*
X104427000Y-62728250D01*
X104427000Y-62290750D01*
X104428053Y-62269309D01*
X104431203Y-62248074D01*
X104436419Y-62227250D01*
X104443651Y-62207038D01*
X104452830Y-62187632D01*
X104463866Y-62169219D01*
X104476654Y-62151976D01*
X104491070Y-62136070D01*
X104506976Y-62121654D01*
X104524219Y-62108866D01*
X104542632Y-62097830D01*
X104562038Y-62088651D01*
X104582250Y-62081419D01*
X104603074Y-62076203D01*
X104624309Y-62073053D01*
X104645750Y-62072000D01*
X105158250Y-62072000D01*
X105179691Y-62073053D01*
X105179691Y-62073053D01*
G37*
D12*
X104902000Y-62509500D03*
D11*
G36*
X105179691Y-60498053D02*
X105200926Y-60501203D01*
X105221750Y-60506419D01*
X105241962Y-60513651D01*
X105261368Y-60522830D01*
X105279781Y-60533866D01*
X105297024Y-60546654D01*
X105312930Y-60561070D01*
X105327346Y-60576976D01*
X105340134Y-60594219D01*
X105351170Y-60612632D01*
X105360349Y-60632038D01*
X105367581Y-60652250D01*
X105372797Y-60673074D01*
X105375947Y-60694309D01*
X105377000Y-60715750D01*
X105377000Y-61153250D01*
X105375947Y-61174691D01*
X105372797Y-61195926D01*
X105367581Y-61216750D01*
X105360349Y-61236962D01*
X105351170Y-61256368D01*
X105340134Y-61274781D01*
X105327346Y-61292024D01*
X105312930Y-61307930D01*
X105297024Y-61322346D01*
X105279781Y-61335134D01*
X105261368Y-61346170D01*
X105241962Y-61355349D01*
X105221750Y-61362581D01*
X105200926Y-61367797D01*
X105179691Y-61370947D01*
X105158250Y-61372000D01*
X104645750Y-61372000D01*
X104624309Y-61370947D01*
X104603074Y-61367797D01*
X104582250Y-61362581D01*
X104562038Y-61355349D01*
X104542632Y-61346170D01*
X104524219Y-61335134D01*
X104506976Y-61322346D01*
X104491070Y-61307930D01*
X104476654Y-61292024D01*
X104463866Y-61274781D01*
X104452830Y-61256368D01*
X104443651Y-61236962D01*
X104436419Y-61216750D01*
X104431203Y-61195926D01*
X104428053Y-61174691D01*
X104427000Y-61153250D01*
X104427000Y-60715750D01*
X104428053Y-60694309D01*
X104431203Y-60673074D01*
X104436419Y-60652250D01*
X104443651Y-60632038D01*
X104452830Y-60612632D01*
X104463866Y-60594219D01*
X104476654Y-60576976D01*
X104491070Y-60561070D01*
X104506976Y-60546654D01*
X104524219Y-60533866D01*
X104542632Y-60522830D01*
X104562038Y-60513651D01*
X104582250Y-60506419D01*
X104603074Y-60501203D01*
X104624309Y-60498053D01*
X104645750Y-60497000D01*
X105158250Y-60497000D01*
X105179691Y-60498053D01*
X105179691Y-60498053D01*
G37*
D12*
X104902000Y-60934500D03*
G04 #@! TD*
D11*
G04 #@! TO.C,C11*
G36*
X135659691Y-60295053D02*
X135680926Y-60298203D01*
X135701750Y-60303419D01*
X135721962Y-60310651D01*
X135741368Y-60319830D01*
X135759781Y-60330866D01*
X135777024Y-60343654D01*
X135792930Y-60358070D01*
X135807346Y-60373976D01*
X135820134Y-60391219D01*
X135831170Y-60409632D01*
X135840349Y-60429038D01*
X135847581Y-60449250D01*
X135852797Y-60470074D01*
X135855947Y-60491309D01*
X135857000Y-60512750D01*
X135857000Y-60950250D01*
X135855947Y-60971691D01*
X135852797Y-60992926D01*
X135847581Y-61013750D01*
X135840349Y-61033962D01*
X135831170Y-61053368D01*
X135820134Y-61071781D01*
X135807346Y-61089024D01*
X135792930Y-61104930D01*
X135777024Y-61119346D01*
X135759781Y-61132134D01*
X135741368Y-61143170D01*
X135721962Y-61152349D01*
X135701750Y-61159581D01*
X135680926Y-61164797D01*
X135659691Y-61167947D01*
X135638250Y-61169000D01*
X135125750Y-61169000D01*
X135104309Y-61167947D01*
X135083074Y-61164797D01*
X135062250Y-61159581D01*
X135042038Y-61152349D01*
X135022632Y-61143170D01*
X135004219Y-61132134D01*
X134986976Y-61119346D01*
X134971070Y-61104930D01*
X134956654Y-61089024D01*
X134943866Y-61071781D01*
X134932830Y-61053368D01*
X134923651Y-61033962D01*
X134916419Y-61013750D01*
X134911203Y-60992926D01*
X134908053Y-60971691D01*
X134907000Y-60950250D01*
X134907000Y-60512750D01*
X134908053Y-60491309D01*
X134911203Y-60470074D01*
X134916419Y-60449250D01*
X134923651Y-60429038D01*
X134932830Y-60409632D01*
X134943866Y-60391219D01*
X134956654Y-60373976D01*
X134971070Y-60358070D01*
X134986976Y-60343654D01*
X135004219Y-60330866D01*
X135022632Y-60319830D01*
X135042038Y-60310651D01*
X135062250Y-60303419D01*
X135083074Y-60298203D01*
X135104309Y-60295053D01*
X135125750Y-60294000D01*
X135638250Y-60294000D01*
X135659691Y-60295053D01*
X135659691Y-60295053D01*
G37*
D12*
X135382000Y-60731500D03*
D11*
G36*
X135659691Y-58720053D02*
X135680926Y-58723203D01*
X135701750Y-58728419D01*
X135721962Y-58735651D01*
X135741368Y-58744830D01*
X135759781Y-58755866D01*
X135777024Y-58768654D01*
X135792930Y-58783070D01*
X135807346Y-58798976D01*
X135820134Y-58816219D01*
X135831170Y-58834632D01*
X135840349Y-58854038D01*
X135847581Y-58874250D01*
X135852797Y-58895074D01*
X135855947Y-58916309D01*
X135857000Y-58937750D01*
X135857000Y-59375250D01*
X135855947Y-59396691D01*
X135852797Y-59417926D01*
X135847581Y-59438750D01*
X135840349Y-59458962D01*
X135831170Y-59478368D01*
X135820134Y-59496781D01*
X135807346Y-59514024D01*
X135792930Y-59529930D01*
X135777024Y-59544346D01*
X135759781Y-59557134D01*
X135741368Y-59568170D01*
X135721962Y-59577349D01*
X135701750Y-59584581D01*
X135680926Y-59589797D01*
X135659691Y-59592947D01*
X135638250Y-59594000D01*
X135125750Y-59594000D01*
X135104309Y-59592947D01*
X135083074Y-59589797D01*
X135062250Y-59584581D01*
X135042038Y-59577349D01*
X135022632Y-59568170D01*
X135004219Y-59557134D01*
X134986976Y-59544346D01*
X134971070Y-59529930D01*
X134956654Y-59514024D01*
X134943866Y-59496781D01*
X134932830Y-59478368D01*
X134923651Y-59458962D01*
X134916419Y-59438750D01*
X134911203Y-59417926D01*
X134908053Y-59396691D01*
X134907000Y-59375250D01*
X134907000Y-58937750D01*
X134908053Y-58916309D01*
X134911203Y-58895074D01*
X134916419Y-58874250D01*
X134923651Y-58854038D01*
X134932830Y-58834632D01*
X134943866Y-58816219D01*
X134956654Y-58798976D01*
X134971070Y-58783070D01*
X134986976Y-58768654D01*
X135004219Y-58755866D01*
X135022632Y-58744830D01*
X135042038Y-58735651D01*
X135062250Y-58728419D01*
X135083074Y-58723203D01*
X135104309Y-58720053D01*
X135125750Y-58719000D01*
X135638250Y-58719000D01*
X135659691Y-58720053D01*
X135659691Y-58720053D01*
G37*
D12*
X135382000Y-59156500D03*
G04 #@! TD*
D11*
G04 #@! TO.C,C12*
G36*
X117117691Y-61768053D02*
X117138926Y-61771203D01*
X117159750Y-61776419D01*
X117179962Y-61783651D01*
X117199368Y-61792830D01*
X117217781Y-61803866D01*
X117235024Y-61816654D01*
X117250930Y-61831070D01*
X117265346Y-61846976D01*
X117278134Y-61864219D01*
X117289170Y-61882632D01*
X117298349Y-61902038D01*
X117305581Y-61922250D01*
X117310797Y-61943074D01*
X117313947Y-61964309D01*
X117315000Y-61985750D01*
X117315000Y-62423250D01*
X117313947Y-62444691D01*
X117310797Y-62465926D01*
X117305581Y-62486750D01*
X117298349Y-62506962D01*
X117289170Y-62526368D01*
X117278134Y-62544781D01*
X117265346Y-62562024D01*
X117250930Y-62577930D01*
X117235024Y-62592346D01*
X117217781Y-62605134D01*
X117199368Y-62616170D01*
X117179962Y-62625349D01*
X117159750Y-62632581D01*
X117138926Y-62637797D01*
X117117691Y-62640947D01*
X117096250Y-62642000D01*
X116583750Y-62642000D01*
X116562309Y-62640947D01*
X116541074Y-62637797D01*
X116520250Y-62632581D01*
X116500038Y-62625349D01*
X116480632Y-62616170D01*
X116462219Y-62605134D01*
X116444976Y-62592346D01*
X116429070Y-62577930D01*
X116414654Y-62562024D01*
X116401866Y-62544781D01*
X116390830Y-62526368D01*
X116381651Y-62506962D01*
X116374419Y-62486750D01*
X116369203Y-62465926D01*
X116366053Y-62444691D01*
X116365000Y-62423250D01*
X116365000Y-61985750D01*
X116366053Y-61964309D01*
X116369203Y-61943074D01*
X116374419Y-61922250D01*
X116381651Y-61902038D01*
X116390830Y-61882632D01*
X116401866Y-61864219D01*
X116414654Y-61846976D01*
X116429070Y-61831070D01*
X116444976Y-61816654D01*
X116462219Y-61803866D01*
X116480632Y-61792830D01*
X116500038Y-61783651D01*
X116520250Y-61776419D01*
X116541074Y-61771203D01*
X116562309Y-61768053D01*
X116583750Y-61767000D01*
X117096250Y-61767000D01*
X117117691Y-61768053D01*
X117117691Y-61768053D01*
G37*
D12*
X116840000Y-62204500D03*
D11*
G36*
X117117691Y-63343053D02*
X117138926Y-63346203D01*
X117159750Y-63351419D01*
X117179962Y-63358651D01*
X117199368Y-63367830D01*
X117217781Y-63378866D01*
X117235024Y-63391654D01*
X117250930Y-63406070D01*
X117265346Y-63421976D01*
X117278134Y-63439219D01*
X117289170Y-63457632D01*
X117298349Y-63477038D01*
X117305581Y-63497250D01*
X117310797Y-63518074D01*
X117313947Y-63539309D01*
X117315000Y-63560750D01*
X117315000Y-63998250D01*
X117313947Y-64019691D01*
X117310797Y-64040926D01*
X117305581Y-64061750D01*
X117298349Y-64081962D01*
X117289170Y-64101368D01*
X117278134Y-64119781D01*
X117265346Y-64137024D01*
X117250930Y-64152930D01*
X117235024Y-64167346D01*
X117217781Y-64180134D01*
X117199368Y-64191170D01*
X117179962Y-64200349D01*
X117159750Y-64207581D01*
X117138926Y-64212797D01*
X117117691Y-64215947D01*
X117096250Y-64217000D01*
X116583750Y-64217000D01*
X116562309Y-64215947D01*
X116541074Y-64212797D01*
X116520250Y-64207581D01*
X116500038Y-64200349D01*
X116480632Y-64191170D01*
X116462219Y-64180134D01*
X116444976Y-64167346D01*
X116429070Y-64152930D01*
X116414654Y-64137024D01*
X116401866Y-64119781D01*
X116390830Y-64101368D01*
X116381651Y-64081962D01*
X116374419Y-64061750D01*
X116369203Y-64040926D01*
X116366053Y-64019691D01*
X116365000Y-63998250D01*
X116365000Y-63560750D01*
X116366053Y-63539309D01*
X116369203Y-63518074D01*
X116374419Y-63497250D01*
X116381651Y-63477038D01*
X116390830Y-63457632D01*
X116401866Y-63439219D01*
X116414654Y-63421976D01*
X116429070Y-63406070D01*
X116444976Y-63391654D01*
X116462219Y-63378866D01*
X116480632Y-63367830D01*
X116500038Y-63358651D01*
X116520250Y-63351419D01*
X116541074Y-63346203D01*
X116562309Y-63343053D01*
X116583750Y-63342000D01*
X117096250Y-63342000D01*
X117117691Y-63343053D01*
X117117691Y-63343053D01*
G37*
D12*
X116840000Y-63779500D03*
G04 #@! TD*
D11*
G04 #@! TO.C,C1*
G36*
X131595691Y-81377053D02*
X131616926Y-81380203D01*
X131637750Y-81385419D01*
X131657962Y-81392651D01*
X131677368Y-81401830D01*
X131695781Y-81412866D01*
X131713024Y-81425654D01*
X131728930Y-81440070D01*
X131743346Y-81455976D01*
X131756134Y-81473219D01*
X131767170Y-81491632D01*
X131776349Y-81511038D01*
X131783581Y-81531250D01*
X131788797Y-81552074D01*
X131791947Y-81573309D01*
X131793000Y-81594750D01*
X131793000Y-82032250D01*
X131791947Y-82053691D01*
X131788797Y-82074926D01*
X131783581Y-82095750D01*
X131776349Y-82115962D01*
X131767170Y-82135368D01*
X131756134Y-82153781D01*
X131743346Y-82171024D01*
X131728930Y-82186930D01*
X131713024Y-82201346D01*
X131695781Y-82214134D01*
X131677368Y-82225170D01*
X131657962Y-82234349D01*
X131637750Y-82241581D01*
X131616926Y-82246797D01*
X131595691Y-82249947D01*
X131574250Y-82251000D01*
X131061750Y-82251000D01*
X131040309Y-82249947D01*
X131019074Y-82246797D01*
X130998250Y-82241581D01*
X130978038Y-82234349D01*
X130958632Y-82225170D01*
X130940219Y-82214134D01*
X130922976Y-82201346D01*
X130907070Y-82186930D01*
X130892654Y-82171024D01*
X130879866Y-82153781D01*
X130868830Y-82135368D01*
X130859651Y-82115962D01*
X130852419Y-82095750D01*
X130847203Y-82074926D01*
X130844053Y-82053691D01*
X130843000Y-82032250D01*
X130843000Y-81594750D01*
X130844053Y-81573309D01*
X130847203Y-81552074D01*
X130852419Y-81531250D01*
X130859651Y-81511038D01*
X130868830Y-81491632D01*
X130879866Y-81473219D01*
X130892654Y-81455976D01*
X130907070Y-81440070D01*
X130922976Y-81425654D01*
X130940219Y-81412866D01*
X130958632Y-81401830D01*
X130978038Y-81392651D01*
X130998250Y-81385419D01*
X131019074Y-81380203D01*
X131040309Y-81377053D01*
X131061750Y-81376000D01*
X131574250Y-81376000D01*
X131595691Y-81377053D01*
X131595691Y-81377053D01*
G37*
D12*
X131318000Y-81813500D03*
D11*
G36*
X131595691Y-79802053D02*
X131616926Y-79805203D01*
X131637750Y-79810419D01*
X131657962Y-79817651D01*
X131677368Y-79826830D01*
X131695781Y-79837866D01*
X131713024Y-79850654D01*
X131728930Y-79865070D01*
X131743346Y-79880976D01*
X131756134Y-79898219D01*
X131767170Y-79916632D01*
X131776349Y-79936038D01*
X131783581Y-79956250D01*
X131788797Y-79977074D01*
X131791947Y-79998309D01*
X131793000Y-80019750D01*
X131793000Y-80457250D01*
X131791947Y-80478691D01*
X131788797Y-80499926D01*
X131783581Y-80520750D01*
X131776349Y-80540962D01*
X131767170Y-80560368D01*
X131756134Y-80578781D01*
X131743346Y-80596024D01*
X131728930Y-80611930D01*
X131713024Y-80626346D01*
X131695781Y-80639134D01*
X131677368Y-80650170D01*
X131657962Y-80659349D01*
X131637750Y-80666581D01*
X131616926Y-80671797D01*
X131595691Y-80674947D01*
X131574250Y-80676000D01*
X131061750Y-80676000D01*
X131040309Y-80674947D01*
X131019074Y-80671797D01*
X130998250Y-80666581D01*
X130978038Y-80659349D01*
X130958632Y-80650170D01*
X130940219Y-80639134D01*
X130922976Y-80626346D01*
X130907070Y-80611930D01*
X130892654Y-80596024D01*
X130879866Y-80578781D01*
X130868830Y-80560368D01*
X130859651Y-80540962D01*
X130852419Y-80520750D01*
X130847203Y-80499926D01*
X130844053Y-80478691D01*
X130843000Y-80457250D01*
X130843000Y-80019750D01*
X130844053Y-79998309D01*
X130847203Y-79977074D01*
X130852419Y-79956250D01*
X130859651Y-79936038D01*
X130868830Y-79916632D01*
X130879866Y-79898219D01*
X130892654Y-79880976D01*
X130907070Y-79865070D01*
X130922976Y-79850654D01*
X130940219Y-79837866D01*
X130958632Y-79826830D01*
X130978038Y-79817651D01*
X130998250Y-79810419D01*
X131019074Y-79805203D01*
X131040309Y-79802053D01*
X131061750Y-79801000D01*
X131574250Y-79801000D01*
X131595691Y-79802053D01*
X131595691Y-79802053D01*
G37*
D12*
X131318000Y-80238500D03*
G04 #@! TD*
M02*
