G04 #@! TF.GenerationSoftware,KiCad,Pcbnew,(5.0.1)-3*
G04 #@! TF.CreationDate,2018-11-04T20:32:57-06:00*
G04 #@! TF.ProjectId,ProofOfConceptBoardV1,50726F6F664F66436F6E63657074426F,rev?*
G04 #@! TF.SameCoordinates,Original*
G04 #@! TF.FileFunction,Legend,Bot*
G04 #@! TF.FilePolarity,Positive*
%FSLAX46Y46*%
G04 Gerber Fmt 4.6, Leading zero omitted, Abs format (unit mm)*
G04 Created by KiCad (PCBNEW (5.0.1)-3) date 11/4/2018 8:32:57 PM*
%MOMM*%
%LPD*%
G01*
G04 APERTURE LIST*
%ADD10C,0.500000*%
G04 APERTURE END LIST*
D10*
X172174571Y-71922142D02*
X172174571Y-68922142D01*
X171174571Y-71065000D01*
X170174571Y-68922142D01*
X170174571Y-71922142D01*
X168746000Y-71922142D02*
X168746000Y-69922142D01*
X168746000Y-68922142D02*
X168888857Y-69065000D01*
X168746000Y-69207857D01*
X168603142Y-69065000D01*
X168746000Y-68922142D01*
X168746000Y-69207857D01*
X167460285Y-71779285D02*
X167174571Y-71922142D01*
X166603142Y-71922142D01*
X166317428Y-71779285D01*
X166174571Y-71493571D01*
X166174571Y-71350714D01*
X166317428Y-71065000D01*
X166603142Y-70922142D01*
X167031714Y-70922142D01*
X167317428Y-70779285D01*
X167460285Y-70493571D01*
X167460285Y-70350714D01*
X167317428Y-70065000D01*
X167031714Y-69922142D01*
X166603142Y-69922142D01*
X166317428Y-70065000D01*
X165031714Y-71779285D02*
X164746000Y-71922142D01*
X164174571Y-71922142D01*
X163888857Y-71779285D01*
X163746000Y-71493571D01*
X163746000Y-71350714D01*
X163888857Y-71065000D01*
X164174571Y-70922142D01*
X164603142Y-70922142D01*
X164888857Y-70779285D01*
X165031714Y-70493571D01*
X165031714Y-70350714D01*
X164888857Y-70065000D01*
X164603142Y-69922142D01*
X164174571Y-69922142D01*
X163888857Y-70065000D01*
X162031714Y-71922142D02*
X162317428Y-71779285D01*
X162460285Y-71636428D01*
X162603142Y-71350714D01*
X162603142Y-70493571D01*
X162460285Y-70207857D01*
X162317428Y-70065000D01*
X162031714Y-69922142D01*
X161603142Y-69922142D01*
X161317428Y-70065000D01*
X161174571Y-70207857D01*
X161031714Y-70493571D01*
X161031714Y-71350714D01*
X161174571Y-71636428D01*
X161317428Y-71779285D01*
X161603142Y-71922142D01*
X162031714Y-71922142D01*
X158460285Y-69922142D02*
X158460285Y-71922142D01*
X159746000Y-69922142D02*
X159746000Y-71493571D01*
X159603142Y-71779285D01*
X159317428Y-71922142D01*
X158888857Y-71922142D01*
X158603142Y-71779285D01*
X158460285Y-71636428D01*
X157031714Y-71922142D02*
X157031714Y-69922142D01*
X157031714Y-70493571D02*
X156888857Y-70207857D01*
X156746000Y-70065000D01*
X156460285Y-69922142D01*
X156174571Y-69922142D01*
X155174571Y-71922142D02*
X155174571Y-69922142D01*
X155174571Y-68922142D02*
X155317428Y-69065000D01*
X155174571Y-69207857D01*
X155031714Y-69065000D01*
X155174571Y-68922142D01*
X155174571Y-69207857D01*
X151603142Y-71779285D02*
X151174571Y-71922142D01*
X150460285Y-71922142D01*
X150174571Y-71779285D01*
X150031714Y-71636428D01*
X149888857Y-71350714D01*
X149888857Y-71065000D01*
X150031714Y-70779285D01*
X150174571Y-70636428D01*
X150460285Y-70493571D01*
X151031714Y-70350714D01*
X151317428Y-70207857D01*
X151460285Y-70065000D01*
X151603142Y-69779285D01*
X151603142Y-69493571D01*
X151460285Y-69207857D01*
X151317428Y-69065000D01*
X151031714Y-68922142D01*
X150317428Y-68922142D01*
X149888857Y-69065000D01*
X146174571Y-71922142D02*
X146317428Y-71922142D01*
X146603142Y-71779285D01*
X147031714Y-71350714D01*
X147746000Y-70493571D01*
X148031714Y-70065000D01*
X148174571Y-69636428D01*
X148174571Y-69350714D01*
X148031714Y-69065000D01*
X147746000Y-68922142D01*
X147603142Y-68922142D01*
X147317428Y-69065000D01*
X147174571Y-69350714D01*
X147174571Y-69493571D01*
X147317428Y-69779285D01*
X147460285Y-69922142D01*
X148317428Y-70493571D01*
X148460285Y-70636428D01*
X148603142Y-70922142D01*
X148603142Y-71350714D01*
X148460285Y-71636428D01*
X148317428Y-71779285D01*
X148031714Y-71922142D01*
X147603142Y-71922142D01*
X147317428Y-71779285D01*
X147174571Y-71636428D01*
X146746000Y-71065000D01*
X146603142Y-70636428D01*
X146603142Y-70350714D01*
X145317428Y-68922142D02*
X143603142Y-68922142D01*
X144460285Y-71922142D02*
X144460285Y-68922142D01*
X140317428Y-68922142D02*
X140317428Y-71350714D01*
X140174571Y-71636428D01*
X140031714Y-71779285D01*
X139746000Y-71922142D01*
X139174571Y-71922142D01*
X138888857Y-71779285D01*
X138746000Y-71636428D01*
X138603142Y-71350714D01*
X138603142Y-68922142D01*
X137174571Y-69922142D02*
X137174571Y-71922142D01*
X137174571Y-70207857D02*
X137031714Y-70065000D01*
X136746000Y-69922142D01*
X136317428Y-69922142D01*
X136031714Y-70065000D01*
X135888857Y-70350714D01*
X135888857Y-71922142D01*
X133174571Y-71922142D02*
X133174571Y-68922142D01*
X133174571Y-71779285D02*
X133460285Y-71922142D01*
X134031714Y-71922142D01*
X134317428Y-71779285D01*
X134460285Y-71636428D01*
X134603142Y-71350714D01*
X134603142Y-70493571D01*
X134460285Y-70207857D01*
X134317428Y-70065000D01*
X134031714Y-69922142D01*
X133460285Y-69922142D01*
X133174571Y-70065000D01*
X130603142Y-71779285D02*
X130888857Y-71922142D01*
X131460285Y-71922142D01*
X131746000Y-71779285D01*
X131888857Y-71493571D01*
X131888857Y-70350714D01*
X131746000Y-70065000D01*
X131460285Y-69922142D01*
X130888857Y-69922142D01*
X130603142Y-70065000D01*
X130460285Y-70350714D01*
X130460285Y-70636428D01*
X131888857Y-70922142D01*
X129174571Y-71922142D02*
X129174571Y-69922142D01*
X129174571Y-70493571D02*
X129031714Y-70207857D01*
X128888857Y-70065000D01*
X128603142Y-69922142D01*
X128317428Y-69922142D01*
X127603142Y-69922142D02*
X127031714Y-71922142D01*
X126460285Y-70493571D01*
X125888857Y-71922142D01*
X125317428Y-69922142D01*
X122888857Y-71922142D02*
X122888857Y-70350714D01*
X123031714Y-70065000D01*
X123317428Y-69922142D01*
X123888857Y-69922142D01*
X124174571Y-70065000D01*
X122888857Y-71779285D02*
X123174571Y-71922142D01*
X123888857Y-71922142D01*
X124174571Y-71779285D01*
X124317428Y-71493571D01*
X124317428Y-71207857D01*
X124174571Y-70922142D01*
X123888857Y-70779285D01*
X123174571Y-70779285D01*
X122888857Y-70636428D01*
X121888857Y-69922142D02*
X120746000Y-69922142D01*
X121460285Y-68922142D02*
X121460285Y-71493571D01*
X121317428Y-71779285D01*
X121031714Y-71922142D01*
X120746000Y-71922142D01*
X118603142Y-71779285D02*
X118888857Y-71922142D01*
X119460285Y-71922142D01*
X119745999Y-71779285D01*
X119888857Y-71493571D01*
X119888857Y-70350714D01*
X119745999Y-70065000D01*
X119460285Y-69922142D01*
X118888857Y-69922142D01*
X118603142Y-70065000D01*
X118460285Y-70350714D01*
X118460285Y-70636428D01*
X119888857Y-70922142D01*
X117174571Y-71922142D02*
X117174571Y-69922142D01*
X117174571Y-70493571D02*
X117031714Y-70207857D01*
X116888857Y-70065000D01*
X116603142Y-69922142D01*
X116317428Y-69922142D01*
X111317428Y-71922142D02*
X112317428Y-70493571D01*
X113031714Y-71922142D02*
X113031714Y-68922142D01*
X111888857Y-68922142D01*
X111603142Y-69065000D01*
X111460285Y-69207857D01*
X111317428Y-69493571D01*
X111317428Y-69922142D01*
X111460285Y-70207857D01*
X111603142Y-70350714D01*
X111888857Y-70493571D01*
X113031714Y-70493571D01*
X109603142Y-71922142D02*
X109888857Y-71779285D01*
X110031714Y-71636428D01*
X110174571Y-71350714D01*
X110174571Y-70493571D01*
X110031714Y-70207857D01*
X109888857Y-70065000D01*
X109603142Y-69922142D01*
X109174571Y-69922142D01*
X108888857Y-70065000D01*
X108745999Y-70207857D01*
X108603142Y-70493571D01*
X108603142Y-71350714D01*
X108745999Y-71636428D01*
X108888857Y-71779285D01*
X109174571Y-71922142D01*
X109603142Y-71922142D01*
X107317428Y-71922142D02*
X107317428Y-68922142D01*
X107317428Y-70065000D02*
X107031714Y-69922142D01*
X106460285Y-69922142D01*
X106174571Y-70065000D01*
X106031714Y-70207857D01*
X105888857Y-70493571D01*
X105888857Y-71350714D01*
X106031714Y-71636428D01*
X106174571Y-71779285D01*
X106460285Y-71922142D01*
X107031714Y-71922142D01*
X107317428Y-71779285D01*
X104174571Y-71922142D02*
X104460285Y-71779285D01*
X104603142Y-71636428D01*
X104745999Y-71350714D01*
X104745999Y-70493571D01*
X104603142Y-70207857D01*
X104460285Y-70065000D01*
X104174571Y-69922142D01*
X103745999Y-69922142D01*
X103460285Y-70065000D01*
X103317428Y-70207857D01*
X103174571Y-70493571D01*
X103174571Y-71350714D01*
X103317428Y-71636428D01*
X103460285Y-71779285D01*
X103745999Y-71922142D01*
X104174571Y-71922142D01*
X102317428Y-69922142D02*
X101174571Y-69922142D01*
X101888857Y-68922142D02*
X101888857Y-71493571D01*
X101745999Y-71779285D01*
X101460285Y-71922142D01*
X101174571Y-71922142D01*
X100174571Y-71922142D02*
X100174571Y-69922142D01*
X100174571Y-68922142D02*
X100317428Y-69065000D01*
X100174571Y-69207857D01*
X100031714Y-69065000D01*
X100174571Y-68922142D01*
X100174571Y-69207857D01*
X97460285Y-71779285D02*
X97746000Y-71922142D01*
X98317428Y-71922142D01*
X98603142Y-71779285D01*
X98746000Y-71636428D01*
X98888857Y-71350714D01*
X98888857Y-70493571D01*
X98746000Y-70207857D01*
X98603142Y-70065000D01*
X98317428Y-69922142D01*
X97746000Y-69922142D01*
X97460285Y-70065000D01*
X96317428Y-71779285D02*
X96031714Y-71922142D01*
X95460285Y-71922142D01*
X95174571Y-71779285D01*
X95031714Y-71493571D01*
X95031714Y-71350714D01*
X95174571Y-71065000D01*
X95460285Y-70922142D01*
X95888857Y-70922142D01*
X96174571Y-70779285D01*
X96317428Y-70493571D01*
X96317428Y-70350714D01*
X96174571Y-70065000D01*
X95888857Y-69922142D01*
X95460285Y-69922142D01*
X95174571Y-70065000D01*
X91888857Y-68922142D02*
X90174571Y-68922142D01*
X91031714Y-71922142D02*
X91031714Y-68922142D01*
X88031714Y-71779285D02*
X88317428Y-71922142D01*
X88888857Y-71922142D01*
X89174571Y-71779285D01*
X89317428Y-71493571D01*
X89317428Y-70350714D01*
X89174571Y-70065000D01*
X88888857Y-69922142D01*
X88317428Y-69922142D01*
X88031714Y-70065000D01*
X87888857Y-70350714D01*
X87888857Y-70636428D01*
X89317428Y-70922142D01*
X85317428Y-71922142D02*
X85317428Y-70350714D01*
X85460285Y-70065000D01*
X85746000Y-69922142D01*
X86317428Y-69922142D01*
X86603142Y-70065000D01*
X85317428Y-71779285D02*
X85603142Y-71922142D01*
X86317428Y-71922142D01*
X86603142Y-71779285D01*
X86746000Y-71493571D01*
X86746000Y-71207857D01*
X86603142Y-70922142D01*
X86317428Y-70779285D01*
X85603142Y-70779285D01*
X85317428Y-70636428D01*
X83888857Y-71922142D02*
X83888857Y-69922142D01*
X83888857Y-70207857D02*
X83746000Y-70065000D01*
X83460285Y-69922142D01*
X83031714Y-69922142D01*
X82745999Y-70065000D01*
X82603142Y-70350714D01*
X82603142Y-71922142D01*
X82603142Y-70350714D02*
X82460285Y-70065000D01*
X82174571Y-69922142D01*
X81746000Y-69922142D01*
X81460285Y-70065000D01*
X81317428Y-70350714D01*
X81317428Y-71922142D01*
X166317428Y-76636428D02*
X166460285Y-76779285D01*
X166888857Y-76922142D01*
X167174571Y-76922142D01*
X167603142Y-76779285D01*
X167888857Y-76493571D01*
X168031714Y-76207857D01*
X168174571Y-75636428D01*
X168174571Y-75207857D01*
X168031714Y-74636428D01*
X167888857Y-74350714D01*
X167603142Y-74065000D01*
X167174571Y-73922142D01*
X166888857Y-73922142D01*
X166460285Y-74065000D01*
X166317428Y-74207857D01*
X165174571Y-76065000D02*
X163746000Y-76065000D01*
X165460285Y-76922142D02*
X164460285Y-73922142D01*
X163460285Y-76922142D01*
X162460285Y-76922142D02*
X162460285Y-73922142D01*
X160746000Y-76922142D01*
X160746000Y-73922142D01*
X157031714Y-76922142D02*
X157031714Y-73922142D01*
X155888857Y-73922142D01*
X155603142Y-74065000D01*
X155460285Y-74207857D01*
X155317428Y-74493571D01*
X155317428Y-74922142D01*
X155460285Y-75207857D01*
X155603142Y-75350714D01*
X155888857Y-75493571D01*
X157031714Y-75493571D01*
X154031714Y-76922142D02*
X154031714Y-74922142D01*
X154031714Y-75493571D02*
X153888857Y-75207857D01*
X153746000Y-75065000D01*
X153460285Y-74922142D01*
X153174571Y-74922142D01*
X151746000Y-76922142D02*
X152031714Y-76779285D01*
X152174571Y-76636428D01*
X152317428Y-76350714D01*
X152317428Y-75493571D01*
X152174571Y-75207857D01*
X152031714Y-75065000D01*
X151746000Y-74922142D01*
X151317428Y-74922142D01*
X151031714Y-75065000D01*
X150888857Y-75207857D01*
X150746000Y-75493571D01*
X150746000Y-76350714D01*
X150888857Y-76636428D01*
X151031714Y-76779285D01*
X151317428Y-76922142D01*
X151746000Y-76922142D01*
X149888857Y-74922142D02*
X148746000Y-74922142D01*
X149460285Y-73922142D02*
X149460285Y-76493571D01*
X149317428Y-76779285D01*
X149031714Y-76922142D01*
X148746000Y-76922142D01*
X147317428Y-76922142D02*
X147603142Y-76779285D01*
X147746000Y-76636428D01*
X147888857Y-76350714D01*
X147888857Y-75493571D01*
X147746000Y-75207857D01*
X147603142Y-75065000D01*
X147317428Y-74922142D01*
X146888857Y-74922142D01*
X146603142Y-75065000D01*
X146460285Y-75207857D01*
X146317428Y-75493571D01*
X146317428Y-76350714D01*
X146460285Y-76636428D01*
X146603142Y-76779285D01*
X146888857Y-76922142D01*
X147317428Y-76922142D01*
X143746000Y-76779285D02*
X144031714Y-76922142D01*
X144603142Y-76922142D01*
X144888857Y-76779285D01*
X145031714Y-76636428D01*
X145174571Y-76350714D01*
X145174571Y-75493571D01*
X145031714Y-75207857D01*
X144888857Y-75065000D01*
X144603142Y-74922142D01*
X144031714Y-74922142D01*
X143746000Y-75065000D01*
X142031714Y-76922142D02*
X142317428Y-76779285D01*
X142460285Y-76636428D01*
X142603142Y-76350714D01*
X142603142Y-75493571D01*
X142460285Y-75207857D01*
X142317428Y-75065000D01*
X142031714Y-74922142D01*
X141603142Y-74922142D01*
X141317428Y-75065000D01*
X141174571Y-75207857D01*
X141031714Y-75493571D01*
X141031714Y-76350714D01*
X141174571Y-76636428D01*
X141317428Y-76779285D01*
X141603142Y-76922142D01*
X142031714Y-76922142D01*
X139317428Y-76922142D02*
X139603142Y-76779285D01*
X139746000Y-76493571D01*
X139746000Y-73922142D01*
X133746000Y-73779285D02*
X136317428Y-77636428D01*
X130460285Y-76922142D02*
X130460285Y-73922142D01*
X129746000Y-73922142D01*
X129317428Y-74065000D01*
X129031714Y-74350714D01*
X128888857Y-74636428D01*
X128746000Y-75207857D01*
X128746000Y-75636428D01*
X128888857Y-76207857D01*
X129031714Y-76493571D01*
X129317428Y-76779285D01*
X129746000Y-76922142D01*
X130460285Y-76922142D01*
X127460285Y-76922142D02*
X127460285Y-74922142D01*
X127460285Y-75493571D02*
X127317428Y-75207857D01*
X127174571Y-75065000D01*
X126888857Y-74922142D01*
X126603142Y-74922142D01*
X125603142Y-76922142D02*
X125603142Y-74922142D01*
X125603142Y-73922142D02*
X125746000Y-74065000D01*
X125603142Y-74207857D01*
X125460285Y-74065000D01*
X125603142Y-73922142D01*
X125603142Y-74207857D01*
X124460285Y-74922142D02*
X123746000Y-76922142D01*
X123031714Y-74922142D01*
X120746000Y-76779285D02*
X121031714Y-76922142D01*
X121603142Y-76922142D01*
X121888857Y-76779285D01*
X122031714Y-76493571D01*
X122031714Y-75350714D01*
X121888857Y-75065000D01*
X121603142Y-74922142D01*
X121031714Y-74922142D01*
X120746000Y-75065000D01*
X120603142Y-75350714D01*
X120603142Y-75636428D01*
X122031714Y-75922142D01*
X119317428Y-76922142D02*
X119317428Y-74922142D01*
X119317428Y-75493571D02*
X119174571Y-75207857D01*
X119031714Y-75065000D01*
X118746000Y-74922142D01*
X118460285Y-74922142D01*
X115603142Y-73922142D02*
X113888857Y-73922142D01*
X114746000Y-76922142D02*
X114746000Y-73922142D01*
X111746000Y-76779285D02*
X112031714Y-76922142D01*
X112603142Y-76922142D01*
X112888857Y-76779285D01*
X113031714Y-76493571D01*
X113031714Y-75350714D01*
X112888857Y-75065000D01*
X112603142Y-74922142D01*
X112031714Y-74922142D01*
X111746000Y-75065000D01*
X111603142Y-75350714D01*
X111603142Y-75636428D01*
X113031714Y-75922142D01*
X110460285Y-76779285D02*
X110174571Y-76922142D01*
X109603142Y-76922142D01*
X109317428Y-76779285D01*
X109174571Y-76493571D01*
X109174571Y-76350714D01*
X109317428Y-76065000D01*
X109603142Y-75922142D01*
X110031714Y-75922142D01*
X110317428Y-75779285D01*
X110460285Y-75493571D01*
X110460285Y-75350714D01*
X110317428Y-75065000D01*
X110031714Y-74922142D01*
X109603142Y-74922142D01*
X109317428Y-75065000D01*
X108317428Y-74922142D02*
X107174571Y-74922142D01*
X107888857Y-73922142D02*
X107888857Y-76493571D01*
X107746000Y-76779285D01*
X107460285Y-76922142D01*
X107174571Y-76922142D01*
X106174571Y-76922142D02*
X106174571Y-74922142D01*
X106174571Y-73922142D02*
X106317428Y-74065000D01*
X106174571Y-74207857D01*
X106031714Y-74065000D01*
X106174571Y-73922142D01*
X106174571Y-74207857D01*
X104746000Y-74922142D02*
X104746000Y-76922142D01*
X104746000Y-75207857D02*
X104603142Y-75065000D01*
X104317428Y-74922142D01*
X103888857Y-74922142D01*
X103603142Y-75065000D01*
X103460285Y-75350714D01*
X103460285Y-76922142D01*
X100746000Y-74922142D02*
X100746000Y-77350714D01*
X100888857Y-77636428D01*
X101031714Y-77779285D01*
X101317428Y-77922142D01*
X101746000Y-77922142D01*
X102031714Y-77779285D01*
X100746000Y-76779285D02*
X101031714Y-76922142D01*
X101603142Y-76922142D01*
X101888857Y-76779285D01*
X102031714Y-76636428D01*
X102174571Y-76350714D01*
X102174571Y-75493571D01*
X102031714Y-75207857D01*
X101888857Y-75065000D01*
X101603142Y-74922142D01*
X101031714Y-74922142D01*
X100746000Y-75065000D01*
X96031714Y-75350714D02*
X95603142Y-75493571D01*
X95460285Y-75636428D01*
X95317428Y-75922142D01*
X95317428Y-76350714D01*
X95460285Y-76636428D01*
X95603142Y-76779285D01*
X95888857Y-76922142D01*
X97031714Y-76922142D01*
X97031714Y-73922142D01*
X96031714Y-73922142D01*
X95746000Y-74065000D01*
X95603142Y-74207857D01*
X95460285Y-74493571D01*
X95460285Y-74779285D01*
X95603142Y-75065000D01*
X95746000Y-75207857D01*
X96031714Y-75350714D01*
X97031714Y-75350714D01*
X93603142Y-76922142D02*
X93888857Y-76779285D01*
X94031714Y-76636428D01*
X94174571Y-76350714D01*
X94174571Y-75493571D01*
X94031714Y-75207857D01*
X93888857Y-75065000D01*
X93603142Y-74922142D01*
X93174571Y-74922142D01*
X92888857Y-75065000D01*
X92746000Y-75207857D01*
X92603142Y-75493571D01*
X92603142Y-76350714D01*
X92746000Y-76636428D01*
X92888857Y-76779285D01*
X93174571Y-76922142D01*
X93603142Y-76922142D01*
X90031714Y-76922142D02*
X90031714Y-75350714D01*
X90174571Y-75065000D01*
X90460285Y-74922142D01*
X91031714Y-74922142D01*
X91317428Y-75065000D01*
X90031714Y-76779285D02*
X90317428Y-76922142D01*
X91031714Y-76922142D01*
X91317428Y-76779285D01*
X91460285Y-76493571D01*
X91460285Y-76207857D01*
X91317428Y-75922142D01*
X91031714Y-75779285D01*
X90317428Y-75779285D01*
X90031714Y-75636428D01*
X88603142Y-76922142D02*
X88603142Y-74922142D01*
X88603142Y-75493571D02*
X88460285Y-75207857D01*
X88317428Y-75065000D01*
X88031714Y-74922142D01*
X87746000Y-74922142D01*
X85460285Y-76922142D02*
X85460285Y-73922142D01*
X85460285Y-76779285D02*
X85746000Y-76922142D01*
X86317428Y-76922142D01*
X86603142Y-76779285D01*
X86746000Y-76636428D01*
X86888857Y-76350714D01*
X86888857Y-75493571D01*
X86746000Y-75207857D01*
X86603142Y-75065000D01*
X86317428Y-74922142D01*
X85746000Y-74922142D01*
X85460285Y-75065000D01*
X157103142Y-78922142D02*
X157103142Y-81065000D01*
X157246000Y-81493571D01*
X157531714Y-81779285D01*
X157960285Y-81922142D01*
X158246000Y-81922142D01*
X154388857Y-81922142D02*
X154388857Y-80350714D01*
X154531714Y-80065000D01*
X154817428Y-79922142D01*
X155388857Y-79922142D01*
X155674571Y-80065000D01*
X154388857Y-81779285D02*
X154674571Y-81922142D01*
X155388857Y-81922142D01*
X155674571Y-81779285D01*
X155817428Y-81493571D01*
X155817428Y-81207857D01*
X155674571Y-80922142D01*
X155388857Y-80779285D01*
X154674571Y-80779285D01*
X154388857Y-80636428D01*
X151674571Y-81779285D02*
X151960285Y-81922142D01*
X152531714Y-81922142D01*
X152817428Y-81779285D01*
X152960285Y-81636428D01*
X153103142Y-81350714D01*
X153103142Y-80493571D01*
X152960285Y-80207857D01*
X152817428Y-80065000D01*
X152531714Y-79922142D01*
X151960285Y-79922142D01*
X151674571Y-80065000D01*
X150388857Y-81922142D02*
X150388857Y-78922142D01*
X150103142Y-80779285D02*
X149246000Y-81922142D01*
X149246000Y-79922142D02*
X150388857Y-81065000D01*
X144817428Y-78922142D02*
X144817428Y-81065000D01*
X144960285Y-81493571D01*
X145246000Y-81779285D01*
X145674571Y-81922142D01*
X145960285Y-81922142D01*
X142103142Y-79922142D02*
X142103142Y-81922142D01*
X143388857Y-79922142D02*
X143388857Y-81493571D01*
X143246000Y-81779285D01*
X142960285Y-81922142D01*
X142531714Y-81922142D01*
X142246000Y-81779285D01*
X142103142Y-81636428D01*
X139388857Y-81922142D02*
X139388857Y-80350714D01*
X139531714Y-80065000D01*
X139817428Y-79922142D01*
X140388857Y-79922142D01*
X140674571Y-80065000D01*
X139388857Y-81779285D02*
X139674571Y-81922142D01*
X140388857Y-81922142D01*
X140674571Y-81779285D01*
X140817428Y-81493571D01*
X140817428Y-81207857D01*
X140674571Y-80922142D01*
X140388857Y-80779285D01*
X139674571Y-80779285D01*
X139388857Y-80636428D01*
X137960285Y-79922142D02*
X137960285Y-81922142D01*
X137960285Y-80207857D02*
X137817428Y-80065000D01*
X137531714Y-79922142D01*
X137103142Y-79922142D01*
X136817428Y-80065000D01*
X136674571Y-80350714D01*
X136674571Y-81922142D01*
X133960285Y-79922142D02*
X133960285Y-82350714D01*
X134103142Y-82636428D01*
X134246000Y-82779285D01*
X134531714Y-82922142D01*
X134960285Y-82922142D01*
X135246000Y-82779285D01*
X133960285Y-81779285D02*
X134246000Y-81922142D01*
X134817428Y-81922142D01*
X135103142Y-81779285D01*
X135246000Y-81636428D01*
X135388857Y-81350714D01*
X135388857Y-80493571D01*
X135246000Y-80207857D01*
X135103142Y-80065000D01*
X134817428Y-79922142D01*
X134246000Y-79922142D01*
X133960285Y-80065000D01*
X129531714Y-82922142D02*
X129531714Y-78636428D01*
X125245999Y-81779285D02*
X124817428Y-81922142D01*
X124103142Y-81922142D01*
X123817428Y-81779285D01*
X123674571Y-81636428D01*
X123531714Y-81350714D01*
X123531714Y-81065000D01*
X123674571Y-80779285D01*
X123817428Y-80636428D01*
X124103142Y-80493571D01*
X124674571Y-80350714D01*
X124960285Y-80207857D01*
X125103142Y-80065000D01*
X125245999Y-79779285D01*
X125245999Y-79493571D01*
X125103142Y-79207857D01*
X124960285Y-79065000D01*
X124674571Y-78922142D01*
X123960285Y-78922142D01*
X123531714Y-79065000D01*
X120674571Y-81922142D02*
X122388857Y-81922142D01*
X121531714Y-81922142D02*
X121531714Y-78922142D01*
X121817428Y-79350714D01*
X122103142Y-79636428D01*
X122388857Y-79779285D01*
X119388857Y-81636428D02*
X119245999Y-81779285D01*
X119388857Y-81922142D01*
X119531714Y-81779285D01*
X119388857Y-81636428D01*
X119388857Y-81922142D01*
X117388857Y-78922142D02*
X117103142Y-78922142D01*
X116817428Y-79065000D01*
X116674571Y-79207857D01*
X116531714Y-79493571D01*
X116388857Y-80065000D01*
X116388857Y-80779285D01*
X116531714Y-81350714D01*
X116674571Y-81636428D01*
X116817428Y-81779285D01*
X117103142Y-81922142D01*
X117388857Y-81922142D01*
X117674571Y-81779285D01*
X117817428Y-81636428D01*
X117960285Y-81350714D01*
X118103142Y-80779285D01*
X118103142Y-80065000D01*
X117960285Y-79493571D01*
X117817428Y-79207857D01*
X117674571Y-79065000D01*
X117388857Y-78922142D01*
X115103142Y-81636428D02*
X114960285Y-81779285D01*
X115103142Y-81922142D01*
X115245999Y-81779285D01*
X115103142Y-81636428D01*
X115103142Y-81922142D01*
X113103142Y-78922142D02*
X112817428Y-78922142D01*
X112531714Y-79065000D01*
X112388857Y-79207857D01*
X112245999Y-79493571D01*
X112103142Y-80065000D01*
X112103142Y-80779285D01*
X112245999Y-81350714D01*
X112388857Y-81636428D01*
X112531714Y-81779285D01*
X112817428Y-81922142D01*
X113103142Y-81922142D01*
X113388857Y-81779285D01*
X113531714Y-81636428D01*
X113674571Y-81350714D01*
X113817428Y-80779285D01*
X113817428Y-80065000D01*
X113674571Y-79493571D01*
X113531714Y-79207857D01*
X113388857Y-79065000D01*
X113103142Y-78922142D01*
X107531714Y-80350714D02*
X107103142Y-80493571D01*
X106960285Y-80636428D01*
X106817428Y-80922142D01*
X106817428Y-81350714D01*
X106960285Y-81636428D01*
X107103142Y-81779285D01*
X107388857Y-81922142D01*
X108531714Y-81922142D01*
X108531714Y-78922142D01*
X107531714Y-78922142D01*
X107245999Y-79065000D01*
X107103142Y-79207857D01*
X106960285Y-79493571D01*
X106960285Y-79779285D01*
X107103142Y-80065000D01*
X107245999Y-80207857D01*
X107531714Y-80350714D01*
X108531714Y-80350714D01*
X103960285Y-81922142D02*
X105674571Y-81922142D01*
X104817428Y-81922142D02*
X104817428Y-78922142D01*
X105103142Y-79350714D01*
X105388857Y-79636428D01*
X105674571Y-79779285D01*
X102674571Y-81636428D02*
X102531714Y-81779285D01*
X102674571Y-81922142D01*
X102817428Y-81779285D01*
X102674571Y-81636428D01*
X102674571Y-81922142D01*
X100674571Y-78922142D02*
X100388857Y-78922142D01*
X100103142Y-79065000D01*
X99960285Y-79207857D01*
X99817428Y-79493571D01*
X99674571Y-80065000D01*
X99674571Y-80779285D01*
X99817428Y-81350714D01*
X99960285Y-81636428D01*
X100103142Y-81779285D01*
X100388857Y-81922142D01*
X100674571Y-81922142D01*
X100960285Y-81779285D01*
X101103142Y-81636428D01*
X101245999Y-81350714D01*
X101388857Y-80779285D01*
X101388857Y-80065000D01*
X101245999Y-79493571D01*
X101103142Y-79207857D01*
X100960285Y-79065000D01*
X100674571Y-78922142D01*
X98388857Y-81636428D02*
X98245999Y-81779285D01*
X98388857Y-81922142D01*
X98531714Y-81779285D01*
X98388857Y-81636428D01*
X98388857Y-81922142D01*
X95388857Y-81922142D02*
X97103142Y-81922142D01*
X96245999Y-81922142D02*
X96245999Y-78922142D01*
X96531714Y-79350714D01*
X96817428Y-79636428D01*
X97103142Y-79779285D01*
M02*
