G04 #@! TF.GenerationSoftware,KiCad,Pcbnew,(5.0.1)-3*
G04 #@! TF.CreationDate,2018-11-04T18:55:45-06:00*
G04 #@! TF.ProjectId,ProofOfConceptBoardV1,50726F6F664F66436F6E63657074426F,rev?*
G04 #@! TF.SameCoordinates,Original*
G04 #@! TF.FileFunction,Soldermask,Top*
G04 #@! TF.FilePolarity,Negative*
%FSLAX46Y46*%
G04 Gerber Fmt 4.6, Leading zero omitted, Abs format (unit mm)*
G04 Created by KiCad (PCBNEW (5.0.1)-3) date 11/4/2018 6:55:45 PM*
%MOMM*%
%LPD*%
G01*
G04 APERTURE LIST*
%ADD10C,0.100000*%
G04 APERTURE END LIST*
D10*
G36*
X138525116Y-105509595D02*
X138554313Y-105518452D01*
X138581218Y-105532833D01*
X138604808Y-105552192D01*
X138624167Y-105575782D01*
X138638548Y-105602687D01*
X138647405Y-105631884D01*
X138651000Y-105668390D01*
X138651000Y-106218610D01*
X138647405Y-106255116D01*
X138638548Y-106284313D01*
X138624167Y-106311218D01*
X138604808Y-106334808D01*
X138581218Y-106354167D01*
X138554313Y-106368548D01*
X138525116Y-106377405D01*
X138488610Y-106381000D01*
X137863390Y-106381000D01*
X137826884Y-106377405D01*
X137797687Y-106368548D01*
X137770782Y-106354167D01*
X137747192Y-106334808D01*
X137727833Y-106311218D01*
X137713452Y-106284313D01*
X137704595Y-106255116D01*
X137701000Y-106218610D01*
X137701000Y-105668390D01*
X137704595Y-105631884D01*
X137713452Y-105602687D01*
X137727833Y-105575782D01*
X137747192Y-105552192D01*
X137770782Y-105532833D01*
X137797687Y-105518452D01*
X137826884Y-105509595D01*
X137863390Y-105506000D01*
X138488610Y-105506000D01*
X138525116Y-105509595D01*
X138525116Y-105509595D01*
G37*
G36*
X150717116Y-105255595D02*
X150746313Y-105264452D01*
X150773218Y-105278833D01*
X150796808Y-105298192D01*
X150816167Y-105321782D01*
X150830548Y-105348687D01*
X150839405Y-105377884D01*
X150843000Y-105414390D01*
X150843000Y-105964610D01*
X150839405Y-106001116D01*
X150830548Y-106030313D01*
X150816167Y-106057218D01*
X150796808Y-106080808D01*
X150773218Y-106100167D01*
X150746313Y-106114548D01*
X150717116Y-106123405D01*
X150680610Y-106127000D01*
X150055390Y-106127000D01*
X150018884Y-106123405D01*
X149989687Y-106114548D01*
X149962782Y-106100167D01*
X149939192Y-106080808D01*
X149919833Y-106057218D01*
X149905452Y-106030313D01*
X149896595Y-106001116D01*
X149893000Y-105964610D01*
X149893000Y-105414390D01*
X149896595Y-105377884D01*
X149905452Y-105348687D01*
X149919833Y-105321782D01*
X149939192Y-105298192D01*
X149962782Y-105278833D01*
X149989687Y-105264452D01*
X150018884Y-105255595D01*
X150055390Y-105252000D01*
X150680610Y-105252000D01*
X150717116Y-105255595D01*
X150717116Y-105255595D01*
G37*
G36*
X157264000Y-105956000D02*
X155664000Y-105956000D01*
X155664000Y-105306000D01*
X157264000Y-105306000D01*
X157264000Y-105956000D01*
X157264000Y-105956000D01*
G37*
G36*
X144818000Y-105923000D02*
X143218000Y-105923000D01*
X143218000Y-105273000D01*
X144818000Y-105273000D01*
X144818000Y-105923000D01*
X144818000Y-105923000D01*
G37*
G36*
X90519116Y-105001595D02*
X90548313Y-105010452D01*
X90575218Y-105024833D01*
X90598808Y-105044192D01*
X90618167Y-105067782D01*
X90632548Y-105094687D01*
X90641405Y-105123884D01*
X90645000Y-105160390D01*
X90645000Y-105710610D01*
X90641405Y-105747116D01*
X90632548Y-105776313D01*
X90618167Y-105803218D01*
X90598808Y-105826808D01*
X90575218Y-105846167D01*
X90548313Y-105860548D01*
X90519116Y-105869405D01*
X90482610Y-105873000D01*
X89857390Y-105873000D01*
X89820884Y-105869405D01*
X89791687Y-105860548D01*
X89764782Y-105846167D01*
X89741192Y-105826808D01*
X89721833Y-105803218D01*
X89707452Y-105776313D01*
X89698595Y-105747116D01*
X89695000Y-105710610D01*
X89695000Y-105160390D01*
X89698595Y-105123884D01*
X89707452Y-105094687D01*
X89721833Y-105067782D01*
X89741192Y-105044192D01*
X89764782Y-105024833D01*
X89791687Y-105010452D01*
X89820884Y-105001595D01*
X89857390Y-104998000D01*
X90482610Y-104998000D01*
X90519116Y-105001595D01*
X90519116Y-105001595D01*
G37*
G36*
X117951116Y-105001595D02*
X117980313Y-105010452D01*
X118007218Y-105024833D01*
X118030808Y-105044192D01*
X118050167Y-105067782D01*
X118064548Y-105094687D01*
X118073405Y-105123884D01*
X118077000Y-105160390D01*
X118077000Y-105710610D01*
X118073405Y-105747116D01*
X118064548Y-105776313D01*
X118050167Y-105803218D01*
X118030808Y-105826808D01*
X118007218Y-105846167D01*
X117980313Y-105860548D01*
X117951116Y-105869405D01*
X117914610Y-105873000D01*
X117289390Y-105873000D01*
X117252884Y-105869405D01*
X117223687Y-105860548D01*
X117196782Y-105846167D01*
X117173192Y-105826808D01*
X117153833Y-105803218D01*
X117139452Y-105776313D01*
X117130595Y-105747116D01*
X117127000Y-105710610D01*
X117127000Y-105160390D01*
X117130595Y-105123884D01*
X117139452Y-105094687D01*
X117153833Y-105067782D01*
X117173192Y-105044192D01*
X117196782Y-105024833D01*
X117223687Y-105010452D01*
X117252884Y-105001595D01*
X117289390Y-104998000D01*
X117914610Y-104998000D01*
X117951116Y-105001595D01*
X117951116Y-105001595D01*
G37*
G36*
X79343116Y-105001595D02*
X79372313Y-105010452D01*
X79399218Y-105024833D01*
X79422808Y-105044192D01*
X79442167Y-105067782D01*
X79456548Y-105094687D01*
X79465405Y-105123884D01*
X79469000Y-105160390D01*
X79469000Y-105710610D01*
X79465405Y-105747116D01*
X79456548Y-105776313D01*
X79442167Y-105803218D01*
X79422808Y-105826808D01*
X79399218Y-105846167D01*
X79372313Y-105860548D01*
X79343116Y-105869405D01*
X79306610Y-105873000D01*
X78681390Y-105873000D01*
X78644884Y-105869405D01*
X78615687Y-105860548D01*
X78588782Y-105846167D01*
X78565192Y-105826808D01*
X78545833Y-105803218D01*
X78531452Y-105776313D01*
X78522595Y-105747116D01*
X78519000Y-105710610D01*
X78519000Y-105160390D01*
X78522595Y-105123884D01*
X78531452Y-105094687D01*
X78545833Y-105067782D01*
X78565192Y-105044192D01*
X78588782Y-105024833D01*
X78615687Y-105010452D01*
X78644884Y-105001595D01*
X78681390Y-104998000D01*
X79306610Y-104998000D01*
X79343116Y-105001595D01*
X79343116Y-105001595D01*
G37*
G36*
X86096157Y-105829497D02*
X84496157Y-105829497D01*
X84496157Y-105179497D01*
X86096157Y-105179497D01*
X86096157Y-105829497D01*
X86096157Y-105829497D01*
G37*
G36*
X96764157Y-105608497D02*
X95164157Y-105608497D01*
X95164157Y-104958497D01*
X96764157Y-104958497D01*
X96764157Y-105608497D01*
X96764157Y-105608497D01*
G37*
G36*
X157264000Y-105006000D02*
X155664000Y-105006000D01*
X155664000Y-104356000D01*
X157264000Y-104356000D01*
X157264000Y-105006000D01*
X157264000Y-105006000D01*
G37*
G36*
X144818000Y-104973000D02*
X143218000Y-104973000D01*
X143218000Y-104323000D01*
X144818000Y-104323000D01*
X144818000Y-104973000D01*
X144818000Y-104973000D01*
G37*
G36*
X86096157Y-104879497D02*
X84496157Y-104879497D01*
X84496157Y-104229497D01*
X86096157Y-104229497D01*
X86096157Y-104879497D01*
X86096157Y-104879497D01*
G37*
G36*
X138525116Y-103934595D02*
X138554313Y-103943452D01*
X138581218Y-103957833D01*
X138604808Y-103977192D01*
X138624167Y-104000782D01*
X138638548Y-104027687D01*
X138647405Y-104056884D01*
X138651000Y-104093390D01*
X138651000Y-104643610D01*
X138647405Y-104680116D01*
X138638548Y-104709313D01*
X138624167Y-104736218D01*
X138604808Y-104759808D01*
X138581218Y-104779167D01*
X138554313Y-104793548D01*
X138525116Y-104802405D01*
X138488610Y-104806000D01*
X137863390Y-104806000D01*
X137826884Y-104802405D01*
X137797687Y-104793548D01*
X137770782Y-104779167D01*
X137747192Y-104759808D01*
X137727833Y-104736218D01*
X137713452Y-104709313D01*
X137704595Y-104680116D01*
X137701000Y-104643610D01*
X137701000Y-104093390D01*
X137704595Y-104056884D01*
X137713452Y-104027687D01*
X137727833Y-104000782D01*
X137747192Y-103977192D01*
X137770782Y-103957833D01*
X137797687Y-103943452D01*
X137826884Y-103934595D01*
X137863390Y-103931000D01*
X138488610Y-103931000D01*
X138525116Y-103934595D01*
X138525116Y-103934595D01*
G37*
G36*
X96764157Y-104658497D02*
X95164157Y-104658497D01*
X95164157Y-104008497D01*
X96764157Y-104008497D01*
X96764157Y-104658497D01*
X96764157Y-104658497D01*
G37*
G36*
X150717116Y-103680595D02*
X150746313Y-103689452D01*
X150773218Y-103703833D01*
X150796808Y-103723192D01*
X150816167Y-103746782D01*
X150830548Y-103773687D01*
X150839405Y-103802884D01*
X150843000Y-103839390D01*
X150843000Y-104389610D01*
X150839405Y-104426116D01*
X150830548Y-104455313D01*
X150816167Y-104482218D01*
X150796808Y-104505808D01*
X150773218Y-104525167D01*
X150746313Y-104539548D01*
X150717116Y-104548405D01*
X150680610Y-104552000D01*
X150055390Y-104552000D01*
X150018884Y-104548405D01*
X149989687Y-104539548D01*
X149962782Y-104525167D01*
X149939192Y-104505808D01*
X149919833Y-104482218D01*
X149905452Y-104455313D01*
X149896595Y-104426116D01*
X149893000Y-104389610D01*
X149893000Y-103839390D01*
X149896595Y-103802884D01*
X149905452Y-103773687D01*
X149919833Y-103746782D01*
X149939192Y-103723192D01*
X149962782Y-103703833D01*
X149989687Y-103689452D01*
X150018884Y-103680595D01*
X150055390Y-103677000D01*
X150680610Y-103677000D01*
X150717116Y-103680595D01*
X150717116Y-103680595D01*
G37*
G36*
X79343116Y-103426595D02*
X79372313Y-103435452D01*
X79399218Y-103449833D01*
X79422808Y-103469192D01*
X79442167Y-103492782D01*
X79456548Y-103519687D01*
X79465405Y-103548884D01*
X79469000Y-103585390D01*
X79469000Y-104135610D01*
X79465405Y-104172116D01*
X79456548Y-104201313D01*
X79442167Y-104228218D01*
X79422808Y-104251808D01*
X79399218Y-104271167D01*
X79372313Y-104285548D01*
X79343116Y-104294405D01*
X79306610Y-104298000D01*
X78681390Y-104298000D01*
X78644884Y-104294405D01*
X78615687Y-104285548D01*
X78588782Y-104271167D01*
X78565192Y-104251808D01*
X78545833Y-104228218D01*
X78531452Y-104201313D01*
X78522595Y-104172116D01*
X78519000Y-104135610D01*
X78519000Y-103585390D01*
X78522595Y-103548884D01*
X78531452Y-103519687D01*
X78545833Y-103492782D01*
X78565192Y-103469192D01*
X78588782Y-103449833D01*
X78615687Y-103435452D01*
X78644884Y-103426595D01*
X78681390Y-103423000D01*
X79306610Y-103423000D01*
X79343116Y-103426595D01*
X79343116Y-103426595D01*
G37*
G36*
X90519116Y-103426595D02*
X90548313Y-103435452D01*
X90575218Y-103449833D01*
X90598808Y-103469192D01*
X90618167Y-103492782D01*
X90632548Y-103519687D01*
X90641405Y-103548884D01*
X90645000Y-103585390D01*
X90645000Y-104135610D01*
X90641405Y-104172116D01*
X90632548Y-104201313D01*
X90618167Y-104228218D01*
X90598808Y-104251808D01*
X90575218Y-104271167D01*
X90548313Y-104285548D01*
X90519116Y-104294405D01*
X90482610Y-104298000D01*
X89857390Y-104298000D01*
X89820884Y-104294405D01*
X89791687Y-104285548D01*
X89764782Y-104271167D01*
X89741192Y-104251808D01*
X89721833Y-104228218D01*
X89707452Y-104201313D01*
X89698595Y-104172116D01*
X89695000Y-104135610D01*
X89695000Y-103585390D01*
X89698595Y-103548884D01*
X89707452Y-103519687D01*
X89721833Y-103492782D01*
X89741192Y-103469192D01*
X89764782Y-103449833D01*
X89791687Y-103435452D01*
X89820884Y-103426595D01*
X89857390Y-103423000D01*
X90482610Y-103423000D01*
X90519116Y-103426595D01*
X90519116Y-103426595D01*
G37*
G36*
X117951116Y-103426595D02*
X117980313Y-103435452D01*
X118007218Y-103449833D01*
X118030808Y-103469192D01*
X118050167Y-103492782D01*
X118064548Y-103519687D01*
X118073405Y-103548884D01*
X118077000Y-103585390D01*
X118077000Y-104135610D01*
X118073405Y-104172116D01*
X118064548Y-104201313D01*
X118050167Y-104228218D01*
X118030808Y-104251808D01*
X118007218Y-104271167D01*
X117980313Y-104285548D01*
X117951116Y-104294405D01*
X117914610Y-104298000D01*
X117289390Y-104298000D01*
X117252884Y-104294405D01*
X117223687Y-104285548D01*
X117196782Y-104271167D01*
X117173192Y-104251808D01*
X117153833Y-104228218D01*
X117139452Y-104201313D01*
X117130595Y-104172116D01*
X117127000Y-104135610D01*
X117127000Y-103585390D01*
X117130595Y-103548884D01*
X117139452Y-103519687D01*
X117153833Y-103492782D01*
X117173192Y-103469192D01*
X117196782Y-103449833D01*
X117223687Y-103435452D01*
X117252884Y-103426595D01*
X117289390Y-103423000D01*
X117914610Y-103423000D01*
X117951116Y-103426595D01*
X117951116Y-103426595D01*
G37*
G36*
X112385649Y-100680717D02*
X112424827Y-100684576D01*
X112500227Y-100707448D01*
X112575629Y-100730321D01*
X112714608Y-100804608D01*
X112836422Y-100904578D01*
X112936392Y-101026392D01*
X113010679Y-101165371D01*
X113056424Y-101316174D01*
X113071870Y-101473000D01*
X113056424Y-101629826D01*
X113010679Y-101780629D01*
X112936392Y-101919608D01*
X112836422Y-102041422D01*
X112714608Y-102141392D01*
X112575629Y-102215679D01*
X112500228Y-102238551D01*
X112424827Y-102261424D01*
X112385649Y-102265283D01*
X112307295Y-102273000D01*
X112228705Y-102273000D01*
X112150351Y-102265283D01*
X112111173Y-102261424D01*
X112035772Y-102238551D01*
X111960371Y-102215679D01*
X111821392Y-102141392D01*
X111699578Y-102041422D01*
X111599608Y-101919608D01*
X111525321Y-101780629D01*
X111479576Y-101629826D01*
X111464130Y-101473000D01*
X111479576Y-101316174D01*
X111525321Y-101165371D01*
X111599608Y-101026392D01*
X111699578Y-100904578D01*
X111821392Y-100804608D01*
X111960371Y-100730321D01*
X112035773Y-100707448D01*
X112111173Y-100684576D01*
X112150351Y-100680717D01*
X112228705Y-100673000D01*
X112307295Y-100673000D01*
X112385649Y-100680717D01*
X112385649Y-100680717D01*
G37*
G36*
X79365649Y-100680717D02*
X79404827Y-100684576D01*
X79480227Y-100707448D01*
X79555629Y-100730321D01*
X79694608Y-100804608D01*
X79816422Y-100904578D01*
X79916392Y-101026392D01*
X79990679Y-101165371D01*
X80036424Y-101316174D01*
X80051870Y-101473000D01*
X80036424Y-101629826D01*
X79990679Y-101780629D01*
X79916392Y-101919608D01*
X79816422Y-102041422D01*
X79694608Y-102141392D01*
X79555629Y-102215679D01*
X79480228Y-102238551D01*
X79404827Y-102261424D01*
X79365649Y-102265283D01*
X79287295Y-102273000D01*
X79208705Y-102273000D01*
X79130351Y-102265283D01*
X79091173Y-102261424D01*
X79015772Y-102238551D01*
X78940371Y-102215679D01*
X78801392Y-102141392D01*
X78679578Y-102041422D01*
X78579608Y-101919608D01*
X78505321Y-101780629D01*
X78459576Y-101629826D01*
X78444130Y-101473000D01*
X78459576Y-101316174D01*
X78505321Y-101165371D01*
X78579608Y-101026392D01*
X78679578Y-100904578D01*
X78801392Y-100804608D01*
X78940371Y-100730321D01*
X79015773Y-100707448D01*
X79091173Y-100684576D01*
X79130351Y-100680717D01*
X79208705Y-100673000D01*
X79287295Y-100673000D01*
X79365649Y-100680717D01*
X79365649Y-100680717D01*
G37*
G36*
X84445649Y-100680717D02*
X84484827Y-100684576D01*
X84560227Y-100707448D01*
X84635629Y-100730321D01*
X84774608Y-100804608D01*
X84896422Y-100904578D01*
X84996392Y-101026392D01*
X85070679Y-101165371D01*
X85116424Y-101316174D01*
X85131870Y-101473000D01*
X85116424Y-101629826D01*
X85070679Y-101780629D01*
X84996392Y-101919608D01*
X84896422Y-102041422D01*
X84774608Y-102141392D01*
X84635629Y-102215679D01*
X84560228Y-102238551D01*
X84484827Y-102261424D01*
X84445649Y-102265283D01*
X84367295Y-102273000D01*
X84288705Y-102273000D01*
X84210351Y-102265283D01*
X84171173Y-102261424D01*
X84095772Y-102238551D01*
X84020371Y-102215679D01*
X83881392Y-102141392D01*
X83759578Y-102041422D01*
X83659608Y-101919608D01*
X83585321Y-101780629D01*
X83539576Y-101629826D01*
X83524130Y-101473000D01*
X83539576Y-101316174D01*
X83585321Y-101165371D01*
X83659608Y-101026392D01*
X83759578Y-100904578D01*
X83881392Y-100804608D01*
X84020371Y-100730321D01*
X84095773Y-100707448D01*
X84171173Y-100684576D01*
X84210351Y-100680717D01*
X84288705Y-100673000D01*
X84367295Y-100673000D01*
X84445649Y-100680717D01*
X84445649Y-100680717D01*
G37*
G36*
X86985649Y-100680717D02*
X87024827Y-100684576D01*
X87100227Y-100707448D01*
X87175629Y-100730321D01*
X87314608Y-100804608D01*
X87436422Y-100904578D01*
X87536392Y-101026392D01*
X87610679Y-101165371D01*
X87656424Y-101316174D01*
X87671870Y-101473000D01*
X87656424Y-101629826D01*
X87610679Y-101780629D01*
X87536392Y-101919608D01*
X87436422Y-102041422D01*
X87314608Y-102141392D01*
X87175629Y-102215679D01*
X87100228Y-102238551D01*
X87024827Y-102261424D01*
X86985649Y-102265283D01*
X86907295Y-102273000D01*
X86828705Y-102273000D01*
X86750351Y-102265283D01*
X86711173Y-102261424D01*
X86635772Y-102238551D01*
X86560371Y-102215679D01*
X86421392Y-102141392D01*
X86299578Y-102041422D01*
X86199608Y-101919608D01*
X86125321Y-101780629D01*
X86079576Y-101629826D01*
X86064130Y-101473000D01*
X86079576Y-101316174D01*
X86125321Y-101165371D01*
X86199608Y-101026392D01*
X86299578Y-100904578D01*
X86421392Y-100804608D01*
X86560371Y-100730321D01*
X86635773Y-100707448D01*
X86711173Y-100684576D01*
X86750351Y-100680717D01*
X86828705Y-100673000D01*
X86907295Y-100673000D01*
X86985649Y-100680717D01*
X86985649Y-100680717D01*
G37*
G36*
X89525649Y-100680717D02*
X89564827Y-100684576D01*
X89640227Y-100707448D01*
X89715629Y-100730321D01*
X89854608Y-100804608D01*
X89976422Y-100904578D01*
X90076392Y-101026392D01*
X90150679Y-101165371D01*
X90196424Y-101316174D01*
X90211870Y-101473000D01*
X90196424Y-101629826D01*
X90150679Y-101780629D01*
X90076392Y-101919608D01*
X89976422Y-102041422D01*
X89854608Y-102141392D01*
X89715629Y-102215679D01*
X89640228Y-102238551D01*
X89564827Y-102261424D01*
X89525649Y-102265283D01*
X89447295Y-102273000D01*
X89368705Y-102273000D01*
X89290351Y-102265283D01*
X89251173Y-102261424D01*
X89175772Y-102238551D01*
X89100371Y-102215679D01*
X88961392Y-102141392D01*
X88839578Y-102041422D01*
X88739608Y-101919608D01*
X88665321Y-101780629D01*
X88619576Y-101629826D01*
X88604130Y-101473000D01*
X88619576Y-101316174D01*
X88665321Y-101165371D01*
X88739608Y-101026392D01*
X88839578Y-100904578D01*
X88961392Y-100804608D01*
X89100371Y-100730321D01*
X89175773Y-100707448D01*
X89251173Y-100684576D01*
X89290351Y-100680717D01*
X89368705Y-100673000D01*
X89447295Y-100673000D01*
X89525649Y-100680717D01*
X89525649Y-100680717D01*
G37*
G36*
X92065649Y-100680717D02*
X92104827Y-100684576D01*
X92180227Y-100707448D01*
X92255629Y-100730321D01*
X92394608Y-100804608D01*
X92516422Y-100904578D01*
X92616392Y-101026392D01*
X92690679Y-101165371D01*
X92736424Y-101316174D01*
X92751870Y-101473000D01*
X92736424Y-101629826D01*
X92690679Y-101780629D01*
X92616392Y-101919608D01*
X92516422Y-102041422D01*
X92394608Y-102141392D01*
X92255629Y-102215679D01*
X92180228Y-102238551D01*
X92104827Y-102261424D01*
X92065649Y-102265283D01*
X91987295Y-102273000D01*
X91908705Y-102273000D01*
X91830351Y-102265283D01*
X91791173Y-102261424D01*
X91715772Y-102238551D01*
X91640371Y-102215679D01*
X91501392Y-102141392D01*
X91379578Y-102041422D01*
X91279608Y-101919608D01*
X91205321Y-101780629D01*
X91159576Y-101629826D01*
X91144130Y-101473000D01*
X91159576Y-101316174D01*
X91205321Y-101165371D01*
X91279608Y-101026392D01*
X91379578Y-100904578D01*
X91501392Y-100804608D01*
X91640371Y-100730321D01*
X91715773Y-100707448D01*
X91791173Y-100684576D01*
X91830351Y-100680717D01*
X91908705Y-100673000D01*
X91987295Y-100673000D01*
X92065649Y-100680717D01*
X92065649Y-100680717D01*
G37*
G36*
X94605649Y-100680717D02*
X94644827Y-100684576D01*
X94720227Y-100707448D01*
X94795629Y-100730321D01*
X94934608Y-100804608D01*
X95056422Y-100904578D01*
X95156392Y-101026392D01*
X95230679Y-101165371D01*
X95276424Y-101316174D01*
X95291870Y-101473000D01*
X95276424Y-101629826D01*
X95230679Y-101780629D01*
X95156392Y-101919608D01*
X95056422Y-102041422D01*
X94934608Y-102141392D01*
X94795629Y-102215679D01*
X94720228Y-102238551D01*
X94644827Y-102261424D01*
X94605649Y-102265283D01*
X94527295Y-102273000D01*
X94448705Y-102273000D01*
X94370351Y-102265283D01*
X94331173Y-102261424D01*
X94255772Y-102238551D01*
X94180371Y-102215679D01*
X94041392Y-102141392D01*
X93919578Y-102041422D01*
X93819608Y-101919608D01*
X93745321Y-101780629D01*
X93699576Y-101629826D01*
X93684130Y-101473000D01*
X93699576Y-101316174D01*
X93745321Y-101165371D01*
X93819608Y-101026392D01*
X93919578Y-100904578D01*
X94041392Y-100804608D01*
X94180371Y-100730321D01*
X94255773Y-100707448D01*
X94331173Y-100684576D01*
X94370351Y-100680717D01*
X94448705Y-100673000D01*
X94527295Y-100673000D01*
X94605649Y-100680717D01*
X94605649Y-100680717D01*
G37*
G36*
X97145649Y-100680717D02*
X97184827Y-100684576D01*
X97260227Y-100707448D01*
X97335629Y-100730321D01*
X97474608Y-100804608D01*
X97596422Y-100904578D01*
X97696392Y-101026392D01*
X97770679Y-101165371D01*
X97816424Y-101316174D01*
X97831870Y-101473000D01*
X97816424Y-101629826D01*
X97770679Y-101780629D01*
X97696392Y-101919608D01*
X97596422Y-102041422D01*
X97474608Y-102141392D01*
X97335629Y-102215679D01*
X97260228Y-102238551D01*
X97184827Y-102261424D01*
X97145649Y-102265283D01*
X97067295Y-102273000D01*
X96988705Y-102273000D01*
X96910351Y-102265283D01*
X96871173Y-102261424D01*
X96795772Y-102238551D01*
X96720371Y-102215679D01*
X96581392Y-102141392D01*
X96459578Y-102041422D01*
X96359608Y-101919608D01*
X96285321Y-101780629D01*
X96239576Y-101629826D01*
X96224130Y-101473000D01*
X96239576Y-101316174D01*
X96285321Y-101165371D01*
X96359608Y-101026392D01*
X96459578Y-100904578D01*
X96581392Y-100804608D01*
X96720371Y-100730321D01*
X96795773Y-100707448D01*
X96871173Y-100684576D01*
X96910351Y-100680717D01*
X96988705Y-100673000D01*
X97067295Y-100673000D01*
X97145649Y-100680717D01*
X97145649Y-100680717D01*
G37*
G36*
X81905649Y-100680717D02*
X81944827Y-100684576D01*
X82020227Y-100707448D01*
X82095629Y-100730321D01*
X82234608Y-100804608D01*
X82356422Y-100904578D01*
X82456392Y-101026392D01*
X82530679Y-101165371D01*
X82576424Y-101316174D01*
X82591870Y-101473000D01*
X82576424Y-101629826D01*
X82530679Y-101780629D01*
X82456392Y-101919608D01*
X82356422Y-102041422D01*
X82234608Y-102141392D01*
X82095629Y-102215679D01*
X82020228Y-102238551D01*
X81944827Y-102261424D01*
X81905649Y-102265283D01*
X81827295Y-102273000D01*
X81748705Y-102273000D01*
X81670351Y-102265283D01*
X81631173Y-102261424D01*
X81555772Y-102238551D01*
X81480371Y-102215679D01*
X81341392Y-102141392D01*
X81219578Y-102041422D01*
X81119608Y-101919608D01*
X81045321Y-101780629D01*
X80999576Y-101629826D01*
X80984130Y-101473000D01*
X80999576Y-101316174D01*
X81045321Y-101165371D01*
X81119608Y-101026392D01*
X81219578Y-100904578D01*
X81341392Y-100804608D01*
X81480371Y-100730321D01*
X81555773Y-100707448D01*
X81631173Y-100684576D01*
X81670351Y-100680717D01*
X81748705Y-100673000D01*
X81827295Y-100673000D01*
X81905649Y-100680717D01*
X81905649Y-100680717D01*
G37*
G36*
X102225649Y-100680717D02*
X102264827Y-100684576D01*
X102340227Y-100707448D01*
X102415629Y-100730321D01*
X102554608Y-100804608D01*
X102676422Y-100904578D01*
X102776392Y-101026392D01*
X102850679Y-101165371D01*
X102896424Y-101316174D01*
X102911870Y-101473000D01*
X102896424Y-101629826D01*
X102850679Y-101780629D01*
X102776392Y-101919608D01*
X102676422Y-102041422D01*
X102554608Y-102141392D01*
X102415629Y-102215679D01*
X102340228Y-102238551D01*
X102264827Y-102261424D01*
X102225649Y-102265283D01*
X102147295Y-102273000D01*
X102068705Y-102273000D01*
X101990351Y-102265283D01*
X101951173Y-102261424D01*
X101875772Y-102238551D01*
X101800371Y-102215679D01*
X101661392Y-102141392D01*
X101539578Y-102041422D01*
X101439608Y-101919608D01*
X101365321Y-101780629D01*
X101319576Y-101629826D01*
X101304130Y-101473000D01*
X101319576Y-101316174D01*
X101365321Y-101165371D01*
X101439608Y-101026392D01*
X101539578Y-100904578D01*
X101661392Y-100804608D01*
X101800371Y-100730321D01*
X101875773Y-100707448D01*
X101951173Y-100684576D01*
X101990351Y-100680717D01*
X102068705Y-100673000D01*
X102147295Y-100673000D01*
X102225649Y-100680717D01*
X102225649Y-100680717D01*
G37*
G36*
X104765649Y-100680717D02*
X104804827Y-100684576D01*
X104880227Y-100707448D01*
X104955629Y-100730321D01*
X105094608Y-100804608D01*
X105216422Y-100904578D01*
X105316392Y-101026392D01*
X105390679Y-101165371D01*
X105436424Y-101316174D01*
X105451870Y-101473000D01*
X105436424Y-101629826D01*
X105390679Y-101780629D01*
X105316392Y-101919608D01*
X105216422Y-102041422D01*
X105094608Y-102141392D01*
X104955629Y-102215679D01*
X104880228Y-102238551D01*
X104804827Y-102261424D01*
X104765649Y-102265283D01*
X104687295Y-102273000D01*
X104608705Y-102273000D01*
X104530351Y-102265283D01*
X104491173Y-102261424D01*
X104415772Y-102238551D01*
X104340371Y-102215679D01*
X104201392Y-102141392D01*
X104079578Y-102041422D01*
X103979608Y-101919608D01*
X103905321Y-101780629D01*
X103859576Y-101629826D01*
X103844130Y-101473000D01*
X103859576Y-101316174D01*
X103905321Y-101165371D01*
X103979608Y-101026392D01*
X104079578Y-100904578D01*
X104201392Y-100804608D01*
X104340371Y-100730321D01*
X104415773Y-100707448D01*
X104491173Y-100684576D01*
X104530351Y-100680717D01*
X104608705Y-100673000D01*
X104687295Y-100673000D01*
X104765649Y-100680717D01*
X104765649Y-100680717D01*
G37*
G36*
X107305649Y-100680717D02*
X107344827Y-100684576D01*
X107420227Y-100707448D01*
X107495629Y-100730321D01*
X107634608Y-100804608D01*
X107756422Y-100904578D01*
X107856392Y-101026392D01*
X107930679Y-101165371D01*
X107976424Y-101316174D01*
X107991870Y-101473000D01*
X107976424Y-101629826D01*
X107930679Y-101780629D01*
X107856392Y-101919608D01*
X107756422Y-102041422D01*
X107634608Y-102141392D01*
X107495629Y-102215679D01*
X107420228Y-102238551D01*
X107344827Y-102261424D01*
X107305649Y-102265283D01*
X107227295Y-102273000D01*
X107148705Y-102273000D01*
X107070351Y-102265283D01*
X107031173Y-102261424D01*
X106955772Y-102238551D01*
X106880371Y-102215679D01*
X106741392Y-102141392D01*
X106619578Y-102041422D01*
X106519608Y-101919608D01*
X106445321Y-101780629D01*
X106399576Y-101629826D01*
X106384130Y-101473000D01*
X106399576Y-101316174D01*
X106445321Y-101165371D01*
X106519608Y-101026392D01*
X106619578Y-100904578D01*
X106741392Y-100804608D01*
X106880371Y-100730321D01*
X106955773Y-100707448D01*
X107031173Y-100684576D01*
X107070351Y-100680717D01*
X107148705Y-100673000D01*
X107227295Y-100673000D01*
X107305649Y-100680717D01*
X107305649Y-100680717D01*
G37*
G36*
X109845649Y-100680717D02*
X109884827Y-100684576D01*
X109960227Y-100707448D01*
X110035629Y-100730321D01*
X110174608Y-100804608D01*
X110296422Y-100904578D01*
X110396392Y-101026392D01*
X110470679Y-101165371D01*
X110516424Y-101316174D01*
X110531870Y-101473000D01*
X110516424Y-101629826D01*
X110470679Y-101780629D01*
X110396392Y-101919608D01*
X110296422Y-102041422D01*
X110174608Y-102141392D01*
X110035629Y-102215679D01*
X109960228Y-102238551D01*
X109884827Y-102261424D01*
X109845649Y-102265283D01*
X109767295Y-102273000D01*
X109688705Y-102273000D01*
X109610351Y-102265283D01*
X109571173Y-102261424D01*
X109495772Y-102238551D01*
X109420371Y-102215679D01*
X109281392Y-102141392D01*
X109159578Y-102041422D01*
X109059608Y-101919608D01*
X108985321Y-101780629D01*
X108939576Y-101629826D01*
X108924130Y-101473000D01*
X108939576Y-101316174D01*
X108985321Y-101165371D01*
X109059608Y-101026392D01*
X109159578Y-100904578D01*
X109281392Y-100804608D01*
X109420371Y-100730321D01*
X109495773Y-100707448D01*
X109571173Y-100684576D01*
X109610351Y-100680717D01*
X109688705Y-100673000D01*
X109767295Y-100673000D01*
X109845649Y-100680717D01*
X109845649Y-100680717D01*
G37*
G36*
X114925649Y-100680717D02*
X114964827Y-100684576D01*
X115040227Y-100707448D01*
X115115629Y-100730321D01*
X115254608Y-100804608D01*
X115376422Y-100904578D01*
X115476392Y-101026392D01*
X115550679Y-101165371D01*
X115596424Y-101316174D01*
X115611870Y-101473000D01*
X115596424Y-101629826D01*
X115550679Y-101780629D01*
X115476392Y-101919608D01*
X115376422Y-102041422D01*
X115254608Y-102141392D01*
X115115629Y-102215679D01*
X115040228Y-102238551D01*
X114964827Y-102261424D01*
X114925649Y-102265283D01*
X114847295Y-102273000D01*
X114768705Y-102273000D01*
X114690351Y-102265283D01*
X114651173Y-102261424D01*
X114575772Y-102238551D01*
X114500371Y-102215679D01*
X114361392Y-102141392D01*
X114239578Y-102041422D01*
X114139608Y-101919608D01*
X114065321Y-101780629D01*
X114019576Y-101629826D01*
X114004130Y-101473000D01*
X114019576Y-101316174D01*
X114065321Y-101165371D01*
X114139608Y-101026392D01*
X114239578Y-100904578D01*
X114361392Y-100804608D01*
X114500371Y-100730321D01*
X114575773Y-100707448D01*
X114651173Y-100684576D01*
X114690351Y-100680717D01*
X114768705Y-100673000D01*
X114847295Y-100673000D01*
X114925649Y-100680717D01*
X114925649Y-100680717D01*
G37*
G36*
X99685649Y-100680717D02*
X99724827Y-100684576D01*
X99800227Y-100707448D01*
X99875629Y-100730321D01*
X100014608Y-100804608D01*
X100136422Y-100904578D01*
X100236392Y-101026392D01*
X100310679Y-101165371D01*
X100356424Y-101316174D01*
X100371870Y-101473000D01*
X100356424Y-101629826D01*
X100310679Y-101780629D01*
X100236392Y-101919608D01*
X100136422Y-102041422D01*
X100014608Y-102141392D01*
X99875629Y-102215679D01*
X99800228Y-102238551D01*
X99724827Y-102261424D01*
X99685649Y-102265283D01*
X99607295Y-102273000D01*
X99528705Y-102273000D01*
X99450351Y-102265283D01*
X99411173Y-102261424D01*
X99335772Y-102238551D01*
X99260371Y-102215679D01*
X99121392Y-102141392D01*
X98999578Y-102041422D01*
X98899608Y-101919608D01*
X98825321Y-101780629D01*
X98779576Y-101629826D01*
X98764130Y-101473000D01*
X98779576Y-101316174D01*
X98825321Y-101165371D01*
X98899608Y-101026392D01*
X98999578Y-100904578D01*
X99121392Y-100804608D01*
X99260371Y-100730321D01*
X99335773Y-100707448D01*
X99411173Y-100684576D01*
X99450351Y-100680717D01*
X99528705Y-100673000D01*
X99607295Y-100673000D01*
X99685649Y-100680717D01*
X99685649Y-100680717D01*
G37*
G36*
X167249649Y-100553717D02*
X167288827Y-100557576D01*
X167364228Y-100580449D01*
X167439629Y-100603321D01*
X167578608Y-100677608D01*
X167700422Y-100777578D01*
X167800392Y-100899392D01*
X167874679Y-101038371D01*
X167920424Y-101189174D01*
X167935870Y-101346000D01*
X167920424Y-101502826D01*
X167874679Y-101653629D01*
X167800392Y-101792608D01*
X167700422Y-101914422D01*
X167578608Y-102014392D01*
X167439629Y-102088679D01*
X167364228Y-102111551D01*
X167288827Y-102134424D01*
X167249649Y-102138283D01*
X167171295Y-102146000D01*
X167092705Y-102146000D01*
X167014351Y-102138283D01*
X166975173Y-102134424D01*
X166899772Y-102111551D01*
X166824371Y-102088679D01*
X166685392Y-102014392D01*
X166563578Y-101914422D01*
X166463608Y-101792608D01*
X166389321Y-101653629D01*
X166343576Y-101502826D01*
X166328130Y-101346000D01*
X166343576Y-101189174D01*
X166389321Y-101038371D01*
X166463608Y-100899392D01*
X166563578Y-100777578D01*
X166685392Y-100677608D01*
X166824371Y-100603321D01*
X166899772Y-100580449D01*
X166975173Y-100557576D01*
X167014351Y-100553717D01*
X167092705Y-100546000D01*
X167171295Y-100546000D01*
X167249649Y-100553717D01*
X167249649Y-100553717D01*
G37*
G36*
X157089649Y-100553717D02*
X157128827Y-100557576D01*
X157204228Y-100580449D01*
X157279629Y-100603321D01*
X157418608Y-100677608D01*
X157540422Y-100777578D01*
X157640392Y-100899392D01*
X157714679Y-101038371D01*
X157760424Y-101189174D01*
X157775870Y-101346000D01*
X157760424Y-101502826D01*
X157714679Y-101653629D01*
X157640392Y-101792608D01*
X157540422Y-101914422D01*
X157418608Y-102014392D01*
X157279629Y-102088679D01*
X157204228Y-102111551D01*
X157128827Y-102134424D01*
X157089649Y-102138283D01*
X157011295Y-102146000D01*
X156932705Y-102146000D01*
X156854351Y-102138283D01*
X156815173Y-102134424D01*
X156739772Y-102111551D01*
X156664371Y-102088679D01*
X156525392Y-102014392D01*
X156403578Y-101914422D01*
X156303608Y-101792608D01*
X156229321Y-101653629D01*
X156183576Y-101502826D01*
X156168130Y-101346000D01*
X156183576Y-101189174D01*
X156229321Y-101038371D01*
X156303608Y-100899392D01*
X156403578Y-100777578D01*
X156525392Y-100677608D01*
X156664371Y-100603321D01*
X156739772Y-100580449D01*
X156815173Y-100557576D01*
X156854351Y-100553717D01*
X156932705Y-100546000D01*
X157011295Y-100546000D01*
X157089649Y-100553717D01*
X157089649Y-100553717D01*
G37*
G36*
X154549649Y-100553717D02*
X154588827Y-100557576D01*
X154664228Y-100580449D01*
X154739629Y-100603321D01*
X154878608Y-100677608D01*
X155000422Y-100777578D01*
X155100392Y-100899392D01*
X155174679Y-101038371D01*
X155220424Y-101189174D01*
X155235870Y-101346000D01*
X155220424Y-101502826D01*
X155174679Y-101653629D01*
X155100392Y-101792608D01*
X155000422Y-101914422D01*
X154878608Y-102014392D01*
X154739629Y-102088679D01*
X154664228Y-102111551D01*
X154588827Y-102134424D01*
X154549649Y-102138283D01*
X154471295Y-102146000D01*
X154392705Y-102146000D01*
X154314351Y-102138283D01*
X154275173Y-102134424D01*
X154199772Y-102111551D01*
X154124371Y-102088679D01*
X153985392Y-102014392D01*
X153863578Y-101914422D01*
X153763608Y-101792608D01*
X153689321Y-101653629D01*
X153643576Y-101502826D01*
X153628130Y-101346000D01*
X153643576Y-101189174D01*
X153689321Y-101038371D01*
X153763608Y-100899392D01*
X153863578Y-100777578D01*
X153985392Y-100677608D01*
X154124371Y-100603321D01*
X154199772Y-100580449D01*
X154275173Y-100557576D01*
X154314351Y-100553717D01*
X154392705Y-100546000D01*
X154471295Y-100546000D01*
X154549649Y-100553717D01*
X154549649Y-100553717D01*
G37*
G36*
X152009649Y-100553717D02*
X152048827Y-100557576D01*
X152124228Y-100580449D01*
X152199629Y-100603321D01*
X152338608Y-100677608D01*
X152460422Y-100777578D01*
X152560392Y-100899392D01*
X152634679Y-101038371D01*
X152680424Y-101189174D01*
X152695870Y-101346000D01*
X152680424Y-101502826D01*
X152634679Y-101653629D01*
X152560392Y-101792608D01*
X152460422Y-101914422D01*
X152338608Y-102014392D01*
X152199629Y-102088679D01*
X152124228Y-102111551D01*
X152048827Y-102134424D01*
X152009649Y-102138283D01*
X151931295Y-102146000D01*
X151852705Y-102146000D01*
X151774351Y-102138283D01*
X151735173Y-102134424D01*
X151659772Y-102111551D01*
X151584371Y-102088679D01*
X151445392Y-102014392D01*
X151323578Y-101914422D01*
X151223608Y-101792608D01*
X151149321Y-101653629D01*
X151103576Y-101502826D01*
X151088130Y-101346000D01*
X151103576Y-101189174D01*
X151149321Y-101038371D01*
X151223608Y-100899392D01*
X151323578Y-100777578D01*
X151445392Y-100677608D01*
X151584371Y-100603321D01*
X151659772Y-100580449D01*
X151735173Y-100557576D01*
X151774351Y-100553717D01*
X151852705Y-100546000D01*
X151931295Y-100546000D01*
X152009649Y-100553717D01*
X152009649Y-100553717D01*
G37*
G36*
X149469649Y-100553717D02*
X149508827Y-100557576D01*
X149584228Y-100580449D01*
X149659629Y-100603321D01*
X149798608Y-100677608D01*
X149920422Y-100777578D01*
X150020392Y-100899392D01*
X150094679Y-101038371D01*
X150140424Y-101189174D01*
X150155870Y-101346000D01*
X150140424Y-101502826D01*
X150094679Y-101653629D01*
X150020392Y-101792608D01*
X149920422Y-101914422D01*
X149798608Y-102014392D01*
X149659629Y-102088679D01*
X149584228Y-102111551D01*
X149508827Y-102134424D01*
X149469649Y-102138283D01*
X149391295Y-102146000D01*
X149312705Y-102146000D01*
X149234351Y-102138283D01*
X149195173Y-102134424D01*
X149119772Y-102111551D01*
X149044371Y-102088679D01*
X148905392Y-102014392D01*
X148783578Y-101914422D01*
X148683608Y-101792608D01*
X148609321Y-101653629D01*
X148563576Y-101502826D01*
X148548130Y-101346000D01*
X148563576Y-101189174D01*
X148609321Y-101038371D01*
X148683608Y-100899392D01*
X148783578Y-100777578D01*
X148905392Y-100677608D01*
X149044371Y-100603321D01*
X149119772Y-100580449D01*
X149195173Y-100557576D01*
X149234351Y-100553717D01*
X149312705Y-100546000D01*
X149391295Y-100546000D01*
X149469649Y-100553717D01*
X149469649Y-100553717D01*
G37*
G36*
X146929649Y-100553717D02*
X146968827Y-100557576D01*
X147044228Y-100580449D01*
X147119629Y-100603321D01*
X147258608Y-100677608D01*
X147380422Y-100777578D01*
X147480392Y-100899392D01*
X147554679Y-101038371D01*
X147600424Y-101189174D01*
X147615870Y-101346000D01*
X147600424Y-101502826D01*
X147554679Y-101653629D01*
X147480392Y-101792608D01*
X147380422Y-101914422D01*
X147258608Y-102014392D01*
X147119629Y-102088679D01*
X147044228Y-102111551D01*
X146968827Y-102134424D01*
X146929649Y-102138283D01*
X146851295Y-102146000D01*
X146772705Y-102146000D01*
X146694351Y-102138283D01*
X146655173Y-102134424D01*
X146579772Y-102111551D01*
X146504371Y-102088679D01*
X146365392Y-102014392D01*
X146243578Y-101914422D01*
X146143608Y-101792608D01*
X146069321Y-101653629D01*
X146023576Y-101502826D01*
X146008130Y-101346000D01*
X146023576Y-101189174D01*
X146069321Y-101038371D01*
X146143608Y-100899392D01*
X146243578Y-100777578D01*
X146365392Y-100677608D01*
X146504371Y-100603321D01*
X146579772Y-100580449D01*
X146655173Y-100557576D01*
X146694351Y-100553717D01*
X146772705Y-100546000D01*
X146851295Y-100546000D01*
X146929649Y-100553717D01*
X146929649Y-100553717D01*
G37*
G36*
X144389649Y-100553717D02*
X144428827Y-100557576D01*
X144504228Y-100580449D01*
X144579629Y-100603321D01*
X144718608Y-100677608D01*
X144840422Y-100777578D01*
X144940392Y-100899392D01*
X145014679Y-101038371D01*
X145060424Y-101189174D01*
X145075870Y-101346000D01*
X145060424Y-101502826D01*
X145014679Y-101653629D01*
X144940392Y-101792608D01*
X144840422Y-101914422D01*
X144718608Y-102014392D01*
X144579629Y-102088679D01*
X144504228Y-102111551D01*
X144428827Y-102134424D01*
X144389649Y-102138283D01*
X144311295Y-102146000D01*
X144232705Y-102146000D01*
X144154351Y-102138283D01*
X144115173Y-102134424D01*
X144039772Y-102111551D01*
X143964371Y-102088679D01*
X143825392Y-102014392D01*
X143703578Y-101914422D01*
X143603608Y-101792608D01*
X143529321Y-101653629D01*
X143483576Y-101502826D01*
X143468130Y-101346000D01*
X143483576Y-101189174D01*
X143529321Y-101038371D01*
X143603608Y-100899392D01*
X143703578Y-100777578D01*
X143825392Y-100677608D01*
X143964371Y-100603321D01*
X144039772Y-100580449D01*
X144115173Y-100557576D01*
X144154351Y-100553717D01*
X144232705Y-100546000D01*
X144311295Y-100546000D01*
X144389649Y-100553717D01*
X144389649Y-100553717D01*
G37*
G36*
X141849649Y-100553717D02*
X141888827Y-100557576D01*
X141964228Y-100580449D01*
X142039629Y-100603321D01*
X142178608Y-100677608D01*
X142300422Y-100777578D01*
X142400392Y-100899392D01*
X142474679Y-101038371D01*
X142520424Y-101189174D01*
X142535870Y-101346000D01*
X142520424Y-101502826D01*
X142474679Y-101653629D01*
X142400392Y-101792608D01*
X142300422Y-101914422D01*
X142178608Y-102014392D01*
X142039629Y-102088679D01*
X141964228Y-102111551D01*
X141888827Y-102134424D01*
X141849649Y-102138283D01*
X141771295Y-102146000D01*
X141692705Y-102146000D01*
X141614351Y-102138283D01*
X141575173Y-102134424D01*
X141499772Y-102111551D01*
X141424371Y-102088679D01*
X141285392Y-102014392D01*
X141163578Y-101914422D01*
X141063608Y-101792608D01*
X140989321Y-101653629D01*
X140943576Y-101502826D01*
X140928130Y-101346000D01*
X140943576Y-101189174D01*
X140989321Y-101038371D01*
X141063608Y-100899392D01*
X141163578Y-100777578D01*
X141285392Y-100677608D01*
X141424371Y-100603321D01*
X141499772Y-100580449D01*
X141575173Y-100557576D01*
X141614351Y-100553717D01*
X141692705Y-100546000D01*
X141771295Y-100546000D01*
X141849649Y-100553717D01*
X141849649Y-100553717D01*
G37*
G36*
X136769649Y-100553717D02*
X136808827Y-100557576D01*
X136884228Y-100580449D01*
X136959629Y-100603321D01*
X137098608Y-100677608D01*
X137220422Y-100777578D01*
X137320392Y-100899392D01*
X137394679Y-101038371D01*
X137440424Y-101189174D01*
X137455870Y-101346000D01*
X137440424Y-101502826D01*
X137394679Y-101653629D01*
X137320392Y-101792608D01*
X137220422Y-101914422D01*
X137098608Y-102014392D01*
X136959629Y-102088679D01*
X136884228Y-102111551D01*
X136808827Y-102134424D01*
X136769649Y-102138283D01*
X136691295Y-102146000D01*
X136612705Y-102146000D01*
X136534351Y-102138283D01*
X136495173Y-102134424D01*
X136419772Y-102111551D01*
X136344371Y-102088679D01*
X136205392Y-102014392D01*
X136083578Y-101914422D01*
X135983608Y-101792608D01*
X135909321Y-101653629D01*
X135863576Y-101502826D01*
X135848130Y-101346000D01*
X135863576Y-101189174D01*
X135909321Y-101038371D01*
X135983608Y-100899392D01*
X136083578Y-100777578D01*
X136205392Y-100677608D01*
X136344371Y-100603321D01*
X136419772Y-100580449D01*
X136495173Y-100557576D01*
X136534351Y-100553717D01*
X136612705Y-100546000D01*
X136691295Y-100546000D01*
X136769649Y-100553717D01*
X136769649Y-100553717D01*
G37*
G36*
X134229649Y-100553717D02*
X134268827Y-100557576D01*
X134344228Y-100580449D01*
X134419629Y-100603321D01*
X134558608Y-100677608D01*
X134680422Y-100777578D01*
X134780392Y-100899392D01*
X134854679Y-101038371D01*
X134900424Y-101189174D01*
X134915870Y-101346000D01*
X134900424Y-101502826D01*
X134854679Y-101653629D01*
X134780392Y-101792608D01*
X134680422Y-101914422D01*
X134558608Y-102014392D01*
X134419629Y-102088679D01*
X134344228Y-102111551D01*
X134268827Y-102134424D01*
X134229649Y-102138283D01*
X134151295Y-102146000D01*
X134072705Y-102146000D01*
X133994351Y-102138283D01*
X133955173Y-102134424D01*
X133879772Y-102111551D01*
X133804371Y-102088679D01*
X133665392Y-102014392D01*
X133543578Y-101914422D01*
X133443608Y-101792608D01*
X133369321Y-101653629D01*
X133323576Y-101502826D01*
X133308130Y-101346000D01*
X133323576Y-101189174D01*
X133369321Y-101038371D01*
X133443608Y-100899392D01*
X133543578Y-100777578D01*
X133665392Y-100677608D01*
X133804371Y-100603321D01*
X133879772Y-100580449D01*
X133955173Y-100557576D01*
X133994351Y-100553717D01*
X134072705Y-100546000D01*
X134151295Y-100546000D01*
X134229649Y-100553717D01*
X134229649Y-100553717D01*
G37*
G36*
X132372000Y-102146000D02*
X130772000Y-102146000D01*
X130772000Y-100546000D01*
X132372000Y-100546000D01*
X132372000Y-102146000D01*
X132372000Y-102146000D01*
G37*
G36*
X162169649Y-100553717D02*
X162208827Y-100557576D01*
X162284228Y-100580449D01*
X162359629Y-100603321D01*
X162498608Y-100677608D01*
X162620422Y-100777578D01*
X162720392Y-100899392D01*
X162794679Y-101038371D01*
X162840424Y-101189174D01*
X162855870Y-101346000D01*
X162840424Y-101502826D01*
X162794679Y-101653629D01*
X162720392Y-101792608D01*
X162620422Y-101914422D01*
X162498608Y-102014392D01*
X162359629Y-102088679D01*
X162284228Y-102111551D01*
X162208827Y-102134424D01*
X162169649Y-102138283D01*
X162091295Y-102146000D01*
X162012705Y-102146000D01*
X161934351Y-102138283D01*
X161895173Y-102134424D01*
X161819772Y-102111551D01*
X161744371Y-102088679D01*
X161605392Y-102014392D01*
X161483578Y-101914422D01*
X161383608Y-101792608D01*
X161309321Y-101653629D01*
X161263576Y-101502826D01*
X161248130Y-101346000D01*
X161263576Y-101189174D01*
X161309321Y-101038371D01*
X161383608Y-100899392D01*
X161483578Y-100777578D01*
X161605392Y-100677608D01*
X161744371Y-100603321D01*
X161819772Y-100580449D01*
X161895173Y-100557576D01*
X161934351Y-100553717D01*
X162012705Y-100546000D01*
X162091295Y-100546000D01*
X162169649Y-100553717D01*
X162169649Y-100553717D01*
G37*
G36*
X164709649Y-100553717D02*
X164748827Y-100557576D01*
X164824228Y-100580449D01*
X164899629Y-100603321D01*
X165038608Y-100677608D01*
X165160422Y-100777578D01*
X165260392Y-100899392D01*
X165334679Y-101038371D01*
X165380424Y-101189174D01*
X165395870Y-101346000D01*
X165380424Y-101502826D01*
X165334679Y-101653629D01*
X165260392Y-101792608D01*
X165160422Y-101914422D01*
X165038608Y-102014392D01*
X164899629Y-102088679D01*
X164824228Y-102111551D01*
X164748827Y-102134424D01*
X164709649Y-102138283D01*
X164631295Y-102146000D01*
X164552705Y-102146000D01*
X164474351Y-102138283D01*
X164435173Y-102134424D01*
X164359772Y-102111551D01*
X164284371Y-102088679D01*
X164145392Y-102014392D01*
X164023578Y-101914422D01*
X163923608Y-101792608D01*
X163849321Y-101653629D01*
X163803576Y-101502826D01*
X163788130Y-101346000D01*
X163803576Y-101189174D01*
X163849321Y-101038371D01*
X163923608Y-100899392D01*
X164023578Y-100777578D01*
X164145392Y-100677608D01*
X164284371Y-100603321D01*
X164359772Y-100580449D01*
X164435173Y-100557576D01*
X164474351Y-100553717D01*
X164552705Y-100546000D01*
X164631295Y-100546000D01*
X164709649Y-100553717D01*
X164709649Y-100553717D01*
G37*
G36*
X159629649Y-100553717D02*
X159668827Y-100557576D01*
X159744228Y-100580449D01*
X159819629Y-100603321D01*
X159958608Y-100677608D01*
X160080422Y-100777578D01*
X160180392Y-100899392D01*
X160254679Y-101038371D01*
X160300424Y-101189174D01*
X160315870Y-101346000D01*
X160300424Y-101502826D01*
X160254679Y-101653629D01*
X160180392Y-101792608D01*
X160080422Y-101914422D01*
X159958608Y-102014392D01*
X159819629Y-102088679D01*
X159744228Y-102111551D01*
X159668827Y-102134424D01*
X159629649Y-102138283D01*
X159551295Y-102146000D01*
X159472705Y-102146000D01*
X159394351Y-102138283D01*
X159355173Y-102134424D01*
X159279772Y-102111551D01*
X159204371Y-102088679D01*
X159065392Y-102014392D01*
X158943578Y-101914422D01*
X158843608Y-101792608D01*
X158769321Y-101653629D01*
X158723576Y-101502826D01*
X158708130Y-101346000D01*
X158723576Y-101189174D01*
X158769321Y-101038371D01*
X158843608Y-100899392D01*
X158943578Y-100777578D01*
X159065392Y-100677608D01*
X159204371Y-100603321D01*
X159279772Y-100580449D01*
X159355173Y-100557576D01*
X159394351Y-100553717D01*
X159472705Y-100546000D01*
X159551295Y-100546000D01*
X159629649Y-100553717D01*
X159629649Y-100553717D01*
G37*
G36*
X139309649Y-100553717D02*
X139348827Y-100557576D01*
X139424228Y-100580449D01*
X139499629Y-100603321D01*
X139638608Y-100677608D01*
X139760422Y-100777578D01*
X139860392Y-100899392D01*
X139934679Y-101038371D01*
X139980424Y-101189174D01*
X139995870Y-101346000D01*
X139980424Y-101502826D01*
X139934679Y-101653629D01*
X139860392Y-101792608D01*
X139760422Y-101914422D01*
X139638608Y-102014392D01*
X139499629Y-102088679D01*
X139424228Y-102111551D01*
X139348827Y-102134424D01*
X139309649Y-102138283D01*
X139231295Y-102146000D01*
X139152705Y-102146000D01*
X139074351Y-102138283D01*
X139035173Y-102134424D01*
X138959772Y-102111551D01*
X138884371Y-102088679D01*
X138745392Y-102014392D01*
X138623578Y-101914422D01*
X138523608Y-101792608D01*
X138449321Y-101653629D01*
X138403576Y-101502826D01*
X138388130Y-101346000D01*
X138403576Y-101189174D01*
X138449321Y-101038371D01*
X138523608Y-100899392D01*
X138623578Y-100777578D01*
X138745392Y-100677608D01*
X138884371Y-100603321D01*
X138959772Y-100580449D01*
X139035173Y-100557576D01*
X139074351Y-100553717D01*
X139152705Y-100546000D01*
X139231295Y-100546000D01*
X139309649Y-100553717D01*
X139309649Y-100553717D01*
G37*
G36*
X86985649Y-85440717D02*
X87024827Y-85444576D01*
X87100227Y-85467448D01*
X87175629Y-85490321D01*
X87314608Y-85564608D01*
X87436422Y-85664578D01*
X87536392Y-85786392D01*
X87610679Y-85925371D01*
X87656424Y-86076174D01*
X87671870Y-86233000D01*
X87656424Y-86389826D01*
X87610679Y-86540629D01*
X87536392Y-86679608D01*
X87436422Y-86801422D01*
X87314608Y-86901392D01*
X87175629Y-86975679D01*
X87100228Y-86998551D01*
X87024827Y-87021424D01*
X86985649Y-87025283D01*
X86907295Y-87033000D01*
X86828705Y-87033000D01*
X86750351Y-87025283D01*
X86711173Y-87021424D01*
X86635772Y-86998551D01*
X86560371Y-86975679D01*
X86421392Y-86901392D01*
X86299578Y-86801422D01*
X86199608Y-86679608D01*
X86125321Y-86540629D01*
X86079576Y-86389826D01*
X86064130Y-86233000D01*
X86079576Y-86076174D01*
X86125321Y-85925371D01*
X86199608Y-85786392D01*
X86299578Y-85664578D01*
X86421392Y-85564608D01*
X86560371Y-85490321D01*
X86635773Y-85467448D01*
X86711173Y-85444576D01*
X86750351Y-85440717D01*
X86828705Y-85433000D01*
X86907295Y-85433000D01*
X86985649Y-85440717D01*
X86985649Y-85440717D01*
G37*
G36*
X102225649Y-85440717D02*
X102264827Y-85444576D01*
X102340227Y-85467448D01*
X102415629Y-85490321D01*
X102554608Y-85564608D01*
X102676422Y-85664578D01*
X102776392Y-85786392D01*
X102850679Y-85925371D01*
X102896424Y-86076174D01*
X102911870Y-86233000D01*
X102896424Y-86389826D01*
X102850679Y-86540629D01*
X102776392Y-86679608D01*
X102676422Y-86801422D01*
X102554608Y-86901392D01*
X102415629Y-86975679D01*
X102340228Y-86998551D01*
X102264827Y-87021424D01*
X102225649Y-87025283D01*
X102147295Y-87033000D01*
X102068705Y-87033000D01*
X101990351Y-87025283D01*
X101951173Y-87021424D01*
X101875772Y-86998551D01*
X101800371Y-86975679D01*
X101661392Y-86901392D01*
X101539578Y-86801422D01*
X101439608Y-86679608D01*
X101365321Y-86540629D01*
X101319576Y-86389826D01*
X101304130Y-86233000D01*
X101319576Y-86076174D01*
X101365321Y-85925371D01*
X101439608Y-85786392D01*
X101539578Y-85664578D01*
X101661392Y-85564608D01*
X101800371Y-85490321D01*
X101875773Y-85467448D01*
X101951173Y-85444576D01*
X101990351Y-85440717D01*
X102068705Y-85433000D01*
X102147295Y-85433000D01*
X102225649Y-85440717D01*
X102225649Y-85440717D01*
G37*
G36*
X97145649Y-85440717D02*
X97184827Y-85444576D01*
X97260227Y-85467448D01*
X97335629Y-85490321D01*
X97474608Y-85564608D01*
X97596422Y-85664578D01*
X97696392Y-85786392D01*
X97770679Y-85925371D01*
X97816424Y-86076174D01*
X97831870Y-86233000D01*
X97816424Y-86389826D01*
X97770679Y-86540629D01*
X97696392Y-86679608D01*
X97596422Y-86801422D01*
X97474608Y-86901392D01*
X97335629Y-86975679D01*
X97260228Y-86998551D01*
X97184827Y-87021424D01*
X97145649Y-87025283D01*
X97067295Y-87033000D01*
X96988705Y-87033000D01*
X96910351Y-87025283D01*
X96871173Y-87021424D01*
X96795772Y-86998551D01*
X96720371Y-86975679D01*
X96581392Y-86901392D01*
X96459578Y-86801422D01*
X96359608Y-86679608D01*
X96285321Y-86540629D01*
X96239576Y-86389826D01*
X96224130Y-86233000D01*
X96239576Y-86076174D01*
X96285321Y-85925371D01*
X96359608Y-85786392D01*
X96459578Y-85664578D01*
X96581392Y-85564608D01*
X96720371Y-85490321D01*
X96795773Y-85467448D01*
X96871173Y-85444576D01*
X96910351Y-85440717D01*
X96988705Y-85433000D01*
X97067295Y-85433000D01*
X97145649Y-85440717D01*
X97145649Y-85440717D01*
G37*
G36*
X94605649Y-85440717D02*
X94644827Y-85444576D01*
X94720227Y-85467448D01*
X94795629Y-85490321D01*
X94934608Y-85564608D01*
X95056422Y-85664578D01*
X95156392Y-85786392D01*
X95230679Y-85925371D01*
X95276424Y-86076174D01*
X95291870Y-86233000D01*
X95276424Y-86389826D01*
X95230679Y-86540629D01*
X95156392Y-86679608D01*
X95056422Y-86801422D01*
X94934608Y-86901392D01*
X94795629Y-86975679D01*
X94720228Y-86998551D01*
X94644827Y-87021424D01*
X94605649Y-87025283D01*
X94527295Y-87033000D01*
X94448705Y-87033000D01*
X94370351Y-87025283D01*
X94331173Y-87021424D01*
X94255772Y-86998551D01*
X94180371Y-86975679D01*
X94041392Y-86901392D01*
X93919578Y-86801422D01*
X93819608Y-86679608D01*
X93745321Y-86540629D01*
X93699576Y-86389826D01*
X93684130Y-86233000D01*
X93699576Y-86076174D01*
X93745321Y-85925371D01*
X93819608Y-85786392D01*
X93919578Y-85664578D01*
X94041392Y-85564608D01*
X94180371Y-85490321D01*
X94255773Y-85467448D01*
X94331173Y-85444576D01*
X94370351Y-85440717D01*
X94448705Y-85433000D01*
X94527295Y-85433000D01*
X94605649Y-85440717D01*
X94605649Y-85440717D01*
G37*
G36*
X104765649Y-85440717D02*
X104804827Y-85444576D01*
X104880227Y-85467448D01*
X104955629Y-85490321D01*
X105094608Y-85564608D01*
X105216422Y-85664578D01*
X105316392Y-85786392D01*
X105390679Y-85925371D01*
X105436424Y-86076174D01*
X105451870Y-86233000D01*
X105436424Y-86389826D01*
X105390679Y-86540629D01*
X105316392Y-86679608D01*
X105216422Y-86801422D01*
X105094608Y-86901392D01*
X104955629Y-86975679D01*
X104880228Y-86998551D01*
X104804827Y-87021424D01*
X104765649Y-87025283D01*
X104687295Y-87033000D01*
X104608705Y-87033000D01*
X104530351Y-87025283D01*
X104491173Y-87021424D01*
X104415772Y-86998551D01*
X104340371Y-86975679D01*
X104201392Y-86901392D01*
X104079578Y-86801422D01*
X103979608Y-86679608D01*
X103905321Y-86540629D01*
X103859576Y-86389826D01*
X103844130Y-86233000D01*
X103859576Y-86076174D01*
X103905321Y-85925371D01*
X103979608Y-85786392D01*
X104079578Y-85664578D01*
X104201392Y-85564608D01*
X104340371Y-85490321D01*
X104415773Y-85467448D01*
X104491173Y-85444576D01*
X104530351Y-85440717D01*
X104608705Y-85433000D01*
X104687295Y-85433000D01*
X104765649Y-85440717D01*
X104765649Y-85440717D01*
G37*
G36*
X92065649Y-85440717D02*
X92104827Y-85444576D01*
X92180227Y-85467448D01*
X92255629Y-85490321D01*
X92394608Y-85564608D01*
X92516422Y-85664578D01*
X92616392Y-85786392D01*
X92690679Y-85925371D01*
X92736424Y-86076174D01*
X92751870Y-86233000D01*
X92736424Y-86389826D01*
X92690679Y-86540629D01*
X92616392Y-86679608D01*
X92516422Y-86801422D01*
X92394608Y-86901392D01*
X92255629Y-86975679D01*
X92180228Y-86998551D01*
X92104827Y-87021424D01*
X92065649Y-87025283D01*
X91987295Y-87033000D01*
X91908705Y-87033000D01*
X91830351Y-87025283D01*
X91791173Y-87021424D01*
X91715772Y-86998551D01*
X91640371Y-86975679D01*
X91501392Y-86901392D01*
X91379578Y-86801422D01*
X91279608Y-86679608D01*
X91205321Y-86540629D01*
X91159576Y-86389826D01*
X91144130Y-86233000D01*
X91159576Y-86076174D01*
X91205321Y-85925371D01*
X91279608Y-85786392D01*
X91379578Y-85664578D01*
X91501392Y-85564608D01*
X91640371Y-85490321D01*
X91715773Y-85467448D01*
X91791173Y-85444576D01*
X91830351Y-85440717D01*
X91908705Y-85433000D01*
X91987295Y-85433000D01*
X92065649Y-85440717D01*
X92065649Y-85440717D01*
G37*
G36*
X89525649Y-85440717D02*
X89564827Y-85444576D01*
X89640227Y-85467448D01*
X89715629Y-85490321D01*
X89854608Y-85564608D01*
X89976422Y-85664578D01*
X90076392Y-85786392D01*
X90150679Y-85925371D01*
X90196424Y-86076174D01*
X90211870Y-86233000D01*
X90196424Y-86389826D01*
X90150679Y-86540629D01*
X90076392Y-86679608D01*
X89976422Y-86801422D01*
X89854608Y-86901392D01*
X89715629Y-86975679D01*
X89640228Y-86998551D01*
X89564827Y-87021424D01*
X89525649Y-87025283D01*
X89447295Y-87033000D01*
X89368705Y-87033000D01*
X89290351Y-87025283D01*
X89251173Y-87021424D01*
X89175772Y-86998551D01*
X89100371Y-86975679D01*
X88961392Y-86901392D01*
X88839578Y-86801422D01*
X88739608Y-86679608D01*
X88665321Y-86540629D01*
X88619576Y-86389826D01*
X88604130Y-86233000D01*
X88619576Y-86076174D01*
X88665321Y-85925371D01*
X88739608Y-85786392D01*
X88839578Y-85664578D01*
X88961392Y-85564608D01*
X89100371Y-85490321D01*
X89175773Y-85467448D01*
X89251173Y-85444576D01*
X89290351Y-85440717D01*
X89368705Y-85433000D01*
X89447295Y-85433000D01*
X89525649Y-85440717D01*
X89525649Y-85440717D01*
G37*
G36*
X107305649Y-85440717D02*
X107344827Y-85444576D01*
X107420227Y-85467448D01*
X107495629Y-85490321D01*
X107634608Y-85564608D01*
X107756422Y-85664578D01*
X107856392Y-85786392D01*
X107930679Y-85925371D01*
X107976424Y-86076174D01*
X107991870Y-86233000D01*
X107976424Y-86389826D01*
X107930679Y-86540629D01*
X107856392Y-86679608D01*
X107756422Y-86801422D01*
X107634608Y-86901392D01*
X107495629Y-86975679D01*
X107420228Y-86998551D01*
X107344827Y-87021424D01*
X107305649Y-87025283D01*
X107227295Y-87033000D01*
X107148705Y-87033000D01*
X107070351Y-87025283D01*
X107031173Y-87021424D01*
X106955772Y-86998551D01*
X106880371Y-86975679D01*
X106741392Y-86901392D01*
X106619578Y-86801422D01*
X106519608Y-86679608D01*
X106445321Y-86540629D01*
X106399576Y-86389826D01*
X106384130Y-86233000D01*
X106399576Y-86076174D01*
X106445321Y-85925371D01*
X106519608Y-85786392D01*
X106619578Y-85664578D01*
X106741392Y-85564608D01*
X106880371Y-85490321D01*
X106955773Y-85467448D01*
X107031173Y-85444576D01*
X107070351Y-85440717D01*
X107148705Y-85433000D01*
X107227295Y-85433000D01*
X107305649Y-85440717D01*
X107305649Y-85440717D01*
G37*
G36*
X84445649Y-85440717D02*
X84484827Y-85444576D01*
X84560227Y-85467448D01*
X84635629Y-85490321D01*
X84774608Y-85564608D01*
X84896422Y-85664578D01*
X84996392Y-85786392D01*
X85070679Y-85925371D01*
X85116424Y-86076174D01*
X85131870Y-86233000D01*
X85116424Y-86389826D01*
X85070679Y-86540629D01*
X84996392Y-86679608D01*
X84896422Y-86801422D01*
X84774608Y-86901392D01*
X84635629Y-86975679D01*
X84560228Y-86998551D01*
X84484827Y-87021424D01*
X84445649Y-87025283D01*
X84367295Y-87033000D01*
X84288705Y-87033000D01*
X84210351Y-87025283D01*
X84171173Y-87021424D01*
X84095772Y-86998551D01*
X84020371Y-86975679D01*
X83881392Y-86901392D01*
X83759578Y-86801422D01*
X83659608Y-86679608D01*
X83585321Y-86540629D01*
X83539576Y-86389826D01*
X83524130Y-86233000D01*
X83539576Y-86076174D01*
X83585321Y-85925371D01*
X83659608Y-85786392D01*
X83759578Y-85664578D01*
X83881392Y-85564608D01*
X84020371Y-85490321D01*
X84095773Y-85467448D01*
X84171173Y-85444576D01*
X84210351Y-85440717D01*
X84288705Y-85433000D01*
X84367295Y-85433000D01*
X84445649Y-85440717D01*
X84445649Y-85440717D01*
G37*
G36*
X109845649Y-85440717D02*
X109884827Y-85444576D01*
X109960227Y-85467448D01*
X110035629Y-85490321D01*
X110174608Y-85564608D01*
X110296422Y-85664578D01*
X110396392Y-85786392D01*
X110470679Y-85925371D01*
X110516424Y-86076174D01*
X110531870Y-86233000D01*
X110516424Y-86389826D01*
X110470679Y-86540629D01*
X110396392Y-86679608D01*
X110296422Y-86801422D01*
X110174608Y-86901392D01*
X110035629Y-86975679D01*
X109960228Y-86998551D01*
X109884827Y-87021424D01*
X109845649Y-87025283D01*
X109767295Y-87033000D01*
X109688705Y-87033000D01*
X109610351Y-87025283D01*
X109571173Y-87021424D01*
X109495772Y-86998551D01*
X109420371Y-86975679D01*
X109281392Y-86901392D01*
X109159578Y-86801422D01*
X109059608Y-86679608D01*
X108985321Y-86540629D01*
X108939576Y-86389826D01*
X108924130Y-86233000D01*
X108939576Y-86076174D01*
X108985321Y-85925371D01*
X109059608Y-85786392D01*
X109159578Y-85664578D01*
X109281392Y-85564608D01*
X109420371Y-85490321D01*
X109495773Y-85467448D01*
X109571173Y-85444576D01*
X109610351Y-85440717D01*
X109688705Y-85433000D01*
X109767295Y-85433000D01*
X109845649Y-85440717D01*
X109845649Y-85440717D01*
G37*
G36*
X81905649Y-85440717D02*
X81944827Y-85444576D01*
X82020227Y-85467448D01*
X82095629Y-85490321D01*
X82234608Y-85564608D01*
X82356422Y-85664578D01*
X82456392Y-85786392D01*
X82530679Y-85925371D01*
X82576424Y-86076174D01*
X82591870Y-86233000D01*
X82576424Y-86389826D01*
X82530679Y-86540629D01*
X82456392Y-86679608D01*
X82356422Y-86801422D01*
X82234608Y-86901392D01*
X82095629Y-86975679D01*
X82020228Y-86998551D01*
X81944827Y-87021424D01*
X81905649Y-87025283D01*
X81827295Y-87033000D01*
X81748705Y-87033000D01*
X81670351Y-87025283D01*
X81631173Y-87021424D01*
X81555772Y-86998551D01*
X81480371Y-86975679D01*
X81341392Y-86901392D01*
X81219578Y-86801422D01*
X81119608Y-86679608D01*
X81045321Y-86540629D01*
X80999576Y-86389826D01*
X80984130Y-86233000D01*
X80999576Y-86076174D01*
X81045321Y-85925371D01*
X81119608Y-85786392D01*
X81219578Y-85664578D01*
X81341392Y-85564608D01*
X81480371Y-85490321D01*
X81555773Y-85467448D01*
X81631173Y-85444576D01*
X81670351Y-85440717D01*
X81748705Y-85433000D01*
X81827295Y-85433000D01*
X81905649Y-85440717D01*
X81905649Y-85440717D01*
G37*
G36*
X79365649Y-85440717D02*
X79404827Y-85444576D01*
X79480227Y-85467448D01*
X79555629Y-85490321D01*
X79694608Y-85564608D01*
X79816422Y-85664578D01*
X79916392Y-85786392D01*
X79990679Y-85925371D01*
X80036424Y-86076174D01*
X80051870Y-86233000D01*
X80036424Y-86389826D01*
X79990679Y-86540629D01*
X79916392Y-86679608D01*
X79816422Y-86801422D01*
X79694608Y-86901392D01*
X79555629Y-86975679D01*
X79480228Y-86998551D01*
X79404827Y-87021424D01*
X79365649Y-87025283D01*
X79287295Y-87033000D01*
X79208705Y-87033000D01*
X79130351Y-87025283D01*
X79091173Y-87021424D01*
X79015772Y-86998551D01*
X78940371Y-86975679D01*
X78801392Y-86901392D01*
X78679578Y-86801422D01*
X78579608Y-86679608D01*
X78505321Y-86540629D01*
X78459576Y-86389826D01*
X78444130Y-86233000D01*
X78459576Y-86076174D01*
X78505321Y-85925371D01*
X78579608Y-85786392D01*
X78679578Y-85664578D01*
X78801392Y-85564608D01*
X78940371Y-85490321D01*
X79015773Y-85467448D01*
X79091173Y-85444576D01*
X79130351Y-85440717D01*
X79208705Y-85433000D01*
X79287295Y-85433000D01*
X79365649Y-85440717D01*
X79365649Y-85440717D01*
G37*
G36*
X112385649Y-85440717D02*
X112424827Y-85444576D01*
X112500227Y-85467448D01*
X112575629Y-85490321D01*
X112714608Y-85564608D01*
X112836422Y-85664578D01*
X112936392Y-85786392D01*
X113010679Y-85925371D01*
X113056424Y-86076174D01*
X113071870Y-86233000D01*
X113056424Y-86389826D01*
X113010679Y-86540629D01*
X112936392Y-86679608D01*
X112836422Y-86801422D01*
X112714608Y-86901392D01*
X112575629Y-86975679D01*
X112500228Y-86998551D01*
X112424827Y-87021424D01*
X112385649Y-87025283D01*
X112307295Y-87033000D01*
X112228705Y-87033000D01*
X112150351Y-87025283D01*
X112111173Y-87021424D01*
X112035772Y-86998551D01*
X111960371Y-86975679D01*
X111821392Y-86901392D01*
X111699578Y-86801422D01*
X111599608Y-86679608D01*
X111525321Y-86540629D01*
X111479576Y-86389826D01*
X111464130Y-86233000D01*
X111479576Y-86076174D01*
X111525321Y-85925371D01*
X111599608Y-85786392D01*
X111699578Y-85664578D01*
X111821392Y-85564608D01*
X111960371Y-85490321D01*
X112035773Y-85467448D01*
X112111173Y-85444576D01*
X112150351Y-85440717D01*
X112228705Y-85433000D01*
X112307295Y-85433000D01*
X112385649Y-85440717D01*
X112385649Y-85440717D01*
G37*
G36*
X99685649Y-85440717D02*
X99724827Y-85444576D01*
X99800227Y-85467448D01*
X99875629Y-85490321D01*
X100014608Y-85564608D01*
X100136422Y-85664578D01*
X100236392Y-85786392D01*
X100310679Y-85925371D01*
X100356424Y-86076174D01*
X100371870Y-86233000D01*
X100356424Y-86389826D01*
X100310679Y-86540629D01*
X100236392Y-86679608D01*
X100136422Y-86801422D01*
X100014608Y-86901392D01*
X99875629Y-86975679D01*
X99800228Y-86998551D01*
X99724827Y-87021424D01*
X99685649Y-87025283D01*
X99607295Y-87033000D01*
X99528705Y-87033000D01*
X99450351Y-87025283D01*
X99411173Y-87021424D01*
X99335772Y-86998551D01*
X99260371Y-86975679D01*
X99121392Y-86901392D01*
X98999578Y-86801422D01*
X98899608Y-86679608D01*
X98825321Y-86540629D01*
X98779576Y-86389826D01*
X98764130Y-86233000D01*
X98779576Y-86076174D01*
X98825321Y-85925371D01*
X98899608Y-85786392D01*
X98999578Y-85664578D01*
X99121392Y-85564608D01*
X99260371Y-85490321D01*
X99335773Y-85467448D01*
X99411173Y-85444576D01*
X99450351Y-85440717D01*
X99528705Y-85433000D01*
X99607295Y-85433000D01*
X99685649Y-85440717D01*
X99685649Y-85440717D01*
G37*
G36*
X115608000Y-87033000D02*
X114008000Y-87033000D01*
X114008000Y-85433000D01*
X115608000Y-85433000D01*
X115608000Y-87033000D01*
X115608000Y-87033000D01*
G37*
G36*
X164709649Y-85313717D02*
X164748827Y-85317576D01*
X164824228Y-85340449D01*
X164899629Y-85363321D01*
X165038608Y-85437608D01*
X165160422Y-85537578D01*
X165260392Y-85659392D01*
X165334679Y-85798371D01*
X165380424Y-85949174D01*
X165395870Y-86106000D01*
X165380424Y-86262826D01*
X165334679Y-86413629D01*
X165260392Y-86552608D01*
X165160422Y-86674422D01*
X165038608Y-86774392D01*
X164899629Y-86848679D01*
X164824227Y-86871552D01*
X164748827Y-86894424D01*
X164709649Y-86898283D01*
X164631295Y-86906000D01*
X164552705Y-86906000D01*
X164474351Y-86898283D01*
X164435173Y-86894424D01*
X164359773Y-86871552D01*
X164284371Y-86848679D01*
X164145392Y-86774392D01*
X164023578Y-86674422D01*
X163923608Y-86552608D01*
X163849321Y-86413629D01*
X163803576Y-86262826D01*
X163788130Y-86106000D01*
X163803576Y-85949174D01*
X163849321Y-85798371D01*
X163923608Y-85659392D01*
X164023578Y-85537578D01*
X164145392Y-85437608D01*
X164284371Y-85363321D01*
X164359772Y-85340449D01*
X164435173Y-85317576D01*
X164474351Y-85313717D01*
X164552705Y-85306000D01*
X164631295Y-85306000D01*
X164709649Y-85313717D01*
X164709649Y-85313717D01*
G37*
G36*
X162169649Y-85313717D02*
X162208827Y-85317576D01*
X162284228Y-85340449D01*
X162359629Y-85363321D01*
X162498608Y-85437608D01*
X162620422Y-85537578D01*
X162720392Y-85659392D01*
X162794679Y-85798371D01*
X162840424Y-85949174D01*
X162855870Y-86106000D01*
X162840424Y-86262826D01*
X162794679Y-86413629D01*
X162720392Y-86552608D01*
X162620422Y-86674422D01*
X162498608Y-86774392D01*
X162359629Y-86848679D01*
X162284227Y-86871552D01*
X162208827Y-86894424D01*
X162169649Y-86898283D01*
X162091295Y-86906000D01*
X162012705Y-86906000D01*
X161934351Y-86898283D01*
X161895173Y-86894424D01*
X161819773Y-86871552D01*
X161744371Y-86848679D01*
X161605392Y-86774392D01*
X161483578Y-86674422D01*
X161383608Y-86552608D01*
X161309321Y-86413629D01*
X161263576Y-86262826D01*
X161248130Y-86106000D01*
X161263576Y-85949174D01*
X161309321Y-85798371D01*
X161383608Y-85659392D01*
X161483578Y-85537578D01*
X161605392Y-85437608D01*
X161744371Y-85363321D01*
X161819772Y-85340449D01*
X161895173Y-85317576D01*
X161934351Y-85313717D01*
X162012705Y-85306000D01*
X162091295Y-85306000D01*
X162169649Y-85313717D01*
X162169649Y-85313717D01*
G37*
G36*
X159629649Y-85313717D02*
X159668827Y-85317576D01*
X159744228Y-85340449D01*
X159819629Y-85363321D01*
X159958608Y-85437608D01*
X160080422Y-85537578D01*
X160180392Y-85659392D01*
X160254679Y-85798371D01*
X160300424Y-85949174D01*
X160315870Y-86106000D01*
X160300424Y-86262826D01*
X160254679Y-86413629D01*
X160180392Y-86552608D01*
X160080422Y-86674422D01*
X159958608Y-86774392D01*
X159819629Y-86848679D01*
X159744227Y-86871552D01*
X159668827Y-86894424D01*
X159629649Y-86898283D01*
X159551295Y-86906000D01*
X159472705Y-86906000D01*
X159394351Y-86898283D01*
X159355173Y-86894424D01*
X159279773Y-86871552D01*
X159204371Y-86848679D01*
X159065392Y-86774392D01*
X158943578Y-86674422D01*
X158843608Y-86552608D01*
X158769321Y-86413629D01*
X158723576Y-86262826D01*
X158708130Y-86106000D01*
X158723576Y-85949174D01*
X158769321Y-85798371D01*
X158843608Y-85659392D01*
X158943578Y-85537578D01*
X159065392Y-85437608D01*
X159204371Y-85363321D01*
X159279772Y-85340449D01*
X159355173Y-85317576D01*
X159394351Y-85313717D01*
X159472705Y-85306000D01*
X159551295Y-85306000D01*
X159629649Y-85313717D01*
X159629649Y-85313717D01*
G37*
G36*
X157089649Y-85313717D02*
X157128827Y-85317576D01*
X157204228Y-85340449D01*
X157279629Y-85363321D01*
X157418608Y-85437608D01*
X157540422Y-85537578D01*
X157640392Y-85659392D01*
X157714679Y-85798371D01*
X157760424Y-85949174D01*
X157775870Y-86106000D01*
X157760424Y-86262826D01*
X157714679Y-86413629D01*
X157640392Y-86552608D01*
X157540422Y-86674422D01*
X157418608Y-86774392D01*
X157279629Y-86848679D01*
X157204227Y-86871552D01*
X157128827Y-86894424D01*
X157089649Y-86898283D01*
X157011295Y-86906000D01*
X156932705Y-86906000D01*
X156854351Y-86898283D01*
X156815173Y-86894424D01*
X156739773Y-86871552D01*
X156664371Y-86848679D01*
X156525392Y-86774392D01*
X156403578Y-86674422D01*
X156303608Y-86552608D01*
X156229321Y-86413629D01*
X156183576Y-86262826D01*
X156168130Y-86106000D01*
X156183576Y-85949174D01*
X156229321Y-85798371D01*
X156303608Y-85659392D01*
X156403578Y-85537578D01*
X156525392Y-85437608D01*
X156664371Y-85363321D01*
X156739772Y-85340449D01*
X156815173Y-85317576D01*
X156854351Y-85313717D01*
X156932705Y-85306000D01*
X157011295Y-85306000D01*
X157089649Y-85313717D01*
X157089649Y-85313717D01*
G37*
G36*
X154549649Y-85313717D02*
X154588827Y-85317576D01*
X154664228Y-85340449D01*
X154739629Y-85363321D01*
X154878608Y-85437608D01*
X155000422Y-85537578D01*
X155100392Y-85659392D01*
X155174679Y-85798371D01*
X155220424Y-85949174D01*
X155235870Y-86106000D01*
X155220424Y-86262826D01*
X155174679Y-86413629D01*
X155100392Y-86552608D01*
X155000422Y-86674422D01*
X154878608Y-86774392D01*
X154739629Y-86848679D01*
X154664227Y-86871552D01*
X154588827Y-86894424D01*
X154549649Y-86898283D01*
X154471295Y-86906000D01*
X154392705Y-86906000D01*
X154314351Y-86898283D01*
X154275173Y-86894424D01*
X154199773Y-86871552D01*
X154124371Y-86848679D01*
X153985392Y-86774392D01*
X153863578Y-86674422D01*
X153763608Y-86552608D01*
X153689321Y-86413629D01*
X153643576Y-86262826D01*
X153628130Y-86106000D01*
X153643576Y-85949174D01*
X153689321Y-85798371D01*
X153763608Y-85659392D01*
X153863578Y-85537578D01*
X153985392Y-85437608D01*
X154124371Y-85363321D01*
X154199772Y-85340449D01*
X154275173Y-85317576D01*
X154314351Y-85313717D01*
X154392705Y-85306000D01*
X154471295Y-85306000D01*
X154549649Y-85313717D01*
X154549649Y-85313717D01*
G37*
G36*
X149469649Y-85313717D02*
X149508827Y-85317576D01*
X149584228Y-85340449D01*
X149659629Y-85363321D01*
X149798608Y-85437608D01*
X149920422Y-85537578D01*
X150020392Y-85659392D01*
X150094679Y-85798371D01*
X150140424Y-85949174D01*
X150155870Y-86106000D01*
X150140424Y-86262826D01*
X150094679Y-86413629D01*
X150020392Y-86552608D01*
X149920422Y-86674422D01*
X149798608Y-86774392D01*
X149659629Y-86848679D01*
X149584227Y-86871552D01*
X149508827Y-86894424D01*
X149469649Y-86898283D01*
X149391295Y-86906000D01*
X149312705Y-86906000D01*
X149234351Y-86898283D01*
X149195173Y-86894424D01*
X149119773Y-86871552D01*
X149044371Y-86848679D01*
X148905392Y-86774392D01*
X148783578Y-86674422D01*
X148683608Y-86552608D01*
X148609321Y-86413629D01*
X148563576Y-86262826D01*
X148548130Y-86106000D01*
X148563576Y-85949174D01*
X148609321Y-85798371D01*
X148683608Y-85659392D01*
X148783578Y-85537578D01*
X148905392Y-85437608D01*
X149044371Y-85363321D01*
X149119772Y-85340449D01*
X149195173Y-85317576D01*
X149234351Y-85313717D01*
X149312705Y-85306000D01*
X149391295Y-85306000D01*
X149469649Y-85313717D01*
X149469649Y-85313717D01*
G37*
G36*
X146929649Y-85313717D02*
X146968827Y-85317576D01*
X147044228Y-85340449D01*
X147119629Y-85363321D01*
X147258608Y-85437608D01*
X147380422Y-85537578D01*
X147480392Y-85659392D01*
X147554679Y-85798371D01*
X147600424Y-85949174D01*
X147615870Y-86106000D01*
X147600424Y-86262826D01*
X147554679Y-86413629D01*
X147480392Y-86552608D01*
X147380422Y-86674422D01*
X147258608Y-86774392D01*
X147119629Y-86848679D01*
X147044227Y-86871552D01*
X146968827Y-86894424D01*
X146929649Y-86898283D01*
X146851295Y-86906000D01*
X146772705Y-86906000D01*
X146694351Y-86898283D01*
X146655173Y-86894424D01*
X146579773Y-86871552D01*
X146504371Y-86848679D01*
X146365392Y-86774392D01*
X146243578Y-86674422D01*
X146143608Y-86552608D01*
X146069321Y-86413629D01*
X146023576Y-86262826D01*
X146008130Y-86106000D01*
X146023576Y-85949174D01*
X146069321Y-85798371D01*
X146143608Y-85659392D01*
X146243578Y-85537578D01*
X146365392Y-85437608D01*
X146504371Y-85363321D01*
X146579772Y-85340449D01*
X146655173Y-85317576D01*
X146694351Y-85313717D01*
X146772705Y-85306000D01*
X146851295Y-85306000D01*
X146929649Y-85313717D01*
X146929649Y-85313717D01*
G37*
G36*
X144389649Y-85313717D02*
X144428827Y-85317576D01*
X144504228Y-85340449D01*
X144579629Y-85363321D01*
X144718608Y-85437608D01*
X144840422Y-85537578D01*
X144940392Y-85659392D01*
X145014679Y-85798371D01*
X145060424Y-85949174D01*
X145075870Y-86106000D01*
X145060424Y-86262826D01*
X145014679Y-86413629D01*
X144940392Y-86552608D01*
X144840422Y-86674422D01*
X144718608Y-86774392D01*
X144579629Y-86848679D01*
X144504227Y-86871552D01*
X144428827Y-86894424D01*
X144389649Y-86898283D01*
X144311295Y-86906000D01*
X144232705Y-86906000D01*
X144154351Y-86898283D01*
X144115173Y-86894424D01*
X144039773Y-86871552D01*
X143964371Y-86848679D01*
X143825392Y-86774392D01*
X143703578Y-86674422D01*
X143603608Y-86552608D01*
X143529321Y-86413629D01*
X143483576Y-86262826D01*
X143468130Y-86106000D01*
X143483576Y-85949174D01*
X143529321Y-85798371D01*
X143603608Y-85659392D01*
X143703578Y-85537578D01*
X143825392Y-85437608D01*
X143964371Y-85363321D01*
X144039772Y-85340449D01*
X144115173Y-85317576D01*
X144154351Y-85313717D01*
X144232705Y-85306000D01*
X144311295Y-85306000D01*
X144389649Y-85313717D01*
X144389649Y-85313717D01*
G37*
G36*
X141849649Y-85313717D02*
X141888827Y-85317576D01*
X141964228Y-85340449D01*
X142039629Y-85363321D01*
X142178608Y-85437608D01*
X142300422Y-85537578D01*
X142400392Y-85659392D01*
X142474679Y-85798371D01*
X142520424Y-85949174D01*
X142535870Y-86106000D01*
X142520424Y-86262826D01*
X142474679Y-86413629D01*
X142400392Y-86552608D01*
X142300422Y-86674422D01*
X142178608Y-86774392D01*
X142039629Y-86848679D01*
X141964227Y-86871552D01*
X141888827Y-86894424D01*
X141849649Y-86898283D01*
X141771295Y-86906000D01*
X141692705Y-86906000D01*
X141614351Y-86898283D01*
X141575173Y-86894424D01*
X141499773Y-86871552D01*
X141424371Y-86848679D01*
X141285392Y-86774392D01*
X141163578Y-86674422D01*
X141063608Y-86552608D01*
X140989321Y-86413629D01*
X140943576Y-86262826D01*
X140928130Y-86106000D01*
X140943576Y-85949174D01*
X140989321Y-85798371D01*
X141063608Y-85659392D01*
X141163578Y-85537578D01*
X141285392Y-85437608D01*
X141424371Y-85363321D01*
X141499772Y-85340449D01*
X141575173Y-85317576D01*
X141614351Y-85313717D01*
X141692705Y-85306000D01*
X141771295Y-85306000D01*
X141849649Y-85313717D01*
X141849649Y-85313717D01*
G37*
G36*
X134229649Y-85313717D02*
X134268827Y-85317576D01*
X134344228Y-85340449D01*
X134419629Y-85363321D01*
X134558608Y-85437608D01*
X134680422Y-85537578D01*
X134780392Y-85659392D01*
X134854679Y-85798371D01*
X134900424Y-85949174D01*
X134915870Y-86106000D01*
X134900424Y-86262826D01*
X134854679Y-86413629D01*
X134780392Y-86552608D01*
X134680422Y-86674422D01*
X134558608Y-86774392D01*
X134419629Y-86848679D01*
X134344227Y-86871552D01*
X134268827Y-86894424D01*
X134229649Y-86898283D01*
X134151295Y-86906000D01*
X134072705Y-86906000D01*
X133994351Y-86898283D01*
X133955173Y-86894424D01*
X133879773Y-86871552D01*
X133804371Y-86848679D01*
X133665392Y-86774392D01*
X133543578Y-86674422D01*
X133443608Y-86552608D01*
X133369321Y-86413629D01*
X133323576Y-86262826D01*
X133308130Y-86106000D01*
X133323576Y-85949174D01*
X133369321Y-85798371D01*
X133443608Y-85659392D01*
X133543578Y-85537578D01*
X133665392Y-85437608D01*
X133804371Y-85363321D01*
X133879772Y-85340449D01*
X133955173Y-85317576D01*
X133994351Y-85313717D01*
X134072705Y-85306000D01*
X134151295Y-85306000D01*
X134229649Y-85313717D01*
X134229649Y-85313717D01*
G37*
G36*
X136769649Y-85313717D02*
X136808827Y-85317576D01*
X136884228Y-85340449D01*
X136959629Y-85363321D01*
X137098608Y-85437608D01*
X137220422Y-85537578D01*
X137320392Y-85659392D01*
X137394679Y-85798371D01*
X137440424Y-85949174D01*
X137455870Y-86106000D01*
X137440424Y-86262826D01*
X137394679Y-86413629D01*
X137320392Y-86552608D01*
X137220422Y-86674422D01*
X137098608Y-86774392D01*
X136959629Y-86848679D01*
X136884227Y-86871552D01*
X136808827Y-86894424D01*
X136769649Y-86898283D01*
X136691295Y-86906000D01*
X136612705Y-86906000D01*
X136534351Y-86898283D01*
X136495173Y-86894424D01*
X136419773Y-86871552D01*
X136344371Y-86848679D01*
X136205392Y-86774392D01*
X136083578Y-86674422D01*
X135983608Y-86552608D01*
X135909321Y-86413629D01*
X135863576Y-86262826D01*
X135848130Y-86106000D01*
X135863576Y-85949174D01*
X135909321Y-85798371D01*
X135983608Y-85659392D01*
X136083578Y-85537578D01*
X136205392Y-85437608D01*
X136344371Y-85363321D01*
X136419772Y-85340449D01*
X136495173Y-85317576D01*
X136534351Y-85313717D01*
X136612705Y-85306000D01*
X136691295Y-85306000D01*
X136769649Y-85313717D01*
X136769649Y-85313717D01*
G37*
G36*
X131689649Y-85313717D02*
X131728827Y-85317576D01*
X131804228Y-85340449D01*
X131879629Y-85363321D01*
X132018608Y-85437608D01*
X132140422Y-85537578D01*
X132240392Y-85659392D01*
X132314679Y-85798371D01*
X132360424Y-85949174D01*
X132375870Y-86106000D01*
X132360424Y-86262826D01*
X132314679Y-86413629D01*
X132240392Y-86552608D01*
X132140422Y-86674422D01*
X132018608Y-86774392D01*
X131879629Y-86848679D01*
X131804227Y-86871552D01*
X131728827Y-86894424D01*
X131689649Y-86898283D01*
X131611295Y-86906000D01*
X131532705Y-86906000D01*
X131454351Y-86898283D01*
X131415173Y-86894424D01*
X131339773Y-86871552D01*
X131264371Y-86848679D01*
X131125392Y-86774392D01*
X131003578Y-86674422D01*
X130903608Y-86552608D01*
X130829321Y-86413629D01*
X130783576Y-86262826D01*
X130768130Y-86106000D01*
X130783576Y-85949174D01*
X130829321Y-85798371D01*
X130903608Y-85659392D01*
X131003578Y-85537578D01*
X131125392Y-85437608D01*
X131264371Y-85363321D01*
X131339772Y-85340449D01*
X131415173Y-85317576D01*
X131454351Y-85313717D01*
X131532705Y-85306000D01*
X131611295Y-85306000D01*
X131689649Y-85313717D01*
X131689649Y-85313717D01*
G37*
G36*
X152009649Y-85313717D02*
X152048827Y-85317576D01*
X152124228Y-85340449D01*
X152199629Y-85363321D01*
X152338608Y-85437608D01*
X152460422Y-85537578D01*
X152560392Y-85659392D01*
X152634679Y-85798371D01*
X152680424Y-85949174D01*
X152695870Y-86106000D01*
X152680424Y-86262826D01*
X152634679Y-86413629D01*
X152560392Y-86552608D01*
X152460422Y-86674422D01*
X152338608Y-86774392D01*
X152199629Y-86848679D01*
X152124227Y-86871552D01*
X152048827Y-86894424D01*
X152009649Y-86898283D01*
X151931295Y-86906000D01*
X151852705Y-86906000D01*
X151774351Y-86898283D01*
X151735173Y-86894424D01*
X151659773Y-86871552D01*
X151584371Y-86848679D01*
X151445392Y-86774392D01*
X151323578Y-86674422D01*
X151223608Y-86552608D01*
X151149321Y-86413629D01*
X151103576Y-86262826D01*
X151088130Y-86106000D01*
X151103576Y-85949174D01*
X151149321Y-85798371D01*
X151223608Y-85659392D01*
X151323578Y-85537578D01*
X151445392Y-85437608D01*
X151584371Y-85363321D01*
X151659772Y-85340449D01*
X151735173Y-85317576D01*
X151774351Y-85313717D01*
X151852705Y-85306000D01*
X151931295Y-85306000D01*
X152009649Y-85313717D01*
X152009649Y-85313717D01*
G37*
G36*
X139309649Y-85313717D02*
X139348827Y-85317576D01*
X139424228Y-85340449D01*
X139499629Y-85363321D01*
X139638608Y-85437608D01*
X139760422Y-85537578D01*
X139860392Y-85659392D01*
X139934679Y-85798371D01*
X139980424Y-85949174D01*
X139995870Y-86106000D01*
X139980424Y-86262826D01*
X139934679Y-86413629D01*
X139860392Y-86552608D01*
X139760422Y-86674422D01*
X139638608Y-86774392D01*
X139499629Y-86848679D01*
X139424227Y-86871552D01*
X139348827Y-86894424D01*
X139309649Y-86898283D01*
X139231295Y-86906000D01*
X139152705Y-86906000D01*
X139074351Y-86898283D01*
X139035173Y-86894424D01*
X138959773Y-86871552D01*
X138884371Y-86848679D01*
X138745392Y-86774392D01*
X138623578Y-86674422D01*
X138523608Y-86552608D01*
X138449321Y-86413629D01*
X138403576Y-86262826D01*
X138388130Y-86106000D01*
X138403576Y-85949174D01*
X138449321Y-85798371D01*
X138523608Y-85659392D01*
X138623578Y-85537578D01*
X138745392Y-85437608D01*
X138884371Y-85363321D01*
X138959772Y-85340449D01*
X139035173Y-85317576D01*
X139074351Y-85313717D01*
X139152705Y-85306000D01*
X139231295Y-85306000D01*
X139309649Y-85313717D01*
X139309649Y-85313717D01*
G37*
G36*
X167249649Y-85313717D02*
X167288827Y-85317576D01*
X167364228Y-85340449D01*
X167439629Y-85363321D01*
X167578608Y-85437608D01*
X167700422Y-85537578D01*
X167800392Y-85659392D01*
X167874679Y-85798371D01*
X167920424Y-85949174D01*
X167935870Y-86106000D01*
X167920424Y-86262826D01*
X167874679Y-86413629D01*
X167800392Y-86552608D01*
X167700422Y-86674422D01*
X167578608Y-86774392D01*
X167439629Y-86848679D01*
X167364227Y-86871552D01*
X167288827Y-86894424D01*
X167249649Y-86898283D01*
X167171295Y-86906000D01*
X167092705Y-86906000D01*
X167014351Y-86898283D01*
X166975173Y-86894424D01*
X166899773Y-86871552D01*
X166824371Y-86848679D01*
X166685392Y-86774392D01*
X166563578Y-86674422D01*
X166463608Y-86552608D01*
X166389321Y-86413629D01*
X166343576Y-86262826D01*
X166328130Y-86106000D01*
X166343576Y-85949174D01*
X166389321Y-85798371D01*
X166463608Y-85659392D01*
X166563578Y-85537578D01*
X166685392Y-85437608D01*
X166824371Y-85363321D01*
X166899772Y-85340449D01*
X166975173Y-85317576D01*
X167014351Y-85313717D01*
X167092705Y-85306000D01*
X167171295Y-85306000D01*
X167249649Y-85313717D01*
X167249649Y-85313717D01*
G37*
G36*
X172053116Y-81633595D02*
X172082313Y-81642452D01*
X172109218Y-81656833D01*
X172132808Y-81676192D01*
X172152167Y-81699782D01*
X172166548Y-81726687D01*
X172175405Y-81755884D01*
X172179000Y-81792390D01*
X172179000Y-82342610D01*
X172175405Y-82379116D01*
X172166548Y-82408313D01*
X172152167Y-82435218D01*
X172132808Y-82458808D01*
X172109218Y-82478167D01*
X172082313Y-82492548D01*
X172053116Y-82501405D01*
X172016610Y-82505000D01*
X171391390Y-82505000D01*
X171354884Y-82501405D01*
X171325687Y-82492548D01*
X171298782Y-82478167D01*
X171275192Y-82458808D01*
X171255833Y-82435218D01*
X171241452Y-82408313D01*
X171232595Y-82379116D01*
X171229000Y-82342610D01*
X171229000Y-81792390D01*
X171232595Y-81755884D01*
X171241452Y-81726687D01*
X171255833Y-81699782D01*
X171275192Y-81676192D01*
X171298782Y-81656833D01*
X171325687Y-81642452D01*
X171354884Y-81633595D01*
X171391390Y-81630000D01*
X172016610Y-81630000D01*
X172053116Y-81633595D01*
X172053116Y-81633595D01*
G37*
G36*
X108484000Y-82484000D02*
X105984000Y-82484000D01*
X105984000Y-80584000D01*
X108484000Y-80584000D01*
X108484000Y-82484000D01*
X108484000Y-82484000D01*
G37*
G36*
X112808116Y-81316595D02*
X112837313Y-81325452D01*
X112864218Y-81339833D01*
X112887808Y-81359192D01*
X112907167Y-81382782D01*
X112921548Y-81409687D01*
X112930405Y-81438884D01*
X112934000Y-81475390D01*
X112934000Y-82100610D01*
X112930405Y-82137116D01*
X112921548Y-82166313D01*
X112907167Y-82193218D01*
X112887808Y-82216808D01*
X112864218Y-82236167D01*
X112837313Y-82250548D01*
X112808116Y-82259405D01*
X112771610Y-82263000D01*
X112221390Y-82263000D01*
X112184884Y-82259405D01*
X112155687Y-82250548D01*
X112128782Y-82236167D01*
X112105192Y-82216808D01*
X112085833Y-82193218D01*
X112071452Y-82166313D01*
X112062595Y-82137116D01*
X112059000Y-82100610D01*
X112059000Y-81475390D01*
X112062595Y-81438884D01*
X112071452Y-81409687D01*
X112085833Y-81382782D01*
X112105192Y-81359192D01*
X112128782Y-81339833D01*
X112155687Y-81325452D01*
X112184884Y-81316595D01*
X112221390Y-81313000D01*
X112771610Y-81313000D01*
X112808116Y-81316595D01*
X112808116Y-81316595D01*
G37*
G36*
X114383116Y-81316595D02*
X114412313Y-81325452D01*
X114439218Y-81339833D01*
X114462808Y-81359192D01*
X114482167Y-81382782D01*
X114496548Y-81409687D01*
X114505405Y-81438884D01*
X114509000Y-81475390D01*
X114509000Y-82100610D01*
X114505405Y-82137116D01*
X114496548Y-82166313D01*
X114482167Y-82193218D01*
X114462808Y-82216808D01*
X114439218Y-82236167D01*
X114412313Y-82250548D01*
X114383116Y-82259405D01*
X114346610Y-82263000D01*
X113796390Y-82263000D01*
X113759884Y-82259405D01*
X113730687Y-82250548D01*
X113703782Y-82236167D01*
X113680192Y-82216808D01*
X113660833Y-82193218D01*
X113646452Y-82166313D01*
X113637595Y-82137116D01*
X113634000Y-82100610D01*
X113634000Y-81475390D01*
X113637595Y-81438884D01*
X113646452Y-81409687D01*
X113660833Y-81382782D01*
X113680192Y-81359192D01*
X113703782Y-81339833D01*
X113730687Y-81325452D01*
X113759884Y-81316595D01*
X113796390Y-81313000D01*
X114346610Y-81313000D01*
X114383116Y-81316595D01*
X114383116Y-81316595D01*
G37*
G36*
X131667116Y-81379595D02*
X131696313Y-81388452D01*
X131723218Y-81402833D01*
X131746808Y-81422192D01*
X131766167Y-81445782D01*
X131780548Y-81472687D01*
X131789405Y-81501884D01*
X131793000Y-81538390D01*
X131793000Y-82088610D01*
X131789405Y-82125116D01*
X131780548Y-82154313D01*
X131766167Y-82181218D01*
X131746808Y-82204808D01*
X131723218Y-82224167D01*
X131696313Y-82238548D01*
X131667116Y-82247405D01*
X131630610Y-82251000D01*
X131005390Y-82251000D01*
X130968884Y-82247405D01*
X130939687Y-82238548D01*
X130912782Y-82224167D01*
X130889192Y-82204808D01*
X130869833Y-82181218D01*
X130855452Y-82154313D01*
X130846595Y-82125116D01*
X130843000Y-82088610D01*
X130843000Y-81538390D01*
X130846595Y-81501884D01*
X130855452Y-81472687D01*
X130869833Y-81445782D01*
X130889192Y-81422192D01*
X130912782Y-81402833D01*
X130939687Y-81388452D01*
X130968884Y-81379595D01*
X131005390Y-81376000D01*
X131630610Y-81376000D01*
X131667116Y-81379595D01*
X131667116Y-81379595D01*
G37*
G36*
X162147116Y-80617595D02*
X162176313Y-80626452D01*
X162203218Y-80640833D01*
X162226808Y-80660192D01*
X162246167Y-80683782D01*
X162260548Y-80710687D01*
X162269405Y-80739884D01*
X162273000Y-80776390D01*
X162273000Y-81326610D01*
X162269405Y-81363116D01*
X162260548Y-81392313D01*
X162246167Y-81419218D01*
X162226808Y-81442808D01*
X162203218Y-81462167D01*
X162176313Y-81476548D01*
X162147116Y-81485405D01*
X162110610Y-81489000D01*
X161485390Y-81489000D01*
X161448884Y-81485405D01*
X161419687Y-81476548D01*
X161392782Y-81462167D01*
X161369192Y-81442808D01*
X161349833Y-81419218D01*
X161335452Y-81392313D01*
X161326595Y-81363116D01*
X161323000Y-81326610D01*
X161323000Y-80776390D01*
X161326595Y-80739884D01*
X161335452Y-80710687D01*
X161349833Y-80683782D01*
X161369192Y-80660192D01*
X161392782Y-80640833D01*
X161419687Y-80626452D01*
X161448884Y-80617595D01*
X161485390Y-80614000D01*
X162110610Y-80614000D01*
X162147116Y-80617595D01*
X162147116Y-80617595D01*
G37*
G36*
X165949951Y-81274851D02*
X163449951Y-81274851D01*
X163449951Y-79374851D01*
X165949951Y-79374851D01*
X165949951Y-81274851D01*
X165949951Y-81274851D01*
G37*
G36*
X172053116Y-80058595D02*
X172082313Y-80067452D01*
X172109218Y-80081833D01*
X172132808Y-80101192D01*
X172152167Y-80124782D01*
X172166548Y-80151687D01*
X172175405Y-80180884D01*
X172179000Y-80217390D01*
X172179000Y-80767610D01*
X172175405Y-80804116D01*
X172166548Y-80833313D01*
X172152167Y-80860218D01*
X172132808Y-80883808D01*
X172109218Y-80903167D01*
X172082313Y-80917548D01*
X172053116Y-80926405D01*
X172016610Y-80930000D01*
X171391390Y-80930000D01*
X171354884Y-80926405D01*
X171325687Y-80917548D01*
X171298782Y-80903167D01*
X171275192Y-80883808D01*
X171255833Y-80860218D01*
X171241452Y-80833313D01*
X171232595Y-80804116D01*
X171229000Y-80767610D01*
X171229000Y-80217390D01*
X171232595Y-80180884D01*
X171241452Y-80151687D01*
X171255833Y-80124782D01*
X171275192Y-80101192D01*
X171298782Y-80081833D01*
X171325687Y-80067452D01*
X171354884Y-80058595D01*
X171391390Y-80055000D01*
X172016610Y-80055000D01*
X172053116Y-80058595D01*
X172053116Y-80058595D01*
G37*
G36*
X100217116Y-79941595D02*
X100246313Y-79950452D01*
X100273218Y-79964833D01*
X100296808Y-79984192D01*
X100316167Y-80007782D01*
X100330548Y-80034687D01*
X100339405Y-80063884D01*
X100343000Y-80100390D01*
X100343000Y-80650610D01*
X100339405Y-80687116D01*
X100330548Y-80716313D01*
X100316167Y-80743218D01*
X100296808Y-80766808D01*
X100273218Y-80786167D01*
X100246313Y-80800548D01*
X100217116Y-80809405D01*
X100180610Y-80813000D01*
X99555390Y-80813000D01*
X99518884Y-80809405D01*
X99489687Y-80800548D01*
X99462782Y-80786167D01*
X99439192Y-80766808D01*
X99419833Y-80743218D01*
X99405452Y-80716313D01*
X99396595Y-80687116D01*
X99393000Y-80650610D01*
X99393000Y-80100390D01*
X99396595Y-80063884D01*
X99405452Y-80034687D01*
X99419833Y-80007782D01*
X99439192Y-79984192D01*
X99462782Y-79964833D01*
X99489687Y-79950452D01*
X99518884Y-79941595D01*
X99555390Y-79938000D01*
X100180610Y-79938000D01*
X100217116Y-79941595D01*
X100217116Y-79941595D01*
G37*
G36*
X131667116Y-79804595D02*
X131696313Y-79813452D01*
X131723218Y-79827833D01*
X131746808Y-79847192D01*
X131766167Y-79870782D01*
X131780548Y-79897687D01*
X131789405Y-79926884D01*
X131793000Y-79963390D01*
X131793000Y-80513610D01*
X131789405Y-80550116D01*
X131780548Y-80579313D01*
X131766167Y-80606218D01*
X131746808Y-80629808D01*
X131723218Y-80649167D01*
X131696313Y-80663548D01*
X131667116Y-80672405D01*
X131630610Y-80676000D01*
X131005390Y-80676000D01*
X130968884Y-80672405D01*
X130939687Y-80663548D01*
X130912782Y-80649167D01*
X130889192Y-80629808D01*
X130869833Y-80606218D01*
X130855452Y-80579313D01*
X130846595Y-80550116D01*
X130843000Y-80513610D01*
X130843000Y-79963390D01*
X130846595Y-79926884D01*
X130855452Y-79897687D01*
X130869833Y-79870782D01*
X130889192Y-79847192D01*
X130912782Y-79827833D01*
X130939687Y-79813452D01*
X130968884Y-79804595D01*
X131005390Y-79801000D01*
X131630610Y-79801000D01*
X131667116Y-79804595D01*
X131667116Y-79804595D01*
G37*
G36*
X162147116Y-79042595D02*
X162176313Y-79051452D01*
X162203218Y-79065833D01*
X162226808Y-79085192D01*
X162246167Y-79108782D01*
X162260548Y-79135687D01*
X162269405Y-79164884D01*
X162273000Y-79201390D01*
X162273000Y-79751610D01*
X162269405Y-79788116D01*
X162260548Y-79817313D01*
X162246167Y-79844218D01*
X162226808Y-79867808D01*
X162203218Y-79887167D01*
X162176313Y-79901548D01*
X162147116Y-79910405D01*
X162110610Y-79914000D01*
X161485390Y-79914000D01*
X161448884Y-79910405D01*
X161419687Y-79901548D01*
X161392782Y-79887167D01*
X161369192Y-79867808D01*
X161349833Y-79844218D01*
X161335452Y-79817313D01*
X161326595Y-79788116D01*
X161323000Y-79751610D01*
X161323000Y-79201390D01*
X161326595Y-79164884D01*
X161335452Y-79135687D01*
X161349833Y-79108782D01*
X161369192Y-79085192D01*
X161392782Y-79065833D01*
X161419687Y-79051452D01*
X161448884Y-79042595D01*
X161485390Y-79039000D01*
X162110610Y-79039000D01*
X162147116Y-79042595D01*
X162147116Y-79042595D01*
G37*
G36*
X100217116Y-78366595D02*
X100246313Y-78375452D01*
X100273218Y-78389833D01*
X100296808Y-78409192D01*
X100316167Y-78432782D01*
X100330548Y-78459687D01*
X100339405Y-78488884D01*
X100343000Y-78525390D01*
X100343000Y-79075610D01*
X100339405Y-79112116D01*
X100330548Y-79141313D01*
X100316167Y-79168218D01*
X100296808Y-79191808D01*
X100273218Y-79211167D01*
X100246313Y-79225548D01*
X100217116Y-79234405D01*
X100180610Y-79238000D01*
X99555390Y-79238000D01*
X99518884Y-79234405D01*
X99489687Y-79225548D01*
X99462782Y-79211167D01*
X99439192Y-79191808D01*
X99419833Y-79168218D01*
X99405452Y-79141313D01*
X99396595Y-79112116D01*
X99393000Y-79075610D01*
X99393000Y-78525390D01*
X99396595Y-78488884D01*
X99405452Y-78459687D01*
X99419833Y-78432782D01*
X99439192Y-78409192D01*
X99462782Y-78389833D01*
X99489687Y-78375452D01*
X99518884Y-78366595D01*
X99555390Y-78363000D01*
X100180610Y-78363000D01*
X100217116Y-78366595D01*
X100217116Y-78366595D01*
G37*
G36*
X110885116Y-77569595D02*
X110914313Y-77578452D01*
X110941218Y-77592833D01*
X110964808Y-77612192D01*
X110984167Y-77635782D01*
X110998548Y-77662687D01*
X111007405Y-77691884D01*
X111011000Y-77728390D01*
X111011000Y-78278610D01*
X111007405Y-78315116D01*
X110998548Y-78344313D01*
X110984167Y-78371218D01*
X110964808Y-78394808D01*
X110941218Y-78414167D01*
X110914313Y-78428548D01*
X110885116Y-78437405D01*
X110848610Y-78441000D01*
X110223390Y-78441000D01*
X110186884Y-78437405D01*
X110157687Y-78428548D01*
X110130782Y-78414167D01*
X110107192Y-78394808D01*
X110087833Y-78371218D01*
X110073452Y-78344313D01*
X110064595Y-78315116D01*
X110061000Y-78278610D01*
X110061000Y-77728390D01*
X110064595Y-77691884D01*
X110073452Y-77662687D01*
X110087833Y-77635782D01*
X110107192Y-77612192D01*
X110130782Y-77592833D01*
X110157687Y-77578452D01*
X110186884Y-77569595D01*
X110223390Y-77566000D01*
X110848610Y-77566000D01*
X110885116Y-77569595D01*
X110885116Y-77569595D01*
G37*
G36*
X172815116Y-77341095D02*
X172844313Y-77349952D01*
X172871218Y-77364333D01*
X172894808Y-77383692D01*
X172914167Y-77407282D01*
X172928548Y-77434187D01*
X172937405Y-77463384D01*
X172941000Y-77499890D01*
X172941000Y-78050110D01*
X172937405Y-78086616D01*
X172928548Y-78115813D01*
X172914167Y-78142718D01*
X172894808Y-78166308D01*
X172871218Y-78185667D01*
X172844313Y-78200048D01*
X172815116Y-78208905D01*
X172778610Y-78212500D01*
X172153390Y-78212500D01*
X172116884Y-78208905D01*
X172087687Y-78200048D01*
X172060782Y-78185667D01*
X172037192Y-78166308D01*
X172017833Y-78142718D01*
X172003452Y-78115813D01*
X171994595Y-78086616D01*
X171991000Y-78050110D01*
X171991000Y-77499890D01*
X171994595Y-77463384D01*
X172003452Y-77434187D01*
X172017833Y-77407282D01*
X172037192Y-77383692D01*
X172060782Y-77364333D01*
X172087687Y-77349952D01*
X172116884Y-77341095D01*
X172153390Y-77337500D01*
X172778610Y-77337500D01*
X172815116Y-77341095D01*
X172815116Y-77341095D01*
G37*
G36*
X108484000Y-78084000D02*
X105984000Y-78084000D01*
X105984000Y-76184000D01*
X108484000Y-76184000D01*
X108484000Y-78084000D01*
X108484000Y-78084000D01*
G37*
G36*
X165949951Y-76874851D02*
X163449951Y-76874851D01*
X163449951Y-74974851D01*
X165949951Y-74974851D01*
X165949951Y-76874851D01*
X165949951Y-76874851D01*
G37*
G36*
X110885116Y-75994595D02*
X110914313Y-76003452D01*
X110941218Y-76017833D01*
X110964808Y-76037192D01*
X110984167Y-76060782D01*
X110998548Y-76087687D01*
X111007405Y-76116884D01*
X111011000Y-76153390D01*
X111011000Y-76703610D01*
X111007405Y-76740116D01*
X110998548Y-76769313D01*
X110984167Y-76796218D01*
X110964808Y-76819808D01*
X110941218Y-76839167D01*
X110914313Y-76853548D01*
X110885116Y-76862405D01*
X110848610Y-76866000D01*
X110223390Y-76866000D01*
X110186884Y-76862405D01*
X110157687Y-76853548D01*
X110130782Y-76839167D01*
X110107192Y-76819808D01*
X110087833Y-76796218D01*
X110073452Y-76769313D01*
X110064595Y-76740116D01*
X110061000Y-76703610D01*
X110061000Y-76153390D01*
X110064595Y-76116884D01*
X110073452Y-76087687D01*
X110087833Y-76060782D01*
X110107192Y-76037192D01*
X110130782Y-76017833D01*
X110157687Y-76003452D01*
X110186884Y-75994595D01*
X110223390Y-75991000D01*
X110848610Y-75991000D01*
X110885116Y-75994595D01*
X110885116Y-75994595D01*
G37*
G36*
X129889116Y-75817095D02*
X129918313Y-75825952D01*
X129945218Y-75840333D01*
X129968808Y-75859692D01*
X129988167Y-75883282D01*
X130002548Y-75910187D01*
X130011405Y-75939384D01*
X130015000Y-75975890D01*
X130015000Y-76526110D01*
X130011405Y-76562616D01*
X130002548Y-76591813D01*
X129988167Y-76618718D01*
X129968808Y-76642308D01*
X129945218Y-76661667D01*
X129918313Y-76676048D01*
X129889116Y-76684905D01*
X129852610Y-76688500D01*
X129227390Y-76688500D01*
X129190884Y-76684905D01*
X129161687Y-76676048D01*
X129134782Y-76661667D01*
X129111192Y-76642308D01*
X129091833Y-76618718D01*
X129077452Y-76591813D01*
X129068595Y-76562616D01*
X129065000Y-76526110D01*
X129065000Y-75975890D01*
X129068595Y-75939384D01*
X129077452Y-75910187D01*
X129091833Y-75883282D01*
X129111192Y-75859692D01*
X129134782Y-75840333D01*
X129161687Y-75825952D01*
X129190884Y-75817095D01*
X129227390Y-75813500D01*
X129852610Y-75813500D01*
X129889116Y-75817095D01*
X129889116Y-75817095D01*
G37*
G36*
X172815116Y-75766095D02*
X172844313Y-75774952D01*
X172871218Y-75789333D01*
X172894808Y-75808692D01*
X172914167Y-75832282D01*
X172928548Y-75859187D01*
X172937405Y-75888384D01*
X172941000Y-75924890D01*
X172941000Y-76475110D01*
X172937405Y-76511616D01*
X172928548Y-76540813D01*
X172914167Y-76567718D01*
X172894808Y-76591308D01*
X172871218Y-76610667D01*
X172844313Y-76625048D01*
X172815116Y-76633905D01*
X172778610Y-76637500D01*
X172153390Y-76637500D01*
X172116884Y-76633905D01*
X172087687Y-76625048D01*
X172060782Y-76610667D01*
X172037192Y-76591308D01*
X172017833Y-76567718D01*
X172003452Y-76540813D01*
X171994595Y-76511616D01*
X171991000Y-76475110D01*
X171991000Y-75924890D01*
X171994595Y-75888384D01*
X172003452Y-75859187D01*
X172017833Y-75832282D01*
X172037192Y-75808692D01*
X172060782Y-75789333D01*
X172087687Y-75774952D01*
X172116884Y-75766095D01*
X172153390Y-75762500D01*
X172778610Y-75762500D01*
X172815116Y-75766095D01*
X172815116Y-75766095D01*
G37*
G36*
X89527000Y-75794000D02*
X88077000Y-75794000D01*
X88077000Y-69494000D01*
X89527000Y-69494000D01*
X89527000Y-75794000D01*
X89527000Y-75794000D01*
G37*
G36*
X83627000Y-75794000D02*
X82177000Y-75794000D01*
X82177000Y-69494000D01*
X83627000Y-69494000D01*
X83627000Y-75794000D01*
X83627000Y-75794000D01*
G37*
G36*
X129889116Y-74242095D02*
X129918313Y-74250952D01*
X129945218Y-74265333D01*
X129968808Y-74284692D01*
X129988167Y-74308282D01*
X130002548Y-74335187D01*
X130011405Y-74364384D01*
X130015000Y-74400890D01*
X130015000Y-74951110D01*
X130011405Y-74987616D01*
X130002548Y-75016813D01*
X129988167Y-75043718D01*
X129968808Y-75067308D01*
X129945218Y-75086667D01*
X129918313Y-75101048D01*
X129889116Y-75109905D01*
X129852610Y-75113500D01*
X129227390Y-75113500D01*
X129190884Y-75109905D01*
X129161687Y-75101048D01*
X129134782Y-75086667D01*
X129111192Y-75067308D01*
X129091833Y-75043718D01*
X129077452Y-75016813D01*
X129068595Y-74987616D01*
X129065000Y-74951110D01*
X129065000Y-74400890D01*
X129068595Y-74364384D01*
X129077452Y-74335187D01*
X129091833Y-74308282D01*
X129111192Y-74284692D01*
X129134782Y-74265333D01*
X129161687Y-74250952D01*
X129190884Y-74242095D01*
X129227390Y-74238500D01*
X129852610Y-74238500D01*
X129889116Y-74242095D01*
X129889116Y-74242095D01*
G37*
G36*
X155001000Y-73508000D02*
X153551000Y-73508000D01*
X153551000Y-67208000D01*
X155001000Y-67208000D01*
X155001000Y-73508000D01*
X155001000Y-73508000D01*
G37*
G36*
X160901000Y-73508000D02*
X159451000Y-73508000D01*
X159451000Y-67208000D01*
X160901000Y-67208000D01*
X160901000Y-73508000D01*
X160901000Y-73508000D01*
G37*
G36*
X136611553Y-72151849D02*
X136640750Y-72160706D01*
X136667655Y-72175087D01*
X136691245Y-72194446D01*
X136710604Y-72218036D01*
X136724985Y-72244941D01*
X136733842Y-72274138D01*
X136737437Y-72310644D01*
X136737437Y-72935864D01*
X136733842Y-72972370D01*
X136724985Y-73001567D01*
X136710604Y-73028472D01*
X136691245Y-73052062D01*
X136667655Y-73071421D01*
X136640750Y-73085802D01*
X136611553Y-73094659D01*
X136575047Y-73098254D01*
X136024827Y-73098254D01*
X135988321Y-73094659D01*
X135959124Y-73085802D01*
X135932219Y-73071421D01*
X135908629Y-73052062D01*
X135889270Y-73028472D01*
X135874889Y-73001567D01*
X135866032Y-72972370D01*
X135862437Y-72935864D01*
X135862437Y-72310644D01*
X135866032Y-72274138D01*
X135874889Y-72244941D01*
X135889270Y-72218036D01*
X135908629Y-72194446D01*
X135932219Y-72175087D01*
X135959124Y-72160706D01*
X135988321Y-72151849D01*
X136024827Y-72148254D01*
X136575047Y-72148254D01*
X136611553Y-72151849D01*
X136611553Y-72151849D01*
G37*
G36*
X138186553Y-72151849D02*
X138215750Y-72160706D01*
X138242655Y-72175087D01*
X138266245Y-72194446D01*
X138285604Y-72218036D01*
X138299985Y-72244941D01*
X138308842Y-72274138D01*
X138312437Y-72310644D01*
X138312437Y-72935864D01*
X138308842Y-72972370D01*
X138299985Y-73001567D01*
X138285604Y-73028472D01*
X138266245Y-73052062D01*
X138242655Y-73071421D01*
X138215750Y-73085802D01*
X138186553Y-73094659D01*
X138150047Y-73098254D01*
X137599827Y-73098254D01*
X137563321Y-73094659D01*
X137534124Y-73085802D01*
X137507219Y-73071421D01*
X137483629Y-73052062D01*
X137464270Y-73028472D01*
X137449889Y-73001567D01*
X137441032Y-72972370D01*
X137437437Y-72935864D01*
X137437437Y-72310644D01*
X137441032Y-72274138D01*
X137449889Y-72244941D01*
X137464270Y-72218036D01*
X137483629Y-72194446D01*
X137507219Y-72175087D01*
X137534124Y-72160706D01*
X137563321Y-72151849D01*
X137599827Y-72148254D01*
X138150047Y-72148254D01*
X138186553Y-72151849D01*
X138186553Y-72151849D01*
G37*
G36*
X108312616Y-71410595D02*
X108341813Y-71419452D01*
X108368718Y-71433833D01*
X108392308Y-71453192D01*
X108411667Y-71476782D01*
X108426048Y-71503687D01*
X108434905Y-71532884D01*
X108438500Y-71569390D01*
X108438500Y-72194610D01*
X108434905Y-72231116D01*
X108426048Y-72260313D01*
X108411667Y-72287218D01*
X108392308Y-72310808D01*
X108368718Y-72330167D01*
X108341813Y-72344548D01*
X108312616Y-72353405D01*
X108276110Y-72357000D01*
X107725890Y-72357000D01*
X107689384Y-72353405D01*
X107660187Y-72344548D01*
X107633282Y-72330167D01*
X107609692Y-72310808D01*
X107590333Y-72287218D01*
X107575952Y-72260313D01*
X107567095Y-72231116D01*
X107563500Y-72194610D01*
X107563500Y-71569390D01*
X107567095Y-71532884D01*
X107575952Y-71503687D01*
X107590333Y-71476782D01*
X107609692Y-71453192D01*
X107633282Y-71433833D01*
X107660187Y-71419452D01*
X107689384Y-71410595D01*
X107725890Y-71407000D01*
X108276110Y-71407000D01*
X108312616Y-71410595D01*
X108312616Y-71410595D01*
G37*
G36*
X106737616Y-71410595D02*
X106766813Y-71419452D01*
X106793718Y-71433833D01*
X106817308Y-71453192D01*
X106836667Y-71476782D01*
X106851048Y-71503687D01*
X106859905Y-71532884D01*
X106863500Y-71569390D01*
X106863500Y-72194610D01*
X106859905Y-72231116D01*
X106851048Y-72260313D01*
X106836667Y-72287218D01*
X106817308Y-72310808D01*
X106793718Y-72330167D01*
X106766813Y-72344548D01*
X106737616Y-72353405D01*
X106701110Y-72357000D01*
X106150890Y-72357000D01*
X106114384Y-72353405D01*
X106085187Y-72344548D01*
X106058282Y-72330167D01*
X106034692Y-72310808D01*
X106015333Y-72287218D01*
X106000952Y-72260313D01*
X105992095Y-72231116D01*
X105988500Y-72194610D01*
X105988500Y-71569390D01*
X105992095Y-71532884D01*
X106000952Y-71503687D01*
X106015333Y-71476782D01*
X106034692Y-71453192D01*
X106058282Y-71433833D01*
X106085187Y-71419452D01*
X106114384Y-71410595D01*
X106150890Y-71407000D01*
X106701110Y-71407000D01*
X106737616Y-71410595D01*
X106737616Y-71410595D01*
G37*
G36*
X133614595Y-70709805D02*
X133643792Y-70718662D01*
X133670697Y-70733043D01*
X133694287Y-70752402D01*
X133713646Y-70775992D01*
X133728027Y-70802897D01*
X133736884Y-70832094D01*
X133740479Y-70868600D01*
X133740479Y-71418820D01*
X133736884Y-71455326D01*
X133728027Y-71484523D01*
X133713646Y-71511428D01*
X133694287Y-71535018D01*
X133670697Y-71554377D01*
X133643792Y-71568758D01*
X133614595Y-71577615D01*
X133578089Y-71581210D01*
X132952869Y-71581210D01*
X132916363Y-71577615D01*
X132887166Y-71568758D01*
X132860261Y-71554377D01*
X132836671Y-71535018D01*
X132817312Y-71511428D01*
X132802931Y-71484523D01*
X132794074Y-71455326D01*
X132790479Y-71418820D01*
X132790479Y-70868600D01*
X132794074Y-70832094D01*
X132802931Y-70802897D01*
X132817312Y-70775992D01*
X132836671Y-70752402D01*
X132860261Y-70733043D01*
X132887166Y-70718662D01*
X132916363Y-70709805D01*
X132952869Y-70706210D01*
X133578089Y-70706210D01*
X133614595Y-70709805D01*
X133614595Y-70709805D01*
G37*
G36*
X129550595Y-70684305D02*
X129579792Y-70693162D01*
X129606697Y-70707543D01*
X129630287Y-70726902D01*
X129649646Y-70750492D01*
X129664027Y-70777397D01*
X129672884Y-70806594D01*
X129676479Y-70843100D01*
X129676479Y-71393320D01*
X129672884Y-71429826D01*
X129664027Y-71459023D01*
X129649646Y-71485928D01*
X129630287Y-71509518D01*
X129606697Y-71528877D01*
X129579792Y-71543258D01*
X129550595Y-71552115D01*
X129514089Y-71555710D01*
X128888869Y-71555710D01*
X128852363Y-71552115D01*
X128823166Y-71543258D01*
X128796261Y-71528877D01*
X128772671Y-71509518D01*
X128753312Y-71485928D01*
X128738931Y-71459023D01*
X128730074Y-71429826D01*
X128726479Y-71393320D01*
X128726479Y-70843100D01*
X128730074Y-70806594D01*
X128738931Y-70777397D01*
X128753312Y-70750492D01*
X128772671Y-70726902D01*
X128796261Y-70707543D01*
X128823166Y-70693162D01*
X128852363Y-70684305D01*
X128888869Y-70680710D01*
X129514089Y-70680710D01*
X129550595Y-70684305D01*
X129550595Y-70684305D01*
G37*
G36*
X106853000Y-70531000D02*
X105303000Y-70531000D01*
X105303000Y-69931000D01*
X106853000Y-69931000D01*
X106853000Y-70531000D01*
X106853000Y-70531000D01*
G37*
G36*
X101453000Y-70531000D02*
X99903000Y-70531000D01*
X99903000Y-69931000D01*
X101453000Y-69931000D01*
X101453000Y-70531000D01*
X101453000Y-70531000D01*
G37*
G36*
X114546000Y-70350000D02*
X113546000Y-70350000D01*
X113546000Y-69350000D01*
X114546000Y-69350000D01*
X114546000Y-70350000D01*
X114546000Y-70350000D01*
G37*
G36*
X133614595Y-69134805D02*
X133643792Y-69143662D01*
X133670697Y-69158043D01*
X133694287Y-69177402D01*
X133713646Y-69200992D01*
X133728027Y-69227897D01*
X133736884Y-69257094D01*
X133740479Y-69293600D01*
X133740479Y-69843820D01*
X133736884Y-69880326D01*
X133728027Y-69909523D01*
X133713646Y-69936428D01*
X133694287Y-69960018D01*
X133670697Y-69979377D01*
X133643792Y-69993758D01*
X133614595Y-70002615D01*
X133578089Y-70006210D01*
X132952869Y-70006210D01*
X132916363Y-70002615D01*
X132887166Y-69993758D01*
X132860261Y-69979377D01*
X132836671Y-69960018D01*
X132817312Y-69936428D01*
X132802931Y-69909523D01*
X132794074Y-69880326D01*
X132790479Y-69843820D01*
X132790479Y-69293600D01*
X132794074Y-69257094D01*
X132802931Y-69227897D01*
X132817312Y-69200992D01*
X132836671Y-69177402D01*
X132860261Y-69158043D01*
X132887166Y-69143662D01*
X132916363Y-69134805D01*
X132952869Y-69131210D01*
X133578089Y-69131210D01*
X133614595Y-69134805D01*
X133614595Y-69134805D01*
G37*
G36*
X129550595Y-69109305D02*
X129579792Y-69118162D01*
X129606697Y-69132543D01*
X129630287Y-69151902D01*
X129649646Y-69175492D01*
X129664027Y-69202397D01*
X129672884Y-69231594D01*
X129676479Y-69268100D01*
X129676479Y-69818320D01*
X129672884Y-69854826D01*
X129664027Y-69884023D01*
X129649646Y-69910928D01*
X129630287Y-69934518D01*
X129606697Y-69953877D01*
X129579792Y-69968258D01*
X129550595Y-69977115D01*
X129514089Y-69980710D01*
X128888869Y-69980710D01*
X128852363Y-69977115D01*
X128823166Y-69968258D01*
X128796261Y-69953877D01*
X128772671Y-69934518D01*
X128753312Y-69910928D01*
X128738931Y-69884023D01*
X128730074Y-69854826D01*
X128726479Y-69818320D01*
X128726479Y-69268100D01*
X128730074Y-69231594D01*
X128738931Y-69202397D01*
X128753312Y-69175492D01*
X128772671Y-69151902D01*
X128796261Y-69132543D01*
X128823166Y-69118162D01*
X128852363Y-69109305D01*
X128888869Y-69105710D01*
X129514089Y-69105710D01*
X129550595Y-69109305D01*
X129550595Y-69109305D01*
G37*
G36*
X106853000Y-69261000D02*
X105303000Y-69261000D01*
X105303000Y-68661000D01*
X106853000Y-68661000D01*
X106853000Y-69261000D01*
X106853000Y-69261000D01*
G37*
G36*
X101453000Y-69261000D02*
X99903000Y-69261000D01*
X99903000Y-68661000D01*
X101453000Y-68661000D01*
X101453000Y-69261000D01*
X101453000Y-69261000D01*
G37*
G36*
X101453000Y-67991000D02*
X99903000Y-67991000D01*
X99903000Y-67391000D01*
X101453000Y-67391000D01*
X101453000Y-67991000D01*
X101453000Y-67991000D01*
G37*
G36*
X106853000Y-67991000D02*
X105303000Y-67991000D01*
X105303000Y-67391000D01*
X106853000Y-67391000D01*
X106853000Y-67991000D01*
X106853000Y-67991000D01*
G37*
G36*
X137763116Y-66901595D02*
X137792313Y-66910452D01*
X137819218Y-66924833D01*
X137842808Y-66944192D01*
X137862167Y-66967782D01*
X137876548Y-66994687D01*
X137885405Y-67023884D01*
X137889000Y-67060390D01*
X137889000Y-67610610D01*
X137885405Y-67647116D01*
X137876548Y-67676313D01*
X137862167Y-67703218D01*
X137842808Y-67726808D01*
X137819218Y-67746167D01*
X137792313Y-67760548D01*
X137763116Y-67769405D01*
X137726610Y-67773000D01*
X137101390Y-67773000D01*
X137064884Y-67769405D01*
X137035687Y-67760548D01*
X137008782Y-67746167D01*
X136985192Y-67726808D01*
X136965833Y-67703218D01*
X136951452Y-67676313D01*
X136942595Y-67647116D01*
X136939000Y-67610610D01*
X136939000Y-67060390D01*
X136942595Y-67023884D01*
X136951452Y-66994687D01*
X136965833Y-66967782D01*
X136985192Y-66944192D01*
X137008782Y-66924833D01*
X137035687Y-66910452D01*
X137064884Y-66901595D01*
X137101390Y-66898000D01*
X137726610Y-66898000D01*
X137763116Y-66901595D01*
X137763116Y-66901595D01*
G37*
G36*
X141331000Y-66975000D02*
X139781000Y-66975000D01*
X139781000Y-66375000D01*
X141331000Y-66375000D01*
X141331000Y-66975000D01*
X141331000Y-66975000D01*
G37*
G36*
X146731000Y-66975000D02*
X145181000Y-66975000D01*
X145181000Y-66375000D01*
X146731000Y-66375000D01*
X146731000Y-66975000D01*
X146731000Y-66975000D01*
G37*
G36*
X101453000Y-66721000D02*
X99903000Y-66721000D01*
X99903000Y-66121000D01*
X101453000Y-66121000D01*
X101453000Y-66721000D01*
X101453000Y-66721000D01*
G37*
G36*
X106853000Y-66721000D02*
X105303000Y-66721000D01*
X105303000Y-66121000D01*
X106853000Y-66121000D01*
X106853000Y-66721000D01*
X106853000Y-66721000D01*
G37*
G36*
X137763116Y-65326595D02*
X137792313Y-65335452D01*
X137819218Y-65349833D01*
X137842808Y-65369192D01*
X137862167Y-65392782D01*
X137876548Y-65419687D01*
X137885405Y-65448884D01*
X137889000Y-65485390D01*
X137889000Y-66035610D01*
X137885405Y-66072116D01*
X137876548Y-66101313D01*
X137862167Y-66128218D01*
X137842808Y-66151808D01*
X137819218Y-66171167D01*
X137792313Y-66185548D01*
X137763116Y-66194405D01*
X137726610Y-66198000D01*
X137101390Y-66198000D01*
X137064884Y-66194405D01*
X137035687Y-66185548D01*
X137008782Y-66171167D01*
X136985192Y-66151808D01*
X136965833Y-66128218D01*
X136951452Y-66101313D01*
X136942595Y-66072116D01*
X136939000Y-66035610D01*
X136939000Y-65485390D01*
X136942595Y-65448884D01*
X136951452Y-65419687D01*
X136965833Y-65392782D01*
X136985192Y-65369192D01*
X137008782Y-65349833D01*
X137035687Y-65335452D01*
X137064884Y-65326595D01*
X137101390Y-65323000D01*
X137726610Y-65323000D01*
X137763116Y-65326595D01*
X137763116Y-65326595D01*
G37*
G36*
X87471116Y-64920595D02*
X87500313Y-64929452D01*
X87527218Y-64943833D01*
X87550808Y-64963192D01*
X87570167Y-64986782D01*
X87584548Y-65013687D01*
X87593405Y-65042884D01*
X87597000Y-65079390D01*
X87597000Y-65629610D01*
X87593405Y-65666116D01*
X87584548Y-65695313D01*
X87570167Y-65722218D01*
X87550808Y-65745808D01*
X87527218Y-65765167D01*
X87500313Y-65779548D01*
X87471116Y-65788405D01*
X87434610Y-65792000D01*
X86809390Y-65792000D01*
X86772884Y-65788405D01*
X86743687Y-65779548D01*
X86716782Y-65765167D01*
X86693192Y-65745808D01*
X86673833Y-65722218D01*
X86659452Y-65695313D01*
X86650595Y-65666116D01*
X86647000Y-65629610D01*
X86647000Y-65079390D01*
X86650595Y-65042884D01*
X86659452Y-65013687D01*
X86673833Y-64986782D01*
X86693192Y-64963192D01*
X86716782Y-64943833D01*
X86743687Y-64929452D01*
X86772884Y-64920595D01*
X86809390Y-64917000D01*
X87434610Y-64917000D01*
X87471116Y-64920595D01*
X87471116Y-64920595D01*
G37*
G36*
X141331000Y-65705000D02*
X139781000Y-65705000D01*
X139781000Y-65105000D01*
X141331000Y-65105000D01*
X141331000Y-65705000D01*
X141331000Y-65705000D01*
G37*
G36*
X146731000Y-65705000D02*
X145181000Y-65705000D01*
X145181000Y-65105000D01*
X146731000Y-65105000D01*
X146731000Y-65705000D01*
X146731000Y-65705000D01*
G37*
G36*
X93313116Y-64666595D02*
X93342313Y-64675452D01*
X93369218Y-64689833D01*
X93392808Y-64709192D01*
X93412167Y-64732782D01*
X93426548Y-64759687D01*
X93435405Y-64788884D01*
X93439000Y-64825390D01*
X93439000Y-65375610D01*
X93435405Y-65412116D01*
X93426548Y-65441313D01*
X93412167Y-65468218D01*
X93392808Y-65491808D01*
X93369218Y-65511167D01*
X93342313Y-65525548D01*
X93313116Y-65534405D01*
X93276610Y-65538000D01*
X92651390Y-65538000D01*
X92614884Y-65534405D01*
X92585687Y-65525548D01*
X92558782Y-65511167D01*
X92535192Y-65491808D01*
X92515833Y-65468218D01*
X92501452Y-65441313D01*
X92492595Y-65412116D01*
X92489000Y-65375610D01*
X92489000Y-64825390D01*
X92492595Y-64788884D01*
X92501452Y-64759687D01*
X92515833Y-64732782D01*
X92535192Y-64709192D01*
X92558782Y-64689833D01*
X92585687Y-64675452D01*
X92614884Y-64666595D01*
X92651390Y-64663000D01*
X93276610Y-64663000D01*
X93313116Y-64666595D01*
X93313116Y-64666595D01*
G37*
G36*
X114800000Y-65016000D02*
X113800000Y-65016000D01*
X113800000Y-64016000D01*
X114800000Y-64016000D01*
X114800000Y-65016000D01*
X114800000Y-65016000D01*
G37*
G36*
X141331000Y-64435000D02*
X139781000Y-64435000D01*
X139781000Y-63835000D01*
X141331000Y-63835000D01*
X141331000Y-64435000D01*
X141331000Y-64435000D01*
G37*
G36*
X146731000Y-64435000D02*
X145181000Y-64435000D01*
X145181000Y-63835000D01*
X146731000Y-63835000D01*
X146731000Y-64435000D01*
X146731000Y-64435000D01*
G37*
G36*
X87471116Y-63345595D02*
X87500313Y-63354452D01*
X87527218Y-63368833D01*
X87550808Y-63388192D01*
X87570167Y-63411782D01*
X87584548Y-63438687D01*
X87593405Y-63467884D01*
X87597000Y-63504390D01*
X87597000Y-64054610D01*
X87593405Y-64091116D01*
X87584548Y-64120313D01*
X87570167Y-64147218D01*
X87550808Y-64170808D01*
X87527218Y-64190167D01*
X87500313Y-64204548D01*
X87471116Y-64213405D01*
X87434610Y-64217000D01*
X86809390Y-64217000D01*
X86772884Y-64213405D01*
X86743687Y-64204548D01*
X86716782Y-64190167D01*
X86693192Y-64170808D01*
X86673833Y-64147218D01*
X86659452Y-64120313D01*
X86650595Y-64091116D01*
X86647000Y-64054610D01*
X86647000Y-63504390D01*
X86650595Y-63467884D01*
X86659452Y-63438687D01*
X86673833Y-63411782D01*
X86693192Y-63388192D01*
X86716782Y-63368833D01*
X86743687Y-63354452D01*
X86772884Y-63345595D01*
X86809390Y-63342000D01*
X87434610Y-63342000D01*
X87471116Y-63345595D01*
X87471116Y-63345595D01*
G37*
G36*
X117189116Y-63345595D02*
X117218313Y-63354452D01*
X117245218Y-63368833D01*
X117268808Y-63388192D01*
X117288167Y-63411782D01*
X117302548Y-63438687D01*
X117311405Y-63467884D01*
X117315000Y-63504390D01*
X117315000Y-64054610D01*
X117311405Y-64091116D01*
X117302548Y-64120313D01*
X117288167Y-64147218D01*
X117268808Y-64170808D01*
X117245218Y-64190167D01*
X117218313Y-64204548D01*
X117189116Y-64213405D01*
X117152610Y-64217000D01*
X116527390Y-64217000D01*
X116490884Y-64213405D01*
X116461687Y-64204548D01*
X116434782Y-64190167D01*
X116411192Y-64170808D01*
X116391833Y-64147218D01*
X116377452Y-64120313D01*
X116368595Y-64091116D01*
X116365000Y-64054610D01*
X116365000Y-63504390D01*
X116368595Y-63467884D01*
X116377452Y-63438687D01*
X116391833Y-63411782D01*
X116411192Y-63388192D01*
X116434782Y-63368833D01*
X116461687Y-63354452D01*
X116490884Y-63345595D01*
X116527390Y-63342000D01*
X117152610Y-63342000D01*
X117189116Y-63345595D01*
X117189116Y-63345595D01*
G37*
G36*
X129369116Y-63028595D02*
X129398313Y-63037452D01*
X129425218Y-63051833D01*
X129448808Y-63071192D01*
X129468167Y-63094782D01*
X129482548Y-63121687D01*
X129491405Y-63150884D01*
X129495000Y-63187390D01*
X129495000Y-63812610D01*
X129491405Y-63849116D01*
X129482548Y-63878313D01*
X129468167Y-63905218D01*
X129448808Y-63928808D01*
X129425218Y-63948167D01*
X129398313Y-63962548D01*
X129369116Y-63971405D01*
X129332610Y-63975000D01*
X128782390Y-63975000D01*
X128745884Y-63971405D01*
X128716687Y-63962548D01*
X128689782Y-63948167D01*
X128666192Y-63928808D01*
X128646833Y-63905218D01*
X128632452Y-63878313D01*
X128623595Y-63849116D01*
X128620000Y-63812610D01*
X128620000Y-63187390D01*
X128623595Y-63150884D01*
X128632452Y-63121687D01*
X128646833Y-63094782D01*
X128666192Y-63071192D01*
X128689782Y-63051833D01*
X128716687Y-63037452D01*
X128745884Y-63028595D01*
X128782390Y-63025000D01*
X129332610Y-63025000D01*
X129369116Y-63028595D01*
X129369116Y-63028595D01*
G37*
G36*
X127794116Y-63028595D02*
X127823313Y-63037452D01*
X127850218Y-63051833D01*
X127873808Y-63071192D01*
X127893167Y-63094782D01*
X127907548Y-63121687D01*
X127916405Y-63150884D01*
X127920000Y-63187390D01*
X127920000Y-63812610D01*
X127916405Y-63849116D01*
X127907548Y-63878313D01*
X127893167Y-63905218D01*
X127873808Y-63928808D01*
X127850218Y-63948167D01*
X127823313Y-63962548D01*
X127794116Y-63971405D01*
X127757610Y-63975000D01*
X127207390Y-63975000D01*
X127170884Y-63971405D01*
X127141687Y-63962548D01*
X127114782Y-63948167D01*
X127091192Y-63928808D01*
X127071833Y-63905218D01*
X127057452Y-63878313D01*
X127048595Y-63849116D01*
X127045000Y-63812610D01*
X127045000Y-63187390D01*
X127048595Y-63150884D01*
X127057452Y-63121687D01*
X127071833Y-63094782D01*
X127091192Y-63071192D01*
X127114782Y-63051833D01*
X127141687Y-63037452D01*
X127170884Y-63028595D01*
X127207390Y-63025000D01*
X127757610Y-63025000D01*
X127794116Y-63028595D01*
X127794116Y-63028595D01*
G37*
G36*
X93313116Y-63091595D02*
X93342313Y-63100452D01*
X93369218Y-63114833D01*
X93392808Y-63134192D01*
X93412167Y-63157782D01*
X93426548Y-63184687D01*
X93435405Y-63213884D01*
X93439000Y-63250390D01*
X93439000Y-63800610D01*
X93435405Y-63837116D01*
X93426548Y-63866313D01*
X93412167Y-63893218D01*
X93392808Y-63916808D01*
X93369218Y-63936167D01*
X93342313Y-63950548D01*
X93313116Y-63959405D01*
X93276610Y-63963000D01*
X92651390Y-63963000D01*
X92614884Y-63959405D01*
X92585687Y-63950548D01*
X92558782Y-63936167D01*
X92535192Y-63916808D01*
X92515833Y-63893218D01*
X92501452Y-63866313D01*
X92492595Y-63837116D01*
X92489000Y-63800610D01*
X92489000Y-63250390D01*
X92492595Y-63213884D01*
X92501452Y-63184687D01*
X92515833Y-63157782D01*
X92535192Y-63134192D01*
X92558782Y-63114833D01*
X92585687Y-63100452D01*
X92614884Y-63091595D01*
X92651390Y-63088000D01*
X93276610Y-63088000D01*
X93313116Y-63091595D01*
X93313116Y-63091595D01*
G37*
G36*
X111093116Y-62583595D02*
X111122313Y-62592452D01*
X111149218Y-62606833D01*
X111172808Y-62626192D01*
X111192167Y-62649782D01*
X111206548Y-62676687D01*
X111215405Y-62705884D01*
X111219000Y-62742390D01*
X111219000Y-63292610D01*
X111215405Y-63329116D01*
X111206548Y-63358313D01*
X111192167Y-63385218D01*
X111172808Y-63408808D01*
X111149218Y-63428167D01*
X111122313Y-63442548D01*
X111093116Y-63451405D01*
X111056610Y-63455000D01*
X110431390Y-63455000D01*
X110394884Y-63451405D01*
X110365687Y-63442548D01*
X110338782Y-63428167D01*
X110315192Y-63408808D01*
X110295833Y-63385218D01*
X110281452Y-63358313D01*
X110272595Y-63329116D01*
X110269000Y-63292610D01*
X110269000Y-62742390D01*
X110272595Y-62705884D01*
X110281452Y-62676687D01*
X110295833Y-62649782D01*
X110315192Y-62626192D01*
X110338782Y-62606833D01*
X110365687Y-62592452D01*
X110394884Y-62583595D01*
X110431390Y-62580000D01*
X111056610Y-62580000D01*
X111093116Y-62583595D01*
X111093116Y-62583595D01*
G37*
G36*
X146731000Y-63165000D02*
X145181000Y-63165000D01*
X145181000Y-62565000D01*
X146731000Y-62565000D01*
X146731000Y-63165000D01*
X146731000Y-63165000D01*
G37*
G36*
X141331000Y-63165000D02*
X139781000Y-63165000D01*
X139781000Y-62565000D01*
X141331000Y-62565000D01*
X141331000Y-63165000D01*
X141331000Y-63165000D01*
G37*
G36*
X102711116Y-62228595D02*
X102740313Y-62237452D01*
X102767218Y-62251833D01*
X102790808Y-62271192D01*
X102810167Y-62294782D01*
X102824548Y-62321687D01*
X102833405Y-62350884D01*
X102837000Y-62387390D01*
X102837000Y-62937610D01*
X102833405Y-62974116D01*
X102824548Y-63003313D01*
X102810167Y-63030218D01*
X102790808Y-63053808D01*
X102767218Y-63073167D01*
X102740313Y-63087548D01*
X102711116Y-63096405D01*
X102674610Y-63100000D01*
X102049390Y-63100000D01*
X102012884Y-63096405D01*
X101983687Y-63087548D01*
X101956782Y-63073167D01*
X101933192Y-63053808D01*
X101913833Y-63030218D01*
X101899452Y-63003313D01*
X101890595Y-62974116D01*
X101887000Y-62937610D01*
X101887000Y-62387390D01*
X101890595Y-62350884D01*
X101899452Y-62321687D01*
X101913833Y-62294782D01*
X101933192Y-62271192D01*
X101956782Y-62251833D01*
X101983687Y-62237452D01*
X102012884Y-62228595D01*
X102049390Y-62225000D01*
X102674610Y-62225000D01*
X102711116Y-62228595D01*
X102711116Y-62228595D01*
G37*
G36*
X98901116Y-62126595D02*
X98930313Y-62135452D01*
X98957218Y-62149833D01*
X98980808Y-62169192D01*
X99000167Y-62192782D01*
X99014548Y-62219687D01*
X99023405Y-62248884D01*
X99027000Y-62285390D01*
X99027000Y-62835610D01*
X99023405Y-62872116D01*
X99014548Y-62901313D01*
X99000167Y-62928218D01*
X98980808Y-62951808D01*
X98957218Y-62971167D01*
X98930313Y-62985548D01*
X98901116Y-62994405D01*
X98864610Y-62998000D01*
X98239390Y-62998000D01*
X98202884Y-62994405D01*
X98173687Y-62985548D01*
X98146782Y-62971167D01*
X98123192Y-62951808D01*
X98103833Y-62928218D01*
X98089452Y-62901313D01*
X98080595Y-62872116D01*
X98077000Y-62835610D01*
X98077000Y-62285390D01*
X98080595Y-62248884D01*
X98089452Y-62219687D01*
X98103833Y-62192782D01*
X98123192Y-62169192D01*
X98146782Y-62149833D01*
X98173687Y-62135452D01*
X98202884Y-62126595D01*
X98239390Y-62123000D01*
X98864610Y-62123000D01*
X98901116Y-62126595D01*
X98901116Y-62126595D01*
G37*
G36*
X105251116Y-62075595D02*
X105280313Y-62084452D01*
X105307218Y-62098833D01*
X105330808Y-62118192D01*
X105350167Y-62141782D01*
X105364548Y-62168687D01*
X105373405Y-62197884D01*
X105377000Y-62234390D01*
X105377000Y-62784610D01*
X105373405Y-62821116D01*
X105364548Y-62850313D01*
X105350167Y-62877218D01*
X105330808Y-62900808D01*
X105307218Y-62920167D01*
X105280313Y-62934548D01*
X105251116Y-62943405D01*
X105214610Y-62947000D01*
X104589390Y-62947000D01*
X104552884Y-62943405D01*
X104523687Y-62934548D01*
X104496782Y-62920167D01*
X104473192Y-62900808D01*
X104453833Y-62877218D01*
X104439452Y-62850313D01*
X104430595Y-62821116D01*
X104427000Y-62784610D01*
X104427000Y-62234390D01*
X104430595Y-62197884D01*
X104439452Y-62168687D01*
X104453833Y-62141782D01*
X104473192Y-62118192D01*
X104496782Y-62098833D01*
X104523687Y-62084452D01*
X104552884Y-62075595D01*
X104589390Y-62072000D01*
X105214610Y-62072000D01*
X105251116Y-62075595D01*
X105251116Y-62075595D01*
G37*
G36*
X138017116Y-62075595D02*
X138046313Y-62084452D01*
X138073218Y-62098833D01*
X138096808Y-62118192D01*
X138116167Y-62141782D01*
X138130548Y-62168687D01*
X138139405Y-62197884D01*
X138143000Y-62234390D01*
X138143000Y-62784610D01*
X138139405Y-62821116D01*
X138130548Y-62850313D01*
X138116167Y-62877218D01*
X138096808Y-62900808D01*
X138073218Y-62920167D01*
X138046313Y-62934548D01*
X138017116Y-62943405D01*
X137980610Y-62947000D01*
X137355390Y-62947000D01*
X137318884Y-62943405D01*
X137289687Y-62934548D01*
X137262782Y-62920167D01*
X137239192Y-62900808D01*
X137219833Y-62877218D01*
X137205452Y-62850313D01*
X137196595Y-62821116D01*
X137193000Y-62784610D01*
X137193000Y-62234390D01*
X137196595Y-62197884D01*
X137205452Y-62168687D01*
X137219833Y-62141782D01*
X137239192Y-62118192D01*
X137262782Y-62098833D01*
X137289687Y-62084452D01*
X137318884Y-62075595D01*
X137355390Y-62072000D01*
X137980610Y-62072000D01*
X138017116Y-62075595D01*
X138017116Y-62075595D01*
G37*
G36*
X117189116Y-61770595D02*
X117218313Y-61779452D01*
X117245218Y-61793833D01*
X117268808Y-61813192D01*
X117288167Y-61836782D01*
X117302548Y-61863687D01*
X117311405Y-61892884D01*
X117315000Y-61929390D01*
X117315000Y-62479610D01*
X117311405Y-62516116D01*
X117302548Y-62545313D01*
X117288167Y-62572218D01*
X117268808Y-62595808D01*
X117245218Y-62615167D01*
X117218313Y-62629548D01*
X117189116Y-62638405D01*
X117152610Y-62642000D01*
X116527390Y-62642000D01*
X116490884Y-62638405D01*
X116461687Y-62629548D01*
X116434782Y-62615167D01*
X116411192Y-62595808D01*
X116391833Y-62572218D01*
X116377452Y-62545313D01*
X116368595Y-62516116D01*
X116365000Y-62479610D01*
X116365000Y-61929390D01*
X116368595Y-61892884D01*
X116377452Y-61863687D01*
X116391833Y-61836782D01*
X116411192Y-61813192D01*
X116434782Y-61793833D01*
X116461687Y-61779452D01*
X116490884Y-61770595D01*
X116527390Y-61767000D01*
X117152610Y-61767000D01*
X117189116Y-61770595D01*
X117189116Y-61770595D01*
G37*
G36*
X111093116Y-61008595D02*
X111122313Y-61017452D01*
X111149218Y-61031833D01*
X111172808Y-61051192D01*
X111192167Y-61074782D01*
X111206548Y-61101687D01*
X111215405Y-61130884D01*
X111219000Y-61167390D01*
X111219000Y-61717610D01*
X111215405Y-61754116D01*
X111206548Y-61783313D01*
X111192167Y-61810218D01*
X111172808Y-61833808D01*
X111149218Y-61853167D01*
X111122313Y-61867548D01*
X111093116Y-61876405D01*
X111056610Y-61880000D01*
X110431390Y-61880000D01*
X110394884Y-61876405D01*
X110365687Y-61867548D01*
X110338782Y-61853167D01*
X110315192Y-61833808D01*
X110295833Y-61810218D01*
X110281452Y-61783313D01*
X110272595Y-61754116D01*
X110269000Y-61717610D01*
X110269000Y-61167390D01*
X110272595Y-61130884D01*
X110281452Y-61101687D01*
X110295833Y-61074782D01*
X110315192Y-61051192D01*
X110338782Y-61031833D01*
X110365687Y-61017452D01*
X110394884Y-61008595D01*
X110431390Y-61005000D01*
X111056610Y-61005000D01*
X111093116Y-61008595D01*
X111093116Y-61008595D01*
G37*
G36*
X102711116Y-60653595D02*
X102740313Y-60662452D01*
X102767218Y-60676833D01*
X102790808Y-60696192D01*
X102810167Y-60719782D01*
X102824548Y-60746687D01*
X102833405Y-60775884D01*
X102837000Y-60812390D01*
X102837000Y-61362610D01*
X102833405Y-61399116D01*
X102824548Y-61428313D01*
X102810167Y-61455218D01*
X102790808Y-61478808D01*
X102767218Y-61498167D01*
X102740313Y-61512548D01*
X102711116Y-61521405D01*
X102674610Y-61525000D01*
X102049390Y-61525000D01*
X102012884Y-61521405D01*
X101983687Y-61512548D01*
X101956782Y-61498167D01*
X101933192Y-61478808D01*
X101913833Y-61455218D01*
X101899452Y-61428313D01*
X101890595Y-61399116D01*
X101887000Y-61362610D01*
X101887000Y-60812390D01*
X101890595Y-60775884D01*
X101899452Y-60746687D01*
X101913833Y-60719782D01*
X101933192Y-60696192D01*
X101956782Y-60676833D01*
X101983687Y-60662452D01*
X102012884Y-60653595D01*
X102049390Y-60650000D01*
X102674610Y-60650000D01*
X102711116Y-60653595D01*
X102711116Y-60653595D01*
G37*
G36*
X98901116Y-60551595D02*
X98930313Y-60560452D01*
X98957218Y-60574833D01*
X98980808Y-60594192D01*
X99000167Y-60617782D01*
X99014548Y-60644687D01*
X99023405Y-60673884D01*
X99027000Y-60710390D01*
X99027000Y-61260610D01*
X99023405Y-61297116D01*
X99014548Y-61326313D01*
X99000167Y-61353218D01*
X98980808Y-61376808D01*
X98957218Y-61396167D01*
X98930313Y-61410548D01*
X98901116Y-61419405D01*
X98864610Y-61423000D01*
X98239390Y-61423000D01*
X98202884Y-61419405D01*
X98173687Y-61410548D01*
X98146782Y-61396167D01*
X98123192Y-61376808D01*
X98103833Y-61353218D01*
X98089452Y-61326313D01*
X98080595Y-61297116D01*
X98077000Y-61260610D01*
X98077000Y-60710390D01*
X98080595Y-60673884D01*
X98089452Y-60644687D01*
X98103833Y-60617782D01*
X98123192Y-60594192D01*
X98146782Y-60574833D01*
X98173687Y-60560452D01*
X98202884Y-60551595D01*
X98239390Y-60548000D01*
X98864610Y-60548000D01*
X98901116Y-60551595D01*
X98901116Y-60551595D01*
G37*
G36*
X105251116Y-60500595D02*
X105280313Y-60509452D01*
X105307218Y-60523833D01*
X105330808Y-60543192D01*
X105350167Y-60566782D01*
X105364548Y-60593687D01*
X105373405Y-60622884D01*
X105377000Y-60659390D01*
X105377000Y-61209610D01*
X105373405Y-61246116D01*
X105364548Y-61275313D01*
X105350167Y-61302218D01*
X105330808Y-61325808D01*
X105307218Y-61345167D01*
X105280313Y-61359548D01*
X105251116Y-61368405D01*
X105214610Y-61372000D01*
X104589390Y-61372000D01*
X104552884Y-61368405D01*
X104523687Y-61359548D01*
X104496782Y-61345167D01*
X104473192Y-61325808D01*
X104453833Y-61302218D01*
X104439452Y-61275313D01*
X104430595Y-61246116D01*
X104427000Y-61209610D01*
X104427000Y-60659390D01*
X104430595Y-60622884D01*
X104439452Y-60593687D01*
X104453833Y-60566782D01*
X104473192Y-60543192D01*
X104496782Y-60523833D01*
X104523687Y-60509452D01*
X104552884Y-60500595D01*
X104589390Y-60497000D01*
X105214610Y-60497000D01*
X105251116Y-60500595D01*
X105251116Y-60500595D01*
G37*
G36*
X138017116Y-60500595D02*
X138046313Y-60509452D01*
X138073218Y-60523833D01*
X138096808Y-60543192D01*
X138116167Y-60566782D01*
X138130548Y-60593687D01*
X138139405Y-60622884D01*
X138143000Y-60659390D01*
X138143000Y-61209610D01*
X138139405Y-61246116D01*
X138130548Y-61275313D01*
X138116167Y-61302218D01*
X138096808Y-61325808D01*
X138073218Y-61345167D01*
X138046313Y-61359548D01*
X138017116Y-61368405D01*
X137980610Y-61372000D01*
X137355390Y-61372000D01*
X137318884Y-61368405D01*
X137289687Y-61359548D01*
X137262782Y-61345167D01*
X137239192Y-61325808D01*
X137219833Y-61302218D01*
X137205452Y-61275313D01*
X137196595Y-61246116D01*
X137193000Y-61209610D01*
X137193000Y-60659390D01*
X137196595Y-60622884D01*
X137205452Y-60593687D01*
X137219833Y-60566782D01*
X137239192Y-60543192D01*
X137262782Y-60523833D01*
X137289687Y-60509452D01*
X137318884Y-60500595D01*
X137355390Y-60497000D01*
X137980610Y-60497000D01*
X138017116Y-60500595D01*
X138017116Y-60500595D01*
G37*
G36*
X135731116Y-60297595D02*
X135760313Y-60306452D01*
X135787218Y-60320833D01*
X135810808Y-60340192D01*
X135830167Y-60363782D01*
X135844548Y-60390687D01*
X135853405Y-60419884D01*
X135857000Y-60456390D01*
X135857000Y-61006610D01*
X135853405Y-61043116D01*
X135844548Y-61072313D01*
X135830167Y-61099218D01*
X135810808Y-61122808D01*
X135787218Y-61142167D01*
X135760313Y-61156548D01*
X135731116Y-61165405D01*
X135694610Y-61169000D01*
X135069390Y-61169000D01*
X135032884Y-61165405D01*
X135003687Y-61156548D01*
X134976782Y-61142167D01*
X134953192Y-61122808D01*
X134933833Y-61099218D01*
X134919452Y-61072313D01*
X134910595Y-61043116D01*
X134907000Y-61006610D01*
X134907000Y-60456390D01*
X134910595Y-60419884D01*
X134919452Y-60390687D01*
X134933833Y-60363782D01*
X134953192Y-60340192D01*
X134976782Y-60320833D01*
X135003687Y-60306452D01*
X135032884Y-60297595D01*
X135069390Y-60294000D01*
X135694610Y-60294000D01*
X135731116Y-60297595D01*
X135731116Y-60297595D01*
G37*
G36*
X135731116Y-58722595D02*
X135760313Y-58731452D01*
X135787218Y-58745833D01*
X135810808Y-58765192D01*
X135830167Y-58788782D01*
X135844548Y-58815687D01*
X135853405Y-58844884D01*
X135857000Y-58881390D01*
X135857000Y-59431610D01*
X135853405Y-59468116D01*
X135844548Y-59497313D01*
X135830167Y-59524218D01*
X135810808Y-59547808D01*
X135787218Y-59567167D01*
X135760313Y-59581548D01*
X135731116Y-59590405D01*
X135694610Y-59594000D01*
X135069390Y-59594000D01*
X135032884Y-59590405D01*
X135003687Y-59581548D01*
X134976782Y-59567167D01*
X134953192Y-59547808D01*
X134933833Y-59524218D01*
X134919452Y-59497313D01*
X134910595Y-59468116D01*
X134907000Y-59431610D01*
X134907000Y-58881390D01*
X134910595Y-58844884D01*
X134919452Y-58815687D01*
X134933833Y-58788782D01*
X134953192Y-58765192D01*
X134976782Y-58745833D01*
X135003687Y-58731452D01*
X135032884Y-58722595D01*
X135069390Y-58719000D01*
X135694610Y-58719000D01*
X135731116Y-58722595D01*
X135731116Y-58722595D01*
G37*
M02*
