G04 #@! TF.GenerationSoftware,KiCad,Pcbnew,(5.0.2)-1*
G04 #@! TF.CreationDate,2019-02-02T14:32:07-06:00*
G04 #@! TF.ProjectId,Motor test module,4d6f746f-7220-4746-9573-74206d6f6475,rev?*
G04 #@! TF.SameCoordinates,Original*
G04 #@! TF.FileFunction,Profile,NP*
%FSLAX46Y46*%
G04 Gerber Fmt 4.6, Leading zero omitted, Abs format (unit mm)*
G04 Created by KiCad (PCBNEW (5.0.2)-1) date 2/2/2019 2:32:07 PM*
%MOMM*%
%LPD*%
G01*
G04 APERTURE LIST*
%ADD10C,0.200000*%
G04 APERTURE END LIST*
D10*
X179319950Y-131172700D02*
G75*
G03X179319950Y-131172700I-1143000J0D01*
G01*
X185212900Y-138628000D02*
X185213700Y-138627800D01*
X185213700Y-138627800D02*
X185214500Y-138627500D01*
X185212100Y-138628300D02*
X185212900Y-138628000D01*
X185208200Y-138629500D02*
X185209000Y-138629300D01*
X185210600Y-138628800D02*
X185211300Y-138628600D01*
X185207400Y-138629800D02*
X185208200Y-138629500D01*
X185209000Y-138629300D02*
X185209800Y-138629100D01*
X185209800Y-138629100D02*
X185210600Y-138628800D01*
X185211300Y-138628600D02*
X185212100Y-138628300D01*
X185206600Y-138630000D02*
X185207400Y-138629800D01*
X185214500Y-138627500D02*
X185215300Y-138627200D01*
X185241800Y-138612200D02*
X185242500Y-138611700D01*
X185239900Y-138613700D02*
X185240500Y-138613200D01*
X185234400Y-138617500D02*
X185235100Y-138617100D01*
X185233000Y-138618400D02*
X185233700Y-138618000D01*
X185239200Y-138614200D02*
X185239900Y-138613700D01*
X185241200Y-138612700D02*
X185241800Y-138612200D01*
X185243800Y-138610700D02*
X185244400Y-138610100D01*
X185240500Y-138613200D02*
X185241200Y-138612700D01*
X185235800Y-138616600D02*
X185236500Y-138616100D01*
X185233700Y-138618000D02*
X185234400Y-138617500D01*
X185243100Y-138611200D02*
X185243800Y-138610700D01*
X185237900Y-138615200D02*
X185238500Y-138614700D01*
X185235100Y-138617100D02*
X185235800Y-138616600D01*
X185237200Y-138615700D02*
X185237900Y-138615200D01*
X185236500Y-138616100D02*
X185237200Y-138615700D01*
X185242500Y-138611700D02*
X185243100Y-138611200D01*
X185232300Y-138618800D02*
X185233000Y-138618400D01*
X185231600Y-138619300D02*
X185232300Y-138618800D01*
X185245000Y-138609600D02*
X185245700Y-138609100D01*
X185246300Y-138608500D02*
X185246900Y-138608000D01*
X185238500Y-138614700D02*
X185239200Y-138614200D01*
X185245700Y-138609100D02*
X185246300Y-138608500D01*
X185244400Y-138610100D02*
X185245000Y-138609600D01*
X89689700Y-138633188D02*
G75*
G02X98485212Y-147428700I0J-8795512D01*
G01*
X83858644Y-138633188D02*
X89689700Y-138633188D01*
X113883200Y-154127188D02*
G75*
G02X99325088Y-153563435I0J188252925D01*
G01*
X89689700Y-66562212D02*
X83858644Y-66562212D01*
X169716312Y-153563435D02*
G75*
G02X155158200Y-154127188I-14558112J187689172D01*
G01*
X98485212Y-147428700D02*
X98485212Y-153259756D01*
X82991212Y-81960200D02*
X82991212Y-123235200D01*
X82991212Y-81960200D02*
G75*
G02X83554965Y-67402088I188252926J0D01*
G01*
X83554965Y-137793312D02*
G75*
G02X82991212Y-123235200I187689173J14558112D01*
G01*
X170556188Y-153259756D02*
X170556188Y-147428700D01*
X113883200Y-154127188D02*
X155158200Y-154127188D01*
X185409600Y-138219400D02*
X185411300Y-138213200D01*
X185402200Y-138244000D02*
X185404100Y-138237900D01*
X185384700Y-138299300D02*
X185386700Y-138293100D01*
X185404100Y-138237900D02*
X185405900Y-138231700D01*
X185344900Y-138408400D02*
X185347300Y-138402400D01*
X185370000Y-138341900D02*
X185372100Y-138335800D01*
X185365600Y-138354000D02*
X185367800Y-138348000D01*
X185405900Y-138231700D02*
X185407800Y-138225500D01*
X185394600Y-138268600D02*
X185396600Y-138262500D01*
X185429600Y-138144800D02*
X185431200Y-138138600D01*
X185428100Y-138151000D02*
X185429600Y-138144800D01*
X185426500Y-138157300D02*
X185428100Y-138151000D01*
X185424900Y-138163500D02*
X185426500Y-138157300D01*
X185413100Y-138207000D02*
X185414800Y-138200800D01*
X185423200Y-138169700D02*
X185424900Y-138163500D01*
X185378500Y-138317600D02*
X185380600Y-138311500D01*
X185352000Y-138390300D02*
X185354300Y-138384300D01*
X185342500Y-138414400D02*
X185344900Y-138408400D01*
X185396600Y-138262500D02*
X185398500Y-138256300D01*
X185382600Y-138305400D02*
X185384700Y-138299300D01*
X185388700Y-138287000D02*
X185390700Y-138280900D01*
X185418300Y-138188400D02*
X185419900Y-138182200D01*
X185380600Y-138311500D02*
X185382600Y-138305400D01*
X185349700Y-138396400D02*
X185352000Y-138390300D01*
X185374300Y-138329700D02*
X185376400Y-138323700D01*
X185421600Y-138176000D02*
X185423200Y-138169700D01*
X185411300Y-138213200D02*
X185413100Y-138207000D01*
X185419900Y-138182200D02*
X185421600Y-138176000D01*
X185416600Y-138194600D02*
X185418300Y-138188400D01*
X185356600Y-138378300D02*
X185358900Y-138372200D01*
X185340100Y-138420400D02*
X185342500Y-138414400D01*
X185407800Y-138225500D02*
X185409600Y-138219400D01*
X185398500Y-138256300D02*
X185400400Y-138250200D01*
X185392700Y-138274800D02*
X185394600Y-138268600D01*
X185372100Y-138335800D02*
X185374300Y-138329700D01*
X185376400Y-138323700D02*
X185378500Y-138317600D01*
X185361100Y-138366200D02*
X185363400Y-138360100D01*
X185390700Y-138280900D02*
X185392700Y-138274800D01*
X185347300Y-138402400D02*
X185349700Y-138396400D01*
X185400400Y-138250200D02*
X185402200Y-138244000D01*
X185358900Y-138372200D02*
X185361100Y-138366200D01*
X185386700Y-138293100D02*
X185388700Y-138287000D01*
X185363400Y-138360100D02*
X185365600Y-138354000D01*
X185414800Y-138200800D02*
X185416600Y-138194600D01*
X185354300Y-138384300D02*
X185356600Y-138378300D01*
X185367800Y-138348000D02*
X185370000Y-138341900D01*
X185479000Y-137871400D02*
X185479700Y-137864900D01*
X185459300Y-138006100D02*
X185460400Y-137999800D01*
X185472500Y-137923000D02*
X185473400Y-137916600D01*
X185478200Y-137877800D02*
X185479000Y-137871400D01*
X185477500Y-137884300D02*
X185478200Y-137877800D01*
X185476700Y-137890800D02*
X185477500Y-137884300D01*
X185440100Y-138101000D02*
X185441500Y-138094700D01*
X185475900Y-137897200D02*
X185476700Y-137890800D01*
X185475100Y-137903700D02*
X185475900Y-137897200D01*
X185474200Y-137910100D02*
X185475100Y-137903700D01*
X185473400Y-137916600D02*
X185474200Y-137910100D01*
X185453400Y-138037900D02*
X185454600Y-138031500D01*
X185449600Y-138056900D02*
X185450900Y-138050500D01*
X185463700Y-137980600D02*
X185464700Y-137974300D01*
X185471600Y-137929400D02*
X185472500Y-137923000D01*
X185441500Y-138094700D02*
X185442900Y-138088400D01*
X185432700Y-138132300D02*
X185434200Y-138126000D01*
X185442900Y-138088400D02*
X185444300Y-138082100D01*
X185470700Y-137935800D02*
X185471600Y-137929400D01*
X185462600Y-137987000D02*
X185463700Y-137980600D01*
X185437200Y-138113500D02*
X185438600Y-138107200D01*
X185458100Y-138012500D02*
X185459300Y-138006100D01*
X185445600Y-138075800D02*
X185447000Y-138069500D01*
X185452100Y-138044200D02*
X185453400Y-138037900D01*
X185438600Y-138107200D02*
X185440100Y-138101000D01*
X185444300Y-138082100D02*
X185445600Y-138075800D01*
X185434200Y-138126000D02*
X185435700Y-138119800D01*
X185460400Y-137999800D02*
X185461500Y-137993400D01*
X185450900Y-138050500D02*
X185452100Y-138044200D01*
X185448300Y-138063200D02*
X185449600Y-138056900D01*
X185431200Y-138138600D02*
X185432700Y-138132300D01*
X185466800Y-137961500D02*
X185467800Y-137955100D01*
X185481100Y-137851900D02*
X185481800Y-137845400D01*
X185457000Y-138018800D02*
X185458100Y-138012500D01*
X185447000Y-138069500D02*
X185448300Y-138063200D01*
X185455800Y-138025200D02*
X185457000Y-138018800D01*
X185464700Y-137974300D02*
X185465800Y-137967900D01*
X185469700Y-137942300D02*
X185470700Y-137935800D01*
X185435700Y-138119800D02*
X185437200Y-138113500D01*
X185461500Y-137993400D02*
X185462600Y-137987000D01*
X185468800Y-137948700D02*
X185469700Y-137942300D01*
X185467800Y-137955100D02*
X185468800Y-137948700D01*
X185465800Y-137967900D02*
X185466800Y-137961500D01*
X185454600Y-138031500D02*
X185455800Y-138025200D01*
X185480400Y-137858400D02*
X185481100Y-137851900D01*
X185479700Y-137864900D02*
X185480400Y-137858400D01*
X164238700Y-58941450D02*
G75*
G03X164238700Y-58941450I-1143000J0D01*
G01*
X92007450Y-74022700D02*
G75*
G03X92007450Y-74022700I-1143000J0D01*
G01*
X185195100Y-66563100D02*
X185194300Y-66563000D01*
X107088700Y-146253950D02*
G75*
G03X107088700Y-146253950I-1143000J0D01*
G01*
X185191800Y-66562700D02*
X185191000Y-66562600D01*
X185192600Y-66562800D02*
X185191800Y-66562700D01*
X185191000Y-66562600D02*
X185190200Y-66562500D01*
X164238700Y-146253950D02*
G75*
G03X164238700Y-146253950I-1143000J0D01*
G01*
X185182756Y-66562212D02*
X183594094Y-66562212D01*
X185193400Y-66562900D02*
X185192600Y-66562800D01*
X185186100Y-66562300D02*
X185185200Y-66562200D01*
X185195900Y-66563200D02*
X185195100Y-66563100D01*
X185196700Y-66563300D02*
X185195900Y-66563200D01*
X185186900Y-66562300D02*
X185186100Y-66562300D01*
X185185200Y-66562200D02*
X185184400Y-66562200D01*
X185194300Y-66563000D02*
X185193400Y-66562900D01*
X92007450Y-131172700D02*
G75*
G03X92007450Y-131172700I-1143000J0D01*
G01*
X185190200Y-66562500D02*
X185189300Y-66562500D01*
X179319950Y-74022700D02*
G75*
G03X179319950Y-74022700I-1143000J0D01*
G01*
X107088700Y-58941450D02*
G75*
G03X107088700Y-58941450I-1143000J0D01*
G01*
X185184400Y-66562200D02*
X185183600Y-66562200D01*
X185189300Y-66562500D02*
X185188500Y-66562400D01*
X185183600Y-66562200D02*
X185182800Y-66562200D01*
X183109931Y-66735808D02*
X183594094Y-66562212D01*
X185188500Y-66562400D02*
X185187700Y-66562400D01*
X185187700Y-66562400D02*
X185186900Y-66562300D01*
X180738690Y-66562212D02*
X181222854Y-66735808D01*
X185221100Y-66570600D02*
X185220400Y-66570300D01*
X185227100Y-66573500D02*
X185226300Y-66573200D01*
X185230000Y-66575100D02*
X185229200Y-66574700D01*
X185240300Y-66582000D02*
X185239600Y-66581500D01*
X185210300Y-66566500D02*
X185209500Y-66566300D01*
X185216600Y-66568700D02*
X185215800Y-66568400D01*
X185211900Y-66567000D02*
X185211100Y-66566800D01*
X185225600Y-66572800D02*
X185224900Y-66572400D01*
X185224900Y-66572400D02*
X185224100Y-66572000D01*
X185239600Y-66581500D02*
X185239000Y-66581000D01*
X185234200Y-66577700D02*
X185233500Y-66577300D01*
X185217300Y-66569000D02*
X185216600Y-66568700D01*
X185224100Y-66572000D02*
X185223400Y-66571700D01*
X185197500Y-66563400D02*
X185196700Y-66563300D01*
X185234900Y-66578200D02*
X185234200Y-66577700D01*
X185198300Y-66563600D02*
X185197500Y-66563400D01*
X185199100Y-66563700D02*
X185198300Y-66563600D01*
X185199900Y-66563900D02*
X185199100Y-66563700D01*
X185200800Y-66564000D02*
X185199900Y-66563900D01*
X185201600Y-66564200D02*
X185200800Y-66564000D01*
X185226300Y-66573200D02*
X185225600Y-66572800D01*
X185233500Y-66577300D02*
X185232800Y-66576800D01*
X185202400Y-66564400D02*
X185201600Y-66564200D01*
X185203200Y-66564600D02*
X185202400Y-66564400D01*
X185223400Y-66571700D02*
X185222600Y-66571300D01*
X185214200Y-66567800D02*
X185213500Y-66567600D01*
X185204000Y-66564800D02*
X185203200Y-66564600D01*
X185204800Y-66564900D02*
X185204000Y-66564800D01*
X185205600Y-66565200D02*
X185204800Y-66564900D01*
X185220400Y-66570300D02*
X185219600Y-66570000D01*
X185232100Y-66576400D02*
X185231400Y-66576000D01*
X185235600Y-66578600D02*
X185234900Y-66578200D01*
X185227800Y-66573900D02*
X185227100Y-66573500D01*
X185211100Y-66566800D02*
X185210300Y-66566500D01*
X185212700Y-66567300D02*
X185211900Y-66567000D01*
X185229200Y-66574700D02*
X185228500Y-66574300D01*
X185218100Y-66569300D02*
X185217300Y-66569000D01*
X185236300Y-66579100D02*
X185235600Y-66578600D01*
X185242300Y-66583500D02*
X185241600Y-66583000D01*
X185244200Y-66585100D02*
X185243600Y-66584600D01*
X185215000Y-66568100D02*
X185214200Y-66567800D01*
X185207200Y-66565600D02*
X185206400Y-66565400D01*
X185208700Y-66566000D02*
X185208000Y-66565800D01*
X185209500Y-66566300D02*
X185208700Y-66566000D01*
X185237000Y-66579600D02*
X185236300Y-66579100D01*
X185213500Y-66567600D02*
X185212700Y-66567300D01*
X185219600Y-66570000D02*
X185218800Y-66569600D01*
X185232800Y-66576800D02*
X185232100Y-66576400D01*
X185241000Y-66582500D02*
X185240300Y-66582000D01*
X185237600Y-66580000D02*
X185237000Y-66579600D01*
X185221900Y-66571000D02*
X185221100Y-66570600D01*
X185239000Y-66581000D02*
X185238300Y-66580500D01*
X185243600Y-66584600D02*
X185242900Y-66584000D01*
X185222600Y-66571300D02*
X185221900Y-66571000D01*
X185228500Y-66574300D02*
X185227800Y-66573900D01*
X185242900Y-66584000D02*
X185242300Y-66583500D01*
X185230700Y-66575600D02*
X185230000Y-66575100D01*
X185231400Y-66576000D02*
X185230700Y-66575600D01*
X185241600Y-66583000D02*
X185241000Y-66582500D01*
X185215800Y-66568400D02*
X185215000Y-66568100D01*
X185238300Y-66580500D02*
X185237600Y-66580000D01*
X185206400Y-66565400D02*
X185205600Y-66565200D01*
X185208000Y-66565800D02*
X185207200Y-66565600D01*
X185218800Y-66569600D02*
X185218100Y-66569300D01*
X185256600Y-138597800D02*
X185257100Y-138597200D01*
X185254400Y-138600300D02*
X185255000Y-138599700D01*
X185253900Y-138601000D02*
X185254400Y-138600300D01*
X185249900Y-138605100D02*
X185250500Y-138604500D01*
X185249300Y-138605700D02*
X185249900Y-138605100D01*
X185248700Y-138606300D02*
X185249300Y-138605700D01*
X185246900Y-138608000D02*
X185247500Y-138607400D01*
X185250500Y-138604500D02*
X185251100Y-138604000D01*
X185255000Y-138599700D02*
X185255500Y-138599100D01*
X185257100Y-138597200D02*
X185257600Y-138596600D01*
X185248100Y-138606800D02*
X185248700Y-138606300D01*
X185259100Y-138594600D02*
X185259600Y-138594000D01*
X185256100Y-138598500D02*
X185256600Y-138597800D01*
X185247500Y-138607400D02*
X185248100Y-138606800D01*
X185258600Y-138595300D02*
X185259100Y-138594600D01*
X185258100Y-138595900D02*
X185258600Y-138595300D01*
X185257600Y-138596600D02*
X185258100Y-138595900D01*
X185255500Y-138599100D02*
X185256100Y-138598500D01*
X185251100Y-138604000D02*
X185251600Y-138603400D01*
X185253300Y-138601600D02*
X185253900Y-138601000D01*
X185252200Y-138602800D02*
X185252800Y-138602200D01*
X185251600Y-138603400D02*
X185252200Y-138602800D01*
X185252800Y-138602200D02*
X185253300Y-138601600D01*
X185307100Y-138498100D02*
X185309700Y-138492100D01*
X185285100Y-138545400D02*
X185287900Y-138539500D01*
X185335300Y-138432400D02*
X185337700Y-138426400D01*
X185330300Y-138444400D02*
X185332800Y-138438400D01*
X185332800Y-138438400D02*
X185335300Y-138432400D01*
X185320200Y-138468300D02*
X185322700Y-138462300D01*
X185327800Y-138450400D02*
X185330300Y-138444400D01*
X185293500Y-138527700D02*
X185296200Y-138521800D01*
X185325300Y-138456400D02*
X185327800Y-138450400D01*
X185287900Y-138539500D02*
X185290700Y-138533600D01*
X185322700Y-138462300D02*
X185325300Y-138456400D01*
X185279400Y-138557200D02*
X185282300Y-138551300D01*
X185296200Y-138521800D02*
X185299000Y-138515800D01*
X185317600Y-138474300D02*
X185320200Y-138468300D01*
X185304400Y-138504000D02*
X185307100Y-138498100D01*
X185290700Y-138533600D02*
X185293500Y-138527700D01*
X185299000Y-138515800D02*
X185301700Y-138509900D01*
X185315000Y-138480200D02*
X185317600Y-138474300D01*
X185309700Y-138492100D02*
X185312400Y-138486200D01*
X185282300Y-138551300D02*
X185285100Y-138545400D01*
X185312400Y-138486200D02*
X185315000Y-138480200D01*
X185301700Y-138509900D02*
X185304400Y-138504000D01*
X185337700Y-138426400D02*
X185340100Y-138420400D01*
X155158200Y-51068212D02*
G75*
G02X169716312Y-51631965I0J-188252926D01*
G01*
X179351700Y-66562212D02*
G75*
G02X170556188Y-57766700I0J8795512D01*
G01*
X183109931Y-66735808D02*
X181222854Y-66735808D01*
X98485212Y-57766700D02*
G75*
G02X89689700Y-66562212I-8795512J0D01*
G01*
X170556188Y-57766700D02*
X170556188Y-51935644D01*
X98485212Y-51935644D02*
X98485212Y-57766700D01*
X99325088Y-51631965D02*
G75*
G02X113883200Y-51068212I14558112J-187689173D01*
G01*
X155158200Y-51068212D02*
X113883200Y-51068212D01*
X180738690Y-66562212D02*
X179351700Y-66562212D01*
X185205000Y-138630400D02*
X185205800Y-138630200D01*
X185203400Y-138630800D02*
X185204200Y-138630600D01*
X185204200Y-138630600D02*
X185205000Y-138630400D01*
X185197700Y-138631900D02*
X185198500Y-138631800D01*
X185202600Y-138631000D02*
X185203400Y-138630800D01*
X185201700Y-138631200D02*
X185202600Y-138631000D01*
X185200100Y-138631500D02*
X185200900Y-138631300D01*
X185199300Y-138631600D02*
X185200100Y-138631500D01*
X185200900Y-138631300D02*
X185201700Y-138631200D01*
X185198500Y-138631800D02*
X185199300Y-138631600D01*
X185205800Y-138630200D02*
X185206600Y-138630000D01*
X185249700Y-66590100D02*
X185249100Y-66589500D01*
X185252100Y-66592400D02*
X185251500Y-66591800D01*
X185254300Y-66594900D02*
X185253800Y-66594300D01*
X185258500Y-66600000D02*
X185258000Y-66599300D01*
X185244800Y-66585600D02*
X185244200Y-66585100D01*
X185245500Y-66586200D02*
X185244800Y-66585600D01*
X185246100Y-66586700D02*
X185245500Y-66586200D01*
X185246700Y-66587300D02*
X185246100Y-66586700D01*
X185259000Y-66600600D02*
X185258500Y-66600000D01*
X185247300Y-66587800D02*
X185246700Y-66587300D01*
X185247900Y-66588400D02*
X185247300Y-66587800D01*
X185253200Y-66593700D02*
X185252600Y-66593000D01*
X185248500Y-66588900D02*
X185247900Y-66588400D01*
X185255400Y-66596100D02*
X185254900Y-66595500D01*
X185249100Y-66589500D02*
X185248500Y-66588900D01*
X185250300Y-66590700D02*
X185249700Y-66590100D01*
X185250900Y-66591300D02*
X185250300Y-66590700D01*
X185259500Y-66601300D02*
X185259000Y-66600600D01*
X185251500Y-66591800D02*
X185250900Y-66591300D01*
X185257500Y-66598700D02*
X185257000Y-66598000D01*
X185258000Y-66599300D02*
X185257500Y-66598700D01*
X185255900Y-66596800D02*
X185255400Y-66596100D01*
X185256500Y-66597400D02*
X185255900Y-66596800D01*
X185257000Y-66598000D02*
X185256500Y-66597400D01*
X185260000Y-66602000D02*
X185259500Y-66601300D01*
X185254900Y-66595500D02*
X185254300Y-66594900D01*
X185252600Y-66593000D02*
X185252100Y-66592400D01*
X185253800Y-66594300D02*
X185253200Y-66593700D01*
X185356600Y-66817100D02*
X185354300Y-66811100D01*
X185264200Y-66608200D02*
X185263800Y-66607500D01*
X185337700Y-66769000D02*
X185335300Y-66763000D01*
X185361100Y-66829200D02*
X185358900Y-66823200D01*
X185265100Y-66609600D02*
X185264600Y-66608900D01*
X185299000Y-66679600D02*
X185296200Y-66673600D01*
X185267100Y-66613300D02*
X185266700Y-66612500D01*
X185376400Y-66871700D02*
X185374300Y-66865700D01*
X185320200Y-66727100D02*
X185317600Y-66721100D01*
X185273700Y-66626500D02*
X185270800Y-66620600D01*
X185332800Y-66757000D02*
X185330300Y-66751000D01*
X185262900Y-66606100D02*
X185262400Y-66605400D01*
X185352000Y-66805100D02*
X185349700Y-66799000D01*
X185264600Y-66608900D02*
X185264200Y-66608200D01*
X185285100Y-66650000D02*
X185282300Y-66644100D01*
X185354300Y-66811100D02*
X185352000Y-66805100D01*
X185267500Y-66614000D02*
X185267100Y-66613300D01*
X185260500Y-66602700D02*
X185260000Y-66602000D01*
X185261000Y-66603300D02*
X185260500Y-66602700D01*
X185261500Y-66604000D02*
X185261000Y-66603300D01*
X185262000Y-66604700D02*
X185261500Y-66604000D01*
X185293500Y-66667700D02*
X185290700Y-66661800D01*
X185263300Y-66606800D02*
X185262900Y-66606100D01*
X185263800Y-66607500D02*
X185263300Y-66606800D01*
X185265500Y-66610300D02*
X185265100Y-66609600D01*
X185347300Y-66793000D02*
X185344900Y-66787000D01*
X185265900Y-66611100D02*
X185265500Y-66610300D01*
X185266300Y-66611800D02*
X185265900Y-66611100D01*
X185374300Y-66865700D02*
X185372100Y-66859600D01*
X185307100Y-66697300D02*
X185304400Y-66691400D01*
X185367800Y-66847400D02*
X185365600Y-66841400D01*
X185378500Y-66877800D02*
X185376400Y-66871700D01*
X185266700Y-66612500D02*
X185266300Y-66611800D01*
X185267800Y-66614700D02*
X185267500Y-66614000D01*
X185270800Y-66620600D02*
X185267800Y-66614700D01*
X185276600Y-66632400D02*
X185273700Y-66626500D01*
X185296200Y-66673600D02*
X185293500Y-66667700D01*
X185327800Y-66745000D02*
X185325300Y-66739000D01*
X185380600Y-66883900D02*
X185378500Y-66877800D01*
X185340100Y-66775000D02*
X185337700Y-66769000D01*
X185309700Y-66703300D02*
X185307100Y-66697300D01*
X185365600Y-66841400D02*
X185363400Y-66835300D01*
X185279400Y-66638200D02*
X185276600Y-66632400D01*
X185287900Y-66655900D02*
X185285100Y-66650000D01*
X185290700Y-66661800D02*
X185287900Y-66655900D01*
X185322700Y-66733100D02*
X185320200Y-66727100D01*
X185342500Y-66781000D02*
X185340100Y-66775000D01*
X185330300Y-66751000D02*
X185327800Y-66745000D01*
X185349700Y-66799000D02*
X185347300Y-66793000D01*
X185301700Y-66685500D02*
X185299000Y-66679600D01*
X185304400Y-66691400D02*
X185301700Y-66685500D01*
X185315000Y-66715200D02*
X185312400Y-66709200D01*
X185358900Y-66823200D02*
X185356600Y-66817100D01*
X185325300Y-66739000D02*
X185322700Y-66733100D01*
X185370000Y-66853500D02*
X185367800Y-66847400D01*
X185335300Y-66763000D02*
X185332800Y-66757000D01*
X185344900Y-66787000D02*
X185342500Y-66781000D01*
X185312400Y-66709200D02*
X185309700Y-66703300D01*
X185317600Y-66721100D02*
X185315000Y-66715200D01*
X185372100Y-66859600D02*
X185370000Y-66853500D01*
X185382600Y-66890000D02*
X185380600Y-66883900D01*
X185282300Y-66644100D02*
X185279400Y-66638200D01*
X185262400Y-66605400D02*
X185262000Y-66604700D01*
X185363400Y-66835300D02*
X185361100Y-66829200D01*
X185455800Y-67170200D02*
X185454600Y-67163900D01*
X185396600Y-66932900D02*
X185394600Y-66926800D01*
X185398500Y-66939100D02*
X185396600Y-66932900D01*
X185447000Y-67125900D02*
X185445600Y-67119600D01*
X185400400Y-66945200D02*
X185398500Y-66939100D01*
X185404100Y-66957500D02*
X185402200Y-66951400D01*
X185411300Y-66982200D02*
X185409600Y-66976000D01*
X185450900Y-67144900D02*
X185449600Y-67138500D01*
X185445600Y-67119600D02*
X185444300Y-67113300D01*
X185440100Y-67094400D02*
X185438600Y-67088200D01*
X185457000Y-67176600D02*
X185455800Y-67170200D01*
X185424900Y-67031900D02*
X185423200Y-67025700D01*
X185453400Y-67157500D02*
X185452100Y-67151200D01*
X185407800Y-66969900D02*
X185405900Y-66963700D01*
X185418300Y-67007000D02*
X185416600Y-67000800D01*
X185435700Y-67075600D02*
X185434200Y-67069400D01*
X185442900Y-67107000D02*
X185441500Y-67100700D01*
X185423200Y-67025700D02*
X185421600Y-67019400D01*
X185449600Y-67138500D02*
X185448300Y-67132200D01*
X185429600Y-67050600D02*
X185428100Y-67044400D01*
X185444300Y-67113300D02*
X185442900Y-67107000D01*
X185426500Y-67038100D02*
X185424900Y-67031900D01*
X185432700Y-67063100D02*
X185431200Y-67056800D01*
X185384700Y-66896100D02*
X185382600Y-66890000D01*
X185405900Y-66963700D02*
X185404100Y-66957500D01*
X185416600Y-67000800D02*
X185414800Y-66994600D01*
X185388700Y-66908400D02*
X185386700Y-66902300D01*
X185392700Y-66920600D02*
X185390700Y-66914500D01*
X185409600Y-66976000D02*
X185407800Y-66969900D01*
X185428100Y-67044400D02*
X185426500Y-67038100D01*
X185414800Y-66994600D02*
X185413100Y-66988400D01*
X185452100Y-67151200D02*
X185450900Y-67144900D01*
X185431200Y-67056800D02*
X185429600Y-67050600D01*
X185413100Y-66988400D02*
X185411300Y-66982200D01*
X185386700Y-66902300D02*
X185384700Y-66896100D01*
X185438600Y-67088200D02*
X185437200Y-67081900D01*
X185419900Y-67013200D02*
X185418300Y-67007000D01*
X185437200Y-67081900D02*
X185435700Y-67075600D01*
X185434200Y-67069400D02*
X185432700Y-67063100D01*
X185441500Y-67100700D02*
X185440100Y-67094400D01*
X185454600Y-67163900D02*
X185453400Y-67157500D01*
X185390700Y-66914500D02*
X185388700Y-66908400D01*
X185394600Y-66926800D02*
X185392700Y-66920600D01*
X185448300Y-67132200D02*
X185447000Y-67125900D01*
X185402200Y-66951400D02*
X185400400Y-66945200D01*
X185421600Y-67019400D02*
X185419900Y-67013200D01*
X185264700Y-138586400D02*
X185265100Y-138585700D01*
X185263800Y-138587800D02*
X185264200Y-138587100D01*
X185262900Y-138589200D02*
X185263400Y-138588500D01*
X185265100Y-138585700D02*
X185265500Y-138585000D01*
X185263400Y-138588500D02*
X185263800Y-138587800D01*
X185260600Y-138592600D02*
X185261100Y-138592000D01*
X185270800Y-138574800D02*
X185273700Y-138568900D01*
X185262000Y-138590600D02*
X185262500Y-138589900D01*
X185262500Y-138589900D02*
X185262900Y-138589200D01*
X185261100Y-138592000D02*
X185261600Y-138591300D01*
X185267800Y-138580700D02*
X185270800Y-138574800D01*
X185267500Y-138581400D02*
X185267800Y-138580700D01*
X185266300Y-138583600D02*
X185266700Y-138582800D01*
X185265900Y-138584300D02*
X185266300Y-138583600D01*
X185260100Y-138593300D02*
X185260600Y-138592600D01*
X185264200Y-138587100D02*
X185264700Y-138586400D01*
X185276600Y-138563000D02*
X185279400Y-138557200D01*
X185266700Y-138582800D02*
X185267100Y-138582100D01*
X185273700Y-138568900D02*
X185276600Y-138563000D01*
X185259600Y-138594000D02*
X185260100Y-138593300D01*
X185267100Y-138582100D02*
X185267500Y-138581400D01*
X185261600Y-138591300D02*
X185262000Y-138590600D01*
X185265500Y-138585000D02*
X185265900Y-138584300D01*
X183594094Y-138633188D02*
X185182756Y-138633188D01*
X185183600Y-138633200D02*
X185184400Y-138633200D01*
X170556188Y-147428700D02*
G75*
G02X179351700Y-138633188I8795512J0D01*
G01*
X185187800Y-138633000D02*
X185188600Y-138633000D01*
X179351700Y-138633188D02*
X180738690Y-138633188D01*
X185186900Y-138633100D02*
X185187800Y-138633000D01*
X185186100Y-138633100D02*
X185186900Y-138633100D01*
X185185300Y-138633200D02*
X185186100Y-138633100D01*
X183109931Y-138459592D02*
X181222854Y-138459592D01*
X185182800Y-138633200D02*
X185183600Y-138633200D01*
X185184400Y-138633200D02*
X185185300Y-138633200D01*
X185464700Y-67221100D02*
X185463700Y-67214800D01*
X185467800Y-67240300D02*
X185466800Y-67233900D01*
X185468800Y-67246700D02*
X185467800Y-67240300D01*
X185484300Y-67376000D02*
X185483700Y-67369500D01*
X185474200Y-67285300D02*
X185473400Y-67278800D01*
X185476700Y-67304600D02*
X185475900Y-67298200D01*
X185478200Y-67317600D02*
X185477500Y-67311100D01*
X185483700Y-137825900D02*
X185484300Y-137819400D01*
X185462600Y-67208400D02*
X185461500Y-67202000D01*
X185472500Y-67272400D02*
X185471600Y-67266000D01*
X185481100Y-67343500D02*
X185480400Y-67337000D01*
X185463700Y-67214800D02*
X185462600Y-67208400D01*
X185465800Y-67227500D02*
X185464700Y-67221100D01*
X185483000Y-67363000D02*
X185482400Y-67356500D01*
X185484800Y-137812900D02*
X185485400Y-137806400D01*
X185483000Y-137832400D02*
X185483700Y-137825900D01*
X185471600Y-67266000D02*
X185470700Y-67259600D01*
X185481800Y-137845400D02*
X185482400Y-137838900D01*
X185466800Y-67233900D02*
X185465800Y-67227500D01*
X185469700Y-67253100D02*
X185468800Y-67246700D01*
X186050188Y-123235200D02*
X186050188Y-81960200D01*
X185485900Y-67395600D02*
X185485400Y-67389000D01*
X185482400Y-137838900D02*
X185483000Y-137832400D01*
X185475900Y-67298200D02*
X185475100Y-67291700D01*
X185486435Y-67402088D02*
G75*
G02X186050188Y-81960200I-187689173J-14558112D01*
G01*
X185485400Y-137806400D02*
X185485900Y-137799800D01*
X185473400Y-67278800D02*
X185472500Y-67272400D01*
X185483700Y-67369500D02*
X185483000Y-67363000D01*
X185475100Y-67291700D02*
X185474200Y-67285300D01*
X185477500Y-67311100D02*
X185476700Y-67304600D01*
X185486400Y-67402100D02*
X185485900Y-67395600D01*
X185479000Y-67324000D02*
X185478200Y-67317600D01*
X185482400Y-67356500D02*
X185481800Y-67350000D01*
X185479700Y-67330500D02*
X185479000Y-67324000D01*
X185481800Y-67350000D02*
X185481100Y-67343500D01*
X185485400Y-67389000D02*
X185484800Y-67382500D01*
X186050188Y-123235200D02*
G75*
G02X185486435Y-137793312I-188252926J0D01*
G01*
X185470700Y-67259600D02*
X185469700Y-67253100D01*
X185484300Y-137819400D02*
X185484800Y-137812900D01*
X185458100Y-67182900D02*
X185457000Y-67176600D01*
X185459300Y-67189300D02*
X185458100Y-67182900D01*
X185460400Y-67195600D02*
X185459300Y-67189300D01*
X185484800Y-67382500D02*
X185484300Y-67376000D01*
X185485900Y-137799800D02*
X185486400Y-137793300D01*
X185480400Y-67337000D02*
X185479700Y-67330500D01*
X185461500Y-67202000D02*
X185460400Y-67195600D01*
X185222100Y-138624300D02*
X185222900Y-138624000D01*
X185221400Y-138624700D02*
X185222100Y-138624300D01*
X185217600Y-138626300D02*
X185218300Y-138626000D01*
X185216800Y-138626600D02*
X185217600Y-138626300D01*
X185220600Y-138625000D02*
X185221400Y-138624700D01*
X185219900Y-138625300D02*
X185220600Y-138625000D01*
X185219100Y-138625700D02*
X185219900Y-138625300D01*
X185216000Y-138626900D02*
X185216800Y-138626600D01*
X185215300Y-138627200D02*
X185216000Y-138626900D01*
X185218300Y-138626000D02*
X185219100Y-138625700D01*
X185222900Y-138624000D02*
X185223600Y-138623600D01*
X83858644Y-66562212D02*
X83554965Y-67402088D01*
X169716312Y-51631965D02*
X170556188Y-51935644D01*
X180738690Y-138633188D02*
X181222854Y-138459592D01*
X98485212Y-153259756D02*
X99325088Y-153563435D01*
X169716312Y-153563435D02*
X170556188Y-153259756D01*
X99325088Y-51631965D02*
X98485212Y-51935644D01*
X183109931Y-138459592D02*
X183594094Y-138633188D01*
X83554965Y-137793312D02*
X83858644Y-138633188D01*
X185191900Y-138632700D02*
X185192700Y-138632600D01*
X185196800Y-138632100D02*
X185197700Y-138631900D01*
X185195200Y-138632300D02*
X185196000Y-138632200D01*
X185196000Y-138632200D02*
X185196800Y-138632100D01*
X185190200Y-138632900D02*
X185191100Y-138632800D01*
X185194400Y-138632400D02*
X185195200Y-138632300D01*
X185193600Y-138632500D02*
X185194400Y-138632400D01*
X185191100Y-138632800D02*
X185191900Y-138632700D01*
X185192700Y-138632600D02*
X185193600Y-138632500D01*
X185189400Y-138632900D02*
X185190200Y-138632900D01*
X185188600Y-138633000D02*
X185189400Y-138632900D01*
X185228000Y-138621300D02*
X185228800Y-138620900D01*
X185224400Y-138623200D02*
X185225100Y-138622900D01*
X185223600Y-138623600D02*
X185224400Y-138623200D01*
X185225100Y-138622900D02*
X185225900Y-138622500D01*
X185230200Y-138620100D02*
X185230900Y-138619700D01*
X185230900Y-138619700D02*
X185231600Y-138619300D01*
X185228800Y-138620900D02*
X185229500Y-138620500D01*
X185227300Y-138621700D02*
X185228000Y-138621300D01*
X185226600Y-138622100D02*
X185227300Y-138621700D01*
X185225900Y-138622500D02*
X185226600Y-138622100D01*
X185229500Y-138620500D02*
X185230200Y-138620100D01*
M02*
