G04 #@! TF.GenerationSoftware,KiCad,Pcbnew,(5.0.2)-1*
G04 #@! TF.CreationDate,2019-02-02T14:32:06-06:00*
G04 #@! TF.ProjectId,Motor test module,4d6f746f-7220-4746-9573-74206d6f6475,rev?*
G04 #@! TF.SameCoordinates,Original*
G04 #@! TF.FileFunction,Soldermask,Top*
G04 #@! TF.FilePolarity,Negative*
%FSLAX46Y46*%
G04 Gerber Fmt 4.6, Leading zero omitted, Abs format (unit mm)*
G04 Created by KiCad (PCBNEW (5.0.2)-1) date 2/2/2019 2:32:06 PM*
%MOMM*%
%LPD*%
G01*
G04 APERTURE LIST*
%ADD10C,0.100000*%
G04 APERTURE END LIST*
D10*
G36*
X166593026Y-126504115D02*
X166811412Y-126594573D01*
X167007958Y-126725901D01*
X167175099Y-126893042D01*
X167306427Y-127089588D01*
X167396885Y-127307974D01*
X167443000Y-127539809D01*
X167443000Y-127776191D01*
X167396885Y-128008026D01*
X167306427Y-128226412D01*
X167175099Y-128422958D01*
X167007958Y-128590099D01*
X166811412Y-128721427D01*
X166593026Y-128811885D01*
X166361191Y-128858000D01*
X166124809Y-128858000D01*
X165892974Y-128811885D01*
X165674588Y-128721427D01*
X165478042Y-128590099D01*
X165310901Y-128422958D01*
X165179573Y-128226412D01*
X165089115Y-128008026D01*
X165043000Y-127776191D01*
X165043000Y-127539809D01*
X165089115Y-127307974D01*
X165179573Y-127089588D01*
X165310901Y-126893042D01*
X165478042Y-126725901D01*
X165674588Y-126594573D01*
X165892974Y-126504115D01*
X166124809Y-126458000D01*
X166361191Y-126458000D01*
X166593026Y-126504115D01*
X166593026Y-126504115D01*
G37*
G36*
X162093026Y-126504115D02*
X162311412Y-126594573D01*
X162507958Y-126725901D01*
X162675099Y-126893042D01*
X162806427Y-127089588D01*
X162896885Y-127307974D01*
X162943000Y-127539809D01*
X162943000Y-127776191D01*
X162896885Y-128008026D01*
X162806427Y-128226412D01*
X162675099Y-128422958D01*
X162507958Y-128590099D01*
X162311412Y-128721427D01*
X162093026Y-128811885D01*
X161861191Y-128858000D01*
X161624809Y-128858000D01*
X161392974Y-128811885D01*
X161174588Y-128721427D01*
X160978042Y-128590099D01*
X160810901Y-128422958D01*
X160679573Y-128226412D01*
X160589115Y-128008026D01*
X160543000Y-127776191D01*
X160543000Y-127539809D01*
X160589115Y-127307974D01*
X160679573Y-127089588D01*
X160810901Y-126893042D01*
X160978042Y-126725901D01*
X161174588Y-126594573D01*
X161392974Y-126504115D01*
X161624809Y-126458000D01*
X161861191Y-126458000D01*
X162093026Y-126504115D01*
X162093026Y-126504115D01*
G37*
G36*
X113095207Y-126021097D02*
X113172336Y-126028693D01*
X113304287Y-126068720D01*
X113370263Y-126088733D01*
X113552672Y-126186233D01*
X113712554Y-126317446D01*
X113843767Y-126477328D01*
X113941267Y-126659737D01*
X113942029Y-126662250D01*
X114001307Y-126857664D01*
X114021580Y-127063500D01*
X114001307Y-127269336D01*
X113989586Y-127307974D01*
X113941267Y-127467263D01*
X113843767Y-127649672D01*
X113712554Y-127809554D01*
X113552672Y-127940767D01*
X113370263Y-128038267D01*
X113304287Y-128058280D01*
X113172336Y-128098307D01*
X113095207Y-128105904D01*
X113018080Y-128113500D01*
X112914920Y-128113500D01*
X112837793Y-128105904D01*
X112760664Y-128098307D01*
X112628713Y-128058280D01*
X112562737Y-128038267D01*
X112380328Y-127940767D01*
X112220446Y-127809554D01*
X112089233Y-127649672D01*
X111991733Y-127467263D01*
X111943414Y-127307974D01*
X111931693Y-127269336D01*
X111911420Y-127063500D01*
X111931693Y-126857664D01*
X111990971Y-126662250D01*
X111991733Y-126659737D01*
X112089233Y-126477328D01*
X112220446Y-126317446D01*
X112380328Y-126186233D01*
X112562737Y-126088733D01*
X112628713Y-126068720D01*
X112760664Y-126028693D01*
X112837793Y-126021097D01*
X112914920Y-126013500D01*
X113018080Y-126013500D01*
X113095207Y-126021097D01*
X113095207Y-126021097D01*
G37*
G36*
X97728207Y-126021097D02*
X97805336Y-126028693D01*
X97937287Y-126068720D01*
X98003263Y-126088733D01*
X98185672Y-126186233D01*
X98345554Y-126317446D01*
X98476767Y-126477328D01*
X98574267Y-126659737D01*
X98575029Y-126662250D01*
X98634307Y-126857664D01*
X98654580Y-127063500D01*
X98634307Y-127269336D01*
X98622586Y-127307974D01*
X98574267Y-127467263D01*
X98476767Y-127649672D01*
X98345554Y-127809554D01*
X98185672Y-127940767D01*
X98003263Y-128038267D01*
X97937287Y-128058280D01*
X97805336Y-128098307D01*
X97728207Y-128105904D01*
X97651080Y-128113500D01*
X97547920Y-128113500D01*
X97470793Y-128105904D01*
X97393664Y-128098307D01*
X97261713Y-128058280D01*
X97195737Y-128038267D01*
X97013328Y-127940767D01*
X96853446Y-127809554D01*
X96722233Y-127649672D01*
X96624733Y-127467263D01*
X96576414Y-127307974D01*
X96564693Y-127269336D01*
X96544420Y-127063500D01*
X96564693Y-126857664D01*
X96623971Y-126662250D01*
X96624733Y-126659737D01*
X96722233Y-126477328D01*
X96853446Y-126317446D01*
X97013328Y-126186233D01*
X97195737Y-126088733D01*
X97261713Y-126068720D01*
X97393664Y-126028693D01*
X97470793Y-126021097D01*
X97547920Y-126013500D01*
X97651080Y-126013500D01*
X97728207Y-126021097D01*
X97728207Y-126021097D01*
G37*
G36*
X100268207Y-126021097D02*
X100345336Y-126028693D01*
X100477287Y-126068720D01*
X100543263Y-126088733D01*
X100725672Y-126186233D01*
X100885554Y-126317446D01*
X101016767Y-126477328D01*
X101114267Y-126659737D01*
X101115029Y-126662250D01*
X101174307Y-126857664D01*
X101194580Y-127063500D01*
X101174307Y-127269336D01*
X101162586Y-127307974D01*
X101114267Y-127467263D01*
X101016767Y-127649672D01*
X100885554Y-127809554D01*
X100725672Y-127940767D01*
X100543263Y-128038267D01*
X100477287Y-128058280D01*
X100345336Y-128098307D01*
X100268207Y-128105904D01*
X100191080Y-128113500D01*
X100087920Y-128113500D01*
X100010793Y-128105904D01*
X99933664Y-128098307D01*
X99801713Y-128058280D01*
X99735737Y-128038267D01*
X99553328Y-127940767D01*
X99393446Y-127809554D01*
X99262233Y-127649672D01*
X99164733Y-127467263D01*
X99116414Y-127307974D01*
X99104693Y-127269336D01*
X99084420Y-127063500D01*
X99104693Y-126857664D01*
X99163971Y-126662250D01*
X99164733Y-126659737D01*
X99262233Y-126477328D01*
X99393446Y-126317446D01*
X99553328Y-126186233D01*
X99735737Y-126088733D01*
X99801713Y-126068720D01*
X99933664Y-126028693D01*
X100010793Y-126021097D01*
X100087920Y-126013500D01*
X100191080Y-126013500D01*
X100268207Y-126021097D01*
X100268207Y-126021097D01*
G37*
G36*
X110555207Y-126021097D02*
X110632336Y-126028693D01*
X110764287Y-126068720D01*
X110830263Y-126088733D01*
X111012672Y-126186233D01*
X111172554Y-126317446D01*
X111303767Y-126477328D01*
X111401267Y-126659737D01*
X111402029Y-126662250D01*
X111461307Y-126857664D01*
X111481580Y-127063500D01*
X111461307Y-127269336D01*
X111449586Y-127307974D01*
X111401267Y-127467263D01*
X111303767Y-127649672D01*
X111172554Y-127809554D01*
X111012672Y-127940767D01*
X110830263Y-128038267D01*
X110764287Y-128058280D01*
X110632336Y-128098307D01*
X110555207Y-128105904D01*
X110478080Y-128113500D01*
X110374920Y-128113500D01*
X110297793Y-128105904D01*
X110220664Y-128098307D01*
X110088713Y-128058280D01*
X110022737Y-128038267D01*
X109840328Y-127940767D01*
X109680446Y-127809554D01*
X109549233Y-127649672D01*
X109451733Y-127467263D01*
X109403414Y-127307974D01*
X109391693Y-127269336D01*
X109371420Y-127063500D01*
X109391693Y-126857664D01*
X109450971Y-126662250D01*
X109451733Y-126659737D01*
X109549233Y-126477328D01*
X109680446Y-126317446D01*
X109840328Y-126186233D01*
X110022737Y-126088733D01*
X110088713Y-126068720D01*
X110220664Y-126028693D01*
X110297793Y-126021097D01*
X110374920Y-126013500D01*
X110478080Y-126013500D01*
X110555207Y-126021097D01*
X110555207Y-126021097D01*
G37*
G36*
X107783622Y-126520517D02*
X107831585Y-126535066D01*
X107875775Y-126558686D01*
X107914518Y-126590482D01*
X107946314Y-126629225D01*
X107969934Y-126673415D01*
X107984483Y-126721378D01*
X107990000Y-126777391D01*
X107990000Y-127527609D01*
X107984483Y-127583622D01*
X107969934Y-127631585D01*
X107946314Y-127675775D01*
X107914518Y-127714518D01*
X107875775Y-127746314D01*
X107831585Y-127769934D01*
X107783622Y-127784483D01*
X107727609Y-127790000D01*
X106902391Y-127790000D01*
X106846378Y-127784483D01*
X106798415Y-127769934D01*
X106754225Y-127746314D01*
X106715482Y-127714518D01*
X106683686Y-127675775D01*
X106660066Y-127631585D01*
X106645517Y-127583622D01*
X106640000Y-127527609D01*
X106640000Y-126777391D01*
X106645517Y-126721378D01*
X106660066Y-126673415D01*
X106683686Y-126629225D01*
X106715482Y-126590482D01*
X106754225Y-126558686D01*
X106798415Y-126535066D01*
X106846378Y-126520517D01*
X106902391Y-126515000D01*
X107727609Y-126515000D01*
X107783622Y-126520517D01*
X107783622Y-126520517D01*
G37*
G36*
X95210622Y-126469617D02*
X95258585Y-126484166D01*
X95302775Y-126507786D01*
X95341518Y-126539582D01*
X95373314Y-126578325D01*
X95396934Y-126622515D01*
X95411483Y-126670478D01*
X95417000Y-126726491D01*
X95417000Y-127476709D01*
X95411483Y-127532722D01*
X95396934Y-127580685D01*
X95373314Y-127624875D01*
X95341518Y-127663618D01*
X95302775Y-127695414D01*
X95258585Y-127719034D01*
X95210622Y-127733583D01*
X95154609Y-127739100D01*
X94329391Y-127739100D01*
X94273378Y-127733583D01*
X94225415Y-127719034D01*
X94181225Y-127695414D01*
X94142482Y-127663618D01*
X94110686Y-127624875D01*
X94087066Y-127580685D01*
X94072517Y-127532722D01*
X94067000Y-127476709D01*
X94067000Y-126726491D01*
X94072517Y-126670478D01*
X94087066Y-126622515D01*
X94110686Y-126578325D01*
X94142482Y-126539582D01*
X94181225Y-126507786D01*
X94225415Y-126484166D01*
X94273378Y-126469617D01*
X94329391Y-126464100D01*
X95154609Y-126464100D01*
X95210622Y-126469617D01*
X95210622Y-126469617D01*
G37*
G36*
X128827000Y-127557000D02*
X125427000Y-127557000D01*
X125427000Y-124157000D01*
X128827000Y-124157000D01*
X128827000Y-127557000D01*
X128827000Y-127557000D01*
G37*
G36*
X132593393Y-124200553D02*
X132702872Y-124222330D01*
X133012252Y-124350479D01*
X133290687Y-124536523D01*
X133527477Y-124773313D01*
X133713521Y-125051748D01*
X133841670Y-125361128D01*
X133841670Y-125361129D01*
X133907000Y-125689563D01*
X133907000Y-126024437D01*
X133873921Y-126190737D01*
X133841670Y-126352872D01*
X133713521Y-126662252D01*
X133527477Y-126940687D01*
X133290687Y-127177477D01*
X133012252Y-127363521D01*
X132702872Y-127491670D01*
X132593393Y-127513447D01*
X132374437Y-127557000D01*
X132039563Y-127557000D01*
X131820607Y-127513447D01*
X131711128Y-127491670D01*
X131401748Y-127363521D01*
X131123313Y-127177477D01*
X130886523Y-126940687D01*
X130700479Y-126662252D01*
X130572330Y-126352872D01*
X130540079Y-126190737D01*
X130507000Y-126024437D01*
X130507000Y-125689563D01*
X130572330Y-125361129D01*
X130572330Y-125361128D01*
X130700479Y-125051748D01*
X130886523Y-124773313D01*
X131123313Y-124536523D01*
X131401748Y-124350479D01*
X131711128Y-124222330D01*
X131820607Y-124200553D01*
X132039563Y-124157000D01*
X132374437Y-124157000D01*
X132593393Y-124200553D01*
X132593393Y-124200553D01*
G37*
G36*
X107783622Y-124945517D02*
X107831585Y-124960066D01*
X107875775Y-124983686D01*
X107914518Y-125015482D01*
X107946314Y-125054225D01*
X107969934Y-125098415D01*
X107984483Y-125146378D01*
X107990000Y-125202391D01*
X107990000Y-125952609D01*
X107984483Y-126008622D01*
X107969934Y-126056585D01*
X107946314Y-126100775D01*
X107914518Y-126139518D01*
X107875775Y-126171314D01*
X107831585Y-126194934D01*
X107783622Y-126209483D01*
X107727609Y-126215000D01*
X106902391Y-126215000D01*
X106846378Y-126209483D01*
X106798415Y-126194934D01*
X106754225Y-126171314D01*
X106715482Y-126139518D01*
X106683686Y-126100775D01*
X106660066Y-126056585D01*
X106645517Y-126008622D01*
X106640000Y-125952609D01*
X106640000Y-125202391D01*
X106645517Y-125146378D01*
X106660066Y-125098415D01*
X106683686Y-125054225D01*
X106715482Y-125015482D01*
X106754225Y-124983686D01*
X106798415Y-124960066D01*
X106846378Y-124945517D01*
X106902391Y-124940000D01*
X107727609Y-124940000D01*
X107783622Y-124945517D01*
X107783622Y-124945517D01*
G37*
G36*
X95210622Y-124894617D02*
X95258585Y-124909166D01*
X95302775Y-124932786D01*
X95341518Y-124964582D01*
X95373314Y-125003325D01*
X95396934Y-125047515D01*
X95411483Y-125095478D01*
X95417000Y-125151491D01*
X95417000Y-125901709D01*
X95411483Y-125957722D01*
X95396934Y-126005685D01*
X95373314Y-126049875D01*
X95341518Y-126088618D01*
X95302775Y-126120414D01*
X95258585Y-126144034D01*
X95210622Y-126158583D01*
X95154609Y-126164100D01*
X94329391Y-126164100D01*
X94273378Y-126158583D01*
X94225415Y-126144034D01*
X94181225Y-126120414D01*
X94142482Y-126088618D01*
X94110686Y-126049875D01*
X94087066Y-126005685D01*
X94072517Y-125957722D01*
X94067000Y-125901709D01*
X94067000Y-125151491D01*
X94072517Y-125095478D01*
X94087066Y-125047515D01*
X94110686Y-125003325D01*
X94142482Y-124964582D01*
X94181225Y-124932786D01*
X94225415Y-124909166D01*
X94273378Y-124894617D01*
X94329391Y-124889100D01*
X95154609Y-124889100D01*
X95210622Y-124894617D01*
X95210622Y-124894617D01*
G37*
G36*
X113095207Y-123481097D02*
X113172336Y-123488693D01*
X113304287Y-123528720D01*
X113370263Y-123548733D01*
X113552672Y-123646233D01*
X113712554Y-123777446D01*
X113843767Y-123937328D01*
X113941267Y-124119737D01*
X113941267Y-124119738D01*
X114001307Y-124317664D01*
X114021580Y-124523500D01*
X114001307Y-124729336D01*
X113961280Y-124861287D01*
X113941267Y-124927263D01*
X113843767Y-125109672D01*
X113712554Y-125269554D01*
X113552672Y-125400767D01*
X113370263Y-125498267D01*
X113304287Y-125518280D01*
X113172336Y-125558307D01*
X113095207Y-125565904D01*
X113018080Y-125573500D01*
X112914920Y-125573500D01*
X112837793Y-125565904D01*
X112760664Y-125558307D01*
X112628713Y-125518280D01*
X112562737Y-125498267D01*
X112380328Y-125400767D01*
X112220446Y-125269554D01*
X112089233Y-125109672D01*
X111991733Y-124927263D01*
X111971720Y-124861287D01*
X111931693Y-124729336D01*
X111911420Y-124523500D01*
X111931693Y-124317664D01*
X111991733Y-124119738D01*
X111991733Y-124119737D01*
X112089233Y-123937328D01*
X112220446Y-123777446D01*
X112380328Y-123646233D01*
X112562737Y-123548733D01*
X112628713Y-123528720D01*
X112760664Y-123488693D01*
X112837793Y-123481097D01*
X112914920Y-123473500D01*
X113018080Y-123473500D01*
X113095207Y-123481097D01*
X113095207Y-123481097D01*
G37*
G36*
X97728207Y-123481097D02*
X97805336Y-123488693D01*
X97937287Y-123528720D01*
X98003263Y-123548733D01*
X98185672Y-123646233D01*
X98345554Y-123777446D01*
X98476767Y-123937328D01*
X98574267Y-124119737D01*
X98574267Y-124119738D01*
X98634307Y-124317664D01*
X98654580Y-124523500D01*
X98634307Y-124729336D01*
X98594280Y-124861287D01*
X98574267Y-124927263D01*
X98476767Y-125109672D01*
X98345554Y-125269554D01*
X98185672Y-125400767D01*
X98003263Y-125498267D01*
X97937287Y-125518280D01*
X97805336Y-125558307D01*
X97728207Y-125565904D01*
X97651080Y-125573500D01*
X97547920Y-125573500D01*
X97470793Y-125565904D01*
X97393664Y-125558307D01*
X97261713Y-125518280D01*
X97195737Y-125498267D01*
X97013328Y-125400767D01*
X96853446Y-125269554D01*
X96722233Y-125109672D01*
X96624733Y-124927263D01*
X96604720Y-124861287D01*
X96564693Y-124729336D01*
X96544420Y-124523500D01*
X96564693Y-124317664D01*
X96624733Y-124119738D01*
X96624733Y-124119737D01*
X96722233Y-123937328D01*
X96853446Y-123777446D01*
X97013328Y-123646233D01*
X97195737Y-123548733D01*
X97261713Y-123528720D01*
X97393664Y-123488693D01*
X97470793Y-123481097D01*
X97547920Y-123473500D01*
X97651080Y-123473500D01*
X97728207Y-123481097D01*
X97728207Y-123481097D01*
G37*
G36*
X100268207Y-123481097D02*
X100345336Y-123488693D01*
X100477287Y-123528720D01*
X100543263Y-123548733D01*
X100725672Y-123646233D01*
X100885554Y-123777446D01*
X101016767Y-123937328D01*
X101114267Y-124119737D01*
X101114267Y-124119738D01*
X101174307Y-124317664D01*
X101194580Y-124523500D01*
X101174307Y-124729336D01*
X101134280Y-124861287D01*
X101114267Y-124927263D01*
X101016767Y-125109672D01*
X100885554Y-125269554D01*
X100725672Y-125400767D01*
X100543263Y-125498267D01*
X100477287Y-125518280D01*
X100345336Y-125558307D01*
X100268207Y-125565904D01*
X100191080Y-125573500D01*
X100087920Y-125573500D01*
X100010793Y-125565904D01*
X99933664Y-125558307D01*
X99801713Y-125518280D01*
X99735737Y-125498267D01*
X99553328Y-125400767D01*
X99393446Y-125269554D01*
X99262233Y-125109672D01*
X99164733Y-124927263D01*
X99144720Y-124861287D01*
X99104693Y-124729336D01*
X99084420Y-124523500D01*
X99104693Y-124317664D01*
X99164733Y-124119738D01*
X99164733Y-124119737D01*
X99262233Y-123937328D01*
X99393446Y-123777446D01*
X99553328Y-123646233D01*
X99735737Y-123548733D01*
X99801713Y-123528720D01*
X99933664Y-123488693D01*
X100010793Y-123481097D01*
X100087920Y-123473500D01*
X100191080Y-123473500D01*
X100268207Y-123481097D01*
X100268207Y-123481097D01*
G37*
G36*
X110555207Y-123481097D02*
X110632336Y-123488693D01*
X110764287Y-123528720D01*
X110830263Y-123548733D01*
X111012672Y-123646233D01*
X111172554Y-123777446D01*
X111303767Y-123937328D01*
X111401267Y-124119737D01*
X111401267Y-124119738D01*
X111461307Y-124317664D01*
X111481580Y-124523500D01*
X111461307Y-124729336D01*
X111421280Y-124861287D01*
X111401267Y-124927263D01*
X111303767Y-125109672D01*
X111172554Y-125269554D01*
X111012672Y-125400767D01*
X110830263Y-125498267D01*
X110764287Y-125518280D01*
X110632336Y-125558307D01*
X110555207Y-125565904D01*
X110478080Y-125573500D01*
X110374920Y-125573500D01*
X110297793Y-125565904D01*
X110220664Y-125558307D01*
X110088713Y-125518280D01*
X110022737Y-125498267D01*
X109840328Y-125400767D01*
X109680446Y-125269554D01*
X109549233Y-125109672D01*
X109451733Y-124927263D01*
X109431720Y-124861287D01*
X109391693Y-124729336D01*
X109371420Y-124523500D01*
X109391693Y-124317664D01*
X109451733Y-124119738D01*
X109451733Y-124119737D01*
X109549233Y-123937328D01*
X109680446Y-123777446D01*
X109840328Y-123646233D01*
X110022737Y-123548733D01*
X110088713Y-123528720D01*
X110220664Y-123488693D01*
X110297793Y-123481097D01*
X110374920Y-123473500D01*
X110478080Y-123473500D01*
X110555207Y-123481097D01*
X110555207Y-123481097D01*
G37*
G36*
X110555207Y-120941096D02*
X110632336Y-120948693D01*
X110764287Y-120988720D01*
X110830263Y-121008733D01*
X111012672Y-121106233D01*
X111172554Y-121237446D01*
X111303767Y-121397328D01*
X111401267Y-121579737D01*
X111401267Y-121579738D01*
X111461307Y-121777664D01*
X111481580Y-121983500D01*
X111461307Y-122189336D01*
X111451572Y-122221427D01*
X111401267Y-122387263D01*
X111303767Y-122569672D01*
X111172554Y-122729554D01*
X111012672Y-122860767D01*
X110830263Y-122958267D01*
X110764287Y-122978280D01*
X110632336Y-123018307D01*
X110555207Y-123025904D01*
X110478080Y-123033500D01*
X110374920Y-123033500D01*
X110297793Y-123025904D01*
X110220664Y-123018307D01*
X110088713Y-122978280D01*
X110022737Y-122958267D01*
X109840328Y-122860767D01*
X109680446Y-122729554D01*
X109549233Y-122569672D01*
X109451733Y-122387263D01*
X109401428Y-122221427D01*
X109391693Y-122189336D01*
X109371420Y-121983500D01*
X109391693Y-121777664D01*
X109451733Y-121579738D01*
X109451733Y-121579737D01*
X109549233Y-121397328D01*
X109680446Y-121237446D01*
X109840328Y-121106233D01*
X110022737Y-121008733D01*
X110088713Y-120988720D01*
X110220664Y-120948693D01*
X110297793Y-120941096D01*
X110374920Y-120933500D01*
X110478080Y-120933500D01*
X110555207Y-120941096D01*
X110555207Y-120941096D01*
G37*
G36*
X113095207Y-120941096D02*
X113172336Y-120948693D01*
X113304287Y-120988720D01*
X113370263Y-121008733D01*
X113552672Y-121106233D01*
X113712554Y-121237446D01*
X113843767Y-121397328D01*
X113941267Y-121579737D01*
X113941267Y-121579738D01*
X114001307Y-121777664D01*
X114021580Y-121983500D01*
X114001307Y-122189336D01*
X113991572Y-122221427D01*
X113941267Y-122387263D01*
X113843767Y-122569672D01*
X113712554Y-122729554D01*
X113552672Y-122860767D01*
X113370263Y-122958267D01*
X113304287Y-122978280D01*
X113172336Y-123018307D01*
X113095207Y-123025904D01*
X113018080Y-123033500D01*
X112914920Y-123033500D01*
X112837793Y-123025904D01*
X112760664Y-123018307D01*
X112628713Y-122978280D01*
X112562737Y-122958267D01*
X112380328Y-122860767D01*
X112220446Y-122729554D01*
X112089233Y-122569672D01*
X111991733Y-122387263D01*
X111941428Y-122221427D01*
X111931693Y-122189336D01*
X111911420Y-121983500D01*
X111931693Y-121777664D01*
X111991733Y-121579738D01*
X111991733Y-121579737D01*
X112089233Y-121397328D01*
X112220446Y-121237446D01*
X112380328Y-121106233D01*
X112562737Y-121008733D01*
X112628713Y-120988720D01*
X112760664Y-120948693D01*
X112837793Y-120941096D01*
X112914920Y-120933500D01*
X113018080Y-120933500D01*
X113095207Y-120941096D01*
X113095207Y-120941096D01*
G37*
G36*
X100268207Y-120941096D02*
X100345336Y-120948693D01*
X100477287Y-120988720D01*
X100543263Y-121008733D01*
X100725672Y-121106233D01*
X100885554Y-121237446D01*
X101016767Y-121397328D01*
X101114267Y-121579737D01*
X101114267Y-121579738D01*
X101174307Y-121777664D01*
X101194580Y-121983500D01*
X101174307Y-122189336D01*
X101164572Y-122221427D01*
X101114267Y-122387263D01*
X101016767Y-122569672D01*
X100885554Y-122729554D01*
X100725672Y-122860767D01*
X100543263Y-122958267D01*
X100477287Y-122978280D01*
X100345336Y-123018307D01*
X100268207Y-123025904D01*
X100191080Y-123033500D01*
X100087920Y-123033500D01*
X100010793Y-123025904D01*
X99933664Y-123018307D01*
X99801713Y-122978280D01*
X99735737Y-122958267D01*
X99553328Y-122860767D01*
X99393446Y-122729554D01*
X99262233Y-122569672D01*
X99164733Y-122387263D01*
X99114428Y-122221427D01*
X99104693Y-122189336D01*
X99084420Y-121983500D01*
X99104693Y-121777664D01*
X99164733Y-121579738D01*
X99164733Y-121579737D01*
X99262233Y-121397328D01*
X99393446Y-121237446D01*
X99553328Y-121106233D01*
X99735737Y-121008733D01*
X99801713Y-120988720D01*
X99933664Y-120948693D01*
X100010793Y-120941096D01*
X100087920Y-120933500D01*
X100191080Y-120933500D01*
X100268207Y-120941096D01*
X100268207Y-120941096D01*
G37*
G36*
X97728207Y-120941096D02*
X97805336Y-120948693D01*
X97937287Y-120988720D01*
X98003263Y-121008733D01*
X98185672Y-121106233D01*
X98345554Y-121237446D01*
X98476767Y-121397328D01*
X98574267Y-121579737D01*
X98574267Y-121579738D01*
X98634307Y-121777664D01*
X98654580Y-121983500D01*
X98634307Y-122189336D01*
X98624572Y-122221427D01*
X98574267Y-122387263D01*
X98476767Y-122569672D01*
X98345554Y-122729554D01*
X98185672Y-122860767D01*
X98003263Y-122958267D01*
X97937287Y-122978280D01*
X97805336Y-123018307D01*
X97728207Y-123025904D01*
X97651080Y-123033500D01*
X97547920Y-123033500D01*
X97470793Y-123025904D01*
X97393664Y-123018307D01*
X97261713Y-122978280D01*
X97195737Y-122958267D01*
X97013328Y-122860767D01*
X96853446Y-122729554D01*
X96722233Y-122569672D01*
X96624733Y-122387263D01*
X96574428Y-122221427D01*
X96564693Y-122189336D01*
X96544420Y-121983500D01*
X96564693Y-121777664D01*
X96624733Y-121579738D01*
X96624733Y-121579737D01*
X96722233Y-121397328D01*
X96853446Y-121237446D01*
X97013328Y-121106233D01*
X97195737Y-121008733D01*
X97261713Y-120988720D01*
X97393664Y-120948693D01*
X97470793Y-120941096D01*
X97547920Y-120933500D01*
X97651080Y-120933500D01*
X97728207Y-120941096D01*
X97728207Y-120941096D01*
G37*
G36*
X166593026Y-120004115D02*
X166811412Y-120094573D01*
X167007958Y-120225901D01*
X167175099Y-120393042D01*
X167306427Y-120589588D01*
X167396885Y-120807974D01*
X167443000Y-121039809D01*
X167443000Y-121276191D01*
X167396885Y-121508026D01*
X167306427Y-121726412D01*
X167175099Y-121922958D01*
X167007958Y-122090099D01*
X166811412Y-122221427D01*
X166593026Y-122311885D01*
X166361191Y-122358000D01*
X166124809Y-122358000D01*
X165892974Y-122311885D01*
X165674588Y-122221427D01*
X165478042Y-122090099D01*
X165310901Y-121922958D01*
X165179573Y-121726412D01*
X165089115Y-121508026D01*
X165043000Y-121276191D01*
X165043000Y-121039809D01*
X165089115Y-120807974D01*
X165179573Y-120589588D01*
X165310901Y-120393042D01*
X165478042Y-120225901D01*
X165674588Y-120094573D01*
X165892974Y-120004115D01*
X166124809Y-119958000D01*
X166361191Y-119958000D01*
X166593026Y-120004115D01*
X166593026Y-120004115D01*
G37*
G36*
X162093026Y-120004115D02*
X162311412Y-120094573D01*
X162507958Y-120225901D01*
X162675099Y-120393042D01*
X162806427Y-120589588D01*
X162896885Y-120807974D01*
X162943000Y-121039809D01*
X162943000Y-121276191D01*
X162896885Y-121508026D01*
X162806427Y-121726412D01*
X162675099Y-121922958D01*
X162507958Y-122090099D01*
X162311412Y-122221427D01*
X162093026Y-122311885D01*
X161861191Y-122358000D01*
X161624809Y-122358000D01*
X161392974Y-122311885D01*
X161174588Y-122221427D01*
X160978042Y-122090099D01*
X160810901Y-121922958D01*
X160679573Y-121726412D01*
X160589115Y-121508026D01*
X160543000Y-121276191D01*
X160543000Y-121039809D01*
X160589115Y-120807974D01*
X160679573Y-120589588D01*
X160810901Y-120393042D01*
X160978042Y-120225901D01*
X161174588Y-120094573D01*
X161392974Y-120004115D01*
X161624809Y-119958000D01*
X161861191Y-119958000D01*
X162093026Y-120004115D01*
X162093026Y-120004115D01*
G37*
G36*
X155574523Y-120209117D02*
X155622486Y-120223666D01*
X155666676Y-120247286D01*
X155705419Y-120279082D01*
X155737215Y-120317825D01*
X155760835Y-120362015D01*
X155775384Y-120409978D01*
X155780901Y-120465991D01*
X155780901Y-121291209D01*
X155775384Y-121347222D01*
X155760835Y-121395185D01*
X155737215Y-121439375D01*
X155705419Y-121478118D01*
X155666676Y-121509914D01*
X155622486Y-121533534D01*
X155574523Y-121548083D01*
X155518510Y-121553600D01*
X154768292Y-121553600D01*
X154712279Y-121548083D01*
X154664316Y-121533534D01*
X154620126Y-121509914D01*
X154581383Y-121478118D01*
X154549587Y-121439375D01*
X154525967Y-121395185D01*
X154511418Y-121347222D01*
X154505901Y-121291209D01*
X154505901Y-120465991D01*
X154511418Y-120409978D01*
X154525967Y-120362015D01*
X154549587Y-120317825D01*
X154581383Y-120279082D01*
X154620126Y-120247286D01*
X154664316Y-120223666D01*
X154712279Y-120209117D01*
X154768292Y-120203600D01*
X155518510Y-120203600D01*
X155574523Y-120209117D01*
X155574523Y-120209117D01*
G37*
G36*
X153999523Y-120209117D02*
X154047486Y-120223666D01*
X154091676Y-120247286D01*
X154130419Y-120279082D01*
X154162215Y-120317825D01*
X154185835Y-120362015D01*
X154200384Y-120409978D01*
X154205901Y-120465991D01*
X154205901Y-121291209D01*
X154200384Y-121347222D01*
X154185835Y-121395185D01*
X154162215Y-121439375D01*
X154130419Y-121478118D01*
X154091676Y-121509914D01*
X154047486Y-121533534D01*
X153999523Y-121548083D01*
X153943510Y-121553600D01*
X153193292Y-121553600D01*
X153137279Y-121548083D01*
X153089316Y-121533534D01*
X153045126Y-121509914D01*
X153006383Y-121478118D01*
X152974587Y-121439375D01*
X152950967Y-121395185D01*
X152936418Y-121347222D01*
X152930901Y-121291209D01*
X152930901Y-120465991D01*
X152936418Y-120409978D01*
X152950967Y-120362015D01*
X152974587Y-120317825D01*
X153006383Y-120279082D01*
X153045126Y-120247286D01*
X153089316Y-120223666D01*
X153137279Y-120209117D01*
X153193292Y-120203600D01*
X153943510Y-120203600D01*
X153999523Y-120209117D01*
X153999523Y-120209117D01*
G37*
G36*
X159232122Y-119980517D02*
X159280085Y-119995066D01*
X159324275Y-120018686D01*
X159363018Y-120050482D01*
X159394814Y-120089225D01*
X159418434Y-120133415D01*
X159432983Y-120181378D01*
X159438500Y-120237391D01*
X159438500Y-121062609D01*
X159432983Y-121118622D01*
X159418434Y-121166585D01*
X159394814Y-121210775D01*
X159363018Y-121249518D01*
X159324275Y-121281314D01*
X159280085Y-121304934D01*
X159232122Y-121319483D01*
X159176109Y-121325000D01*
X158425891Y-121325000D01*
X158369878Y-121319483D01*
X158321915Y-121304934D01*
X158277725Y-121281314D01*
X158238982Y-121249518D01*
X158207186Y-121210775D01*
X158183566Y-121166585D01*
X158169017Y-121118622D01*
X158163500Y-121062609D01*
X158163500Y-120237391D01*
X158169017Y-120181378D01*
X158183566Y-120133415D01*
X158207186Y-120089225D01*
X158238982Y-120050482D01*
X158277725Y-120018686D01*
X158321915Y-119995066D01*
X158369878Y-119980517D01*
X158425891Y-119975000D01*
X159176109Y-119975000D01*
X159232122Y-119980517D01*
X159232122Y-119980517D01*
G37*
G36*
X157657122Y-119980517D02*
X157705085Y-119995066D01*
X157749275Y-120018686D01*
X157788018Y-120050482D01*
X157819814Y-120089225D01*
X157843434Y-120133415D01*
X157857983Y-120181378D01*
X157863500Y-120237391D01*
X157863500Y-121062609D01*
X157857983Y-121118622D01*
X157843434Y-121166585D01*
X157819814Y-121210775D01*
X157788018Y-121249518D01*
X157749275Y-121281314D01*
X157705085Y-121304934D01*
X157657122Y-121319483D01*
X157601109Y-121325000D01*
X156850891Y-121325000D01*
X156794878Y-121319483D01*
X156746915Y-121304934D01*
X156702725Y-121281314D01*
X156663982Y-121249518D01*
X156632186Y-121210775D01*
X156608566Y-121166585D01*
X156594017Y-121118622D01*
X156588500Y-121062609D01*
X156588500Y-120237391D01*
X156594017Y-120181378D01*
X156608566Y-120133415D01*
X156632186Y-120089225D01*
X156663982Y-120050482D01*
X156702725Y-120018686D01*
X156746915Y-119995066D01*
X156794878Y-119980517D01*
X156850891Y-119975000D01*
X157601109Y-119975000D01*
X157657122Y-119980517D01*
X157657122Y-119980517D01*
G37*
G36*
X113095207Y-118401097D02*
X113172336Y-118408693D01*
X113304287Y-118448720D01*
X113370263Y-118468733D01*
X113552672Y-118566233D01*
X113712554Y-118697446D01*
X113843767Y-118857328D01*
X113941267Y-119039737D01*
X113941267Y-119039738D01*
X114001307Y-119237664D01*
X114021580Y-119443500D01*
X114001307Y-119649336D01*
X113961280Y-119781287D01*
X113941267Y-119847263D01*
X113843767Y-120029672D01*
X113712554Y-120189554D01*
X113552672Y-120320767D01*
X113370263Y-120418267D01*
X113304287Y-120438280D01*
X113172336Y-120478307D01*
X113095207Y-120485904D01*
X113018080Y-120493500D01*
X112914920Y-120493500D01*
X112837793Y-120485904D01*
X112760664Y-120478307D01*
X112628713Y-120438280D01*
X112562737Y-120418267D01*
X112380328Y-120320767D01*
X112220446Y-120189554D01*
X112089233Y-120029672D01*
X111991733Y-119847263D01*
X111971720Y-119781287D01*
X111931693Y-119649336D01*
X111911420Y-119443500D01*
X111931693Y-119237664D01*
X111991733Y-119039738D01*
X111991733Y-119039737D01*
X112089233Y-118857328D01*
X112220446Y-118697446D01*
X112380328Y-118566233D01*
X112562737Y-118468733D01*
X112628713Y-118448720D01*
X112760664Y-118408693D01*
X112837793Y-118401097D01*
X112914920Y-118393500D01*
X113018080Y-118393500D01*
X113095207Y-118401097D01*
X113095207Y-118401097D01*
G37*
G36*
X100268207Y-118401097D02*
X100345336Y-118408693D01*
X100477287Y-118448720D01*
X100543263Y-118468733D01*
X100725672Y-118566233D01*
X100885554Y-118697446D01*
X101016767Y-118857328D01*
X101114267Y-119039737D01*
X101114267Y-119039738D01*
X101174307Y-119237664D01*
X101194580Y-119443500D01*
X101174307Y-119649336D01*
X101134280Y-119781287D01*
X101114267Y-119847263D01*
X101016767Y-120029672D01*
X100885554Y-120189554D01*
X100725672Y-120320767D01*
X100543263Y-120418267D01*
X100477287Y-120438280D01*
X100345336Y-120478307D01*
X100268207Y-120485904D01*
X100191080Y-120493500D01*
X100087920Y-120493500D01*
X100010793Y-120485904D01*
X99933664Y-120478307D01*
X99801713Y-120438280D01*
X99735737Y-120418267D01*
X99553328Y-120320767D01*
X99393446Y-120189554D01*
X99262233Y-120029672D01*
X99164733Y-119847263D01*
X99144720Y-119781287D01*
X99104693Y-119649336D01*
X99084420Y-119443500D01*
X99104693Y-119237664D01*
X99164733Y-119039738D01*
X99164733Y-119039737D01*
X99262233Y-118857328D01*
X99393446Y-118697446D01*
X99553328Y-118566233D01*
X99735737Y-118468733D01*
X99801713Y-118448720D01*
X99933664Y-118408693D01*
X100010793Y-118401097D01*
X100087920Y-118393500D01*
X100191080Y-118393500D01*
X100268207Y-118401097D01*
X100268207Y-118401097D01*
G37*
G36*
X98649500Y-120493500D02*
X96549500Y-120493500D01*
X96549500Y-118393500D01*
X98649500Y-118393500D01*
X98649500Y-120493500D01*
X98649500Y-120493500D01*
G37*
G36*
X111476500Y-120493500D02*
X109376500Y-120493500D01*
X109376500Y-118393500D01*
X111476500Y-118393500D01*
X111476500Y-120493500D01*
X111476500Y-120493500D01*
G37*
G36*
X170142000Y-120149000D02*
X169342000Y-120149000D01*
X169342000Y-117849000D01*
X170142000Y-117849000D01*
X170142000Y-120149000D01*
X170142000Y-120149000D01*
G37*
G36*
X171342000Y-120149000D02*
X170542000Y-120149000D01*
X170542000Y-117849000D01*
X171342000Y-117849000D01*
X171342000Y-120149000D01*
X171342000Y-120149000D01*
G37*
G36*
X172542000Y-120149000D02*
X171742000Y-120149000D01*
X171742000Y-117849000D01*
X172542000Y-117849000D01*
X172542000Y-120149000D01*
X172542000Y-120149000D01*
G37*
G36*
X132003122Y-111598517D02*
X132051085Y-111613066D01*
X132095275Y-111636686D01*
X132134018Y-111668482D01*
X132165814Y-111707225D01*
X132189434Y-111751415D01*
X132203983Y-111799378D01*
X132209500Y-111855391D01*
X132209500Y-112680609D01*
X132203983Y-112736622D01*
X132189434Y-112784585D01*
X132165812Y-112828779D01*
X132134690Y-112866700D01*
X132121075Y-112887074D01*
X132111698Y-112909713D01*
X132106917Y-112933747D01*
X132106917Y-112958251D01*
X132111697Y-112982284D01*
X132121074Y-113004923D01*
X132134688Y-113025298D01*
X132152015Y-113042625D01*
X132172389Y-113056240D01*
X132195028Y-113065617D01*
X132219062Y-113070398D01*
X132231315Y-113071000D01*
X132487685Y-113071000D01*
X132512071Y-113068598D01*
X132535520Y-113061485D01*
X132557131Y-113049934D01*
X132576073Y-113034388D01*
X132591619Y-113015446D01*
X132603170Y-112993835D01*
X132610283Y-112970386D01*
X132612685Y-112946000D01*
X132610283Y-112921614D01*
X132603170Y-112898165D01*
X132591619Y-112876554D01*
X132584310Y-112866700D01*
X132553188Y-112828779D01*
X132529566Y-112784585D01*
X132515017Y-112736622D01*
X132509500Y-112680609D01*
X132509500Y-111855391D01*
X132515017Y-111799378D01*
X132529566Y-111751415D01*
X132553186Y-111707225D01*
X132584982Y-111668482D01*
X132623725Y-111636686D01*
X132667915Y-111613066D01*
X132715878Y-111598517D01*
X132771891Y-111593000D01*
X133522109Y-111593000D01*
X133578122Y-111598517D01*
X133626085Y-111613066D01*
X133670275Y-111636686D01*
X133709018Y-111668482D01*
X133740814Y-111707225D01*
X133764434Y-111751415D01*
X133778983Y-111799378D01*
X133784500Y-111855391D01*
X133784500Y-112680609D01*
X133778983Y-112736622D01*
X133764434Y-112784585D01*
X133740814Y-112828775D01*
X133709018Y-112867518D01*
X133670275Y-112899314D01*
X133626085Y-112922934D01*
X133578122Y-112937483D01*
X133522109Y-112943000D01*
X133335000Y-112943000D01*
X133310614Y-112945402D01*
X133287165Y-112952515D01*
X133265554Y-112964066D01*
X133246612Y-112979612D01*
X133231066Y-112998554D01*
X133219515Y-113020165D01*
X133212402Y-113043614D01*
X133210000Y-113068000D01*
X133210000Y-113646000D01*
X133212402Y-113670386D01*
X133219515Y-113693835D01*
X133231066Y-113715446D01*
X133246612Y-113734388D01*
X133265554Y-113749934D01*
X133287165Y-113761485D01*
X133310614Y-113768598D01*
X133335000Y-113771000D01*
X133351017Y-113771000D01*
X133356066Y-113780446D01*
X133371612Y-113799388D01*
X133390554Y-113814934D01*
X133412165Y-113826485D01*
X133435614Y-113833598D01*
X133460000Y-113836000D01*
X134255000Y-113836000D01*
X134255000Y-114029552D01*
X134255601Y-114041790D01*
X134256016Y-114046000D01*
X134255601Y-114050210D01*
X134255000Y-114062448D01*
X134255000Y-114529552D01*
X134255601Y-114541790D01*
X134256016Y-114546000D01*
X134255601Y-114550210D01*
X134255000Y-114562448D01*
X134255000Y-115029552D01*
X134255601Y-115041790D01*
X134256016Y-115046000D01*
X134255601Y-115050210D01*
X134255000Y-115062448D01*
X134255000Y-115529552D01*
X134255601Y-115541790D01*
X134256016Y-115546000D01*
X134255601Y-115550210D01*
X134255000Y-115562448D01*
X134255000Y-116029552D01*
X134255601Y-116041790D01*
X134256016Y-116046000D01*
X134255601Y-116050210D01*
X134255000Y-116062448D01*
X134255000Y-116256000D01*
X133460000Y-116256000D01*
X133435614Y-116258402D01*
X133412165Y-116265515D01*
X133390554Y-116277066D01*
X133371612Y-116292612D01*
X133356066Y-116311554D01*
X133351017Y-116321000D01*
X133335000Y-116321000D01*
X133310614Y-116323402D01*
X133287165Y-116330515D01*
X133265554Y-116342066D01*
X133246612Y-116357612D01*
X133231066Y-116376554D01*
X133219515Y-116398165D01*
X133212402Y-116421614D01*
X133210000Y-116446000D01*
X133210000Y-117021000D01*
X132700337Y-117021000D01*
X132675951Y-117023402D01*
X132652502Y-117030515D01*
X132630891Y-117042066D01*
X132611949Y-117057612D01*
X132596403Y-117076554D01*
X132584852Y-117098165D01*
X132577739Y-117121614D01*
X132575337Y-117146000D01*
X132577739Y-117170386D01*
X132584852Y-117193835D01*
X132596403Y-117215446D01*
X132611949Y-117234388D01*
X132630891Y-117249934D01*
X132652502Y-117261485D01*
X132659515Y-117263994D01*
X132704775Y-117288186D01*
X132743518Y-117319982D01*
X132775314Y-117358725D01*
X132798934Y-117402915D01*
X132813483Y-117450878D01*
X132819000Y-117506891D01*
X132819000Y-118332109D01*
X132813483Y-118388122D01*
X132798934Y-118436085D01*
X132775314Y-118480275D01*
X132743518Y-118519018D01*
X132704775Y-118550814D01*
X132660585Y-118574434D01*
X132612622Y-118588983D01*
X132556609Y-118594500D01*
X131806391Y-118594500D01*
X131750378Y-118588983D01*
X131702415Y-118574434D01*
X131658225Y-118550814D01*
X131619482Y-118519018D01*
X131587686Y-118480275D01*
X131564066Y-118436085D01*
X131549517Y-118388122D01*
X131544000Y-118332109D01*
X131544000Y-117506891D01*
X131549517Y-117450878D01*
X131564066Y-117402915D01*
X131587686Y-117358725D01*
X131619482Y-117319982D01*
X131658225Y-117288186D01*
X131705613Y-117262857D01*
X131721586Y-117256241D01*
X131741961Y-117242627D01*
X131759288Y-117225300D01*
X131772902Y-117204926D01*
X131782280Y-117182287D01*
X131787061Y-117158254D01*
X131787061Y-117133749D01*
X131782281Y-117109716D01*
X131772904Y-117087077D01*
X131759290Y-117066702D01*
X131741963Y-117049375D01*
X131721589Y-117035761D01*
X131698950Y-117026383D01*
X131674917Y-117021602D01*
X131662663Y-117021000D01*
X131360000Y-117021000D01*
X131360000Y-116446000D01*
X131357598Y-116421614D01*
X131350485Y-116398165D01*
X131338934Y-116376554D01*
X131323388Y-116357612D01*
X131304446Y-116342066D01*
X131282835Y-116330515D01*
X131259386Y-116323402D01*
X131235000Y-116321000D01*
X131218983Y-116321000D01*
X131213934Y-116311554D01*
X131198388Y-116292612D01*
X131179446Y-116277066D01*
X131157835Y-116265515D01*
X131134386Y-116258402D01*
X131110000Y-116256000D01*
X130315000Y-116256000D01*
X130315000Y-116062448D01*
X130314399Y-116050210D01*
X130313984Y-116046000D01*
X130314399Y-116041790D01*
X130315000Y-116029552D01*
X130315000Y-115562448D01*
X130314399Y-115550210D01*
X130313984Y-115546000D01*
X130314399Y-115541790D01*
X130315000Y-115529552D01*
X130315000Y-115062448D01*
X130314399Y-115050210D01*
X130313984Y-115046000D01*
X130314399Y-115041790D01*
X130315000Y-115029552D01*
X130315000Y-114562448D01*
X130314399Y-114550210D01*
X130313984Y-114546000D01*
X130314399Y-114541790D01*
X130315000Y-114529552D01*
X130315000Y-114062448D01*
X130314399Y-114050210D01*
X130313984Y-114046000D01*
X130314399Y-114041790D01*
X130315000Y-114029552D01*
X130315000Y-113836000D01*
X131110000Y-113836000D01*
X131134386Y-113833598D01*
X131157835Y-113826485D01*
X131179446Y-113814934D01*
X131198388Y-113799388D01*
X131213934Y-113780446D01*
X131218983Y-113771000D01*
X131235000Y-113771000D01*
X131259386Y-113768598D01*
X131282835Y-113761485D01*
X131304446Y-113749934D01*
X131323388Y-113734388D01*
X131338934Y-113715446D01*
X131350485Y-113693835D01*
X131357598Y-113670386D01*
X131360000Y-113646000D01*
X131360000Y-113068000D01*
X131357598Y-113043614D01*
X131350485Y-113020165D01*
X131338934Y-112998554D01*
X131323388Y-112979612D01*
X131304446Y-112964066D01*
X131282835Y-112952515D01*
X131259386Y-112945402D01*
X131235000Y-112943000D01*
X131196891Y-112943000D01*
X131140878Y-112937483D01*
X131092915Y-112922934D01*
X131048725Y-112899314D01*
X131009982Y-112867518D01*
X130978186Y-112828775D01*
X130954566Y-112784585D01*
X130940017Y-112736622D01*
X130934500Y-112680609D01*
X130934500Y-111855391D01*
X130940017Y-111799378D01*
X130954566Y-111751415D01*
X130978186Y-111707225D01*
X131009982Y-111668482D01*
X131048725Y-111636686D01*
X131092915Y-111613066D01*
X131140878Y-111598517D01*
X131196891Y-111593000D01*
X131947109Y-111593000D01*
X132003122Y-111598517D01*
X132003122Y-111598517D01*
G37*
G36*
X134187622Y-117250017D02*
X134235585Y-117264566D01*
X134279775Y-117288186D01*
X134318518Y-117319982D01*
X134350314Y-117358725D01*
X134373934Y-117402915D01*
X134388483Y-117450878D01*
X134394000Y-117506891D01*
X134394000Y-118332109D01*
X134388483Y-118388122D01*
X134373934Y-118436085D01*
X134350314Y-118480275D01*
X134318518Y-118519018D01*
X134279775Y-118550814D01*
X134235585Y-118574434D01*
X134187622Y-118588983D01*
X134131609Y-118594500D01*
X133381391Y-118594500D01*
X133325378Y-118588983D01*
X133277415Y-118574434D01*
X133233225Y-118550814D01*
X133194482Y-118519018D01*
X133162686Y-118480275D01*
X133139066Y-118436085D01*
X133124517Y-118388122D01*
X133119000Y-118332109D01*
X133119000Y-117506891D01*
X133124517Y-117450878D01*
X133139066Y-117402915D01*
X133162686Y-117358725D01*
X133194482Y-117319982D01*
X133233225Y-117288186D01*
X133280613Y-117262857D01*
X133296586Y-117256241D01*
X133311737Y-117246117D01*
X133347251Y-117247862D01*
X133381388Y-117244500D01*
X134131609Y-117244500D01*
X134187622Y-117250017D01*
X134187622Y-117250017D01*
G37*
G36*
X136486122Y-112868517D02*
X136534085Y-112883066D01*
X136578275Y-112906686D01*
X136617018Y-112938482D01*
X136648814Y-112977225D01*
X136672434Y-113021415D01*
X136686983Y-113069378D01*
X136692500Y-113125391D01*
X136692500Y-113950609D01*
X136686983Y-114006622D01*
X136672434Y-114054585D01*
X136648814Y-114098775D01*
X136617018Y-114137518D01*
X136578277Y-114169312D01*
X136540022Y-114189760D01*
X136519648Y-114203374D01*
X136502321Y-114220701D01*
X136488707Y-114241075D01*
X136479329Y-114263714D01*
X136474549Y-114287748D01*
X136474549Y-114312252D01*
X136479329Y-114336286D01*
X136488707Y-114358925D01*
X136502321Y-114379299D01*
X136519648Y-114396626D01*
X136540022Y-114410240D01*
X136578277Y-114430688D01*
X136617018Y-114462482D01*
X136648814Y-114501225D01*
X136672434Y-114545415D01*
X136686983Y-114593378D01*
X136692500Y-114649391D01*
X136692500Y-115474609D01*
X136686983Y-115530622D01*
X136672434Y-115578585D01*
X136648814Y-115622775D01*
X136617018Y-115661518D01*
X136578277Y-115693312D01*
X136540022Y-115713760D01*
X136519648Y-115727374D01*
X136502321Y-115744701D01*
X136488707Y-115765075D01*
X136479329Y-115787714D01*
X136474549Y-115811748D01*
X136474549Y-115836252D01*
X136479329Y-115860286D01*
X136488707Y-115882925D01*
X136502321Y-115903299D01*
X136519648Y-115920626D01*
X136540022Y-115934240D01*
X136578277Y-115954688D01*
X136617018Y-115986482D01*
X136648814Y-116025225D01*
X136672434Y-116069415D01*
X136686983Y-116117378D01*
X136692500Y-116173391D01*
X136692500Y-116998609D01*
X136686983Y-117054622D01*
X136672434Y-117102585D01*
X136648814Y-117146775D01*
X136617018Y-117185518D01*
X136578275Y-117217314D01*
X136534085Y-117240934D01*
X136486122Y-117255483D01*
X136430109Y-117261000D01*
X135679891Y-117261000D01*
X135623878Y-117255483D01*
X135575915Y-117240934D01*
X135531725Y-117217314D01*
X135492982Y-117185518D01*
X135461186Y-117146775D01*
X135437566Y-117102585D01*
X135423017Y-117054622D01*
X135417500Y-116998609D01*
X135417500Y-116173391D01*
X135423017Y-116117378D01*
X135437566Y-116069415D01*
X135461186Y-116025225D01*
X135492982Y-115986482D01*
X135531723Y-115954688D01*
X135569978Y-115934240D01*
X135590352Y-115920626D01*
X135607679Y-115903299D01*
X135621293Y-115882925D01*
X135630671Y-115860286D01*
X135635451Y-115836252D01*
X135635451Y-115811748D01*
X135630671Y-115787714D01*
X135621293Y-115765075D01*
X135607679Y-115744701D01*
X135590352Y-115727374D01*
X135569978Y-115713760D01*
X135531723Y-115693312D01*
X135492982Y-115661518D01*
X135461186Y-115622775D01*
X135437566Y-115578585D01*
X135423017Y-115530622D01*
X135417500Y-115474609D01*
X135417500Y-114649391D01*
X135423017Y-114593378D01*
X135437566Y-114545415D01*
X135461186Y-114501225D01*
X135492982Y-114462482D01*
X135531723Y-114430688D01*
X135569978Y-114410240D01*
X135590352Y-114396626D01*
X135607679Y-114379299D01*
X135621293Y-114358925D01*
X135630671Y-114336286D01*
X135635451Y-114312252D01*
X135635451Y-114287748D01*
X135630671Y-114263714D01*
X135621293Y-114241075D01*
X135607679Y-114220701D01*
X135590352Y-114203374D01*
X135569978Y-114189760D01*
X135531723Y-114169312D01*
X135492982Y-114137518D01*
X135461186Y-114098775D01*
X135437566Y-114054585D01*
X135423017Y-114006622D01*
X135417500Y-113950609D01*
X135417500Y-113125391D01*
X135423017Y-113069378D01*
X135437566Y-113021415D01*
X135461186Y-112977225D01*
X135492982Y-112938482D01*
X135531725Y-112906686D01*
X135575915Y-112883066D01*
X135623878Y-112868517D01*
X135679891Y-112863000D01*
X136430109Y-112863000D01*
X136486122Y-112868517D01*
X136486122Y-112868517D01*
G37*
G36*
X138061122Y-112868517D02*
X138109085Y-112883066D01*
X138153275Y-112906686D01*
X138192018Y-112938482D01*
X138223814Y-112977225D01*
X138247434Y-113021415D01*
X138261983Y-113069378D01*
X138267500Y-113125391D01*
X138267500Y-113950609D01*
X138261983Y-114006622D01*
X138247434Y-114054585D01*
X138223814Y-114098775D01*
X138192018Y-114137518D01*
X138153277Y-114169312D01*
X138115022Y-114189760D01*
X138094648Y-114203374D01*
X138077321Y-114220701D01*
X138063707Y-114241075D01*
X138054329Y-114263714D01*
X138049549Y-114287748D01*
X138049549Y-114312252D01*
X138054329Y-114336286D01*
X138063707Y-114358925D01*
X138077321Y-114379299D01*
X138094648Y-114396626D01*
X138115022Y-114410240D01*
X138153277Y-114430688D01*
X138192018Y-114462482D01*
X138223814Y-114501225D01*
X138247434Y-114545415D01*
X138261983Y-114593378D01*
X138267500Y-114649391D01*
X138267500Y-115474609D01*
X138261983Y-115530622D01*
X138247434Y-115578585D01*
X138223814Y-115622775D01*
X138192018Y-115661518D01*
X138153277Y-115693312D01*
X138115022Y-115713760D01*
X138094648Y-115727374D01*
X138077321Y-115744701D01*
X138063707Y-115765075D01*
X138054329Y-115787714D01*
X138049549Y-115811748D01*
X138049549Y-115836252D01*
X138054329Y-115860286D01*
X138063707Y-115882925D01*
X138077321Y-115903299D01*
X138094648Y-115920626D01*
X138115022Y-115934240D01*
X138153277Y-115954688D01*
X138192018Y-115986482D01*
X138223814Y-116025225D01*
X138247434Y-116069415D01*
X138261983Y-116117378D01*
X138267500Y-116173391D01*
X138267500Y-116998609D01*
X138261983Y-117054622D01*
X138247434Y-117102585D01*
X138223814Y-117146775D01*
X138192018Y-117185518D01*
X138153275Y-117217314D01*
X138109085Y-117240934D01*
X138061122Y-117255483D01*
X138005109Y-117261000D01*
X137254891Y-117261000D01*
X137198878Y-117255483D01*
X137150915Y-117240934D01*
X137106725Y-117217314D01*
X137067982Y-117185518D01*
X137036186Y-117146775D01*
X137012566Y-117102585D01*
X136998017Y-117054622D01*
X136992500Y-116998609D01*
X136992500Y-116173391D01*
X136998017Y-116117378D01*
X137012566Y-116069415D01*
X137036186Y-116025225D01*
X137067982Y-115986482D01*
X137106723Y-115954688D01*
X137144978Y-115934240D01*
X137165352Y-115920626D01*
X137182679Y-115903299D01*
X137196293Y-115882925D01*
X137205671Y-115860286D01*
X137210451Y-115836252D01*
X137210451Y-115811748D01*
X137205671Y-115787714D01*
X137196293Y-115765075D01*
X137182679Y-115744701D01*
X137165352Y-115727374D01*
X137144978Y-115713760D01*
X137106723Y-115693312D01*
X137067982Y-115661518D01*
X137036186Y-115622775D01*
X137012566Y-115578585D01*
X136998017Y-115530622D01*
X136992500Y-115474609D01*
X136992500Y-114649391D01*
X136998017Y-114593378D01*
X137012566Y-114545415D01*
X137036186Y-114501225D01*
X137067982Y-114462482D01*
X137106723Y-114430688D01*
X137144978Y-114410240D01*
X137165352Y-114396626D01*
X137182679Y-114379299D01*
X137196293Y-114358925D01*
X137205671Y-114336286D01*
X137210451Y-114312252D01*
X137210451Y-114287748D01*
X137205671Y-114263714D01*
X137196293Y-114241075D01*
X137182679Y-114220701D01*
X137165352Y-114203374D01*
X137144978Y-114189760D01*
X137106723Y-114169312D01*
X137067982Y-114137518D01*
X137036186Y-114098775D01*
X137012566Y-114054585D01*
X136998017Y-114006622D01*
X136992500Y-113950609D01*
X136992500Y-113125391D01*
X136998017Y-113069378D01*
X137012566Y-113021415D01*
X137036186Y-112977225D01*
X137067982Y-112938482D01*
X137106725Y-112906686D01*
X137150915Y-112883066D01*
X137198878Y-112868517D01*
X137254891Y-112863000D01*
X138005109Y-112863000D01*
X138061122Y-112868517D01*
X138061122Y-112868517D01*
G37*
G36*
X126848997Y-114866497D02*
X126901653Y-114882470D01*
X126950165Y-114908400D01*
X126992696Y-114943304D01*
X127027600Y-114985835D01*
X127053530Y-115034347D01*
X127069503Y-115087003D01*
X127075500Y-115147890D01*
X127075500Y-116373110D01*
X127069503Y-116433997D01*
X127053530Y-116486653D01*
X127027600Y-116535165D01*
X126992696Y-116577696D01*
X126950165Y-116612600D01*
X126901653Y-116638530D01*
X126848997Y-116654503D01*
X126788110Y-116660500D01*
X125987890Y-116660500D01*
X125927003Y-116654503D01*
X125874347Y-116638530D01*
X125825835Y-116612600D01*
X125783304Y-116577696D01*
X125748400Y-116535165D01*
X125722470Y-116486653D01*
X125706497Y-116433997D01*
X125700500Y-116373110D01*
X125700500Y-115147890D01*
X125706497Y-115087003D01*
X125722470Y-115034347D01*
X125748400Y-114985835D01*
X125783304Y-114943304D01*
X125825835Y-114908400D01*
X125874347Y-114882470D01*
X125927003Y-114866497D01*
X125987890Y-114860500D01*
X126788110Y-114860500D01*
X126848997Y-114866497D01*
X126848997Y-114866497D01*
G37*
G36*
X124973997Y-114866497D02*
X125026653Y-114882470D01*
X125075165Y-114908400D01*
X125117696Y-114943304D01*
X125152600Y-114985835D01*
X125178530Y-115034347D01*
X125194503Y-115087003D01*
X125200500Y-115147890D01*
X125200500Y-116373110D01*
X125194503Y-116433997D01*
X125178530Y-116486653D01*
X125152600Y-116535165D01*
X125117696Y-116577696D01*
X125075165Y-116612600D01*
X125026653Y-116638530D01*
X124973997Y-116654503D01*
X124913110Y-116660500D01*
X124112890Y-116660500D01*
X124052003Y-116654503D01*
X123999347Y-116638530D01*
X123950835Y-116612600D01*
X123908304Y-116577696D01*
X123873400Y-116535165D01*
X123847470Y-116486653D01*
X123831497Y-116433997D01*
X123825500Y-116373110D01*
X123825500Y-115147890D01*
X123831497Y-115087003D01*
X123847470Y-115034347D01*
X123873400Y-114985835D01*
X123908304Y-114943304D01*
X123950835Y-114908400D01*
X123999347Y-114882470D01*
X124052003Y-114866497D01*
X124112890Y-114860500D01*
X124913110Y-114860500D01*
X124973997Y-114866497D01*
X124973997Y-114866497D01*
G37*
G36*
X150623707Y-113130596D02*
X150700836Y-113138193D01*
X150832787Y-113178220D01*
X150898763Y-113198233D01*
X151081172Y-113295733D01*
X151241054Y-113426946D01*
X151372267Y-113586828D01*
X151469767Y-113769237D01*
X151473167Y-113780446D01*
X151529807Y-113967164D01*
X151550080Y-114173000D01*
X151529807Y-114378836D01*
X151504433Y-114462482D01*
X151469767Y-114576763D01*
X151372267Y-114759172D01*
X151241054Y-114919054D01*
X151081172Y-115050267D01*
X150898763Y-115147767D01*
X150847774Y-115163234D01*
X150700836Y-115207807D01*
X150623707Y-115215403D01*
X150546580Y-115223000D01*
X150443420Y-115223000D01*
X150366293Y-115215403D01*
X150289164Y-115207807D01*
X150142226Y-115163234D01*
X150091237Y-115147767D01*
X149908828Y-115050267D01*
X149748946Y-114919054D01*
X149617733Y-114759172D01*
X149520233Y-114576763D01*
X149485567Y-114462482D01*
X149460193Y-114378836D01*
X149439920Y-114173000D01*
X149460193Y-113967164D01*
X149516833Y-113780446D01*
X149520233Y-113769237D01*
X149617733Y-113586828D01*
X149748946Y-113426946D01*
X149908828Y-113295733D01*
X150091237Y-113198233D01*
X150157213Y-113178220D01*
X150289164Y-113138193D01*
X150366293Y-113130596D01*
X150443420Y-113123000D01*
X150546580Y-113123000D01*
X150623707Y-113130596D01*
X150623707Y-113130596D01*
G37*
G36*
X153163707Y-113130596D02*
X153240836Y-113138193D01*
X153372787Y-113178220D01*
X153438763Y-113198233D01*
X153621172Y-113295733D01*
X153781054Y-113426946D01*
X153912267Y-113586828D01*
X154009767Y-113769237D01*
X154013167Y-113780446D01*
X154069807Y-113967164D01*
X154090080Y-114173000D01*
X154069807Y-114378836D01*
X154044433Y-114462482D01*
X154009767Y-114576763D01*
X153912267Y-114759172D01*
X153781054Y-114919054D01*
X153621172Y-115050267D01*
X153438763Y-115147767D01*
X153387774Y-115163234D01*
X153240836Y-115207807D01*
X153163707Y-115215403D01*
X153086580Y-115223000D01*
X152983420Y-115223000D01*
X152906293Y-115215403D01*
X152829164Y-115207807D01*
X152682226Y-115163234D01*
X152631237Y-115147767D01*
X152448828Y-115050267D01*
X152288946Y-114919054D01*
X152157733Y-114759172D01*
X152060233Y-114576763D01*
X152025567Y-114462482D01*
X152000193Y-114378836D01*
X151979920Y-114173000D01*
X152000193Y-113967164D01*
X152056833Y-113780446D01*
X152060233Y-113769237D01*
X152157733Y-113586828D01*
X152288946Y-113426946D01*
X152448828Y-113295733D01*
X152631237Y-113198233D01*
X152697213Y-113178220D01*
X152829164Y-113138193D01*
X152906293Y-113130596D01*
X152983420Y-113123000D01*
X153086580Y-113123000D01*
X153163707Y-113130596D01*
X153163707Y-113130596D01*
G37*
G36*
X155703707Y-113130596D02*
X155780836Y-113138193D01*
X155912787Y-113178220D01*
X155978763Y-113198233D01*
X156161172Y-113295733D01*
X156321054Y-113426946D01*
X156452267Y-113586828D01*
X156549767Y-113769237D01*
X156553167Y-113780446D01*
X156609807Y-113967164D01*
X156630080Y-114173000D01*
X156609807Y-114378836D01*
X156584433Y-114462482D01*
X156549767Y-114576763D01*
X156452267Y-114759172D01*
X156321054Y-114919054D01*
X156161172Y-115050267D01*
X155978763Y-115147767D01*
X155927774Y-115163234D01*
X155780836Y-115207807D01*
X155703707Y-115215403D01*
X155626580Y-115223000D01*
X155523420Y-115223000D01*
X155446293Y-115215403D01*
X155369164Y-115207807D01*
X155222226Y-115163234D01*
X155171237Y-115147767D01*
X154988828Y-115050267D01*
X154828946Y-114919054D01*
X154697733Y-114759172D01*
X154600233Y-114576763D01*
X154565567Y-114462482D01*
X154540193Y-114378836D01*
X154519920Y-114173000D01*
X154540193Y-113967164D01*
X154596833Y-113780446D01*
X154600233Y-113769237D01*
X154697733Y-113586828D01*
X154828946Y-113426946D01*
X154988828Y-113295733D01*
X155171237Y-113198233D01*
X155237213Y-113178220D01*
X155369164Y-113138193D01*
X155446293Y-113130596D01*
X155523420Y-113123000D01*
X155626580Y-113123000D01*
X155703707Y-113130596D01*
X155703707Y-113130596D01*
G37*
G36*
X149005000Y-115223000D02*
X146905000Y-115223000D01*
X146905000Y-113123000D01*
X149005000Y-113123000D01*
X149005000Y-115223000D01*
X149005000Y-115223000D01*
G37*
G36*
X158243707Y-113130596D02*
X158320836Y-113138193D01*
X158452787Y-113178220D01*
X158518763Y-113198233D01*
X158701172Y-113295733D01*
X158861054Y-113426946D01*
X158992267Y-113586828D01*
X159089767Y-113769237D01*
X159093167Y-113780446D01*
X159149807Y-113967164D01*
X159170080Y-114173000D01*
X159149807Y-114378836D01*
X159124433Y-114462482D01*
X159089767Y-114576763D01*
X158992267Y-114759172D01*
X158861054Y-114919054D01*
X158701172Y-115050267D01*
X158518763Y-115147767D01*
X158467774Y-115163234D01*
X158320836Y-115207807D01*
X158243707Y-115215403D01*
X158166580Y-115223000D01*
X158063420Y-115223000D01*
X157986293Y-115215403D01*
X157909164Y-115207807D01*
X157762226Y-115163234D01*
X157711237Y-115147767D01*
X157528828Y-115050267D01*
X157368946Y-114919054D01*
X157237733Y-114759172D01*
X157140233Y-114576763D01*
X157105567Y-114462482D01*
X157080193Y-114378836D01*
X157059920Y-114173000D01*
X157080193Y-113967164D01*
X157136833Y-113780446D01*
X157140233Y-113769237D01*
X157237733Y-113586828D01*
X157368946Y-113426946D01*
X157528828Y-113295733D01*
X157711237Y-113198233D01*
X157777213Y-113178220D01*
X157909164Y-113138193D01*
X157986293Y-113130596D01*
X158063420Y-113123000D01*
X158166580Y-113123000D01*
X158243707Y-113130596D01*
X158243707Y-113130596D01*
G37*
G36*
X129679122Y-113186017D02*
X129727085Y-113200566D01*
X129771275Y-113224186D01*
X129810018Y-113255982D01*
X129841814Y-113294725D01*
X129865434Y-113338915D01*
X129879983Y-113386878D01*
X129885500Y-113442891D01*
X129885500Y-114268109D01*
X129879983Y-114324122D01*
X129865434Y-114372085D01*
X129841814Y-114416275D01*
X129810018Y-114455018D01*
X129771275Y-114486814D01*
X129727085Y-114510434D01*
X129679122Y-114524983D01*
X129623109Y-114530500D01*
X128872891Y-114530500D01*
X128816878Y-114524983D01*
X128768915Y-114510434D01*
X128724725Y-114486814D01*
X128685982Y-114455018D01*
X128654186Y-114416275D01*
X128630566Y-114372085D01*
X128616017Y-114324122D01*
X128610500Y-114268109D01*
X128610500Y-113442891D01*
X128616017Y-113386878D01*
X128630566Y-113338915D01*
X128654186Y-113294725D01*
X128685982Y-113255982D01*
X128724725Y-113224186D01*
X128768915Y-113200566D01*
X128816878Y-113186017D01*
X128872891Y-113180500D01*
X129623109Y-113180500D01*
X129679122Y-113186017D01*
X129679122Y-113186017D01*
G37*
G36*
X128104122Y-113186017D02*
X128152085Y-113200566D01*
X128196275Y-113224186D01*
X128235018Y-113255982D01*
X128266814Y-113294725D01*
X128290434Y-113338915D01*
X128304983Y-113386878D01*
X128310500Y-113442891D01*
X128310500Y-114268109D01*
X128304983Y-114324122D01*
X128290434Y-114372085D01*
X128266814Y-114416275D01*
X128235018Y-114455018D01*
X128196275Y-114486814D01*
X128152085Y-114510434D01*
X128104122Y-114524983D01*
X128048109Y-114530500D01*
X127297891Y-114530500D01*
X127241878Y-114524983D01*
X127193915Y-114510434D01*
X127149725Y-114486814D01*
X127110982Y-114455018D01*
X127079186Y-114416275D01*
X127055566Y-114372085D01*
X127041017Y-114324122D01*
X127035500Y-114268109D01*
X127035500Y-113442891D01*
X127041017Y-113386878D01*
X127055566Y-113338915D01*
X127079186Y-113294725D01*
X127110982Y-113255982D01*
X127149725Y-113224186D01*
X127193915Y-113200566D01*
X127241878Y-113186017D01*
X127297891Y-113180500D01*
X128048109Y-113180500D01*
X128104122Y-113186017D01*
X128104122Y-113186017D01*
G37*
G36*
X174117000Y-114518000D02*
X161417000Y-114518000D01*
X161417000Y-112618000D01*
X174117000Y-112618000D01*
X174117000Y-114518000D01*
X174117000Y-114518000D01*
G37*
G36*
X148970000Y-112548000D02*
X147670000Y-112548000D01*
X147670000Y-111348000D01*
X148970000Y-111348000D01*
X148970000Y-112548000D01*
X148970000Y-112548000D01*
G37*
G36*
X161067000Y-112268000D02*
X159167000Y-112268000D01*
X159167000Y-99568000D01*
X161067000Y-99568000D01*
X161067000Y-112268000D01*
X161067000Y-112268000D01*
G37*
G36*
X176367000Y-112268000D02*
X174467000Y-112268000D01*
X174467000Y-99568000D01*
X176367000Y-99568000D01*
X176367000Y-112268000D01*
X176367000Y-112268000D01*
G37*
G36*
X145045422Y-110975717D02*
X145093385Y-110990266D01*
X145137575Y-111013886D01*
X145176318Y-111045682D01*
X145208114Y-111084425D01*
X145231734Y-111128615D01*
X145246283Y-111176578D01*
X145251800Y-111232591D01*
X145251800Y-111982809D01*
X145246283Y-112038822D01*
X145231734Y-112086785D01*
X145208114Y-112130975D01*
X145176318Y-112169718D01*
X145137575Y-112201514D01*
X145093385Y-112225134D01*
X145045422Y-112239683D01*
X144989409Y-112245200D01*
X144164191Y-112245200D01*
X144108178Y-112239683D01*
X144060215Y-112225134D01*
X144016025Y-112201514D01*
X143977282Y-112169718D01*
X143945486Y-112130975D01*
X143921866Y-112086785D01*
X143907317Y-112038822D01*
X143901800Y-111982809D01*
X143901800Y-111232591D01*
X143907317Y-111176578D01*
X143921866Y-111128615D01*
X143945486Y-111084425D01*
X143977282Y-111045682D01*
X144016025Y-111013886D01*
X144060215Y-110990266D01*
X144108178Y-110975717D01*
X144164191Y-110970200D01*
X144989409Y-110970200D01*
X145045422Y-110975717D01*
X145045422Y-110975717D01*
G37*
G36*
X110555207Y-110019096D02*
X110632336Y-110026693D01*
X110764287Y-110066720D01*
X110830263Y-110086733D01*
X111012672Y-110184233D01*
X111172554Y-110315446D01*
X111303767Y-110475328D01*
X111401267Y-110657737D01*
X111421280Y-110723713D01*
X111461307Y-110855664D01*
X111481580Y-111061500D01*
X111461307Y-111267336D01*
X111454750Y-111288950D01*
X111401267Y-111465263D01*
X111303767Y-111647672D01*
X111172554Y-111807554D01*
X111012672Y-111938767D01*
X110830263Y-112036267D01*
X110790166Y-112048430D01*
X110632336Y-112096307D01*
X110558918Y-112103538D01*
X110478080Y-112111500D01*
X110374920Y-112111500D01*
X110294082Y-112103538D01*
X110220664Y-112096307D01*
X110062834Y-112048430D01*
X110022737Y-112036267D01*
X109840328Y-111938767D01*
X109680446Y-111807554D01*
X109549233Y-111647672D01*
X109451733Y-111465263D01*
X109398250Y-111288950D01*
X109391693Y-111267336D01*
X109371420Y-111061500D01*
X109391693Y-110855664D01*
X109431720Y-110723713D01*
X109451733Y-110657737D01*
X109549233Y-110475328D01*
X109680446Y-110315446D01*
X109840328Y-110184233D01*
X110022737Y-110086733D01*
X110088713Y-110066720D01*
X110220664Y-110026693D01*
X110297793Y-110019096D01*
X110374920Y-110011500D01*
X110478080Y-110011500D01*
X110555207Y-110019096D01*
X110555207Y-110019096D01*
G37*
G36*
X100268207Y-110019096D02*
X100345336Y-110026693D01*
X100477287Y-110066720D01*
X100543263Y-110086733D01*
X100725672Y-110184233D01*
X100885554Y-110315446D01*
X101016767Y-110475328D01*
X101114267Y-110657737D01*
X101134280Y-110723713D01*
X101174307Y-110855664D01*
X101194580Y-111061500D01*
X101174307Y-111267336D01*
X101167750Y-111288950D01*
X101114267Y-111465263D01*
X101016767Y-111647672D01*
X100885554Y-111807554D01*
X100725672Y-111938767D01*
X100543263Y-112036267D01*
X100503166Y-112048430D01*
X100345336Y-112096307D01*
X100271918Y-112103538D01*
X100191080Y-112111500D01*
X100087920Y-112111500D01*
X100007082Y-112103538D01*
X99933664Y-112096307D01*
X99775834Y-112048430D01*
X99735737Y-112036267D01*
X99553328Y-111938767D01*
X99393446Y-111807554D01*
X99262233Y-111647672D01*
X99164733Y-111465263D01*
X99111250Y-111288950D01*
X99104693Y-111267336D01*
X99084420Y-111061500D01*
X99104693Y-110855664D01*
X99144720Y-110723713D01*
X99164733Y-110657737D01*
X99262233Y-110475328D01*
X99393446Y-110315446D01*
X99553328Y-110184233D01*
X99735737Y-110086733D01*
X99801713Y-110066720D01*
X99933664Y-110026693D01*
X100010793Y-110019096D01*
X100087920Y-110011500D01*
X100191080Y-110011500D01*
X100268207Y-110019096D01*
X100268207Y-110019096D01*
G37*
G36*
X97728207Y-110019096D02*
X97805336Y-110026693D01*
X97937287Y-110066720D01*
X98003263Y-110086733D01*
X98185672Y-110184233D01*
X98345554Y-110315446D01*
X98476767Y-110475328D01*
X98574267Y-110657737D01*
X98594280Y-110723713D01*
X98634307Y-110855664D01*
X98654580Y-111061500D01*
X98634307Y-111267336D01*
X98627750Y-111288950D01*
X98574267Y-111465263D01*
X98476767Y-111647672D01*
X98345554Y-111807554D01*
X98185672Y-111938767D01*
X98003263Y-112036267D01*
X97963166Y-112048430D01*
X97805336Y-112096307D01*
X97731918Y-112103538D01*
X97651080Y-112111500D01*
X97547920Y-112111500D01*
X97467082Y-112103538D01*
X97393664Y-112096307D01*
X97235834Y-112048430D01*
X97195737Y-112036267D01*
X97013328Y-111938767D01*
X96853446Y-111807554D01*
X96722233Y-111647672D01*
X96624733Y-111465263D01*
X96571250Y-111288950D01*
X96564693Y-111267336D01*
X96544420Y-111061500D01*
X96564693Y-110855664D01*
X96604720Y-110723713D01*
X96624733Y-110657737D01*
X96722233Y-110475328D01*
X96853446Y-110315446D01*
X97013328Y-110184233D01*
X97195737Y-110086733D01*
X97261713Y-110066720D01*
X97393664Y-110026693D01*
X97470793Y-110019096D01*
X97547920Y-110011500D01*
X97651080Y-110011500D01*
X97728207Y-110019096D01*
X97728207Y-110019096D01*
G37*
G36*
X113095207Y-110019096D02*
X113172336Y-110026693D01*
X113304287Y-110066720D01*
X113370263Y-110086733D01*
X113552672Y-110184233D01*
X113712554Y-110315446D01*
X113843767Y-110475328D01*
X113941267Y-110657737D01*
X113961280Y-110723713D01*
X114001307Y-110855664D01*
X114021580Y-111061500D01*
X114001307Y-111267336D01*
X113994750Y-111288950D01*
X113941267Y-111465263D01*
X113843767Y-111647672D01*
X113712554Y-111807554D01*
X113552672Y-111938767D01*
X113370263Y-112036267D01*
X113330166Y-112048430D01*
X113172336Y-112096307D01*
X113098918Y-112103538D01*
X113018080Y-112111500D01*
X112914920Y-112111500D01*
X112834082Y-112103538D01*
X112760664Y-112096307D01*
X112602834Y-112048430D01*
X112562737Y-112036267D01*
X112380328Y-111938767D01*
X112220446Y-111807554D01*
X112089233Y-111647672D01*
X111991733Y-111465263D01*
X111938250Y-111288950D01*
X111931693Y-111267336D01*
X111911420Y-111061500D01*
X111931693Y-110855664D01*
X111971720Y-110723713D01*
X111991733Y-110657737D01*
X112089233Y-110475328D01*
X112220446Y-110315446D01*
X112380328Y-110184233D01*
X112562737Y-110086733D01*
X112628713Y-110066720D01*
X112760664Y-110026693D01*
X112837793Y-110019096D01*
X112914920Y-110011500D01*
X113018080Y-110011500D01*
X113095207Y-110019096D01*
X113095207Y-110019096D01*
G37*
G36*
X146970000Y-111598000D02*
X145670000Y-111598000D01*
X145670000Y-110398000D01*
X146970000Y-110398000D01*
X146970000Y-111598000D01*
X146970000Y-111598000D01*
G37*
G36*
X95642422Y-109883416D02*
X95690385Y-109897965D01*
X95734575Y-109921585D01*
X95773318Y-109953381D01*
X95805114Y-109992124D01*
X95828734Y-110036314D01*
X95843283Y-110084277D01*
X95848800Y-110140290D01*
X95848800Y-110890508D01*
X95843283Y-110946521D01*
X95828734Y-110994484D01*
X95805114Y-111038674D01*
X95773318Y-111077417D01*
X95734575Y-111109213D01*
X95690385Y-111132833D01*
X95642422Y-111147382D01*
X95586409Y-111152899D01*
X94761191Y-111152899D01*
X94705178Y-111147382D01*
X94657215Y-111132833D01*
X94613025Y-111109213D01*
X94574282Y-111077417D01*
X94542486Y-111038674D01*
X94518866Y-110994484D01*
X94504317Y-110946521D01*
X94498800Y-110890508D01*
X94498800Y-110140290D01*
X94504317Y-110084277D01*
X94518866Y-110036314D01*
X94542486Y-109992124D01*
X94574282Y-109953381D01*
X94613025Y-109921585D01*
X94657215Y-109897965D01*
X94705178Y-109883416D01*
X94761191Y-109877899D01*
X95586409Y-109877899D01*
X95642422Y-109883416D01*
X95642422Y-109883416D01*
G37*
G36*
X145045422Y-109400717D02*
X145093385Y-109415266D01*
X145137575Y-109438886D01*
X145176318Y-109470682D01*
X145208114Y-109509425D01*
X145231734Y-109553615D01*
X145246283Y-109601578D01*
X145251800Y-109657591D01*
X145251800Y-110407809D01*
X145246283Y-110463822D01*
X145231734Y-110511785D01*
X145208114Y-110555975D01*
X145176318Y-110594718D01*
X145137575Y-110626514D01*
X145093385Y-110650134D01*
X145045422Y-110664683D01*
X144989409Y-110670200D01*
X144164191Y-110670200D01*
X144108178Y-110664683D01*
X144060215Y-110650134D01*
X144016025Y-110626514D01*
X143977282Y-110594718D01*
X143945486Y-110555975D01*
X143921866Y-110511785D01*
X143907317Y-110463822D01*
X143901800Y-110407809D01*
X143901800Y-109657591D01*
X143907317Y-109601578D01*
X143921866Y-109553615D01*
X143945486Y-109509425D01*
X143977282Y-109470682D01*
X144016025Y-109438886D01*
X144060215Y-109415266D01*
X144108178Y-109400717D01*
X144164191Y-109395200D01*
X144989409Y-109395200D01*
X145045422Y-109400717D01*
X145045422Y-109400717D01*
G37*
G36*
X148970000Y-110648000D02*
X147670000Y-110648000D01*
X147670000Y-109448000D01*
X148970000Y-109448000D01*
X148970000Y-110648000D01*
X148970000Y-110648000D01*
G37*
G36*
X95642422Y-108308416D02*
X95690385Y-108322965D01*
X95734575Y-108346585D01*
X95773318Y-108378381D01*
X95805114Y-108417124D01*
X95828734Y-108461314D01*
X95843283Y-108509277D01*
X95848800Y-108565290D01*
X95848800Y-109315508D01*
X95843283Y-109371521D01*
X95828734Y-109419484D01*
X95805114Y-109463674D01*
X95773318Y-109502417D01*
X95734575Y-109534213D01*
X95690385Y-109557833D01*
X95642422Y-109572382D01*
X95586409Y-109577899D01*
X94761191Y-109577899D01*
X94705178Y-109572382D01*
X94657215Y-109557833D01*
X94613025Y-109534213D01*
X94574282Y-109502417D01*
X94542486Y-109463674D01*
X94518866Y-109419484D01*
X94504317Y-109371521D01*
X94498800Y-109315508D01*
X94498800Y-108565290D01*
X94504317Y-108509277D01*
X94518866Y-108461314D01*
X94542486Y-108417124D01*
X94574282Y-108378381D01*
X94613025Y-108346585D01*
X94657215Y-108322965D01*
X94705178Y-108308416D01*
X94761191Y-108302899D01*
X95586409Y-108302899D01*
X95642422Y-108308416D01*
X95642422Y-108308416D01*
G37*
G36*
X100268207Y-107479097D02*
X100345336Y-107486693D01*
X100477287Y-107526720D01*
X100543263Y-107546733D01*
X100725672Y-107644233D01*
X100885554Y-107775446D01*
X101016767Y-107935328D01*
X101114267Y-108117737D01*
X101114267Y-108117738D01*
X101174307Y-108315664D01*
X101194580Y-108521500D01*
X101174307Y-108727336D01*
X101134280Y-108859287D01*
X101114267Y-108925263D01*
X101016767Y-109107672D01*
X100885554Y-109267554D01*
X100725672Y-109398767D01*
X100543263Y-109496267D01*
X100499886Y-109509425D01*
X100345336Y-109556307D01*
X100268207Y-109563904D01*
X100191080Y-109571500D01*
X100087920Y-109571500D01*
X100010793Y-109563904D01*
X99933664Y-109556307D01*
X99779114Y-109509425D01*
X99735737Y-109496267D01*
X99553328Y-109398767D01*
X99393446Y-109267554D01*
X99262233Y-109107672D01*
X99164733Y-108925263D01*
X99144720Y-108859287D01*
X99104693Y-108727336D01*
X99084420Y-108521500D01*
X99104693Y-108315664D01*
X99164733Y-108117738D01*
X99164733Y-108117737D01*
X99262233Y-107935328D01*
X99393446Y-107775446D01*
X99553328Y-107644233D01*
X99735737Y-107546733D01*
X99801713Y-107526720D01*
X99933664Y-107486693D01*
X100010793Y-107479097D01*
X100087920Y-107471500D01*
X100191080Y-107471500D01*
X100268207Y-107479097D01*
X100268207Y-107479097D01*
G37*
G36*
X110555207Y-107479097D02*
X110632336Y-107486693D01*
X110764287Y-107526720D01*
X110830263Y-107546733D01*
X111012672Y-107644233D01*
X111172554Y-107775446D01*
X111303767Y-107935328D01*
X111401267Y-108117737D01*
X111401267Y-108117738D01*
X111461307Y-108315664D01*
X111481580Y-108521500D01*
X111461307Y-108727336D01*
X111421280Y-108859287D01*
X111401267Y-108925263D01*
X111303767Y-109107672D01*
X111172554Y-109267554D01*
X111012672Y-109398767D01*
X110830263Y-109496267D01*
X110786886Y-109509425D01*
X110632336Y-109556307D01*
X110555207Y-109563904D01*
X110478080Y-109571500D01*
X110374920Y-109571500D01*
X110297793Y-109563904D01*
X110220664Y-109556307D01*
X110066114Y-109509425D01*
X110022737Y-109496267D01*
X109840328Y-109398767D01*
X109680446Y-109267554D01*
X109549233Y-109107672D01*
X109451733Y-108925263D01*
X109431720Y-108859287D01*
X109391693Y-108727336D01*
X109371420Y-108521500D01*
X109391693Y-108315664D01*
X109451733Y-108117738D01*
X109451733Y-108117737D01*
X109549233Y-107935328D01*
X109680446Y-107775446D01*
X109840328Y-107644233D01*
X110022737Y-107546733D01*
X110088713Y-107526720D01*
X110220664Y-107486693D01*
X110297793Y-107479097D01*
X110374920Y-107471500D01*
X110478080Y-107471500D01*
X110555207Y-107479097D01*
X110555207Y-107479097D01*
G37*
G36*
X97728207Y-107479097D02*
X97805336Y-107486693D01*
X97937287Y-107526720D01*
X98003263Y-107546733D01*
X98185672Y-107644233D01*
X98345554Y-107775446D01*
X98476767Y-107935328D01*
X98574267Y-108117737D01*
X98574267Y-108117738D01*
X98634307Y-108315664D01*
X98654580Y-108521500D01*
X98634307Y-108727336D01*
X98594280Y-108859287D01*
X98574267Y-108925263D01*
X98476767Y-109107672D01*
X98345554Y-109267554D01*
X98185672Y-109398767D01*
X98003263Y-109496267D01*
X97959886Y-109509425D01*
X97805336Y-109556307D01*
X97728207Y-109563904D01*
X97651080Y-109571500D01*
X97547920Y-109571500D01*
X97470793Y-109563904D01*
X97393664Y-109556307D01*
X97239114Y-109509425D01*
X97195737Y-109496267D01*
X97013328Y-109398767D01*
X96853446Y-109267554D01*
X96722233Y-109107672D01*
X96624733Y-108925263D01*
X96604720Y-108859287D01*
X96564693Y-108727336D01*
X96544420Y-108521500D01*
X96564693Y-108315664D01*
X96624733Y-108117738D01*
X96624733Y-108117737D01*
X96722233Y-107935328D01*
X96853446Y-107775446D01*
X97013328Y-107644233D01*
X97195737Y-107546733D01*
X97261713Y-107526720D01*
X97393664Y-107486693D01*
X97470793Y-107479097D01*
X97547920Y-107471500D01*
X97651080Y-107471500D01*
X97728207Y-107479097D01*
X97728207Y-107479097D01*
G37*
G36*
X113095207Y-107479097D02*
X113172336Y-107486693D01*
X113304287Y-107526720D01*
X113370263Y-107546733D01*
X113552672Y-107644233D01*
X113712554Y-107775446D01*
X113843767Y-107935328D01*
X113941267Y-108117737D01*
X113941267Y-108117738D01*
X114001307Y-108315664D01*
X114021580Y-108521500D01*
X114001307Y-108727336D01*
X113961280Y-108859287D01*
X113941267Y-108925263D01*
X113843767Y-109107672D01*
X113712554Y-109267554D01*
X113552672Y-109398767D01*
X113370263Y-109496267D01*
X113326886Y-109509425D01*
X113172336Y-109556307D01*
X113095207Y-109563904D01*
X113018080Y-109571500D01*
X112914920Y-109571500D01*
X112837793Y-109563904D01*
X112760664Y-109556307D01*
X112606114Y-109509425D01*
X112562737Y-109496267D01*
X112380328Y-109398767D01*
X112220446Y-109267554D01*
X112089233Y-109107672D01*
X111991733Y-108925263D01*
X111971720Y-108859287D01*
X111931693Y-108727336D01*
X111911420Y-108521500D01*
X111931693Y-108315664D01*
X111991733Y-108117738D01*
X111991733Y-108117737D01*
X112089233Y-107935328D01*
X112220446Y-107775446D01*
X112380328Y-107644233D01*
X112562737Y-107546733D01*
X112628713Y-107526720D01*
X112760664Y-107486693D01*
X112837793Y-107479097D01*
X112914920Y-107471500D01*
X113018080Y-107471500D01*
X113095207Y-107479097D01*
X113095207Y-107479097D01*
G37*
G36*
X117948566Y-106132446D02*
X117964112Y-106151388D01*
X117983054Y-106166934D01*
X118004665Y-106178485D01*
X118028114Y-106185598D01*
X118052500Y-106188000D01*
X118802500Y-106188000D01*
X118826886Y-106185598D01*
X118850335Y-106178485D01*
X118871946Y-106166934D01*
X118890888Y-106151388D01*
X118906434Y-106132446D01*
X118916828Y-106113000D01*
X119827500Y-106113000D01*
X119827500Y-108263000D01*
X118916828Y-108263000D01*
X118906434Y-108243554D01*
X118890888Y-108224612D01*
X118871946Y-108209066D01*
X118850335Y-108197515D01*
X118826886Y-108190402D01*
X118802500Y-108188000D01*
X118052500Y-108188000D01*
X118028114Y-108190402D01*
X118004665Y-108197515D01*
X117983054Y-108209066D01*
X117964112Y-108224612D01*
X117948566Y-108243554D01*
X117938172Y-108263000D01*
X117027500Y-108263000D01*
X117027500Y-106113000D01*
X117938172Y-106113000D01*
X117948566Y-106132446D01*
X117948566Y-106132446D01*
G37*
G36*
X104613566Y-106132446D02*
X104629112Y-106151388D01*
X104648054Y-106166934D01*
X104669665Y-106178485D01*
X104693114Y-106185598D01*
X104717500Y-106188000D01*
X105467500Y-106188000D01*
X105491886Y-106185598D01*
X105515335Y-106178485D01*
X105536946Y-106166934D01*
X105555888Y-106151388D01*
X105571434Y-106132446D01*
X105581828Y-106113000D01*
X106492500Y-106113000D01*
X106492500Y-108263000D01*
X105581828Y-108263000D01*
X105571434Y-108243554D01*
X105555888Y-108224612D01*
X105536946Y-108209066D01*
X105515335Y-108197515D01*
X105491886Y-108190402D01*
X105467500Y-108188000D01*
X104717500Y-108188000D01*
X104693114Y-108190402D01*
X104669665Y-108197515D01*
X104648054Y-108209066D01*
X104629112Y-108224612D01*
X104613566Y-108243554D01*
X104603172Y-108263000D01*
X103692500Y-108263000D01*
X103692500Y-106113000D01*
X104603172Y-106113000D01*
X104613566Y-106132446D01*
X104613566Y-106132446D01*
G37*
G36*
X124535622Y-106582017D02*
X124583585Y-106596566D01*
X124627775Y-106620186D01*
X124666518Y-106651982D01*
X124698314Y-106690725D01*
X124721934Y-106734915D01*
X124736483Y-106782878D01*
X124742000Y-106838891D01*
X124742000Y-107664109D01*
X124736483Y-107720122D01*
X124721934Y-107768085D01*
X124698314Y-107812275D01*
X124666518Y-107851018D01*
X124627775Y-107882814D01*
X124583585Y-107906434D01*
X124535622Y-107920983D01*
X124479609Y-107926500D01*
X123729391Y-107926500D01*
X123673378Y-107920983D01*
X123625415Y-107906434D01*
X123581225Y-107882814D01*
X123542482Y-107851018D01*
X123510686Y-107812275D01*
X123487066Y-107768085D01*
X123472517Y-107720122D01*
X123467000Y-107664109D01*
X123467000Y-106838891D01*
X123472517Y-106782878D01*
X123487066Y-106734915D01*
X123510686Y-106690725D01*
X123542482Y-106651982D01*
X123581225Y-106620186D01*
X123625415Y-106596566D01*
X123673378Y-106582017D01*
X123729391Y-106576500D01*
X124479609Y-106576500D01*
X124535622Y-106582017D01*
X124535622Y-106582017D01*
G37*
G36*
X122960622Y-106582017D02*
X123008585Y-106596566D01*
X123052775Y-106620186D01*
X123091518Y-106651982D01*
X123123314Y-106690725D01*
X123146934Y-106734915D01*
X123161483Y-106782878D01*
X123167000Y-106838891D01*
X123167000Y-107664109D01*
X123161483Y-107720122D01*
X123146934Y-107768085D01*
X123123314Y-107812275D01*
X123091518Y-107851018D01*
X123052775Y-107882814D01*
X123008585Y-107906434D01*
X122960622Y-107920983D01*
X122904609Y-107926500D01*
X122154391Y-107926500D01*
X122098378Y-107920983D01*
X122050415Y-107906434D01*
X122006225Y-107882814D01*
X121967482Y-107851018D01*
X121935686Y-107812275D01*
X121912066Y-107768085D01*
X121897517Y-107720122D01*
X121892000Y-107664109D01*
X121892000Y-106838891D01*
X121897517Y-106782878D01*
X121912066Y-106734915D01*
X121935686Y-106690725D01*
X121967482Y-106651982D01*
X122006225Y-106620186D01*
X122050415Y-106596566D01*
X122098378Y-106582017D01*
X122154391Y-106576500D01*
X122904609Y-106576500D01*
X122960622Y-106582017D01*
X122960622Y-106582017D01*
G37*
G36*
X113095207Y-104939096D02*
X113172336Y-104946693D01*
X113304287Y-104986720D01*
X113370263Y-105006733D01*
X113552672Y-105104233D01*
X113712554Y-105235446D01*
X113843767Y-105395328D01*
X113941267Y-105577737D01*
X113941267Y-105577738D01*
X114001307Y-105775664D01*
X114021580Y-105981500D01*
X114001307Y-106187336D01*
X113976838Y-106268000D01*
X113941267Y-106385263D01*
X113843767Y-106567672D01*
X113712554Y-106727554D01*
X113552672Y-106858767D01*
X113370263Y-106956267D01*
X113304287Y-106976280D01*
X113172336Y-107016307D01*
X113095207Y-107023903D01*
X113018080Y-107031500D01*
X112914920Y-107031500D01*
X112837793Y-107023903D01*
X112760664Y-107016307D01*
X112628713Y-106976280D01*
X112562737Y-106956267D01*
X112380328Y-106858767D01*
X112220446Y-106727554D01*
X112089233Y-106567672D01*
X111991733Y-106385263D01*
X111956162Y-106268000D01*
X111931693Y-106187336D01*
X111911420Y-105981500D01*
X111931693Y-105775664D01*
X111991733Y-105577738D01*
X111991733Y-105577737D01*
X112089233Y-105395328D01*
X112220446Y-105235446D01*
X112380328Y-105104233D01*
X112562737Y-105006733D01*
X112628713Y-104986720D01*
X112760664Y-104946693D01*
X112837793Y-104939097D01*
X112914920Y-104931500D01*
X113018080Y-104931500D01*
X113095207Y-104939096D01*
X113095207Y-104939096D01*
G37*
G36*
X97728207Y-104939096D02*
X97805336Y-104946693D01*
X97937287Y-104986720D01*
X98003263Y-105006733D01*
X98185672Y-105104233D01*
X98345554Y-105235446D01*
X98476767Y-105395328D01*
X98574267Y-105577737D01*
X98574267Y-105577738D01*
X98634307Y-105775664D01*
X98654580Y-105981500D01*
X98634307Y-106187336D01*
X98609838Y-106268000D01*
X98574267Y-106385263D01*
X98476767Y-106567672D01*
X98345554Y-106727554D01*
X98185672Y-106858767D01*
X98003263Y-106956267D01*
X97937287Y-106976280D01*
X97805336Y-107016307D01*
X97728207Y-107023903D01*
X97651080Y-107031500D01*
X97547920Y-107031500D01*
X97470793Y-107023903D01*
X97393664Y-107016307D01*
X97261713Y-106976280D01*
X97195737Y-106956267D01*
X97013328Y-106858767D01*
X96853446Y-106727554D01*
X96722233Y-106567672D01*
X96624733Y-106385263D01*
X96589162Y-106268000D01*
X96564693Y-106187336D01*
X96544420Y-105981500D01*
X96564693Y-105775664D01*
X96624733Y-105577738D01*
X96624733Y-105577737D01*
X96722233Y-105395328D01*
X96853446Y-105235446D01*
X97013328Y-105104233D01*
X97195737Y-105006733D01*
X97261713Y-104986720D01*
X97393664Y-104946693D01*
X97470793Y-104939097D01*
X97547920Y-104931500D01*
X97651080Y-104931500D01*
X97728207Y-104939096D01*
X97728207Y-104939096D01*
G37*
G36*
X100268207Y-104939096D02*
X100345336Y-104946693D01*
X100477287Y-104986720D01*
X100543263Y-105006733D01*
X100725672Y-105104233D01*
X100885554Y-105235446D01*
X101016767Y-105395328D01*
X101114267Y-105577737D01*
X101114267Y-105577738D01*
X101174307Y-105775664D01*
X101194580Y-105981500D01*
X101174307Y-106187336D01*
X101149838Y-106268000D01*
X101114267Y-106385263D01*
X101016767Y-106567672D01*
X100885554Y-106727554D01*
X100725672Y-106858767D01*
X100543263Y-106956267D01*
X100477287Y-106976280D01*
X100345336Y-107016307D01*
X100268207Y-107023903D01*
X100191080Y-107031500D01*
X100087920Y-107031500D01*
X100010793Y-107023903D01*
X99933664Y-107016307D01*
X99801713Y-106976280D01*
X99735737Y-106956267D01*
X99553328Y-106858767D01*
X99393446Y-106727554D01*
X99262233Y-106567672D01*
X99164733Y-106385263D01*
X99129162Y-106268000D01*
X99104693Y-106187336D01*
X99084420Y-105981500D01*
X99104693Y-105775664D01*
X99164733Y-105577738D01*
X99164733Y-105577737D01*
X99262233Y-105395328D01*
X99393446Y-105235446D01*
X99553328Y-105104233D01*
X99735737Y-105006733D01*
X99801713Y-104986720D01*
X99933664Y-104946693D01*
X100010793Y-104939097D01*
X100087920Y-104931500D01*
X100191080Y-104931500D01*
X100268207Y-104939096D01*
X100268207Y-104939096D01*
G37*
G36*
X110555207Y-104939096D02*
X110632336Y-104946693D01*
X110764287Y-104986720D01*
X110830263Y-105006733D01*
X111012672Y-105104233D01*
X111172554Y-105235446D01*
X111303767Y-105395328D01*
X111401267Y-105577737D01*
X111401267Y-105577738D01*
X111461307Y-105775664D01*
X111481580Y-105981500D01*
X111461307Y-106187336D01*
X111436838Y-106268000D01*
X111401267Y-106385263D01*
X111303767Y-106567672D01*
X111172554Y-106727554D01*
X111012672Y-106858767D01*
X110830263Y-106956267D01*
X110764287Y-106976280D01*
X110632336Y-107016307D01*
X110555207Y-107023903D01*
X110478080Y-107031500D01*
X110374920Y-107031500D01*
X110297793Y-107023903D01*
X110220664Y-107016307D01*
X110088713Y-106976280D01*
X110022737Y-106956267D01*
X109840328Y-106858767D01*
X109680446Y-106727554D01*
X109549233Y-106567672D01*
X109451733Y-106385263D01*
X109416162Y-106268000D01*
X109391693Y-106187336D01*
X109371420Y-105981500D01*
X109391693Y-105775664D01*
X109451733Y-105577738D01*
X109451733Y-105577737D01*
X109549233Y-105395328D01*
X109680446Y-105235446D01*
X109840328Y-105104233D01*
X110022737Y-105006733D01*
X110088713Y-104986720D01*
X110220664Y-104946693D01*
X110297793Y-104939097D01*
X110374920Y-104931500D01*
X110478080Y-104931500D01*
X110555207Y-104939096D01*
X110555207Y-104939096D01*
G37*
G36*
X100268207Y-102399096D02*
X100345336Y-102406693D01*
X100477287Y-102446720D01*
X100543263Y-102466733D01*
X100725672Y-102564233D01*
X100885554Y-102695446D01*
X101016767Y-102855328D01*
X101114267Y-103037737D01*
X101114267Y-103037738D01*
X101174307Y-103235664D01*
X101194580Y-103441500D01*
X101174307Y-103647336D01*
X101137704Y-103768000D01*
X101114267Y-103845263D01*
X101016767Y-104027672D01*
X100885554Y-104187554D01*
X100725672Y-104318767D01*
X100543263Y-104416267D01*
X100477287Y-104436280D01*
X100345336Y-104476307D01*
X100268207Y-104483903D01*
X100191080Y-104491500D01*
X100087920Y-104491500D01*
X100010793Y-104483904D01*
X99933664Y-104476307D01*
X99801713Y-104436280D01*
X99735737Y-104416267D01*
X99553328Y-104318767D01*
X99393446Y-104187554D01*
X99262233Y-104027672D01*
X99164733Y-103845263D01*
X99141296Y-103768000D01*
X99104693Y-103647336D01*
X99084420Y-103441500D01*
X99104693Y-103235664D01*
X99164733Y-103037738D01*
X99164733Y-103037737D01*
X99262233Y-102855328D01*
X99393446Y-102695446D01*
X99553328Y-102564233D01*
X99735737Y-102466733D01*
X99801713Y-102446720D01*
X99933664Y-102406693D01*
X100010793Y-102399096D01*
X100087920Y-102391500D01*
X100191080Y-102391500D01*
X100268207Y-102399096D01*
X100268207Y-102399096D01*
G37*
G36*
X98649500Y-104491500D02*
X96549500Y-104491500D01*
X96549500Y-102391500D01*
X98649500Y-102391500D01*
X98649500Y-104491500D01*
X98649500Y-104491500D01*
G37*
G36*
X111476500Y-104491500D02*
X109376500Y-104491500D01*
X109376500Y-102391500D01*
X111476500Y-102391500D01*
X111476500Y-104491500D01*
X111476500Y-104491500D01*
G37*
G36*
X113095207Y-102399096D02*
X113172336Y-102406693D01*
X113304287Y-102446720D01*
X113370263Y-102466733D01*
X113552672Y-102564233D01*
X113712554Y-102695446D01*
X113843767Y-102855328D01*
X113941267Y-103037737D01*
X113941267Y-103037738D01*
X114001307Y-103235664D01*
X114021580Y-103441500D01*
X114001307Y-103647336D01*
X113964704Y-103768000D01*
X113941267Y-103845263D01*
X113843767Y-104027672D01*
X113712554Y-104187554D01*
X113552672Y-104318767D01*
X113370263Y-104416267D01*
X113304287Y-104436280D01*
X113172336Y-104476307D01*
X113095207Y-104483903D01*
X113018080Y-104491500D01*
X112914920Y-104491500D01*
X112837793Y-104483904D01*
X112760664Y-104476307D01*
X112628713Y-104436280D01*
X112562737Y-104416267D01*
X112380328Y-104318767D01*
X112220446Y-104187554D01*
X112089233Y-104027672D01*
X111991733Y-103845263D01*
X111968296Y-103768000D01*
X111931693Y-103647336D01*
X111911420Y-103441500D01*
X111931693Y-103235664D01*
X111991733Y-103037738D01*
X111991733Y-103037737D01*
X112089233Y-102855328D01*
X112220446Y-102695446D01*
X112380328Y-102564233D01*
X112562737Y-102466733D01*
X112628713Y-102446720D01*
X112760664Y-102406693D01*
X112837793Y-102399096D01*
X112914920Y-102391500D01*
X113018080Y-102391500D01*
X113095207Y-102399096D01*
X113095207Y-102399096D01*
G37*
G36*
X106704622Y-101692517D02*
X106752585Y-101707066D01*
X106796775Y-101730686D01*
X106835518Y-101762482D01*
X106867314Y-101801225D01*
X106890934Y-101845415D01*
X106905483Y-101893378D01*
X106911000Y-101949391D01*
X106911000Y-102774609D01*
X106905483Y-102830622D01*
X106890934Y-102878585D01*
X106867314Y-102922775D01*
X106835518Y-102961518D01*
X106796775Y-102993314D01*
X106752585Y-103016934D01*
X106704622Y-103031483D01*
X106648609Y-103037000D01*
X105898391Y-103037000D01*
X105842378Y-103031483D01*
X105794415Y-103016934D01*
X105750225Y-102993314D01*
X105711482Y-102961518D01*
X105679686Y-102922775D01*
X105656066Y-102878585D01*
X105641517Y-102830622D01*
X105636000Y-102774609D01*
X105636000Y-101949391D01*
X105641517Y-101893378D01*
X105656066Y-101845415D01*
X105679686Y-101801225D01*
X105711482Y-101762482D01*
X105750225Y-101730686D01*
X105794415Y-101707066D01*
X105842378Y-101692517D01*
X105898391Y-101687000D01*
X106648609Y-101687000D01*
X106704622Y-101692517D01*
X106704622Y-101692517D01*
G37*
G36*
X108279622Y-101692517D02*
X108327585Y-101707066D01*
X108371775Y-101730686D01*
X108410518Y-101762482D01*
X108442314Y-101801225D01*
X108465934Y-101845415D01*
X108480483Y-101893378D01*
X108486000Y-101949391D01*
X108486000Y-102774609D01*
X108480483Y-102830622D01*
X108465934Y-102878585D01*
X108442314Y-102922775D01*
X108410518Y-102961518D01*
X108371775Y-102993314D01*
X108327585Y-103016934D01*
X108279622Y-103031483D01*
X108223609Y-103037000D01*
X107473391Y-103037000D01*
X107417378Y-103031483D01*
X107369415Y-103016934D01*
X107325225Y-102993314D01*
X107286482Y-102961518D01*
X107254686Y-102922775D01*
X107231066Y-102878585D01*
X107216517Y-102830622D01*
X107211000Y-102774609D01*
X107211000Y-101949391D01*
X107216517Y-101893378D01*
X107231066Y-101845415D01*
X107254686Y-101801225D01*
X107286482Y-101762482D01*
X107325225Y-101730686D01*
X107369415Y-101707066D01*
X107417378Y-101692517D01*
X107473391Y-101687000D01*
X108223609Y-101687000D01*
X108279622Y-101692517D01*
X108279622Y-101692517D01*
G37*
G36*
X174117000Y-99218000D02*
X161417000Y-99218000D01*
X161417000Y-97318000D01*
X174117000Y-97318000D01*
X174117000Y-99218000D01*
X174117000Y-99218000D01*
G37*
G36*
X95083622Y-96548517D02*
X95131585Y-96563066D01*
X95175775Y-96586686D01*
X95214518Y-96618482D01*
X95246314Y-96657225D01*
X95269934Y-96701415D01*
X95284483Y-96749378D01*
X95290000Y-96805391D01*
X95290000Y-97555609D01*
X95284483Y-97611622D01*
X95269934Y-97659585D01*
X95246314Y-97703775D01*
X95214518Y-97742518D01*
X95175775Y-97774314D01*
X95131585Y-97797934D01*
X95083622Y-97812483D01*
X95027609Y-97818000D01*
X94202391Y-97818000D01*
X94146378Y-97812483D01*
X94098415Y-97797934D01*
X94054225Y-97774314D01*
X94015482Y-97742518D01*
X93983686Y-97703775D01*
X93960066Y-97659585D01*
X93945517Y-97611622D01*
X93940000Y-97555609D01*
X93940000Y-96805391D01*
X93945517Y-96749378D01*
X93960066Y-96701415D01*
X93983686Y-96657225D01*
X94015482Y-96618482D01*
X94054225Y-96586686D01*
X94098415Y-96563066D01*
X94146378Y-96548517D01*
X94202391Y-96543000D01*
X95027609Y-96543000D01*
X95083622Y-96548517D01*
X95083622Y-96548517D01*
G37*
G36*
X102957622Y-96548517D02*
X103005585Y-96563066D01*
X103049775Y-96586686D01*
X103088518Y-96618482D01*
X103120314Y-96657225D01*
X103143934Y-96701415D01*
X103158483Y-96749378D01*
X103164000Y-96805391D01*
X103164000Y-97555609D01*
X103158483Y-97611622D01*
X103143934Y-97659585D01*
X103120314Y-97703775D01*
X103088518Y-97742518D01*
X103049775Y-97774314D01*
X103005585Y-97797934D01*
X102957622Y-97812483D01*
X102901609Y-97818000D01*
X102076391Y-97818000D01*
X102020378Y-97812483D01*
X101972415Y-97797934D01*
X101928225Y-97774314D01*
X101889482Y-97742518D01*
X101857686Y-97703775D01*
X101834066Y-97659585D01*
X101819517Y-97611622D01*
X101814000Y-97555609D01*
X101814000Y-96805391D01*
X101819517Y-96749378D01*
X101834066Y-96701415D01*
X101857686Y-96657225D01*
X101889482Y-96618482D01*
X101928225Y-96586686D01*
X101972415Y-96563066D01*
X102020378Y-96548517D01*
X102076391Y-96543000D01*
X102901609Y-96543000D01*
X102957622Y-96548517D01*
X102957622Y-96548517D01*
G37*
G36*
X102957622Y-94973517D02*
X103005585Y-94988066D01*
X103049775Y-95011686D01*
X103088518Y-95043482D01*
X103120314Y-95082225D01*
X103143934Y-95126415D01*
X103158483Y-95174378D01*
X103164000Y-95230391D01*
X103164000Y-95980609D01*
X103158483Y-96036622D01*
X103143934Y-96084585D01*
X103120314Y-96128775D01*
X103088518Y-96167518D01*
X103049775Y-96199314D01*
X103005585Y-96222934D01*
X102957622Y-96237483D01*
X102901609Y-96243000D01*
X102076391Y-96243000D01*
X102020378Y-96237483D01*
X101972415Y-96222934D01*
X101928225Y-96199314D01*
X101889482Y-96167518D01*
X101857686Y-96128775D01*
X101834066Y-96084585D01*
X101819517Y-96036622D01*
X101814000Y-95980609D01*
X101814000Y-95230391D01*
X101819517Y-95174378D01*
X101834066Y-95126415D01*
X101857686Y-95082225D01*
X101889482Y-95043482D01*
X101928225Y-95011686D01*
X101972415Y-94988066D01*
X102020378Y-94973517D01*
X102076391Y-94968000D01*
X102901609Y-94968000D01*
X102957622Y-94973517D01*
X102957622Y-94973517D01*
G37*
G36*
X95083622Y-94973517D02*
X95131585Y-94988066D01*
X95175775Y-95011686D01*
X95214518Y-95043482D01*
X95246314Y-95082225D01*
X95269934Y-95126415D01*
X95284483Y-95174378D01*
X95290000Y-95230391D01*
X95290000Y-95980609D01*
X95284483Y-96036622D01*
X95269934Y-96084585D01*
X95246314Y-96128775D01*
X95214518Y-96167518D01*
X95175775Y-96199314D01*
X95131585Y-96222934D01*
X95083622Y-96237483D01*
X95027609Y-96243000D01*
X94202391Y-96243000D01*
X94146378Y-96237483D01*
X94098415Y-96222934D01*
X94054225Y-96199314D01*
X94015482Y-96167518D01*
X93983686Y-96128775D01*
X93960066Y-96084585D01*
X93945517Y-96036622D01*
X93940000Y-95980609D01*
X93940000Y-95230391D01*
X93945517Y-95174378D01*
X93960066Y-95126415D01*
X93983686Y-95082225D01*
X94015482Y-95043482D01*
X94054225Y-95011686D01*
X94098415Y-94988066D01*
X94146378Y-94973517D01*
X94202391Y-94968000D01*
X95027609Y-94968000D01*
X95083622Y-94973517D01*
X95083622Y-94973517D01*
G37*
G36*
X164616122Y-94516517D02*
X164664085Y-94531066D01*
X164708275Y-94554686D01*
X164747018Y-94586482D01*
X164778814Y-94625225D01*
X164802434Y-94669415D01*
X164816983Y-94717378D01*
X164822500Y-94773391D01*
X164822500Y-95523609D01*
X164816983Y-95579622D01*
X164802434Y-95627585D01*
X164778814Y-95671775D01*
X164747018Y-95710518D01*
X164708275Y-95742314D01*
X164664085Y-95765934D01*
X164616122Y-95780483D01*
X164560109Y-95786000D01*
X163734891Y-95786000D01*
X163678878Y-95780483D01*
X163630915Y-95765934D01*
X163586725Y-95742314D01*
X163547982Y-95710518D01*
X163516186Y-95671775D01*
X163492566Y-95627585D01*
X163478017Y-95579622D01*
X163472500Y-95523609D01*
X163472500Y-94773391D01*
X163478017Y-94717378D01*
X163492566Y-94669415D01*
X163516186Y-94625225D01*
X163547982Y-94586482D01*
X163586725Y-94554686D01*
X163630915Y-94531066D01*
X163678878Y-94516517D01*
X163734891Y-94511000D01*
X164560109Y-94511000D01*
X164616122Y-94516517D01*
X164616122Y-94516517D01*
G37*
G36*
X160502122Y-93056517D02*
X160550085Y-93071066D01*
X160594275Y-93094686D01*
X160633018Y-93126482D01*
X160664814Y-93165225D01*
X160688434Y-93209415D01*
X160702983Y-93257378D01*
X160708500Y-93313391D01*
X160708500Y-94138609D01*
X160702983Y-94194622D01*
X160688434Y-94242585D01*
X160664814Y-94286775D01*
X160633018Y-94325518D01*
X160594275Y-94357314D01*
X160550085Y-94380934D01*
X160502122Y-94395483D01*
X160446109Y-94401000D01*
X159695891Y-94401000D01*
X159639878Y-94395483D01*
X159591915Y-94380934D01*
X159547725Y-94357314D01*
X159508982Y-94325518D01*
X159477186Y-94286775D01*
X159453566Y-94242585D01*
X159439017Y-94194622D01*
X159433500Y-94138609D01*
X159433500Y-93313391D01*
X159439017Y-93257378D01*
X159453566Y-93209415D01*
X159477186Y-93165225D01*
X159508982Y-93126482D01*
X159547725Y-93094686D01*
X159591915Y-93071066D01*
X159639878Y-93056517D01*
X159695891Y-93051000D01*
X160446109Y-93051000D01*
X160502122Y-93056517D01*
X160502122Y-93056517D01*
G37*
G36*
X158927122Y-93056517D02*
X158975085Y-93071066D01*
X159019275Y-93094686D01*
X159058018Y-93126482D01*
X159089814Y-93165225D01*
X159113434Y-93209415D01*
X159127983Y-93257378D01*
X159133500Y-93313391D01*
X159133500Y-94138609D01*
X159127983Y-94194622D01*
X159113434Y-94242585D01*
X159089814Y-94286775D01*
X159058018Y-94325518D01*
X159019275Y-94357314D01*
X158975085Y-94380934D01*
X158927122Y-94395483D01*
X158871109Y-94401000D01*
X158120891Y-94401000D01*
X158064878Y-94395483D01*
X158016915Y-94380934D01*
X157972725Y-94357314D01*
X157933982Y-94325518D01*
X157902186Y-94286775D01*
X157878566Y-94242585D01*
X157864017Y-94194622D01*
X157858500Y-94138609D01*
X157858500Y-93313391D01*
X157864017Y-93257378D01*
X157878566Y-93209415D01*
X157902186Y-93165225D01*
X157933982Y-93126482D01*
X157972725Y-93094686D01*
X158016915Y-93071066D01*
X158064878Y-93056517D01*
X158120891Y-93051000D01*
X158871109Y-93051000D01*
X158927122Y-93056517D01*
X158927122Y-93056517D01*
G37*
G36*
X164616122Y-92941517D02*
X164664085Y-92956066D01*
X164708275Y-92979686D01*
X164747018Y-93011482D01*
X164778814Y-93050225D01*
X164802434Y-93094415D01*
X164816983Y-93142378D01*
X164822500Y-93198391D01*
X164822500Y-93948609D01*
X164816983Y-94004622D01*
X164802434Y-94052585D01*
X164778814Y-94096775D01*
X164747018Y-94135518D01*
X164708275Y-94167314D01*
X164664085Y-94190934D01*
X164616122Y-94205483D01*
X164560109Y-94211000D01*
X163734891Y-94211000D01*
X163678878Y-94205483D01*
X163630915Y-94190934D01*
X163586725Y-94167314D01*
X163547982Y-94135518D01*
X163516186Y-94096775D01*
X163492566Y-94052585D01*
X163478017Y-94004622D01*
X163472500Y-93948609D01*
X163472500Y-93198391D01*
X163478017Y-93142378D01*
X163492566Y-93094415D01*
X163516186Y-93050225D01*
X163547982Y-93011482D01*
X163586725Y-92979686D01*
X163630915Y-92956066D01*
X163678878Y-92941517D01*
X163734891Y-92936000D01*
X164560109Y-92936000D01*
X164616122Y-92941517D01*
X164616122Y-92941517D01*
G37*
G36*
X110491707Y-91794596D02*
X110568836Y-91802193D01*
X110700787Y-91842220D01*
X110766763Y-91862233D01*
X110949172Y-91959733D01*
X111109054Y-92090946D01*
X111240267Y-92250828D01*
X111337767Y-92433237D01*
X111337767Y-92433238D01*
X111397807Y-92631164D01*
X111418080Y-92837000D01*
X111397807Y-93042836D01*
X111379035Y-93104719D01*
X111337767Y-93240763D01*
X111240267Y-93423172D01*
X111109054Y-93583054D01*
X110949172Y-93714267D01*
X110766763Y-93811767D01*
X110700787Y-93831780D01*
X110568836Y-93871807D01*
X110491707Y-93879403D01*
X110414580Y-93887000D01*
X110311420Y-93887000D01*
X110234293Y-93879403D01*
X110157164Y-93871807D01*
X110025213Y-93831780D01*
X109959237Y-93811767D01*
X109776828Y-93714267D01*
X109616946Y-93583054D01*
X109485733Y-93423172D01*
X109388233Y-93240763D01*
X109346965Y-93104719D01*
X109328193Y-93042836D01*
X109307920Y-92837000D01*
X109328193Y-92631164D01*
X109388233Y-92433238D01*
X109388233Y-92433237D01*
X109485733Y-92250828D01*
X109616946Y-92090946D01*
X109776828Y-91959733D01*
X109959237Y-91862233D01*
X110025213Y-91842220D01*
X110157164Y-91802193D01*
X110234293Y-91794596D01*
X110311420Y-91787000D01*
X110414580Y-91787000D01*
X110491707Y-91794596D01*
X110491707Y-91794596D01*
G37*
G36*
X100268207Y-91794596D02*
X100345336Y-91802193D01*
X100477287Y-91842220D01*
X100543263Y-91862233D01*
X100725672Y-91959733D01*
X100885554Y-92090946D01*
X101016767Y-92250828D01*
X101114267Y-92433237D01*
X101114267Y-92433238D01*
X101174307Y-92631164D01*
X101194580Y-92837000D01*
X101174307Y-93042836D01*
X101155535Y-93104719D01*
X101114267Y-93240763D01*
X101016767Y-93423172D01*
X100885554Y-93583054D01*
X100725672Y-93714267D01*
X100543263Y-93811767D01*
X100477287Y-93831780D01*
X100345336Y-93871807D01*
X100268207Y-93879403D01*
X100191080Y-93887000D01*
X100087920Y-93887000D01*
X100010793Y-93879403D01*
X99933664Y-93871807D01*
X99801713Y-93831780D01*
X99735737Y-93811767D01*
X99553328Y-93714267D01*
X99393446Y-93583054D01*
X99262233Y-93423172D01*
X99164733Y-93240763D01*
X99123465Y-93104719D01*
X99104693Y-93042836D01*
X99084420Y-92837000D01*
X99104693Y-92631164D01*
X99164733Y-92433238D01*
X99164733Y-92433237D01*
X99262233Y-92250828D01*
X99393446Y-92090946D01*
X99553328Y-91959733D01*
X99735737Y-91862233D01*
X99801713Y-91842220D01*
X99933664Y-91802193D01*
X100010793Y-91794596D01*
X100087920Y-91787000D01*
X100191080Y-91787000D01*
X100268207Y-91794596D01*
X100268207Y-91794596D01*
G37*
G36*
X113031707Y-91794596D02*
X113108836Y-91802193D01*
X113240787Y-91842220D01*
X113306763Y-91862233D01*
X113489172Y-91959733D01*
X113649054Y-92090946D01*
X113780267Y-92250828D01*
X113877767Y-92433237D01*
X113877767Y-92433238D01*
X113937807Y-92631164D01*
X113958080Y-92837000D01*
X113937807Y-93042836D01*
X113919035Y-93104719D01*
X113877767Y-93240763D01*
X113780267Y-93423172D01*
X113649054Y-93583054D01*
X113489172Y-93714267D01*
X113306763Y-93811767D01*
X113240787Y-93831780D01*
X113108836Y-93871807D01*
X113031707Y-93879403D01*
X112954580Y-93887000D01*
X112851420Y-93887000D01*
X112774293Y-93879403D01*
X112697164Y-93871807D01*
X112565213Y-93831780D01*
X112499237Y-93811767D01*
X112316828Y-93714267D01*
X112156946Y-93583054D01*
X112025733Y-93423172D01*
X111928233Y-93240763D01*
X111886965Y-93104719D01*
X111868193Y-93042836D01*
X111847920Y-92837000D01*
X111868193Y-92631164D01*
X111928233Y-92433238D01*
X111928233Y-92433237D01*
X112025733Y-92250828D01*
X112156946Y-92090946D01*
X112316828Y-91959733D01*
X112499237Y-91862233D01*
X112565213Y-91842220D01*
X112697164Y-91802193D01*
X112774293Y-91794596D01*
X112851420Y-91787000D01*
X112954580Y-91787000D01*
X113031707Y-91794596D01*
X113031707Y-91794596D01*
G37*
G36*
X97728207Y-91794596D02*
X97805336Y-91802193D01*
X97937287Y-91842220D01*
X98003263Y-91862233D01*
X98185672Y-91959733D01*
X98345554Y-92090946D01*
X98476767Y-92250828D01*
X98574267Y-92433237D01*
X98574267Y-92433238D01*
X98634307Y-92631164D01*
X98654580Y-92837000D01*
X98634307Y-93042836D01*
X98615535Y-93104719D01*
X98574267Y-93240763D01*
X98476767Y-93423172D01*
X98345554Y-93583054D01*
X98185672Y-93714267D01*
X98003263Y-93811767D01*
X97937287Y-93831780D01*
X97805336Y-93871807D01*
X97728207Y-93879403D01*
X97651080Y-93887000D01*
X97547920Y-93887000D01*
X97470793Y-93879403D01*
X97393664Y-93871807D01*
X97261713Y-93831780D01*
X97195737Y-93811767D01*
X97013328Y-93714267D01*
X96853446Y-93583054D01*
X96722233Y-93423172D01*
X96624733Y-93240763D01*
X96583465Y-93104719D01*
X96564693Y-93042836D01*
X96544420Y-92837000D01*
X96564693Y-92631164D01*
X96624733Y-92433238D01*
X96624733Y-92433237D01*
X96722233Y-92250828D01*
X96853446Y-92090946D01*
X97013328Y-91959733D01*
X97195737Y-91862233D01*
X97261713Y-91842220D01*
X97393664Y-91802193D01*
X97470793Y-91794596D01*
X97547920Y-91787000D01*
X97651080Y-91787000D01*
X97728207Y-91794596D01*
X97728207Y-91794596D01*
G37*
G36*
X177928707Y-91413596D02*
X178005836Y-91421193D01*
X178137787Y-91461220D01*
X178203763Y-91481233D01*
X178386172Y-91578733D01*
X178546054Y-91709946D01*
X178677267Y-91869828D01*
X178774767Y-92052237D01*
X178780554Y-92071314D01*
X178834807Y-92250164D01*
X178855080Y-92456000D01*
X178834807Y-92661836D01*
X178794780Y-92793787D01*
X178774767Y-92859763D01*
X178677267Y-93042172D01*
X178546054Y-93202054D01*
X178386172Y-93333267D01*
X178203763Y-93430767D01*
X178137787Y-93450780D01*
X178005836Y-93490807D01*
X177928707Y-93498403D01*
X177851580Y-93506000D01*
X177748420Y-93506000D01*
X177671293Y-93498403D01*
X177594164Y-93490807D01*
X177462213Y-93450780D01*
X177396237Y-93430767D01*
X177213828Y-93333267D01*
X177053946Y-93202054D01*
X176922733Y-93042172D01*
X176825233Y-92859763D01*
X176805220Y-92793787D01*
X176765193Y-92661836D01*
X176744920Y-92456000D01*
X176765193Y-92250164D01*
X176819446Y-92071314D01*
X176825233Y-92052237D01*
X176922733Y-91869828D01*
X177053946Y-91709946D01*
X177213828Y-91578733D01*
X177396237Y-91481233D01*
X177462213Y-91461220D01*
X177594164Y-91421193D01*
X177671293Y-91413596D01*
X177748420Y-91406000D01*
X177851580Y-91406000D01*
X177928707Y-91413596D01*
X177928707Y-91413596D01*
G37*
G36*
X173770000Y-93506000D02*
X171670000Y-93506000D01*
X171670000Y-91406000D01*
X173770000Y-91406000D01*
X173770000Y-93506000D01*
X173770000Y-93506000D01*
G37*
G36*
X175388707Y-91413596D02*
X175465836Y-91421193D01*
X175597787Y-91461220D01*
X175663763Y-91481233D01*
X175846172Y-91578733D01*
X176006054Y-91709946D01*
X176137267Y-91869828D01*
X176234767Y-92052237D01*
X176240554Y-92071314D01*
X176294807Y-92250164D01*
X176315080Y-92456000D01*
X176294807Y-92661836D01*
X176254780Y-92793787D01*
X176234767Y-92859763D01*
X176137267Y-93042172D01*
X176006054Y-93202054D01*
X175846172Y-93333267D01*
X175663763Y-93430767D01*
X175597787Y-93450780D01*
X175465836Y-93490807D01*
X175388707Y-93498403D01*
X175311580Y-93506000D01*
X175208420Y-93506000D01*
X175131293Y-93498403D01*
X175054164Y-93490807D01*
X174922213Y-93450780D01*
X174856237Y-93430767D01*
X174673828Y-93333267D01*
X174513946Y-93202054D01*
X174382733Y-93042172D01*
X174285233Y-92859763D01*
X174265220Y-92793787D01*
X174225193Y-92661836D01*
X174204920Y-92456000D01*
X174225193Y-92250164D01*
X174279446Y-92071314D01*
X174285233Y-92052237D01*
X174382733Y-91869828D01*
X174513946Y-91709946D01*
X174673828Y-91578733D01*
X174856237Y-91481233D01*
X174922213Y-91461220D01*
X175054164Y-91421193D01*
X175131293Y-91413596D01*
X175208420Y-91406000D01*
X175311580Y-91406000D01*
X175388707Y-91413596D01*
X175388707Y-91413596D01*
G37*
G36*
X117948566Y-90892446D02*
X117964112Y-90911388D01*
X117983054Y-90926934D01*
X118004665Y-90938485D01*
X118028114Y-90945598D01*
X118052500Y-90948000D01*
X118802500Y-90948000D01*
X118826886Y-90945598D01*
X118850335Y-90938485D01*
X118871946Y-90926934D01*
X118890888Y-90911388D01*
X118906434Y-90892446D01*
X118916828Y-90873000D01*
X119827500Y-90873000D01*
X119827500Y-93023000D01*
X118916828Y-93023000D01*
X118906434Y-93003554D01*
X118890888Y-92984612D01*
X118871946Y-92969066D01*
X118850335Y-92957515D01*
X118826886Y-92950402D01*
X118802500Y-92948000D01*
X118052500Y-92948000D01*
X118028114Y-92950402D01*
X118004665Y-92957515D01*
X117983054Y-92969066D01*
X117964112Y-92984612D01*
X117948566Y-93003554D01*
X117938172Y-93023000D01*
X117027500Y-93023000D01*
X117027500Y-90873000D01*
X117938172Y-90873000D01*
X117948566Y-90892446D01*
X117948566Y-90892446D01*
G37*
G36*
X104613566Y-90892446D02*
X104629112Y-90911388D01*
X104648054Y-90926934D01*
X104669665Y-90938485D01*
X104693114Y-90945598D01*
X104717500Y-90948000D01*
X105467500Y-90948000D01*
X105491886Y-90945598D01*
X105515335Y-90938485D01*
X105536946Y-90926934D01*
X105555888Y-90911388D01*
X105571434Y-90892446D01*
X105581828Y-90873000D01*
X106492500Y-90873000D01*
X106492500Y-93023000D01*
X105581828Y-93023000D01*
X105571434Y-93003554D01*
X105555888Y-92984612D01*
X105536946Y-92969066D01*
X105515335Y-92957515D01*
X105491886Y-92950402D01*
X105467500Y-92948000D01*
X104717500Y-92948000D01*
X104693114Y-92950402D01*
X104669665Y-92957515D01*
X104648054Y-92969066D01*
X104629112Y-92984612D01*
X104613566Y-93003554D01*
X104603172Y-93023000D01*
X103692500Y-93023000D01*
X103692500Y-90873000D01*
X104603172Y-90873000D01*
X104613566Y-90892446D01*
X104613566Y-90892446D01*
G37*
G36*
X133515497Y-90870497D02*
X133568153Y-90886470D01*
X133616665Y-90912400D01*
X133659196Y-90947304D01*
X133694100Y-90989835D01*
X133720030Y-91038347D01*
X133736003Y-91091003D01*
X133742000Y-91151890D01*
X133742000Y-91952110D01*
X133736003Y-92012997D01*
X133720030Y-92065653D01*
X133694100Y-92114165D01*
X133659196Y-92156696D01*
X133616665Y-92191600D01*
X133568153Y-92217530D01*
X133515497Y-92233503D01*
X133454610Y-92239500D01*
X132229390Y-92239500D01*
X132168503Y-92233503D01*
X132115847Y-92217530D01*
X132067335Y-92191600D01*
X132024804Y-92156696D01*
X131989900Y-92114165D01*
X131963970Y-92065653D01*
X131947997Y-92012997D01*
X131942000Y-91952110D01*
X131942000Y-91151890D01*
X131947997Y-91091003D01*
X131963970Y-91038347D01*
X131989900Y-90989835D01*
X132024804Y-90947304D01*
X132067335Y-90912400D01*
X132115847Y-90886470D01*
X132168503Y-90870497D01*
X132229390Y-90864500D01*
X133454610Y-90864500D01*
X133515497Y-90870497D01*
X133515497Y-90870497D01*
G37*
G36*
X123329122Y-90770517D02*
X123377085Y-90785066D01*
X123421275Y-90808686D01*
X123460018Y-90840482D01*
X123491814Y-90879225D01*
X123515434Y-90923415D01*
X123529983Y-90971378D01*
X123535500Y-91027391D01*
X123535500Y-91852609D01*
X123529983Y-91908622D01*
X123515434Y-91956585D01*
X123491814Y-92000775D01*
X123460018Y-92039518D01*
X123421275Y-92071314D01*
X123377085Y-92094934D01*
X123329122Y-92109483D01*
X123273109Y-92115000D01*
X122522891Y-92115000D01*
X122466878Y-92109483D01*
X122418915Y-92094934D01*
X122374725Y-92071314D01*
X122335982Y-92039518D01*
X122304186Y-92000775D01*
X122280566Y-91956585D01*
X122266017Y-91908622D01*
X122260500Y-91852609D01*
X122260500Y-91027391D01*
X122266017Y-90971378D01*
X122280566Y-90923415D01*
X122304186Y-90879225D01*
X122335982Y-90840482D01*
X122374725Y-90808686D01*
X122418915Y-90785066D01*
X122466878Y-90770517D01*
X122522891Y-90765000D01*
X123273109Y-90765000D01*
X123329122Y-90770517D01*
X123329122Y-90770517D01*
G37*
G36*
X121754122Y-90770517D02*
X121802085Y-90785066D01*
X121846275Y-90808686D01*
X121885018Y-90840482D01*
X121916814Y-90879225D01*
X121940434Y-90923415D01*
X121954983Y-90971378D01*
X121960500Y-91027391D01*
X121960500Y-91852609D01*
X121954983Y-91908622D01*
X121940434Y-91956585D01*
X121916814Y-92000775D01*
X121885018Y-92039518D01*
X121846275Y-92071314D01*
X121802085Y-92094934D01*
X121754122Y-92109483D01*
X121698109Y-92115000D01*
X120947891Y-92115000D01*
X120891878Y-92109483D01*
X120843915Y-92094934D01*
X120799725Y-92071314D01*
X120760982Y-92039518D01*
X120729186Y-92000775D01*
X120705566Y-91956585D01*
X120691017Y-91908622D01*
X120685500Y-91852609D01*
X120685500Y-91027391D01*
X120691017Y-90971378D01*
X120705566Y-90923415D01*
X120729186Y-90879225D01*
X120760982Y-90840482D01*
X120799725Y-90808686D01*
X120843915Y-90785066D01*
X120891878Y-90770517D01*
X120947891Y-90765000D01*
X121698109Y-90765000D01*
X121754122Y-90770517D01*
X121754122Y-90770517D01*
G37*
G36*
X110491707Y-89254597D02*
X110568836Y-89262193D01*
X110700787Y-89302220D01*
X110766763Y-89322233D01*
X110949172Y-89419733D01*
X111109054Y-89550946D01*
X111240267Y-89710828D01*
X111337767Y-89893237D01*
X111337767Y-89893238D01*
X111397807Y-90091164D01*
X111418080Y-90297000D01*
X111397807Y-90502836D01*
X111357780Y-90634787D01*
X111337767Y-90700763D01*
X111240267Y-90883172D01*
X111109054Y-91043054D01*
X110949172Y-91174267D01*
X110766763Y-91271767D01*
X110700787Y-91291780D01*
X110568836Y-91331807D01*
X110491707Y-91339404D01*
X110414580Y-91347000D01*
X110311420Y-91347000D01*
X110234293Y-91339404D01*
X110157164Y-91331807D01*
X110025213Y-91291780D01*
X109959237Y-91271767D01*
X109776828Y-91174267D01*
X109616946Y-91043054D01*
X109485733Y-90883172D01*
X109388233Y-90700763D01*
X109368220Y-90634787D01*
X109328193Y-90502836D01*
X109307920Y-90297000D01*
X109328193Y-90091164D01*
X109388233Y-89893238D01*
X109388233Y-89893237D01*
X109485733Y-89710828D01*
X109616946Y-89550946D01*
X109776828Y-89419733D01*
X109959237Y-89322233D01*
X110025213Y-89302220D01*
X110157164Y-89262193D01*
X110234293Y-89254597D01*
X110311420Y-89247000D01*
X110414580Y-89247000D01*
X110491707Y-89254597D01*
X110491707Y-89254597D01*
G37*
G36*
X100268207Y-89254597D02*
X100345336Y-89262193D01*
X100477287Y-89302220D01*
X100543263Y-89322233D01*
X100725672Y-89419733D01*
X100885554Y-89550946D01*
X101016767Y-89710828D01*
X101114267Y-89893237D01*
X101114267Y-89893238D01*
X101174307Y-90091164D01*
X101194580Y-90297000D01*
X101174307Y-90502836D01*
X101134280Y-90634787D01*
X101114267Y-90700763D01*
X101016767Y-90883172D01*
X100885554Y-91043054D01*
X100725672Y-91174267D01*
X100543263Y-91271767D01*
X100477287Y-91291780D01*
X100345336Y-91331807D01*
X100268207Y-91339404D01*
X100191080Y-91347000D01*
X100087920Y-91347000D01*
X100010793Y-91339404D01*
X99933664Y-91331807D01*
X99801713Y-91291780D01*
X99735737Y-91271767D01*
X99553328Y-91174267D01*
X99393446Y-91043054D01*
X99262233Y-90883172D01*
X99164733Y-90700763D01*
X99144720Y-90634787D01*
X99104693Y-90502836D01*
X99084420Y-90297000D01*
X99104693Y-90091164D01*
X99164733Y-89893238D01*
X99164733Y-89893237D01*
X99262233Y-89710828D01*
X99393446Y-89550946D01*
X99553328Y-89419733D01*
X99735737Y-89322233D01*
X99801713Y-89302220D01*
X99933664Y-89262193D01*
X100010793Y-89254597D01*
X100087920Y-89247000D01*
X100191080Y-89247000D01*
X100268207Y-89254597D01*
X100268207Y-89254597D01*
G37*
G36*
X113031707Y-89254597D02*
X113108836Y-89262193D01*
X113240787Y-89302220D01*
X113306763Y-89322233D01*
X113489172Y-89419733D01*
X113649054Y-89550946D01*
X113780267Y-89710828D01*
X113877767Y-89893237D01*
X113877767Y-89893238D01*
X113937807Y-90091164D01*
X113958080Y-90297000D01*
X113937807Y-90502836D01*
X113897780Y-90634787D01*
X113877767Y-90700763D01*
X113780267Y-90883172D01*
X113649054Y-91043054D01*
X113489172Y-91174267D01*
X113306763Y-91271767D01*
X113240787Y-91291780D01*
X113108836Y-91331807D01*
X113031707Y-91339404D01*
X112954580Y-91347000D01*
X112851420Y-91347000D01*
X112774293Y-91339404D01*
X112697164Y-91331807D01*
X112565213Y-91291780D01*
X112499237Y-91271767D01*
X112316828Y-91174267D01*
X112156946Y-91043054D01*
X112025733Y-90883172D01*
X111928233Y-90700763D01*
X111908220Y-90634787D01*
X111868193Y-90502836D01*
X111847920Y-90297000D01*
X111868193Y-90091164D01*
X111928233Y-89893238D01*
X111928233Y-89893237D01*
X112025733Y-89710828D01*
X112156946Y-89550946D01*
X112316828Y-89419733D01*
X112499237Y-89322233D01*
X112565213Y-89302220D01*
X112697164Y-89262193D01*
X112774293Y-89254597D01*
X112851420Y-89247000D01*
X112954580Y-89247000D01*
X113031707Y-89254597D01*
X113031707Y-89254597D01*
G37*
G36*
X97728207Y-89254597D02*
X97805336Y-89262193D01*
X97937287Y-89302220D01*
X98003263Y-89322233D01*
X98185672Y-89419733D01*
X98345554Y-89550946D01*
X98476767Y-89710828D01*
X98574267Y-89893237D01*
X98574267Y-89893238D01*
X98634307Y-90091164D01*
X98654580Y-90297000D01*
X98634307Y-90502836D01*
X98594280Y-90634787D01*
X98574267Y-90700763D01*
X98476767Y-90883172D01*
X98345554Y-91043054D01*
X98185672Y-91174267D01*
X98003263Y-91271767D01*
X97937287Y-91291780D01*
X97805336Y-91331807D01*
X97728207Y-91339404D01*
X97651080Y-91347000D01*
X97547920Y-91347000D01*
X97470793Y-91339404D01*
X97393664Y-91331807D01*
X97261713Y-91291780D01*
X97195737Y-91271767D01*
X97013328Y-91174267D01*
X96853446Y-91043054D01*
X96722233Y-90883172D01*
X96624733Y-90700763D01*
X96604720Y-90634787D01*
X96564693Y-90502836D01*
X96544420Y-90297000D01*
X96564693Y-90091164D01*
X96624733Y-89893238D01*
X96624733Y-89893237D01*
X96722233Y-89710828D01*
X96853446Y-89550946D01*
X97013328Y-89419733D01*
X97195737Y-89322233D01*
X97261713Y-89302220D01*
X97393664Y-89262193D01*
X97470793Y-89254597D01*
X97547920Y-89247000D01*
X97651080Y-89247000D01*
X97728207Y-89254597D01*
X97728207Y-89254597D01*
G37*
G36*
X177928707Y-88873597D02*
X178005836Y-88881193D01*
X178137787Y-88921220D01*
X178203763Y-88941233D01*
X178386172Y-89038733D01*
X178546054Y-89169946D01*
X178677267Y-89329828D01*
X178774767Y-89512237D01*
X178774767Y-89512238D01*
X178834807Y-89710164D01*
X178855080Y-89916000D01*
X178834807Y-90121836D01*
X178807539Y-90211727D01*
X178774767Y-90319763D01*
X178677267Y-90502172D01*
X178546054Y-90662054D01*
X178386172Y-90793267D01*
X178203763Y-90890767D01*
X178151363Y-90906662D01*
X178005836Y-90950807D01*
X177928707Y-90958403D01*
X177851580Y-90966000D01*
X177748420Y-90966000D01*
X177671293Y-90958404D01*
X177594164Y-90950807D01*
X177448637Y-90906662D01*
X177396237Y-90890767D01*
X177213828Y-90793267D01*
X177053946Y-90662054D01*
X176922733Y-90502172D01*
X176825233Y-90319763D01*
X176792461Y-90211727D01*
X176765193Y-90121836D01*
X176744920Y-89916000D01*
X176765193Y-89710164D01*
X176825233Y-89512238D01*
X176825233Y-89512237D01*
X176922733Y-89329828D01*
X177053946Y-89169946D01*
X177213828Y-89038733D01*
X177396237Y-88941233D01*
X177462213Y-88921220D01*
X177594164Y-88881193D01*
X177671293Y-88873597D01*
X177748420Y-88866000D01*
X177851580Y-88866000D01*
X177928707Y-88873597D01*
X177928707Y-88873597D01*
G37*
G36*
X172848707Y-88873597D02*
X172925836Y-88881193D01*
X173057787Y-88921220D01*
X173123763Y-88941233D01*
X173306172Y-89038733D01*
X173466054Y-89169946D01*
X173597267Y-89329828D01*
X173694767Y-89512237D01*
X173694767Y-89512238D01*
X173754807Y-89710164D01*
X173775080Y-89916000D01*
X173754807Y-90121836D01*
X173727539Y-90211727D01*
X173694767Y-90319763D01*
X173597267Y-90502172D01*
X173466054Y-90662054D01*
X173306172Y-90793267D01*
X173123763Y-90890767D01*
X173071363Y-90906662D01*
X172925836Y-90950807D01*
X172848707Y-90958403D01*
X172771580Y-90966000D01*
X172668420Y-90966000D01*
X172591293Y-90958404D01*
X172514164Y-90950807D01*
X172368637Y-90906662D01*
X172316237Y-90890767D01*
X172133828Y-90793267D01*
X171973946Y-90662054D01*
X171842733Y-90502172D01*
X171745233Y-90319763D01*
X171712461Y-90211727D01*
X171685193Y-90121836D01*
X171664920Y-89916000D01*
X171685193Y-89710164D01*
X171745233Y-89512238D01*
X171745233Y-89512237D01*
X171842733Y-89329828D01*
X171973946Y-89169946D01*
X172133828Y-89038733D01*
X172316237Y-88941233D01*
X172382213Y-88921220D01*
X172514164Y-88881193D01*
X172591293Y-88873597D01*
X172668420Y-88866000D01*
X172771580Y-88866000D01*
X172848707Y-88873597D01*
X172848707Y-88873597D01*
G37*
G36*
X175388707Y-88873597D02*
X175465836Y-88881193D01*
X175597787Y-88921220D01*
X175663763Y-88941233D01*
X175846172Y-89038733D01*
X176006054Y-89169946D01*
X176137267Y-89329828D01*
X176234767Y-89512237D01*
X176234767Y-89512238D01*
X176294807Y-89710164D01*
X176315080Y-89916000D01*
X176294807Y-90121836D01*
X176267539Y-90211727D01*
X176234767Y-90319763D01*
X176137267Y-90502172D01*
X176006054Y-90662054D01*
X175846172Y-90793267D01*
X175663763Y-90890767D01*
X175611363Y-90906662D01*
X175465836Y-90950807D01*
X175388707Y-90958403D01*
X175311580Y-90966000D01*
X175208420Y-90966000D01*
X175131293Y-90958404D01*
X175054164Y-90950807D01*
X174908637Y-90906662D01*
X174856237Y-90890767D01*
X174673828Y-90793267D01*
X174513946Y-90662054D01*
X174382733Y-90502172D01*
X174285233Y-90319763D01*
X174252461Y-90211727D01*
X174225193Y-90121836D01*
X174204920Y-89916000D01*
X174225193Y-89710164D01*
X174285233Y-89512238D01*
X174285233Y-89512237D01*
X174382733Y-89329828D01*
X174513946Y-89169946D01*
X174673828Y-89038733D01*
X174856237Y-88941233D01*
X174922213Y-88921220D01*
X175054164Y-88881193D01*
X175131293Y-88873597D01*
X175208420Y-88866000D01*
X175311580Y-88866000D01*
X175388707Y-88873597D01*
X175388707Y-88873597D01*
G37*
G36*
X133515497Y-88995497D02*
X133568153Y-89011470D01*
X133616665Y-89037400D01*
X133659196Y-89072304D01*
X133694100Y-89114835D01*
X133720030Y-89163347D01*
X133736003Y-89216003D01*
X133742000Y-89276890D01*
X133742000Y-90077110D01*
X133736003Y-90137997D01*
X133720030Y-90190653D01*
X133694100Y-90239165D01*
X133659196Y-90281696D01*
X133616665Y-90316600D01*
X133568153Y-90342530D01*
X133515497Y-90358503D01*
X133454610Y-90364500D01*
X132229390Y-90364500D01*
X132168503Y-90358503D01*
X132115847Y-90342530D01*
X132067335Y-90316600D01*
X132024804Y-90281696D01*
X131989900Y-90239165D01*
X131963970Y-90190653D01*
X131947997Y-90137997D01*
X131942000Y-90077110D01*
X131942000Y-89276890D01*
X131947997Y-89216003D01*
X131963970Y-89163347D01*
X131989900Y-89114835D01*
X132024804Y-89072304D01*
X132067335Y-89037400D01*
X132115847Y-89011470D01*
X132168503Y-88995497D01*
X132229390Y-88989500D01*
X133454610Y-88989500D01*
X133515497Y-88995497D01*
X133515497Y-88995497D01*
G37*
G36*
X152061000Y-88867000D02*
X149911000Y-88867000D01*
X149911000Y-87917000D01*
X152061000Y-87917000D01*
X152061000Y-88867000D01*
X152061000Y-88867000D01*
G37*
G36*
X159461000Y-88867000D02*
X157311000Y-88867000D01*
X157311000Y-87917000D01*
X159461000Y-87917000D01*
X159461000Y-88867000D01*
X159461000Y-88867000D01*
G37*
G36*
X100268207Y-86714596D02*
X100345336Y-86722193D01*
X100477287Y-86762220D01*
X100543263Y-86782233D01*
X100725672Y-86879733D01*
X100885554Y-87010946D01*
X101016767Y-87170828D01*
X101114267Y-87353237D01*
X101127871Y-87398085D01*
X101174307Y-87551164D01*
X101194580Y-87757000D01*
X101174307Y-87962836D01*
X101153444Y-88031612D01*
X101114267Y-88160763D01*
X101016767Y-88343172D01*
X100885554Y-88503054D01*
X100725672Y-88634267D01*
X100543263Y-88731767D01*
X100477287Y-88751780D01*
X100345336Y-88791807D01*
X100268207Y-88799403D01*
X100191080Y-88807000D01*
X100087920Y-88807000D01*
X100010793Y-88799403D01*
X99933664Y-88791807D01*
X99801713Y-88751780D01*
X99735737Y-88731767D01*
X99553328Y-88634267D01*
X99393446Y-88503054D01*
X99262233Y-88343172D01*
X99164733Y-88160763D01*
X99125556Y-88031612D01*
X99104693Y-87962836D01*
X99084420Y-87757000D01*
X99104693Y-87551164D01*
X99151129Y-87398085D01*
X99164733Y-87353237D01*
X99262233Y-87170828D01*
X99393446Y-87010946D01*
X99553328Y-86879733D01*
X99735737Y-86782233D01*
X99801713Y-86762220D01*
X99933664Y-86722193D01*
X100010793Y-86714596D01*
X100087920Y-86707000D01*
X100191080Y-86707000D01*
X100268207Y-86714596D01*
X100268207Y-86714596D01*
G37*
G36*
X97728207Y-86714596D02*
X97805336Y-86722193D01*
X97937287Y-86762220D01*
X98003263Y-86782233D01*
X98185672Y-86879733D01*
X98345554Y-87010946D01*
X98476767Y-87170828D01*
X98574267Y-87353237D01*
X98587871Y-87398085D01*
X98634307Y-87551164D01*
X98654580Y-87757000D01*
X98634307Y-87962836D01*
X98613444Y-88031612D01*
X98574267Y-88160763D01*
X98476767Y-88343172D01*
X98345554Y-88503054D01*
X98185672Y-88634267D01*
X98003263Y-88731767D01*
X97937287Y-88751780D01*
X97805336Y-88791807D01*
X97728207Y-88799403D01*
X97651080Y-88807000D01*
X97547920Y-88807000D01*
X97470793Y-88799403D01*
X97393664Y-88791807D01*
X97261713Y-88751780D01*
X97195737Y-88731767D01*
X97013328Y-88634267D01*
X96853446Y-88503054D01*
X96722233Y-88343172D01*
X96624733Y-88160763D01*
X96585556Y-88031612D01*
X96564693Y-87962836D01*
X96544420Y-87757000D01*
X96564693Y-87551164D01*
X96611129Y-87398085D01*
X96624733Y-87353237D01*
X96722233Y-87170828D01*
X96853446Y-87010946D01*
X97013328Y-86879733D01*
X97195737Y-86782233D01*
X97261713Y-86762220D01*
X97393664Y-86722193D01*
X97470793Y-86714596D01*
X97547920Y-86707000D01*
X97651080Y-86707000D01*
X97728207Y-86714596D01*
X97728207Y-86714596D01*
G37*
G36*
X110491707Y-86714596D02*
X110568836Y-86722193D01*
X110700787Y-86762220D01*
X110766763Y-86782233D01*
X110949172Y-86879733D01*
X111109054Y-87010946D01*
X111240267Y-87170828D01*
X111337767Y-87353237D01*
X111351371Y-87398085D01*
X111397807Y-87551164D01*
X111418080Y-87757000D01*
X111397807Y-87962836D01*
X111376944Y-88031612D01*
X111337767Y-88160763D01*
X111240267Y-88343172D01*
X111109054Y-88503054D01*
X110949172Y-88634267D01*
X110766763Y-88731767D01*
X110700787Y-88751780D01*
X110568836Y-88791807D01*
X110491707Y-88799403D01*
X110414580Y-88807000D01*
X110311420Y-88807000D01*
X110234293Y-88799403D01*
X110157164Y-88791807D01*
X110025213Y-88751780D01*
X109959237Y-88731767D01*
X109776828Y-88634267D01*
X109616946Y-88503054D01*
X109485733Y-88343172D01*
X109388233Y-88160763D01*
X109349056Y-88031612D01*
X109328193Y-87962836D01*
X109307920Y-87757000D01*
X109328193Y-87551164D01*
X109374629Y-87398085D01*
X109388233Y-87353237D01*
X109485733Y-87170828D01*
X109616946Y-87010946D01*
X109776828Y-86879733D01*
X109959237Y-86782233D01*
X110025213Y-86762220D01*
X110157164Y-86722193D01*
X110234293Y-86714596D01*
X110311420Y-86707000D01*
X110414580Y-86707000D01*
X110491707Y-86714596D01*
X110491707Y-86714596D01*
G37*
G36*
X113031707Y-86714596D02*
X113108836Y-86722193D01*
X113240787Y-86762220D01*
X113306763Y-86782233D01*
X113489172Y-86879733D01*
X113649054Y-87010946D01*
X113780267Y-87170828D01*
X113877767Y-87353237D01*
X113891371Y-87398085D01*
X113937807Y-87551164D01*
X113958080Y-87757000D01*
X113937807Y-87962836D01*
X113916944Y-88031612D01*
X113877767Y-88160763D01*
X113780267Y-88343172D01*
X113649054Y-88503054D01*
X113489172Y-88634267D01*
X113306763Y-88731767D01*
X113240787Y-88751780D01*
X113108836Y-88791807D01*
X113031707Y-88799403D01*
X112954580Y-88807000D01*
X112851420Y-88807000D01*
X112774293Y-88799403D01*
X112697164Y-88791807D01*
X112565213Y-88751780D01*
X112499237Y-88731767D01*
X112316828Y-88634267D01*
X112156946Y-88503054D01*
X112025733Y-88343172D01*
X111928233Y-88160763D01*
X111889056Y-88031612D01*
X111868193Y-87962836D01*
X111847920Y-87757000D01*
X111868193Y-87551164D01*
X111914629Y-87398085D01*
X111928233Y-87353237D01*
X112025733Y-87170828D01*
X112156946Y-87010946D01*
X112316828Y-86879733D01*
X112499237Y-86782233D01*
X112565213Y-86762220D01*
X112697164Y-86722193D01*
X112774293Y-86714596D01*
X112851420Y-86707000D01*
X112954580Y-86707000D01*
X113031707Y-86714596D01*
X113031707Y-86714596D01*
G37*
G36*
X117948566Y-85939446D02*
X117964112Y-85958388D01*
X117983054Y-85973934D01*
X118004665Y-85985485D01*
X118028114Y-85992598D01*
X118052500Y-85995000D01*
X118802500Y-85995000D01*
X118826886Y-85992598D01*
X118850335Y-85985485D01*
X118871946Y-85973934D01*
X118890888Y-85958388D01*
X118906434Y-85939446D01*
X118916828Y-85920000D01*
X119827500Y-85920000D01*
X119827500Y-88070000D01*
X118916828Y-88070000D01*
X118906434Y-88050554D01*
X118890888Y-88031612D01*
X118871946Y-88016066D01*
X118850335Y-88004515D01*
X118826886Y-87997402D01*
X118802500Y-87995000D01*
X118052500Y-87995000D01*
X118028114Y-87997402D01*
X118004665Y-88004515D01*
X117983054Y-88016066D01*
X117964112Y-88031612D01*
X117948566Y-88050554D01*
X117938172Y-88070000D01*
X117027500Y-88070000D01*
X117027500Y-85920000D01*
X117938172Y-85920000D01*
X117948566Y-85939446D01*
X117948566Y-85939446D01*
G37*
G36*
X104613566Y-85920446D02*
X104629112Y-85939388D01*
X104648054Y-85954934D01*
X104669665Y-85966485D01*
X104693114Y-85973598D01*
X104717500Y-85976000D01*
X105467500Y-85976000D01*
X105491886Y-85973598D01*
X105515335Y-85966485D01*
X105536946Y-85954934D01*
X105555888Y-85939388D01*
X105571434Y-85920446D01*
X105581828Y-85901000D01*
X106492500Y-85901000D01*
X106492500Y-88051000D01*
X105581828Y-88051000D01*
X105571434Y-88031554D01*
X105555888Y-88012612D01*
X105536946Y-87997066D01*
X105515335Y-87985515D01*
X105491886Y-87978402D01*
X105467500Y-87976000D01*
X104717500Y-87976000D01*
X104693114Y-87978402D01*
X104669665Y-87985515D01*
X104648054Y-87997066D01*
X104629112Y-88012612D01*
X104613566Y-88031554D01*
X104603172Y-88051000D01*
X103692500Y-88051000D01*
X103692500Y-85901000D01*
X104603172Y-85901000D01*
X104613566Y-85920446D01*
X104613566Y-85920446D01*
G37*
G36*
X159461000Y-87597000D02*
X157311000Y-87597000D01*
X157311000Y-86647000D01*
X159461000Y-86647000D01*
X159461000Y-87597000D01*
X159461000Y-87597000D01*
G37*
G36*
X152061000Y-87597000D02*
X149911000Y-87597000D01*
X149911000Y-86647000D01*
X152061000Y-86647000D01*
X152061000Y-87597000D01*
X152061000Y-87597000D01*
G37*
G36*
X121880622Y-86287017D02*
X121928585Y-86301566D01*
X121972775Y-86325186D01*
X122011518Y-86356982D01*
X122043314Y-86395725D01*
X122066934Y-86439915D01*
X122081483Y-86487878D01*
X122087000Y-86543891D01*
X122087000Y-87294109D01*
X122081483Y-87350122D01*
X122066934Y-87398085D01*
X122043314Y-87442275D01*
X122011518Y-87481018D01*
X121972775Y-87512814D01*
X121928585Y-87536434D01*
X121880622Y-87550983D01*
X121824609Y-87556500D01*
X120999391Y-87556500D01*
X120943378Y-87550983D01*
X120895415Y-87536434D01*
X120851225Y-87512814D01*
X120812482Y-87481018D01*
X120780686Y-87442275D01*
X120757066Y-87398085D01*
X120742517Y-87350122D01*
X120737000Y-87294109D01*
X120737000Y-86543891D01*
X120742517Y-86487878D01*
X120757066Y-86439915D01*
X120780686Y-86395725D01*
X120812482Y-86356982D01*
X120851225Y-86325186D01*
X120895415Y-86301566D01*
X120943378Y-86287017D01*
X120999391Y-86281500D01*
X121824609Y-86281500D01*
X121880622Y-86287017D01*
X121880622Y-86287017D01*
G37*
G36*
X159461000Y-86327000D02*
X157311000Y-86327000D01*
X157311000Y-85377000D01*
X159461000Y-85377000D01*
X159461000Y-86327000D01*
X159461000Y-86327000D01*
G37*
G36*
X152061000Y-86327000D02*
X149911000Y-86327000D01*
X149911000Y-85377000D01*
X152061000Y-85377000D01*
X152061000Y-86327000D01*
X152061000Y-86327000D01*
G37*
G36*
X98649500Y-86267000D02*
X96549500Y-86267000D01*
X96549500Y-84167000D01*
X98649500Y-84167000D01*
X98649500Y-86267000D01*
X98649500Y-86267000D01*
G37*
G36*
X113031707Y-84174597D02*
X113108836Y-84182193D01*
X113240787Y-84222220D01*
X113306763Y-84242233D01*
X113489172Y-84339733D01*
X113649054Y-84470946D01*
X113780267Y-84630828D01*
X113877767Y-84813237D01*
X113877767Y-84813238D01*
X113937807Y-85011164D01*
X113958080Y-85217000D01*
X113937807Y-85422836D01*
X113919784Y-85482250D01*
X113877767Y-85620763D01*
X113780267Y-85803172D01*
X113649054Y-85963054D01*
X113489172Y-86094267D01*
X113306763Y-86191767D01*
X113240787Y-86211780D01*
X113108836Y-86251807D01*
X113031707Y-86259404D01*
X112954580Y-86267000D01*
X112851420Y-86267000D01*
X112774293Y-86259404D01*
X112697164Y-86251807D01*
X112565213Y-86211780D01*
X112499237Y-86191767D01*
X112316828Y-86094267D01*
X112156946Y-85963054D01*
X112025733Y-85803172D01*
X111928233Y-85620763D01*
X111886216Y-85482250D01*
X111868193Y-85422836D01*
X111847920Y-85217000D01*
X111868193Y-85011164D01*
X111928233Y-84813238D01*
X111928233Y-84813237D01*
X112025733Y-84630828D01*
X112156946Y-84470946D01*
X112316828Y-84339733D01*
X112499237Y-84242233D01*
X112565213Y-84222220D01*
X112697164Y-84182193D01*
X112774293Y-84174597D01*
X112851420Y-84167000D01*
X112954580Y-84167000D01*
X113031707Y-84174597D01*
X113031707Y-84174597D01*
G37*
G36*
X111413000Y-86267000D02*
X109313000Y-86267000D01*
X109313000Y-84167000D01*
X111413000Y-84167000D01*
X111413000Y-86267000D01*
X111413000Y-86267000D01*
G37*
G36*
X100268207Y-84174597D02*
X100345336Y-84182193D01*
X100477287Y-84222220D01*
X100543263Y-84242233D01*
X100725672Y-84339733D01*
X100885554Y-84470946D01*
X101016767Y-84630828D01*
X101114267Y-84813237D01*
X101114267Y-84813238D01*
X101174307Y-85011164D01*
X101194580Y-85217000D01*
X101174307Y-85422836D01*
X101156284Y-85482250D01*
X101114267Y-85620763D01*
X101016767Y-85803172D01*
X100885554Y-85963054D01*
X100725672Y-86094267D01*
X100543263Y-86191767D01*
X100477287Y-86211780D01*
X100345336Y-86251807D01*
X100268207Y-86259404D01*
X100191080Y-86267000D01*
X100087920Y-86267000D01*
X100010793Y-86259404D01*
X99933664Y-86251807D01*
X99801713Y-86211780D01*
X99735737Y-86191767D01*
X99553328Y-86094267D01*
X99393446Y-85963054D01*
X99262233Y-85803172D01*
X99164733Y-85620763D01*
X99122716Y-85482250D01*
X99104693Y-85422836D01*
X99084420Y-85217000D01*
X99104693Y-85011164D01*
X99164733Y-84813238D01*
X99164733Y-84813237D01*
X99262233Y-84630828D01*
X99393446Y-84470946D01*
X99553328Y-84339733D01*
X99735737Y-84242233D01*
X99801713Y-84222220D01*
X99933664Y-84182193D01*
X100010793Y-84174597D01*
X100087920Y-84167000D01*
X100191080Y-84167000D01*
X100268207Y-84174597D01*
X100268207Y-84174597D01*
G37*
G36*
X121880622Y-84712017D02*
X121928585Y-84726566D01*
X121972775Y-84750186D01*
X122011518Y-84781982D01*
X122043314Y-84820725D01*
X122066934Y-84864915D01*
X122081483Y-84912878D01*
X122087000Y-84968891D01*
X122087000Y-85719109D01*
X122081483Y-85775122D01*
X122066934Y-85823085D01*
X122043314Y-85867275D01*
X122011518Y-85906018D01*
X121972775Y-85937814D01*
X121928585Y-85961434D01*
X121880622Y-85975983D01*
X121824609Y-85981500D01*
X120999391Y-85981500D01*
X120943378Y-85975983D01*
X120895415Y-85961434D01*
X120851225Y-85937814D01*
X120812482Y-85906018D01*
X120780686Y-85867275D01*
X120757066Y-85823085D01*
X120742517Y-85775122D01*
X120737000Y-85719109D01*
X120737000Y-84968891D01*
X120742517Y-84912878D01*
X120757066Y-84864915D01*
X120780686Y-84820725D01*
X120812482Y-84781982D01*
X120851225Y-84750186D01*
X120895415Y-84726566D01*
X120943378Y-84712017D01*
X120999391Y-84706500D01*
X121824609Y-84706500D01*
X121880622Y-84712017D01*
X121880622Y-84712017D01*
G37*
G36*
X141516497Y-84456997D02*
X141569153Y-84472970D01*
X141617665Y-84498900D01*
X141660196Y-84533804D01*
X141695100Y-84576335D01*
X141721030Y-84624847D01*
X141737003Y-84677503D01*
X141743000Y-84738390D01*
X141743000Y-85538610D01*
X141737003Y-85599497D01*
X141721030Y-85652153D01*
X141695100Y-85700665D01*
X141660196Y-85743196D01*
X141617665Y-85778100D01*
X141569153Y-85804030D01*
X141516497Y-85820003D01*
X141455610Y-85826000D01*
X140230390Y-85826000D01*
X140169503Y-85820003D01*
X140116847Y-85804030D01*
X140068335Y-85778100D01*
X140025804Y-85743196D01*
X139990900Y-85700665D01*
X139964970Y-85652153D01*
X139948997Y-85599497D01*
X139943000Y-85538610D01*
X139943000Y-84738390D01*
X139948997Y-84677503D01*
X139964970Y-84624847D01*
X139990900Y-84576335D01*
X140025804Y-84533804D01*
X140068335Y-84498900D01*
X140116847Y-84472970D01*
X140169503Y-84456997D01*
X140230390Y-84451000D01*
X141455610Y-84451000D01*
X141516497Y-84456997D01*
X141516497Y-84456997D01*
G37*
G36*
X107974122Y-83975517D02*
X108022085Y-83990066D01*
X108066275Y-84013686D01*
X108105018Y-84045482D01*
X108136814Y-84084225D01*
X108160434Y-84128415D01*
X108174983Y-84176378D01*
X108180500Y-84232391D01*
X108180500Y-84982609D01*
X108174983Y-85038622D01*
X108160434Y-85086585D01*
X108136814Y-85130775D01*
X108105018Y-85169518D01*
X108066275Y-85201314D01*
X108022085Y-85224934D01*
X107974122Y-85239483D01*
X107918109Y-85245000D01*
X107092891Y-85245000D01*
X107036878Y-85239483D01*
X106988915Y-85224934D01*
X106944725Y-85201314D01*
X106905982Y-85169518D01*
X106874186Y-85130775D01*
X106850566Y-85086585D01*
X106836017Y-85038622D01*
X106830500Y-84982609D01*
X106830500Y-84232391D01*
X106836017Y-84176378D01*
X106850566Y-84128415D01*
X106874186Y-84084225D01*
X106905982Y-84045482D01*
X106944725Y-84013686D01*
X106988915Y-83990066D01*
X107036878Y-83975517D01*
X107092891Y-83970000D01*
X107918109Y-83970000D01*
X107974122Y-83975517D01*
X107974122Y-83975517D01*
G37*
G36*
X152061000Y-85057000D02*
X149911000Y-85057000D01*
X149911000Y-84107000D01*
X152061000Y-84107000D01*
X152061000Y-85057000D01*
X152061000Y-85057000D01*
G37*
G36*
X159461000Y-85057000D02*
X157311000Y-85057000D01*
X157311000Y-84107000D01*
X159461000Y-84107000D01*
X159461000Y-85057000D01*
X159461000Y-85057000D01*
G37*
G36*
X141516497Y-82581997D02*
X141569153Y-82597970D01*
X141617665Y-82623900D01*
X141660196Y-82658804D01*
X141695100Y-82701335D01*
X141721030Y-82749847D01*
X141737003Y-82802503D01*
X141743000Y-82863390D01*
X141743000Y-83663610D01*
X141737003Y-83724497D01*
X141721030Y-83777153D01*
X141695100Y-83825665D01*
X141660196Y-83868196D01*
X141617665Y-83903100D01*
X141569153Y-83929030D01*
X141516497Y-83945003D01*
X141455610Y-83951000D01*
X140230390Y-83951000D01*
X140169503Y-83945003D01*
X140116847Y-83929030D01*
X140068335Y-83903100D01*
X140025804Y-83868196D01*
X139990900Y-83825665D01*
X139964970Y-83777153D01*
X139948997Y-83724497D01*
X139943000Y-83663610D01*
X139943000Y-82863390D01*
X139948997Y-82802503D01*
X139964970Y-82749847D01*
X139990900Y-82701335D01*
X140025804Y-82658804D01*
X140068335Y-82623900D01*
X140116847Y-82597970D01*
X140169503Y-82581997D01*
X140230390Y-82576000D01*
X141455610Y-82576000D01*
X141516497Y-82581997D01*
X141516497Y-82581997D01*
G37*
G36*
X117118522Y-82464717D02*
X117166485Y-82479266D01*
X117210675Y-82502886D01*
X117249418Y-82534682D01*
X117281214Y-82573425D01*
X117304834Y-82617615D01*
X117319383Y-82665578D01*
X117324900Y-82721591D01*
X117324900Y-83546809D01*
X117319383Y-83602822D01*
X117304834Y-83650785D01*
X117281214Y-83694975D01*
X117249418Y-83733718D01*
X117210675Y-83765514D01*
X117166485Y-83789134D01*
X117118522Y-83803683D01*
X117062509Y-83809200D01*
X116312291Y-83809200D01*
X116256278Y-83803683D01*
X116208315Y-83789134D01*
X116164125Y-83765514D01*
X116125382Y-83733718D01*
X116093586Y-83694975D01*
X116069966Y-83650785D01*
X116055417Y-83602822D01*
X116049900Y-83546809D01*
X116049900Y-82721591D01*
X116055417Y-82665578D01*
X116069966Y-82617615D01*
X116093586Y-82573425D01*
X116125382Y-82534682D01*
X116164125Y-82502886D01*
X116208315Y-82479266D01*
X116256278Y-82464717D01*
X116312291Y-82459200D01*
X117062509Y-82459200D01*
X117118522Y-82464717D01*
X117118522Y-82464717D01*
G37*
G36*
X118693522Y-82464717D02*
X118741485Y-82479266D01*
X118785675Y-82502886D01*
X118824418Y-82534682D01*
X118856214Y-82573425D01*
X118879834Y-82617615D01*
X118894383Y-82665578D01*
X118899900Y-82721591D01*
X118899900Y-83546809D01*
X118894383Y-83602822D01*
X118879834Y-83650785D01*
X118856214Y-83694975D01*
X118824418Y-83733718D01*
X118785675Y-83765514D01*
X118741485Y-83789134D01*
X118693522Y-83803683D01*
X118637509Y-83809200D01*
X117887291Y-83809200D01*
X117831278Y-83803683D01*
X117783315Y-83789134D01*
X117739125Y-83765514D01*
X117700382Y-83733718D01*
X117668586Y-83694975D01*
X117644966Y-83650785D01*
X117630417Y-83602822D01*
X117624900Y-83546809D01*
X117624900Y-82721591D01*
X117630417Y-82665578D01*
X117644966Y-82617615D01*
X117668586Y-82573425D01*
X117700382Y-82534682D01*
X117739125Y-82502886D01*
X117783315Y-82479266D01*
X117831278Y-82464717D01*
X117887291Y-82459200D01*
X118637509Y-82459200D01*
X118693522Y-82464717D01*
X118693522Y-82464717D01*
G37*
G36*
X122376622Y-82413917D02*
X122424585Y-82428466D01*
X122468775Y-82452086D01*
X122507518Y-82483882D01*
X122539314Y-82522625D01*
X122562934Y-82566815D01*
X122577483Y-82614778D01*
X122583000Y-82670791D01*
X122583000Y-83496009D01*
X122577483Y-83552022D01*
X122562934Y-83599985D01*
X122539314Y-83644175D01*
X122507518Y-83682918D01*
X122468775Y-83714714D01*
X122424585Y-83738334D01*
X122376622Y-83752883D01*
X122320609Y-83758400D01*
X121570391Y-83758400D01*
X121514378Y-83752883D01*
X121466415Y-83738334D01*
X121422225Y-83714714D01*
X121383482Y-83682918D01*
X121351686Y-83644175D01*
X121328066Y-83599985D01*
X121313517Y-83552022D01*
X121308000Y-83496009D01*
X121308000Y-82670791D01*
X121313517Y-82614778D01*
X121328066Y-82566815D01*
X121351686Y-82522625D01*
X121383482Y-82483882D01*
X121422225Y-82452086D01*
X121466415Y-82428466D01*
X121514378Y-82413917D01*
X121570391Y-82408400D01*
X122320609Y-82408400D01*
X122376622Y-82413917D01*
X122376622Y-82413917D01*
G37*
G36*
X120801622Y-82413917D02*
X120849585Y-82428466D01*
X120893775Y-82452086D01*
X120932518Y-82483882D01*
X120964314Y-82522625D01*
X120987934Y-82566815D01*
X121002483Y-82614778D01*
X121008000Y-82670791D01*
X121008000Y-83496009D01*
X121002483Y-83552022D01*
X120987934Y-83599985D01*
X120964314Y-83644175D01*
X120932518Y-83682918D01*
X120893775Y-83714714D01*
X120849585Y-83738334D01*
X120801622Y-83752883D01*
X120745609Y-83758400D01*
X119995391Y-83758400D01*
X119939378Y-83752883D01*
X119891415Y-83738334D01*
X119847225Y-83714714D01*
X119808482Y-83682918D01*
X119776686Y-83644175D01*
X119753066Y-83599985D01*
X119738517Y-83552022D01*
X119733000Y-83496009D01*
X119733000Y-82670791D01*
X119738517Y-82614778D01*
X119753066Y-82566815D01*
X119776686Y-82522625D01*
X119808482Y-82483882D01*
X119847225Y-82452086D01*
X119891415Y-82428466D01*
X119939378Y-82413917D01*
X119995391Y-82408400D01*
X120745609Y-82408400D01*
X120801622Y-82413917D01*
X120801622Y-82413917D01*
G37*
G36*
X107974122Y-82400517D02*
X108022085Y-82415066D01*
X108066275Y-82438686D01*
X108105018Y-82470482D01*
X108136814Y-82509225D01*
X108160434Y-82553415D01*
X108174983Y-82601378D01*
X108180500Y-82657391D01*
X108180500Y-83407609D01*
X108174983Y-83463622D01*
X108160434Y-83511585D01*
X108136814Y-83555775D01*
X108105018Y-83594518D01*
X108066275Y-83626314D01*
X108022085Y-83649934D01*
X107974122Y-83664483D01*
X107918109Y-83670000D01*
X107092891Y-83670000D01*
X107036878Y-83664483D01*
X106988915Y-83649934D01*
X106944725Y-83626314D01*
X106905982Y-83594518D01*
X106874186Y-83555775D01*
X106850566Y-83511585D01*
X106836017Y-83463622D01*
X106830500Y-83407609D01*
X106830500Y-82657391D01*
X106836017Y-82601378D01*
X106850566Y-82553415D01*
X106874186Y-82509225D01*
X106905982Y-82470482D01*
X106944725Y-82438686D01*
X106988915Y-82415066D01*
X107036878Y-82400517D01*
X107092891Y-82395000D01*
X107918109Y-82395000D01*
X107974122Y-82400517D01*
X107974122Y-82400517D01*
G37*
G36*
X157631622Y-81550317D02*
X157679585Y-81564866D01*
X157723775Y-81588486D01*
X157762518Y-81620282D01*
X157794314Y-81659025D01*
X157817934Y-81703215D01*
X157832483Y-81751178D01*
X157838000Y-81807191D01*
X157838000Y-82632409D01*
X157832483Y-82688422D01*
X157817934Y-82736385D01*
X157794314Y-82780575D01*
X157762518Y-82819318D01*
X157723775Y-82851114D01*
X157679585Y-82874734D01*
X157631622Y-82889283D01*
X157575609Y-82894800D01*
X156825391Y-82894800D01*
X156769378Y-82889283D01*
X156721415Y-82874734D01*
X156677225Y-82851114D01*
X156638482Y-82819318D01*
X156606686Y-82780575D01*
X156583066Y-82736385D01*
X156568517Y-82688422D01*
X156563000Y-82632409D01*
X156563000Y-81807191D01*
X156568517Y-81751178D01*
X156583066Y-81703215D01*
X156606686Y-81659025D01*
X156638482Y-81620282D01*
X156677225Y-81588486D01*
X156721415Y-81564866D01*
X156769378Y-81550317D01*
X156825391Y-81544800D01*
X157575609Y-81544800D01*
X157631622Y-81550317D01*
X157631622Y-81550317D01*
G37*
G36*
X159206622Y-81550317D02*
X159254585Y-81564866D01*
X159298775Y-81588486D01*
X159337518Y-81620282D01*
X159369314Y-81659025D01*
X159392934Y-81703215D01*
X159407483Y-81751178D01*
X159413000Y-81807191D01*
X159413000Y-82632409D01*
X159407483Y-82688422D01*
X159392934Y-82736385D01*
X159369314Y-82780575D01*
X159337518Y-82819318D01*
X159298775Y-82851114D01*
X159254585Y-82874734D01*
X159206622Y-82889283D01*
X159150609Y-82894800D01*
X158400391Y-82894800D01*
X158344378Y-82889283D01*
X158296415Y-82874734D01*
X158252225Y-82851114D01*
X158213482Y-82819318D01*
X158181686Y-82780575D01*
X158158066Y-82736385D01*
X158143517Y-82688422D01*
X158138000Y-82632409D01*
X158138000Y-81807191D01*
X158143517Y-81751178D01*
X158158066Y-81703215D01*
X158181686Y-81659025D01*
X158213482Y-81620282D01*
X158252225Y-81588486D01*
X158296415Y-81564866D01*
X158344378Y-81550317D01*
X158400391Y-81544800D01*
X159150609Y-81544800D01*
X159206622Y-81550317D01*
X159206622Y-81550317D01*
G37*
G36*
X147847000Y-81668000D02*
X147047000Y-81668000D01*
X147047000Y-79368000D01*
X147847000Y-79368000D01*
X147847000Y-81668000D01*
X147847000Y-81668000D01*
G37*
G36*
X149047000Y-81668000D02*
X148247000Y-81668000D01*
X148247000Y-79368000D01*
X149047000Y-79368000D01*
X149047000Y-81668000D01*
X149047000Y-81668000D01*
G37*
G36*
X146647000Y-81668000D02*
X145847000Y-81668000D01*
X145847000Y-79368000D01*
X146647000Y-79368000D01*
X146647000Y-81668000D01*
X146647000Y-81668000D01*
G37*
G36*
X173360393Y-76956553D02*
X173469872Y-76978330D01*
X173779252Y-77106479D01*
X174057687Y-77292523D01*
X174294477Y-77529313D01*
X174480521Y-77807748D01*
X174608670Y-78117128D01*
X174674000Y-78445565D01*
X174674000Y-78780435D01*
X174608670Y-79108872D01*
X174480521Y-79418252D01*
X174294477Y-79696687D01*
X174057687Y-79933477D01*
X173779252Y-80119521D01*
X173469872Y-80247670D01*
X173360393Y-80269447D01*
X173141437Y-80313000D01*
X172806563Y-80313000D01*
X172587607Y-80269447D01*
X172478128Y-80247670D01*
X172168748Y-80119521D01*
X171890313Y-79933477D01*
X171653523Y-79696687D01*
X171467479Y-79418252D01*
X171339330Y-79108872D01*
X171274000Y-78780435D01*
X171274000Y-78445565D01*
X171339330Y-78117128D01*
X171467479Y-77807748D01*
X171653523Y-77529313D01*
X171890313Y-77292523D01*
X172168748Y-77106479D01*
X172478128Y-76978330D01*
X172587607Y-76956553D01*
X172806563Y-76913000D01*
X173141437Y-76913000D01*
X173360393Y-76956553D01*
X173360393Y-76956553D01*
G37*
G36*
X152661000Y-80185000D02*
X150811000Y-80185000D01*
X150811000Y-73485000D01*
X152661000Y-73485000D01*
X152661000Y-80185000D01*
X152661000Y-80185000D01*
G37*
G36*
X158561000Y-80185000D02*
X156711000Y-80185000D01*
X156711000Y-73485000D01*
X158561000Y-73485000D01*
X158561000Y-80185000D01*
X158561000Y-80185000D01*
G37*
G36*
X174674000Y-75233000D02*
X171274000Y-75233000D01*
X171274000Y-71833000D01*
X174674000Y-71833000D01*
X174674000Y-75233000D01*
X174674000Y-75233000D01*
G37*
G36*
X161492622Y-73752517D02*
X161540585Y-73767066D01*
X161584775Y-73790686D01*
X161623519Y-73822483D01*
X161650625Y-73855511D01*
X161667952Y-73872837D01*
X161688327Y-73886451D01*
X161710966Y-73895828D01*
X161735000Y-73900608D01*
X161759504Y-73900608D01*
X161783537Y-73895827D01*
X161806176Y-73886449D01*
X161826551Y-73872835D01*
X161843875Y-73855511D01*
X161870981Y-73822483D01*
X161909725Y-73790686D01*
X161953915Y-73767066D01*
X162001878Y-73752517D01*
X162057891Y-73747000D01*
X162808109Y-73747000D01*
X162864122Y-73752517D01*
X162912085Y-73767066D01*
X162956275Y-73790686D01*
X162995018Y-73822482D01*
X163026814Y-73861225D01*
X163050434Y-73905415D01*
X163064983Y-73953378D01*
X163070500Y-74009391D01*
X163070500Y-74834609D01*
X163064983Y-74890622D01*
X163050434Y-74938585D01*
X163026814Y-74982775D01*
X162995018Y-75021518D01*
X162956275Y-75053314D01*
X162912085Y-75076934D01*
X162864122Y-75091483D01*
X162808109Y-75097000D01*
X162057891Y-75097000D01*
X162001878Y-75091483D01*
X161953915Y-75076934D01*
X161909725Y-75053314D01*
X161870981Y-75021517D01*
X161843875Y-74988489D01*
X161826548Y-74971163D01*
X161806173Y-74957549D01*
X161783534Y-74948172D01*
X161759500Y-74943392D01*
X161734996Y-74943392D01*
X161710963Y-74948173D01*
X161688324Y-74957551D01*
X161667949Y-74971165D01*
X161650625Y-74988489D01*
X161623519Y-75021517D01*
X161584775Y-75053314D01*
X161540585Y-75076934D01*
X161492622Y-75091483D01*
X161436609Y-75097000D01*
X160686391Y-75097000D01*
X160630378Y-75091483D01*
X160582415Y-75076934D01*
X160538225Y-75053314D01*
X160499482Y-75021518D01*
X160467686Y-74982775D01*
X160444066Y-74938585D01*
X160429517Y-74890622D01*
X160424000Y-74834609D01*
X160424000Y-74009391D01*
X160429517Y-73953378D01*
X160444066Y-73905415D01*
X160467686Y-73861225D01*
X160499482Y-73822482D01*
X160538225Y-73790686D01*
X160582415Y-73767066D01*
X160630378Y-73752517D01*
X160686391Y-73747000D01*
X161436609Y-73747000D01*
X161492622Y-73752517D01*
X161492622Y-73752517D01*
G37*
G36*
X159917622Y-73752517D02*
X159965585Y-73767066D01*
X160009775Y-73790686D01*
X160048518Y-73822482D01*
X160080314Y-73861225D01*
X160103934Y-73905415D01*
X160118483Y-73953378D01*
X160124000Y-74009391D01*
X160124000Y-74834609D01*
X160118483Y-74890622D01*
X160103934Y-74938585D01*
X160080314Y-74982775D01*
X160048518Y-75021518D01*
X160009775Y-75053314D01*
X159965585Y-75076934D01*
X159917622Y-75091483D01*
X159861609Y-75097000D01*
X159111391Y-75097000D01*
X159055378Y-75091483D01*
X159007415Y-75076934D01*
X158963225Y-75053314D01*
X158924482Y-75021518D01*
X158892686Y-74982775D01*
X158869066Y-74938585D01*
X158854517Y-74890622D01*
X158849000Y-74834609D01*
X158849000Y-74009391D01*
X158854517Y-73953378D01*
X158869066Y-73905415D01*
X158892686Y-73861225D01*
X158924482Y-73822482D01*
X158963225Y-73790686D01*
X159007415Y-73767066D01*
X159055378Y-73752517D01*
X159111391Y-73747000D01*
X159861609Y-73747000D01*
X159917622Y-73752517D01*
X159917622Y-73752517D01*
G37*
G36*
X164439122Y-73752517D02*
X164487085Y-73767066D01*
X164531275Y-73790686D01*
X164570018Y-73822482D01*
X164601814Y-73861225D01*
X164625434Y-73905415D01*
X164639983Y-73953378D01*
X164645500Y-74009391D01*
X164645500Y-74834609D01*
X164639983Y-74890622D01*
X164625434Y-74938585D01*
X164601814Y-74982775D01*
X164570018Y-75021518D01*
X164531275Y-75053314D01*
X164487085Y-75076934D01*
X164439122Y-75091483D01*
X164383109Y-75097000D01*
X163632891Y-75097000D01*
X163576878Y-75091483D01*
X163528915Y-75076934D01*
X163484725Y-75053314D01*
X163445982Y-75021518D01*
X163414186Y-74982775D01*
X163390566Y-74938585D01*
X163376017Y-74890622D01*
X163370500Y-74834609D01*
X163370500Y-74009391D01*
X163376017Y-73953378D01*
X163390566Y-73905415D01*
X163414186Y-73861225D01*
X163445982Y-73822482D01*
X163484725Y-73790686D01*
X163528915Y-73767066D01*
X163576878Y-73752517D01*
X163632891Y-73747000D01*
X164383109Y-73747000D01*
X164439122Y-73752517D01*
X164439122Y-73752517D01*
G37*
G36*
X159288000Y-70867392D02*
X159290402Y-70891778D01*
X159297515Y-70915227D01*
X159309066Y-70936838D01*
X159324612Y-70955780D01*
X159343554Y-70971326D01*
X159365165Y-70982877D01*
X159388614Y-70989990D01*
X159413000Y-70992392D01*
X159437386Y-70989990D01*
X159460835Y-70982877D01*
X159482446Y-70971326D01*
X159509624Y-70946693D01*
X159604313Y-70831313D01*
X159802264Y-70668860D01*
X160028104Y-70548145D01*
X160273155Y-70473810D01*
X160464136Y-70455000D01*
X160591864Y-70455000D01*
X160782845Y-70473810D01*
X161027896Y-70548145D01*
X161253736Y-70668860D01*
X161451687Y-70831313D01*
X161614140Y-71029264D01*
X161734855Y-71255104D01*
X161809190Y-71500155D01*
X161834290Y-71755000D01*
X161809190Y-72009845D01*
X161734855Y-72254896D01*
X161614140Y-72480736D01*
X161451687Y-72678687D01*
X161253736Y-72841140D01*
X161027896Y-72961855D01*
X160782845Y-73036190D01*
X160591864Y-73055000D01*
X160464136Y-73055000D01*
X160273155Y-73036190D01*
X160028104Y-72961855D01*
X159802264Y-72841140D01*
X159604313Y-72678687D01*
X159509623Y-72563306D01*
X159492299Y-72545982D01*
X159471925Y-72532368D01*
X159449286Y-72522990D01*
X159425252Y-72518210D01*
X159400748Y-72518210D01*
X159376714Y-72522990D01*
X159354075Y-72532368D01*
X159333701Y-72545982D01*
X159316374Y-72563309D01*
X159302760Y-72583683D01*
X159293382Y-72606322D01*
X159288000Y-72642608D01*
X159288000Y-73055000D01*
X156688000Y-73055000D01*
X156688000Y-70455000D01*
X159288000Y-70455000D01*
X159288000Y-70867392D01*
X159288000Y-70867392D01*
G37*
G36*
X153390997Y-68708997D02*
X153443653Y-68724970D01*
X153492165Y-68750900D01*
X153534696Y-68785804D01*
X153569600Y-68828335D01*
X153595530Y-68876847D01*
X153611503Y-68929503D01*
X153617500Y-68990390D01*
X153617500Y-69790610D01*
X153611503Y-69851497D01*
X153595530Y-69904153D01*
X153569600Y-69952665D01*
X153534696Y-69995196D01*
X153492165Y-70030100D01*
X153443653Y-70056030D01*
X153390997Y-70072003D01*
X153330110Y-70078000D01*
X152104890Y-70078000D01*
X152044003Y-70072003D01*
X151991347Y-70056030D01*
X151942835Y-70030100D01*
X151900304Y-69995196D01*
X151865400Y-69952665D01*
X151839470Y-69904153D01*
X151823497Y-69851497D01*
X151817500Y-69790610D01*
X151817500Y-68990390D01*
X151823497Y-68929503D01*
X151839470Y-68876847D01*
X151865400Y-68828335D01*
X151900304Y-68785804D01*
X151942835Y-68750900D01*
X151991347Y-68724970D01*
X152044003Y-68708997D01*
X152104890Y-68703000D01*
X153330110Y-68703000D01*
X153390997Y-68708997D01*
X153390997Y-68708997D01*
G37*
G36*
X160222622Y-68672517D02*
X160270585Y-68687066D01*
X160314775Y-68710686D01*
X160353518Y-68742482D01*
X160385314Y-68781225D01*
X160408934Y-68825415D01*
X160423483Y-68873378D01*
X160429000Y-68929391D01*
X160429000Y-69754609D01*
X160423483Y-69810622D01*
X160408934Y-69858585D01*
X160385314Y-69902775D01*
X160353518Y-69941518D01*
X160314775Y-69973314D01*
X160270585Y-69996934D01*
X160222622Y-70011483D01*
X160166609Y-70017000D01*
X159416391Y-70017000D01*
X159360378Y-70011483D01*
X159312415Y-69996934D01*
X159268225Y-69973314D01*
X159229482Y-69941518D01*
X159197686Y-69902775D01*
X159174066Y-69858585D01*
X159159517Y-69810622D01*
X159154000Y-69754609D01*
X159154000Y-68929391D01*
X159159517Y-68873378D01*
X159174066Y-68825415D01*
X159197686Y-68781225D01*
X159229482Y-68742482D01*
X159268225Y-68710686D01*
X159312415Y-68687066D01*
X159360378Y-68672517D01*
X159416391Y-68667000D01*
X160166609Y-68667000D01*
X160222622Y-68672517D01*
X160222622Y-68672517D01*
G37*
G36*
X158647622Y-68672517D02*
X158695585Y-68687066D01*
X158739775Y-68710686D01*
X158778518Y-68742482D01*
X158810314Y-68781225D01*
X158833934Y-68825415D01*
X158848483Y-68873378D01*
X158854000Y-68929391D01*
X158854000Y-69754609D01*
X158848483Y-69810622D01*
X158833934Y-69858585D01*
X158810314Y-69902775D01*
X158778518Y-69941518D01*
X158739775Y-69973314D01*
X158695585Y-69996934D01*
X158647622Y-70011483D01*
X158591609Y-70017000D01*
X157841391Y-70017000D01*
X157785378Y-70011483D01*
X157737415Y-69996934D01*
X157693225Y-69973314D01*
X157654482Y-69941518D01*
X157622686Y-69902775D01*
X157599066Y-69858585D01*
X157584517Y-69810622D01*
X157579000Y-69754609D01*
X157579000Y-68929391D01*
X157584517Y-68873378D01*
X157599066Y-68825415D01*
X157622686Y-68781225D01*
X157654482Y-68742482D01*
X157693225Y-68710686D01*
X157737415Y-68687066D01*
X157785378Y-68672517D01*
X157841391Y-68667000D01*
X158591609Y-68667000D01*
X158647622Y-68672517D01*
X158647622Y-68672517D01*
G37*
G36*
X153390997Y-66833997D02*
X153443653Y-66849970D01*
X153492165Y-66875900D01*
X153534696Y-66910804D01*
X153569600Y-66953335D01*
X153595530Y-67001847D01*
X153611503Y-67054503D01*
X153617500Y-67115390D01*
X153617500Y-67915610D01*
X153611503Y-67976497D01*
X153595530Y-68029153D01*
X153569600Y-68077665D01*
X153534696Y-68120196D01*
X153492165Y-68155100D01*
X153443653Y-68181030D01*
X153390997Y-68197003D01*
X153330110Y-68203000D01*
X152104890Y-68203000D01*
X152044003Y-68197003D01*
X151991347Y-68181030D01*
X151942835Y-68155100D01*
X151900304Y-68120196D01*
X151865400Y-68077665D01*
X151839470Y-68029153D01*
X151823497Y-67976497D01*
X151817500Y-67915610D01*
X151817500Y-67115390D01*
X151823497Y-67054503D01*
X151839470Y-67001847D01*
X151865400Y-66953335D01*
X151900304Y-66910804D01*
X151942835Y-66875900D01*
X151991347Y-66849970D01*
X152044003Y-66833997D01*
X152104890Y-66828000D01*
X153330110Y-66828000D01*
X153390997Y-66833997D01*
X153390997Y-66833997D01*
G37*
M02*
