G04 #@! TF.GenerationSoftware,KiCad,Pcbnew,(5.0.2)-1*
G04 #@! TF.CreationDate,2019-02-02T14:32:06-06:00*
G04 #@! TF.ProjectId,Motor test module,4d6f746f-7220-4746-9573-74206d6f6475,rev?*
G04 #@! TF.SameCoordinates,Original*
G04 #@! TF.FileFunction,Legend,Bot*
G04 #@! TF.FilePolarity,Positive*
%FSLAX46Y46*%
G04 Gerber Fmt 4.6, Leading zero omitted, Abs format (unit mm)*
G04 Created by KiCad (PCBNEW (5.0.2)-1) date 2/2/2019 2:32:06 PM*
%MOMM*%
%LPD*%
G01*
G04 APERTURE LIST*
%ADD10C,0.010000*%
G04 APERTURE END LIST*
D10*
G04 #@! TO.C,G\002A\002A\002A*
G36*
X135933747Y-107943920D02*
X135819418Y-108015311D01*
X135668069Y-108123992D01*
X135490211Y-108261536D01*
X135296351Y-108419512D01*
X135096998Y-108589491D01*
X134902661Y-108763044D01*
X134723848Y-108931741D01*
X134667082Y-108987871D01*
X134344859Y-109327549D01*
X134037287Y-109687109D01*
X133741214Y-110072179D01*
X133453481Y-110488388D01*
X133170935Y-110941366D01*
X132890419Y-111436741D01*
X132608777Y-111980143D01*
X132322855Y-112577201D01*
X132029496Y-113233543D01*
X131725546Y-113954800D01*
X131407847Y-114746600D01*
X131336359Y-114929376D01*
X131086590Y-115570658D01*
X131290072Y-115931620D01*
X131609891Y-116524699D01*
X131934057Y-117174306D01*
X132252672Y-117858881D01*
X132555839Y-118556864D01*
X132833661Y-119246698D01*
X132935995Y-119516917D01*
X133152777Y-120117891D01*
X133360301Y-120729502D01*
X133559597Y-121356439D01*
X133751696Y-122003391D01*
X133937627Y-122675046D01*
X134118422Y-123376094D01*
X134295110Y-124111224D01*
X134468722Y-124885124D01*
X134640288Y-125702484D01*
X134810839Y-126567992D01*
X134981404Y-127486338D01*
X135153014Y-128462210D01*
X135326700Y-129500297D01*
X135503491Y-130605288D01*
X135684418Y-131781872D01*
X135798076Y-132542298D01*
X135843285Y-132844856D01*
X135885446Y-133121400D01*
X135923033Y-133362359D01*
X135954520Y-133558158D01*
X135978381Y-133699225D01*
X135993091Y-133775986D01*
X135996486Y-133787215D01*
X136016033Y-133767431D01*
X136033507Y-133709886D01*
X136044276Y-133646165D01*
X136064060Y-133515355D01*
X136091194Y-133329019D01*
X136124012Y-133098723D01*
X136160848Y-132836030D01*
X136195706Y-132584031D01*
X136421892Y-131005205D01*
X136656076Y-129503164D01*
X136898863Y-128075666D01*
X137150856Y-126720466D01*
X137412657Y-125435322D01*
X137684868Y-124217989D01*
X137968094Y-123066225D01*
X138262938Y-121977784D01*
X138570000Y-120950425D01*
X138889886Y-119981903D01*
X139223198Y-119069974D01*
X139570538Y-118212395D01*
X139932510Y-117406923D01*
X140309716Y-116651314D01*
X140637145Y-116056342D01*
X140734497Y-115883662D01*
X140815399Y-115733463D01*
X140872359Y-115620157D01*
X140897884Y-115558157D01*
X140898562Y-115553471D01*
X140884610Y-115500871D01*
X140845485Y-115385301D01*
X140785285Y-115217572D01*
X140708109Y-115008497D01*
X140618053Y-114768886D01*
X140519216Y-114509551D01*
X140415696Y-114241303D01*
X140311590Y-113974953D01*
X140210996Y-113721312D01*
X140118013Y-113491193D01*
X140103038Y-113454656D01*
X139962086Y-113127072D01*
X139793560Y-112760602D01*
X139606487Y-112373075D01*
X139409894Y-111982321D01*
X139212807Y-111606169D01*
X139024254Y-111262448D01*
X138853261Y-110968986D01*
X138804391Y-110889665D01*
X138482255Y-110401357D01*
X138140690Y-109931245D01*
X137790285Y-109492376D01*
X137441630Y-109097797D01*
X137105314Y-108760554D01*
X136995826Y-108661417D01*
X136832058Y-108521780D01*
X136655359Y-108378203D01*
X136477865Y-108239748D01*
X136311711Y-108115477D01*
X136169034Y-108014451D01*
X136061968Y-107945732D01*
X136002649Y-107918381D01*
X136000549Y-107918250D01*
X135933747Y-107943920D01*
X135933747Y-107943920D01*
G37*
X135933747Y-107943920D02*
X135819418Y-108015311D01*
X135668069Y-108123992D01*
X135490211Y-108261536D01*
X135296351Y-108419512D01*
X135096998Y-108589491D01*
X134902661Y-108763044D01*
X134723848Y-108931741D01*
X134667082Y-108987871D01*
X134344859Y-109327549D01*
X134037287Y-109687109D01*
X133741214Y-110072179D01*
X133453481Y-110488388D01*
X133170935Y-110941366D01*
X132890419Y-111436741D01*
X132608777Y-111980143D01*
X132322855Y-112577201D01*
X132029496Y-113233543D01*
X131725546Y-113954800D01*
X131407847Y-114746600D01*
X131336359Y-114929376D01*
X131086590Y-115570658D01*
X131290072Y-115931620D01*
X131609891Y-116524699D01*
X131934057Y-117174306D01*
X132252672Y-117858881D01*
X132555839Y-118556864D01*
X132833661Y-119246698D01*
X132935995Y-119516917D01*
X133152777Y-120117891D01*
X133360301Y-120729502D01*
X133559597Y-121356439D01*
X133751696Y-122003391D01*
X133937627Y-122675046D01*
X134118422Y-123376094D01*
X134295110Y-124111224D01*
X134468722Y-124885124D01*
X134640288Y-125702484D01*
X134810839Y-126567992D01*
X134981404Y-127486338D01*
X135153014Y-128462210D01*
X135326700Y-129500297D01*
X135503491Y-130605288D01*
X135684418Y-131781872D01*
X135798076Y-132542298D01*
X135843285Y-132844856D01*
X135885446Y-133121400D01*
X135923033Y-133362359D01*
X135954520Y-133558158D01*
X135978381Y-133699225D01*
X135993091Y-133775986D01*
X135996486Y-133787215D01*
X136016033Y-133767431D01*
X136033507Y-133709886D01*
X136044276Y-133646165D01*
X136064060Y-133515355D01*
X136091194Y-133329019D01*
X136124012Y-133098723D01*
X136160848Y-132836030D01*
X136195706Y-132584031D01*
X136421892Y-131005205D01*
X136656076Y-129503164D01*
X136898863Y-128075666D01*
X137150856Y-126720466D01*
X137412657Y-125435322D01*
X137684868Y-124217989D01*
X137968094Y-123066225D01*
X138262938Y-121977784D01*
X138570000Y-120950425D01*
X138889886Y-119981903D01*
X139223198Y-119069974D01*
X139570538Y-118212395D01*
X139932510Y-117406923D01*
X140309716Y-116651314D01*
X140637145Y-116056342D01*
X140734497Y-115883662D01*
X140815399Y-115733463D01*
X140872359Y-115620157D01*
X140897884Y-115558157D01*
X140898562Y-115553471D01*
X140884610Y-115500871D01*
X140845485Y-115385301D01*
X140785285Y-115217572D01*
X140708109Y-115008497D01*
X140618053Y-114768886D01*
X140519216Y-114509551D01*
X140415696Y-114241303D01*
X140311590Y-113974953D01*
X140210996Y-113721312D01*
X140118013Y-113491193D01*
X140103038Y-113454656D01*
X139962086Y-113127072D01*
X139793560Y-112760602D01*
X139606487Y-112373075D01*
X139409894Y-111982321D01*
X139212807Y-111606169D01*
X139024254Y-111262448D01*
X138853261Y-110968986D01*
X138804391Y-110889665D01*
X138482255Y-110401357D01*
X138140690Y-109931245D01*
X137790285Y-109492376D01*
X137441630Y-109097797D01*
X137105314Y-108760554D01*
X136995826Y-108661417D01*
X136832058Y-108521780D01*
X136655359Y-108378203D01*
X136477865Y-108239748D01*
X136311711Y-108115477D01*
X136169034Y-108014451D01*
X136061968Y-107945732D01*
X136002649Y-107918381D01*
X136000549Y-107918250D01*
X135933747Y-107943920D01*
G36*
X139046465Y-76084818D02*
X139035120Y-76175590D01*
X139033250Y-76240422D01*
X138997893Y-76539211D01*
X138895687Y-76807566D01*
X138732433Y-77035334D01*
X138513928Y-77212364D01*
X138460764Y-77242569D01*
X138358159Y-77301261D01*
X138292327Y-77347101D01*
X138279187Y-77363082D01*
X138308114Y-77395742D01*
X138387518Y-77468753D01*
X138506337Y-77572339D01*
X138653506Y-77696718D01*
X138705828Y-77740181D01*
X139243085Y-78204859D01*
X139728805Y-78666552D01*
X140158716Y-79120398D01*
X140528544Y-79561536D01*
X140834016Y-79985104D01*
X141070860Y-80386241D01*
X141122090Y-80489238D01*
X141250809Y-80805547D01*
X141344655Y-81133226D01*
X141401822Y-81456943D01*
X141420507Y-81761371D01*
X141398902Y-82031180D01*
X141335202Y-82251040D01*
X141330744Y-82260735D01*
X141179607Y-82492489D01*
X140954367Y-82706723D01*
X140658535Y-82902559D01*
X140295619Y-83079117D01*
X139869128Y-83235515D01*
X139382572Y-83370874D01*
X138839461Y-83484315D01*
X138243303Y-83574957D01*
X137597608Y-83641920D01*
X136905885Y-83684324D01*
X136171643Y-83701289D01*
X135603473Y-83696957D01*
X134836510Y-83667599D01*
X134123278Y-83611913D01*
X133466689Y-83530592D01*
X132869655Y-83424333D01*
X132335089Y-83293828D01*
X131865903Y-83139774D01*
X131465010Y-82962863D01*
X131135320Y-82763792D01*
X130914231Y-82578656D01*
X130742883Y-82365271D01*
X130632546Y-82122447D01*
X130582050Y-81843605D01*
X130590226Y-81522162D01*
X130655904Y-81151536D01*
X130658637Y-81140066D01*
X130768272Y-80778560D01*
X130925947Y-80414121D01*
X131134627Y-80043132D01*
X131397281Y-79661980D01*
X131716878Y-79267047D01*
X132096384Y-78854718D01*
X132538768Y-78421378D01*
X133046998Y-77963410D01*
X133624042Y-77477200D01*
X133748579Y-77375756D01*
X133726344Y-77352859D01*
X133654167Y-77309767D01*
X133629516Y-77296832D01*
X133369199Y-77126136D01*
X133175199Y-76913028D01*
X133045400Y-76654337D01*
X132977690Y-76346893D01*
X132974343Y-76314321D01*
X132966084Y-76209308D01*
X132956543Y-76135315D01*
X132934742Y-76091591D01*
X132889702Y-76077384D01*
X132810443Y-76091940D01*
X132685988Y-76134509D01*
X132505356Y-76204339D01*
X132335641Y-76270575D01*
X131672066Y-76557744D01*
X131000201Y-76905465D01*
X130342105Y-77300950D01*
X129719839Y-77731406D01*
X129428875Y-77955881D01*
X128980157Y-78340384D01*
X128511440Y-78788730D01*
X128031924Y-79290954D01*
X127550808Y-79837088D01*
X127077292Y-80417166D01*
X126701325Y-80910906D01*
X126559793Y-81102521D01*
X126427985Y-81280351D01*
X126315915Y-81430933D01*
X126233597Y-81540802D01*
X126198202Y-81587360D01*
X126159747Y-81632688D01*
X126115719Y-81668093D01*
X126053330Y-81697606D01*
X125959793Y-81725254D01*
X125822320Y-81755067D01*
X125628125Y-81791074D01*
X125455019Y-81821524D01*
X125234279Y-81861119D01*
X125038872Y-81898219D01*
X124883147Y-81929939D01*
X124781458Y-81953393D01*
X124750314Y-81963240D01*
X124752677Y-81993877D01*
X124829419Y-82049106D01*
X124979655Y-82128306D01*
X124999137Y-82137737D01*
X125405136Y-82368637D01*
X125820771Y-82673688D01*
X126242771Y-83048720D01*
X126667864Y-83489567D01*
X127092779Y-83992059D01*
X127514244Y-84552030D01*
X127928988Y-85165310D01*
X128333739Y-85827732D01*
X128725225Y-86535128D01*
X129100176Y-87283329D01*
X129193202Y-87481126D01*
X129759194Y-88793963D01*
X130255262Y-90141583D01*
X130679950Y-91518618D01*
X131031806Y-92919700D01*
X131309376Y-94339460D01*
X131511205Y-95772531D01*
X131557369Y-96210438D01*
X131581906Y-96523339D01*
X131601157Y-96892090D01*
X131615023Y-97299932D01*
X131623401Y-97730109D01*
X131626190Y-98165861D01*
X131623289Y-98590432D01*
X131614598Y-98987062D01*
X131600013Y-99338995D01*
X131579435Y-99629472D01*
X131578120Y-99643406D01*
X131447665Y-100680793D01*
X131260401Y-101665266D01*
X131016609Y-102596298D01*
X130716566Y-103473358D01*
X130360550Y-104295917D01*
X129948841Y-105063448D01*
X129481716Y-105775421D01*
X128959455Y-106431306D01*
X128382335Y-107030576D01*
X127750636Y-107572701D01*
X127191644Y-107974539D01*
X127031261Y-108077197D01*
X126845724Y-108190279D01*
X126648285Y-108306362D01*
X126452195Y-108418025D01*
X126270706Y-108517846D01*
X126117068Y-108598402D01*
X126004534Y-108652274D01*
X125946354Y-108672037D01*
X125946297Y-108672037D01*
X125900035Y-108679363D01*
X125896687Y-108683362D01*
X125923213Y-108713644D01*
X125997154Y-108791572D01*
X126110061Y-108908407D01*
X126253481Y-109055413D01*
X126418963Y-109223850D01*
X126443670Y-109248909D01*
X126895105Y-109732636D01*
X127361641Y-110282037D01*
X127835719Y-110886712D01*
X128309773Y-111536266D01*
X128776244Y-112220299D01*
X129227566Y-112928415D01*
X129656180Y-113650216D01*
X129696962Y-113721799D01*
X129795609Y-113892726D01*
X129881185Y-114035587D01*
X129945873Y-114137728D01*
X129981854Y-114186498D01*
X129985578Y-114188875D01*
X130007332Y-114154030D01*
X130054839Y-114056599D01*
X130123250Y-113907235D01*
X130207722Y-113716591D01*
X130303406Y-113495323D01*
X130338333Y-113413357D01*
X130545766Y-112938527D01*
X130769810Y-112450408D01*
X131002485Y-111965139D01*
X131235809Y-111498859D01*
X131461803Y-111067706D01*
X131672487Y-110687820D01*
X131760336Y-110537625D01*
X132158115Y-109901599D01*
X132558474Y-109326158D01*
X132975413Y-108793335D01*
X133422933Y-108285166D01*
X133880221Y-107817604D01*
X134223479Y-107490358D01*
X134540507Y-107207437D01*
X134853705Y-106950434D01*
X135185473Y-106700941D01*
X135545328Y-106449305D01*
X136006312Y-106135894D01*
X136438296Y-106428998D01*
X137234532Y-107016415D01*
X137977367Y-107662207D01*
X138240291Y-107917459D01*
X138718532Y-108424117D01*
X139173024Y-108965430D01*
X139607674Y-109547650D01*
X140026386Y-110177031D01*
X140433065Y-110859828D01*
X140831615Y-111602295D01*
X141225942Y-112410685D01*
X141619951Y-113291253D01*
X141672891Y-113414969D01*
X141768447Y-113637337D01*
X141855039Y-113834966D01*
X141927365Y-113996062D01*
X141980119Y-114108831D01*
X142007998Y-114161478D01*
X142009287Y-114163059D01*
X142044198Y-114150461D01*
X142101048Y-114082933D01*
X142150443Y-114004309D01*
X142520008Y-113369960D01*
X142905533Y-112743346D01*
X143301568Y-112131923D01*
X143702661Y-111543146D01*
X144103360Y-110984467D01*
X144498213Y-110463343D01*
X144881769Y-109987227D01*
X145248576Y-109563574D01*
X145593182Y-109199837D01*
X145827172Y-108976810D01*
X145947459Y-108864931D01*
X146039101Y-108773557D01*
X146090347Y-108714771D01*
X146096538Y-108699848D01*
X146055693Y-108676219D01*
X145958942Y-108624586D01*
X145821194Y-108552803D01*
X145673445Y-108476930D01*
X144995508Y-108088139D01*
X144344916Y-107629880D01*
X143729701Y-107109674D01*
X143157898Y-106535043D01*
X142637541Y-105913509D01*
X142176662Y-105252593D01*
X142103279Y-105134357D01*
X141715178Y-104435223D01*
X141376567Y-103691108D01*
X141085976Y-102897524D01*
X140841936Y-102049983D01*
X140642977Y-101143998D01*
X140493536Y-100218875D01*
X140469929Y-100038048D01*
X140450848Y-99870643D01*
X140435824Y-99705260D01*
X140424390Y-99530502D01*
X140416077Y-99334970D01*
X140410416Y-99107264D01*
X140406940Y-98835986D01*
X140405180Y-98509738D01*
X140404668Y-98117120D01*
X140404669Y-98055906D01*
X140405908Y-97583171D01*
X140410191Y-97174804D01*
X140418577Y-96815822D01*
X140432124Y-96491242D01*
X140451892Y-96186082D01*
X140478940Y-95885360D01*
X140514327Y-95574093D01*
X140559111Y-95237299D01*
X140614352Y-94859994D01*
X140644503Y-94662625D01*
X140804987Y-93737749D01*
X140999531Y-92816754D01*
X141225905Y-91904028D01*
X141481879Y-91003955D01*
X141765225Y-90120924D01*
X142073711Y-89259319D01*
X142405110Y-88423528D01*
X142757191Y-87617938D01*
X143127725Y-86846933D01*
X143514482Y-86114901D01*
X143915234Y-85426228D01*
X144327750Y-84785301D01*
X144749802Y-84196505D01*
X145179158Y-83664228D01*
X145613591Y-83192855D01*
X146050871Y-82786774D01*
X146488768Y-82450369D01*
X146925053Y-82188029D01*
X147005338Y-82147999D01*
X147161484Y-82069682D01*
X147251572Y-82015967D01*
X147283031Y-81981461D01*
X147263307Y-81960776D01*
X147200445Y-81945022D01*
X147074237Y-81918777D01*
X146899573Y-81884949D01*
X146691342Y-81846450D01*
X146539764Y-81819368D01*
X145890497Y-81704972D01*
X145649492Y-81367471D01*
X145150852Y-80694373D01*
X144641977Y-80055972D01*
X144129882Y-79460062D01*
X143621580Y-78914435D01*
X143124086Y-78426887D01*
X142644414Y-78005209D01*
X142565300Y-77940758D01*
X141986790Y-77510486D01*
X141353233Y-77102896D01*
X140688373Y-76731567D01*
X140015956Y-76410075D01*
X139570697Y-76228435D01*
X139389353Y-76160825D01*
X139234859Y-76104882D01*
X139122328Y-76065961D01*
X139066875Y-76049416D01*
X139064681Y-76049188D01*
X139046465Y-76084818D01*
X139046465Y-76084818D01*
G37*
X139046465Y-76084818D02*
X139035120Y-76175590D01*
X139033250Y-76240422D01*
X138997893Y-76539211D01*
X138895687Y-76807566D01*
X138732433Y-77035334D01*
X138513928Y-77212364D01*
X138460764Y-77242569D01*
X138358159Y-77301261D01*
X138292327Y-77347101D01*
X138279187Y-77363082D01*
X138308114Y-77395742D01*
X138387518Y-77468753D01*
X138506337Y-77572339D01*
X138653506Y-77696718D01*
X138705828Y-77740181D01*
X139243085Y-78204859D01*
X139728805Y-78666552D01*
X140158716Y-79120398D01*
X140528544Y-79561536D01*
X140834016Y-79985104D01*
X141070860Y-80386241D01*
X141122090Y-80489238D01*
X141250809Y-80805547D01*
X141344655Y-81133226D01*
X141401822Y-81456943D01*
X141420507Y-81761371D01*
X141398902Y-82031180D01*
X141335202Y-82251040D01*
X141330744Y-82260735D01*
X141179607Y-82492489D01*
X140954367Y-82706723D01*
X140658535Y-82902559D01*
X140295619Y-83079117D01*
X139869128Y-83235515D01*
X139382572Y-83370874D01*
X138839461Y-83484315D01*
X138243303Y-83574957D01*
X137597608Y-83641920D01*
X136905885Y-83684324D01*
X136171643Y-83701289D01*
X135603473Y-83696957D01*
X134836510Y-83667599D01*
X134123278Y-83611913D01*
X133466689Y-83530592D01*
X132869655Y-83424333D01*
X132335089Y-83293828D01*
X131865903Y-83139774D01*
X131465010Y-82962863D01*
X131135320Y-82763792D01*
X130914231Y-82578656D01*
X130742883Y-82365271D01*
X130632546Y-82122447D01*
X130582050Y-81843605D01*
X130590226Y-81522162D01*
X130655904Y-81151536D01*
X130658637Y-81140066D01*
X130768272Y-80778560D01*
X130925947Y-80414121D01*
X131134627Y-80043132D01*
X131397281Y-79661980D01*
X131716878Y-79267047D01*
X132096384Y-78854718D01*
X132538768Y-78421378D01*
X133046998Y-77963410D01*
X133624042Y-77477200D01*
X133748579Y-77375756D01*
X133726344Y-77352859D01*
X133654167Y-77309767D01*
X133629516Y-77296832D01*
X133369199Y-77126136D01*
X133175199Y-76913028D01*
X133045400Y-76654337D01*
X132977690Y-76346893D01*
X132974343Y-76314321D01*
X132966084Y-76209308D01*
X132956543Y-76135315D01*
X132934742Y-76091591D01*
X132889702Y-76077384D01*
X132810443Y-76091940D01*
X132685988Y-76134509D01*
X132505356Y-76204339D01*
X132335641Y-76270575D01*
X131672066Y-76557744D01*
X131000201Y-76905465D01*
X130342105Y-77300950D01*
X129719839Y-77731406D01*
X129428875Y-77955881D01*
X128980157Y-78340384D01*
X128511440Y-78788730D01*
X128031924Y-79290954D01*
X127550808Y-79837088D01*
X127077292Y-80417166D01*
X126701325Y-80910906D01*
X126559793Y-81102521D01*
X126427985Y-81280351D01*
X126315915Y-81430933D01*
X126233597Y-81540802D01*
X126198202Y-81587360D01*
X126159747Y-81632688D01*
X126115719Y-81668093D01*
X126053330Y-81697606D01*
X125959793Y-81725254D01*
X125822320Y-81755067D01*
X125628125Y-81791074D01*
X125455019Y-81821524D01*
X125234279Y-81861119D01*
X125038872Y-81898219D01*
X124883147Y-81929939D01*
X124781458Y-81953393D01*
X124750314Y-81963240D01*
X124752677Y-81993877D01*
X124829419Y-82049106D01*
X124979655Y-82128306D01*
X124999137Y-82137737D01*
X125405136Y-82368637D01*
X125820771Y-82673688D01*
X126242771Y-83048720D01*
X126667864Y-83489567D01*
X127092779Y-83992059D01*
X127514244Y-84552030D01*
X127928988Y-85165310D01*
X128333739Y-85827732D01*
X128725225Y-86535128D01*
X129100176Y-87283329D01*
X129193202Y-87481126D01*
X129759194Y-88793963D01*
X130255262Y-90141583D01*
X130679950Y-91518618D01*
X131031806Y-92919700D01*
X131309376Y-94339460D01*
X131511205Y-95772531D01*
X131557369Y-96210438D01*
X131581906Y-96523339D01*
X131601157Y-96892090D01*
X131615023Y-97299932D01*
X131623401Y-97730109D01*
X131626190Y-98165861D01*
X131623289Y-98590432D01*
X131614598Y-98987062D01*
X131600013Y-99338995D01*
X131579435Y-99629472D01*
X131578120Y-99643406D01*
X131447665Y-100680793D01*
X131260401Y-101665266D01*
X131016609Y-102596298D01*
X130716566Y-103473358D01*
X130360550Y-104295917D01*
X129948841Y-105063448D01*
X129481716Y-105775421D01*
X128959455Y-106431306D01*
X128382335Y-107030576D01*
X127750636Y-107572701D01*
X127191644Y-107974539D01*
X127031261Y-108077197D01*
X126845724Y-108190279D01*
X126648285Y-108306362D01*
X126452195Y-108418025D01*
X126270706Y-108517846D01*
X126117068Y-108598402D01*
X126004534Y-108652274D01*
X125946354Y-108672037D01*
X125946297Y-108672037D01*
X125900035Y-108679363D01*
X125896687Y-108683362D01*
X125923213Y-108713644D01*
X125997154Y-108791572D01*
X126110061Y-108908407D01*
X126253481Y-109055413D01*
X126418963Y-109223850D01*
X126443670Y-109248909D01*
X126895105Y-109732636D01*
X127361641Y-110282037D01*
X127835719Y-110886712D01*
X128309773Y-111536266D01*
X128776244Y-112220299D01*
X129227566Y-112928415D01*
X129656180Y-113650216D01*
X129696962Y-113721799D01*
X129795609Y-113892726D01*
X129881185Y-114035587D01*
X129945873Y-114137728D01*
X129981854Y-114186498D01*
X129985578Y-114188875D01*
X130007332Y-114154030D01*
X130054839Y-114056599D01*
X130123250Y-113907235D01*
X130207722Y-113716591D01*
X130303406Y-113495323D01*
X130338333Y-113413357D01*
X130545766Y-112938527D01*
X130769810Y-112450408D01*
X131002485Y-111965139D01*
X131235809Y-111498859D01*
X131461803Y-111067706D01*
X131672487Y-110687820D01*
X131760336Y-110537625D01*
X132158115Y-109901599D01*
X132558474Y-109326158D01*
X132975413Y-108793335D01*
X133422933Y-108285166D01*
X133880221Y-107817604D01*
X134223479Y-107490358D01*
X134540507Y-107207437D01*
X134853705Y-106950434D01*
X135185473Y-106700941D01*
X135545328Y-106449305D01*
X136006312Y-106135894D01*
X136438296Y-106428998D01*
X137234532Y-107016415D01*
X137977367Y-107662207D01*
X138240291Y-107917459D01*
X138718532Y-108424117D01*
X139173024Y-108965430D01*
X139607674Y-109547650D01*
X140026386Y-110177031D01*
X140433065Y-110859828D01*
X140831615Y-111602295D01*
X141225942Y-112410685D01*
X141619951Y-113291253D01*
X141672891Y-113414969D01*
X141768447Y-113637337D01*
X141855039Y-113834966D01*
X141927365Y-113996062D01*
X141980119Y-114108831D01*
X142007998Y-114161478D01*
X142009287Y-114163059D01*
X142044198Y-114150461D01*
X142101048Y-114082933D01*
X142150443Y-114004309D01*
X142520008Y-113369960D01*
X142905533Y-112743346D01*
X143301568Y-112131923D01*
X143702661Y-111543146D01*
X144103360Y-110984467D01*
X144498213Y-110463343D01*
X144881769Y-109987227D01*
X145248576Y-109563574D01*
X145593182Y-109199837D01*
X145827172Y-108976810D01*
X145947459Y-108864931D01*
X146039101Y-108773557D01*
X146090347Y-108714771D01*
X146096538Y-108699848D01*
X146055693Y-108676219D01*
X145958942Y-108624586D01*
X145821194Y-108552803D01*
X145673445Y-108476930D01*
X144995508Y-108088139D01*
X144344916Y-107629880D01*
X143729701Y-107109674D01*
X143157898Y-106535043D01*
X142637541Y-105913509D01*
X142176662Y-105252593D01*
X142103279Y-105134357D01*
X141715178Y-104435223D01*
X141376567Y-103691108D01*
X141085976Y-102897524D01*
X140841936Y-102049983D01*
X140642977Y-101143998D01*
X140493536Y-100218875D01*
X140469929Y-100038048D01*
X140450848Y-99870643D01*
X140435824Y-99705260D01*
X140424390Y-99530502D01*
X140416077Y-99334970D01*
X140410416Y-99107264D01*
X140406940Y-98835986D01*
X140405180Y-98509738D01*
X140404668Y-98117120D01*
X140404669Y-98055906D01*
X140405908Y-97583171D01*
X140410191Y-97174804D01*
X140418577Y-96815822D01*
X140432124Y-96491242D01*
X140451892Y-96186082D01*
X140478940Y-95885360D01*
X140514327Y-95574093D01*
X140559111Y-95237299D01*
X140614352Y-94859994D01*
X140644503Y-94662625D01*
X140804987Y-93737749D01*
X140999531Y-92816754D01*
X141225905Y-91904028D01*
X141481879Y-91003955D01*
X141765225Y-90120924D01*
X142073711Y-89259319D01*
X142405110Y-88423528D01*
X142757191Y-87617938D01*
X143127725Y-86846933D01*
X143514482Y-86114901D01*
X143915234Y-85426228D01*
X144327750Y-84785301D01*
X144749802Y-84196505D01*
X145179158Y-83664228D01*
X145613591Y-83192855D01*
X146050871Y-82786774D01*
X146488768Y-82450369D01*
X146925053Y-82188029D01*
X147005338Y-82147999D01*
X147161484Y-82069682D01*
X147251572Y-82015967D01*
X147283031Y-81981461D01*
X147263307Y-81960776D01*
X147200445Y-81945022D01*
X147074237Y-81918777D01*
X146899573Y-81884949D01*
X146691342Y-81846450D01*
X146539764Y-81819368D01*
X145890497Y-81704972D01*
X145649492Y-81367471D01*
X145150852Y-80694373D01*
X144641977Y-80055972D01*
X144129882Y-79460062D01*
X143621580Y-78914435D01*
X143124086Y-78426887D01*
X142644414Y-78005209D01*
X142565300Y-77940758D01*
X141986790Y-77510486D01*
X141353233Y-77102896D01*
X140688373Y-76731567D01*
X140015956Y-76410075D01*
X139570697Y-76228435D01*
X139389353Y-76160825D01*
X139234859Y-76104882D01*
X139122328Y-76065961D01*
X139066875Y-76049416D01*
X139064681Y-76049188D01*
X139046465Y-76084818D01*
G36*
X148049370Y-90604795D02*
X147308488Y-90692645D01*
X147084651Y-90734614D01*
X146371952Y-90919577D01*
X145688273Y-91175952D01*
X145038269Y-91499607D01*
X144426599Y-91886412D01*
X143857919Y-92332234D01*
X143336886Y-92832942D01*
X142868155Y-93384405D01*
X142456385Y-93982491D01*
X142106232Y-94623068D01*
X141822353Y-95302006D01*
X141771918Y-95448096D01*
X141570598Y-96173707D01*
X141446110Y-96903449D01*
X141396738Y-97632278D01*
X141420763Y-98355150D01*
X141516471Y-99067021D01*
X141682143Y-99762847D01*
X141916064Y-100437583D01*
X142216517Y-101086187D01*
X142581785Y-101703612D01*
X143010151Y-102284817D01*
X143499899Y-102824755D01*
X144049313Y-103318384D01*
X144584759Y-103713123D01*
X144816107Y-103855937D01*
X145098783Y-104011839D01*
X145409366Y-104169402D01*
X145724436Y-104317200D01*
X146020571Y-104443806D01*
X146274353Y-104537791D01*
X146276219Y-104538404D01*
X146926413Y-104716046D01*
X147604357Y-104834843D01*
X148289888Y-104892675D01*
X148962847Y-104887419D01*
X149312312Y-104857786D01*
X150025772Y-104739401D01*
X150727895Y-104550192D01*
X151405206Y-104294797D01*
X152044226Y-103977852D01*
X152287323Y-103834117D01*
X152736493Y-103530380D01*
X153158506Y-103191168D01*
X153575478Y-102798339D01*
X153677937Y-102693360D01*
X153693708Y-102675236D01*
X151880630Y-102675236D01*
X151658112Y-102811637D01*
X151062091Y-103133073D01*
X150439386Y-103385133D01*
X149797904Y-103566117D01*
X149145554Y-103674324D01*
X148490242Y-103708055D01*
X147839877Y-103665611D01*
X147744656Y-103652773D01*
X147130808Y-103536501D01*
X146559269Y-103367600D01*
X146010647Y-103138842D01*
X145465546Y-102842999D01*
X145305377Y-102743637D01*
X145048910Y-102580281D01*
X145583189Y-102554827D01*
X145976486Y-102522502D01*
X146305739Y-102463368D01*
X146583111Y-102372823D01*
X146820765Y-102246263D01*
X147030862Y-102079084D01*
X147142122Y-101964774D01*
X147261879Y-101820639D01*
X147371367Y-101663002D01*
X147474136Y-101483330D01*
X147573739Y-101273091D01*
X147673729Y-101023755D01*
X147777658Y-100726788D01*
X147889077Y-100373660D01*
X148011540Y-99955837D01*
X148080632Y-99710643D01*
X148155406Y-99441754D01*
X148222620Y-99198708D01*
X148279467Y-98991759D01*
X148323144Y-98831157D01*
X148350845Y-98727157D01*
X148359812Y-98690192D01*
X148395257Y-98678645D01*
X148484664Y-98671837D01*
X148533490Y-98671063D01*
X148707168Y-98671063D01*
X148857346Y-98956852D01*
X148982163Y-99177478D01*
X149147046Y-99443615D01*
X149341383Y-99739684D01*
X149554567Y-100050103D01*
X149775986Y-100359292D01*
X149995032Y-100651668D01*
X150121231Y-100812950D01*
X150270902Y-100992713D01*
X150462456Y-101210874D01*
X150680637Y-101450740D01*
X150910188Y-101695613D01*
X151135852Y-101928797D01*
X151199296Y-101992758D01*
X151880630Y-102675236D01*
X153693708Y-102675236D01*
X154177478Y-102119299D01*
X154605750Y-101510589D01*
X154962158Y-100868719D01*
X155246104Y-100195179D01*
X155456991Y-99491460D01*
X155594222Y-98759050D01*
X155657200Y-97999441D01*
X155661585Y-97743500D01*
X155660929Y-97730045D01*
X154464642Y-97730045D01*
X154462751Y-97966377D01*
X154455315Y-98196158D01*
X154443220Y-98408616D01*
X154427351Y-98592976D01*
X154408591Y-98738463D01*
X154387825Y-98834303D01*
X154365938Y-98869720D01*
X154349122Y-98849656D01*
X154320879Y-98778534D01*
X154271897Y-98655094D01*
X154210692Y-98500802D01*
X154180507Y-98424695D01*
X154048625Y-98134801D01*
X153890939Y-97856793D01*
X153783838Y-97702311D01*
X148954099Y-97702311D01*
X148942755Y-97865114D01*
X148876310Y-98003437D01*
X148766534Y-98106424D01*
X148625197Y-98163221D01*
X148464070Y-98162974D01*
X148294922Y-98094828D01*
X148287044Y-98089819D01*
X148208995Y-98012394D01*
X148141749Y-97903170D01*
X148136262Y-97890666D01*
X148105161Y-97726570D01*
X148139528Y-97569906D01*
X148227935Y-97438438D01*
X148358958Y-97349932D01*
X148502204Y-97321688D01*
X148688959Y-97351738D01*
X148831978Y-97437382D01*
X148898570Y-97525881D01*
X148954099Y-97702311D01*
X153783838Y-97702311D01*
X153720413Y-97610829D01*
X153550011Y-97417066D01*
X153506964Y-97377410D01*
X153315461Y-97230365D01*
X153108829Y-97113563D01*
X152879829Y-97026395D01*
X152621221Y-96968252D01*
X152325769Y-96938525D01*
X151986234Y-96936605D01*
X151595377Y-96961884D01*
X151145959Y-97013751D01*
X150630743Y-97091599D01*
X150457058Y-97120822D01*
X150189944Y-97166134D01*
X149945784Y-97206521D01*
X149736479Y-97240098D01*
X149573931Y-97264977D01*
X149470042Y-97279274D01*
X149439815Y-97282000D01*
X149368692Y-97252198D01*
X149284118Y-97177458D01*
X149255531Y-97143172D01*
X149239887Y-97122661D01*
X147801364Y-97122661D01*
X147625594Y-97464597D01*
X147030281Y-97511009D01*
X146401360Y-97579367D01*
X145736450Y-97686890D01*
X145056887Y-97828477D01*
X144384008Y-97999028D01*
X143739149Y-98193442D01*
X143143647Y-98406618D01*
X142942469Y-98488229D01*
X142799347Y-98547760D01*
X142713182Y-98577956D01*
X142667479Y-98579569D01*
X142645745Y-98553353D01*
X142632044Y-98502391D01*
X142604533Y-98331753D01*
X142586884Y-98104248D01*
X142579564Y-97841824D01*
X142583043Y-97566430D01*
X142597788Y-97300017D01*
X142604741Y-97222469D01*
X142711806Y-96533100D01*
X142891779Y-95871394D01*
X143141725Y-95241701D01*
X143458709Y-94648371D01*
X143839797Y-94095756D01*
X144282052Y-93588206D01*
X144782541Y-93130073D01*
X145338329Y-92725705D01*
X145832367Y-92437775D01*
X145990138Y-92357393D01*
X146120539Y-92295204D01*
X146208716Y-92258016D01*
X146239453Y-92251224D01*
X146227335Y-92289950D01*
X146179772Y-92377734D01*
X146105985Y-92498018D01*
X146077689Y-92541661D01*
X145868312Y-92910644D01*
X145735446Y-93267789D01*
X145678543Y-93620299D01*
X145697055Y-93975377D01*
X145790436Y-94340227D01*
X145918091Y-94642781D01*
X145999203Y-94798596D01*
X146094406Y-94960502D01*
X146209387Y-95136270D01*
X146349831Y-95333672D01*
X146521423Y-95560478D01*
X146729850Y-95824458D01*
X146980798Y-96133384D01*
X147225162Y-96429147D01*
X147801364Y-97122661D01*
X149239887Y-97122661D01*
X149149642Y-97004343D01*
X149264546Y-96835594D01*
X149476704Y-96495561D01*
X149696305Y-96091601D01*
X149917586Y-95638056D01*
X150134782Y-95149266D01*
X150342131Y-94639574D01*
X150533868Y-94123320D01*
X150704228Y-93614846D01*
X150847449Y-93128493D01*
X150957766Y-92678603D01*
X150981469Y-92563685D01*
X151029488Y-92319612D01*
X151292072Y-92463136D01*
X151704346Y-92707231D01*
X152077822Y-92971198D01*
X152438243Y-93274463D01*
X152707363Y-93531293D01*
X153155757Y-94021651D01*
X153531731Y-94529277D01*
X153841961Y-95064807D01*
X154093125Y-95638878D01*
X154173814Y-95867368D01*
X154275410Y-96192080D01*
X154349696Y-96480519D01*
X154401427Y-96759771D01*
X154435360Y-97056922D01*
X154456250Y-97399058D01*
X154460104Y-97497940D01*
X154464642Y-97730045D01*
X155660929Y-97730045D01*
X155624370Y-96980348D01*
X155511679Y-96239734D01*
X155324808Y-95524674D01*
X155065049Y-94838185D01*
X154733697Y-94183282D01*
X154332044Y-93562982D01*
X153861384Y-92980302D01*
X153428262Y-92535907D01*
X152860869Y-92053116D01*
X152252412Y-91636153D01*
X151608428Y-91286590D01*
X150934452Y-91005999D01*
X150236022Y-90795952D01*
X149518674Y-90658020D01*
X148787944Y-90593778D01*
X148049370Y-90604795D01*
X148049370Y-90604795D01*
G37*
X148049370Y-90604795D02*
X147308488Y-90692645D01*
X147084651Y-90734614D01*
X146371952Y-90919577D01*
X145688273Y-91175952D01*
X145038269Y-91499607D01*
X144426599Y-91886412D01*
X143857919Y-92332234D01*
X143336886Y-92832942D01*
X142868155Y-93384405D01*
X142456385Y-93982491D01*
X142106232Y-94623068D01*
X141822353Y-95302006D01*
X141771918Y-95448096D01*
X141570598Y-96173707D01*
X141446110Y-96903449D01*
X141396738Y-97632278D01*
X141420763Y-98355150D01*
X141516471Y-99067021D01*
X141682143Y-99762847D01*
X141916064Y-100437583D01*
X142216517Y-101086187D01*
X142581785Y-101703612D01*
X143010151Y-102284817D01*
X143499899Y-102824755D01*
X144049313Y-103318384D01*
X144584759Y-103713123D01*
X144816107Y-103855937D01*
X145098783Y-104011839D01*
X145409366Y-104169402D01*
X145724436Y-104317200D01*
X146020571Y-104443806D01*
X146274353Y-104537791D01*
X146276219Y-104538404D01*
X146926413Y-104716046D01*
X147604357Y-104834843D01*
X148289888Y-104892675D01*
X148962847Y-104887419D01*
X149312312Y-104857786D01*
X150025772Y-104739401D01*
X150727895Y-104550192D01*
X151405206Y-104294797D01*
X152044226Y-103977852D01*
X152287323Y-103834117D01*
X152736493Y-103530380D01*
X153158506Y-103191168D01*
X153575478Y-102798339D01*
X153677937Y-102693360D01*
X153693708Y-102675236D01*
X151880630Y-102675236D01*
X151658112Y-102811637D01*
X151062091Y-103133073D01*
X150439386Y-103385133D01*
X149797904Y-103566117D01*
X149145554Y-103674324D01*
X148490242Y-103708055D01*
X147839877Y-103665611D01*
X147744656Y-103652773D01*
X147130808Y-103536501D01*
X146559269Y-103367600D01*
X146010647Y-103138842D01*
X145465546Y-102842999D01*
X145305377Y-102743637D01*
X145048910Y-102580281D01*
X145583189Y-102554827D01*
X145976486Y-102522502D01*
X146305739Y-102463368D01*
X146583111Y-102372823D01*
X146820765Y-102246263D01*
X147030862Y-102079084D01*
X147142122Y-101964774D01*
X147261879Y-101820639D01*
X147371367Y-101663002D01*
X147474136Y-101483330D01*
X147573739Y-101273091D01*
X147673729Y-101023755D01*
X147777658Y-100726788D01*
X147889077Y-100373660D01*
X148011540Y-99955837D01*
X148080632Y-99710643D01*
X148155406Y-99441754D01*
X148222620Y-99198708D01*
X148279467Y-98991759D01*
X148323144Y-98831157D01*
X148350845Y-98727157D01*
X148359812Y-98690192D01*
X148395257Y-98678645D01*
X148484664Y-98671837D01*
X148533490Y-98671063D01*
X148707168Y-98671063D01*
X148857346Y-98956852D01*
X148982163Y-99177478D01*
X149147046Y-99443615D01*
X149341383Y-99739684D01*
X149554567Y-100050103D01*
X149775986Y-100359292D01*
X149995032Y-100651668D01*
X150121231Y-100812950D01*
X150270902Y-100992713D01*
X150462456Y-101210874D01*
X150680637Y-101450740D01*
X150910188Y-101695613D01*
X151135852Y-101928797D01*
X151199296Y-101992758D01*
X151880630Y-102675236D01*
X153693708Y-102675236D01*
X154177478Y-102119299D01*
X154605750Y-101510589D01*
X154962158Y-100868719D01*
X155246104Y-100195179D01*
X155456991Y-99491460D01*
X155594222Y-98759050D01*
X155657200Y-97999441D01*
X155661585Y-97743500D01*
X155660929Y-97730045D01*
X154464642Y-97730045D01*
X154462751Y-97966377D01*
X154455315Y-98196158D01*
X154443220Y-98408616D01*
X154427351Y-98592976D01*
X154408591Y-98738463D01*
X154387825Y-98834303D01*
X154365938Y-98869720D01*
X154349122Y-98849656D01*
X154320879Y-98778534D01*
X154271897Y-98655094D01*
X154210692Y-98500802D01*
X154180507Y-98424695D01*
X154048625Y-98134801D01*
X153890939Y-97856793D01*
X153783838Y-97702311D01*
X148954099Y-97702311D01*
X148942755Y-97865114D01*
X148876310Y-98003437D01*
X148766534Y-98106424D01*
X148625197Y-98163221D01*
X148464070Y-98162974D01*
X148294922Y-98094828D01*
X148287044Y-98089819D01*
X148208995Y-98012394D01*
X148141749Y-97903170D01*
X148136262Y-97890666D01*
X148105161Y-97726570D01*
X148139528Y-97569906D01*
X148227935Y-97438438D01*
X148358958Y-97349932D01*
X148502204Y-97321688D01*
X148688959Y-97351738D01*
X148831978Y-97437382D01*
X148898570Y-97525881D01*
X148954099Y-97702311D01*
X153783838Y-97702311D01*
X153720413Y-97610829D01*
X153550011Y-97417066D01*
X153506964Y-97377410D01*
X153315461Y-97230365D01*
X153108829Y-97113563D01*
X152879829Y-97026395D01*
X152621221Y-96968252D01*
X152325769Y-96938525D01*
X151986234Y-96936605D01*
X151595377Y-96961884D01*
X151145959Y-97013751D01*
X150630743Y-97091599D01*
X150457058Y-97120822D01*
X150189944Y-97166134D01*
X149945784Y-97206521D01*
X149736479Y-97240098D01*
X149573931Y-97264977D01*
X149470042Y-97279274D01*
X149439815Y-97282000D01*
X149368692Y-97252198D01*
X149284118Y-97177458D01*
X149255531Y-97143172D01*
X149239887Y-97122661D01*
X147801364Y-97122661D01*
X147625594Y-97464597D01*
X147030281Y-97511009D01*
X146401360Y-97579367D01*
X145736450Y-97686890D01*
X145056887Y-97828477D01*
X144384008Y-97999028D01*
X143739149Y-98193442D01*
X143143647Y-98406618D01*
X142942469Y-98488229D01*
X142799347Y-98547760D01*
X142713182Y-98577956D01*
X142667479Y-98579569D01*
X142645745Y-98553353D01*
X142632044Y-98502391D01*
X142604533Y-98331753D01*
X142586884Y-98104248D01*
X142579564Y-97841824D01*
X142583043Y-97566430D01*
X142597788Y-97300017D01*
X142604741Y-97222469D01*
X142711806Y-96533100D01*
X142891779Y-95871394D01*
X143141725Y-95241701D01*
X143458709Y-94648371D01*
X143839797Y-94095756D01*
X144282052Y-93588206D01*
X144782541Y-93130073D01*
X145338329Y-92725705D01*
X145832367Y-92437775D01*
X145990138Y-92357393D01*
X146120539Y-92295204D01*
X146208716Y-92258016D01*
X146239453Y-92251224D01*
X146227335Y-92289950D01*
X146179772Y-92377734D01*
X146105985Y-92498018D01*
X146077689Y-92541661D01*
X145868312Y-92910644D01*
X145735446Y-93267789D01*
X145678543Y-93620299D01*
X145697055Y-93975377D01*
X145790436Y-94340227D01*
X145918091Y-94642781D01*
X145999203Y-94798596D01*
X146094406Y-94960502D01*
X146209387Y-95136270D01*
X146349831Y-95333672D01*
X146521423Y-95560478D01*
X146729850Y-95824458D01*
X146980798Y-96133384D01*
X147225162Y-96429147D01*
X147801364Y-97122661D01*
X149239887Y-97122661D01*
X149149642Y-97004343D01*
X149264546Y-96835594D01*
X149476704Y-96495561D01*
X149696305Y-96091601D01*
X149917586Y-95638056D01*
X150134782Y-95149266D01*
X150342131Y-94639574D01*
X150533868Y-94123320D01*
X150704228Y-93614846D01*
X150847449Y-93128493D01*
X150957766Y-92678603D01*
X150981469Y-92563685D01*
X151029488Y-92319612D01*
X151292072Y-92463136D01*
X151704346Y-92707231D01*
X152077822Y-92971198D01*
X152438243Y-93274463D01*
X152707363Y-93531293D01*
X153155757Y-94021651D01*
X153531731Y-94529277D01*
X153841961Y-95064807D01*
X154093125Y-95638878D01*
X154173814Y-95867368D01*
X154275410Y-96192080D01*
X154349696Y-96480519D01*
X154401427Y-96759771D01*
X154435360Y-97056922D01*
X154456250Y-97399058D01*
X154460104Y-97497940D01*
X154464642Y-97730045D01*
X155660929Y-97730045D01*
X155624370Y-96980348D01*
X155511679Y-96239734D01*
X155324808Y-95524674D01*
X155065049Y-94838185D01*
X154733697Y-94183282D01*
X154332044Y-93562982D01*
X153861384Y-92980302D01*
X153428262Y-92535907D01*
X152860869Y-92053116D01*
X152252412Y-91636153D01*
X151608428Y-91286590D01*
X150934452Y-91005999D01*
X150236022Y-90795952D01*
X149518674Y-90658020D01*
X148787944Y-90593778D01*
X148049370Y-90604795D01*
G36*
X122438305Y-90666181D02*
X121720198Y-90808204D01*
X121213562Y-90956051D01*
X120526684Y-91225827D01*
X119874368Y-91564808D01*
X119261658Y-91968517D01*
X118693594Y-92432479D01*
X118175220Y-92952217D01*
X117711577Y-93523255D01*
X117307707Y-94141116D01*
X117028532Y-94671397D01*
X116745369Y-95361279D01*
X116536213Y-96074026D01*
X116401493Y-96802840D01*
X116341641Y-97540923D01*
X116357087Y-98281477D01*
X116448262Y-99017704D01*
X116615597Y-99742805D01*
X116691560Y-99990633D01*
X116786285Y-100246678D01*
X116914570Y-100545148D01*
X117065994Y-100865407D01*
X117230139Y-101186819D01*
X117396584Y-101488750D01*
X117554912Y-101750563D01*
X117654529Y-101897800D01*
X118125392Y-102484914D01*
X118646749Y-103013877D01*
X119213524Y-103482428D01*
X119820640Y-103888302D01*
X120463019Y-104229236D01*
X121135586Y-104502967D01*
X121833263Y-104707232D01*
X122550974Y-104839766D01*
X123283642Y-104898307D01*
X124026190Y-104880592D01*
X124289344Y-104855746D01*
X125016230Y-104734829D01*
X125718213Y-104541440D01*
X126390894Y-104279522D01*
X127029877Y-103953019D01*
X127630765Y-103565877D01*
X128189161Y-103122038D01*
X128700670Y-102625447D01*
X128767124Y-102546694D01*
X127007757Y-102546694D01*
X126976032Y-102573823D01*
X126890315Y-102631174D01*
X126765590Y-102709693D01*
X126616841Y-102800325D01*
X126459052Y-102894017D01*
X126307208Y-102981712D01*
X126176293Y-103054359D01*
X126111945Y-103088002D01*
X125699620Y-103270394D01*
X125237198Y-103431975D01*
X124753013Y-103564153D01*
X124275399Y-103658334D01*
X124190125Y-103670892D01*
X123994829Y-103687962D01*
X123742920Y-103695345D01*
X123456473Y-103693770D01*
X123157563Y-103683965D01*
X122868266Y-103666658D01*
X122610657Y-103642580D01*
X122406811Y-103612457D01*
X122404187Y-103611946D01*
X121937736Y-103498158D01*
X121456528Y-103340015D01*
X120986475Y-103147715D01*
X120553487Y-102931453D01*
X120315268Y-102789971D01*
X120111505Y-102659656D01*
X120464552Y-102342156D01*
X120801529Y-102021589D01*
X121153614Y-101654803D01*
X121510815Y-101254389D01*
X121863139Y-100832941D01*
X122200595Y-100403052D01*
X122513189Y-99977316D01*
X122790929Y-99568324D01*
X123023822Y-99188669D01*
X123148249Y-98960017D01*
X123297156Y-98668479D01*
X123471724Y-98679692D01*
X123646291Y-98690906D01*
X123735426Y-99008406D01*
X123776851Y-99156603D01*
X123833499Y-99360148D01*
X123899489Y-99597872D01*
X123968943Y-99848605D01*
X124010968Y-100000594D01*
X124157722Y-100501752D01*
X124302610Y-100930284D01*
X124449864Y-101292707D01*
X124603715Y-101595535D01*
X124768391Y-101845285D01*
X124948125Y-102048471D01*
X125147146Y-102211609D01*
X125369685Y-102341214D01*
X125590655Y-102433533D01*
X125715671Y-102475276D01*
X125829337Y-102504066D01*
X125951520Y-102522346D01*
X126102088Y-102532556D01*
X126300908Y-102537137D01*
X126442211Y-102538160D01*
X126643784Y-102539430D01*
X126813658Y-102541269D01*
X126937750Y-102543463D01*
X127001976Y-102545801D01*
X127007757Y-102546694D01*
X128767124Y-102546694D01*
X129160893Y-102080049D01*
X129565435Y-101489786D01*
X129909899Y-100858604D01*
X130189887Y-100190446D01*
X130401003Y-99489256D01*
X130435190Y-99342629D01*
X130563589Y-98586989D01*
X130614025Y-97835405D01*
X130607593Y-97654831D01*
X129423671Y-97654831D01*
X129423657Y-97875317D01*
X129417884Y-98089031D01*
X129407167Y-98281732D01*
X129392319Y-98439176D01*
X129374155Y-98547120D01*
X129353490Y-98591321D01*
X129351396Y-98591688D01*
X129302384Y-98577493D01*
X129200436Y-98539917D01*
X129065732Y-98486470D01*
X129036765Y-98474590D01*
X128438542Y-98250208D01*
X127784228Y-98044725D01*
X127095925Y-97863387D01*
X126427784Y-97718392D01*
X123912312Y-97718392D01*
X123878605Y-97886578D01*
X123788504Y-98029618D01*
X123658546Y-98132268D01*
X123505266Y-98179283D01*
X123416219Y-98175768D01*
X123313265Y-98132530D01*
X123199615Y-98047550D01*
X123163545Y-98011860D01*
X123082389Y-97915461D01*
X123047993Y-97836479D01*
X123047618Y-97739792D01*
X123051954Y-97704175D01*
X123110747Y-97530207D01*
X123226447Y-97401990D01*
X123385614Y-97331524D01*
X123480345Y-97321688D01*
X123634563Y-97355038D01*
X123771339Y-97442770D01*
X123870554Y-97566405D01*
X123912084Y-97707464D01*
X123912312Y-97718392D01*
X126427784Y-97718392D01*
X126395735Y-97711437D01*
X125705757Y-97594117D01*
X125048094Y-97516673D01*
X124972547Y-97510321D01*
X124385750Y-97463264D01*
X124293896Y-97298919D01*
X124202042Y-97134575D01*
X124289345Y-97029177D01*
X122869328Y-97029177D01*
X122756380Y-97155589D01*
X122670297Y-97234549D01*
X122592248Y-97278459D01*
X122573419Y-97281690D01*
X122515929Y-97275220D01*
X122391878Y-97257212D01*
X122212945Y-97229500D01*
X121990810Y-97193916D01*
X121737152Y-97152294D01*
X121550906Y-97121190D01*
X121045041Y-97040889D01*
X120607310Y-96982514D01*
X120229557Y-96946074D01*
X119903628Y-96931577D01*
X119621366Y-96939033D01*
X119374617Y-96968449D01*
X119155226Y-97019835D01*
X118955036Y-97093198D01*
X118888191Y-97123975D01*
X118618402Y-97294946D01*
X118363634Y-97535047D01*
X118131598Y-97834370D01*
X117930006Y-98183006D01*
X117770397Y-98560188D01*
X117717809Y-98696965D01*
X117672113Y-98794917D01*
X117640927Y-98838421D01*
X117634950Y-98838000D01*
X117619479Y-98789134D01*
X117598920Y-98679067D01*
X117576274Y-98525560D01*
X117559800Y-98393250D01*
X117523077Y-97735722D01*
X117562369Y-97082302D01*
X117674348Y-96439356D01*
X117855687Y-95813253D01*
X118103056Y-95210359D01*
X118413129Y-94637042D01*
X118782578Y-94099669D01*
X119208074Y-93604607D01*
X119686290Y-93158223D01*
X120213898Y-92766885D01*
X120630229Y-92518599D01*
X120770358Y-92446818D01*
X120883137Y-92396115D01*
X120951523Y-92373837D01*
X120963264Y-92375035D01*
X120980590Y-92419812D01*
X121012873Y-92527764D01*
X121056216Y-92684962D01*
X121106719Y-92877478D01*
X121134347Y-92986250D01*
X121304586Y-93597852D01*
X121508920Y-94220137D01*
X121740699Y-94837056D01*
X121993272Y-95432560D01*
X122259991Y-95990600D01*
X122534205Y-96495127D01*
X122701595Y-96768636D01*
X122869328Y-97029177D01*
X124289345Y-97029177D01*
X124872435Y-96325241D01*
X125201766Y-95922131D01*
X125479552Y-95568893D01*
X125709810Y-95258710D01*
X125896556Y-94984768D01*
X126043808Y-94740252D01*
X126155583Y-94518346D01*
X126235897Y-94312237D01*
X126288767Y-94115108D01*
X126318210Y-93920146D01*
X126322838Y-93864506D01*
X126319731Y-93538585D01*
X126260560Y-93224951D01*
X126140795Y-92909118D01*
X125955908Y-92576605D01*
X125887457Y-92472011D01*
X125708141Y-92206240D01*
X126109993Y-92407861D01*
X126705512Y-92749438D01*
X127251176Y-93149317D01*
X127743665Y-93602449D01*
X128179663Y-94103783D01*
X128555850Y-94648268D01*
X128868910Y-95230855D01*
X129115525Y-95846494D01*
X129292376Y-96490133D01*
X129396146Y-97156724D01*
X129417113Y-97441818D01*
X129423671Y-97654831D01*
X130607593Y-97654831D01*
X130587550Y-97092170D01*
X130485214Y-96361573D01*
X130308070Y-95647906D01*
X130057168Y-94955460D01*
X129733559Y-94288527D01*
X129338294Y-93651397D01*
X128902059Y-93083162D01*
X128401275Y-92551553D01*
X127852688Y-92080095D01*
X127262091Y-91670390D01*
X126635279Y-91324041D01*
X125978044Y-91042650D01*
X125296180Y-90827822D01*
X124595481Y-90681158D01*
X123881739Y-90604261D01*
X123160750Y-90598734D01*
X122438305Y-90666181D01*
X122438305Y-90666181D01*
G37*
X122438305Y-90666181D02*
X121720198Y-90808204D01*
X121213562Y-90956051D01*
X120526684Y-91225827D01*
X119874368Y-91564808D01*
X119261658Y-91968517D01*
X118693594Y-92432479D01*
X118175220Y-92952217D01*
X117711577Y-93523255D01*
X117307707Y-94141116D01*
X117028532Y-94671397D01*
X116745369Y-95361279D01*
X116536213Y-96074026D01*
X116401493Y-96802840D01*
X116341641Y-97540923D01*
X116357087Y-98281477D01*
X116448262Y-99017704D01*
X116615597Y-99742805D01*
X116691560Y-99990633D01*
X116786285Y-100246678D01*
X116914570Y-100545148D01*
X117065994Y-100865407D01*
X117230139Y-101186819D01*
X117396584Y-101488750D01*
X117554912Y-101750563D01*
X117654529Y-101897800D01*
X118125392Y-102484914D01*
X118646749Y-103013877D01*
X119213524Y-103482428D01*
X119820640Y-103888302D01*
X120463019Y-104229236D01*
X121135586Y-104502967D01*
X121833263Y-104707232D01*
X122550974Y-104839766D01*
X123283642Y-104898307D01*
X124026190Y-104880592D01*
X124289344Y-104855746D01*
X125016230Y-104734829D01*
X125718213Y-104541440D01*
X126390894Y-104279522D01*
X127029877Y-103953019D01*
X127630765Y-103565877D01*
X128189161Y-103122038D01*
X128700670Y-102625447D01*
X128767124Y-102546694D01*
X127007757Y-102546694D01*
X126976032Y-102573823D01*
X126890315Y-102631174D01*
X126765590Y-102709693D01*
X126616841Y-102800325D01*
X126459052Y-102894017D01*
X126307208Y-102981712D01*
X126176293Y-103054359D01*
X126111945Y-103088002D01*
X125699620Y-103270394D01*
X125237198Y-103431975D01*
X124753013Y-103564153D01*
X124275399Y-103658334D01*
X124190125Y-103670892D01*
X123994829Y-103687962D01*
X123742920Y-103695345D01*
X123456473Y-103693770D01*
X123157563Y-103683965D01*
X122868266Y-103666658D01*
X122610657Y-103642580D01*
X122406811Y-103612457D01*
X122404187Y-103611946D01*
X121937736Y-103498158D01*
X121456528Y-103340015D01*
X120986475Y-103147715D01*
X120553487Y-102931453D01*
X120315268Y-102789971D01*
X120111505Y-102659656D01*
X120464552Y-102342156D01*
X120801529Y-102021589D01*
X121153614Y-101654803D01*
X121510815Y-101254389D01*
X121863139Y-100832941D01*
X122200595Y-100403052D01*
X122513189Y-99977316D01*
X122790929Y-99568324D01*
X123023822Y-99188669D01*
X123148249Y-98960017D01*
X123297156Y-98668479D01*
X123471724Y-98679692D01*
X123646291Y-98690906D01*
X123735426Y-99008406D01*
X123776851Y-99156603D01*
X123833499Y-99360148D01*
X123899489Y-99597872D01*
X123968943Y-99848605D01*
X124010968Y-100000594D01*
X124157722Y-100501752D01*
X124302610Y-100930284D01*
X124449864Y-101292707D01*
X124603715Y-101595535D01*
X124768391Y-101845285D01*
X124948125Y-102048471D01*
X125147146Y-102211609D01*
X125369685Y-102341214D01*
X125590655Y-102433533D01*
X125715671Y-102475276D01*
X125829337Y-102504066D01*
X125951520Y-102522346D01*
X126102088Y-102532556D01*
X126300908Y-102537137D01*
X126442211Y-102538160D01*
X126643784Y-102539430D01*
X126813658Y-102541269D01*
X126937750Y-102543463D01*
X127001976Y-102545801D01*
X127007757Y-102546694D01*
X128767124Y-102546694D01*
X129160893Y-102080049D01*
X129565435Y-101489786D01*
X129909899Y-100858604D01*
X130189887Y-100190446D01*
X130401003Y-99489256D01*
X130435190Y-99342629D01*
X130563589Y-98586989D01*
X130614025Y-97835405D01*
X130607593Y-97654831D01*
X129423671Y-97654831D01*
X129423657Y-97875317D01*
X129417884Y-98089031D01*
X129407167Y-98281732D01*
X129392319Y-98439176D01*
X129374155Y-98547120D01*
X129353490Y-98591321D01*
X129351396Y-98591688D01*
X129302384Y-98577493D01*
X129200436Y-98539917D01*
X129065732Y-98486470D01*
X129036765Y-98474590D01*
X128438542Y-98250208D01*
X127784228Y-98044725D01*
X127095925Y-97863387D01*
X126427784Y-97718392D01*
X123912312Y-97718392D01*
X123878605Y-97886578D01*
X123788504Y-98029618D01*
X123658546Y-98132268D01*
X123505266Y-98179283D01*
X123416219Y-98175768D01*
X123313265Y-98132530D01*
X123199615Y-98047550D01*
X123163545Y-98011860D01*
X123082389Y-97915461D01*
X123047993Y-97836479D01*
X123047618Y-97739792D01*
X123051954Y-97704175D01*
X123110747Y-97530207D01*
X123226447Y-97401990D01*
X123385614Y-97331524D01*
X123480345Y-97321688D01*
X123634563Y-97355038D01*
X123771339Y-97442770D01*
X123870554Y-97566405D01*
X123912084Y-97707464D01*
X123912312Y-97718392D01*
X126427784Y-97718392D01*
X126395735Y-97711437D01*
X125705757Y-97594117D01*
X125048094Y-97516673D01*
X124972547Y-97510321D01*
X124385750Y-97463264D01*
X124293896Y-97298919D01*
X124202042Y-97134575D01*
X124289345Y-97029177D01*
X122869328Y-97029177D01*
X122756380Y-97155589D01*
X122670297Y-97234549D01*
X122592248Y-97278459D01*
X122573419Y-97281690D01*
X122515929Y-97275220D01*
X122391878Y-97257212D01*
X122212945Y-97229500D01*
X121990810Y-97193916D01*
X121737152Y-97152294D01*
X121550906Y-97121190D01*
X121045041Y-97040889D01*
X120607310Y-96982514D01*
X120229557Y-96946074D01*
X119903628Y-96931577D01*
X119621366Y-96939033D01*
X119374617Y-96968449D01*
X119155226Y-97019835D01*
X118955036Y-97093198D01*
X118888191Y-97123975D01*
X118618402Y-97294946D01*
X118363634Y-97535047D01*
X118131598Y-97834370D01*
X117930006Y-98183006D01*
X117770397Y-98560188D01*
X117717809Y-98696965D01*
X117672113Y-98794917D01*
X117640927Y-98838421D01*
X117634950Y-98838000D01*
X117619479Y-98789134D01*
X117598920Y-98679067D01*
X117576274Y-98525560D01*
X117559800Y-98393250D01*
X117523077Y-97735722D01*
X117562369Y-97082302D01*
X117674348Y-96439356D01*
X117855687Y-95813253D01*
X118103056Y-95210359D01*
X118413129Y-94637042D01*
X118782578Y-94099669D01*
X119208074Y-93604607D01*
X119686290Y-93158223D01*
X120213898Y-92766885D01*
X120630229Y-92518599D01*
X120770358Y-92446818D01*
X120883137Y-92396115D01*
X120951523Y-92373837D01*
X120963264Y-92375035D01*
X120980590Y-92419812D01*
X121012873Y-92527764D01*
X121056216Y-92684962D01*
X121106719Y-92877478D01*
X121134347Y-92986250D01*
X121304586Y-93597852D01*
X121508920Y-94220137D01*
X121740699Y-94837056D01*
X121993272Y-95432560D01*
X122259991Y-95990600D01*
X122534205Y-96495127D01*
X122701595Y-96768636D01*
X122869328Y-97029177D01*
X124289345Y-97029177D01*
X124872435Y-96325241D01*
X125201766Y-95922131D01*
X125479552Y-95568893D01*
X125709810Y-95258710D01*
X125896556Y-94984768D01*
X126043808Y-94740252D01*
X126155583Y-94518346D01*
X126235897Y-94312237D01*
X126288767Y-94115108D01*
X126318210Y-93920146D01*
X126322838Y-93864506D01*
X126319731Y-93538585D01*
X126260560Y-93224951D01*
X126140795Y-92909118D01*
X125955908Y-92576605D01*
X125887457Y-92472011D01*
X125708141Y-92206240D01*
X126109993Y-92407861D01*
X126705512Y-92749438D01*
X127251176Y-93149317D01*
X127743665Y-93602449D01*
X128179663Y-94103783D01*
X128555850Y-94648268D01*
X128868910Y-95230855D01*
X129115525Y-95846494D01*
X129292376Y-96490133D01*
X129396146Y-97156724D01*
X129417113Y-97441818D01*
X129423671Y-97654831D01*
X130607593Y-97654831D01*
X130587550Y-97092170D01*
X130485214Y-96361573D01*
X130308070Y-95647906D01*
X130057168Y-94955460D01*
X129733559Y-94288527D01*
X129338294Y-93651397D01*
X128902059Y-93083162D01*
X128401275Y-92551553D01*
X127852688Y-92080095D01*
X127262091Y-91670390D01*
X126635279Y-91324041D01*
X125978044Y-91042650D01*
X125296180Y-90827822D01*
X124595481Y-90681158D01*
X123881739Y-90604261D01*
X123160750Y-90598734D01*
X122438305Y-90666181D01*
G36*
X154707020Y-90778515D02*
X154371103Y-90793055D01*
X154067779Y-90815946D01*
X153805577Y-90846108D01*
X153593029Y-90882463D01*
X153438663Y-90923933D01*
X153351009Y-90969439D01*
X153335135Y-90992403D01*
X153360992Y-91029270D01*
X153439889Y-91101000D01*
X153559612Y-91197266D01*
X153707949Y-91307741D01*
X153708713Y-91308291D01*
X154421428Y-91849505D01*
X155056081Y-92391556D01*
X155613985Y-92935732D01*
X156096452Y-93483317D01*
X156504796Y-94035597D01*
X156528289Y-94070911D01*
X156753719Y-94412005D01*
X157468094Y-94437798D01*
X158117863Y-94470796D01*
X158836134Y-94524740D01*
X159615182Y-94598452D01*
X160447279Y-94690752D01*
X161324700Y-94800461D01*
X162239718Y-94926399D01*
X163184607Y-95067387D01*
X164151641Y-95222246D01*
X165133093Y-95389795D01*
X166121237Y-95568856D01*
X167108346Y-95758250D01*
X168086696Y-95956796D01*
X169048558Y-96163316D01*
X169632312Y-96294632D01*
X170385103Y-96471707D01*
X171125342Y-96654843D01*
X171845401Y-96841821D01*
X172537646Y-97030423D01*
X173194447Y-97218428D01*
X173808172Y-97403618D01*
X174371189Y-97583774D01*
X174875868Y-97756677D01*
X175314577Y-97920106D01*
X175548268Y-98014930D01*
X175711205Y-98083461D01*
X175814575Y-98125841D01*
X175871930Y-98146805D01*
X175896822Y-98151088D01*
X175902804Y-98143424D01*
X175902937Y-98138839D01*
X175886938Y-98094192D01*
X175843144Y-97991607D01*
X175777862Y-97844825D01*
X175697398Y-97667585D01*
X175608057Y-97473626D01*
X175516145Y-97276688D01*
X175427970Y-97090509D01*
X175349836Y-96928831D01*
X175318409Y-96865281D01*
X175228098Y-96691140D01*
X175111354Y-96475547D01*
X174982768Y-96245001D01*
X174856928Y-96026004D01*
X174847850Y-96010516D01*
X174761611Y-95861596D01*
X174692545Y-95744019D01*
X174630970Y-95650490D01*
X174567207Y-95573712D01*
X174491573Y-95506389D01*
X174394387Y-95441225D01*
X174265969Y-95370922D01*
X174096636Y-95288186D01*
X173876708Y-95185720D01*
X173596503Y-95056227D01*
X173557776Y-95038250D01*
X172761911Y-94685156D01*
X171897368Y-94332684D01*
X170974783Y-93984605D01*
X170004791Y-93644690D01*
X168998026Y-93316708D01*
X167965125Y-93004430D01*
X167251062Y-92802374D01*
X166253704Y-92537166D01*
X165241583Y-92285719D01*
X164221968Y-92049242D01*
X163202125Y-91828946D01*
X162189322Y-91626041D01*
X161190824Y-91441738D01*
X160213900Y-91277245D01*
X159265816Y-91133774D01*
X158353838Y-91012535D01*
X157485234Y-90914738D01*
X156667271Y-90841592D01*
X155907216Y-90794308D01*
X155212335Y-90774097D01*
X155067000Y-90773404D01*
X154707020Y-90778515D01*
X154707020Y-90778515D01*
G37*
X154707020Y-90778515D02*
X154371103Y-90793055D01*
X154067779Y-90815946D01*
X153805577Y-90846108D01*
X153593029Y-90882463D01*
X153438663Y-90923933D01*
X153351009Y-90969439D01*
X153335135Y-90992403D01*
X153360992Y-91029270D01*
X153439889Y-91101000D01*
X153559612Y-91197266D01*
X153707949Y-91307741D01*
X153708713Y-91308291D01*
X154421428Y-91849505D01*
X155056081Y-92391556D01*
X155613985Y-92935732D01*
X156096452Y-93483317D01*
X156504796Y-94035597D01*
X156528289Y-94070911D01*
X156753719Y-94412005D01*
X157468094Y-94437798D01*
X158117863Y-94470796D01*
X158836134Y-94524740D01*
X159615182Y-94598452D01*
X160447279Y-94690752D01*
X161324700Y-94800461D01*
X162239718Y-94926399D01*
X163184607Y-95067387D01*
X164151641Y-95222246D01*
X165133093Y-95389795D01*
X166121237Y-95568856D01*
X167108346Y-95758250D01*
X168086696Y-95956796D01*
X169048558Y-96163316D01*
X169632312Y-96294632D01*
X170385103Y-96471707D01*
X171125342Y-96654843D01*
X171845401Y-96841821D01*
X172537646Y-97030423D01*
X173194447Y-97218428D01*
X173808172Y-97403618D01*
X174371189Y-97583774D01*
X174875868Y-97756677D01*
X175314577Y-97920106D01*
X175548268Y-98014930D01*
X175711205Y-98083461D01*
X175814575Y-98125841D01*
X175871930Y-98146805D01*
X175896822Y-98151088D01*
X175902804Y-98143424D01*
X175902937Y-98138839D01*
X175886938Y-98094192D01*
X175843144Y-97991607D01*
X175777862Y-97844825D01*
X175697398Y-97667585D01*
X175608057Y-97473626D01*
X175516145Y-97276688D01*
X175427970Y-97090509D01*
X175349836Y-96928831D01*
X175318409Y-96865281D01*
X175228098Y-96691140D01*
X175111354Y-96475547D01*
X174982768Y-96245001D01*
X174856928Y-96026004D01*
X174847850Y-96010516D01*
X174761611Y-95861596D01*
X174692545Y-95744019D01*
X174630970Y-95650490D01*
X174567207Y-95573712D01*
X174491573Y-95506389D01*
X174394387Y-95441225D01*
X174265969Y-95370922D01*
X174096636Y-95288186D01*
X173876708Y-95185720D01*
X173596503Y-95056227D01*
X173557776Y-95038250D01*
X172761911Y-94685156D01*
X171897368Y-94332684D01*
X170974783Y-93984605D01*
X170004791Y-93644690D01*
X168998026Y-93316708D01*
X167965125Y-93004430D01*
X167251062Y-92802374D01*
X166253704Y-92537166D01*
X165241583Y-92285719D01*
X164221968Y-92049242D01*
X163202125Y-91828946D01*
X162189322Y-91626041D01*
X161190824Y-91441738D01*
X160213900Y-91277245D01*
X159265816Y-91133774D01*
X158353838Y-91012535D01*
X157485234Y-90914738D01*
X156667271Y-90841592D01*
X155907216Y-90794308D01*
X155212335Y-90774097D01*
X155067000Y-90773404D01*
X154707020Y-90778515D01*
G36*
X116548660Y-90796627D02*
X116182503Y-90803689D01*
X115824457Y-90814882D01*
X115486999Y-90830127D01*
X115182609Y-90849342D01*
X114982625Y-90866400D01*
X113797323Y-90997026D01*
X112590553Y-91158002D01*
X111369361Y-91347499D01*
X110140794Y-91563689D01*
X108911897Y-91804740D01*
X107689717Y-92068824D01*
X106481301Y-92354113D01*
X105293695Y-92658775D01*
X104133945Y-92980982D01*
X103009097Y-93318905D01*
X101926198Y-93670714D01*
X100892294Y-94034579D01*
X99914432Y-94408672D01*
X98999658Y-94791163D01*
X98155018Y-95180223D01*
X97919754Y-95296245D01*
X97444400Y-95534532D01*
X97184980Y-95971567D01*
X97066026Y-96178254D01*
X96937062Y-96413170D01*
X96803057Y-96666134D01*
X96668976Y-96926968D01*
X96539785Y-97185491D01*
X96420451Y-97431524D01*
X96315940Y-97654888D01*
X96231218Y-97845403D01*
X96171252Y-97992890D01*
X96141007Y-98087168D01*
X96139440Y-98114639D01*
X96178580Y-98114169D01*
X96271797Y-98087259D01*
X96400530Y-98039469D01*
X96428719Y-98027972D01*
X96979444Y-97813542D01*
X97602695Y-97595131D01*
X98291799Y-97374060D01*
X99040085Y-97151650D01*
X99840879Y-96929223D01*
X100687510Y-96708101D01*
X101573305Y-96489605D01*
X102491593Y-96275056D01*
X103435701Y-96065777D01*
X104398957Y-95863089D01*
X105374689Y-95668313D01*
X106356224Y-95482771D01*
X107336891Y-95307785D01*
X108310017Y-95144676D01*
X109268930Y-94994765D01*
X110206957Y-94859375D01*
X111117428Y-94739826D01*
X111993669Y-94637440D01*
X112829008Y-94553539D01*
X113616773Y-94489445D01*
X114350292Y-94446479D01*
X114552937Y-94438121D01*
X115254342Y-94412195D01*
X115514438Y-94027705D01*
X115861496Y-93552301D01*
X116251811Y-93090539D01*
X116692307Y-92635653D01*
X117189907Y-92180875D01*
X117751536Y-91719438D01*
X118298711Y-91306515D01*
X118726544Y-90994727D01*
X118610756Y-90946353D01*
X118512173Y-90914180D01*
X118367537Y-90877318D01*
X118217156Y-90845537D01*
X118064375Y-90826116D01*
X117844835Y-90811311D01*
X117571016Y-90801040D01*
X117255395Y-90795222D01*
X116910450Y-90793778D01*
X116548660Y-90796627D01*
X116548660Y-90796627D01*
G37*
X116548660Y-90796627D02*
X116182503Y-90803689D01*
X115824457Y-90814882D01*
X115486999Y-90830127D01*
X115182609Y-90849342D01*
X114982625Y-90866400D01*
X113797323Y-90997026D01*
X112590553Y-91158002D01*
X111369361Y-91347499D01*
X110140794Y-91563689D01*
X108911897Y-91804740D01*
X107689717Y-92068824D01*
X106481301Y-92354113D01*
X105293695Y-92658775D01*
X104133945Y-92980982D01*
X103009097Y-93318905D01*
X101926198Y-93670714D01*
X100892294Y-94034579D01*
X99914432Y-94408672D01*
X98999658Y-94791163D01*
X98155018Y-95180223D01*
X97919754Y-95296245D01*
X97444400Y-95534532D01*
X97184980Y-95971567D01*
X97066026Y-96178254D01*
X96937062Y-96413170D01*
X96803057Y-96666134D01*
X96668976Y-96926968D01*
X96539785Y-97185491D01*
X96420451Y-97431524D01*
X96315940Y-97654888D01*
X96231218Y-97845403D01*
X96171252Y-97992890D01*
X96141007Y-98087168D01*
X96139440Y-98114639D01*
X96178580Y-98114169D01*
X96271797Y-98087259D01*
X96400530Y-98039469D01*
X96428719Y-98027972D01*
X96979444Y-97813542D01*
X97602695Y-97595131D01*
X98291799Y-97374060D01*
X99040085Y-97151650D01*
X99840879Y-96929223D01*
X100687510Y-96708101D01*
X101573305Y-96489605D01*
X102491593Y-96275056D01*
X103435701Y-96065777D01*
X104398957Y-95863089D01*
X105374689Y-95668313D01*
X106356224Y-95482771D01*
X107336891Y-95307785D01*
X108310017Y-95144676D01*
X109268930Y-94994765D01*
X110206957Y-94859375D01*
X111117428Y-94739826D01*
X111993669Y-94637440D01*
X112829008Y-94553539D01*
X113616773Y-94489445D01*
X114350292Y-94446479D01*
X114552937Y-94438121D01*
X115254342Y-94412195D01*
X115514438Y-94027705D01*
X115861496Y-93552301D01*
X116251811Y-93090539D01*
X116692307Y-92635653D01*
X117189907Y-92180875D01*
X117751536Y-91719438D01*
X118298711Y-91306515D01*
X118726544Y-90994727D01*
X118610756Y-90946353D01*
X118512173Y-90914180D01*
X118367537Y-90877318D01*
X118217156Y-90845537D01*
X118064375Y-90826116D01*
X117844835Y-90811311D01*
X117571016Y-90801040D01*
X117255395Y-90795222D01*
X116910450Y-90793778D01*
X116548660Y-90796627D01*
G36*
X148785695Y-82314636D02*
X148689247Y-82343817D01*
X148587829Y-82387899D01*
X148471102Y-82446744D01*
X148339895Y-82514521D01*
X147836929Y-82797726D01*
X147367744Y-83119464D01*
X146911014Y-83495078D01*
X146679616Y-83708875D01*
X146140269Y-84271379D01*
X145620780Y-84907682D01*
X145123610Y-85614136D01*
X144651221Y-86387095D01*
X144206075Y-87222912D01*
X143960376Y-87737156D01*
X143866670Y-87942921D01*
X143783571Y-88128367D01*
X143717318Y-88279335D01*
X143674153Y-88381666D01*
X143661425Y-88415416D01*
X143655210Y-88442344D01*
X143661736Y-88463051D01*
X143690418Y-88478729D01*
X143750673Y-88490572D01*
X143851914Y-88499773D01*
X144003560Y-88507525D01*
X144215024Y-88515022D01*
X144495724Y-88523458D01*
X144519388Y-88524148D01*
X145720949Y-88587796D01*
X146869786Y-88707589D01*
X147970159Y-88884420D01*
X149026327Y-89119180D01*
X150042551Y-89412761D01*
X151023092Y-89766055D01*
X151587280Y-90003169D01*
X151977091Y-90175934D01*
X152316125Y-90077685D01*
X152746020Y-89977281D01*
X153249054Y-89903750D01*
X153823664Y-89857123D01*
X154468291Y-89837431D01*
X155181374Y-89844704D01*
X155961351Y-89878973D01*
X156806663Y-89940269D01*
X157249812Y-89980720D01*
X158214114Y-90085481D01*
X159211474Y-90215022D01*
X160234865Y-90367610D01*
X161277258Y-90541513D01*
X162331625Y-90734998D01*
X163390936Y-90946332D01*
X164448165Y-91173783D01*
X165496282Y-91415618D01*
X166528258Y-91670105D01*
X167537066Y-91935511D01*
X168515676Y-92210103D01*
X169457061Y-92492149D01*
X170354191Y-92779916D01*
X171200038Y-93071671D01*
X171987574Y-93365682D01*
X172709771Y-93660216D01*
X173353016Y-93950397D01*
X173544738Y-94040097D01*
X173708633Y-94113332D01*
X173832717Y-94165024D01*
X173905007Y-94190098D01*
X173918562Y-94189967D01*
X173897188Y-94144805D01*
X173840880Y-94054188D01*
X173761361Y-93936877D01*
X173752968Y-93924945D01*
X173309842Y-93350859D01*
X172788727Y-92773367D01*
X172190893Y-92193330D01*
X171517613Y-91611608D01*
X170770157Y-91029062D01*
X169949796Y-90446553D01*
X169057802Y-89864942D01*
X168095446Y-89285089D01*
X167063998Y-88707855D01*
X165964731Y-88134101D01*
X164798914Y-87564687D01*
X163567819Y-87000475D01*
X163449473Y-86948041D01*
X162252971Y-86435135D01*
X161003041Y-85929093D01*
X159712317Y-85434115D01*
X158393433Y-84954402D01*
X157059022Y-84494155D01*
X155721718Y-84057575D01*
X154394154Y-83648863D01*
X153088963Y-83272219D01*
X151818780Y-82931844D01*
X150596238Y-82631940D01*
X150190178Y-82539155D01*
X149839017Y-82460176D01*
X149555263Y-82397061D01*
X149328574Y-82349673D01*
X149148612Y-82317874D01*
X149005038Y-82301526D01*
X148887512Y-82300493D01*
X148785695Y-82314636D01*
X148785695Y-82314636D01*
G37*
X148785695Y-82314636D02*
X148689247Y-82343817D01*
X148587829Y-82387899D01*
X148471102Y-82446744D01*
X148339895Y-82514521D01*
X147836929Y-82797726D01*
X147367744Y-83119464D01*
X146911014Y-83495078D01*
X146679616Y-83708875D01*
X146140269Y-84271379D01*
X145620780Y-84907682D01*
X145123610Y-85614136D01*
X144651221Y-86387095D01*
X144206075Y-87222912D01*
X143960376Y-87737156D01*
X143866670Y-87942921D01*
X143783571Y-88128367D01*
X143717318Y-88279335D01*
X143674153Y-88381666D01*
X143661425Y-88415416D01*
X143655210Y-88442344D01*
X143661736Y-88463051D01*
X143690418Y-88478729D01*
X143750673Y-88490572D01*
X143851914Y-88499773D01*
X144003560Y-88507525D01*
X144215024Y-88515022D01*
X144495724Y-88523458D01*
X144519388Y-88524148D01*
X145720949Y-88587796D01*
X146869786Y-88707589D01*
X147970159Y-88884420D01*
X149026327Y-89119180D01*
X150042551Y-89412761D01*
X151023092Y-89766055D01*
X151587280Y-90003169D01*
X151977091Y-90175934D01*
X152316125Y-90077685D01*
X152746020Y-89977281D01*
X153249054Y-89903750D01*
X153823664Y-89857123D01*
X154468291Y-89837431D01*
X155181374Y-89844704D01*
X155961351Y-89878973D01*
X156806663Y-89940269D01*
X157249812Y-89980720D01*
X158214114Y-90085481D01*
X159211474Y-90215022D01*
X160234865Y-90367610D01*
X161277258Y-90541513D01*
X162331625Y-90734998D01*
X163390936Y-90946332D01*
X164448165Y-91173783D01*
X165496282Y-91415618D01*
X166528258Y-91670105D01*
X167537066Y-91935511D01*
X168515676Y-92210103D01*
X169457061Y-92492149D01*
X170354191Y-92779916D01*
X171200038Y-93071671D01*
X171987574Y-93365682D01*
X172709771Y-93660216D01*
X173353016Y-93950397D01*
X173544738Y-94040097D01*
X173708633Y-94113332D01*
X173832717Y-94165024D01*
X173905007Y-94190098D01*
X173918562Y-94189967D01*
X173897188Y-94144805D01*
X173840880Y-94054188D01*
X173761361Y-93936877D01*
X173752968Y-93924945D01*
X173309842Y-93350859D01*
X172788727Y-92773367D01*
X172190893Y-92193330D01*
X171517613Y-91611608D01*
X170770157Y-91029062D01*
X169949796Y-90446553D01*
X169057802Y-89864942D01*
X168095446Y-89285089D01*
X167063998Y-88707855D01*
X165964731Y-88134101D01*
X164798914Y-87564687D01*
X163567819Y-87000475D01*
X163449473Y-86948041D01*
X162252971Y-86435135D01*
X161003041Y-85929093D01*
X159712317Y-85434115D01*
X158393433Y-84954402D01*
X157059022Y-84494155D01*
X155721718Y-84057575D01*
X154394154Y-83648863D01*
X153088963Y-83272219D01*
X151818780Y-82931844D01*
X150596238Y-82631940D01*
X150190178Y-82539155D01*
X149839017Y-82460176D01*
X149555263Y-82397061D01*
X149328574Y-82349673D01*
X149148612Y-82317874D01*
X149005038Y-82301526D01*
X148887512Y-82300493D01*
X148785695Y-82314636D01*
G36*
X122549156Y-82376769D02*
X122253544Y-82439739D01*
X121895187Y-82521042D01*
X121487680Y-82617262D01*
X121044615Y-82724982D01*
X120579585Y-82840785D01*
X120106183Y-82961255D01*
X119638002Y-83082975D01*
X119188636Y-83202529D01*
X118771677Y-83316499D01*
X118455281Y-83405748D01*
X116948661Y-83853037D01*
X115470363Y-84321227D01*
X114024260Y-84808600D01*
X112614225Y-85313440D01*
X111244133Y-85834031D01*
X109917856Y-86368655D01*
X108639268Y-86915598D01*
X107412243Y-87473141D01*
X106240654Y-88039569D01*
X105128374Y-88613165D01*
X104079277Y-89192212D01*
X103097236Y-89774994D01*
X102186125Y-90359795D01*
X101349817Y-90944897D01*
X101211062Y-91047477D01*
X100583428Y-91537415D01*
X99993047Y-92042211D01*
X99448109Y-92553893D01*
X98956803Y-93064491D01*
X98527317Y-93566035D01*
X98256532Y-93923268D01*
X98170939Y-94047123D01*
X98109124Y-94144156D01*
X98081025Y-94198460D01*
X98080884Y-94204333D01*
X98121458Y-94196444D01*
X98207031Y-94159974D01*
X98254344Y-94136452D01*
X98689773Y-93923896D01*
X99195313Y-93699963D01*
X99762997Y-93467569D01*
X100384861Y-93229631D01*
X101052937Y-92989066D01*
X101759259Y-92748789D01*
X102495860Y-92511718D01*
X103254775Y-92280768D01*
X103592312Y-92182245D01*
X104584772Y-91904965D01*
X105583782Y-91642618D01*
X106585039Y-91395757D01*
X107584239Y-91164934D01*
X108577076Y-90950703D01*
X109559247Y-90753616D01*
X110526447Y-90574227D01*
X111474372Y-90413088D01*
X112398717Y-90270753D01*
X113295178Y-90147774D01*
X114159451Y-90044705D01*
X114987230Y-89962098D01*
X115774213Y-89900507D01*
X116516093Y-89860484D01*
X117208568Y-89842583D01*
X117847332Y-89847357D01*
X118428081Y-89875357D01*
X118946511Y-89927139D01*
X119398317Y-90003253D01*
X119775774Y-90103127D01*
X120024704Y-90184997D01*
X120470305Y-89987667D01*
X121469437Y-89586983D01*
X122515573Y-89248651D01*
X123605566Y-88973495D01*
X124736270Y-88762342D01*
X125559344Y-88652036D01*
X125880004Y-88619809D01*
X126247971Y-88589419D01*
X126640864Y-88562199D01*
X127036305Y-88539483D01*
X127411913Y-88522605D01*
X127745312Y-88512897D01*
X127925153Y-88511063D01*
X128134597Y-88507985D01*
X128271606Y-88498263D01*
X128342900Y-88481163D01*
X128357312Y-88463901D01*
X128341706Y-88412666D01*
X128298753Y-88303306D01*
X128234254Y-88149821D01*
X128154009Y-87966209D01*
X128114769Y-87878510D01*
X127714631Y-87046777D01*
X127288799Y-86268678D01*
X126839788Y-85547139D01*
X126370111Y-84885084D01*
X125882284Y-84285438D01*
X125378822Y-83751127D01*
X124862238Y-83285074D01*
X124335048Y-82890205D01*
X123799766Y-82569445D01*
X123382593Y-82374361D01*
X123110843Y-82262867D01*
X122549156Y-82376769D01*
X122549156Y-82376769D01*
G37*
X122549156Y-82376769D02*
X122253544Y-82439739D01*
X121895187Y-82521042D01*
X121487680Y-82617262D01*
X121044615Y-82724982D01*
X120579585Y-82840785D01*
X120106183Y-82961255D01*
X119638002Y-83082975D01*
X119188636Y-83202529D01*
X118771677Y-83316499D01*
X118455281Y-83405748D01*
X116948661Y-83853037D01*
X115470363Y-84321227D01*
X114024260Y-84808600D01*
X112614225Y-85313440D01*
X111244133Y-85834031D01*
X109917856Y-86368655D01*
X108639268Y-86915598D01*
X107412243Y-87473141D01*
X106240654Y-88039569D01*
X105128374Y-88613165D01*
X104079277Y-89192212D01*
X103097236Y-89774994D01*
X102186125Y-90359795D01*
X101349817Y-90944897D01*
X101211062Y-91047477D01*
X100583428Y-91537415D01*
X99993047Y-92042211D01*
X99448109Y-92553893D01*
X98956803Y-93064491D01*
X98527317Y-93566035D01*
X98256532Y-93923268D01*
X98170939Y-94047123D01*
X98109124Y-94144156D01*
X98081025Y-94198460D01*
X98080884Y-94204333D01*
X98121458Y-94196444D01*
X98207031Y-94159974D01*
X98254344Y-94136452D01*
X98689773Y-93923896D01*
X99195313Y-93699963D01*
X99762997Y-93467569D01*
X100384861Y-93229631D01*
X101052937Y-92989066D01*
X101759259Y-92748789D01*
X102495860Y-92511718D01*
X103254775Y-92280768D01*
X103592312Y-92182245D01*
X104584772Y-91904965D01*
X105583782Y-91642618D01*
X106585039Y-91395757D01*
X107584239Y-91164934D01*
X108577076Y-90950703D01*
X109559247Y-90753616D01*
X110526447Y-90574227D01*
X111474372Y-90413088D01*
X112398717Y-90270753D01*
X113295178Y-90147774D01*
X114159451Y-90044705D01*
X114987230Y-89962098D01*
X115774213Y-89900507D01*
X116516093Y-89860484D01*
X117208568Y-89842583D01*
X117847332Y-89847357D01*
X118428081Y-89875357D01*
X118946511Y-89927139D01*
X119398317Y-90003253D01*
X119775774Y-90103127D01*
X120024704Y-90184997D01*
X120470305Y-89987667D01*
X121469437Y-89586983D01*
X122515573Y-89248651D01*
X123605566Y-88973495D01*
X124736270Y-88762342D01*
X125559344Y-88652036D01*
X125880004Y-88619809D01*
X126247971Y-88589419D01*
X126640864Y-88562199D01*
X127036305Y-88539483D01*
X127411913Y-88522605D01*
X127745312Y-88512897D01*
X127925153Y-88511063D01*
X128134597Y-88507985D01*
X128271606Y-88498263D01*
X128342900Y-88481163D01*
X128357312Y-88463901D01*
X128341706Y-88412666D01*
X128298753Y-88303306D01*
X128234254Y-88149821D01*
X128154009Y-87966209D01*
X128114769Y-87878510D01*
X127714631Y-87046777D01*
X127288799Y-86268678D01*
X126839788Y-85547139D01*
X126370111Y-84885084D01*
X125882284Y-84285438D01*
X125378822Y-83751127D01*
X124862238Y-83285074D01*
X124335048Y-82890205D01*
X123799766Y-82569445D01*
X123382593Y-82374361D01*
X123110843Y-82262867D01*
X122549156Y-82376769D01*
G04 #@! TD*
M02*
