G04 #@! TF.GenerationSoftware,KiCad,Pcbnew,(5.0.1)-3*
G04 #@! TF.CreationDate,2018-11-04T18:32:24-06:00*
G04 #@! TF.ProjectId,Gimble Goblin,47696D626C6520476F626C696E2E6B69,rev?*
G04 #@! TF.SameCoordinates,Original*
G04 #@! TF.FileFunction,Copper,L1,Top,Signal*
G04 #@! TF.FilePolarity,Positive*
%FSLAX46Y46*%
G04 Gerber Fmt 4.6, Leading zero omitted, Abs format (unit mm)*
G04 Created by KiCad (PCBNEW (5.0.1)-3) date 11/4/2018 6:32:24 PM*
%MOMM*%
%LPD*%
G01*
G04 APERTURE LIST*
G04 #@! TA.AperFunction,BGAPad,CuDef*
%ADD10C,1.000000*%
G04 #@! TD*
G04 #@! TA.AperFunction,ComponentPad*
%ADD11R,1.600000X1.600000*%
G04 #@! TD*
G04 #@! TA.AperFunction,ComponentPad*
%ADD12C,1.600000*%
G04 #@! TD*
G04 #@! TA.AperFunction,ComponentPad*
%ADD13C,2.000000*%
G04 #@! TD*
G04 #@! TA.AperFunction,SMDPad,CuDef*
%ADD14R,1.600000X0.300000*%
G04 #@! TD*
G04 #@! TA.AperFunction,Conductor*
%ADD15C,0.100000*%
G04 #@! TD*
G04 #@! TA.AperFunction,SMDPad,CuDef*
%ADD16C,0.875000*%
G04 #@! TD*
G04 #@! TA.AperFunction,ComponentPad*
%ADD17R,1.700000X1.700000*%
G04 #@! TD*
G04 #@! TA.AperFunction,ComponentPad*
%ADD18O,1.700000X1.700000*%
G04 #@! TD*
G04 #@! TA.AperFunction,SMDPad,CuDef*
%ADD19R,1.600000X0.550000*%
G04 #@! TD*
G04 #@! TA.AperFunction,SMDPad,CuDef*
%ADD20R,0.550000X1.600000*%
G04 #@! TD*
G04 #@! TA.AperFunction,SMDPad,CuDef*
%ADD21R,0.800000X0.900000*%
G04 #@! TD*
G04 #@! TA.AperFunction,SMDPad,CuDef*
%ADD22R,2.500000X1.900000*%
G04 #@! TD*
G04 #@! TA.AperFunction,SMDPad,CuDef*
%ADD23R,0.600000X1.550000*%
G04 #@! TD*
G04 #@! TA.AperFunction,SMDPad,CuDef*
%ADD24R,1.450000X0.450000*%
G04 #@! TD*
G04 #@! TA.AperFunction,SMDPad,CuDef*
%ADD25R,2.000000X1.500000*%
G04 #@! TD*
G04 #@! TA.AperFunction,SMDPad,CuDef*
%ADD26R,2.000000X3.800000*%
G04 #@! TD*
G04 #@! TA.AperFunction,ViaPad*
%ADD27C,0.800000*%
G04 #@! TD*
G04 #@! TA.AperFunction,Conductor*
%ADD28C,1.270000*%
G04 #@! TD*
G04 #@! TA.AperFunction,Conductor*
%ADD29C,0.609600*%
G04 #@! TD*
G04 #@! TA.AperFunction,Conductor*
%ADD30C,0.457200*%
G04 #@! TD*
G04 #@! TA.AperFunction,Conductor*
%ADD31C,0.304800*%
G04 #@! TD*
G04 #@! TA.AperFunction,Conductor*
%ADD32C,0.250000*%
G04 #@! TD*
G04 #@! TA.AperFunction,Conductor*
%ADD33C,0.254000*%
G04 #@! TD*
G04 APERTURE END LIST*
D10*
G04 #@! TO.P,TP2,1*
G04 #@! TO.N,MISO*
X131267200Y-87096600D03*
G04 #@! TD*
G04 #@! TO.P,TP1,1*
G04 #@! TO.N,MOSI*
X133096000Y-85166200D03*
G04 #@! TD*
G04 #@! TO.P,TP3,1*
G04 #@! TO.N,SCK*
X127685800Y-91897200D03*
G04 #@! TD*
G04 #@! TO.P,TP4,1*
G04 #@! TO.N,RESET*
X144018000Y-97078800D03*
G04 #@! TD*
G04 #@! TO.P,TP5,1*
G04 #@! TO.N,GND*
X129895600Y-95377000D03*
G04 #@! TD*
D11*
G04 #@! TO.P,C4,1*
G04 #@! TO.N,+5VA*
X137287000Y-77597000D03*
D12*
G04 #@! TO.P,C4,2*
G04 #@! TO.N,GND*
X134787000Y-77597000D03*
G04 #@! TD*
D13*
G04 #@! TO.P,SW1,2*
G04 #@! TO.N,GND*
X145868000Y-87226000D03*
G04 #@! TO.P,SW1,1*
G04 #@! TO.N,RESET*
X150368000Y-87226000D03*
G04 #@! TO.P,SW1,2*
G04 #@! TO.N,GND*
X145868000Y-93726000D03*
G04 #@! TO.P,SW1,1*
G04 #@! TO.N,RESET*
X150368000Y-93726000D03*
G04 #@! TD*
D14*
G04 #@! TO.P,Y2,1*
G04 #@! TO.N,Net-(U5-Pad8)*
X142367000Y-87823000D03*
G04 #@! TO.P,Y2,2*
G04 #@! TO.N,GND*
X142367000Y-88773000D03*
G04 #@! TO.P,Y2,3*
G04 #@! TO.N,Net-(U5-Pad7)*
X142367000Y-89723000D03*
G04 #@! TD*
D15*
G04 #@! TO.N,V_MCU*
G04 #@! TO.C,C8*
G36*
X142136691Y-91003553D02*
X142157926Y-91006703D01*
X142178750Y-91011919D01*
X142198962Y-91019151D01*
X142218368Y-91028330D01*
X142236781Y-91039366D01*
X142254024Y-91052154D01*
X142269930Y-91066570D01*
X142284346Y-91082476D01*
X142297134Y-91099719D01*
X142308170Y-91118132D01*
X142317349Y-91137538D01*
X142324581Y-91157750D01*
X142329797Y-91178574D01*
X142332947Y-91199809D01*
X142334000Y-91221250D01*
X142334000Y-91658750D01*
X142332947Y-91680191D01*
X142329797Y-91701426D01*
X142324581Y-91722250D01*
X142317349Y-91742462D01*
X142308170Y-91761868D01*
X142297134Y-91780281D01*
X142284346Y-91797524D01*
X142269930Y-91813430D01*
X142254024Y-91827846D01*
X142236781Y-91840634D01*
X142218368Y-91851670D01*
X142198962Y-91860849D01*
X142178750Y-91868081D01*
X142157926Y-91873297D01*
X142136691Y-91876447D01*
X142115250Y-91877500D01*
X141602750Y-91877500D01*
X141581309Y-91876447D01*
X141560074Y-91873297D01*
X141539250Y-91868081D01*
X141519038Y-91860849D01*
X141499632Y-91851670D01*
X141481219Y-91840634D01*
X141463976Y-91827846D01*
X141448070Y-91813430D01*
X141433654Y-91797524D01*
X141420866Y-91780281D01*
X141409830Y-91761868D01*
X141400651Y-91742462D01*
X141393419Y-91722250D01*
X141388203Y-91701426D01*
X141385053Y-91680191D01*
X141384000Y-91658750D01*
X141384000Y-91221250D01*
X141385053Y-91199809D01*
X141388203Y-91178574D01*
X141393419Y-91157750D01*
X141400651Y-91137538D01*
X141409830Y-91118132D01*
X141420866Y-91099719D01*
X141433654Y-91082476D01*
X141448070Y-91066570D01*
X141463976Y-91052154D01*
X141481219Y-91039366D01*
X141499632Y-91028330D01*
X141519038Y-91019151D01*
X141539250Y-91011919D01*
X141560074Y-91006703D01*
X141581309Y-91003553D01*
X141602750Y-91002500D01*
X142115250Y-91002500D01*
X142136691Y-91003553D01*
X142136691Y-91003553D01*
G37*
D16*
G04 #@! TD*
G04 #@! TO.P,C8,1*
G04 #@! TO.N,V_MCU*
X141859000Y-91440000D03*
D15*
G04 #@! TO.N,GND*
G04 #@! TO.C,C8*
G36*
X142136691Y-92578553D02*
X142157926Y-92581703D01*
X142178750Y-92586919D01*
X142198962Y-92594151D01*
X142218368Y-92603330D01*
X142236781Y-92614366D01*
X142254024Y-92627154D01*
X142269930Y-92641570D01*
X142284346Y-92657476D01*
X142297134Y-92674719D01*
X142308170Y-92693132D01*
X142317349Y-92712538D01*
X142324581Y-92732750D01*
X142329797Y-92753574D01*
X142332947Y-92774809D01*
X142334000Y-92796250D01*
X142334000Y-93233750D01*
X142332947Y-93255191D01*
X142329797Y-93276426D01*
X142324581Y-93297250D01*
X142317349Y-93317462D01*
X142308170Y-93336868D01*
X142297134Y-93355281D01*
X142284346Y-93372524D01*
X142269930Y-93388430D01*
X142254024Y-93402846D01*
X142236781Y-93415634D01*
X142218368Y-93426670D01*
X142198962Y-93435849D01*
X142178750Y-93443081D01*
X142157926Y-93448297D01*
X142136691Y-93451447D01*
X142115250Y-93452500D01*
X141602750Y-93452500D01*
X141581309Y-93451447D01*
X141560074Y-93448297D01*
X141539250Y-93443081D01*
X141519038Y-93435849D01*
X141499632Y-93426670D01*
X141481219Y-93415634D01*
X141463976Y-93402846D01*
X141448070Y-93388430D01*
X141433654Y-93372524D01*
X141420866Y-93355281D01*
X141409830Y-93336868D01*
X141400651Y-93317462D01*
X141393419Y-93297250D01*
X141388203Y-93276426D01*
X141385053Y-93255191D01*
X141384000Y-93233750D01*
X141384000Y-92796250D01*
X141385053Y-92774809D01*
X141388203Y-92753574D01*
X141393419Y-92732750D01*
X141400651Y-92712538D01*
X141409830Y-92693132D01*
X141420866Y-92674719D01*
X141433654Y-92657476D01*
X141448070Y-92641570D01*
X141463976Y-92627154D01*
X141481219Y-92614366D01*
X141499632Y-92603330D01*
X141519038Y-92594151D01*
X141539250Y-92586919D01*
X141560074Y-92581703D01*
X141581309Y-92578553D01*
X141602750Y-92577500D01*
X142115250Y-92577500D01*
X142136691Y-92578553D01*
X142136691Y-92578553D01*
G37*
D16*
G04 #@! TD*
G04 #@! TO.P,C8,2*
G04 #@! TO.N,GND*
X141859000Y-93015000D03*
D17*
G04 #@! TO.P,J5,1*
G04 #@! TO.N,VPP*
X131445000Y-99441000D03*
D18*
G04 #@! TO.P,J5,2*
G04 #@! TO.N,RESET*
X133985000Y-99441000D03*
G04 #@! TO.P,J5,3*
G04 #@! TO.N,RX*
X136525000Y-99441000D03*
G04 #@! TO.P,J5,4*
G04 #@! TO.N,TX*
X139065000Y-99441000D03*
G04 #@! TO.P,J5,5*
G04 #@! TO.N,GND*
X141605000Y-99441000D03*
G04 #@! TD*
D15*
G04 #@! TO.N,GND*
G04 #@! TO.C,D1*
G36*
X145057691Y-65984553D02*
X145078926Y-65987703D01*
X145099750Y-65992919D01*
X145119962Y-66000151D01*
X145139368Y-66009330D01*
X145157781Y-66020366D01*
X145175024Y-66033154D01*
X145190930Y-66047570D01*
X145205346Y-66063476D01*
X145218134Y-66080719D01*
X145229170Y-66099132D01*
X145238349Y-66118538D01*
X145245581Y-66138750D01*
X145250797Y-66159574D01*
X145253947Y-66180809D01*
X145255000Y-66202250D01*
X145255000Y-66639750D01*
X145253947Y-66661191D01*
X145250797Y-66682426D01*
X145245581Y-66703250D01*
X145238349Y-66723462D01*
X145229170Y-66742868D01*
X145218134Y-66761281D01*
X145205346Y-66778524D01*
X145190930Y-66794430D01*
X145175024Y-66808846D01*
X145157781Y-66821634D01*
X145139368Y-66832670D01*
X145119962Y-66841849D01*
X145099750Y-66849081D01*
X145078926Y-66854297D01*
X145057691Y-66857447D01*
X145036250Y-66858500D01*
X144523750Y-66858500D01*
X144502309Y-66857447D01*
X144481074Y-66854297D01*
X144460250Y-66849081D01*
X144440038Y-66841849D01*
X144420632Y-66832670D01*
X144402219Y-66821634D01*
X144384976Y-66808846D01*
X144369070Y-66794430D01*
X144354654Y-66778524D01*
X144341866Y-66761281D01*
X144330830Y-66742868D01*
X144321651Y-66723462D01*
X144314419Y-66703250D01*
X144309203Y-66682426D01*
X144306053Y-66661191D01*
X144305000Y-66639750D01*
X144305000Y-66202250D01*
X144306053Y-66180809D01*
X144309203Y-66159574D01*
X144314419Y-66138750D01*
X144321651Y-66118538D01*
X144330830Y-66099132D01*
X144341866Y-66080719D01*
X144354654Y-66063476D01*
X144369070Y-66047570D01*
X144384976Y-66033154D01*
X144402219Y-66020366D01*
X144420632Y-66009330D01*
X144440038Y-66000151D01*
X144460250Y-65992919D01*
X144481074Y-65987703D01*
X144502309Y-65984553D01*
X144523750Y-65983500D01*
X145036250Y-65983500D01*
X145057691Y-65984553D01*
X145057691Y-65984553D01*
G37*
D16*
G04 #@! TD*
G04 #@! TO.P,D1,1*
G04 #@! TO.N,GND*
X144780000Y-66421000D03*
D15*
G04 #@! TO.N,Net-(D1-Pad2)*
G04 #@! TO.C,D1*
G36*
X145057691Y-67559553D02*
X145078926Y-67562703D01*
X145099750Y-67567919D01*
X145119962Y-67575151D01*
X145139368Y-67584330D01*
X145157781Y-67595366D01*
X145175024Y-67608154D01*
X145190930Y-67622570D01*
X145205346Y-67638476D01*
X145218134Y-67655719D01*
X145229170Y-67674132D01*
X145238349Y-67693538D01*
X145245581Y-67713750D01*
X145250797Y-67734574D01*
X145253947Y-67755809D01*
X145255000Y-67777250D01*
X145255000Y-68214750D01*
X145253947Y-68236191D01*
X145250797Y-68257426D01*
X145245581Y-68278250D01*
X145238349Y-68298462D01*
X145229170Y-68317868D01*
X145218134Y-68336281D01*
X145205346Y-68353524D01*
X145190930Y-68369430D01*
X145175024Y-68383846D01*
X145157781Y-68396634D01*
X145139368Y-68407670D01*
X145119962Y-68416849D01*
X145099750Y-68424081D01*
X145078926Y-68429297D01*
X145057691Y-68432447D01*
X145036250Y-68433500D01*
X144523750Y-68433500D01*
X144502309Y-68432447D01*
X144481074Y-68429297D01*
X144460250Y-68424081D01*
X144440038Y-68416849D01*
X144420632Y-68407670D01*
X144402219Y-68396634D01*
X144384976Y-68383846D01*
X144369070Y-68369430D01*
X144354654Y-68353524D01*
X144341866Y-68336281D01*
X144330830Y-68317868D01*
X144321651Y-68298462D01*
X144314419Y-68278250D01*
X144309203Y-68257426D01*
X144306053Y-68236191D01*
X144305000Y-68214750D01*
X144305000Y-67777250D01*
X144306053Y-67755809D01*
X144309203Y-67734574D01*
X144314419Y-67713750D01*
X144321651Y-67693538D01*
X144330830Y-67674132D01*
X144341866Y-67655719D01*
X144354654Y-67638476D01*
X144369070Y-67622570D01*
X144384976Y-67608154D01*
X144402219Y-67595366D01*
X144420632Y-67584330D01*
X144440038Y-67575151D01*
X144460250Y-67567919D01*
X144481074Y-67562703D01*
X144502309Y-67559553D01*
X144523750Y-67558500D01*
X145036250Y-67558500D01*
X145057691Y-67559553D01*
X145057691Y-67559553D01*
G37*
D16*
G04 #@! TD*
G04 #@! TO.P,D1,2*
G04 #@! TO.N,Net-(D1-Pad2)*
X144780000Y-67996000D03*
D19*
G04 #@! TO.P,U5,1*
G04 #@! TO.N,INT*
X139632000Y-93859000D03*
G04 #@! TO.P,U5,2*
G04 #@! TO.N,Net-(U5-Pad2)*
X139632000Y-93059000D03*
G04 #@! TO.P,U5,3*
G04 #@! TO.N,GND*
X139632000Y-92259000D03*
G04 #@! TO.P,U5,4*
G04 #@! TO.N,V_MCU*
X139632000Y-91459000D03*
G04 #@! TO.P,U5,5*
G04 #@! TO.N,GND*
X139632000Y-90659000D03*
G04 #@! TO.P,U5,6*
G04 #@! TO.N,V_MCU*
X139632000Y-89859000D03*
G04 #@! TO.P,U5,7*
G04 #@! TO.N,Net-(U5-Pad7)*
X139632000Y-89059000D03*
G04 #@! TO.P,U5,8*
G04 #@! TO.N,Net-(U5-Pad8)*
X139632000Y-88259000D03*
D20*
G04 #@! TO.P,U5,9*
G04 #@! TO.N,Gx*
X138182000Y-86809000D03*
G04 #@! TO.P,U5,10*
G04 #@! TO.N,Gy*
X137382000Y-86809000D03*
G04 #@! TO.P,U5,11*
G04 #@! TO.N,Net-(U5-Pad11)*
X136582000Y-86809000D03*
G04 #@! TO.P,U5,12*
G04 #@! TO.N,Net-(U5-Pad12)*
X135782000Y-86809000D03*
G04 #@! TO.P,U5,13*
G04 #@! TO.N,Net-(U5-Pad13)*
X134982000Y-86809000D03*
G04 #@! TO.P,U5,14*
G04 #@! TO.N,Net-(U5-Pad14)*
X134182000Y-86809000D03*
G04 #@! TO.P,U5,15*
G04 #@! TO.N,MOSI*
X133382000Y-86809000D03*
G04 #@! TO.P,U5,16*
G04 #@! TO.N,MISO*
X132582000Y-86809000D03*
D19*
G04 #@! TO.P,U5,17*
G04 #@! TO.N,SCK*
X131132000Y-88259000D03*
G04 #@! TO.P,U5,18*
G04 #@! TO.N,V_MCU*
X131132000Y-89059000D03*
G04 #@! TO.P,U5,19*
G04 #@! TO.N,Net-(U5-Pad19)*
X131132000Y-89859000D03*
G04 #@! TO.P,U5,20*
G04 #@! TO.N,Net-(U5-Pad20)*
X131132000Y-90659000D03*
G04 #@! TO.P,U5,21*
G04 #@! TO.N,GND*
X131132000Y-91459000D03*
G04 #@! TO.P,U5,22*
G04 #@! TO.N,Net-(U5-Pad22)*
X131132000Y-92259000D03*
G04 #@! TO.P,U5,23*
G04 #@! TO.N,Net-(U5-Pad23)*
X131132000Y-93059000D03*
G04 #@! TO.P,U5,24*
G04 #@! TO.N,Net-(U5-Pad24)*
X131132000Y-93859000D03*
D20*
G04 #@! TO.P,U5,25*
G04 #@! TO.N,RX1*
X132582000Y-95309000D03*
G04 #@! TO.P,U5,26*
G04 #@! TO.N,TX2*
X133382000Y-95309000D03*
G04 #@! TO.P,U5,27*
G04 #@! TO.N,TX1*
X134182000Y-95309000D03*
G04 #@! TO.P,U5,28*
G04 #@! TO.N,TX0*
X134982000Y-95309000D03*
G04 #@! TO.P,U5,29*
G04 #@! TO.N,RESET*
X135782000Y-95309000D03*
G04 #@! TO.P,U5,30*
G04 #@! TO.N,RX*
X136582000Y-95309000D03*
G04 #@! TO.P,U5,31*
G04 #@! TO.N,TX*
X137382000Y-95309000D03*
G04 #@! TO.P,U5,32*
G04 #@! TO.N,RX0*
X138182000Y-95309000D03*
G04 #@! TD*
D21*
G04 #@! TO.P,D2,1*
G04 #@! TO.N,VPP*
X130744000Y-84344000D03*
G04 #@! TO.P,D2,2*
G04 #@! TO.N,+5V*
X128844000Y-84344000D03*
G04 #@! TO.P,D2,3*
G04 #@! TO.N,V_MCU*
X129794000Y-86344000D03*
G04 #@! TD*
D15*
G04 #@! TO.N,V_MCU*
G04 #@! TO.C,R5*
G36*
X145057691Y-70582053D02*
X145078926Y-70585203D01*
X145099750Y-70590419D01*
X145119962Y-70597651D01*
X145139368Y-70606830D01*
X145157781Y-70617866D01*
X145175024Y-70630654D01*
X145190930Y-70645070D01*
X145205346Y-70660976D01*
X145218134Y-70678219D01*
X145229170Y-70696632D01*
X145238349Y-70716038D01*
X145245581Y-70736250D01*
X145250797Y-70757074D01*
X145253947Y-70778309D01*
X145255000Y-70799750D01*
X145255000Y-71237250D01*
X145253947Y-71258691D01*
X145250797Y-71279926D01*
X145245581Y-71300750D01*
X145238349Y-71320962D01*
X145229170Y-71340368D01*
X145218134Y-71358781D01*
X145205346Y-71376024D01*
X145190930Y-71391930D01*
X145175024Y-71406346D01*
X145157781Y-71419134D01*
X145139368Y-71430170D01*
X145119962Y-71439349D01*
X145099750Y-71446581D01*
X145078926Y-71451797D01*
X145057691Y-71454947D01*
X145036250Y-71456000D01*
X144523750Y-71456000D01*
X144502309Y-71454947D01*
X144481074Y-71451797D01*
X144460250Y-71446581D01*
X144440038Y-71439349D01*
X144420632Y-71430170D01*
X144402219Y-71419134D01*
X144384976Y-71406346D01*
X144369070Y-71391930D01*
X144354654Y-71376024D01*
X144341866Y-71358781D01*
X144330830Y-71340368D01*
X144321651Y-71320962D01*
X144314419Y-71300750D01*
X144309203Y-71279926D01*
X144306053Y-71258691D01*
X144305000Y-71237250D01*
X144305000Y-70799750D01*
X144306053Y-70778309D01*
X144309203Y-70757074D01*
X144314419Y-70736250D01*
X144321651Y-70716038D01*
X144330830Y-70696632D01*
X144341866Y-70678219D01*
X144354654Y-70660976D01*
X144369070Y-70645070D01*
X144384976Y-70630654D01*
X144402219Y-70617866D01*
X144420632Y-70606830D01*
X144440038Y-70597651D01*
X144460250Y-70590419D01*
X144481074Y-70585203D01*
X144502309Y-70582053D01*
X144523750Y-70581000D01*
X145036250Y-70581000D01*
X145057691Y-70582053D01*
X145057691Y-70582053D01*
G37*
D16*
G04 #@! TD*
G04 #@! TO.P,R5,1*
G04 #@! TO.N,V_MCU*
X144780000Y-71018500D03*
D15*
G04 #@! TO.N,Net-(D1-Pad2)*
G04 #@! TO.C,R5*
G36*
X145057691Y-69007053D02*
X145078926Y-69010203D01*
X145099750Y-69015419D01*
X145119962Y-69022651D01*
X145139368Y-69031830D01*
X145157781Y-69042866D01*
X145175024Y-69055654D01*
X145190930Y-69070070D01*
X145205346Y-69085976D01*
X145218134Y-69103219D01*
X145229170Y-69121632D01*
X145238349Y-69141038D01*
X145245581Y-69161250D01*
X145250797Y-69182074D01*
X145253947Y-69203309D01*
X145255000Y-69224750D01*
X145255000Y-69662250D01*
X145253947Y-69683691D01*
X145250797Y-69704926D01*
X145245581Y-69725750D01*
X145238349Y-69745962D01*
X145229170Y-69765368D01*
X145218134Y-69783781D01*
X145205346Y-69801024D01*
X145190930Y-69816930D01*
X145175024Y-69831346D01*
X145157781Y-69844134D01*
X145139368Y-69855170D01*
X145119962Y-69864349D01*
X145099750Y-69871581D01*
X145078926Y-69876797D01*
X145057691Y-69879947D01*
X145036250Y-69881000D01*
X144523750Y-69881000D01*
X144502309Y-69879947D01*
X144481074Y-69876797D01*
X144460250Y-69871581D01*
X144440038Y-69864349D01*
X144420632Y-69855170D01*
X144402219Y-69844134D01*
X144384976Y-69831346D01*
X144369070Y-69816930D01*
X144354654Y-69801024D01*
X144341866Y-69783781D01*
X144330830Y-69765368D01*
X144321651Y-69745962D01*
X144314419Y-69725750D01*
X144309203Y-69704926D01*
X144306053Y-69683691D01*
X144305000Y-69662250D01*
X144305000Y-69224750D01*
X144306053Y-69203309D01*
X144309203Y-69182074D01*
X144314419Y-69161250D01*
X144321651Y-69141038D01*
X144330830Y-69121632D01*
X144341866Y-69103219D01*
X144354654Y-69085976D01*
X144369070Y-69070070D01*
X144384976Y-69055654D01*
X144402219Y-69042866D01*
X144420632Y-69031830D01*
X144440038Y-69022651D01*
X144460250Y-69015419D01*
X144481074Y-69010203D01*
X144502309Y-69007053D01*
X144523750Y-69006000D01*
X145036250Y-69006000D01*
X145057691Y-69007053D01*
X145057691Y-69007053D01*
G37*
D16*
G04 #@! TD*
G04 #@! TO.P,R5,2*
G04 #@! TO.N,Net-(D1-Pad2)*
X144780000Y-69443500D03*
D15*
G04 #@! TO.N,RESET*
G04 #@! TO.C,R6*
G36*
X134148991Y-83422253D02*
X134170226Y-83425403D01*
X134191050Y-83430619D01*
X134211262Y-83437851D01*
X134230668Y-83447030D01*
X134249081Y-83458066D01*
X134266324Y-83470854D01*
X134282230Y-83485270D01*
X134296646Y-83501176D01*
X134309434Y-83518419D01*
X134320470Y-83536832D01*
X134329649Y-83556238D01*
X134336881Y-83576450D01*
X134342097Y-83597274D01*
X134345247Y-83618509D01*
X134346300Y-83639950D01*
X134346300Y-84152450D01*
X134345247Y-84173891D01*
X134342097Y-84195126D01*
X134336881Y-84215950D01*
X134329649Y-84236162D01*
X134320470Y-84255568D01*
X134309434Y-84273981D01*
X134296646Y-84291224D01*
X134282230Y-84307130D01*
X134266324Y-84321546D01*
X134249081Y-84334334D01*
X134230668Y-84345370D01*
X134211262Y-84354549D01*
X134191050Y-84361781D01*
X134170226Y-84366997D01*
X134148991Y-84370147D01*
X134127550Y-84371200D01*
X133690050Y-84371200D01*
X133668609Y-84370147D01*
X133647374Y-84366997D01*
X133626550Y-84361781D01*
X133606338Y-84354549D01*
X133586932Y-84345370D01*
X133568519Y-84334334D01*
X133551276Y-84321546D01*
X133535370Y-84307130D01*
X133520954Y-84291224D01*
X133508166Y-84273981D01*
X133497130Y-84255568D01*
X133487951Y-84236162D01*
X133480719Y-84215950D01*
X133475503Y-84195126D01*
X133472353Y-84173891D01*
X133471300Y-84152450D01*
X133471300Y-83639950D01*
X133472353Y-83618509D01*
X133475503Y-83597274D01*
X133480719Y-83576450D01*
X133487951Y-83556238D01*
X133497130Y-83536832D01*
X133508166Y-83518419D01*
X133520954Y-83501176D01*
X133535370Y-83485270D01*
X133551276Y-83470854D01*
X133568519Y-83458066D01*
X133586932Y-83447030D01*
X133606338Y-83437851D01*
X133626550Y-83430619D01*
X133647374Y-83425403D01*
X133668609Y-83422253D01*
X133690050Y-83421200D01*
X134127550Y-83421200D01*
X134148991Y-83422253D01*
X134148991Y-83422253D01*
G37*
D16*
G04 #@! TD*
G04 #@! TO.P,R6,2*
G04 #@! TO.N,RESET*
X133908800Y-83896200D03*
D15*
G04 #@! TO.N,V_MCU*
G04 #@! TO.C,R6*
G36*
X132573991Y-83422253D02*
X132595226Y-83425403D01*
X132616050Y-83430619D01*
X132636262Y-83437851D01*
X132655668Y-83447030D01*
X132674081Y-83458066D01*
X132691324Y-83470854D01*
X132707230Y-83485270D01*
X132721646Y-83501176D01*
X132734434Y-83518419D01*
X132745470Y-83536832D01*
X132754649Y-83556238D01*
X132761881Y-83576450D01*
X132767097Y-83597274D01*
X132770247Y-83618509D01*
X132771300Y-83639950D01*
X132771300Y-84152450D01*
X132770247Y-84173891D01*
X132767097Y-84195126D01*
X132761881Y-84215950D01*
X132754649Y-84236162D01*
X132745470Y-84255568D01*
X132734434Y-84273981D01*
X132721646Y-84291224D01*
X132707230Y-84307130D01*
X132691324Y-84321546D01*
X132674081Y-84334334D01*
X132655668Y-84345370D01*
X132636262Y-84354549D01*
X132616050Y-84361781D01*
X132595226Y-84366997D01*
X132573991Y-84370147D01*
X132552550Y-84371200D01*
X132115050Y-84371200D01*
X132093609Y-84370147D01*
X132072374Y-84366997D01*
X132051550Y-84361781D01*
X132031338Y-84354549D01*
X132011932Y-84345370D01*
X131993519Y-84334334D01*
X131976276Y-84321546D01*
X131960370Y-84307130D01*
X131945954Y-84291224D01*
X131933166Y-84273981D01*
X131922130Y-84255568D01*
X131912951Y-84236162D01*
X131905719Y-84215950D01*
X131900503Y-84195126D01*
X131897353Y-84173891D01*
X131896300Y-84152450D01*
X131896300Y-83639950D01*
X131897353Y-83618509D01*
X131900503Y-83597274D01*
X131905719Y-83576450D01*
X131912951Y-83556238D01*
X131922130Y-83536832D01*
X131933166Y-83518419D01*
X131945954Y-83501176D01*
X131960370Y-83485270D01*
X131976276Y-83470854D01*
X131993519Y-83458066D01*
X132011932Y-83447030D01*
X132031338Y-83437851D01*
X132051550Y-83430619D01*
X132072374Y-83425403D01*
X132093609Y-83422253D01*
X132115050Y-83421200D01*
X132552550Y-83421200D01*
X132573991Y-83422253D01*
X132573991Y-83422253D01*
G37*
D16*
G04 #@! TD*
G04 #@! TO.P,R6,1*
G04 #@! TO.N,V_MCU*
X132333800Y-83896200D03*
D11*
G04 #@! TO.P,C7,1*
G04 #@! TO.N,+5V*
X120396000Y-74295000D03*
D12*
G04 #@! TO.P,C7,2*
G04 #@! TO.N,GND*
X117896000Y-74295000D03*
G04 #@! TD*
D15*
G04 #@! TO.N,GND*
G04 #@! TO.C,C1*
G36*
X109862275Y-91175494D02*
X109883510Y-91178644D01*
X109904334Y-91183860D01*
X109924546Y-91191092D01*
X109943952Y-91200271D01*
X109962365Y-91211307D01*
X109979608Y-91224095D01*
X109995514Y-91238511D01*
X110009930Y-91254417D01*
X110022718Y-91271660D01*
X110033754Y-91290073D01*
X110042933Y-91309479D01*
X110050165Y-91329691D01*
X110055381Y-91350515D01*
X110058531Y-91371750D01*
X110059584Y-91393191D01*
X110059584Y-91905691D01*
X110058531Y-91927132D01*
X110055381Y-91948367D01*
X110050165Y-91969191D01*
X110042933Y-91989403D01*
X110033754Y-92008809D01*
X110022718Y-92027222D01*
X110009930Y-92044465D01*
X109995514Y-92060371D01*
X109979608Y-92074787D01*
X109962365Y-92087575D01*
X109943952Y-92098611D01*
X109924546Y-92107790D01*
X109904334Y-92115022D01*
X109883510Y-92120238D01*
X109862275Y-92123388D01*
X109840834Y-92124441D01*
X109403334Y-92124441D01*
X109381893Y-92123388D01*
X109360658Y-92120238D01*
X109339834Y-92115022D01*
X109319622Y-92107790D01*
X109300216Y-92098611D01*
X109281803Y-92087575D01*
X109264560Y-92074787D01*
X109248654Y-92060371D01*
X109234238Y-92044465D01*
X109221450Y-92027222D01*
X109210414Y-92008809D01*
X109201235Y-91989403D01*
X109194003Y-91969191D01*
X109188787Y-91948367D01*
X109185637Y-91927132D01*
X109184584Y-91905691D01*
X109184584Y-91393191D01*
X109185637Y-91371750D01*
X109188787Y-91350515D01*
X109194003Y-91329691D01*
X109201235Y-91309479D01*
X109210414Y-91290073D01*
X109221450Y-91271660D01*
X109234238Y-91254417D01*
X109248654Y-91238511D01*
X109264560Y-91224095D01*
X109281803Y-91211307D01*
X109300216Y-91200271D01*
X109319622Y-91191092D01*
X109339834Y-91183860D01*
X109360658Y-91178644D01*
X109381893Y-91175494D01*
X109403334Y-91174441D01*
X109840834Y-91174441D01*
X109862275Y-91175494D01*
X109862275Y-91175494D01*
G37*
D16*
G04 #@! TD*
G04 #@! TO.P,C1,2*
G04 #@! TO.N,GND*
X109622084Y-91649441D03*
D15*
G04 #@! TO.N,Net-(C1-Pad1)*
G04 #@! TO.C,C1*
G36*
X111437275Y-91175494D02*
X111458510Y-91178644D01*
X111479334Y-91183860D01*
X111499546Y-91191092D01*
X111518952Y-91200271D01*
X111537365Y-91211307D01*
X111554608Y-91224095D01*
X111570514Y-91238511D01*
X111584930Y-91254417D01*
X111597718Y-91271660D01*
X111608754Y-91290073D01*
X111617933Y-91309479D01*
X111625165Y-91329691D01*
X111630381Y-91350515D01*
X111633531Y-91371750D01*
X111634584Y-91393191D01*
X111634584Y-91905691D01*
X111633531Y-91927132D01*
X111630381Y-91948367D01*
X111625165Y-91969191D01*
X111617933Y-91989403D01*
X111608754Y-92008809D01*
X111597718Y-92027222D01*
X111584930Y-92044465D01*
X111570514Y-92060371D01*
X111554608Y-92074787D01*
X111537365Y-92087575D01*
X111518952Y-92098611D01*
X111499546Y-92107790D01*
X111479334Y-92115022D01*
X111458510Y-92120238D01*
X111437275Y-92123388D01*
X111415834Y-92124441D01*
X110978334Y-92124441D01*
X110956893Y-92123388D01*
X110935658Y-92120238D01*
X110914834Y-92115022D01*
X110894622Y-92107790D01*
X110875216Y-92098611D01*
X110856803Y-92087575D01*
X110839560Y-92074787D01*
X110823654Y-92060371D01*
X110809238Y-92044465D01*
X110796450Y-92027222D01*
X110785414Y-92008809D01*
X110776235Y-91989403D01*
X110769003Y-91969191D01*
X110763787Y-91948367D01*
X110760637Y-91927132D01*
X110759584Y-91905691D01*
X110759584Y-91393191D01*
X110760637Y-91371750D01*
X110763787Y-91350515D01*
X110769003Y-91329691D01*
X110776235Y-91309479D01*
X110785414Y-91290073D01*
X110796450Y-91271660D01*
X110809238Y-91254417D01*
X110823654Y-91238511D01*
X110839560Y-91224095D01*
X110856803Y-91211307D01*
X110875216Y-91200271D01*
X110894622Y-91191092D01*
X110914834Y-91183860D01*
X110935658Y-91178644D01*
X110956893Y-91175494D01*
X110978334Y-91174441D01*
X111415834Y-91174441D01*
X111437275Y-91175494D01*
X111437275Y-91175494D01*
G37*
D16*
G04 #@! TD*
G04 #@! TO.P,C1,1*
G04 #@! TO.N,Net-(C1-Pad1)*
X111197084Y-91649441D03*
D15*
G04 #@! TO.N,GND*
G04 #@! TO.C,C2*
G36*
X109815691Y-92744053D02*
X109836926Y-92747203D01*
X109857750Y-92752419D01*
X109877962Y-92759651D01*
X109897368Y-92768830D01*
X109915781Y-92779866D01*
X109933024Y-92792654D01*
X109948930Y-92807070D01*
X109963346Y-92822976D01*
X109976134Y-92840219D01*
X109987170Y-92858632D01*
X109996349Y-92878038D01*
X110003581Y-92898250D01*
X110008797Y-92919074D01*
X110011947Y-92940309D01*
X110013000Y-92961750D01*
X110013000Y-93474250D01*
X110011947Y-93495691D01*
X110008797Y-93516926D01*
X110003581Y-93537750D01*
X109996349Y-93557962D01*
X109987170Y-93577368D01*
X109976134Y-93595781D01*
X109963346Y-93613024D01*
X109948930Y-93628930D01*
X109933024Y-93643346D01*
X109915781Y-93656134D01*
X109897368Y-93667170D01*
X109877962Y-93676349D01*
X109857750Y-93683581D01*
X109836926Y-93688797D01*
X109815691Y-93691947D01*
X109794250Y-93693000D01*
X109356750Y-93693000D01*
X109335309Y-93691947D01*
X109314074Y-93688797D01*
X109293250Y-93683581D01*
X109273038Y-93676349D01*
X109253632Y-93667170D01*
X109235219Y-93656134D01*
X109217976Y-93643346D01*
X109202070Y-93628930D01*
X109187654Y-93613024D01*
X109174866Y-93595781D01*
X109163830Y-93577368D01*
X109154651Y-93557962D01*
X109147419Y-93537750D01*
X109142203Y-93516926D01*
X109139053Y-93495691D01*
X109138000Y-93474250D01*
X109138000Y-92961750D01*
X109139053Y-92940309D01*
X109142203Y-92919074D01*
X109147419Y-92898250D01*
X109154651Y-92878038D01*
X109163830Y-92858632D01*
X109174866Y-92840219D01*
X109187654Y-92822976D01*
X109202070Y-92807070D01*
X109217976Y-92792654D01*
X109235219Y-92779866D01*
X109253632Y-92768830D01*
X109273038Y-92759651D01*
X109293250Y-92752419D01*
X109314074Y-92747203D01*
X109335309Y-92744053D01*
X109356750Y-92743000D01*
X109794250Y-92743000D01*
X109815691Y-92744053D01*
X109815691Y-92744053D01*
G37*
D16*
G04 #@! TD*
G04 #@! TO.P,C2,1*
G04 #@! TO.N,GND*
X109575500Y-93218000D03*
D15*
G04 #@! TO.N,Net-(C2-Pad2)*
G04 #@! TO.C,C2*
G36*
X111390691Y-92744053D02*
X111411926Y-92747203D01*
X111432750Y-92752419D01*
X111452962Y-92759651D01*
X111472368Y-92768830D01*
X111490781Y-92779866D01*
X111508024Y-92792654D01*
X111523930Y-92807070D01*
X111538346Y-92822976D01*
X111551134Y-92840219D01*
X111562170Y-92858632D01*
X111571349Y-92878038D01*
X111578581Y-92898250D01*
X111583797Y-92919074D01*
X111586947Y-92940309D01*
X111588000Y-92961750D01*
X111588000Y-93474250D01*
X111586947Y-93495691D01*
X111583797Y-93516926D01*
X111578581Y-93537750D01*
X111571349Y-93557962D01*
X111562170Y-93577368D01*
X111551134Y-93595781D01*
X111538346Y-93613024D01*
X111523930Y-93628930D01*
X111508024Y-93643346D01*
X111490781Y-93656134D01*
X111472368Y-93667170D01*
X111452962Y-93676349D01*
X111432750Y-93683581D01*
X111411926Y-93688797D01*
X111390691Y-93691947D01*
X111369250Y-93693000D01*
X110931750Y-93693000D01*
X110910309Y-93691947D01*
X110889074Y-93688797D01*
X110868250Y-93683581D01*
X110848038Y-93676349D01*
X110828632Y-93667170D01*
X110810219Y-93656134D01*
X110792976Y-93643346D01*
X110777070Y-93628930D01*
X110762654Y-93613024D01*
X110749866Y-93595781D01*
X110738830Y-93577368D01*
X110729651Y-93557962D01*
X110722419Y-93537750D01*
X110717203Y-93516926D01*
X110714053Y-93495691D01*
X110713000Y-93474250D01*
X110713000Y-92961750D01*
X110714053Y-92940309D01*
X110717203Y-92919074D01*
X110722419Y-92898250D01*
X110729651Y-92878038D01*
X110738830Y-92858632D01*
X110749866Y-92840219D01*
X110762654Y-92822976D01*
X110777070Y-92807070D01*
X110792976Y-92792654D01*
X110810219Y-92779866D01*
X110828632Y-92768830D01*
X110848038Y-92759651D01*
X110868250Y-92752419D01*
X110889074Y-92747203D01*
X110910309Y-92744053D01*
X110931750Y-92743000D01*
X111369250Y-92743000D01*
X111390691Y-92744053D01*
X111390691Y-92744053D01*
G37*
D16*
G04 #@! TD*
G04 #@! TO.P,C2,2*
G04 #@! TO.N,Net-(C2-Pad2)*
X111150500Y-93218000D03*
D15*
G04 #@! TO.N,+5V*
G04 #@! TO.C,C3*
G36*
X127164191Y-85886053D02*
X127185426Y-85889203D01*
X127206250Y-85894419D01*
X127226462Y-85901651D01*
X127245868Y-85910830D01*
X127264281Y-85921866D01*
X127281524Y-85934654D01*
X127297430Y-85949070D01*
X127311846Y-85964976D01*
X127324634Y-85982219D01*
X127335670Y-86000632D01*
X127344849Y-86020038D01*
X127352081Y-86040250D01*
X127357297Y-86061074D01*
X127360447Y-86082309D01*
X127361500Y-86103750D01*
X127361500Y-86616250D01*
X127360447Y-86637691D01*
X127357297Y-86658926D01*
X127352081Y-86679750D01*
X127344849Y-86699962D01*
X127335670Y-86719368D01*
X127324634Y-86737781D01*
X127311846Y-86755024D01*
X127297430Y-86770930D01*
X127281524Y-86785346D01*
X127264281Y-86798134D01*
X127245868Y-86809170D01*
X127226462Y-86818349D01*
X127206250Y-86825581D01*
X127185426Y-86830797D01*
X127164191Y-86833947D01*
X127142750Y-86835000D01*
X126705250Y-86835000D01*
X126683809Y-86833947D01*
X126662574Y-86830797D01*
X126641750Y-86825581D01*
X126621538Y-86818349D01*
X126602132Y-86809170D01*
X126583719Y-86798134D01*
X126566476Y-86785346D01*
X126550570Y-86770930D01*
X126536154Y-86755024D01*
X126523366Y-86737781D01*
X126512330Y-86719368D01*
X126503151Y-86699962D01*
X126495919Y-86679750D01*
X126490703Y-86658926D01*
X126487553Y-86637691D01*
X126486500Y-86616250D01*
X126486500Y-86103750D01*
X126487553Y-86082309D01*
X126490703Y-86061074D01*
X126495919Y-86040250D01*
X126503151Y-86020038D01*
X126512330Y-86000632D01*
X126523366Y-85982219D01*
X126536154Y-85964976D01*
X126550570Y-85949070D01*
X126566476Y-85934654D01*
X126583719Y-85921866D01*
X126602132Y-85910830D01*
X126621538Y-85901651D01*
X126641750Y-85894419D01*
X126662574Y-85889203D01*
X126683809Y-85886053D01*
X126705250Y-85885000D01*
X127142750Y-85885000D01*
X127164191Y-85886053D01*
X127164191Y-85886053D01*
G37*
D16*
G04 #@! TD*
G04 #@! TO.P,C3,2*
G04 #@! TO.N,+5V*
X126924000Y-86360000D03*
D15*
G04 #@! TO.N,GND*
G04 #@! TO.C,C3*
G36*
X125589191Y-85886053D02*
X125610426Y-85889203D01*
X125631250Y-85894419D01*
X125651462Y-85901651D01*
X125670868Y-85910830D01*
X125689281Y-85921866D01*
X125706524Y-85934654D01*
X125722430Y-85949070D01*
X125736846Y-85964976D01*
X125749634Y-85982219D01*
X125760670Y-86000632D01*
X125769849Y-86020038D01*
X125777081Y-86040250D01*
X125782297Y-86061074D01*
X125785447Y-86082309D01*
X125786500Y-86103750D01*
X125786500Y-86616250D01*
X125785447Y-86637691D01*
X125782297Y-86658926D01*
X125777081Y-86679750D01*
X125769849Y-86699962D01*
X125760670Y-86719368D01*
X125749634Y-86737781D01*
X125736846Y-86755024D01*
X125722430Y-86770930D01*
X125706524Y-86785346D01*
X125689281Y-86798134D01*
X125670868Y-86809170D01*
X125651462Y-86818349D01*
X125631250Y-86825581D01*
X125610426Y-86830797D01*
X125589191Y-86833947D01*
X125567750Y-86835000D01*
X125130250Y-86835000D01*
X125108809Y-86833947D01*
X125087574Y-86830797D01*
X125066750Y-86825581D01*
X125046538Y-86818349D01*
X125027132Y-86809170D01*
X125008719Y-86798134D01*
X124991476Y-86785346D01*
X124975570Y-86770930D01*
X124961154Y-86755024D01*
X124948366Y-86737781D01*
X124937330Y-86719368D01*
X124928151Y-86699962D01*
X124920919Y-86679750D01*
X124915703Y-86658926D01*
X124912553Y-86637691D01*
X124911500Y-86616250D01*
X124911500Y-86103750D01*
X124912553Y-86082309D01*
X124915703Y-86061074D01*
X124920919Y-86040250D01*
X124928151Y-86020038D01*
X124937330Y-86000632D01*
X124948366Y-85982219D01*
X124961154Y-85964976D01*
X124975570Y-85949070D01*
X124991476Y-85934654D01*
X125008719Y-85921866D01*
X125027132Y-85910830D01*
X125046538Y-85901651D01*
X125066750Y-85894419D01*
X125087574Y-85889203D01*
X125108809Y-85886053D01*
X125130250Y-85885000D01*
X125567750Y-85885000D01*
X125589191Y-85886053D01*
X125589191Y-85886053D01*
G37*
D16*
G04 #@! TD*
G04 #@! TO.P,C3,1*
G04 #@! TO.N,GND*
X125349000Y-86360000D03*
D15*
G04 #@! TO.N,GND*
G04 #@! TO.C,C6*
G36*
X109929491Y-83586553D02*
X109950726Y-83589703D01*
X109971550Y-83594919D01*
X109991762Y-83602151D01*
X110011168Y-83611330D01*
X110029581Y-83622366D01*
X110046824Y-83635154D01*
X110062730Y-83649570D01*
X110077146Y-83665476D01*
X110089934Y-83682719D01*
X110100970Y-83701132D01*
X110110149Y-83720538D01*
X110117381Y-83740750D01*
X110122597Y-83761574D01*
X110125747Y-83782809D01*
X110126800Y-83804250D01*
X110126800Y-84241750D01*
X110125747Y-84263191D01*
X110122597Y-84284426D01*
X110117381Y-84305250D01*
X110110149Y-84325462D01*
X110100970Y-84344868D01*
X110089934Y-84363281D01*
X110077146Y-84380524D01*
X110062730Y-84396430D01*
X110046824Y-84410846D01*
X110029581Y-84423634D01*
X110011168Y-84434670D01*
X109991762Y-84443849D01*
X109971550Y-84451081D01*
X109950726Y-84456297D01*
X109929491Y-84459447D01*
X109908050Y-84460500D01*
X109395550Y-84460500D01*
X109374109Y-84459447D01*
X109352874Y-84456297D01*
X109332050Y-84451081D01*
X109311838Y-84443849D01*
X109292432Y-84434670D01*
X109274019Y-84423634D01*
X109256776Y-84410846D01*
X109240870Y-84396430D01*
X109226454Y-84380524D01*
X109213666Y-84363281D01*
X109202630Y-84344868D01*
X109193451Y-84325462D01*
X109186219Y-84305250D01*
X109181003Y-84284426D01*
X109177853Y-84263191D01*
X109176800Y-84241750D01*
X109176800Y-83804250D01*
X109177853Y-83782809D01*
X109181003Y-83761574D01*
X109186219Y-83740750D01*
X109193451Y-83720538D01*
X109202630Y-83701132D01*
X109213666Y-83682719D01*
X109226454Y-83665476D01*
X109240870Y-83649570D01*
X109256776Y-83635154D01*
X109274019Y-83622366D01*
X109292432Y-83611330D01*
X109311838Y-83602151D01*
X109332050Y-83594919D01*
X109352874Y-83589703D01*
X109374109Y-83586553D01*
X109395550Y-83585500D01*
X109908050Y-83585500D01*
X109929491Y-83586553D01*
X109929491Y-83586553D01*
G37*
D16*
G04 #@! TD*
G04 #@! TO.P,C6,1*
G04 #@! TO.N,GND*
X109651800Y-84023000D03*
D15*
G04 #@! TO.N,+5V*
G04 #@! TO.C,C6*
G36*
X109929491Y-85161553D02*
X109950726Y-85164703D01*
X109971550Y-85169919D01*
X109991762Y-85177151D01*
X110011168Y-85186330D01*
X110029581Y-85197366D01*
X110046824Y-85210154D01*
X110062730Y-85224570D01*
X110077146Y-85240476D01*
X110089934Y-85257719D01*
X110100970Y-85276132D01*
X110110149Y-85295538D01*
X110117381Y-85315750D01*
X110122597Y-85336574D01*
X110125747Y-85357809D01*
X110126800Y-85379250D01*
X110126800Y-85816750D01*
X110125747Y-85838191D01*
X110122597Y-85859426D01*
X110117381Y-85880250D01*
X110110149Y-85900462D01*
X110100970Y-85919868D01*
X110089934Y-85938281D01*
X110077146Y-85955524D01*
X110062730Y-85971430D01*
X110046824Y-85985846D01*
X110029581Y-85998634D01*
X110011168Y-86009670D01*
X109991762Y-86018849D01*
X109971550Y-86026081D01*
X109950726Y-86031297D01*
X109929491Y-86034447D01*
X109908050Y-86035500D01*
X109395550Y-86035500D01*
X109374109Y-86034447D01*
X109352874Y-86031297D01*
X109332050Y-86026081D01*
X109311838Y-86018849D01*
X109292432Y-86009670D01*
X109274019Y-85998634D01*
X109256776Y-85985846D01*
X109240870Y-85971430D01*
X109226454Y-85955524D01*
X109213666Y-85938281D01*
X109202630Y-85919868D01*
X109193451Y-85900462D01*
X109186219Y-85880250D01*
X109181003Y-85859426D01*
X109177853Y-85838191D01*
X109176800Y-85816750D01*
X109176800Y-85379250D01*
X109177853Y-85357809D01*
X109181003Y-85336574D01*
X109186219Y-85315750D01*
X109193451Y-85295538D01*
X109202630Y-85276132D01*
X109213666Y-85257719D01*
X109226454Y-85240476D01*
X109240870Y-85224570D01*
X109256776Y-85210154D01*
X109274019Y-85197366D01*
X109292432Y-85186330D01*
X109311838Y-85177151D01*
X109332050Y-85169919D01*
X109352874Y-85164703D01*
X109374109Y-85161553D01*
X109395550Y-85160500D01*
X109908050Y-85160500D01*
X109929491Y-85161553D01*
X109929491Y-85161553D01*
G37*
D16*
G04 #@! TD*
G04 #@! TO.P,C6,2*
G04 #@! TO.N,+5V*
X109651800Y-85598000D03*
D11*
G04 #@! TO.P,C5,1*
G04 #@! TO.N,+12V*
X118516400Y-68351400D03*
D12*
G04 #@! TO.P,C5,2*
G04 #@! TO.N,GND*
X116016400Y-68351400D03*
G04 #@! TD*
D17*
G04 #@! TO.P,J2,1*
G04 #@! TO.N,GND*
X149987000Y-77470000D03*
D18*
G04 #@! TO.P,J2,2*
G04 #@! TO.N,+5VA*
X147447000Y-77470000D03*
G04 #@! TO.P,J2,3*
G04 #@! TO.N,Gy*
X144907000Y-77470000D03*
G04 #@! TD*
G04 #@! TO.P,J4,3*
G04 #@! TO.N,CAM*
X144907000Y-73914000D03*
G04 #@! TO.P,J4,2*
G04 #@! TO.N,+5V*
X147447000Y-73914000D03*
D17*
G04 #@! TO.P,J4,1*
G04 #@! TO.N,GND*
X149987000Y-73914000D03*
G04 #@! TD*
G04 #@! TO.P,J3,1*
G04 #@! TO.N,GND*
X149987000Y-80899000D03*
D18*
G04 #@! TO.P,J3,2*
G04 #@! TO.N,+5VA*
X147447000Y-80899000D03*
G04 #@! TO.P,J3,3*
G04 #@! TO.N,Gx*
X144907000Y-80899000D03*
G04 #@! TD*
D17*
G04 #@! TO.P,J1,1*
G04 #@! TO.N,CAM*
X109905800Y-73787000D03*
D18*
G04 #@! TO.P,J1,2*
G04 #@! TO.N,+12V*
X112445800Y-73787000D03*
G04 #@! TO.P,J1,3*
G04 #@! TO.N,GND*
X109905800Y-76327000D03*
G04 #@! TO.P,J1,4*
X112445800Y-76327000D03*
G04 #@! TO.P,J1,5*
G04 #@! TO.N,CANH*
X109905800Y-78867000D03*
G04 #@! TO.P,J1,6*
G04 #@! TO.N,CANL*
X112445800Y-78867000D03*
G04 #@! TD*
D22*
G04 #@! TO.P,Y1,1*
G04 #@! TO.N,Net-(C1-Pad1)*
X116124684Y-90348241D03*
G04 #@! TO.P,Y1,2*
G04 #@! TO.N,Net-(C2-Pad2)*
X116124684Y-94748241D03*
G04 #@! TD*
D23*
G04 #@! TO.P,U3,1*
G04 #@! TO.N,C_TX*
X111291926Y-87564202D03*
G04 #@! TO.P,U3,2*
G04 #@! TO.N,GND*
X112561926Y-87564202D03*
G04 #@! TO.P,U3,3*
G04 #@! TO.N,+5V*
X113831926Y-87564202D03*
G04 #@! TO.P,U3,4*
G04 #@! TO.N,C_RX*
X115101926Y-87564202D03*
G04 #@! TO.P,U3,5*
G04 #@! TO.N,Net-(R2-Pad2)*
X115101926Y-82164202D03*
G04 #@! TO.P,U3,6*
G04 #@! TO.N,CANL*
X113831926Y-82164202D03*
G04 #@! TO.P,U3,7*
G04 #@! TO.N,CANH*
X112561926Y-82164202D03*
G04 #@! TO.P,U3,8*
G04 #@! TO.N,Net-(R3-Pad1)*
X111291926Y-82164202D03*
G04 #@! TD*
D24*
G04 #@! TO.P,U2,1*
G04 #@! TO.N,C_TX*
X120269000Y-88018000D03*
G04 #@! TO.P,U2,2*
G04 #@! TO.N,C_RX*
X120269000Y-88668000D03*
G04 #@! TO.P,U2,3*
G04 #@! TO.N,Net-(U2-Pad3)*
X120269000Y-89318000D03*
G04 #@! TO.P,U2,4*
G04 #@! TO.N,TX0*
X120269000Y-89968000D03*
G04 #@! TO.P,U2,5*
G04 #@! TO.N,TX1*
X120269000Y-90618000D03*
G04 #@! TO.P,U2,6*
G04 #@! TO.N,Net-(U2-Pad6)*
X120269000Y-91268000D03*
G04 #@! TO.P,U2,7*
G04 #@! TO.N,TX2*
X120269000Y-91918000D03*
G04 #@! TO.P,U2,8*
G04 #@! TO.N,Net-(C1-Pad1)*
X120269000Y-92568000D03*
G04 #@! TO.P,U2,9*
G04 #@! TO.N,Net-(C2-Pad2)*
X120269000Y-93218000D03*
G04 #@! TO.P,U2,10*
G04 #@! TO.N,GND*
X120269000Y-93868000D03*
G04 #@! TO.P,U2,11*
G04 #@! TO.N,RX1*
X126169000Y-93868000D03*
G04 #@! TO.P,U2,12*
G04 #@! TO.N,RX0*
X126169000Y-93218000D03*
G04 #@! TO.P,U2,13*
G04 #@! TO.N,INT*
X126169000Y-92568000D03*
G04 #@! TO.P,U2,14*
G04 #@! TO.N,SCK*
X126169000Y-91918000D03*
G04 #@! TO.P,U2,15*
G04 #@! TO.N,Net-(U2-Pad15)*
X126169000Y-91268000D03*
G04 #@! TO.P,U2,16*
G04 #@! TO.N,MOSI*
X126169000Y-90618000D03*
G04 #@! TO.P,U2,17*
G04 #@! TO.N,MISO*
X126169000Y-89968000D03*
G04 #@! TO.P,U2,18*
G04 #@! TO.N,GND*
X126169000Y-89318000D03*
G04 #@! TO.P,U2,19*
G04 #@! TO.N,Reset*
X126169000Y-88668000D03*
G04 #@! TO.P,U2,20*
G04 #@! TO.N,+5V*
X126169000Y-88018000D03*
G04 #@! TD*
D25*
G04 #@! TO.P,U1,1*
G04 #@! TO.N,+12V*
X134747000Y-67296000D03*
G04 #@! TO.P,U1,3*
G04 #@! TO.N,+5VA*
X134747000Y-71896000D03*
G04 #@! TO.P,U1,2*
G04 #@! TO.N,GND*
X134747000Y-69596000D03*
D26*
G04 #@! TO.P,U1,4*
G04 #@! TO.N,N/C*
X141047000Y-69596000D03*
G04 #@! TD*
G04 #@! TO.P,U4,4*
G04 #@! TO.N,N/C*
X129921000Y-69596000D03*
D25*
G04 #@! TO.P,U4,2*
G04 #@! TO.N,GND*
X123621000Y-69596000D03*
G04 #@! TO.P,U4,3*
G04 #@! TO.N,+5V*
X123621000Y-71896000D03*
G04 #@! TO.P,U4,1*
G04 #@! TO.N,+12V*
X123621000Y-67296000D03*
G04 #@! TD*
D15*
G04 #@! TO.N,GND*
G04 #@! TO.C,R3*
G36*
X118756691Y-84362053D02*
X118777926Y-84365203D01*
X118798750Y-84370419D01*
X118818962Y-84377651D01*
X118838368Y-84386830D01*
X118856781Y-84397866D01*
X118874024Y-84410654D01*
X118889930Y-84425070D01*
X118904346Y-84440976D01*
X118917134Y-84458219D01*
X118928170Y-84476632D01*
X118937349Y-84496038D01*
X118944581Y-84516250D01*
X118949797Y-84537074D01*
X118952947Y-84558309D01*
X118954000Y-84579750D01*
X118954000Y-85092250D01*
X118952947Y-85113691D01*
X118949797Y-85134926D01*
X118944581Y-85155750D01*
X118937349Y-85175962D01*
X118928170Y-85195368D01*
X118917134Y-85213781D01*
X118904346Y-85231024D01*
X118889930Y-85246930D01*
X118874024Y-85261346D01*
X118856781Y-85274134D01*
X118838368Y-85285170D01*
X118818962Y-85294349D01*
X118798750Y-85301581D01*
X118777926Y-85306797D01*
X118756691Y-85309947D01*
X118735250Y-85311000D01*
X118297750Y-85311000D01*
X118276309Y-85309947D01*
X118255074Y-85306797D01*
X118234250Y-85301581D01*
X118214038Y-85294349D01*
X118194632Y-85285170D01*
X118176219Y-85274134D01*
X118158976Y-85261346D01*
X118143070Y-85246930D01*
X118128654Y-85231024D01*
X118115866Y-85213781D01*
X118104830Y-85195368D01*
X118095651Y-85175962D01*
X118088419Y-85155750D01*
X118083203Y-85134926D01*
X118080053Y-85113691D01*
X118079000Y-85092250D01*
X118079000Y-84579750D01*
X118080053Y-84558309D01*
X118083203Y-84537074D01*
X118088419Y-84516250D01*
X118095651Y-84496038D01*
X118104830Y-84476632D01*
X118115866Y-84458219D01*
X118128654Y-84440976D01*
X118143070Y-84425070D01*
X118158976Y-84410654D01*
X118176219Y-84397866D01*
X118194632Y-84386830D01*
X118214038Y-84377651D01*
X118234250Y-84370419D01*
X118255074Y-84365203D01*
X118276309Y-84362053D01*
X118297750Y-84361000D01*
X118735250Y-84361000D01*
X118756691Y-84362053D01*
X118756691Y-84362053D01*
G37*
D16*
G04 #@! TD*
G04 #@! TO.P,R3,2*
G04 #@! TO.N,GND*
X118516500Y-84836000D03*
D15*
G04 #@! TO.N,Net-(R3-Pad1)*
G04 #@! TO.C,R3*
G36*
X117181691Y-84362053D02*
X117202926Y-84365203D01*
X117223750Y-84370419D01*
X117243962Y-84377651D01*
X117263368Y-84386830D01*
X117281781Y-84397866D01*
X117299024Y-84410654D01*
X117314930Y-84425070D01*
X117329346Y-84440976D01*
X117342134Y-84458219D01*
X117353170Y-84476632D01*
X117362349Y-84496038D01*
X117369581Y-84516250D01*
X117374797Y-84537074D01*
X117377947Y-84558309D01*
X117379000Y-84579750D01*
X117379000Y-85092250D01*
X117377947Y-85113691D01*
X117374797Y-85134926D01*
X117369581Y-85155750D01*
X117362349Y-85175962D01*
X117353170Y-85195368D01*
X117342134Y-85213781D01*
X117329346Y-85231024D01*
X117314930Y-85246930D01*
X117299024Y-85261346D01*
X117281781Y-85274134D01*
X117263368Y-85285170D01*
X117243962Y-85294349D01*
X117223750Y-85301581D01*
X117202926Y-85306797D01*
X117181691Y-85309947D01*
X117160250Y-85311000D01*
X116722750Y-85311000D01*
X116701309Y-85309947D01*
X116680074Y-85306797D01*
X116659250Y-85301581D01*
X116639038Y-85294349D01*
X116619632Y-85285170D01*
X116601219Y-85274134D01*
X116583976Y-85261346D01*
X116568070Y-85246930D01*
X116553654Y-85231024D01*
X116540866Y-85213781D01*
X116529830Y-85195368D01*
X116520651Y-85175962D01*
X116513419Y-85155750D01*
X116508203Y-85134926D01*
X116505053Y-85113691D01*
X116504000Y-85092250D01*
X116504000Y-84579750D01*
X116505053Y-84558309D01*
X116508203Y-84537074D01*
X116513419Y-84516250D01*
X116520651Y-84496038D01*
X116529830Y-84476632D01*
X116540866Y-84458219D01*
X116553654Y-84440976D01*
X116568070Y-84425070D01*
X116583976Y-84410654D01*
X116601219Y-84397866D01*
X116619632Y-84386830D01*
X116639038Y-84377651D01*
X116659250Y-84370419D01*
X116680074Y-84365203D01*
X116701309Y-84362053D01*
X116722750Y-84361000D01*
X117160250Y-84361000D01*
X117181691Y-84362053D01*
X117181691Y-84362053D01*
G37*
D16*
G04 #@! TD*
G04 #@! TO.P,R3,1*
G04 #@! TO.N,Net-(R3-Pad1)*
X116941500Y-84836000D03*
D15*
G04 #@! TO.N,Net-(C1-Pad1)*
G04 #@! TO.C,R1*
G36*
X113201975Y-91212894D02*
X113223210Y-91216044D01*
X113244034Y-91221260D01*
X113264246Y-91228492D01*
X113283652Y-91237671D01*
X113302065Y-91248707D01*
X113319308Y-91261495D01*
X113335214Y-91275911D01*
X113349630Y-91291817D01*
X113362418Y-91309060D01*
X113373454Y-91327473D01*
X113382633Y-91346879D01*
X113389865Y-91367091D01*
X113395081Y-91387915D01*
X113398231Y-91409150D01*
X113399284Y-91430591D01*
X113399284Y-91868091D01*
X113398231Y-91889532D01*
X113395081Y-91910767D01*
X113389865Y-91931591D01*
X113382633Y-91951803D01*
X113373454Y-91971209D01*
X113362418Y-91989622D01*
X113349630Y-92006865D01*
X113335214Y-92022771D01*
X113319308Y-92037187D01*
X113302065Y-92049975D01*
X113283652Y-92061011D01*
X113264246Y-92070190D01*
X113244034Y-92077422D01*
X113223210Y-92082638D01*
X113201975Y-92085788D01*
X113180534Y-92086841D01*
X112668034Y-92086841D01*
X112646593Y-92085788D01*
X112625358Y-92082638D01*
X112604534Y-92077422D01*
X112584322Y-92070190D01*
X112564916Y-92061011D01*
X112546503Y-92049975D01*
X112529260Y-92037187D01*
X112513354Y-92022771D01*
X112498938Y-92006865D01*
X112486150Y-91989622D01*
X112475114Y-91971209D01*
X112465935Y-91951803D01*
X112458703Y-91931591D01*
X112453487Y-91910767D01*
X112450337Y-91889532D01*
X112449284Y-91868091D01*
X112449284Y-91430591D01*
X112450337Y-91409150D01*
X112453487Y-91387915D01*
X112458703Y-91367091D01*
X112465935Y-91346879D01*
X112475114Y-91327473D01*
X112486150Y-91309060D01*
X112498938Y-91291817D01*
X112513354Y-91275911D01*
X112529260Y-91261495D01*
X112546503Y-91248707D01*
X112564916Y-91237671D01*
X112584322Y-91228492D01*
X112604534Y-91221260D01*
X112625358Y-91216044D01*
X112646593Y-91212894D01*
X112668034Y-91211841D01*
X113180534Y-91211841D01*
X113201975Y-91212894D01*
X113201975Y-91212894D01*
G37*
D16*
G04 #@! TD*
G04 #@! TO.P,R1,2*
G04 #@! TO.N,Net-(C1-Pad1)*
X112924284Y-91649341D03*
D15*
G04 #@! TO.N,Net-(C2-Pad2)*
G04 #@! TO.C,R1*
G36*
X113201975Y-92787894D02*
X113223210Y-92791044D01*
X113244034Y-92796260D01*
X113264246Y-92803492D01*
X113283652Y-92812671D01*
X113302065Y-92823707D01*
X113319308Y-92836495D01*
X113335214Y-92850911D01*
X113349630Y-92866817D01*
X113362418Y-92884060D01*
X113373454Y-92902473D01*
X113382633Y-92921879D01*
X113389865Y-92942091D01*
X113395081Y-92962915D01*
X113398231Y-92984150D01*
X113399284Y-93005591D01*
X113399284Y-93443091D01*
X113398231Y-93464532D01*
X113395081Y-93485767D01*
X113389865Y-93506591D01*
X113382633Y-93526803D01*
X113373454Y-93546209D01*
X113362418Y-93564622D01*
X113349630Y-93581865D01*
X113335214Y-93597771D01*
X113319308Y-93612187D01*
X113302065Y-93624975D01*
X113283652Y-93636011D01*
X113264246Y-93645190D01*
X113244034Y-93652422D01*
X113223210Y-93657638D01*
X113201975Y-93660788D01*
X113180534Y-93661841D01*
X112668034Y-93661841D01*
X112646593Y-93660788D01*
X112625358Y-93657638D01*
X112604534Y-93652422D01*
X112584322Y-93645190D01*
X112564916Y-93636011D01*
X112546503Y-93624975D01*
X112529260Y-93612187D01*
X112513354Y-93597771D01*
X112498938Y-93581865D01*
X112486150Y-93564622D01*
X112475114Y-93546209D01*
X112465935Y-93526803D01*
X112458703Y-93506591D01*
X112453487Y-93485767D01*
X112450337Y-93464532D01*
X112449284Y-93443091D01*
X112449284Y-93005591D01*
X112450337Y-92984150D01*
X112453487Y-92962915D01*
X112458703Y-92942091D01*
X112465935Y-92921879D01*
X112475114Y-92902473D01*
X112486150Y-92884060D01*
X112498938Y-92866817D01*
X112513354Y-92850911D01*
X112529260Y-92836495D01*
X112546503Y-92823707D01*
X112564916Y-92812671D01*
X112584322Y-92803492D01*
X112604534Y-92796260D01*
X112625358Y-92791044D01*
X112646593Y-92787894D01*
X112668034Y-92786841D01*
X113180534Y-92786841D01*
X113201975Y-92787894D01*
X113201975Y-92787894D01*
G37*
D16*
G04 #@! TD*
G04 #@! TO.P,R1,1*
G04 #@! TO.N,Net-(C2-Pad2)*
X112924284Y-93224341D03*
D15*
G04 #@! TO.N,+5V*
G04 #@! TO.C,R2*
G36*
X117244691Y-82875553D02*
X117265926Y-82878703D01*
X117286750Y-82883919D01*
X117306962Y-82891151D01*
X117326368Y-82900330D01*
X117344781Y-82911366D01*
X117362024Y-82924154D01*
X117377930Y-82938570D01*
X117392346Y-82954476D01*
X117405134Y-82971719D01*
X117416170Y-82990132D01*
X117425349Y-83009538D01*
X117432581Y-83029750D01*
X117437797Y-83050574D01*
X117440947Y-83071809D01*
X117442000Y-83093250D01*
X117442000Y-83530750D01*
X117440947Y-83552191D01*
X117437797Y-83573426D01*
X117432581Y-83594250D01*
X117425349Y-83614462D01*
X117416170Y-83633868D01*
X117405134Y-83652281D01*
X117392346Y-83669524D01*
X117377930Y-83685430D01*
X117362024Y-83699846D01*
X117344781Y-83712634D01*
X117326368Y-83723670D01*
X117306962Y-83732849D01*
X117286750Y-83740081D01*
X117265926Y-83745297D01*
X117244691Y-83748447D01*
X117223250Y-83749500D01*
X116710750Y-83749500D01*
X116689309Y-83748447D01*
X116668074Y-83745297D01*
X116647250Y-83740081D01*
X116627038Y-83732849D01*
X116607632Y-83723670D01*
X116589219Y-83712634D01*
X116571976Y-83699846D01*
X116556070Y-83685430D01*
X116541654Y-83669524D01*
X116528866Y-83652281D01*
X116517830Y-83633868D01*
X116508651Y-83614462D01*
X116501419Y-83594250D01*
X116496203Y-83573426D01*
X116493053Y-83552191D01*
X116492000Y-83530750D01*
X116492000Y-83093250D01*
X116493053Y-83071809D01*
X116496203Y-83050574D01*
X116501419Y-83029750D01*
X116508651Y-83009538D01*
X116517830Y-82990132D01*
X116528866Y-82971719D01*
X116541654Y-82954476D01*
X116556070Y-82938570D01*
X116571976Y-82924154D01*
X116589219Y-82911366D01*
X116607632Y-82900330D01*
X116627038Y-82891151D01*
X116647250Y-82883919D01*
X116668074Y-82878703D01*
X116689309Y-82875553D01*
X116710750Y-82874500D01*
X117223250Y-82874500D01*
X117244691Y-82875553D01*
X117244691Y-82875553D01*
G37*
D16*
G04 #@! TD*
G04 #@! TO.P,R2,1*
G04 #@! TO.N,+5V*
X116967000Y-83312000D03*
D15*
G04 #@! TO.N,Net-(R2-Pad2)*
G04 #@! TO.C,R2*
G36*
X117244691Y-81300553D02*
X117265926Y-81303703D01*
X117286750Y-81308919D01*
X117306962Y-81316151D01*
X117326368Y-81325330D01*
X117344781Y-81336366D01*
X117362024Y-81349154D01*
X117377930Y-81363570D01*
X117392346Y-81379476D01*
X117405134Y-81396719D01*
X117416170Y-81415132D01*
X117425349Y-81434538D01*
X117432581Y-81454750D01*
X117437797Y-81475574D01*
X117440947Y-81496809D01*
X117442000Y-81518250D01*
X117442000Y-81955750D01*
X117440947Y-81977191D01*
X117437797Y-81998426D01*
X117432581Y-82019250D01*
X117425349Y-82039462D01*
X117416170Y-82058868D01*
X117405134Y-82077281D01*
X117392346Y-82094524D01*
X117377930Y-82110430D01*
X117362024Y-82124846D01*
X117344781Y-82137634D01*
X117326368Y-82148670D01*
X117306962Y-82157849D01*
X117286750Y-82165081D01*
X117265926Y-82170297D01*
X117244691Y-82173447D01*
X117223250Y-82174500D01*
X116710750Y-82174500D01*
X116689309Y-82173447D01*
X116668074Y-82170297D01*
X116647250Y-82165081D01*
X116627038Y-82157849D01*
X116607632Y-82148670D01*
X116589219Y-82137634D01*
X116571976Y-82124846D01*
X116556070Y-82110430D01*
X116541654Y-82094524D01*
X116528866Y-82077281D01*
X116517830Y-82058868D01*
X116508651Y-82039462D01*
X116501419Y-82019250D01*
X116496203Y-81998426D01*
X116493053Y-81977191D01*
X116492000Y-81955750D01*
X116492000Y-81518250D01*
X116493053Y-81496809D01*
X116496203Y-81475574D01*
X116501419Y-81454750D01*
X116508651Y-81434538D01*
X116517830Y-81415132D01*
X116528866Y-81396719D01*
X116541654Y-81379476D01*
X116556070Y-81363570D01*
X116571976Y-81349154D01*
X116589219Y-81336366D01*
X116607632Y-81325330D01*
X116627038Y-81316151D01*
X116647250Y-81308919D01*
X116668074Y-81303703D01*
X116689309Y-81300553D01*
X116710750Y-81299500D01*
X117223250Y-81299500D01*
X117244691Y-81300553D01*
X117244691Y-81300553D01*
G37*
D16*
G04 #@! TD*
G04 #@! TO.P,R2,2*
G04 #@! TO.N,Net-(R2-Pad2)*
X116967000Y-81737000D03*
D27*
G04 #@! TO.N,+5V*
X125857000Y-71882000D03*
X123698014Y-74930000D03*
X128778000Y-74930000D03*
X128270000Y-84918000D03*
X109728000Y-87122000D03*
X113792000Y-89408000D03*
X118364000Y-83312000D03*
G04 #@! TO.N,GND*
X108966000Y-66294000D03*
X151130000Y-66294000D03*
X151130000Y-100584000D03*
X108966000Y-100584000D03*
X108966000Y-89408000D03*
X111506000Y-89662000D03*
X125984000Y-100584000D03*
X119126000Y-100584000D03*
X139446000Y-77470000D03*
X133858000Y-75184000D03*
X133858000Y-82296000D03*
X135890000Y-82804000D03*
X137160000Y-67564000D03*
X138176000Y-73660000D03*
X132334000Y-69088000D03*
X146558000Y-66294000D03*
X151130000Y-70612000D03*
X130810000Y-73660000D03*
X130810000Y-81026000D03*
X135382000Y-91186000D03*
X108966000Y-81026000D03*
X115824000Y-80264000D03*
X121158000Y-81534000D03*
X126238000Y-80264000D03*
X108966000Y-71120000D03*
X113030000Y-66294000D03*
X108712000Y-96520000D03*
X113538000Y-100584000D03*
X146558000Y-100584000D03*
X151130000Y-96266000D03*
X139954000Y-82296000D03*
X139954000Y-86106000D03*
X127000000Y-69596000D03*
X120396000Y-71374000D03*
X138684000Y-67564000D03*
X137922000Y-68580000D03*
X140208000Y-73660000D03*
X109982000Y-81026000D03*
X118872000Y-86614000D03*
X122174000Y-88646000D03*
X121920000Y-86614000D03*
X136398000Y-91084400D03*
X124561600Y-87833200D03*
X124612400Y-89230200D03*
X127736600Y-89154000D03*
G04 #@! TO.N,TX0*
X134874000Y-92964000D03*
X124460000Y-92710000D03*
G04 #@! TO.N,TX1*
X134182000Y-93796000D03*
X124714000Y-93980000D03*
G04 #@! TO.N,TX2*
X124968000Y-94996008D03*
X132334000Y-96774000D03*
G04 #@! TO.N,RX1*
X126169000Y-94673000D03*
X131572000Y-95504000D03*
G04 #@! TO.N,RX0*
X128524000Y-94488000D03*
X135890000Y-93726000D03*
G04 #@! TO.N,INT*
X141224000Y-93980000D03*
X128800264Y-92295560D03*
G04 #@! TO.N,SCK*
X133096000Y-91186000D03*
X128858338Y-91297235D03*
G04 #@! TO.N,MOSI*
X134620000Y-90170000D03*
X127993355Y-90795410D03*
G04 #@! TO.N,MISO*
X133604000Y-89408000D03*
X124485400Y-90982800D03*
G04 #@! TO.N,Gx*
X138176000Y-81026004D03*
G04 #@! TO.N,Gy*
X137414000Y-79756000D03*
G04 #@! TO.N,RESET*
X136652000Y-88646000D03*
X137922000Y-92964000D03*
X135128000Y-98298000D03*
X144018000Y-95758000D03*
X135026400Y-83921600D03*
G04 #@! TO.N,V_MCU*
X129540000Y-88900000D03*
X138327199Y-89980159D03*
X143764000Y-70612000D03*
X132334000Y-70866000D03*
G04 #@! TO.N,VPP*
X130810000Y-83058000D03*
X123444000Y-83820000D03*
X123444000Y-88976200D03*
G04 #@! TD*
D28*
G04 #@! TO.N,+5V*
X123621000Y-72023000D02*
X123371000Y-72023000D01*
D29*
X125843000Y-71896000D02*
X125857000Y-71882000D01*
X123621000Y-71896000D02*
X125843000Y-71896000D01*
D28*
X123621000Y-74852986D02*
X123698014Y-74930000D01*
X123621000Y-71896000D02*
X123621000Y-74852986D01*
X128270000Y-87757000D02*
X128270000Y-87219500D01*
X128844000Y-84344000D02*
X128270000Y-84918000D01*
X126924000Y-86360000D02*
X128270000Y-86360000D01*
X128270000Y-84918000D02*
X128270000Y-86360000D01*
X128270000Y-86360000D02*
X128270000Y-87757000D01*
X128844000Y-74996000D02*
X128778000Y-74930000D01*
X128844000Y-84344000D02*
X128844000Y-74996000D01*
D29*
X109651800Y-85598000D02*
X109651800Y-87045800D01*
X109651800Y-87045800D02*
X109728000Y-87122000D01*
X113831926Y-87564202D02*
X113831926Y-89368074D01*
X113831926Y-89368074D02*
X113792000Y-89408000D01*
X116967000Y-83312000D02*
X118364000Y-83312000D01*
D30*
X126169000Y-88018000D02*
X127882000Y-88018000D01*
D31*
X127882000Y-88018000D02*
X128270000Y-87630000D01*
G04 #@! TO.N,Net-(R2-Pad2)*
X115706726Y-82164202D02*
X116082928Y-81788000D01*
X115101926Y-82164202D02*
X115706726Y-82164202D01*
X116082928Y-81788000D02*
X116967000Y-81788000D01*
G04 #@! TO.N,Net-(C1-Pad1)*
X112858441Y-91649441D02*
X112903000Y-91694000D01*
X111197084Y-91649441D02*
X112858441Y-91649441D01*
X117104643Y-92583000D02*
X120269000Y-92583000D01*
X112924284Y-91649341D02*
X116170984Y-91649341D01*
X116124684Y-91603041D02*
X116332000Y-91810357D01*
X116124684Y-90348241D02*
X116124684Y-91603041D01*
X116170984Y-91649341D02*
X116332000Y-91810357D01*
X116332000Y-91810357D02*
X117104643Y-92583000D01*
G04 #@! TO.N,Net-(C2-Pad2)*
X111150500Y-93218000D02*
X111688000Y-93218000D01*
X111688000Y-93218000D02*
X112903000Y-93218000D01*
X120269000Y-93218000D02*
X120262659Y-93224341D01*
X116205000Y-93224341D02*
X116205000Y-94615000D01*
X116205000Y-93224341D02*
X112924284Y-93224341D01*
X120262659Y-93224341D02*
X116205000Y-93224341D01*
X116205000Y-94615000D02*
X116078000Y-94742000D01*
D28*
G04 #@! TO.N,GND*
X109905800Y-76327000D02*
X112395000Y-76327000D01*
D31*
X139632000Y-92259000D02*
X141027000Y-92259000D01*
X141027000Y-92259000D02*
X141732000Y-92964000D01*
X141732000Y-92964000D02*
X143510000Y-92964000D01*
D30*
X132236800Y-91459000D02*
X132979800Y-92202000D01*
X131132000Y-91459000D02*
X132236800Y-91459000D01*
D31*
X132979800Y-92202000D02*
X134112000Y-92202000D01*
X134112000Y-92202000D02*
X134874000Y-91440000D01*
X120269000Y-94397800D02*
X120142000Y-94524800D01*
X120269000Y-93868000D02*
X120269000Y-94397800D01*
X120142000Y-94524800D02*
X120142000Y-96012000D01*
X140989000Y-90659000D02*
X141224000Y-90424000D01*
X139632000Y-90659000D02*
X140989000Y-90659000D01*
X141224000Y-90424000D02*
X144018000Y-90424000D01*
X141224000Y-90424000D02*
X144780000Y-90424000D01*
D28*
X134747000Y-69596000D02*
X137017000Y-69596000D01*
X137017000Y-69596000D02*
X137922000Y-69596000D01*
X123621000Y-69596000D02*
X125891000Y-69596000D01*
X125891000Y-69596000D02*
X126746000Y-69596000D01*
X121351000Y-69596000D02*
X119888000Y-71059000D01*
X123621000Y-69596000D02*
X121351000Y-69596000D01*
X112395000Y-76327000D02*
X112522000Y-76200000D01*
D30*
X126169000Y-89318000D02*
X124575400Y-89318000D01*
X124575400Y-89318000D02*
X123494800Y-90398600D01*
D32*
X126169000Y-89318000D02*
X127242400Y-89318000D01*
X127242400Y-89318000D02*
X127660400Y-88900000D01*
D31*
G04 #@! TO.N,Net-(R3-Pad1)*
X111291926Y-83244002D02*
X112883924Y-84836000D01*
X111291926Y-82164202D02*
X111291926Y-83244002D01*
X112883924Y-84836000D02*
X116840000Y-84836000D01*
D28*
G04 #@! TO.N,+12V*
X118451000Y-69457370D02*
X114121370Y-73787000D01*
X118451000Y-68326000D02*
X118451000Y-69457370D01*
X114121370Y-73787000D02*
X112395000Y-73787000D01*
X120448000Y-68326000D02*
X118364000Y-68326000D01*
X123621000Y-67296000D02*
X121478000Y-67296000D01*
X121478000Y-67296000D02*
X120448000Y-68326000D01*
X126326001Y-66860999D02*
X134297999Y-66860999D01*
X123621000Y-67296000D02*
X125891000Y-67296000D01*
X125891000Y-67296000D02*
X126326001Y-66860999D01*
X134297999Y-66860999D02*
X134747000Y-67310000D01*
G04 #@! TO.N,+5VA*
X147447000Y-80899000D02*
X147447000Y-77470000D01*
X134747000Y-73152000D02*
X134747000Y-71896000D01*
X137261600Y-75666600D02*
X134747000Y-73152000D01*
X147447000Y-77470000D02*
X147447000Y-76267919D01*
X147447000Y-76267919D02*
X146845681Y-75666600D01*
X146845681Y-75666600D02*
X137261600Y-75666600D01*
X137287000Y-75692000D02*
X137261600Y-75666600D01*
X137287000Y-77597000D02*
X137287000Y-75692000D01*
D31*
G04 #@! TO.N,C_TX*
X111252000Y-86741000D02*
X111252000Y-87630000D01*
X111887000Y-86106000D02*
X111252000Y-86741000D01*
X116928756Y-86106000D02*
X111887000Y-86106000D01*
X120269000Y-88018000D02*
X118840756Y-88018000D01*
X118840756Y-88018000D02*
X116928756Y-86106000D01*
G04 #@! TO.N,C_RX*
X115062000Y-88265000D02*
X115062000Y-87503000D01*
X120269000Y-88668000D02*
X115465000Y-88668000D01*
X115465000Y-88668000D02*
X115062000Y-88265000D01*
G04 #@! TO.N,TX0*
X134982000Y-93072000D02*
X134874000Y-92964000D01*
X134982000Y-95309000D02*
X134982000Y-93072000D01*
X124060001Y-92310001D02*
X124460000Y-92710000D01*
X120269000Y-89968000D02*
X121718000Y-89968000D01*
X121718000Y-89968000D02*
X124060001Y-92310001D01*
G04 #@! TO.N,TX1*
X134182000Y-95309000D02*
X134182000Y-93796000D01*
X121298800Y-90618000D02*
X124660800Y-93980000D01*
X120269000Y-90618000D02*
X121298800Y-90618000D01*
X124660800Y-93980000D02*
X124714000Y-93980000D01*
G04 #@! TO.N,TX2*
X121382000Y-91918000D02*
X124460008Y-94996008D01*
X124460008Y-94996008D02*
X124968000Y-94996008D01*
X120269000Y-91918000D02*
X121382000Y-91918000D01*
X132899685Y-96774000D02*
X132334000Y-96774000D01*
X133021800Y-96774000D02*
X132899685Y-96774000D01*
X133382000Y-96413800D02*
X133021800Y-96774000D01*
X133382000Y-95309000D02*
X133382000Y-96413800D01*
G04 #@! TO.N,RX1*
X126169000Y-93868000D02*
X126350000Y-93868000D01*
X126169000Y-93868000D02*
X126169000Y-94673000D01*
X131767000Y-95309000D02*
X131572000Y-95504000D01*
X132582000Y-95309000D02*
X131767000Y-95309000D01*
G04 #@! TO.N,RX0*
X136455685Y-93726000D02*
X135890000Y-93726000D01*
X138176000Y-95504000D02*
X138176000Y-94430315D01*
X137471685Y-93726000D02*
X136455685Y-93726000D01*
X138176000Y-94430315D02*
X137471685Y-93726000D01*
X127037302Y-93218001D02*
X127907302Y-94088001D01*
X127907302Y-94088001D02*
X128124001Y-94088001D01*
X126169000Y-93218000D02*
X127037302Y-93218001D01*
X128124001Y-94088001D02*
X128524000Y-94488000D01*
G04 #@! TO.N,INT*
X141103000Y-93859000D02*
X141224000Y-93980000D01*
X139632000Y-93859000D02*
X141103000Y-93859000D01*
X127497211Y-92964000D02*
X128131824Y-92964000D01*
X128131824Y-92964000D02*
X128400265Y-92695559D01*
X127101211Y-92568000D02*
X127497211Y-92964000D01*
X128400265Y-92695559D02*
X128800264Y-92295560D01*
X126169000Y-92568000D02*
X127101211Y-92568000D01*
G04 #@! TO.N,SCK*
X132696001Y-88718201D02*
X132236800Y-88259000D01*
X132236800Y-88259000D02*
X131132000Y-88259000D01*
X132696001Y-90786001D02*
X132696001Y-88718201D01*
X133096000Y-91186000D02*
X132696001Y-90786001D01*
X126169000Y-91918000D02*
X128096800Y-91918000D01*
X128717565Y-91297235D02*
X128858338Y-91297235D01*
X128096800Y-91918000D02*
X128717565Y-91297235D01*
G04 #@! TO.N,MOSI*
X133382000Y-86809000D02*
X133382000Y-87913800D01*
X133382000Y-87913800D02*
X134620000Y-89151800D01*
X134620000Y-89151800D02*
X134620000Y-89604315D01*
X134620000Y-89604315D02*
X134620000Y-90170000D01*
D32*
X133382000Y-85759000D02*
X133096000Y-85473000D01*
X133382000Y-86809000D02*
X133382000Y-85759000D01*
X133096000Y-85473000D02*
X133096000Y-85115400D01*
D31*
X126169000Y-90618000D02*
X127815945Y-90618000D01*
X127815945Y-90618000D02*
X127993355Y-90795410D01*
G04 #@! TO.N,MISO*
X132582000Y-87890291D02*
X133337709Y-88646000D01*
X132582000Y-86809000D02*
X132582000Y-87890291D01*
X133337709Y-88646000D02*
X133337709Y-89141709D01*
X133337709Y-89141709D02*
X133604000Y-89408000D01*
X124485400Y-90621800D02*
X124485400Y-90982800D01*
X126169000Y-89968000D02*
X125139200Y-89968000D01*
X125139200Y-89968000D02*
X124485400Y-90621800D01*
D32*
X131974306Y-87096600D02*
X132279106Y-86791800D01*
X131267200Y-87096600D02*
X131974306Y-87096600D01*
X132279106Y-86791800D02*
X132537200Y-86791800D01*
D31*
G04 #@! TO.N,CANL*
X113831926Y-81084402D02*
X112522000Y-79774476D01*
X113831926Y-82164202D02*
X113831926Y-81084402D01*
X112522000Y-79774476D02*
X112522000Y-78994000D01*
X112522000Y-78994000D02*
X112395000Y-78867000D01*
G04 #@! TO.N,CANH*
X112561926Y-81084402D02*
X110344524Y-78867000D01*
X112561926Y-82164202D02*
X112561926Y-81084402D01*
X110344524Y-78867000D02*
X109855000Y-78867000D01*
G04 #@! TO.N,Gx*
X138182000Y-81032004D02*
X138176000Y-81026004D01*
X138182000Y-86809000D02*
X138182000Y-81032004D01*
G04 #@! TO.N,Gy*
X137382000Y-86809000D02*
X137382000Y-79788000D01*
X137382000Y-79788000D02*
X137414000Y-79756000D01*
G04 #@! TO.N,CAM*
X111252000Y-72390000D02*
X109728000Y-73914000D01*
X114121322Y-72390000D02*
X111252000Y-72390000D01*
X117219601Y-69291721D02*
X114121322Y-72390000D01*
X109728000Y-73914000D02*
X109982000Y-73914000D01*
X143002000Y-72009000D02*
X143002000Y-67056000D01*
X144907000Y-73914000D02*
X143002000Y-72009000D01*
X143002000Y-67056000D02*
X141819589Y-65873589D01*
X141819589Y-65873589D02*
X118530411Y-65873589D01*
X118530411Y-65873589D02*
X117219601Y-67184399D01*
X117219601Y-67184399D02*
X117219601Y-69291721D01*
G04 #@! TO.N,RESET*
X135782000Y-97644000D02*
X134834999Y-98591001D01*
X135782000Y-95309000D02*
X135782000Y-97644000D01*
X134834999Y-98591001D02*
X133985000Y-99441000D01*
X150368000Y-87226000D02*
X150368000Y-93726000D01*
X137414000Y-92456000D02*
X137922000Y-92964000D01*
X136652000Y-88646000D02*
X137414000Y-89408000D01*
X137414000Y-89408000D02*
X137414000Y-92456000D01*
D32*
X144018000Y-95758000D02*
X144018000Y-97104200D01*
D31*
X133934200Y-83947000D02*
X133959600Y-83921600D01*
X133959600Y-83921600D02*
X134460715Y-83921600D01*
X134460715Y-83921600D02*
X135026400Y-83921600D01*
D29*
G04 #@! TO.N,V_MCU*
X141859000Y-91440000D02*
X139700000Y-91440000D01*
X139700000Y-91440000D02*
X139446000Y-91440000D01*
X131667000Y-89059000D02*
X131687199Y-89079199D01*
X131132000Y-89059000D02*
X131667000Y-89059000D01*
X131132000Y-89059000D02*
X129699000Y-89059000D01*
X129699000Y-89059000D02*
X129540000Y-88900000D01*
X129540000Y-87657600D02*
X129540000Y-88900000D01*
X129794000Y-86344000D02*
X129794000Y-87403600D01*
X129794000Y-87403600D02*
X129540000Y-87657600D01*
X138938000Y-89859000D02*
X139632000Y-89859000D01*
X138958199Y-89879199D02*
X138938000Y-89859000D01*
X139632000Y-91438801D02*
X138428159Y-91438801D01*
X138428159Y-91438801D02*
X138327199Y-91337841D01*
X138327199Y-91337841D02*
X138327199Y-89980159D01*
X139632000Y-91459000D02*
X139632000Y-91438801D01*
X138327199Y-89980159D02*
X138428159Y-89879199D01*
X138428159Y-89879199D02*
X138958199Y-89879199D01*
D31*
X144780000Y-71018500D02*
X144170500Y-71018500D01*
X144170500Y-71018500D02*
X143764000Y-70612000D01*
X132334000Y-83896200D02*
X132359400Y-83921600D01*
X132334000Y-70866000D02*
X132334000Y-83896200D01*
D29*
X131902200Y-84556600D02*
X132461000Y-83997800D01*
X131902200Y-84944442D02*
X131902200Y-84556600D01*
X131547841Y-85298801D02*
X131902200Y-84944442D01*
X131038637Y-85298801D02*
X131547841Y-85298801D01*
X129794000Y-86344000D02*
X129993438Y-86344000D01*
X129993438Y-86344000D02*
X131038637Y-85298801D01*
D31*
G04 #@! TO.N,Net-(D1-Pad2)*
X144780000Y-67996000D02*
X144780000Y-69596000D01*
X144780000Y-69596000D02*
X144780000Y-69342000D01*
D29*
G04 #@! TO.N,VPP*
X130744000Y-83124000D02*
X130810000Y-83058000D01*
X130744000Y-84344000D02*
X130744000Y-83124000D01*
X123444000Y-83820000D02*
X123444000Y-88976200D01*
D31*
G04 #@! TO.N,Net-(U5-Pad7)*
X140817600Y-89052400D02*
X139623800Y-89052400D01*
X142367000Y-89723000D02*
X141488200Y-89723000D01*
X141488200Y-89723000D02*
X140817600Y-89052400D01*
G04 #@! TO.N,Net-(U5-Pad8)*
X141262200Y-87823000D02*
X140820200Y-88265000D01*
X142367000Y-87823000D02*
X141262200Y-87823000D01*
X140820200Y-88265000D02*
X139573000Y-88265000D01*
G04 #@! TO.N,RX*
X136582000Y-95309000D02*
X136582000Y-99511000D01*
X136582000Y-99511000D02*
X136525000Y-99454000D01*
X136525000Y-99454000D02*
X136525000Y-99441000D01*
G04 #@! TO.N,TX*
X137382000Y-95309000D02*
X137382000Y-97758000D01*
X137382000Y-97758000D02*
X139065000Y-99441000D01*
G04 #@! TD*
D33*
G04 #@! TO.N,GND*
G36*
X143670000Y-66135250D02*
X143828750Y-66294000D01*
X144653000Y-66294000D01*
X144653000Y-66274000D01*
X144907000Y-66274000D01*
X144907000Y-66294000D01*
X145731250Y-66294000D01*
X145890000Y-66135250D01*
X145890000Y-65886000D01*
X151538000Y-65886000D01*
X151538001Y-86083762D01*
X151294153Y-85839914D01*
X150693222Y-85591000D01*
X150042778Y-85591000D01*
X149441847Y-85839914D01*
X148981914Y-86299847D01*
X148733000Y-86900778D01*
X148733000Y-87551222D01*
X148981914Y-88152153D01*
X149441847Y-88612086D01*
X149580600Y-88669560D01*
X149580601Y-92282440D01*
X149441847Y-92339914D01*
X148981914Y-92799847D01*
X148733000Y-93400778D01*
X148733000Y-94051222D01*
X148981914Y-94652153D01*
X149441847Y-95112086D01*
X150042778Y-95361000D01*
X150693222Y-95361000D01*
X151294153Y-95112086D01*
X151538001Y-94868238D01*
X151538001Y-98479608D01*
X151538000Y-98479613D01*
X151538001Y-100992000D01*
X108558000Y-100992000D01*
X108558000Y-98476000D01*
X108643000Y-98476000D01*
X108758262Y-99203735D01*
X109092765Y-99860234D01*
X109613766Y-100381235D01*
X110270265Y-100715738D01*
X110998000Y-100831000D01*
X111725735Y-100715738D01*
X112382234Y-100381235D01*
X112903235Y-99860234D01*
X113237738Y-99203735D01*
X113353000Y-98476000D01*
X113237738Y-97748265D01*
X112903235Y-97091766D01*
X112382234Y-96570765D01*
X111725735Y-96236262D01*
X110998000Y-96121000D01*
X110270265Y-96236262D01*
X109613766Y-96570765D01*
X109092765Y-97091766D01*
X108758262Y-97748265D01*
X108643000Y-98476000D01*
X108558000Y-98476000D01*
X108558000Y-93952092D01*
X108599673Y-94052699D01*
X108778302Y-94231327D01*
X109011691Y-94328000D01*
X109289750Y-94328000D01*
X109448500Y-94169250D01*
X109448500Y-93345000D01*
X109428500Y-93345000D01*
X109428500Y-93091000D01*
X109448500Y-93091000D01*
X109448500Y-92647275D01*
X109495084Y-92600691D01*
X109495084Y-91776441D01*
X109475084Y-91776441D01*
X109475084Y-91522441D01*
X109495084Y-91522441D01*
X109495084Y-90698191D01*
X109336334Y-90539441D01*
X109058275Y-90539441D01*
X108824886Y-90636114D01*
X108646257Y-90814742D01*
X108558000Y-91027813D01*
X108558000Y-85960733D01*
X108595295Y-86148227D01*
X108712001Y-86322889D01*
X108712001Y-86870254D01*
X108693000Y-86916126D01*
X108693000Y-87327874D01*
X108850569Y-87708280D01*
X109141720Y-87999431D01*
X109522126Y-88157000D01*
X109933874Y-88157000D01*
X110314280Y-87999431D01*
X110344486Y-87969225D01*
X110344486Y-88339202D01*
X110393769Y-88586967D01*
X110534117Y-88797011D01*
X110744161Y-88937359D01*
X110991926Y-88986642D01*
X111591926Y-88986642D01*
X111839691Y-88937359D01*
X111918898Y-88884434D01*
X112135616Y-88974202D01*
X112276176Y-88974202D01*
X112434926Y-88815452D01*
X112434926Y-87691202D01*
X112414926Y-87691202D01*
X112414926Y-87437202D01*
X112434926Y-87437202D01*
X112434926Y-87417202D01*
X112688926Y-87417202D01*
X112688926Y-87437202D01*
X112708926Y-87437202D01*
X112708926Y-87691202D01*
X112688926Y-87691202D01*
X112688926Y-88815452D01*
X112847676Y-88974202D01*
X112851409Y-88974202D01*
X112757000Y-89202126D01*
X112757000Y-89613874D01*
X112914569Y-89994280D01*
X113205720Y-90285431D01*
X113586126Y-90443000D01*
X113997874Y-90443000D01*
X114227244Y-90347992D01*
X114227244Y-90861941D01*
X113822315Y-90861941D01*
X113793023Y-90818102D01*
X113512011Y-90630336D01*
X113180534Y-90564401D01*
X112668034Y-90564401D01*
X112336557Y-90630336D01*
X112055545Y-90818102D01*
X112054429Y-90819772D01*
X112028323Y-90780702D01*
X111747311Y-90592936D01*
X111415834Y-90527001D01*
X110978334Y-90527001D01*
X110646857Y-90592936D01*
X110484553Y-90701384D01*
X110419282Y-90636114D01*
X110185893Y-90539441D01*
X109907834Y-90539441D01*
X109749084Y-90698191D01*
X109749084Y-91522441D01*
X109769084Y-91522441D01*
X109769084Y-91776441D01*
X109749084Y-91776441D01*
X109749084Y-92220166D01*
X109702500Y-92266750D01*
X109702500Y-93091000D01*
X109722500Y-93091000D01*
X109722500Y-93345000D01*
X109702500Y-93345000D01*
X109702500Y-94169250D01*
X109861250Y-94328000D01*
X110139309Y-94328000D01*
X110372698Y-94231327D01*
X110437969Y-94166057D01*
X110600273Y-94274505D01*
X110931750Y-94340440D01*
X111369250Y-94340440D01*
X111700727Y-94274505D01*
X111981739Y-94086739D01*
X112029052Y-94015930D01*
X112055545Y-94055580D01*
X112336557Y-94243346D01*
X112668034Y-94309281D01*
X113180534Y-94309281D01*
X113512011Y-94243346D01*
X113793023Y-94055580D01*
X113822315Y-94011741D01*
X114227244Y-94011741D01*
X114227244Y-95698241D01*
X114276527Y-95946006D01*
X114416875Y-96156050D01*
X114626919Y-96296398D01*
X114874684Y-96345681D01*
X117374684Y-96345681D01*
X117622449Y-96296398D01*
X117815949Y-96167104D01*
X129285101Y-96167104D01*
X129322248Y-96382217D01*
X129750572Y-96525112D01*
X130200975Y-96493217D01*
X130468952Y-96382217D01*
X130506099Y-96167104D01*
X129895600Y-95556605D01*
X129285101Y-96167104D01*
X117815949Y-96167104D01*
X117832493Y-96156050D01*
X117972841Y-95946006D01*
X118022124Y-95698241D01*
X118022124Y-94011741D01*
X119036509Y-94011741D01*
X118909000Y-94139250D01*
X118909000Y-94219310D01*
X119005673Y-94452699D01*
X119184302Y-94631327D01*
X119417691Y-94728000D01*
X119983250Y-94728000D01*
X120142000Y-94569250D01*
X120142000Y-94090440D01*
X120396000Y-94090440D01*
X120396000Y-94569250D01*
X120554750Y-94728000D01*
X121120309Y-94728000D01*
X121353698Y-94631327D01*
X121532327Y-94452699D01*
X121629000Y-94219310D01*
X121629000Y-94139250D01*
X121470250Y-93980500D01*
X121332544Y-93980500D01*
X121451809Y-93900809D01*
X121592157Y-93690765D01*
X121606353Y-93619397D01*
X121629000Y-93596750D01*
X121629000Y-93516690D01*
X121627502Y-93513073D01*
X121641440Y-93443000D01*
X121641440Y-93290991D01*
X123848394Y-95497946D01*
X123892324Y-95563692D01*
X124152780Y-95737723D01*
X124269152Y-95760871D01*
X124381720Y-95873439D01*
X124762126Y-96031008D01*
X125173874Y-96031008D01*
X125554280Y-95873439D01*
X125791011Y-95636708D01*
X125963126Y-95708000D01*
X126374874Y-95708000D01*
X126755280Y-95550431D01*
X127046431Y-95259280D01*
X127204000Y-94878874D01*
X127204000Y-94649573D01*
X127294710Y-94588961D01*
X127295688Y-94589939D01*
X127339618Y-94655685D01*
X127524294Y-94779081D01*
X127646569Y-95074280D01*
X127937720Y-95365431D01*
X128318126Y-95523000D01*
X128729874Y-95523000D01*
X128767008Y-95507619D01*
X128779383Y-95682375D01*
X128890383Y-95950352D01*
X129105496Y-95987499D01*
X129715995Y-95377000D01*
X129701853Y-95362858D01*
X129881458Y-95183253D01*
X129895600Y-95197395D01*
X129909743Y-95183253D01*
X130089348Y-95362858D01*
X130075205Y-95377000D01*
X130628161Y-95929956D01*
X130694569Y-96090280D01*
X130985720Y-96381431D01*
X131319128Y-96519533D01*
X131299000Y-96568126D01*
X131299000Y-96979874D01*
X131456569Y-97360280D01*
X131747720Y-97651431D01*
X132128126Y-97809000D01*
X132539874Y-97809000D01*
X132920280Y-97651431D01*
X132999351Y-97572360D01*
X133021800Y-97576826D01*
X133099351Y-97561400D01*
X133099352Y-97561400D01*
X133329028Y-97515715D01*
X133589484Y-97341684D01*
X133633416Y-97275935D01*
X133883935Y-97025416D01*
X133949684Y-96981484D01*
X134100053Y-96756440D01*
X134457000Y-96756440D01*
X134582000Y-96731576D01*
X134707000Y-96756440D01*
X134994601Y-96756440D01*
X134994601Y-97263000D01*
X134922126Y-97263000D01*
X134541720Y-97420569D01*
X134250569Y-97711720D01*
X134148005Y-97959332D01*
X134131256Y-97956000D01*
X133838744Y-97956000D01*
X133405582Y-98042161D01*
X132914375Y-98370375D01*
X132902184Y-98388619D01*
X132893157Y-98343235D01*
X132752809Y-98133191D01*
X132542765Y-97992843D01*
X132295000Y-97943560D01*
X130595000Y-97943560D01*
X130347235Y-97992843D01*
X130137191Y-98133191D01*
X129996843Y-98343235D01*
X129947560Y-98591000D01*
X129947560Y-100291000D01*
X129996843Y-100538765D01*
X130137191Y-100748809D01*
X130347235Y-100889157D01*
X130595000Y-100938440D01*
X132295000Y-100938440D01*
X132542765Y-100889157D01*
X132752809Y-100748809D01*
X132893157Y-100538765D01*
X132902184Y-100493381D01*
X132914375Y-100511625D01*
X133405582Y-100839839D01*
X133838744Y-100926000D01*
X134131256Y-100926000D01*
X134564418Y-100839839D01*
X135055625Y-100511625D01*
X135255000Y-100213239D01*
X135454375Y-100511625D01*
X135945582Y-100839839D01*
X136378744Y-100926000D01*
X136671256Y-100926000D01*
X137104418Y-100839839D01*
X137595625Y-100511625D01*
X137795000Y-100213239D01*
X137994375Y-100511625D01*
X138485582Y-100839839D01*
X138918744Y-100926000D01*
X139211256Y-100926000D01*
X139644418Y-100839839D01*
X140135625Y-100511625D01*
X140348843Y-100192522D01*
X140409817Y-100322358D01*
X140838076Y-100712645D01*
X141248110Y-100882476D01*
X141478000Y-100761155D01*
X141478000Y-99568000D01*
X141732000Y-99568000D01*
X141732000Y-100761155D01*
X141961890Y-100882476D01*
X142371924Y-100712645D01*
X142800183Y-100322358D01*
X143046486Y-99797892D01*
X142925819Y-99568000D01*
X141732000Y-99568000D01*
X141478000Y-99568000D01*
X141458000Y-99568000D01*
X141458000Y-99314000D01*
X141478000Y-99314000D01*
X141478000Y-98120845D01*
X141732000Y-98120845D01*
X141732000Y-99314000D01*
X142925819Y-99314000D01*
X143046486Y-99084108D01*
X142800183Y-98559642D01*
X142791798Y-98552000D01*
X146743000Y-98552000D01*
X146858262Y-99279735D01*
X147192765Y-99936234D01*
X147713766Y-100457235D01*
X148370265Y-100791738D01*
X149098000Y-100907000D01*
X149825735Y-100791738D01*
X150482234Y-100457235D01*
X151003235Y-99936234D01*
X151337738Y-99279735D01*
X151453000Y-98552000D01*
X151337738Y-97824265D01*
X151003235Y-97167766D01*
X150482234Y-96646765D01*
X149825735Y-96312262D01*
X149098000Y-96197000D01*
X148370265Y-96312262D01*
X147713766Y-96646765D01*
X147192765Y-97167766D01*
X146858262Y-97824265D01*
X146743000Y-98552000D01*
X142791798Y-98552000D01*
X142371924Y-98169355D01*
X141961890Y-97999524D01*
X141732000Y-98120845D01*
X141478000Y-98120845D01*
X141248110Y-97999524D01*
X140838076Y-98169355D01*
X140409817Y-98559642D01*
X140348843Y-98689478D01*
X140135625Y-98370375D01*
X139644418Y-98042161D01*
X139211256Y-97956000D01*
X138918744Y-97956000D01*
X138730913Y-97993362D01*
X138169400Y-97431849D01*
X138169400Y-96853034D01*
X142883000Y-96853034D01*
X142883000Y-97304566D01*
X143055793Y-97721726D01*
X143375074Y-98041007D01*
X143792234Y-98213800D01*
X144243766Y-98213800D01*
X144660926Y-98041007D01*
X144980207Y-97721726D01*
X145153000Y-97304566D01*
X145153000Y-96853034D01*
X144980207Y-96435874D01*
X144892022Y-96347689D01*
X144895431Y-96344280D01*
X145053000Y-95963874D01*
X145053000Y-95552126D01*
X144895431Y-95171720D01*
X144604280Y-94880569D01*
X144599363Y-94878532D01*
X144895073Y-94878532D01*
X144993736Y-95145387D01*
X145603461Y-95371908D01*
X146253460Y-95347856D01*
X146742264Y-95145387D01*
X146840927Y-94878532D01*
X145868000Y-93905605D01*
X144895073Y-94878532D01*
X144599363Y-94878532D01*
X144223874Y-94723000D01*
X143812126Y-94723000D01*
X143431720Y-94880569D01*
X143140569Y-95171720D01*
X142983000Y-95552126D01*
X142983000Y-95963874D01*
X143140569Y-96344280D01*
X143143978Y-96347689D01*
X143055793Y-96435874D01*
X142883000Y-96853034D01*
X138169400Y-96853034D01*
X138169400Y-96756440D01*
X138457000Y-96756440D01*
X138704765Y-96707157D01*
X138914809Y-96566809D01*
X139055157Y-96356765D01*
X139104440Y-96109000D01*
X139104440Y-94781440D01*
X140432000Y-94781440D01*
X140540206Y-94759917D01*
X140637720Y-94857431D01*
X141018126Y-95015000D01*
X141429874Y-95015000D01*
X141810280Y-94857431D01*
X142101431Y-94566280D01*
X142259000Y-94185874D01*
X142259000Y-94087500D01*
X142460310Y-94087500D01*
X142693699Y-93990827D01*
X142872327Y-93812198D01*
X142969000Y-93578809D01*
X142969000Y-93461461D01*
X144222092Y-93461461D01*
X144246144Y-94111460D01*
X144448613Y-94600264D01*
X144715468Y-94698927D01*
X145688395Y-93726000D01*
X146047605Y-93726000D01*
X147020532Y-94698927D01*
X147287387Y-94600264D01*
X147513908Y-93990539D01*
X147489856Y-93340540D01*
X147287387Y-92851736D01*
X147020532Y-92753073D01*
X146047605Y-93726000D01*
X145688395Y-93726000D01*
X144715468Y-92753073D01*
X144448613Y-92851736D01*
X144222092Y-93461461D01*
X142969000Y-93461461D01*
X142969000Y-93300750D01*
X142810250Y-93142000D01*
X141986000Y-93142000D01*
X141986000Y-93162000D01*
X141869711Y-93162000D01*
X141810280Y-93102569D01*
X141712000Y-93061860D01*
X141712000Y-92888000D01*
X141732000Y-92888000D01*
X141732000Y-92868000D01*
X141986000Y-92868000D01*
X141986000Y-92888000D01*
X142810250Y-92888000D01*
X142969000Y-92729250D01*
X142969000Y-92573468D01*
X144895073Y-92573468D01*
X145868000Y-93546395D01*
X146840927Y-92573468D01*
X146742264Y-92306613D01*
X146132539Y-92080092D01*
X145482540Y-92104144D01*
X144993736Y-92306613D01*
X144895073Y-92573468D01*
X142969000Y-92573468D01*
X142969000Y-92451191D01*
X142872327Y-92217802D01*
X142807057Y-92152531D01*
X142915505Y-91990227D01*
X142981440Y-91658750D01*
X142981440Y-91221250D01*
X142915505Y-90889773D01*
X142727739Y-90608761D01*
X142595557Y-90520440D01*
X143167000Y-90520440D01*
X143414765Y-90471157D01*
X143624809Y-90330809D01*
X143765157Y-90120765D01*
X143814440Y-89873000D01*
X143814440Y-89573000D01*
X143765157Y-89325235D01*
X143717346Y-89253681D01*
X143802000Y-89049309D01*
X143802000Y-89006750D01*
X143643250Y-88848000D01*
X142494000Y-88848000D01*
X142494000Y-88920000D01*
X142240000Y-88920000D01*
X142240000Y-88848000D01*
X142220000Y-88848000D01*
X142220000Y-88698000D01*
X142240000Y-88698000D01*
X142240000Y-88626000D01*
X142494000Y-88626000D01*
X142494000Y-88698000D01*
X143643250Y-88698000D01*
X143802000Y-88539250D01*
X143802000Y-88496691D01*
X143753057Y-88378532D01*
X144895073Y-88378532D01*
X144993736Y-88645387D01*
X145603461Y-88871908D01*
X146253460Y-88847856D01*
X146742264Y-88645387D01*
X146840927Y-88378532D01*
X145868000Y-87405605D01*
X144895073Y-88378532D01*
X143753057Y-88378532D01*
X143717346Y-88292319D01*
X143765157Y-88220765D01*
X143814440Y-87973000D01*
X143814440Y-87673000D01*
X143765157Y-87425235D01*
X143624809Y-87215191D01*
X143414765Y-87074843D01*
X143167000Y-87025560D01*
X141567000Y-87025560D01*
X141516525Y-87035600D01*
X141339750Y-87035600D01*
X141262199Y-87020174D01*
X141184648Y-87035600D01*
X140954972Y-87081285D01*
X140694516Y-87255316D01*
X140650584Y-87321065D01*
X140601395Y-87370254D01*
X140432000Y-87336560D01*
X139104440Y-87336560D01*
X139104440Y-86961461D01*
X144222092Y-86961461D01*
X144246144Y-87611460D01*
X144448613Y-88100264D01*
X144715468Y-88198927D01*
X145688395Y-87226000D01*
X146047605Y-87226000D01*
X147020532Y-88198927D01*
X147287387Y-88100264D01*
X147513908Y-87490539D01*
X147489856Y-86840540D01*
X147287387Y-86351736D01*
X147020532Y-86253073D01*
X146047605Y-87226000D01*
X145688395Y-87226000D01*
X144715468Y-86253073D01*
X144448613Y-86351736D01*
X144222092Y-86961461D01*
X139104440Y-86961461D01*
X139104440Y-86073468D01*
X144895073Y-86073468D01*
X145868000Y-87046395D01*
X146840927Y-86073468D01*
X146742264Y-85806613D01*
X146132539Y-85580092D01*
X145482540Y-85604144D01*
X144993736Y-85806613D01*
X144895073Y-86073468D01*
X139104440Y-86073468D01*
X139104440Y-86009000D01*
X139055157Y-85761235D01*
X138969400Y-85632892D01*
X138969400Y-81696315D01*
X139053431Y-81612284D01*
X139211000Y-81231878D01*
X139211000Y-80820130D01*
X139053431Y-80439724D01*
X138762280Y-80148573D01*
X138428871Y-80010471D01*
X138449000Y-79961874D01*
X138449000Y-79550126D01*
X138291431Y-79169720D01*
X138153019Y-79031308D01*
X138334765Y-78995157D01*
X138544809Y-78854809D01*
X138685157Y-78644765D01*
X138734440Y-78397000D01*
X138734440Y-76936600D01*
X143499007Y-76936600D01*
X143392908Y-77470000D01*
X143508161Y-78049418D01*
X143836375Y-78540625D01*
X144327582Y-78868839D01*
X144760744Y-78955000D01*
X145053256Y-78955000D01*
X145486418Y-78868839D01*
X145977625Y-78540625D01*
X146177000Y-78242239D01*
X146177001Y-78242240D01*
X146177000Y-80126760D01*
X146177000Y-80126761D01*
X145977625Y-79828375D01*
X145486418Y-79500161D01*
X145053256Y-79414000D01*
X144760744Y-79414000D01*
X144327582Y-79500161D01*
X143836375Y-79828375D01*
X143508161Y-80319582D01*
X143392908Y-80899000D01*
X143508161Y-81478418D01*
X143836375Y-81969625D01*
X144327582Y-82297839D01*
X144760744Y-82384000D01*
X145053256Y-82384000D01*
X145486418Y-82297839D01*
X145977625Y-81969625D01*
X146177000Y-81671239D01*
X146376375Y-81969625D01*
X146867582Y-82297839D01*
X147300744Y-82384000D01*
X147593256Y-82384000D01*
X148026418Y-82297839D01*
X148517625Y-81969625D01*
X148532096Y-81947967D01*
X148598673Y-82108698D01*
X148777301Y-82287327D01*
X149010690Y-82384000D01*
X149701250Y-82384000D01*
X149860000Y-82225250D01*
X149860000Y-81026000D01*
X150114000Y-81026000D01*
X150114000Y-82225250D01*
X150272750Y-82384000D01*
X150963310Y-82384000D01*
X151196699Y-82287327D01*
X151375327Y-82108698D01*
X151472000Y-81875309D01*
X151472000Y-81184750D01*
X151313250Y-81026000D01*
X150114000Y-81026000D01*
X149860000Y-81026000D01*
X149840000Y-81026000D01*
X149840000Y-80772000D01*
X149860000Y-80772000D01*
X149860000Y-79572750D01*
X150114000Y-79572750D01*
X150114000Y-80772000D01*
X151313250Y-80772000D01*
X151472000Y-80613250D01*
X151472000Y-79922691D01*
X151375327Y-79689302D01*
X151196699Y-79510673D01*
X150963310Y-79414000D01*
X150272750Y-79414000D01*
X150114000Y-79572750D01*
X149860000Y-79572750D01*
X149701250Y-79414000D01*
X149010690Y-79414000D01*
X148777301Y-79510673D01*
X148717000Y-79570974D01*
X148717000Y-78798026D01*
X148777301Y-78858327D01*
X149010690Y-78955000D01*
X149701250Y-78955000D01*
X149860000Y-78796250D01*
X149860000Y-77597000D01*
X150114000Y-77597000D01*
X150114000Y-78796250D01*
X150272750Y-78955000D01*
X150963310Y-78955000D01*
X151196699Y-78858327D01*
X151375327Y-78679698D01*
X151472000Y-78446309D01*
X151472000Y-77755750D01*
X151313250Y-77597000D01*
X150114000Y-77597000D01*
X149860000Y-77597000D01*
X149840000Y-77597000D01*
X149840000Y-77343000D01*
X149860000Y-77343000D01*
X149860000Y-76143750D01*
X150114000Y-76143750D01*
X150114000Y-77343000D01*
X151313250Y-77343000D01*
X151472000Y-77184250D01*
X151472000Y-76493691D01*
X151375327Y-76260302D01*
X151196699Y-76081673D01*
X150963310Y-75985000D01*
X150272750Y-75985000D01*
X150114000Y-76143750D01*
X149860000Y-76143750D01*
X149701250Y-75985000D01*
X149010690Y-75985000D01*
X148777301Y-76081673D01*
X148716857Y-76142118D01*
X148643313Y-75772390D01*
X148493957Y-75548864D01*
X148433470Y-75458338D01*
X148433469Y-75458337D01*
X148362618Y-75352301D01*
X148256581Y-75281449D01*
X148183207Y-75208076D01*
X148517625Y-74984625D01*
X148532096Y-74962967D01*
X148598673Y-75123698D01*
X148777301Y-75302327D01*
X149010690Y-75399000D01*
X149701250Y-75399000D01*
X149860000Y-75240250D01*
X149860000Y-74041000D01*
X150114000Y-74041000D01*
X150114000Y-75240250D01*
X150272750Y-75399000D01*
X150963310Y-75399000D01*
X151196699Y-75302327D01*
X151375327Y-75123698D01*
X151472000Y-74890309D01*
X151472000Y-74199750D01*
X151313250Y-74041000D01*
X150114000Y-74041000D01*
X149860000Y-74041000D01*
X149840000Y-74041000D01*
X149840000Y-73787000D01*
X149860000Y-73787000D01*
X149860000Y-72587750D01*
X150114000Y-72587750D01*
X150114000Y-73787000D01*
X151313250Y-73787000D01*
X151472000Y-73628250D01*
X151472000Y-72937691D01*
X151375327Y-72704302D01*
X151196699Y-72525673D01*
X150963310Y-72429000D01*
X150272750Y-72429000D01*
X150114000Y-72587750D01*
X149860000Y-72587750D01*
X149701250Y-72429000D01*
X149010690Y-72429000D01*
X148777301Y-72525673D01*
X148598673Y-72704302D01*
X148532096Y-72865033D01*
X148517625Y-72843375D01*
X148026418Y-72515161D01*
X147593256Y-72429000D01*
X147300744Y-72429000D01*
X146867582Y-72515161D01*
X146376375Y-72843375D01*
X146177000Y-73141761D01*
X145977625Y-72843375D01*
X145486418Y-72515161D01*
X145053256Y-72429000D01*
X144760744Y-72429000D01*
X144572913Y-72466362D01*
X144046964Y-71940413D01*
X144192273Y-72037505D01*
X144523750Y-72103440D01*
X145036250Y-72103440D01*
X145367727Y-72037505D01*
X145648739Y-71849739D01*
X145836505Y-71568727D01*
X145902440Y-71237250D01*
X145902440Y-70799750D01*
X145836505Y-70468273D01*
X145677964Y-70231000D01*
X145836505Y-69993727D01*
X145902440Y-69662250D01*
X145902440Y-69224750D01*
X145836505Y-68893273D01*
X145720561Y-68719750D01*
X145836505Y-68546227D01*
X145880310Y-68326000D01*
X146743000Y-68326000D01*
X146858262Y-69053735D01*
X147192765Y-69710234D01*
X147713766Y-70231235D01*
X148370265Y-70565738D01*
X149098000Y-70681000D01*
X149825735Y-70565738D01*
X150482234Y-70231235D01*
X151003235Y-69710234D01*
X151337738Y-69053735D01*
X151453000Y-68326000D01*
X151337738Y-67598265D01*
X151003235Y-66941766D01*
X150482234Y-66420765D01*
X149825735Y-66086262D01*
X149098000Y-65971000D01*
X148370265Y-66086262D01*
X147713766Y-66420765D01*
X147192765Y-66941766D01*
X146858262Y-67598265D01*
X146743000Y-68326000D01*
X145880310Y-68326000D01*
X145902440Y-68214750D01*
X145902440Y-67777250D01*
X145836505Y-67445773D01*
X145728057Y-67283469D01*
X145793327Y-67218198D01*
X145890000Y-66984809D01*
X145890000Y-66706750D01*
X145731250Y-66548000D01*
X144907000Y-66548000D01*
X144907000Y-66568000D01*
X144653000Y-66568000D01*
X144653000Y-66548000D01*
X143828750Y-66548000D01*
X143697357Y-66679393D01*
X143569684Y-66488316D01*
X143503938Y-66444386D01*
X142945551Y-65886000D01*
X143670000Y-65886000D01*
X143670000Y-66135250D01*
X143670000Y-66135250D01*
G37*
X143670000Y-66135250D02*
X143828750Y-66294000D01*
X144653000Y-66294000D01*
X144653000Y-66274000D01*
X144907000Y-66274000D01*
X144907000Y-66294000D01*
X145731250Y-66294000D01*
X145890000Y-66135250D01*
X145890000Y-65886000D01*
X151538000Y-65886000D01*
X151538001Y-86083762D01*
X151294153Y-85839914D01*
X150693222Y-85591000D01*
X150042778Y-85591000D01*
X149441847Y-85839914D01*
X148981914Y-86299847D01*
X148733000Y-86900778D01*
X148733000Y-87551222D01*
X148981914Y-88152153D01*
X149441847Y-88612086D01*
X149580600Y-88669560D01*
X149580601Y-92282440D01*
X149441847Y-92339914D01*
X148981914Y-92799847D01*
X148733000Y-93400778D01*
X148733000Y-94051222D01*
X148981914Y-94652153D01*
X149441847Y-95112086D01*
X150042778Y-95361000D01*
X150693222Y-95361000D01*
X151294153Y-95112086D01*
X151538001Y-94868238D01*
X151538001Y-98479608D01*
X151538000Y-98479613D01*
X151538001Y-100992000D01*
X108558000Y-100992000D01*
X108558000Y-98476000D01*
X108643000Y-98476000D01*
X108758262Y-99203735D01*
X109092765Y-99860234D01*
X109613766Y-100381235D01*
X110270265Y-100715738D01*
X110998000Y-100831000D01*
X111725735Y-100715738D01*
X112382234Y-100381235D01*
X112903235Y-99860234D01*
X113237738Y-99203735D01*
X113353000Y-98476000D01*
X113237738Y-97748265D01*
X112903235Y-97091766D01*
X112382234Y-96570765D01*
X111725735Y-96236262D01*
X110998000Y-96121000D01*
X110270265Y-96236262D01*
X109613766Y-96570765D01*
X109092765Y-97091766D01*
X108758262Y-97748265D01*
X108643000Y-98476000D01*
X108558000Y-98476000D01*
X108558000Y-93952092D01*
X108599673Y-94052699D01*
X108778302Y-94231327D01*
X109011691Y-94328000D01*
X109289750Y-94328000D01*
X109448500Y-94169250D01*
X109448500Y-93345000D01*
X109428500Y-93345000D01*
X109428500Y-93091000D01*
X109448500Y-93091000D01*
X109448500Y-92647275D01*
X109495084Y-92600691D01*
X109495084Y-91776441D01*
X109475084Y-91776441D01*
X109475084Y-91522441D01*
X109495084Y-91522441D01*
X109495084Y-90698191D01*
X109336334Y-90539441D01*
X109058275Y-90539441D01*
X108824886Y-90636114D01*
X108646257Y-90814742D01*
X108558000Y-91027813D01*
X108558000Y-85960733D01*
X108595295Y-86148227D01*
X108712001Y-86322889D01*
X108712001Y-86870254D01*
X108693000Y-86916126D01*
X108693000Y-87327874D01*
X108850569Y-87708280D01*
X109141720Y-87999431D01*
X109522126Y-88157000D01*
X109933874Y-88157000D01*
X110314280Y-87999431D01*
X110344486Y-87969225D01*
X110344486Y-88339202D01*
X110393769Y-88586967D01*
X110534117Y-88797011D01*
X110744161Y-88937359D01*
X110991926Y-88986642D01*
X111591926Y-88986642D01*
X111839691Y-88937359D01*
X111918898Y-88884434D01*
X112135616Y-88974202D01*
X112276176Y-88974202D01*
X112434926Y-88815452D01*
X112434926Y-87691202D01*
X112414926Y-87691202D01*
X112414926Y-87437202D01*
X112434926Y-87437202D01*
X112434926Y-87417202D01*
X112688926Y-87417202D01*
X112688926Y-87437202D01*
X112708926Y-87437202D01*
X112708926Y-87691202D01*
X112688926Y-87691202D01*
X112688926Y-88815452D01*
X112847676Y-88974202D01*
X112851409Y-88974202D01*
X112757000Y-89202126D01*
X112757000Y-89613874D01*
X112914569Y-89994280D01*
X113205720Y-90285431D01*
X113586126Y-90443000D01*
X113997874Y-90443000D01*
X114227244Y-90347992D01*
X114227244Y-90861941D01*
X113822315Y-90861941D01*
X113793023Y-90818102D01*
X113512011Y-90630336D01*
X113180534Y-90564401D01*
X112668034Y-90564401D01*
X112336557Y-90630336D01*
X112055545Y-90818102D01*
X112054429Y-90819772D01*
X112028323Y-90780702D01*
X111747311Y-90592936D01*
X111415834Y-90527001D01*
X110978334Y-90527001D01*
X110646857Y-90592936D01*
X110484553Y-90701384D01*
X110419282Y-90636114D01*
X110185893Y-90539441D01*
X109907834Y-90539441D01*
X109749084Y-90698191D01*
X109749084Y-91522441D01*
X109769084Y-91522441D01*
X109769084Y-91776441D01*
X109749084Y-91776441D01*
X109749084Y-92220166D01*
X109702500Y-92266750D01*
X109702500Y-93091000D01*
X109722500Y-93091000D01*
X109722500Y-93345000D01*
X109702500Y-93345000D01*
X109702500Y-94169250D01*
X109861250Y-94328000D01*
X110139309Y-94328000D01*
X110372698Y-94231327D01*
X110437969Y-94166057D01*
X110600273Y-94274505D01*
X110931750Y-94340440D01*
X111369250Y-94340440D01*
X111700727Y-94274505D01*
X111981739Y-94086739D01*
X112029052Y-94015930D01*
X112055545Y-94055580D01*
X112336557Y-94243346D01*
X112668034Y-94309281D01*
X113180534Y-94309281D01*
X113512011Y-94243346D01*
X113793023Y-94055580D01*
X113822315Y-94011741D01*
X114227244Y-94011741D01*
X114227244Y-95698241D01*
X114276527Y-95946006D01*
X114416875Y-96156050D01*
X114626919Y-96296398D01*
X114874684Y-96345681D01*
X117374684Y-96345681D01*
X117622449Y-96296398D01*
X117815949Y-96167104D01*
X129285101Y-96167104D01*
X129322248Y-96382217D01*
X129750572Y-96525112D01*
X130200975Y-96493217D01*
X130468952Y-96382217D01*
X130506099Y-96167104D01*
X129895600Y-95556605D01*
X129285101Y-96167104D01*
X117815949Y-96167104D01*
X117832493Y-96156050D01*
X117972841Y-95946006D01*
X118022124Y-95698241D01*
X118022124Y-94011741D01*
X119036509Y-94011741D01*
X118909000Y-94139250D01*
X118909000Y-94219310D01*
X119005673Y-94452699D01*
X119184302Y-94631327D01*
X119417691Y-94728000D01*
X119983250Y-94728000D01*
X120142000Y-94569250D01*
X120142000Y-94090440D01*
X120396000Y-94090440D01*
X120396000Y-94569250D01*
X120554750Y-94728000D01*
X121120309Y-94728000D01*
X121353698Y-94631327D01*
X121532327Y-94452699D01*
X121629000Y-94219310D01*
X121629000Y-94139250D01*
X121470250Y-93980500D01*
X121332544Y-93980500D01*
X121451809Y-93900809D01*
X121592157Y-93690765D01*
X121606353Y-93619397D01*
X121629000Y-93596750D01*
X121629000Y-93516690D01*
X121627502Y-93513073D01*
X121641440Y-93443000D01*
X121641440Y-93290991D01*
X123848394Y-95497946D01*
X123892324Y-95563692D01*
X124152780Y-95737723D01*
X124269152Y-95760871D01*
X124381720Y-95873439D01*
X124762126Y-96031008D01*
X125173874Y-96031008D01*
X125554280Y-95873439D01*
X125791011Y-95636708D01*
X125963126Y-95708000D01*
X126374874Y-95708000D01*
X126755280Y-95550431D01*
X127046431Y-95259280D01*
X127204000Y-94878874D01*
X127204000Y-94649573D01*
X127294710Y-94588961D01*
X127295688Y-94589939D01*
X127339618Y-94655685D01*
X127524294Y-94779081D01*
X127646569Y-95074280D01*
X127937720Y-95365431D01*
X128318126Y-95523000D01*
X128729874Y-95523000D01*
X128767008Y-95507619D01*
X128779383Y-95682375D01*
X128890383Y-95950352D01*
X129105496Y-95987499D01*
X129715995Y-95377000D01*
X129701853Y-95362858D01*
X129881458Y-95183253D01*
X129895600Y-95197395D01*
X129909743Y-95183253D01*
X130089348Y-95362858D01*
X130075205Y-95377000D01*
X130628161Y-95929956D01*
X130694569Y-96090280D01*
X130985720Y-96381431D01*
X131319128Y-96519533D01*
X131299000Y-96568126D01*
X131299000Y-96979874D01*
X131456569Y-97360280D01*
X131747720Y-97651431D01*
X132128126Y-97809000D01*
X132539874Y-97809000D01*
X132920280Y-97651431D01*
X132999351Y-97572360D01*
X133021800Y-97576826D01*
X133099351Y-97561400D01*
X133099352Y-97561400D01*
X133329028Y-97515715D01*
X133589484Y-97341684D01*
X133633416Y-97275935D01*
X133883935Y-97025416D01*
X133949684Y-96981484D01*
X134100053Y-96756440D01*
X134457000Y-96756440D01*
X134582000Y-96731576D01*
X134707000Y-96756440D01*
X134994601Y-96756440D01*
X134994601Y-97263000D01*
X134922126Y-97263000D01*
X134541720Y-97420569D01*
X134250569Y-97711720D01*
X134148005Y-97959332D01*
X134131256Y-97956000D01*
X133838744Y-97956000D01*
X133405582Y-98042161D01*
X132914375Y-98370375D01*
X132902184Y-98388619D01*
X132893157Y-98343235D01*
X132752809Y-98133191D01*
X132542765Y-97992843D01*
X132295000Y-97943560D01*
X130595000Y-97943560D01*
X130347235Y-97992843D01*
X130137191Y-98133191D01*
X129996843Y-98343235D01*
X129947560Y-98591000D01*
X129947560Y-100291000D01*
X129996843Y-100538765D01*
X130137191Y-100748809D01*
X130347235Y-100889157D01*
X130595000Y-100938440D01*
X132295000Y-100938440D01*
X132542765Y-100889157D01*
X132752809Y-100748809D01*
X132893157Y-100538765D01*
X132902184Y-100493381D01*
X132914375Y-100511625D01*
X133405582Y-100839839D01*
X133838744Y-100926000D01*
X134131256Y-100926000D01*
X134564418Y-100839839D01*
X135055625Y-100511625D01*
X135255000Y-100213239D01*
X135454375Y-100511625D01*
X135945582Y-100839839D01*
X136378744Y-100926000D01*
X136671256Y-100926000D01*
X137104418Y-100839839D01*
X137595625Y-100511625D01*
X137795000Y-100213239D01*
X137994375Y-100511625D01*
X138485582Y-100839839D01*
X138918744Y-100926000D01*
X139211256Y-100926000D01*
X139644418Y-100839839D01*
X140135625Y-100511625D01*
X140348843Y-100192522D01*
X140409817Y-100322358D01*
X140838076Y-100712645D01*
X141248110Y-100882476D01*
X141478000Y-100761155D01*
X141478000Y-99568000D01*
X141732000Y-99568000D01*
X141732000Y-100761155D01*
X141961890Y-100882476D01*
X142371924Y-100712645D01*
X142800183Y-100322358D01*
X143046486Y-99797892D01*
X142925819Y-99568000D01*
X141732000Y-99568000D01*
X141478000Y-99568000D01*
X141458000Y-99568000D01*
X141458000Y-99314000D01*
X141478000Y-99314000D01*
X141478000Y-98120845D01*
X141732000Y-98120845D01*
X141732000Y-99314000D01*
X142925819Y-99314000D01*
X143046486Y-99084108D01*
X142800183Y-98559642D01*
X142791798Y-98552000D01*
X146743000Y-98552000D01*
X146858262Y-99279735D01*
X147192765Y-99936234D01*
X147713766Y-100457235D01*
X148370265Y-100791738D01*
X149098000Y-100907000D01*
X149825735Y-100791738D01*
X150482234Y-100457235D01*
X151003235Y-99936234D01*
X151337738Y-99279735D01*
X151453000Y-98552000D01*
X151337738Y-97824265D01*
X151003235Y-97167766D01*
X150482234Y-96646765D01*
X149825735Y-96312262D01*
X149098000Y-96197000D01*
X148370265Y-96312262D01*
X147713766Y-96646765D01*
X147192765Y-97167766D01*
X146858262Y-97824265D01*
X146743000Y-98552000D01*
X142791798Y-98552000D01*
X142371924Y-98169355D01*
X141961890Y-97999524D01*
X141732000Y-98120845D01*
X141478000Y-98120845D01*
X141248110Y-97999524D01*
X140838076Y-98169355D01*
X140409817Y-98559642D01*
X140348843Y-98689478D01*
X140135625Y-98370375D01*
X139644418Y-98042161D01*
X139211256Y-97956000D01*
X138918744Y-97956000D01*
X138730913Y-97993362D01*
X138169400Y-97431849D01*
X138169400Y-96853034D01*
X142883000Y-96853034D01*
X142883000Y-97304566D01*
X143055793Y-97721726D01*
X143375074Y-98041007D01*
X143792234Y-98213800D01*
X144243766Y-98213800D01*
X144660926Y-98041007D01*
X144980207Y-97721726D01*
X145153000Y-97304566D01*
X145153000Y-96853034D01*
X144980207Y-96435874D01*
X144892022Y-96347689D01*
X144895431Y-96344280D01*
X145053000Y-95963874D01*
X145053000Y-95552126D01*
X144895431Y-95171720D01*
X144604280Y-94880569D01*
X144599363Y-94878532D01*
X144895073Y-94878532D01*
X144993736Y-95145387D01*
X145603461Y-95371908D01*
X146253460Y-95347856D01*
X146742264Y-95145387D01*
X146840927Y-94878532D01*
X145868000Y-93905605D01*
X144895073Y-94878532D01*
X144599363Y-94878532D01*
X144223874Y-94723000D01*
X143812126Y-94723000D01*
X143431720Y-94880569D01*
X143140569Y-95171720D01*
X142983000Y-95552126D01*
X142983000Y-95963874D01*
X143140569Y-96344280D01*
X143143978Y-96347689D01*
X143055793Y-96435874D01*
X142883000Y-96853034D01*
X138169400Y-96853034D01*
X138169400Y-96756440D01*
X138457000Y-96756440D01*
X138704765Y-96707157D01*
X138914809Y-96566809D01*
X139055157Y-96356765D01*
X139104440Y-96109000D01*
X139104440Y-94781440D01*
X140432000Y-94781440D01*
X140540206Y-94759917D01*
X140637720Y-94857431D01*
X141018126Y-95015000D01*
X141429874Y-95015000D01*
X141810280Y-94857431D01*
X142101431Y-94566280D01*
X142259000Y-94185874D01*
X142259000Y-94087500D01*
X142460310Y-94087500D01*
X142693699Y-93990827D01*
X142872327Y-93812198D01*
X142969000Y-93578809D01*
X142969000Y-93461461D01*
X144222092Y-93461461D01*
X144246144Y-94111460D01*
X144448613Y-94600264D01*
X144715468Y-94698927D01*
X145688395Y-93726000D01*
X146047605Y-93726000D01*
X147020532Y-94698927D01*
X147287387Y-94600264D01*
X147513908Y-93990539D01*
X147489856Y-93340540D01*
X147287387Y-92851736D01*
X147020532Y-92753073D01*
X146047605Y-93726000D01*
X145688395Y-93726000D01*
X144715468Y-92753073D01*
X144448613Y-92851736D01*
X144222092Y-93461461D01*
X142969000Y-93461461D01*
X142969000Y-93300750D01*
X142810250Y-93142000D01*
X141986000Y-93142000D01*
X141986000Y-93162000D01*
X141869711Y-93162000D01*
X141810280Y-93102569D01*
X141712000Y-93061860D01*
X141712000Y-92888000D01*
X141732000Y-92888000D01*
X141732000Y-92868000D01*
X141986000Y-92868000D01*
X141986000Y-92888000D01*
X142810250Y-92888000D01*
X142969000Y-92729250D01*
X142969000Y-92573468D01*
X144895073Y-92573468D01*
X145868000Y-93546395D01*
X146840927Y-92573468D01*
X146742264Y-92306613D01*
X146132539Y-92080092D01*
X145482540Y-92104144D01*
X144993736Y-92306613D01*
X144895073Y-92573468D01*
X142969000Y-92573468D01*
X142969000Y-92451191D01*
X142872327Y-92217802D01*
X142807057Y-92152531D01*
X142915505Y-91990227D01*
X142981440Y-91658750D01*
X142981440Y-91221250D01*
X142915505Y-90889773D01*
X142727739Y-90608761D01*
X142595557Y-90520440D01*
X143167000Y-90520440D01*
X143414765Y-90471157D01*
X143624809Y-90330809D01*
X143765157Y-90120765D01*
X143814440Y-89873000D01*
X143814440Y-89573000D01*
X143765157Y-89325235D01*
X143717346Y-89253681D01*
X143802000Y-89049309D01*
X143802000Y-89006750D01*
X143643250Y-88848000D01*
X142494000Y-88848000D01*
X142494000Y-88920000D01*
X142240000Y-88920000D01*
X142240000Y-88848000D01*
X142220000Y-88848000D01*
X142220000Y-88698000D01*
X142240000Y-88698000D01*
X142240000Y-88626000D01*
X142494000Y-88626000D01*
X142494000Y-88698000D01*
X143643250Y-88698000D01*
X143802000Y-88539250D01*
X143802000Y-88496691D01*
X143753057Y-88378532D01*
X144895073Y-88378532D01*
X144993736Y-88645387D01*
X145603461Y-88871908D01*
X146253460Y-88847856D01*
X146742264Y-88645387D01*
X146840927Y-88378532D01*
X145868000Y-87405605D01*
X144895073Y-88378532D01*
X143753057Y-88378532D01*
X143717346Y-88292319D01*
X143765157Y-88220765D01*
X143814440Y-87973000D01*
X143814440Y-87673000D01*
X143765157Y-87425235D01*
X143624809Y-87215191D01*
X143414765Y-87074843D01*
X143167000Y-87025560D01*
X141567000Y-87025560D01*
X141516525Y-87035600D01*
X141339750Y-87035600D01*
X141262199Y-87020174D01*
X141184648Y-87035600D01*
X140954972Y-87081285D01*
X140694516Y-87255316D01*
X140650584Y-87321065D01*
X140601395Y-87370254D01*
X140432000Y-87336560D01*
X139104440Y-87336560D01*
X139104440Y-86961461D01*
X144222092Y-86961461D01*
X144246144Y-87611460D01*
X144448613Y-88100264D01*
X144715468Y-88198927D01*
X145688395Y-87226000D01*
X146047605Y-87226000D01*
X147020532Y-88198927D01*
X147287387Y-88100264D01*
X147513908Y-87490539D01*
X147489856Y-86840540D01*
X147287387Y-86351736D01*
X147020532Y-86253073D01*
X146047605Y-87226000D01*
X145688395Y-87226000D01*
X144715468Y-86253073D01*
X144448613Y-86351736D01*
X144222092Y-86961461D01*
X139104440Y-86961461D01*
X139104440Y-86073468D01*
X144895073Y-86073468D01*
X145868000Y-87046395D01*
X146840927Y-86073468D01*
X146742264Y-85806613D01*
X146132539Y-85580092D01*
X145482540Y-85604144D01*
X144993736Y-85806613D01*
X144895073Y-86073468D01*
X139104440Y-86073468D01*
X139104440Y-86009000D01*
X139055157Y-85761235D01*
X138969400Y-85632892D01*
X138969400Y-81696315D01*
X139053431Y-81612284D01*
X139211000Y-81231878D01*
X139211000Y-80820130D01*
X139053431Y-80439724D01*
X138762280Y-80148573D01*
X138428871Y-80010471D01*
X138449000Y-79961874D01*
X138449000Y-79550126D01*
X138291431Y-79169720D01*
X138153019Y-79031308D01*
X138334765Y-78995157D01*
X138544809Y-78854809D01*
X138685157Y-78644765D01*
X138734440Y-78397000D01*
X138734440Y-76936600D01*
X143499007Y-76936600D01*
X143392908Y-77470000D01*
X143508161Y-78049418D01*
X143836375Y-78540625D01*
X144327582Y-78868839D01*
X144760744Y-78955000D01*
X145053256Y-78955000D01*
X145486418Y-78868839D01*
X145977625Y-78540625D01*
X146177000Y-78242239D01*
X146177001Y-78242240D01*
X146177000Y-80126760D01*
X146177000Y-80126761D01*
X145977625Y-79828375D01*
X145486418Y-79500161D01*
X145053256Y-79414000D01*
X144760744Y-79414000D01*
X144327582Y-79500161D01*
X143836375Y-79828375D01*
X143508161Y-80319582D01*
X143392908Y-80899000D01*
X143508161Y-81478418D01*
X143836375Y-81969625D01*
X144327582Y-82297839D01*
X144760744Y-82384000D01*
X145053256Y-82384000D01*
X145486418Y-82297839D01*
X145977625Y-81969625D01*
X146177000Y-81671239D01*
X146376375Y-81969625D01*
X146867582Y-82297839D01*
X147300744Y-82384000D01*
X147593256Y-82384000D01*
X148026418Y-82297839D01*
X148517625Y-81969625D01*
X148532096Y-81947967D01*
X148598673Y-82108698D01*
X148777301Y-82287327D01*
X149010690Y-82384000D01*
X149701250Y-82384000D01*
X149860000Y-82225250D01*
X149860000Y-81026000D01*
X150114000Y-81026000D01*
X150114000Y-82225250D01*
X150272750Y-82384000D01*
X150963310Y-82384000D01*
X151196699Y-82287327D01*
X151375327Y-82108698D01*
X151472000Y-81875309D01*
X151472000Y-81184750D01*
X151313250Y-81026000D01*
X150114000Y-81026000D01*
X149860000Y-81026000D01*
X149840000Y-81026000D01*
X149840000Y-80772000D01*
X149860000Y-80772000D01*
X149860000Y-79572750D01*
X150114000Y-79572750D01*
X150114000Y-80772000D01*
X151313250Y-80772000D01*
X151472000Y-80613250D01*
X151472000Y-79922691D01*
X151375327Y-79689302D01*
X151196699Y-79510673D01*
X150963310Y-79414000D01*
X150272750Y-79414000D01*
X150114000Y-79572750D01*
X149860000Y-79572750D01*
X149701250Y-79414000D01*
X149010690Y-79414000D01*
X148777301Y-79510673D01*
X148717000Y-79570974D01*
X148717000Y-78798026D01*
X148777301Y-78858327D01*
X149010690Y-78955000D01*
X149701250Y-78955000D01*
X149860000Y-78796250D01*
X149860000Y-77597000D01*
X150114000Y-77597000D01*
X150114000Y-78796250D01*
X150272750Y-78955000D01*
X150963310Y-78955000D01*
X151196699Y-78858327D01*
X151375327Y-78679698D01*
X151472000Y-78446309D01*
X151472000Y-77755750D01*
X151313250Y-77597000D01*
X150114000Y-77597000D01*
X149860000Y-77597000D01*
X149840000Y-77597000D01*
X149840000Y-77343000D01*
X149860000Y-77343000D01*
X149860000Y-76143750D01*
X150114000Y-76143750D01*
X150114000Y-77343000D01*
X151313250Y-77343000D01*
X151472000Y-77184250D01*
X151472000Y-76493691D01*
X151375327Y-76260302D01*
X151196699Y-76081673D01*
X150963310Y-75985000D01*
X150272750Y-75985000D01*
X150114000Y-76143750D01*
X149860000Y-76143750D01*
X149701250Y-75985000D01*
X149010690Y-75985000D01*
X148777301Y-76081673D01*
X148716857Y-76142118D01*
X148643313Y-75772390D01*
X148493957Y-75548864D01*
X148433470Y-75458338D01*
X148433469Y-75458337D01*
X148362618Y-75352301D01*
X148256581Y-75281449D01*
X148183207Y-75208076D01*
X148517625Y-74984625D01*
X148532096Y-74962967D01*
X148598673Y-75123698D01*
X148777301Y-75302327D01*
X149010690Y-75399000D01*
X149701250Y-75399000D01*
X149860000Y-75240250D01*
X149860000Y-74041000D01*
X150114000Y-74041000D01*
X150114000Y-75240250D01*
X150272750Y-75399000D01*
X150963310Y-75399000D01*
X151196699Y-75302327D01*
X151375327Y-75123698D01*
X151472000Y-74890309D01*
X151472000Y-74199750D01*
X151313250Y-74041000D01*
X150114000Y-74041000D01*
X149860000Y-74041000D01*
X149840000Y-74041000D01*
X149840000Y-73787000D01*
X149860000Y-73787000D01*
X149860000Y-72587750D01*
X150114000Y-72587750D01*
X150114000Y-73787000D01*
X151313250Y-73787000D01*
X151472000Y-73628250D01*
X151472000Y-72937691D01*
X151375327Y-72704302D01*
X151196699Y-72525673D01*
X150963310Y-72429000D01*
X150272750Y-72429000D01*
X150114000Y-72587750D01*
X149860000Y-72587750D01*
X149701250Y-72429000D01*
X149010690Y-72429000D01*
X148777301Y-72525673D01*
X148598673Y-72704302D01*
X148532096Y-72865033D01*
X148517625Y-72843375D01*
X148026418Y-72515161D01*
X147593256Y-72429000D01*
X147300744Y-72429000D01*
X146867582Y-72515161D01*
X146376375Y-72843375D01*
X146177000Y-73141761D01*
X145977625Y-72843375D01*
X145486418Y-72515161D01*
X145053256Y-72429000D01*
X144760744Y-72429000D01*
X144572913Y-72466362D01*
X144046964Y-71940413D01*
X144192273Y-72037505D01*
X144523750Y-72103440D01*
X145036250Y-72103440D01*
X145367727Y-72037505D01*
X145648739Y-71849739D01*
X145836505Y-71568727D01*
X145902440Y-71237250D01*
X145902440Y-70799750D01*
X145836505Y-70468273D01*
X145677964Y-70231000D01*
X145836505Y-69993727D01*
X145902440Y-69662250D01*
X145902440Y-69224750D01*
X145836505Y-68893273D01*
X145720561Y-68719750D01*
X145836505Y-68546227D01*
X145880310Y-68326000D01*
X146743000Y-68326000D01*
X146858262Y-69053735D01*
X147192765Y-69710234D01*
X147713766Y-70231235D01*
X148370265Y-70565738D01*
X149098000Y-70681000D01*
X149825735Y-70565738D01*
X150482234Y-70231235D01*
X151003235Y-69710234D01*
X151337738Y-69053735D01*
X151453000Y-68326000D01*
X151337738Y-67598265D01*
X151003235Y-66941766D01*
X150482234Y-66420765D01*
X149825735Y-66086262D01*
X149098000Y-65971000D01*
X148370265Y-66086262D01*
X147713766Y-66420765D01*
X147192765Y-66941766D01*
X146858262Y-67598265D01*
X146743000Y-68326000D01*
X145880310Y-68326000D01*
X145902440Y-68214750D01*
X145902440Y-67777250D01*
X145836505Y-67445773D01*
X145728057Y-67283469D01*
X145793327Y-67218198D01*
X145890000Y-66984809D01*
X145890000Y-66706750D01*
X145731250Y-66548000D01*
X144907000Y-66548000D01*
X144907000Y-66568000D01*
X144653000Y-66568000D01*
X144653000Y-66548000D01*
X143828750Y-66548000D01*
X143697357Y-66679393D01*
X143569684Y-66488316D01*
X143503938Y-66444386D01*
X142945551Y-65886000D01*
X143670000Y-65886000D01*
X143670000Y-66135250D01*
G36*
X135507000Y-88256440D02*
X135693085Y-88256440D01*
X135617000Y-88440126D01*
X135617000Y-88851874D01*
X135774569Y-89232280D01*
X136065720Y-89523431D01*
X136446126Y-89681000D01*
X136573448Y-89681000D01*
X136626600Y-89734152D01*
X136626601Y-92378444D01*
X136611174Y-92456000D01*
X136652303Y-92662768D01*
X136672286Y-92763228D01*
X136789466Y-92938600D01*
X136566311Y-92938600D01*
X136476280Y-92848569D01*
X136095874Y-92691000D01*
X135881196Y-92691000D01*
X135751431Y-92377720D01*
X135460280Y-92086569D01*
X135079874Y-91929000D01*
X134668126Y-91929000D01*
X134287720Y-92086569D01*
X133996569Y-92377720D01*
X133839000Y-92758126D01*
X133839000Y-92817799D01*
X133595720Y-92918569D01*
X133304569Y-93209720D01*
X133147000Y-93590126D01*
X133147000Y-93861560D01*
X133107000Y-93861560D01*
X132982000Y-93886424D01*
X132857000Y-93861560D01*
X132579440Y-93861560D01*
X132579440Y-93584000D01*
X132554576Y-93459000D01*
X132579440Y-93334000D01*
X132579440Y-92784000D01*
X132554576Y-92659000D01*
X132579440Y-92534000D01*
X132579440Y-92092310D01*
X132890126Y-92221000D01*
X133301874Y-92221000D01*
X133682280Y-92063431D01*
X133973431Y-91772280D01*
X134131000Y-91391874D01*
X134131000Y-91087726D01*
X134414126Y-91205000D01*
X134825874Y-91205000D01*
X135206280Y-91047431D01*
X135497431Y-90756280D01*
X135655000Y-90375874D01*
X135655000Y-89964126D01*
X135497431Y-89583720D01*
X135407400Y-89493689D01*
X135407400Y-89229350D01*
X135422826Y-89151799D01*
X135400848Y-89041308D01*
X135361715Y-88844572D01*
X135187684Y-88584116D01*
X135121938Y-88540186D01*
X134838192Y-88256440D01*
X135257000Y-88256440D01*
X135382000Y-88231576D01*
X135507000Y-88256440D01*
X135507000Y-88256440D01*
G37*
X135507000Y-88256440D02*
X135693085Y-88256440D01*
X135617000Y-88440126D01*
X135617000Y-88851874D01*
X135774569Y-89232280D01*
X136065720Y-89523431D01*
X136446126Y-89681000D01*
X136573448Y-89681000D01*
X136626600Y-89734152D01*
X136626601Y-92378444D01*
X136611174Y-92456000D01*
X136652303Y-92662768D01*
X136672286Y-92763228D01*
X136789466Y-92938600D01*
X136566311Y-92938600D01*
X136476280Y-92848569D01*
X136095874Y-92691000D01*
X135881196Y-92691000D01*
X135751431Y-92377720D01*
X135460280Y-92086569D01*
X135079874Y-91929000D01*
X134668126Y-91929000D01*
X134287720Y-92086569D01*
X133996569Y-92377720D01*
X133839000Y-92758126D01*
X133839000Y-92817799D01*
X133595720Y-92918569D01*
X133304569Y-93209720D01*
X133147000Y-93590126D01*
X133147000Y-93861560D01*
X133107000Y-93861560D01*
X132982000Y-93886424D01*
X132857000Y-93861560D01*
X132579440Y-93861560D01*
X132579440Y-93584000D01*
X132554576Y-93459000D01*
X132579440Y-93334000D01*
X132579440Y-92784000D01*
X132554576Y-92659000D01*
X132579440Y-92534000D01*
X132579440Y-92092310D01*
X132890126Y-92221000D01*
X133301874Y-92221000D01*
X133682280Y-92063431D01*
X133973431Y-91772280D01*
X134131000Y-91391874D01*
X134131000Y-91087726D01*
X134414126Y-91205000D01*
X134825874Y-91205000D01*
X135206280Y-91047431D01*
X135497431Y-90756280D01*
X135655000Y-90375874D01*
X135655000Y-89964126D01*
X135497431Y-89583720D01*
X135407400Y-89493689D01*
X135407400Y-89229350D01*
X135422826Y-89151799D01*
X135400848Y-89041308D01*
X135361715Y-88844572D01*
X135187684Y-88584116D01*
X135121938Y-88540186D01*
X134838192Y-88256440D01*
X135257000Y-88256440D01*
X135382000Y-88231576D01*
X135507000Y-88256440D01*
G36*
X127774471Y-88953313D02*
X128270000Y-89051880D01*
X128505000Y-89005136D01*
X128505000Y-89105874D01*
X128662569Y-89486280D01*
X128953720Y-89777431D01*
X129292837Y-89917898D01*
X129332309Y-89944272D01*
X129606441Y-89998800D01*
X129606446Y-89998800D01*
X129684560Y-90014338D01*
X129684560Y-90134000D01*
X129709424Y-90259000D01*
X129684560Y-90384000D01*
X129684560Y-90659746D01*
X129444618Y-90419804D01*
X129064212Y-90262235D01*
X128892783Y-90262235D01*
X128870786Y-90209130D01*
X128579635Y-89917979D01*
X128199229Y-89760410D01*
X127787481Y-89760410D01*
X127618027Y-89830600D01*
X127541440Y-89830600D01*
X127541440Y-89743000D01*
X127527502Y-89672927D01*
X127529000Y-89669310D01*
X127529000Y-89589250D01*
X127506353Y-89566603D01*
X127492157Y-89495235D01*
X127373731Y-89318000D01*
X127492157Y-89140765D01*
X127506353Y-89069397D01*
X127529000Y-89046750D01*
X127529000Y-88966690D01*
X127527502Y-88963073D01*
X127541440Y-88893000D01*
X127541440Y-88881600D01*
X127667145Y-88881600D01*
X127774471Y-88953313D01*
X127774471Y-88953313D01*
G37*
X127774471Y-88953313D02*
X128270000Y-89051880D01*
X128505000Y-89005136D01*
X128505000Y-89105874D01*
X128662569Y-89486280D01*
X128953720Y-89777431D01*
X129292837Y-89917898D01*
X129332309Y-89944272D01*
X129606441Y-89998800D01*
X129606446Y-89998800D01*
X129684560Y-90014338D01*
X129684560Y-90134000D01*
X129709424Y-90259000D01*
X129684560Y-90384000D01*
X129684560Y-90659746D01*
X129444618Y-90419804D01*
X129064212Y-90262235D01*
X128892783Y-90262235D01*
X128870786Y-90209130D01*
X128579635Y-89917979D01*
X128199229Y-89760410D01*
X127787481Y-89760410D01*
X127618027Y-89830600D01*
X127541440Y-89830600D01*
X127541440Y-89743000D01*
X127527502Y-89672927D01*
X127529000Y-89669310D01*
X127529000Y-89589250D01*
X127506353Y-89566603D01*
X127492157Y-89495235D01*
X127373731Y-89318000D01*
X127492157Y-89140765D01*
X127506353Y-89069397D01*
X127529000Y-89046750D01*
X127529000Y-88966690D01*
X127527502Y-88963073D01*
X127541440Y-88893000D01*
X127541440Y-88881600D01*
X127667145Y-88881600D01*
X127774471Y-88953313D01*
G36*
X128273560Y-71496000D02*
X128322843Y-71743765D01*
X128463191Y-71953809D01*
X128673235Y-72094157D01*
X128921000Y-72143440D01*
X130921000Y-72143440D01*
X131168765Y-72094157D01*
X131378809Y-71953809D01*
X131519157Y-71743765D01*
X131546600Y-71605798D01*
X131546601Y-82330890D01*
X131396280Y-82180569D01*
X131015874Y-82023000D01*
X130604126Y-82023000D01*
X130223720Y-82180569D01*
X130114000Y-82290289D01*
X130114000Y-75121074D01*
X130138879Y-74995999D01*
X130114000Y-74870924D01*
X130114000Y-74870920D01*
X130040313Y-74500471D01*
X129759618Y-74080382D01*
X129653579Y-74009529D01*
X129587580Y-73943530D01*
X129273529Y-73733688D01*
X128778000Y-73635121D01*
X128282471Y-73733688D01*
X127862382Y-74014382D01*
X127581688Y-74434471D01*
X127483121Y-74930000D01*
X127574001Y-75386884D01*
X127574000Y-83817950D01*
X127460421Y-83931529D01*
X127354382Y-84002382D01*
X127073687Y-84422472D01*
X127000000Y-84792921D01*
X127000000Y-84792925D01*
X126975121Y-84918000D01*
X127000000Y-85043075D01*
X127000000Y-85090000D01*
X126798920Y-85090000D01*
X126428471Y-85163687D01*
X126149569Y-85350044D01*
X126146198Y-85346673D01*
X125912809Y-85250000D01*
X125634750Y-85250000D01*
X125476000Y-85408750D01*
X125476000Y-86233000D01*
X125496000Y-86233000D01*
X125496000Y-86487000D01*
X125476000Y-86487000D01*
X125476000Y-86507000D01*
X125222000Y-86507000D01*
X125222000Y-86487000D01*
X125202000Y-86487000D01*
X125202000Y-86233000D01*
X125222000Y-86233000D01*
X125222000Y-85408750D01*
X125063250Y-85250000D01*
X124785191Y-85250000D01*
X124551802Y-85346673D01*
X124383800Y-85514674D01*
X124383800Y-84255708D01*
X124479000Y-84025874D01*
X124479000Y-83614126D01*
X124321431Y-83233720D01*
X124030280Y-82942569D01*
X123649874Y-82785000D01*
X123238126Y-82785000D01*
X122857720Y-82942569D01*
X122566569Y-83233720D01*
X122409000Y-83614126D01*
X122409000Y-84025874D01*
X122504200Y-84255708D01*
X122504201Y-88540490D01*
X122409000Y-88770326D01*
X122409000Y-89182074D01*
X122566569Y-89562480D01*
X122857720Y-89853631D01*
X123238126Y-90011200D01*
X123649874Y-90011200D01*
X124030280Y-89853631D01*
X124321431Y-89562480D01*
X124479000Y-89182074D01*
X124479000Y-88770326D01*
X124383800Y-88540492D01*
X124383800Y-87205326D01*
X124551802Y-87373327D01*
X124785191Y-87470000D01*
X124896114Y-87470000D01*
X124845843Y-87545235D01*
X124796560Y-87793000D01*
X124796560Y-88243000D01*
X124816451Y-88343000D01*
X124796560Y-88443000D01*
X124796560Y-88893000D01*
X124810498Y-88963073D01*
X124809000Y-88966690D01*
X124809000Y-89046750D01*
X124831647Y-89069397D01*
X124845843Y-89140765D01*
X124879408Y-89190998D01*
X124809000Y-89190998D01*
X124809000Y-89241634D01*
X124571516Y-89400316D01*
X124527586Y-89466063D01*
X123983465Y-90010184D01*
X123917716Y-90054116D01*
X123851957Y-90152532D01*
X123607969Y-90396520D01*
X123506072Y-90642521D01*
X122329616Y-89466065D01*
X122285684Y-89400316D01*
X122025228Y-89226285D01*
X121795552Y-89180600D01*
X121795551Y-89180600D01*
X121718000Y-89165174D01*
X121641440Y-89180403D01*
X121641440Y-89093000D01*
X121621549Y-88993000D01*
X121641440Y-88893000D01*
X121641440Y-88443000D01*
X121621549Y-88343000D01*
X121641440Y-88243000D01*
X121641440Y-87793000D01*
X121592157Y-87545235D01*
X121451809Y-87335191D01*
X121241765Y-87194843D01*
X120994000Y-87145560D01*
X119544000Y-87145560D01*
X119296235Y-87194843D01*
X119242721Y-87230600D01*
X119166908Y-87230600D01*
X117832538Y-85896231D01*
X117952691Y-85946000D01*
X118230750Y-85946000D01*
X118389500Y-85787250D01*
X118389500Y-84963000D01*
X118643500Y-84963000D01*
X118643500Y-85787250D01*
X118802250Y-85946000D01*
X119080309Y-85946000D01*
X119313698Y-85849327D01*
X119492327Y-85670699D01*
X119589000Y-85437310D01*
X119589000Y-85121750D01*
X119430250Y-84963000D01*
X118643500Y-84963000D01*
X118389500Y-84963000D01*
X118369500Y-84963000D01*
X118369500Y-84709000D01*
X118389500Y-84709000D01*
X118389500Y-84689000D01*
X118643500Y-84689000D01*
X118643500Y-84709000D01*
X119430250Y-84709000D01*
X119589000Y-84550250D01*
X119589000Y-84234690D01*
X119492327Y-84001301D01*
X119313698Y-83822673D01*
X119278745Y-83808195D01*
X119399000Y-83517874D01*
X119399000Y-83106126D01*
X119241431Y-82725720D01*
X118950280Y-82434569D01*
X118569874Y-82277000D01*
X118158126Y-82277000D01*
X117981436Y-82350187D01*
X118023505Y-82287227D01*
X118089440Y-81955750D01*
X118089440Y-81518250D01*
X118023505Y-81186773D01*
X117835739Y-80905761D01*
X117554727Y-80717995D01*
X117223250Y-80652060D01*
X116710750Y-80652060D01*
X116379273Y-80717995D01*
X116098261Y-80905761D01*
X116039416Y-80993829D01*
X116005377Y-81000600D01*
X116005376Y-81000600D01*
X115917639Y-81018052D01*
X115859735Y-80931393D01*
X115649691Y-80791045D01*
X115401926Y-80741762D01*
X114801926Y-80741762D01*
X114575554Y-80786790D01*
X114573641Y-80777174D01*
X114399610Y-80516718D01*
X114333864Y-80472788D01*
X113629489Y-79768413D01*
X113844639Y-79446418D01*
X113959892Y-78867000D01*
X113844639Y-78287582D01*
X113516425Y-77796375D01*
X113197322Y-77583157D01*
X113327158Y-77522183D01*
X113717445Y-77093924D01*
X113887276Y-76683890D01*
X113765955Y-76454000D01*
X112572800Y-76454000D01*
X112572800Y-76474000D01*
X112318800Y-76474000D01*
X112318800Y-76454000D01*
X110032800Y-76454000D01*
X110032800Y-76474000D01*
X109778800Y-76474000D01*
X109778800Y-76454000D01*
X109758800Y-76454000D01*
X109758800Y-76200000D01*
X109778800Y-76200000D01*
X109778800Y-76180000D01*
X110032800Y-76180000D01*
X110032800Y-76200000D01*
X112318800Y-76200000D01*
X112318800Y-76180000D01*
X112572800Y-76180000D01*
X112572800Y-76200000D01*
X113765955Y-76200000D01*
X113887276Y-75970110D01*
X113717445Y-75560076D01*
X113482931Y-75302745D01*
X117067861Y-75302745D01*
X117141995Y-75548864D01*
X117679223Y-75741965D01*
X118249454Y-75714778D01*
X118650005Y-75548864D01*
X118724139Y-75302745D01*
X117896000Y-74474605D01*
X117067861Y-75302745D01*
X113482931Y-75302745D01*
X113327158Y-75131817D01*
X113197322Y-75070843D01*
X113218039Y-75057000D01*
X113996295Y-75057000D01*
X114121370Y-75081879D01*
X114246445Y-75057000D01*
X114246450Y-75057000D01*
X114616899Y-74983313D01*
X115036988Y-74702618D01*
X115107841Y-74596579D01*
X115626197Y-74078223D01*
X116449035Y-74078223D01*
X116476222Y-74648454D01*
X116642136Y-75049005D01*
X116888255Y-75123139D01*
X117716395Y-74295000D01*
X118075605Y-74295000D01*
X118903745Y-75123139D01*
X118951307Y-75108813D01*
X118997843Y-75342765D01*
X119138191Y-75552809D01*
X119348235Y-75693157D01*
X119596000Y-75742440D01*
X121196000Y-75742440D01*
X121443765Y-75693157D01*
X121653809Y-75552809D01*
X121794157Y-75342765D01*
X121843440Y-75095000D01*
X121843440Y-73495000D01*
X121794157Y-73247235D01*
X121653809Y-73037191D01*
X121443765Y-72896843D01*
X121196000Y-72847560D01*
X119596000Y-72847560D01*
X119348235Y-72896843D01*
X119138191Y-73037191D01*
X118997843Y-73247235D01*
X118951307Y-73481187D01*
X118903745Y-73466861D01*
X118075605Y-74295000D01*
X117716395Y-74295000D01*
X116888255Y-73466861D01*
X116642136Y-73540995D01*
X116449035Y-74078223D01*
X115626197Y-74078223D01*
X116417165Y-73287255D01*
X117067861Y-73287255D01*
X117896000Y-74115395D01*
X118724139Y-73287255D01*
X118650005Y-73041136D01*
X118112777Y-72848035D01*
X117542546Y-72875222D01*
X117141995Y-73041136D01*
X117067861Y-73287255D01*
X116417165Y-73287255D01*
X118558420Y-71146000D01*
X121973560Y-71146000D01*
X121973560Y-72646000D01*
X122022843Y-72893765D01*
X122163191Y-73103809D01*
X122351000Y-73229300D01*
X122351001Y-74727906D01*
X122326121Y-74852986D01*
X122424688Y-75348515D01*
X122634530Y-75662566D01*
X122634532Y-75662568D01*
X122705383Y-75768604D01*
X122811419Y-75839455D01*
X122888434Y-75916470D01*
X123202485Y-76126312D01*
X123698013Y-76224879D01*
X124193542Y-76126312D01*
X124613632Y-75845618D01*
X124894326Y-75425528D01*
X124992893Y-74929999D01*
X124894326Y-74434471D01*
X124891000Y-74429493D01*
X124891000Y-73229300D01*
X125078809Y-73103809D01*
X125219157Y-72893765D01*
X125230687Y-72835800D01*
X125455091Y-72835800D01*
X125651126Y-72917000D01*
X126062874Y-72917000D01*
X126443280Y-72759431D01*
X126734431Y-72468280D01*
X126892000Y-72087874D01*
X126892000Y-71676126D01*
X126734431Y-71295720D01*
X126443280Y-71004569D01*
X126062874Y-70847000D01*
X125651126Y-70847000D01*
X125387493Y-70956200D01*
X125230687Y-70956200D01*
X125219157Y-70898235D01*
X125118073Y-70746953D01*
X125159327Y-70705699D01*
X125256000Y-70472310D01*
X125256000Y-69881750D01*
X125097250Y-69723000D01*
X123748000Y-69723000D01*
X123748000Y-69743000D01*
X123494000Y-69743000D01*
X123494000Y-69723000D01*
X122144750Y-69723000D01*
X121986000Y-69881750D01*
X121986000Y-70472310D01*
X122082673Y-70705699D01*
X122123927Y-70746953D01*
X122022843Y-70898235D01*
X121973560Y-71146000D01*
X118558420Y-71146000D01*
X119260584Y-70443837D01*
X119366618Y-70372988D01*
X119437467Y-70266955D01*
X119437470Y-70266952D01*
X119616178Y-69999495D01*
X119647313Y-69952899D01*
X119706705Y-69654314D01*
X119774209Y-69609209D01*
X119783035Y-69596000D01*
X120322925Y-69596000D01*
X120448000Y-69620879D01*
X120573075Y-69596000D01*
X120573080Y-69596000D01*
X120943529Y-69522313D01*
X121363618Y-69241618D01*
X121434471Y-69135579D01*
X122004051Y-68566000D01*
X122049661Y-68566000D01*
X121986000Y-68719690D01*
X121986000Y-69310250D01*
X122144750Y-69469000D01*
X123494000Y-69469000D01*
X123494000Y-69449000D01*
X123748000Y-69449000D01*
X123748000Y-69469000D01*
X125097250Y-69469000D01*
X125256000Y-69310250D01*
X125256000Y-68719690D01*
X125192339Y-68566000D01*
X125765925Y-68566000D01*
X125891000Y-68590879D01*
X126016075Y-68566000D01*
X126016080Y-68566000D01*
X126386529Y-68492313D01*
X126806618Y-68211618D01*
X126860486Y-68130999D01*
X128273560Y-68130999D01*
X128273560Y-71496000D01*
X128273560Y-71496000D01*
G37*
X128273560Y-71496000D02*
X128322843Y-71743765D01*
X128463191Y-71953809D01*
X128673235Y-72094157D01*
X128921000Y-72143440D01*
X130921000Y-72143440D01*
X131168765Y-72094157D01*
X131378809Y-71953809D01*
X131519157Y-71743765D01*
X131546600Y-71605798D01*
X131546601Y-82330890D01*
X131396280Y-82180569D01*
X131015874Y-82023000D01*
X130604126Y-82023000D01*
X130223720Y-82180569D01*
X130114000Y-82290289D01*
X130114000Y-75121074D01*
X130138879Y-74995999D01*
X130114000Y-74870924D01*
X130114000Y-74870920D01*
X130040313Y-74500471D01*
X129759618Y-74080382D01*
X129653579Y-74009529D01*
X129587580Y-73943530D01*
X129273529Y-73733688D01*
X128778000Y-73635121D01*
X128282471Y-73733688D01*
X127862382Y-74014382D01*
X127581688Y-74434471D01*
X127483121Y-74930000D01*
X127574001Y-75386884D01*
X127574000Y-83817950D01*
X127460421Y-83931529D01*
X127354382Y-84002382D01*
X127073687Y-84422472D01*
X127000000Y-84792921D01*
X127000000Y-84792925D01*
X126975121Y-84918000D01*
X127000000Y-85043075D01*
X127000000Y-85090000D01*
X126798920Y-85090000D01*
X126428471Y-85163687D01*
X126149569Y-85350044D01*
X126146198Y-85346673D01*
X125912809Y-85250000D01*
X125634750Y-85250000D01*
X125476000Y-85408750D01*
X125476000Y-86233000D01*
X125496000Y-86233000D01*
X125496000Y-86487000D01*
X125476000Y-86487000D01*
X125476000Y-86507000D01*
X125222000Y-86507000D01*
X125222000Y-86487000D01*
X125202000Y-86487000D01*
X125202000Y-86233000D01*
X125222000Y-86233000D01*
X125222000Y-85408750D01*
X125063250Y-85250000D01*
X124785191Y-85250000D01*
X124551802Y-85346673D01*
X124383800Y-85514674D01*
X124383800Y-84255708D01*
X124479000Y-84025874D01*
X124479000Y-83614126D01*
X124321431Y-83233720D01*
X124030280Y-82942569D01*
X123649874Y-82785000D01*
X123238126Y-82785000D01*
X122857720Y-82942569D01*
X122566569Y-83233720D01*
X122409000Y-83614126D01*
X122409000Y-84025874D01*
X122504200Y-84255708D01*
X122504201Y-88540490D01*
X122409000Y-88770326D01*
X122409000Y-89182074D01*
X122566569Y-89562480D01*
X122857720Y-89853631D01*
X123238126Y-90011200D01*
X123649874Y-90011200D01*
X124030280Y-89853631D01*
X124321431Y-89562480D01*
X124479000Y-89182074D01*
X124479000Y-88770326D01*
X124383800Y-88540492D01*
X124383800Y-87205326D01*
X124551802Y-87373327D01*
X124785191Y-87470000D01*
X124896114Y-87470000D01*
X124845843Y-87545235D01*
X124796560Y-87793000D01*
X124796560Y-88243000D01*
X124816451Y-88343000D01*
X124796560Y-88443000D01*
X124796560Y-88893000D01*
X124810498Y-88963073D01*
X124809000Y-88966690D01*
X124809000Y-89046750D01*
X124831647Y-89069397D01*
X124845843Y-89140765D01*
X124879408Y-89190998D01*
X124809000Y-89190998D01*
X124809000Y-89241634D01*
X124571516Y-89400316D01*
X124527586Y-89466063D01*
X123983465Y-90010184D01*
X123917716Y-90054116D01*
X123851957Y-90152532D01*
X123607969Y-90396520D01*
X123506072Y-90642521D01*
X122329616Y-89466065D01*
X122285684Y-89400316D01*
X122025228Y-89226285D01*
X121795552Y-89180600D01*
X121795551Y-89180600D01*
X121718000Y-89165174D01*
X121641440Y-89180403D01*
X121641440Y-89093000D01*
X121621549Y-88993000D01*
X121641440Y-88893000D01*
X121641440Y-88443000D01*
X121621549Y-88343000D01*
X121641440Y-88243000D01*
X121641440Y-87793000D01*
X121592157Y-87545235D01*
X121451809Y-87335191D01*
X121241765Y-87194843D01*
X120994000Y-87145560D01*
X119544000Y-87145560D01*
X119296235Y-87194843D01*
X119242721Y-87230600D01*
X119166908Y-87230600D01*
X117832538Y-85896231D01*
X117952691Y-85946000D01*
X118230750Y-85946000D01*
X118389500Y-85787250D01*
X118389500Y-84963000D01*
X118643500Y-84963000D01*
X118643500Y-85787250D01*
X118802250Y-85946000D01*
X119080309Y-85946000D01*
X119313698Y-85849327D01*
X119492327Y-85670699D01*
X119589000Y-85437310D01*
X119589000Y-85121750D01*
X119430250Y-84963000D01*
X118643500Y-84963000D01*
X118389500Y-84963000D01*
X118369500Y-84963000D01*
X118369500Y-84709000D01*
X118389500Y-84709000D01*
X118389500Y-84689000D01*
X118643500Y-84689000D01*
X118643500Y-84709000D01*
X119430250Y-84709000D01*
X119589000Y-84550250D01*
X119589000Y-84234690D01*
X119492327Y-84001301D01*
X119313698Y-83822673D01*
X119278745Y-83808195D01*
X119399000Y-83517874D01*
X119399000Y-83106126D01*
X119241431Y-82725720D01*
X118950280Y-82434569D01*
X118569874Y-82277000D01*
X118158126Y-82277000D01*
X117981436Y-82350187D01*
X118023505Y-82287227D01*
X118089440Y-81955750D01*
X118089440Y-81518250D01*
X118023505Y-81186773D01*
X117835739Y-80905761D01*
X117554727Y-80717995D01*
X117223250Y-80652060D01*
X116710750Y-80652060D01*
X116379273Y-80717995D01*
X116098261Y-80905761D01*
X116039416Y-80993829D01*
X116005377Y-81000600D01*
X116005376Y-81000600D01*
X115917639Y-81018052D01*
X115859735Y-80931393D01*
X115649691Y-80791045D01*
X115401926Y-80741762D01*
X114801926Y-80741762D01*
X114575554Y-80786790D01*
X114573641Y-80777174D01*
X114399610Y-80516718D01*
X114333864Y-80472788D01*
X113629489Y-79768413D01*
X113844639Y-79446418D01*
X113959892Y-78867000D01*
X113844639Y-78287582D01*
X113516425Y-77796375D01*
X113197322Y-77583157D01*
X113327158Y-77522183D01*
X113717445Y-77093924D01*
X113887276Y-76683890D01*
X113765955Y-76454000D01*
X112572800Y-76454000D01*
X112572800Y-76474000D01*
X112318800Y-76474000D01*
X112318800Y-76454000D01*
X110032800Y-76454000D01*
X110032800Y-76474000D01*
X109778800Y-76474000D01*
X109778800Y-76454000D01*
X109758800Y-76454000D01*
X109758800Y-76200000D01*
X109778800Y-76200000D01*
X109778800Y-76180000D01*
X110032800Y-76180000D01*
X110032800Y-76200000D01*
X112318800Y-76200000D01*
X112318800Y-76180000D01*
X112572800Y-76180000D01*
X112572800Y-76200000D01*
X113765955Y-76200000D01*
X113887276Y-75970110D01*
X113717445Y-75560076D01*
X113482931Y-75302745D01*
X117067861Y-75302745D01*
X117141995Y-75548864D01*
X117679223Y-75741965D01*
X118249454Y-75714778D01*
X118650005Y-75548864D01*
X118724139Y-75302745D01*
X117896000Y-74474605D01*
X117067861Y-75302745D01*
X113482931Y-75302745D01*
X113327158Y-75131817D01*
X113197322Y-75070843D01*
X113218039Y-75057000D01*
X113996295Y-75057000D01*
X114121370Y-75081879D01*
X114246445Y-75057000D01*
X114246450Y-75057000D01*
X114616899Y-74983313D01*
X115036988Y-74702618D01*
X115107841Y-74596579D01*
X115626197Y-74078223D01*
X116449035Y-74078223D01*
X116476222Y-74648454D01*
X116642136Y-75049005D01*
X116888255Y-75123139D01*
X117716395Y-74295000D01*
X118075605Y-74295000D01*
X118903745Y-75123139D01*
X118951307Y-75108813D01*
X118997843Y-75342765D01*
X119138191Y-75552809D01*
X119348235Y-75693157D01*
X119596000Y-75742440D01*
X121196000Y-75742440D01*
X121443765Y-75693157D01*
X121653809Y-75552809D01*
X121794157Y-75342765D01*
X121843440Y-75095000D01*
X121843440Y-73495000D01*
X121794157Y-73247235D01*
X121653809Y-73037191D01*
X121443765Y-72896843D01*
X121196000Y-72847560D01*
X119596000Y-72847560D01*
X119348235Y-72896843D01*
X119138191Y-73037191D01*
X118997843Y-73247235D01*
X118951307Y-73481187D01*
X118903745Y-73466861D01*
X118075605Y-74295000D01*
X117716395Y-74295000D01*
X116888255Y-73466861D01*
X116642136Y-73540995D01*
X116449035Y-74078223D01*
X115626197Y-74078223D01*
X116417165Y-73287255D01*
X117067861Y-73287255D01*
X117896000Y-74115395D01*
X118724139Y-73287255D01*
X118650005Y-73041136D01*
X118112777Y-72848035D01*
X117542546Y-72875222D01*
X117141995Y-73041136D01*
X117067861Y-73287255D01*
X116417165Y-73287255D01*
X118558420Y-71146000D01*
X121973560Y-71146000D01*
X121973560Y-72646000D01*
X122022843Y-72893765D01*
X122163191Y-73103809D01*
X122351000Y-73229300D01*
X122351001Y-74727906D01*
X122326121Y-74852986D01*
X122424688Y-75348515D01*
X122634530Y-75662566D01*
X122634532Y-75662568D01*
X122705383Y-75768604D01*
X122811419Y-75839455D01*
X122888434Y-75916470D01*
X123202485Y-76126312D01*
X123698013Y-76224879D01*
X124193542Y-76126312D01*
X124613632Y-75845618D01*
X124894326Y-75425528D01*
X124992893Y-74929999D01*
X124894326Y-74434471D01*
X124891000Y-74429493D01*
X124891000Y-73229300D01*
X125078809Y-73103809D01*
X125219157Y-72893765D01*
X125230687Y-72835800D01*
X125455091Y-72835800D01*
X125651126Y-72917000D01*
X126062874Y-72917000D01*
X126443280Y-72759431D01*
X126734431Y-72468280D01*
X126892000Y-72087874D01*
X126892000Y-71676126D01*
X126734431Y-71295720D01*
X126443280Y-71004569D01*
X126062874Y-70847000D01*
X125651126Y-70847000D01*
X125387493Y-70956200D01*
X125230687Y-70956200D01*
X125219157Y-70898235D01*
X125118073Y-70746953D01*
X125159327Y-70705699D01*
X125256000Y-70472310D01*
X125256000Y-69881750D01*
X125097250Y-69723000D01*
X123748000Y-69723000D01*
X123748000Y-69743000D01*
X123494000Y-69743000D01*
X123494000Y-69723000D01*
X122144750Y-69723000D01*
X121986000Y-69881750D01*
X121986000Y-70472310D01*
X122082673Y-70705699D01*
X122123927Y-70746953D01*
X122022843Y-70898235D01*
X121973560Y-71146000D01*
X118558420Y-71146000D01*
X119260584Y-70443837D01*
X119366618Y-70372988D01*
X119437467Y-70266955D01*
X119437470Y-70266952D01*
X119616178Y-69999495D01*
X119647313Y-69952899D01*
X119706705Y-69654314D01*
X119774209Y-69609209D01*
X119783035Y-69596000D01*
X120322925Y-69596000D01*
X120448000Y-69620879D01*
X120573075Y-69596000D01*
X120573080Y-69596000D01*
X120943529Y-69522313D01*
X121363618Y-69241618D01*
X121434471Y-69135579D01*
X122004051Y-68566000D01*
X122049661Y-68566000D01*
X121986000Y-68719690D01*
X121986000Y-69310250D01*
X122144750Y-69469000D01*
X123494000Y-69469000D01*
X123494000Y-69449000D01*
X123748000Y-69449000D01*
X123748000Y-69469000D01*
X125097250Y-69469000D01*
X125256000Y-69310250D01*
X125256000Y-68719690D01*
X125192339Y-68566000D01*
X125765925Y-68566000D01*
X125891000Y-68590879D01*
X126016075Y-68566000D01*
X126016080Y-68566000D01*
X126386529Y-68492313D01*
X126806618Y-68211618D01*
X126860486Y-68130999D01*
X128273560Y-68130999D01*
X128273560Y-71496000D01*
G36*
X141180972Y-90464715D02*
X141200136Y-90468527D01*
X141152734Y-90500200D01*
X140951021Y-90500200D01*
X140973112Y-90467138D01*
X141057821Y-90382429D01*
X141180972Y-90464715D01*
X141180972Y-90464715D01*
G37*
X141180972Y-90464715D02*
X141200136Y-90468527D01*
X141152734Y-90500200D01*
X140951021Y-90500200D01*
X140973112Y-90467138D01*
X141057821Y-90382429D01*
X141180972Y-90464715D01*
G36*
X108835175Y-79937625D02*
X109326382Y-80265839D01*
X109759544Y-80352000D01*
X110052056Y-80352000D01*
X110485218Y-80265839D01*
X110571896Y-80207923D01*
X111105734Y-80741762D01*
X110991926Y-80741762D01*
X110744161Y-80791045D01*
X110534117Y-80931393D01*
X110393769Y-81141437D01*
X110344486Y-81389202D01*
X110344486Y-82939202D01*
X110355140Y-82992762D01*
X110253110Y-82950500D01*
X109937550Y-82950500D01*
X109778800Y-83109250D01*
X109778800Y-83896000D01*
X110603050Y-83896000D01*
X110709471Y-83789579D01*
X110724243Y-83811686D01*
X110789989Y-83855616D01*
X112252972Y-85318600D01*
X111964551Y-85318600D01*
X111887000Y-85303174D01*
X111809449Y-85318600D01*
X111809448Y-85318600D01*
X111579772Y-85364285D01*
X111319316Y-85538316D01*
X111275386Y-85604063D01*
X110750065Y-86129384D01*
X110697369Y-86164595D01*
X110708305Y-86148227D01*
X110774240Y-85816750D01*
X110774240Y-85379250D01*
X110708305Y-85047773D01*
X110599857Y-84885469D01*
X110665127Y-84820198D01*
X110761800Y-84586809D01*
X110761800Y-84308750D01*
X110603050Y-84150000D01*
X109778800Y-84150000D01*
X109778800Y-84170000D01*
X109524800Y-84170000D01*
X109524800Y-84150000D01*
X109504800Y-84150000D01*
X109504800Y-83896000D01*
X109524800Y-83896000D01*
X109524800Y-83109250D01*
X109366050Y-82950500D01*
X109050490Y-82950500D01*
X108817101Y-83047173D01*
X108638473Y-83225802D01*
X108558000Y-83420081D01*
X108558000Y-79522803D01*
X108835175Y-79937625D01*
X108835175Y-79937625D01*
G37*
X108835175Y-79937625D02*
X109326382Y-80265839D01*
X109759544Y-80352000D01*
X110052056Y-80352000D01*
X110485218Y-80265839D01*
X110571896Y-80207923D01*
X111105734Y-80741762D01*
X110991926Y-80741762D01*
X110744161Y-80791045D01*
X110534117Y-80931393D01*
X110393769Y-81141437D01*
X110344486Y-81389202D01*
X110344486Y-82939202D01*
X110355140Y-82992762D01*
X110253110Y-82950500D01*
X109937550Y-82950500D01*
X109778800Y-83109250D01*
X109778800Y-83896000D01*
X110603050Y-83896000D01*
X110709471Y-83789579D01*
X110724243Y-83811686D01*
X110789989Y-83855616D01*
X112252972Y-85318600D01*
X111964551Y-85318600D01*
X111887000Y-85303174D01*
X111809449Y-85318600D01*
X111809448Y-85318600D01*
X111579772Y-85364285D01*
X111319316Y-85538316D01*
X111275386Y-85604063D01*
X110750065Y-86129384D01*
X110697369Y-86164595D01*
X110708305Y-86148227D01*
X110774240Y-85816750D01*
X110774240Y-85379250D01*
X110708305Y-85047773D01*
X110599857Y-84885469D01*
X110665127Y-84820198D01*
X110761800Y-84586809D01*
X110761800Y-84308750D01*
X110603050Y-84150000D01*
X109778800Y-84150000D01*
X109778800Y-84170000D01*
X109524800Y-84170000D01*
X109524800Y-84150000D01*
X109504800Y-84150000D01*
X109504800Y-83896000D01*
X109524800Y-83896000D01*
X109524800Y-83109250D01*
X109366050Y-82950500D01*
X109050490Y-82950500D01*
X108817101Y-83047173D01*
X108638473Y-83225802D01*
X108558000Y-83420081D01*
X108558000Y-79522803D01*
X108835175Y-79937625D01*
G36*
X133148843Y-72893765D02*
X133289191Y-73103809D01*
X133466040Y-73221977D01*
X133477000Y-73277075D01*
X133477000Y-73277079D01*
X133550687Y-73647528D01*
X133831382Y-74067618D01*
X133937421Y-74138471D01*
X136017001Y-76218052D01*
X136017001Y-76357435D01*
X135888843Y-76549235D01*
X135842307Y-76783187D01*
X135794745Y-76768861D01*
X134966605Y-77597000D01*
X135794745Y-78425139D01*
X135842307Y-78410813D01*
X135888843Y-78644765D01*
X136029191Y-78854809D01*
X136239235Y-78995157D01*
X136487000Y-79044440D01*
X136661849Y-79044440D01*
X136536569Y-79169720D01*
X136379000Y-79550126D01*
X136379000Y-79961874D01*
X136536569Y-80342280D01*
X136594601Y-80400312D01*
X136594600Y-85361560D01*
X136307000Y-85361560D01*
X136182000Y-85386424D01*
X136057000Y-85361560D01*
X135507000Y-85361560D01*
X135382000Y-85386424D01*
X135257000Y-85361560D01*
X134707000Y-85361560D01*
X134582000Y-85386424D01*
X134457000Y-85361560D01*
X134231000Y-85361560D01*
X134231000Y-84998062D01*
X134459027Y-84952705D01*
X134593768Y-84862674D01*
X134820526Y-84956600D01*
X135232274Y-84956600D01*
X135612680Y-84799031D01*
X135903831Y-84507880D01*
X136061400Y-84127474D01*
X136061400Y-83715726D01*
X135903831Y-83335320D01*
X135612680Y-83044169D01*
X135232274Y-82886600D01*
X134820526Y-82886600D01*
X134640701Y-82961086D01*
X134459027Y-82839695D01*
X134127550Y-82773760D01*
X133690050Y-82773760D01*
X133358573Y-82839695D01*
X133121400Y-82998169D01*
X133121400Y-78604745D01*
X133958861Y-78604745D01*
X134032995Y-78850864D01*
X134570223Y-79043965D01*
X135140454Y-79016778D01*
X135541005Y-78850864D01*
X135615139Y-78604745D01*
X134787000Y-77776605D01*
X133958861Y-78604745D01*
X133121400Y-78604745D01*
X133121400Y-77380223D01*
X133340035Y-77380223D01*
X133367222Y-77950454D01*
X133533136Y-78351005D01*
X133779255Y-78425139D01*
X134607395Y-77597000D01*
X133779255Y-76768861D01*
X133533136Y-76842995D01*
X133340035Y-77380223D01*
X133121400Y-77380223D01*
X133121400Y-76589255D01*
X133958861Y-76589255D01*
X134787000Y-77417395D01*
X135615139Y-76589255D01*
X135541005Y-76343136D01*
X135003777Y-76150035D01*
X134433546Y-76177222D01*
X134032995Y-76343136D01*
X133958861Y-76589255D01*
X133121400Y-76589255D01*
X133121400Y-72755798D01*
X133148843Y-72893765D01*
X133148843Y-72893765D01*
G37*
X133148843Y-72893765D02*
X133289191Y-73103809D01*
X133466040Y-73221977D01*
X133477000Y-73277075D01*
X133477000Y-73277079D01*
X133550687Y-73647528D01*
X133831382Y-74067618D01*
X133937421Y-74138471D01*
X136017001Y-76218052D01*
X136017001Y-76357435D01*
X135888843Y-76549235D01*
X135842307Y-76783187D01*
X135794745Y-76768861D01*
X134966605Y-77597000D01*
X135794745Y-78425139D01*
X135842307Y-78410813D01*
X135888843Y-78644765D01*
X136029191Y-78854809D01*
X136239235Y-78995157D01*
X136487000Y-79044440D01*
X136661849Y-79044440D01*
X136536569Y-79169720D01*
X136379000Y-79550126D01*
X136379000Y-79961874D01*
X136536569Y-80342280D01*
X136594601Y-80400312D01*
X136594600Y-85361560D01*
X136307000Y-85361560D01*
X136182000Y-85386424D01*
X136057000Y-85361560D01*
X135507000Y-85361560D01*
X135382000Y-85386424D01*
X135257000Y-85361560D01*
X134707000Y-85361560D01*
X134582000Y-85386424D01*
X134457000Y-85361560D01*
X134231000Y-85361560D01*
X134231000Y-84998062D01*
X134459027Y-84952705D01*
X134593768Y-84862674D01*
X134820526Y-84956600D01*
X135232274Y-84956600D01*
X135612680Y-84799031D01*
X135903831Y-84507880D01*
X136061400Y-84127474D01*
X136061400Y-83715726D01*
X135903831Y-83335320D01*
X135612680Y-83044169D01*
X135232274Y-82886600D01*
X134820526Y-82886600D01*
X134640701Y-82961086D01*
X134459027Y-82839695D01*
X134127550Y-82773760D01*
X133690050Y-82773760D01*
X133358573Y-82839695D01*
X133121400Y-82998169D01*
X133121400Y-78604745D01*
X133958861Y-78604745D01*
X134032995Y-78850864D01*
X134570223Y-79043965D01*
X135140454Y-79016778D01*
X135541005Y-78850864D01*
X135615139Y-78604745D01*
X134787000Y-77776605D01*
X133958861Y-78604745D01*
X133121400Y-78604745D01*
X133121400Y-77380223D01*
X133340035Y-77380223D01*
X133367222Y-77950454D01*
X133533136Y-78351005D01*
X133779255Y-78425139D01*
X134607395Y-77597000D01*
X133779255Y-76768861D01*
X133533136Y-76842995D01*
X133340035Y-77380223D01*
X133121400Y-77380223D01*
X133121400Y-76589255D01*
X133958861Y-76589255D01*
X134787000Y-77417395D01*
X135615139Y-76589255D01*
X135541005Y-76343136D01*
X135003777Y-76150035D01*
X134433546Y-76177222D01*
X134032995Y-76343136D01*
X133958861Y-76589255D01*
X133121400Y-76589255D01*
X133121400Y-72755798D01*
X133148843Y-72893765D01*
G36*
X141881008Y-67048560D02*
X140047000Y-67048560D01*
X139799235Y-67097843D01*
X139589191Y-67238191D01*
X139448843Y-67448235D01*
X139399560Y-67696000D01*
X139399560Y-71496000D01*
X139448843Y-71743765D01*
X139589191Y-71953809D01*
X139799235Y-72094157D01*
X140047000Y-72143440D01*
X142047000Y-72143440D01*
X142219106Y-72109206D01*
X142260285Y-72316227D01*
X142434316Y-72576684D01*
X142500065Y-72620616D01*
X143459362Y-73579913D01*
X143392908Y-73914000D01*
X143488903Y-74396600D01*
X137787651Y-74396600D01*
X136320987Y-72929937D01*
X136345157Y-72893765D01*
X136394440Y-72646000D01*
X136394440Y-71146000D01*
X136345157Y-70898235D01*
X136244073Y-70746953D01*
X136285327Y-70705699D01*
X136382000Y-70472310D01*
X136382000Y-69881750D01*
X136223250Y-69723000D01*
X134874000Y-69723000D01*
X134874000Y-69743000D01*
X134620000Y-69743000D01*
X134620000Y-69723000D01*
X133270750Y-69723000D01*
X133112000Y-69881750D01*
X133112000Y-70180289D01*
X132920280Y-69988569D01*
X132539874Y-69831000D01*
X132128126Y-69831000D01*
X131747720Y-69988569D01*
X131568440Y-70167849D01*
X131568440Y-68130999D01*
X133116467Y-68130999D01*
X133148843Y-68293765D01*
X133249927Y-68445047D01*
X133208673Y-68486301D01*
X133112000Y-68719690D01*
X133112000Y-69310250D01*
X133270750Y-69469000D01*
X134620000Y-69469000D01*
X134620000Y-69449000D01*
X134874000Y-69449000D01*
X134874000Y-69469000D01*
X136223250Y-69469000D01*
X136382000Y-69310250D01*
X136382000Y-68719690D01*
X136285327Y-68486301D01*
X136244073Y-68445047D01*
X136345157Y-68293765D01*
X136394440Y-68046000D01*
X136394440Y-66660989D01*
X141493438Y-66660989D01*
X141881008Y-67048560D01*
X141881008Y-67048560D01*
G37*
X141881008Y-67048560D02*
X140047000Y-67048560D01*
X139799235Y-67097843D01*
X139589191Y-67238191D01*
X139448843Y-67448235D01*
X139399560Y-67696000D01*
X139399560Y-71496000D01*
X139448843Y-71743765D01*
X139589191Y-71953809D01*
X139799235Y-72094157D01*
X140047000Y-72143440D01*
X142047000Y-72143440D01*
X142219106Y-72109206D01*
X142260285Y-72316227D01*
X142434316Y-72576684D01*
X142500065Y-72620616D01*
X143459362Y-73579913D01*
X143392908Y-73914000D01*
X143488903Y-74396600D01*
X137787651Y-74396600D01*
X136320987Y-72929937D01*
X136345157Y-72893765D01*
X136394440Y-72646000D01*
X136394440Y-71146000D01*
X136345157Y-70898235D01*
X136244073Y-70746953D01*
X136285327Y-70705699D01*
X136382000Y-70472310D01*
X136382000Y-69881750D01*
X136223250Y-69723000D01*
X134874000Y-69723000D01*
X134874000Y-69743000D01*
X134620000Y-69743000D01*
X134620000Y-69723000D01*
X133270750Y-69723000D01*
X133112000Y-69881750D01*
X133112000Y-70180289D01*
X132920280Y-69988569D01*
X132539874Y-69831000D01*
X132128126Y-69831000D01*
X131747720Y-69988569D01*
X131568440Y-70167849D01*
X131568440Y-68130999D01*
X133116467Y-68130999D01*
X133148843Y-68293765D01*
X133249927Y-68445047D01*
X133208673Y-68486301D01*
X133112000Y-68719690D01*
X133112000Y-69310250D01*
X133270750Y-69469000D01*
X134620000Y-69469000D01*
X134620000Y-69449000D01*
X134874000Y-69449000D01*
X134874000Y-69469000D01*
X136223250Y-69469000D01*
X136382000Y-69310250D01*
X136382000Y-68719690D01*
X136285327Y-68486301D01*
X136244073Y-68445047D01*
X136345157Y-68293765D01*
X136394440Y-68046000D01*
X136394440Y-66660989D01*
X141493438Y-66660989D01*
X141881008Y-67048560D01*
G36*
X116717666Y-66572783D02*
X116651917Y-66616715D01*
X116477886Y-66877172D01*
X116456497Y-66984705D01*
X116233177Y-66904435D01*
X115662946Y-66931622D01*
X115262395Y-67097536D01*
X115188261Y-67343655D01*
X116016400Y-68171795D01*
X116030542Y-68157652D01*
X116210148Y-68337258D01*
X116196005Y-68351400D01*
X116210148Y-68365542D01*
X116030543Y-68545148D01*
X116016400Y-68531005D01*
X115188261Y-69359145D01*
X115262395Y-69605264D01*
X115652343Y-69745427D01*
X113795171Y-71602600D01*
X111329550Y-71602600D01*
X111251999Y-71587174D01*
X111174448Y-71602600D01*
X110944772Y-71648285D01*
X110944771Y-71648286D01*
X110944770Y-71648286D01*
X110903105Y-71676126D01*
X110684316Y-71822316D01*
X110640386Y-71888062D01*
X110238888Y-72289560D01*
X109055800Y-72289560D01*
X108808035Y-72338843D01*
X108597991Y-72479191D01*
X108558000Y-72539041D01*
X108558000Y-68326000D01*
X108643000Y-68326000D01*
X108758262Y-69053735D01*
X109092765Y-69710234D01*
X109613766Y-70231235D01*
X110270265Y-70565738D01*
X110998000Y-70681000D01*
X111725735Y-70565738D01*
X112382234Y-70231235D01*
X112903235Y-69710234D01*
X113237738Y-69053735D01*
X113353000Y-68326000D01*
X113322689Y-68134623D01*
X114569435Y-68134623D01*
X114596622Y-68704854D01*
X114762536Y-69105405D01*
X115008655Y-69179539D01*
X115836795Y-68351400D01*
X115008655Y-67523261D01*
X114762536Y-67597395D01*
X114569435Y-68134623D01*
X113322689Y-68134623D01*
X113237738Y-67598265D01*
X112903235Y-66941766D01*
X112382234Y-66420765D01*
X111725735Y-66086262D01*
X110998000Y-65971000D01*
X110270265Y-66086262D01*
X109613766Y-66420765D01*
X109092765Y-66941766D01*
X108758262Y-67598265D01*
X108643000Y-68326000D01*
X108558000Y-68326000D01*
X108558000Y-65886000D01*
X117404448Y-65886000D01*
X116717666Y-66572783D01*
X116717666Y-66572783D01*
G37*
X116717666Y-66572783D02*
X116651917Y-66616715D01*
X116477886Y-66877172D01*
X116456497Y-66984705D01*
X116233177Y-66904435D01*
X115662946Y-66931622D01*
X115262395Y-67097536D01*
X115188261Y-67343655D01*
X116016400Y-68171795D01*
X116030542Y-68157652D01*
X116210148Y-68337258D01*
X116196005Y-68351400D01*
X116210148Y-68365542D01*
X116030543Y-68545148D01*
X116016400Y-68531005D01*
X115188261Y-69359145D01*
X115262395Y-69605264D01*
X115652343Y-69745427D01*
X113795171Y-71602600D01*
X111329550Y-71602600D01*
X111251999Y-71587174D01*
X111174448Y-71602600D01*
X110944772Y-71648285D01*
X110944771Y-71648286D01*
X110944770Y-71648286D01*
X110903105Y-71676126D01*
X110684316Y-71822316D01*
X110640386Y-71888062D01*
X110238888Y-72289560D01*
X109055800Y-72289560D01*
X108808035Y-72338843D01*
X108597991Y-72479191D01*
X108558000Y-72539041D01*
X108558000Y-68326000D01*
X108643000Y-68326000D01*
X108758262Y-69053735D01*
X109092765Y-69710234D01*
X109613766Y-70231235D01*
X110270265Y-70565738D01*
X110998000Y-70681000D01*
X111725735Y-70565738D01*
X112382234Y-70231235D01*
X112903235Y-69710234D01*
X113237738Y-69053735D01*
X113353000Y-68326000D01*
X113322689Y-68134623D01*
X114569435Y-68134623D01*
X114596622Y-68704854D01*
X114762536Y-69105405D01*
X115008655Y-69179539D01*
X115836795Y-68351400D01*
X115008655Y-67523261D01*
X114762536Y-67597395D01*
X114569435Y-68134623D01*
X113322689Y-68134623D01*
X113237738Y-67598265D01*
X112903235Y-66941766D01*
X112382234Y-66420765D01*
X111725735Y-66086262D01*
X110998000Y-65971000D01*
X110270265Y-66086262D01*
X109613766Y-66420765D01*
X109092765Y-66941766D01*
X108758262Y-67598265D01*
X108643000Y-68326000D01*
X108558000Y-68326000D01*
X108558000Y-65886000D01*
X117404448Y-65886000D01*
X116717666Y-66572783D01*
G04 #@! TD*
M02*
