M48
;DRILL file {KiCad (5.0.1)-3} date 11/4/2018 6:32:26 PM
;FORMAT={-:-/ absolute / inch / decimal}
FMAT,2
INCH,TZ
T1C0.0157
T2C0.0315
T3C0.0394
T4C0.0433
%
G90
G05
M72
T1
X4.28Y-3.8
X4.29Y-2.61
X4.29Y-2.8
X4.29Y-3.19
X4.29Y-3.52
X4.29Y-3.96
X4.32Y-3.43
X4.33Y-3.19
X4.39Y-3.53
X4.45Y-2.61
X4.47Y-3.96
X4.48Y-3.52
X4.56Y-3.16
X4.66Y-3.28
X4.68Y-3.41
X4.69Y-3.96
X4.74Y-2.81
X4.77Y-3.21
X4.8Y-3.41
X4.81Y-3.49
X4.86Y-3.3
X4.86Y-3.503
X4.87Y-2.95
X4.9Y-3.65
X4.901Y-3.582
X4.904Y-3.458
X4.906Y-3.513
X4.91Y-3.7
X4.92Y-3.74
X4.955Y-2.83
X4.96Y-3.96
X4.9673Y-3.7273
X4.97Y-3.16
X5.Y-2.74
X5.029Y-3.51
X5.0391Y-3.5746
X5.05Y-3.3432
X5.06Y-3.72
X5.07Y-2.95
X5.0709Y-3.6337
X5.0732Y-3.5944
X5.1Y-3.5
X5.15Y-2.9
X5.15Y-3.19
X5.15Y-3.27
X5.18Y-3.76
X5.21Y-2.72
X5.21Y-2.79
X5.21Y-3.81
X5.24Y-3.59
X5.26Y-3.52
X5.27Y-2.96
X5.27Y-3.24
X5.2828Y-3.6928
X5.3Y-3.55
X5.31Y-3.66
X5.316Y-3.304
X5.32Y-3.87
X5.33Y-3.59
X5.35Y-3.26
X5.35Y-3.69
X5.37Y-3.586
X5.38Y-3.49
X5.4Y-2.66
X5.41Y-3.14
X5.43Y-2.7
X5.43Y-3.66
X5.44Y-2.9
X5.44Y-3.19
X5.446Y-3.5425
X5.46Y-2.66
X5.49Y-3.05
X5.51Y-3.24
X5.51Y-3.39
X5.52Y-2.9
X5.56Y-3.7
X5.66Y-2.78
X5.67Y-3.77
X5.77Y-2.61
X5.77Y-3.96
X5.95Y-2.61
X5.95Y-2.78
X5.95Y-3.79
X5.95Y-3.96
T2
X4.5676Y-2.691
X4.666Y-2.691
X5.3066Y-3.055
X5.405Y-3.055
X4.6416Y-2.925
X4.74Y-2.925
T3
X5.705Y-2.91
X5.805Y-2.91
X5.905Y-2.91
X4.327Y-2.905
X4.327Y-3.005
X4.327Y-3.105
X4.427Y-2.905
X4.427Y-3.005
X4.427Y-3.105
X5.175Y-3.915
X5.275Y-3.915
X5.375Y-3.915
X5.475Y-3.915
X5.575Y-3.915
X5.705Y-3.05
X5.805Y-3.05
X5.905Y-3.05
X5.705Y-3.185
X5.805Y-3.185
X5.905Y-3.185
T4
X5.7428Y-3.4341
X5.7428Y-3.69
X5.92Y-3.4341
X5.92Y-3.69
T0
M30
