G04 #@! TF.GenerationSoftware,KiCad,Pcbnew,(5.0.1)-3*
G04 #@! TF.CreationDate,2018-11-04T18:32:24-06:00*
G04 #@! TF.ProjectId,Gimble Goblin,47696D626C6520476F626C696E2E6B69,rev?*
G04 #@! TF.SameCoordinates,Original*
G04 #@! TF.FileFunction,Legend,Top*
G04 #@! TF.FilePolarity,Positive*
%FSLAX46Y46*%
G04 Gerber Fmt 4.6, Leading zero omitted, Abs format (unit mm)*
G04 Created by KiCad (PCBNEW (5.0.1)-3) date 11/4/2018 6:32:24 PM*
%MOMM*%
%LPD*%
G01*
G04 APERTURE LIST*
%ADD10C,0.190500*%
%ADD11C,0.222250*%
%ADD12C,0.254000*%
%ADD13C,0.120000*%
%ADD14C,0.200000*%
%ADD15C,0.150000*%
G04 APERTURE END LIST*
D10*
X144057914Y-98795114D02*
X143803914Y-98432257D01*
X143622485Y-98795114D02*
X143622485Y-98033114D01*
X143912771Y-98033114D01*
X143985342Y-98069400D01*
X144021628Y-98105685D01*
X144057914Y-98178257D01*
X144057914Y-98287114D01*
X144021628Y-98359685D01*
X143985342Y-98395971D01*
X143912771Y-98432257D01*
X143622485Y-98432257D01*
X144348200Y-98758828D02*
X144457057Y-98795114D01*
X144638485Y-98795114D01*
X144711057Y-98758828D01*
X144747342Y-98722542D01*
X144783628Y-98649971D01*
X144783628Y-98577400D01*
X144747342Y-98504828D01*
X144711057Y-98468542D01*
X144638485Y-98432257D01*
X144493342Y-98395971D01*
X144420771Y-98359685D01*
X144384485Y-98323400D01*
X144348200Y-98250828D01*
X144348200Y-98178257D01*
X144384485Y-98105685D01*
X144420771Y-98069400D01*
X144493342Y-98033114D01*
X144674771Y-98033114D01*
X144783628Y-98069400D01*
X145001342Y-98033114D02*
X145436771Y-98033114D01*
X145219057Y-98795114D02*
X145219057Y-98033114D01*
X127366485Y-93551828D02*
X127475342Y-93588114D01*
X127656771Y-93588114D01*
X127729342Y-93551828D01*
X127765628Y-93515542D01*
X127801914Y-93442971D01*
X127801914Y-93370400D01*
X127765628Y-93297828D01*
X127729342Y-93261542D01*
X127656771Y-93225257D01*
X127511628Y-93188971D01*
X127439057Y-93152685D01*
X127402771Y-93116400D01*
X127366485Y-93043828D01*
X127366485Y-92971257D01*
X127402771Y-92898685D01*
X127439057Y-92862400D01*
X127511628Y-92826114D01*
X127693057Y-92826114D01*
X127801914Y-92862400D01*
X128563914Y-93515542D02*
X128527628Y-93551828D01*
X128418771Y-93588114D01*
X128346200Y-93588114D01*
X128237342Y-93551828D01*
X128164771Y-93479257D01*
X128128485Y-93406685D01*
X128092200Y-93261542D01*
X128092200Y-93152685D01*
X128128485Y-93007542D01*
X128164771Y-92934971D01*
X128237342Y-92862400D01*
X128346200Y-92826114D01*
X128418771Y-92826114D01*
X128527628Y-92862400D01*
X128563914Y-92898685D01*
X128890485Y-93588114D02*
X128890485Y-92826114D01*
X129325914Y-93588114D02*
X128999342Y-93152685D01*
X129325914Y-92826114D02*
X128890485Y-93261542D01*
X134068457Y-85764914D02*
X134068457Y-85002914D01*
X134322457Y-85547200D01*
X134576457Y-85002914D01*
X134576457Y-85764914D01*
X135084457Y-85002914D02*
X135229600Y-85002914D01*
X135302171Y-85039200D01*
X135374742Y-85111771D01*
X135411028Y-85256914D01*
X135411028Y-85510914D01*
X135374742Y-85656057D01*
X135302171Y-85728628D01*
X135229600Y-85764914D01*
X135084457Y-85764914D01*
X135011885Y-85728628D01*
X134939314Y-85656057D01*
X134903028Y-85510914D01*
X134903028Y-85256914D01*
X134939314Y-85111771D01*
X135011885Y-85039200D01*
X135084457Y-85002914D01*
X129460171Y-87796914D02*
X129460171Y-87034914D01*
X129714171Y-87579200D01*
X129968171Y-87034914D01*
X129968171Y-87796914D01*
X130331028Y-87796914D02*
X130331028Y-87034914D01*
X127435428Y-95148400D02*
X127362857Y-95112114D01*
X127254000Y-95112114D01*
X127145142Y-95148400D01*
X127072571Y-95220971D01*
X127036285Y-95293542D01*
X127000000Y-95438685D01*
X127000000Y-95547542D01*
X127036285Y-95692685D01*
X127072571Y-95765257D01*
X127145142Y-95837828D01*
X127254000Y-95874114D01*
X127326571Y-95874114D01*
X127435428Y-95837828D01*
X127471714Y-95801542D01*
X127471714Y-95547542D01*
X127326571Y-95547542D01*
X127798285Y-95874114D02*
X127798285Y-95112114D01*
X128233714Y-95874114D01*
X128233714Y-95112114D01*
X128596571Y-95874114D02*
X128596571Y-95112114D01*
X128778000Y-95112114D01*
X128886857Y-95148400D01*
X128959428Y-95220971D01*
X128995714Y-95293542D01*
X129032000Y-95438685D01*
X129032000Y-95547542D01*
X128995714Y-95692685D01*
X128959428Y-95765257D01*
X128886857Y-95837828D01*
X128778000Y-95874114D01*
X128596571Y-95874114D01*
D11*
X116569066Y-98564700D02*
X116484400Y-98522366D01*
X116357400Y-98522366D01*
X116230400Y-98564700D01*
X116145733Y-98649366D01*
X116103400Y-98734033D01*
X116061066Y-98903366D01*
X116061066Y-99030366D01*
X116103400Y-99199700D01*
X116145733Y-99284366D01*
X116230400Y-99369033D01*
X116357400Y-99411366D01*
X116442066Y-99411366D01*
X116569066Y-99369033D01*
X116611400Y-99326700D01*
X116611400Y-99030366D01*
X116442066Y-99030366D01*
X116992400Y-99411366D02*
X116992400Y-98818700D01*
X116992400Y-98522366D02*
X116950066Y-98564700D01*
X116992400Y-98607033D01*
X117034733Y-98564700D01*
X116992400Y-98522366D01*
X116992400Y-98607033D01*
X117415733Y-99411366D02*
X117415733Y-98818700D01*
X117415733Y-98903366D02*
X117458066Y-98861033D01*
X117542733Y-98818700D01*
X117669733Y-98818700D01*
X117754400Y-98861033D01*
X117796733Y-98945700D01*
X117796733Y-99411366D01*
X117796733Y-98945700D02*
X117839066Y-98861033D01*
X117923733Y-98818700D01*
X118050733Y-98818700D01*
X118135400Y-98861033D01*
X118177733Y-98945700D01*
X118177733Y-99411366D01*
X118601066Y-99411366D02*
X118601066Y-98522366D01*
X118601066Y-98861033D02*
X118685733Y-98818700D01*
X118855066Y-98818700D01*
X118939733Y-98861033D01*
X118982066Y-98903366D01*
X119024400Y-98988033D01*
X119024400Y-99242033D01*
X118982066Y-99326700D01*
X118939733Y-99369033D01*
X118855066Y-99411366D01*
X118685733Y-99411366D01*
X118601066Y-99369033D01*
X119786400Y-99411366D02*
X119786400Y-98945700D01*
X119744066Y-98861033D01*
X119659400Y-98818700D01*
X119490066Y-98818700D01*
X119405400Y-98861033D01*
X119786400Y-99369033D02*
X119701733Y-99411366D01*
X119490066Y-99411366D01*
X119405400Y-99369033D01*
X119363066Y-99284366D01*
X119363066Y-99199700D01*
X119405400Y-99115033D01*
X119490066Y-99072700D01*
X119701733Y-99072700D01*
X119786400Y-99030366D01*
X120336733Y-99411366D02*
X120252066Y-99369033D01*
X120209733Y-99284366D01*
X120209733Y-98522366D01*
X121860733Y-99326700D02*
X121818400Y-99369033D01*
X121691400Y-99411366D01*
X121606733Y-99411366D01*
X121479733Y-99369033D01*
X121395066Y-99284366D01*
X121352733Y-99199700D01*
X121310400Y-99030366D01*
X121310400Y-98903366D01*
X121352733Y-98734033D01*
X121395066Y-98649366D01*
X121479733Y-98564700D01*
X121606733Y-98522366D01*
X121691400Y-98522366D01*
X121818400Y-98564700D01*
X121860733Y-98607033D01*
X122368733Y-99411366D02*
X122284066Y-99369033D01*
X122241733Y-99326700D01*
X122199400Y-99242033D01*
X122199400Y-98988033D01*
X122241733Y-98903366D01*
X122284066Y-98861033D01*
X122368733Y-98818700D01*
X122495733Y-98818700D01*
X122580400Y-98861033D01*
X122622733Y-98903366D01*
X122665066Y-98988033D01*
X122665066Y-99242033D01*
X122622733Y-99326700D01*
X122580400Y-99369033D01*
X122495733Y-99411366D01*
X122368733Y-99411366D01*
X123046066Y-98818700D02*
X123046066Y-99411366D01*
X123046066Y-98903366D02*
X123088400Y-98861033D01*
X123173066Y-98818700D01*
X123300066Y-98818700D01*
X123384733Y-98861033D01*
X123427066Y-98945700D01*
X123427066Y-99411366D01*
X123723400Y-98818700D02*
X124062066Y-98818700D01*
X123850400Y-98522366D02*
X123850400Y-99284366D01*
X123892733Y-99369033D01*
X123977400Y-99411366D01*
X124062066Y-99411366D01*
X124358400Y-99411366D02*
X124358400Y-98818700D01*
X124358400Y-98988033D02*
X124400733Y-98903366D01*
X124443066Y-98861033D01*
X124527733Y-98818700D01*
X124612400Y-98818700D01*
X125035733Y-99411366D02*
X124951066Y-99369033D01*
X124908733Y-99326700D01*
X124866400Y-99242033D01*
X124866400Y-98988033D01*
X124908733Y-98903366D01*
X124951066Y-98861033D01*
X125035733Y-98818700D01*
X125162733Y-98818700D01*
X125247400Y-98861033D01*
X125289733Y-98903366D01*
X125332066Y-98988033D01*
X125332066Y-99242033D01*
X125289733Y-99326700D01*
X125247400Y-99369033D01*
X125162733Y-99411366D01*
X125035733Y-99411366D01*
X125840066Y-99411366D02*
X125755400Y-99369033D01*
X125713066Y-99284366D01*
X125713066Y-98522366D01*
X126305733Y-99411366D02*
X126221066Y-99369033D01*
X126178733Y-99284366D01*
X126178733Y-98522366D01*
X126983066Y-99369033D02*
X126898400Y-99411366D01*
X126729066Y-99411366D01*
X126644400Y-99369033D01*
X126602066Y-99284366D01*
X126602066Y-98945700D01*
X126644400Y-98861033D01*
X126729066Y-98818700D01*
X126898400Y-98818700D01*
X126983066Y-98861033D01*
X127025400Y-98945700D01*
X127025400Y-99030366D01*
X126602066Y-99115033D01*
X127406400Y-99411366D02*
X127406400Y-98818700D01*
X127406400Y-98988033D02*
X127448733Y-98903366D01*
X127491066Y-98861033D01*
X127575733Y-98818700D01*
X127660400Y-98818700D01*
D12*
X133737047Y-97856523D02*
X133313714Y-97251761D01*
X133011333Y-97856523D02*
X133011333Y-96586523D01*
X133495142Y-96586523D01*
X133616095Y-96647000D01*
X133676571Y-96707476D01*
X133737047Y-96828428D01*
X133737047Y-97009857D01*
X133676571Y-97130809D01*
X133616095Y-97191285D01*
X133495142Y-97251761D01*
X133011333Y-97251761D01*
X134220857Y-97796047D02*
X134341809Y-97856523D01*
X134583714Y-97856523D01*
X134704666Y-97796047D01*
X134765142Y-97675095D01*
X134765142Y-97614619D01*
X134704666Y-97493666D01*
X134583714Y-97433190D01*
X134402285Y-97433190D01*
X134281333Y-97372714D01*
X134220857Y-97251761D01*
X134220857Y-97191285D01*
X134281333Y-97070333D01*
X134402285Y-97009857D01*
X134583714Y-97009857D01*
X134704666Y-97070333D01*
X136277047Y-97856523D02*
X135853714Y-97251761D01*
X135551333Y-97856523D02*
X135551333Y-96586523D01*
X136035142Y-96586523D01*
X136156095Y-96647000D01*
X136216571Y-96707476D01*
X136277047Y-96828428D01*
X136277047Y-97009857D01*
X136216571Y-97130809D01*
X136156095Y-97191285D01*
X136035142Y-97251761D01*
X135551333Y-97251761D01*
X136700380Y-97856523D02*
X137365619Y-97009857D01*
X136700380Y-97009857D02*
X137365619Y-97856523D01*
X138061095Y-96586523D02*
X138786809Y-96586523D01*
X138423952Y-97856523D02*
X138423952Y-96586523D01*
X139089190Y-97856523D02*
X139754428Y-97009857D01*
X139089190Y-97009857D02*
X139754428Y-97856523D01*
X142114209Y-97343685D02*
X141146590Y-97343685D01*
X113447285Y-96503671D02*
X113447285Y-97428957D01*
X113501714Y-97537814D01*
X113556142Y-97592242D01*
X113665000Y-97646671D01*
X113882714Y-97646671D01*
X113991571Y-97592242D01*
X114046000Y-97537814D01*
X114100428Y-97428957D01*
X114100428Y-96503671D01*
X114644714Y-96884671D02*
X114644714Y-97646671D01*
X114644714Y-96993528D02*
X114699142Y-96939100D01*
X114808000Y-96884671D01*
X114971285Y-96884671D01*
X115080142Y-96939100D01*
X115134571Y-97047957D01*
X115134571Y-97646671D01*
X116168714Y-97646671D02*
X116168714Y-96503671D01*
X116168714Y-97592242D02*
X116059857Y-97646671D01*
X115842142Y-97646671D01*
X115733285Y-97592242D01*
X115678857Y-97537814D01*
X115624428Y-97428957D01*
X115624428Y-97102385D01*
X115678857Y-96993528D01*
X115733285Y-96939100D01*
X115842142Y-96884671D01*
X116059857Y-96884671D01*
X116168714Y-96939100D01*
X117148428Y-97592242D02*
X117039571Y-97646671D01*
X116821857Y-97646671D01*
X116713000Y-97592242D01*
X116658571Y-97483385D01*
X116658571Y-97047957D01*
X116713000Y-96939100D01*
X116821857Y-96884671D01*
X117039571Y-96884671D01*
X117148428Y-96939100D01*
X117202857Y-97047957D01*
X117202857Y-97156814D01*
X116658571Y-97265671D01*
X117692714Y-97646671D02*
X117692714Y-96884671D01*
X117692714Y-97102385D02*
X117747142Y-96993528D01*
X117801571Y-96939100D01*
X117910428Y-96884671D01*
X118019285Y-96884671D01*
X118291428Y-96884671D02*
X118509142Y-97646671D01*
X118726857Y-97102385D01*
X118944571Y-97646671D01*
X119162285Y-96884671D01*
X120087571Y-97646671D02*
X120087571Y-97047957D01*
X120033142Y-96939100D01*
X119924285Y-96884671D01*
X119706571Y-96884671D01*
X119597714Y-96939100D01*
X120087571Y-97592242D02*
X119978714Y-97646671D01*
X119706571Y-97646671D01*
X119597714Y-97592242D01*
X119543285Y-97483385D01*
X119543285Y-97374528D01*
X119597714Y-97265671D01*
X119706571Y-97211242D01*
X119978714Y-97211242D01*
X120087571Y-97156814D01*
X120468571Y-96884671D02*
X120904000Y-96884671D01*
X120631857Y-96503671D02*
X120631857Y-97483385D01*
X120686285Y-97592242D01*
X120795142Y-97646671D01*
X120904000Y-97646671D01*
X121720428Y-97592242D02*
X121611571Y-97646671D01*
X121393857Y-97646671D01*
X121285000Y-97592242D01*
X121230571Y-97483385D01*
X121230571Y-97047957D01*
X121285000Y-96939100D01*
X121393857Y-96884671D01*
X121611571Y-96884671D01*
X121720428Y-96939100D01*
X121774857Y-97047957D01*
X121774857Y-97156814D01*
X121230571Y-97265671D01*
X122264714Y-97646671D02*
X122264714Y-96884671D01*
X122264714Y-97102385D02*
X122319142Y-96993528D01*
X122373571Y-96939100D01*
X122482428Y-96884671D01*
X122591285Y-96884671D01*
X124496285Y-97646671D02*
X124115285Y-97102385D01*
X123843142Y-97646671D02*
X123843142Y-96503671D01*
X124278571Y-96503671D01*
X124387428Y-96558100D01*
X124441857Y-96612528D01*
X124496285Y-96721385D01*
X124496285Y-96884671D01*
X124441857Y-96993528D01*
X124387428Y-97047957D01*
X124278571Y-97102385D01*
X123843142Y-97102385D01*
X125149428Y-97646671D02*
X125040571Y-97592242D01*
X124986142Y-97537814D01*
X124931714Y-97428957D01*
X124931714Y-97102385D01*
X124986142Y-96993528D01*
X125040571Y-96939100D01*
X125149428Y-96884671D01*
X125312714Y-96884671D01*
X125421571Y-96939100D01*
X125476000Y-96993528D01*
X125530428Y-97102385D01*
X125530428Y-97428957D01*
X125476000Y-97537814D01*
X125421571Y-97592242D01*
X125312714Y-97646671D01*
X125149428Y-97646671D01*
X126020285Y-97646671D02*
X126020285Y-96503671D01*
X126020285Y-96939100D02*
X126129142Y-96884671D01*
X126346857Y-96884671D01*
X126455714Y-96939100D01*
X126510142Y-96993528D01*
X126564571Y-97102385D01*
X126564571Y-97428957D01*
X126510142Y-97537814D01*
X126455714Y-97592242D01*
X126346857Y-97646671D01*
X126129142Y-97646671D01*
X126020285Y-97592242D01*
X127217714Y-97646671D02*
X127108857Y-97592242D01*
X127054428Y-97537814D01*
X127000000Y-97428957D01*
X127000000Y-97102385D01*
X127054428Y-96993528D01*
X127108857Y-96939100D01*
X127217714Y-96884671D01*
X127381000Y-96884671D01*
X127489857Y-96939100D01*
X127544285Y-96993528D01*
X127598714Y-97102385D01*
X127598714Y-97428957D01*
X127544285Y-97537814D01*
X127489857Y-97592242D01*
X127381000Y-97646671D01*
X127217714Y-97646671D01*
X127925285Y-96884671D02*
X128360714Y-96884671D01*
X128088571Y-96503671D02*
X128088571Y-97483385D01*
X128143000Y-97592242D01*
X128251857Y-97646671D01*
X128360714Y-97646671D01*
X128741714Y-97646671D02*
X128741714Y-96884671D01*
X128741714Y-96503671D02*
X128687285Y-96558100D01*
X128741714Y-96612528D01*
X128796142Y-96558100D01*
X128741714Y-96503671D01*
X128741714Y-96612528D01*
X129775857Y-97592242D02*
X129666999Y-97646671D01*
X129449285Y-97646671D01*
X129340428Y-97592242D01*
X129285999Y-97537814D01*
X129231571Y-97428957D01*
X129231571Y-97102385D01*
X129285999Y-96993528D01*
X129340428Y-96939100D01*
X129449285Y-96884671D01*
X129666999Y-96884671D01*
X129775857Y-96939100D01*
X130211285Y-97592242D02*
X130320142Y-97646671D01*
X130537857Y-97646671D01*
X130646714Y-97592242D01*
X130701142Y-97483385D01*
X130701142Y-97428957D01*
X130646714Y-97320100D01*
X130537857Y-97265671D01*
X130374571Y-97265671D01*
X130265714Y-97211242D01*
X130211285Y-97102385D01*
X130211285Y-97047957D01*
X130265714Y-96939100D01*
X130374571Y-96884671D01*
X130537857Y-96884671D01*
X130646714Y-96939100D01*
X110375095Y-72081571D02*
X110314619Y-72142047D01*
X110133190Y-72202523D01*
X110012238Y-72202523D01*
X109830809Y-72142047D01*
X109709857Y-72021095D01*
X109649380Y-71900142D01*
X109588904Y-71658238D01*
X109588904Y-71476809D01*
X109649380Y-71234904D01*
X109709857Y-71113952D01*
X109830809Y-70993000D01*
X110012238Y-70932523D01*
X110133190Y-70932523D01*
X110314619Y-70993000D01*
X110375095Y-71053476D01*
X114820095Y-74234523D02*
X114094380Y-74234523D01*
X114457238Y-74234523D02*
X114457238Y-72964523D01*
X114336285Y-73145952D01*
X114215333Y-73266904D01*
X114094380Y-73327380D01*
X115303904Y-73085476D02*
X115364380Y-73025000D01*
X115485333Y-72964523D01*
X115787714Y-72964523D01*
X115908666Y-73025000D01*
X115969142Y-73085476D01*
X116029619Y-73206428D01*
X116029619Y-73327380D01*
X115969142Y-73508809D01*
X115243428Y-74234523D01*
X116029619Y-74234523D01*
X115787714Y-76317928D02*
X114336285Y-76317928D01*
X114935000Y-79447571D02*
X114874523Y-79508047D01*
X114693095Y-79568523D01*
X114572142Y-79568523D01*
X114390714Y-79508047D01*
X114269761Y-79387095D01*
X114209285Y-79266142D01*
X114148809Y-79024238D01*
X114148809Y-78842809D01*
X114209285Y-78600904D01*
X114269761Y-78479952D01*
X114390714Y-78359000D01*
X114572142Y-78298523D01*
X114693095Y-78298523D01*
X114874523Y-78359000D01*
X114935000Y-78419476D01*
X115479285Y-79568523D02*
X115479285Y-78298523D01*
X115479285Y-78903285D02*
X116205000Y-78903285D01*
X116205000Y-79568523D02*
X116205000Y-78298523D01*
X118503095Y-79447571D02*
X118442619Y-79508047D01*
X118261190Y-79568523D01*
X118140238Y-79568523D01*
X117958809Y-79508047D01*
X117837857Y-79387095D01*
X117777380Y-79266142D01*
X117716904Y-79024238D01*
X117716904Y-78842809D01*
X117777380Y-78600904D01*
X117837857Y-78479952D01*
X117958809Y-78359000D01*
X118140238Y-78298523D01*
X118261190Y-78298523D01*
X118442619Y-78359000D01*
X118503095Y-78419476D01*
X119652142Y-79568523D02*
X119047380Y-79568523D01*
X119047380Y-78298523D01*
X150597809Y-83475285D02*
X149630190Y-83475285D01*
X148057809Y-83475285D02*
X147090190Y-83475285D01*
X147574000Y-82991476D02*
X147574000Y-83959095D01*
X142379095Y-74367571D02*
X142318619Y-74428047D01*
X142137190Y-74488523D01*
X142016238Y-74488523D01*
X141834809Y-74428047D01*
X141713857Y-74307095D01*
X141653380Y-74186142D01*
X141592904Y-73944238D01*
X141592904Y-73762809D01*
X141653380Y-73520904D01*
X141713857Y-73399952D01*
X141834809Y-73279000D01*
X142016238Y-73218523D01*
X142137190Y-73218523D01*
X142318619Y-73279000D01*
X142379095Y-73339476D01*
X141834809Y-77089000D02*
X141713857Y-77028523D01*
X141532428Y-77028523D01*
X141351000Y-77089000D01*
X141230047Y-77209952D01*
X141169571Y-77330904D01*
X141109095Y-77572809D01*
X141109095Y-77754238D01*
X141169571Y-77996142D01*
X141230047Y-78117095D01*
X141351000Y-78238047D01*
X141532428Y-78298523D01*
X141653380Y-78298523D01*
X141834809Y-78238047D01*
X141895285Y-78177571D01*
X141895285Y-77754238D01*
X141653380Y-77754238D01*
X142318619Y-77451857D02*
X142621000Y-78298523D01*
X142923380Y-77451857D02*
X142621000Y-78298523D01*
X142500047Y-78600904D01*
X142439571Y-78661380D01*
X142318619Y-78721857D01*
X141804571Y-80391000D02*
X141683619Y-80330523D01*
X141502190Y-80330523D01*
X141320761Y-80391000D01*
X141199809Y-80511952D01*
X141139333Y-80632904D01*
X141078857Y-80874809D01*
X141078857Y-81056238D01*
X141139333Y-81298142D01*
X141199809Y-81419095D01*
X141320761Y-81540047D01*
X141502190Y-81600523D01*
X141623142Y-81600523D01*
X141804571Y-81540047D01*
X141865047Y-81479571D01*
X141865047Y-81056238D01*
X141623142Y-81056238D01*
X142288380Y-81600523D02*
X142953619Y-80753857D01*
X142288380Y-80753857D02*
X142953619Y-81600523D01*
X145396857Y-82797952D02*
X145215428Y-82737476D01*
X144913047Y-82737476D01*
X144792095Y-82797952D01*
X144731619Y-82858428D01*
X144671142Y-82979380D01*
X144671142Y-83100333D01*
X144731619Y-83221285D01*
X144792095Y-83281761D01*
X144913047Y-83342238D01*
X145154952Y-83402714D01*
X145275904Y-83463190D01*
X145336380Y-83523666D01*
X145396857Y-83644619D01*
X145396857Y-83765571D01*
X145336380Y-83886523D01*
X145275904Y-83947000D01*
X145154952Y-84007476D01*
X144852571Y-84007476D01*
X144671142Y-83947000D01*
D13*
G04 #@! TO.C,TP2*
X131967200Y-87096600D02*
G75*
G03X131967200Y-87096600I-700000J0D01*
G01*
G04 #@! TO.C,TP1*
X133796000Y-85166200D02*
G75*
G03X133796000Y-85166200I-700000J0D01*
G01*
G04 #@! TO.C,TP3*
X128385800Y-91897200D02*
G75*
G03X128385800Y-91897200I-700000J0D01*
G01*
G04 #@! TO.C,TP4*
X144718000Y-97078800D02*
G75*
G03X144718000Y-97078800I-700000J0D01*
G01*
G04 #@! TO.C,TP5*
X130595600Y-95377000D02*
G75*
G03X130595600Y-95377000I-700000J0D01*
G01*
G04 #@! TO.C,C4*
X138657000Y-77597000D02*
G75*
G03X138657000Y-77597000I-2620000J0D01*
G01*
X136037000Y-80177000D02*
X136037000Y-75017000D01*
X135997000Y-80177000D02*
X135997000Y-75017000D01*
X135957000Y-80176000D02*
X135957000Y-75018000D01*
X135917000Y-80175000D02*
X135917000Y-75019000D01*
X135877000Y-80173000D02*
X135877000Y-75021000D01*
X135837000Y-80170000D02*
X135837000Y-75024000D01*
X135797000Y-80166000D02*
X135797000Y-78637000D01*
X135797000Y-76557000D02*
X135797000Y-75028000D01*
X135757000Y-80162000D02*
X135757000Y-78637000D01*
X135757000Y-76557000D02*
X135757000Y-75032000D01*
X135717000Y-80158000D02*
X135717000Y-78637000D01*
X135717000Y-76557000D02*
X135717000Y-75036000D01*
X135677000Y-80153000D02*
X135677000Y-78637000D01*
X135677000Y-76557000D02*
X135677000Y-75041000D01*
X135637000Y-80147000D02*
X135637000Y-78637000D01*
X135637000Y-76557000D02*
X135637000Y-75047000D01*
X135597000Y-80140000D02*
X135597000Y-78637000D01*
X135597000Y-76557000D02*
X135597000Y-75054000D01*
X135557000Y-80133000D02*
X135557000Y-78637000D01*
X135557000Y-76557000D02*
X135557000Y-75061000D01*
X135517000Y-80125000D02*
X135517000Y-78637000D01*
X135517000Y-76557000D02*
X135517000Y-75069000D01*
X135477000Y-80117000D02*
X135477000Y-78637000D01*
X135477000Y-76557000D02*
X135477000Y-75077000D01*
X135437000Y-80108000D02*
X135437000Y-78637000D01*
X135437000Y-76557000D02*
X135437000Y-75086000D01*
X135397000Y-80098000D02*
X135397000Y-78637000D01*
X135397000Y-76557000D02*
X135397000Y-75096000D01*
X135357000Y-80088000D02*
X135357000Y-78637000D01*
X135357000Y-76557000D02*
X135357000Y-75106000D01*
X135316000Y-80077000D02*
X135316000Y-78637000D01*
X135316000Y-76557000D02*
X135316000Y-75117000D01*
X135276000Y-80065000D02*
X135276000Y-78637000D01*
X135276000Y-76557000D02*
X135276000Y-75129000D01*
X135236000Y-80052000D02*
X135236000Y-78637000D01*
X135236000Y-76557000D02*
X135236000Y-75142000D01*
X135196000Y-80039000D02*
X135196000Y-78637000D01*
X135196000Y-76557000D02*
X135196000Y-75155000D01*
X135156000Y-80025000D02*
X135156000Y-78637000D01*
X135156000Y-76557000D02*
X135156000Y-75169000D01*
X135116000Y-80011000D02*
X135116000Y-78637000D01*
X135116000Y-76557000D02*
X135116000Y-75183000D01*
X135076000Y-79995000D02*
X135076000Y-78637000D01*
X135076000Y-76557000D02*
X135076000Y-75199000D01*
X135036000Y-79979000D02*
X135036000Y-78637000D01*
X135036000Y-76557000D02*
X135036000Y-75215000D01*
X134996000Y-79962000D02*
X134996000Y-78637000D01*
X134996000Y-76557000D02*
X134996000Y-75232000D01*
X134956000Y-79945000D02*
X134956000Y-78637000D01*
X134956000Y-76557000D02*
X134956000Y-75249000D01*
X134916000Y-79926000D02*
X134916000Y-78637000D01*
X134916000Y-76557000D02*
X134916000Y-75268000D01*
X134876000Y-79907000D02*
X134876000Y-78637000D01*
X134876000Y-76557000D02*
X134876000Y-75287000D01*
X134836000Y-79887000D02*
X134836000Y-78637000D01*
X134836000Y-76557000D02*
X134836000Y-75307000D01*
X134796000Y-79865000D02*
X134796000Y-78637000D01*
X134796000Y-76557000D02*
X134796000Y-75329000D01*
X134756000Y-79844000D02*
X134756000Y-78637000D01*
X134756000Y-76557000D02*
X134756000Y-75350000D01*
X134716000Y-79821000D02*
X134716000Y-78637000D01*
X134716000Y-76557000D02*
X134716000Y-75373000D01*
X134676000Y-79797000D02*
X134676000Y-78637000D01*
X134676000Y-76557000D02*
X134676000Y-75397000D01*
X134636000Y-79772000D02*
X134636000Y-78637000D01*
X134636000Y-76557000D02*
X134636000Y-75422000D01*
X134596000Y-79746000D02*
X134596000Y-78637000D01*
X134596000Y-76557000D02*
X134596000Y-75448000D01*
X134556000Y-79719000D02*
X134556000Y-78637000D01*
X134556000Y-76557000D02*
X134556000Y-75475000D01*
X134516000Y-79692000D02*
X134516000Y-78637000D01*
X134516000Y-76557000D02*
X134516000Y-75502000D01*
X134476000Y-79662000D02*
X134476000Y-78637000D01*
X134476000Y-76557000D02*
X134476000Y-75532000D01*
X134436000Y-79632000D02*
X134436000Y-78637000D01*
X134436000Y-76557000D02*
X134436000Y-75562000D01*
X134396000Y-79601000D02*
X134396000Y-78637000D01*
X134396000Y-76557000D02*
X134396000Y-75593000D01*
X134356000Y-79568000D02*
X134356000Y-78637000D01*
X134356000Y-76557000D02*
X134356000Y-75626000D01*
X134316000Y-79534000D02*
X134316000Y-78637000D01*
X134316000Y-76557000D02*
X134316000Y-75660000D01*
X134276000Y-79498000D02*
X134276000Y-78637000D01*
X134276000Y-76557000D02*
X134276000Y-75696000D01*
X134236000Y-79461000D02*
X134236000Y-78637000D01*
X134236000Y-76557000D02*
X134236000Y-75733000D01*
X134196000Y-79423000D02*
X134196000Y-78637000D01*
X134196000Y-76557000D02*
X134196000Y-75771000D01*
X134156000Y-79382000D02*
X134156000Y-78637000D01*
X134156000Y-76557000D02*
X134156000Y-75812000D01*
X134116000Y-79340000D02*
X134116000Y-78637000D01*
X134116000Y-76557000D02*
X134116000Y-75854000D01*
X134076000Y-79296000D02*
X134076000Y-78637000D01*
X134076000Y-76557000D02*
X134076000Y-75898000D01*
X134036000Y-79250000D02*
X134036000Y-78637000D01*
X134036000Y-76557000D02*
X134036000Y-75944000D01*
X133996000Y-79202000D02*
X133996000Y-78637000D01*
X133996000Y-76557000D02*
X133996000Y-75992000D01*
X133956000Y-79151000D02*
X133956000Y-78637000D01*
X133956000Y-76557000D02*
X133956000Y-76043000D01*
X133916000Y-79097000D02*
X133916000Y-78637000D01*
X133916000Y-76557000D02*
X133916000Y-76097000D01*
X133876000Y-79040000D02*
X133876000Y-78637000D01*
X133876000Y-76557000D02*
X133876000Y-76154000D01*
X133836000Y-78980000D02*
X133836000Y-78637000D01*
X133836000Y-76557000D02*
X133836000Y-76214000D01*
X133796000Y-78916000D02*
X133796000Y-78637000D01*
X133796000Y-76557000D02*
X133796000Y-76278000D01*
X133756000Y-78848000D02*
X133756000Y-78637000D01*
X133756000Y-76557000D02*
X133756000Y-76346000D01*
X133716000Y-78775000D02*
X133716000Y-76419000D01*
X133676000Y-78695000D02*
X133676000Y-76499000D01*
X133636000Y-78608000D02*
X133636000Y-76586000D01*
X133596000Y-78512000D02*
X133596000Y-76682000D01*
X133556000Y-78402000D02*
X133556000Y-76792000D01*
X133516000Y-78274000D02*
X133516000Y-76920000D01*
X133476000Y-78115000D02*
X133476000Y-77079000D01*
X133436000Y-77881000D02*
X133436000Y-77313000D01*
X138841775Y-79072000D02*
X138341775Y-79072000D01*
X138591775Y-79322000D02*
X138591775Y-78822000D01*
G04 #@! TO.C,SW1*
X144868000Y-88226000D02*
X144868000Y-92726000D01*
X148868000Y-86976000D02*
X147368000Y-86976000D01*
X151368000Y-92726000D02*
X151368000Y-88226000D01*
X147368000Y-93976000D02*
X148868000Y-93976000D01*
D14*
G04 #@! TO.C,Y2*
X142437710Y-86623000D02*
G75*
G03X142437710Y-86623000I-70710J0D01*
G01*
D13*
G04 #@! TO.C,C8*
X142369000Y-92064721D02*
X142369000Y-92390279D01*
X141349000Y-92064721D02*
X141349000Y-92390279D01*
G04 #@! TO.C,J5*
X142935000Y-100771000D02*
X142935000Y-98111000D01*
X132715000Y-100771000D02*
X142935000Y-100771000D01*
X132715000Y-98111000D02*
X142935000Y-98111000D01*
X132715000Y-100771000D02*
X132715000Y-98111000D01*
X131445000Y-100771000D02*
X130115000Y-100771000D01*
X130115000Y-100771000D02*
X130115000Y-99441000D01*
G04 #@! TO.C,D1*
X145515000Y-68008500D02*
X145515000Y-65723500D01*
X145515000Y-65723500D02*
X144045000Y-65723500D01*
X144045000Y-65723500D02*
X144045000Y-68008500D01*
D15*
G04 #@! TO.C,U5*
X139007000Y-94684000D02*
X139007000Y-94459000D01*
X131757000Y-94684000D02*
X131757000Y-94359000D01*
X131757000Y-87434000D02*
X131757000Y-87759000D01*
X139007000Y-87434000D02*
X139007000Y-87759000D01*
X139007000Y-94684000D02*
X138682000Y-94684000D01*
X139007000Y-87434000D02*
X138682000Y-87434000D01*
X131757000Y-87434000D02*
X132082000Y-87434000D01*
X131757000Y-94684000D02*
X132082000Y-94684000D01*
X139007000Y-94459000D02*
X140432000Y-94459000D01*
D13*
G04 #@! TO.C,D2*
X128214000Y-86104000D02*
X129144000Y-86104000D01*
X131374000Y-86104000D02*
X130444000Y-86104000D01*
X131374000Y-86104000D02*
X131374000Y-83944000D01*
X128214000Y-86104000D02*
X128214000Y-84644000D01*
G04 #@! TO.C,R5*
X144270000Y-70393779D02*
X144270000Y-70068221D01*
X145290000Y-70393779D02*
X145290000Y-70068221D01*
G04 #@! TO.C,R6*
X132958521Y-84406200D02*
X133284079Y-84406200D01*
X132958521Y-83386200D02*
X133284079Y-83386200D01*
G04 #@! TO.C,C7*
X121766000Y-74295000D02*
G75*
G03X121766000Y-74295000I-2620000J0D01*
G01*
X119146000Y-76875000D02*
X119146000Y-71715000D01*
X119106000Y-76875000D02*
X119106000Y-71715000D01*
X119066000Y-76874000D02*
X119066000Y-71716000D01*
X119026000Y-76873000D02*
X119026000Y-71717000D01*
X118986000Y-76871000D02*
X118986000Y-71719000D01*
X118946000Y-76868000D02*
X118946000Y-71722000D01*
X118906000Y-76864000D02*
X118906000Y-75335000D01*
X118906000Y-73255000D02*
X118906000Y-71726000D01*
X118866000Y-76860000D02*
X118866000Y-75335000D01*
X118866000Y-73255000D02*
X118866000Y-71730000D01*
X118826000Y-76856000D02*
X118826000Y-75335000D01*
X118826000Y-73255000D02*
X118826000Y-71734000D01*
X118786000Y-76851000D02*
X118786000Y-75335000D01*
X118786000Y-73255000D02*
X118786000Y-71739000D01*
X118746000Y-76845000D02*
X118746000Y-75335000D01*
X118746000Y-73255000D02*
X118746000Y-71745000D01*
X118706000Y-76838000D02*
X118706000Y-75335000D01*
X118706000Y-73255000D02*
X118706000Y-71752000D01*
X118666000Y-76831000D02*
X118666000Y-75335000D01*
X118666000Y-73255000D02*
X118666000Y-71759000D01*
X118626000Y-76823000D02*
X118626000Y-75335000D01*
X118626000Y-73255000D02*
X118626000Y-71767000D01*
X118586000Y-76815000D02*
X118586000Y-75335000D01*
X118586000Y-73255000D02*
X118586000Y-71775000D01*
X118546000Y-76806000D02*
X118546000Y-75335000D01*
X118546000Y-73255000D02*
X118546000Y-71784000D01*
X118506000Y-76796000D02*
X118506000Y-75335000D01*
X118506000Y-73255000D02*
X118506000Y-71794000D01*
X118466000Y-76786000D02*
X118466000Y-75335000D01*
X118466000Y-73255000D02*
X118466000Y-71804000D01*
X118425000Y-76775000D02*
X118425000Y-75335000D01*
X118425000Y-73255000D02*
X118425000Y-71815000D01*
X118385000Y-76763000D02*
X118385000Y-75335000D01*
X118385000Y-73255000D02*
X118385000Y-71827000D01*
X118345000Y-76750000D02*
X118345000Y-75335000D01*
X118345000Y-73255000D02*
X118345000Y-71840000D01*
X118305000Y-76737000D02*
X118305000Y-75335000D01*
X118305000Y-73255000D02*
X118305000Y-71853000D01*
X118265000Y-76723000D02*
X118265000Y-75335000D01*
X118265000Y-73255000D02*
X118265000Y-71867000D01*
X118225000Y-76709000D02*
X118225000Y-75335000D01*
X118225000Y-73255000D02*
X118225000Y-71881000D01*
X118185000Y-76693000D02*
X118185000Y-75335000D01*
X118185000Y-73255000D02*
X118185000Y-71897000D01*
X118145000Y-76677000D02*
X118145000Y-75335000D01*
X118145000Y-73255000D02*
X118145000Y-71913000D01*
X118105000Y-76660000D02*
X118105000Y-75335000D01*
X118105000Y-73255000D02*
X118105000Y-71930000D01*
X118065000Y-76643000D02*
X118065000Y-75335000D01*
X118065000Y-73255000D02*
X118065000Y-71947000D01*
X118025000Y-76624000D02*
X118025000Y-75335000D01*
X118025000Y-73255000D02*
X118025000Y-71966000D01*
X117985000Y-76605000D02*
X117985000Y-75335000D01*
X117985000Y-73255000D02*
X117985000Y-71985000D01*
X117945000Y-76585000D02*
X117945000Y-75335000D01*
X117945000Y-73255000D02*
X117945000Y-72005000D01*
X117905000Y-76563000D02*
X117905000Y-75335000D01*
X117905000Y-73255000D02*
X117905000Y-72027000D01*
X117865000Y-76542000D02*
X117865000Y-75335000D01*
X117865000Y-73255000D02*
X117865000Y-72048000D01*
X117825000Y-76519000D02*
X117825000Y-75335000D01*
X117825000Y-73255000D02*
X117825000Y-72071000D01*
X117785000Y-76495000D02*
X117785000Y-75335000D01*
X117785000Y-73255000D02*
X117785000Y-72095000D01*
X117745000Y-76470000D02*
X117745000Y-75335000D01*
X117745000Y-73255000D02*
X117745000Y-72120000D01*
X117705000Y-76444000D02*
X117705000Y-75335000D01*
X117705000Y-73255000D02*
X117705000Y-72146000D01*
X117665000Y-76417000D02*
X117665000Y-75335000D01*
X117665000Y-73255000D02*
X117665000Y-72173000D01*
X117625000Y-76390000D02*
X117625000Y-75335000D01*
X117625000Y-73255000D02*
X117625000Y-72200000D01*
X117585000Y-76360000D02*
X117585000Y-75335000D01*
X117585000Y-73255000D02*
X117585000Y-72230000D01*
X117545000Y-76330000D02*
X117545000Y-75335000D01*
X117545000Y-73255000D02*
X117545000Y-72260000D01*
X117505000Y-76299000D02*
X117505000Y-75335000D01*
X117505000Y-73255000D02*
X117505000Y-72291000D01*
X117465000Y-76266000D02*
X117465000Y-75335000D01*
X117465000Y-73255000D02*
X117465000Y-72324000D01*
X117425000Y-76232000D02*
X117425000Y-75335000D01*
X117425000Y-73255000D02*
X117425000Y-72358000D01*
X117385000Y-76196000D02*
X117385000Y-75335000D01*
X117385000Y-73255000D02*
X117385000Y-72394000D01*
X117345000Y-76159000D02*
X117345000Y-75335000D01*
X117345000Y-73255000D02*
X117345000Y-72431000D01*
X117305000Y-76121000D02*
X117305000Y-75335000D01*
X117305000Y-73255000D02*
X117305000Y-72469000D01*
X117265000Y-76080000D02*
X117265000Y-75335000D01*
X117265000Y-73255000D02*
X117265000Y-72510000D01*
X117225000Y-76038000D02*
X117225000Y-75335000D01*
X117225000Y-73255000D02*
X117225000Y-72552000D01*
X117185000Y-75994000D02*
X117185000Y-75335000D01*
X117185000Y-73255000D02*
X117185000Y-72596000D01*
X117145000Y-75948000D02*
X117145000Y-75335000D01*
X117145000Y-73255000D02*
X117145000Y-72642000D01*
X117105000Y-75900000D02*
X117105000Y-75335000D01*
X117105000Y-73255000D02*
X117105000Y-72690000D01*
X117065000Y-75849000D02*
X117065000Y-75335000D01*
X117065000Y-73255000D02*
X117065000Y-72741000D01*
X117025000Y-75795000D02*
X117025000Y-75335000D01*
X117025000Y-73255000D02*
X117025000Y-72795000D01*
X116985000Y-75738000D02*
X116985000Y-75335000D01*
X116985000Y-73255000D02*
X116985000Y-72852000D01*
X116945000Y-75678000D02*
X116945000Y-75335000D01*
X116945000Y-73255000D02*
X116945000Y-72912000D01*
X116905000Y-75614000D02*
X116905000Y-75335000D01*
X116905000Y-73255000D02*
X116905000Y-72976000D01*
X116865000Y-75546000D02*
X116865000Y-75335000D01*
X116865000Y-73255000D02*
X116865000Y-73044000D01*
X116825000Y-75473000D02*
X116825000Y-73117000D01*
X116785000Y-75393000D02*
X116785000Y-73197000D01*
X116745000Y-75306000D02*
X116745000Y-73284000D01*
X116705000Y-75210000D02*
X116705000Y-73380000D01*
X116665000Y-75100000D02*
X116665000Y-73490000D01*
X116625000Y-74972000D02*
X116625000Y-73618000D01*
X116585000Y-74813000D02*
X116585000Y-73777000D01*
X116545000Y-74579000D02*
X116545000Y-74011000D01*
X121950775Y-75770000D02*
X121450775Y-75770000D01*
X121700775Y-76020000D02*
X121700775Y-75520000D01*
G04 #@! TO.C,C1*
X110572363Y-91139441D02*
X110246805Y-91139441D01*
X110572363Y-92159441D02*
X110246805Y-92159441D01*
G04 #@! TO.C,C2*
X110200221Y-92708000D02*
X110525779Y-92708000D01*
X110200221Y-93728000D02*
X110525779Y-93728000D01*
G04 #@! TO.C,C3*
X125973721Y-86870000D02*
X126299279Y-86870000D01*
X125973721Y-85850000D02*
X126299279Y-85850000D01*
G04 #@! TO.C,C6*
X110161800Y-84647721D02*
X110161800Y-84973279D01*
X109141800Y-84647721D02*
X109141800Y-84973279D01*
G04 #@! TO.C,C5*
X119886400Y-68351400D02*
G75*
G03X119886400Y-68351400I-2620000J0D01*
G01*
X117266400Y-70931400D02*
X117266400Y-65771400D01*
X117226400Y-70931400D02*
X117226400Y-65771400D01*
X117186400Y-70930400D02*
X117186400Y-65772400D01*
X117146400Y-70929400D02*
X117146400Y-65773400D01*
X117106400Y-70927400D02*
X117106400Y-65775400D01*
X117066400Y-70924400D02*
X117066400Y-65778400D01*
X117026400Y-70920400D02*
X117026400Y-69391400D01*
X117026400Y-67311400D02*
X117026400Y-65782400D01*
X116986400Y-70916400D02*
X116986400Y-69391400D01*
X116986400Y-67311400D02*
X116986400Y-65786400D01*
X116946400Y-70912400D02*
X116946400Y-69391400D01*
X116946400Y-67311400D02*
X116946400Y-65790400D01*
X116906400Y-70907400D02*
X116906400Y-69391400D01*
X116906400Y-67311400D02*
X116906400Y-65795400D01*
X116866400Y-70901400D02*
X116866400Y-69391400D01*
X116866400Y-67311400D02*
X116866400Y-65801400D01*
X116826400Y-70894400D02*
X116826400Y-69391400D01*
X116826400Y-67311400D02*
X116826400Y-65808400D01*
X116786400Y-70887400D02*
X116786400Y-69391400D01*
X116786400Y-67311400D02*
X116786400Y-65815400D01*
X116746400Y-70879400D02*
X116746400Y-69391400D01*
X116746400Y-67311400D02*
X116746400Y-65823400D01*
X116706400Y-70871400D02*
X116706400Y-69391400D01*
X116706400Y-67311400D02*
X116706400Y-65831400D01*
X116666400Y-70862400D02*
X116666400Y-69391400D01*
X116666400Y-67311400D02*
X116666400Y-65840400D01*
X116626400Y-70852400D02*
X116626400Y-69391400D01*
X116626400Y-67311400D02*
X116626400Y-65850400D01*
X116586400Y-70842400D02*
X116586400Y-69391400D01*
X116586400Y-67311400D02*
X116586400Y-65860400D01*
X116545400Y-70831400D02*
X116545400Y-69391400D01*
X116545400Y-67311400D02*
X116545400Y-65871400D01*
X116505400Y-70819400D02*
X116505400Y-69391400D01*
X116505400Y-67311400D02*
X116505400Y-65883400D01*
X116465400Y-70806400D02*
X116465400Y-69391400D01*
X116465400Y-67311400D02*
X116465400Y-65896400D01*
X116425400Y-70793400D02*
X116425400Y-69391400D01*
X116425400Y-67311400D02*
X116425400Y-65909400D01*
X116385400Y-70779400D02*
X116385400Y-69391400D01*
X116385400Y-67311400D02*
X116385400Y-65923400D01*
X116345400Y-70765400D02*
X116345400Y-69391400D01*
X116345400Y-67311400D02*
X116345400Y-65937400D01*
X116305400Y-70749400D02*
X116305400Y-69391400D01*
X116305400Y-67311400D02*
X116305400Y-65953400D01*
X116265400Y-70733400D02*
X116265400Y-69391400D01*
X116265400Y-67311400D02*
X116265400Y-65969400D01*
X116225400Y-70716400D02*
X116225400Y-69391400D01*
X116225400Y-67311400D02*
X116225400Y-65986400D01*
X116185400Y-70699400D02*
X116185400Y-69391400D01*
X116185400Y-67311400D02*
X116185400Y-66003400D01*
X116145400Y-70680400D02*
X116145400Y-69391400D01*
X116145400Y-67311400D02*
X116145400Y-66022400D01*
X116105400Y-70661400D02*
X116105400Y-69391400D01*
X116105400Y-67311400D02*
X116105400Y-66041400D01*
X116065400Y-70641400D02*
X116065400Y-69391400D01*
X116065400Y-67311400D02*
X116065400Y-66061400D01*
X116025400Y-70619400D02*
X116025400Y-69391400D01*
X116025400Y-67311400D02*
X116025400Y-66083400D01*
X115985400Y-70598400D02*
X115985400Y-69391400D01*
X115985400Y-67311400D02*
X115985400Y-66104400D01*
X115945400Y-70575400D02*
X115945400Y-69391400D01*
X115945400Y-67311400D02*
X115945400Y-66127400D01*
X115905400Y-70551400D02*
X115905400Y-69391400D01*
X115905400Y-67311400D02*
X115905400Y-66151400D01*
X115865400Y-70526400D02*
X115865400Y-69391400D01*
X115865400Y-67311400D02*
X115865400Y-66176400D01*
X115825400Y-70500400D02*
X115825400Y-69391400D01*
X115825400Y-67311400D02*
X115825400Y-66202400D01*
X115785400Y-70473400D02*
X115785400Y-69391400D01*
X115785400Y-67311400D02*
X115785400Y-66229400D01*
X115745400Y-70446400D02*
X115745400Y-69391400D01*
X115745400Y-67311400D02*
X115745400Y-66256400D01*
X115705400Y-70416400D02*
X115705400Y-69391400D01*
X115705400Y-67311400D02*
X115705400Y-66286400D01*
X115665400Y-70386400D02*
X115665400Y-69391400D01*
X115665400Y-67311400D02*
X115665400Y-66316400D01*
X115625400Y-70355400D02*
X115625400Y-69391400D01*
X115625400Y-67311400D02*
X115625400Y-66347400D01*
X115585400Y-70322400D02*
X115585400Y-69391400D01*
X115585400Y-67311400D02*
X115585400Y-66380400D01*
X115545400Y-70288400D02*
X115545400Y-69391400D01*
X115545400Y-67311400D02*
X115545400Y-66414400D01*
X115505400Y-70252400D02*
X115505400Y-69391400D01*
X115505400Y-67311400D02*
X115505400Y-66450400D01*
X115465400Y-70215400D02*
X115465400Y-69391400D01*
X115465400Y-67311400D02*
X115465400Y-66487400D01*
X115425400Y-70177400D02*
X115425400Y-69391400D01*
X115425400Y-67311400D02*
X115425400Y-66525400D01*
X115385400Y-70136400D02*
X115385400Y-69391400D01*
X115385400Y-67311400D02*
X115385400Y-66566400D01*
X115345400Y-70094400D02*
X115345400Y-69391400D01*
X115345400Y-67311400D02*
X115345400Y-66608400D01*
X115305400Y-70050400D02*
X115305400Y-69391400D01*
X115305400Y-67311400D02*
X115305400Y-66652400D01*
X115265400Y-70004400D02*
X115265400Y-69391400D01*
X115265400Y-67311400D02*
X115265400Y-66698400D01*
X115225400Y-69956400D02*
X115225400Y-69391400D01*
X115225400Y-67311400D02*
X115225400Y-66746400D01*
X115185400Y-69905400D02*
X115185400Y-69391400D01*
X115185400Y-67311400D02*
X115185400Y-66797400D01*
X115145400Y-69851400D02*
X115145400Y-69391400D01*
X115145400Y-67311400D02*
X115145400Y-66851400D01*
X115105400Y-69794400D02*
X115105400Y-69391400D01*
X115105400Y-67311400D02*
X115105400Y-66908400D01*
X115065400Y-69734400D02*
X115065400Y-69391400D01*
X115065400Y-67311400D02*
X115065400Y-66968400D01*
X115025400Y-69670400D02*
X115025400Y-69391400D01*
X115025400Y-67311400D02*
X115025400Y-67032400D01*
X114985400Y-69602400D02*
X114985400Y-69391400D01*
X114985400Y-67311400D02*
X114985400Y-67100400D01*
X114945400Y-69529400D02*
X114945400Y-67173400D01*
X114905400Y-69449400D02*
X114905400Y-67253400D01*
X114865400Y-69362400D02*
X114865400Y-67340400D01*
X114825400Y-69266400D02*
X114825400Y-67436400D01*
X114785400Y-69156400D02*
X114785400Y-67546400D01*
X114745400Y-69028400D02*
X114745400Y-67674400D01*
X114705400Y-68869400D02*
X114705400Y-67833400D01*
X114665400Y-68635400D02*
X114665400Y-68067400D01*
X120071175Y-69826400D02*
X119571175Y-69826400D01*
X119821175Y-70076400D02*
X119821175Y-69576400D01*
G04 #@! TO.C,J2*
X143577000Y-76140000D02*
X143577000Y-78800000D01*
X148717000Y-76140000D02*
X143577000Y-76140000D01*
X148717000Y-78800000D02*
X143577000Y-78800000D01*
X148717000Y-76140000D02*
X148717000Y-78800000D01*
X149987000Y-76140000D02*
X151317000Y-76140000D01*
X151317000Y-76140000D02*
X151317000Y-77470000D01*
G04 #@! TO.C,J4*
X151317000Y-72584000D02*
X151317000Y-73914000D01*
X149987000Y-72584000D02*
X151317000Y-72584000D01*
X148717000Y-72584000D02*
X148717000Y-75244000D01*
X148717000Y-75244000D02*
X143577000Y-75244000D01*
X148717000Y-72584000D02*
X143577000Y-72584000D01*
X143577000Y-72584000D02*
X143577000Y-75244000D01*
G04 #@! TO.C,J3*
X143577000Y-79569000D02*
X143577000Y-82229000D01*
X148717000Y-79569000D02*
X143577000Y-79569000D01*
X148717000Y-82229000D02*
X143577000Y-82229000D01*
X148717000Y-79569000D02*
X148717000Y-82229000D01*
X149987000Y-79569000D02*
X151317000Y-79569000D01*
X151317000Y-79569000D02*
X151317000Y-80899000D01*
G04 #@! TO.C,J1*
X108575800Y-80197000D02*
X113775800Y-80197000D01*
X108575800Y-75057000D02*
X108575800Y-80197000D01*
X113775800Y-72457000D02*
X113775800Y-80197000D01*
X108575800Y-75057000D02*
X111175800Y-75057000D01*
X111175800Y-75057000D02*
X111175800Y-72457000D01*
X111175800Y-72457000D02*
X113775800Y-72457000D01*
X108575800Y-73787000D02*
X108575800Y-72457000D01*
X108575800Y-72457000D02*
X109905800Y-72457000D01*
G04 #@! TO.C,Y1*
X118074684Y-95748241D02*
X118074684Y-89198241D01*
X118074684Y-89198241D02*
X114174684Y-89198241D01*
X114174684Y-89198241D02*
X114174684Y-95748241D01*
D15*
G04 #@! TO.C,U3*
X110621926Y-86939202D02*
X110671926Y-86939202D01*
X110621926Y-82789202D02*
X110766926Y-82789202D01*
X115771926Y-82789202D02*
X115626926Y-82789202D01*
X115771926Y-86939202D02*
X115626926Y-86939202D01*
X110621926Y-86939202D02*
X110621926Y-82789202D01*
X115771926Y-86939202D02*
X115771926Y-82789202D01*
X110671926Y-86939202D02*
X110671926Y-88339202D01*
G04 #@! TO.C,U2*
X120994000Y-94393000D02*
X125444000Y-94393000D01*
X119469000Y-87493000D02*
X125444000Y-87493000D01*
D13*
G04 #@! TO.C,U1*
X133797000Y-66186000D02*
X139807000Y-66186000D01*
X136047000Y-73006000D02*
X139807000Y-73006000D01*
X139807000Y-66186000D02*
X139807000Y-67446000D01*
X139807000Y-73006000D02*
X139807000Y-71746000D01*
G04 #@! TO.C,U4*
X128681000Y-73006000D02*
X128681000Y-71746000D01*
X128681000Y-66186000D02*
X128681000Y-67446000D01*
X124921000Y-73006000D02*
X128681000Y-73006000D01*
X122671000Y-66186000D02*
X128681000Y-66186000D01*
G04 #@! TO.C,R3*
X117566221Y-85346000D02*
X117891779Y-85346000D01*
X117566221Y-84326000D02*
X117891779Y-84326000D01*
G04 #@! TO.C,R1*
X113434284Y-92599620D02*
X113434284Y-92274062D01*
X112414284Y-92599620D02*
X112414284Y-92274062D01*
G04 #@! TO.C,R2*
X116457000Y-82687279D02*
X116457000Y-82361721D01*
X117477000Y-82687279D02*
X117477000Y-82361721D01*
G04 #@! TO.C,C4*
D15*
X135870333Y-81704142D02*
X135822714Y-81751761D01*
X135679857Y-81799380D01*
X135584619Y-81799380D01*
X135441761Y-81751761D01*
X135346523Y-81656523D01*
X135298904Y-81561285D01*
X135251285Y-81370809D01*
X135251285Y-81227952D01*
X135298904Y-81037476D01*
X135346523Y-80942238D01*
X135441761Y-80847000D01*
X135584619Y-80799380D01*
X135679857Y-80799380D01*
X135822714Y-80847000D01*
X135870333Y-80894619D01*
X136727476Y-81132714D02*
X136727476Y-81799380D01*
X136489380Y-80751761D02*
X136251285Y-81466047D01*
X136870333Y-81466047D01*
G04 #@! TO.C,Y2*
X141967009Y-85726590D02*
X141967009Y-86202780D01*
X141633676Y-85202780D02*
X141967009Y-85726590D01*
X142300342Y-85202780D01*
X142586057Y-85298019D02*
X142633676Y-85250400D01*
X142728914Y-85202780D01*
X142967009Y-85202780D01*
X143062247Y-85250400D01*
X143109866Y-85298019D01*
X143157485Y-85393257D01*
X143157485Y-85488495D01*
X143109866Y-85631352D01*
X142538438Y-86202780D01*
X143157485Y-86202780D01*
G04 #@! TO.C,C8*
X143267133Y-92584542D02*
X143219514Y-92632161D01*
X143076657Y-92679780D01*
X142981419Y-92679780D01*
X142838561Y-92632161D01*
X142743323Y-92536923D01*
X142695704Y-92441685D01*
X142648085Y-92251209D01*
X142648085Y-92108352D01*
X142695704Y-91917876D01*
X142743323Y-91822638D01*
X142838561Y-91727400D01*
X142981419Y-91679780D01*
X143076657Y-91679780D01*
X143219514Y-91727400D01*
X143267133Y-91775019D01*
X143838561Y-92108352D02*
X143743323Y-92060733D01*
X143695704Y-92013114D01*
X143648085Y-91917876D01*
X143648085Y-91870257D01*
X143695704Y-91775019D01*
X143743323Y-91727400D01*
X143838561Y-91679780D01*
X144029038Y-91679780D01*
X144124276Y-91727400D01*
X144171895Y-91775019D01*
X144219514Y-91870257D01*
X144219514Y-91917876D01*
X144171895Y-92013114D01*
X144124276Y-92060733D01*
X144029038Y-92108352D01*
X143838561Y-92108352D01*
X143743323Y-92155971D01*
X143695704Y-92203590D01*
X143648085Y-92298828D01*
X143648085Y-92489304D01*
X143695704Y-92584542D01*
X143743323Y-92632161D01*
X143838561Y-92679780D01*
X144029038Y-92679780D01*
X144124276Y-92632161D01*
X144171895Y-92584542D01*
X144219514Y-92489304D01*
X144219514Y-92298828D01*
X144171895Y-92203590D01*
X144124276Y-92155971D01*
X144029038Y-92108352D01*
G04 #@! TO.C,U5*
X138938095Y-94956380D02*
X138938095Y-95765904D01*
X138985714Y-95861142D01*
X139033333Y-95908761D01*
X139128571Y-95956380D01*
X139319047Y-95956380D01*
X139414285Y-95908761D01*
X139461904Y-95861142D01*
X139509523Y-95765904D01*
X139509523Y-94956380D01*
X140461904Y-94956380D02*
X139985714Y-94956380D01*
X139938095Y-95432571D01*
X139985714Y-95384952D01*
X140080952Y-95337333D01*
X140319047Y-95337333D01*
X140414285Y-95384952D01*
X140461904Y-95432571D01*
X140509523Y-95527809D01*
X140509523Y-95765904D01*
X140461904Y-95861142D01*
X140414285Y-95908761D01*
X140319047Y-95956380D01*
X140080952Y-95956380D01*
X139985714Y-95908761D01*
X139938095Y-95861142D01*
G04 #@! TO.C,D2*
X129055904Y-83256380D02*
X129055904Y-82256380D01*
X129294000Y-82256380D01*
X129436857Y-82304000D01*
X129532095Y-82399238D01*
X129579714Y-82494476D01*
X129627333Y-82684952D01*
X129627333Y-82827809D01*
X129579714Y-83018285D01*
X129532095Y-83113523D01*
X129436857Y-83208761D01*
X129294000Y-83256380D01*
X129055904Y-83256380D01*
X130008285Y-82351619D02*
X130055904Y-82304000D01*
X130151142Y-82256380D01*
X130389238Y-82256380D01*
X130484476Y-82304000D01*
X130532095Y-82351619D01*
X130579714Y-82446857D01*
X130579714Y-82542095D01*
X130532095Y-82684952D01*
X129960666Y-83256380D01*
X130579714Y-83256380D01*
G04 #@! TO.C,R5*
X146518333Y-71572380D02*
X146185000Y-71096190D01*
X145946904Y-71572380D02*
X145946904Y-70572380D01*
X146327857Y-70572380D01*
X146423095Y-70620000D01*
X146470714Y-70667619D01*
X146518333Y-70762857D01*
X146518333Y-70905714D01*
X146470714Y-71000952D01*
X146423095Y-71048571D01*
X146327857Y-71096190D01*
X145946904Y-71096190D01*
X147423095Y-70572380D02*
X146946904Y-70572380D01*
X146899285Y-71048571D01*
X146946904Y-71000952D01*
X147042142Y-70953333D01*
X147280238Y-70953333D01*
X147375476Y-71000952D01*
X147423095Y-71048571D01*
X147470714Y-71143809D01*
X147470714Y-71381904D01*
X147423095Y-71477142D01*
X147375476Y-71524761D01*
X147280238Y-71572380D01*
X147042142Y-71572380D01*
X146946904Y-71524761D01*
X146899285Y-71477142D01*
G04 #@! TO.C,R6*
X132675133Y-82824580D02*
X132341800Y-82348390D01*
X132103704Y-82824580D02*
X132103704Y-81824580D01*
X132484657Y-81824580D01*
X132579895Y-81872200D01*
X132627514Y-81919819D01*
X132675133Y-82015057D01*
X132675133Y-82157914D01*
X132627514Y-82253152D01*
X132579895Y-82300771D01*
X132484657Y-82348390D01*
X132103704Y-82348390D01*
X133532276Y-81824580D02*
X133341800Y-81824580D01*
X133246561Y-81872200D01*
X133198942Y-81919819D01*
X133103704Y-82062676D01*
X133056085Y-82253152D01*
X133056085Y-82634104D01*
X133103704Y-82729342D01*
X133151323Y-82776961D01*
X133246561Y-82824580D01*
X133437038Y-82824580D01*
X133532276Y-82776961D01*
X133579895Y-82729342D01*
X133627514Y-82634104D01*
X133627514Y-82396009D01*
X133579895Y-82300771D01*
X133532276Y-82253152D01*
X133437038Y-82205533D01*
X133246561Y-82205533D01*
X133151323Y-82253152D01*
X133103704Y-82300771D01*
X133056085Y-82396009D01*
G04 #@! TO.C,C7*
X121753333Y-77319142D02*
X121705714Y-77366761D01*
X121562857Y-77414380D01*
X121467619Y-77414380D01*
X121324761Y-77366761D01*
X121229523Y-77271523D01*
X121181904Y-77176285D01*
X121134285Y-76985809D01*
X121134285Y-76842952D01*
X121181904Y-76652476D01*
X121229523Y-76557238D01*
X121324761Y-76462000D01*
X121467619Y-76414380D01*
X121562857Y-76414380D01*
X121705714Y-76462000D01*
X121753333Y-76509619D01*
X122086666Y-76414380D02*
X122753333Y-76414380D01*
X122324761Y-77414380D01*
G04 #@! TO.C,C1*
X110196333Y-90527142D02*
X110148714Y-90574761D01*
X110005857Y-90622380D01*
X109910619Y-90622380D01*
X109767761Y-90574761D01*
X109672523Y-90479523D01*
X109624904Y-90384285D01*
X109577285Y-90193809D01*
X109577285Y-90050952D01*
X109624904Y-89860476D01*
X109672523Y-89765238D01*
X109767761Y-89670000D01*
X109910619Y-89622380D01*
X110005857Y-89622380D01*
X110148714Y-89670000D01*
X110196333Y-89717619D01*
X111148714Y-90622380D02*
X110577285Y-90622380D01*
X110863000Y-90622380D02*
X110863000Y-89622380D01*
X110767761Y-89765238D01*
X110672523Y-89860476D01*
X110577285Y-89908095D01*
G04 #@! TO.C,C2*
X110196333Y-94972142D02*
X110148714Y-95019761D01*
X110005857Y-95067380D01*
X109910619Y-95067380D01*
X109767761Y-95019761D01*
X109672523Y-94924523D01*
X109624904Y-94829285D01*
X109577285Y-94638809D01*
X109577285Y-94495952D01*
X109624904Y-94305476D01*
X109672523Y-94210238D01*
X109767761Y-94115000D01*
X109910619Y-94067380D01*
X110005857Y-94067380D01*
X110148714Y-94115000D01*
X110196333Y-94162619D01*
X110577285Y-94162619D02*
X110624904Y-94115000D01*
X110720142Y-94067380D01*
X110958238Y-94067380D01*
X111053476Y-94115000D01*
X111101095Y-94162619D01*
X111148714Y-94257857D01*
X111148714Y-94353095D01*
X111101095Y-94495952D01*
X110529666Y-95067380D01*
X111148714Y-95067380D01*
G04 #@! TO.C,C3*
X123404333Y-86717142D02*
X123356714Y-86764761D01*
X123213857Y-86812380D01*
X123118619Y-86812380D01*
X122975761Y-86764761D01*
X122880523Y-86669523D01*
X122832904Y-86574285D01*
X122785285Y-86383809D01*
X122785285Y-86240952D01*
X122832904Y-86050476D01*
X122880523Y-85955238D01*
X122975761Y-85860000D01*
X123118619Y-85812380D01*
X123213857Y-85812380D01*
X123356714Y-85860000D01*
X123404333Y-85907619D01*
X123737666Y-85812380D02*
X124356714Y-85812380D01*
X124023380Y-86193333D01*
X124166238Y-86193333D01*
X124261476Y-86240952D01*
X124309095Y-86288571D01*
X124356714Y-86383809D01*
X124356714Y-86621904D01*
X124309095Y-86717142D01*
X124261476Y-86764761D01*
X124166238Y-86812380D01*
X123880523Y-86812380D01*
X123785285Y-86764761D01*
X123737666Y-86717142D01*
G04 #@! TO.C,C6*
X109434333Y-82652942D02*
X109386714Y-82700561D01*
X109243857Y-82748180D01*
X109148619Y-82748180D01*
X109005761Y-82700561D01*
X108910523Y-82605323D01*
X108862904Y-82510085D01*
X108815285Y-82319609D01*
X108815285Y-82176752D01*
X108862904Y-81986276D01*
X108910523Y-81891038D01*
X109005761Y-81795800D01*
X109148619Y-81748180D01*
X109243857Y-81748180D01*
X109386714Y-81795800D01*
X109434333Y-81843419D01*
X110291476Y-81748180D02*
X110101000Y-81748180D01*
X110005761Y-81795800D01*
X109958142Y-81843419D01*
X109862904Y-81986276D01*
X109815285Y-82176752D01*
X109815285Y-82557704D01*
X109862904Y-82652942D01*
X109910523Y-82700561D01*
X110005761Y-82748180D01*
X110196238Y-82748180D01*
X110291476Y-82700561D01*
X110339095Y-82652942D01*
X110386714Y-82557704D01*
X110386714Y-82319609D01*
X110339095Y-82224371D01*
X110291476Y-82176752D01*
X110196238Y-82129133D01*
X110005761Y-82129133D01*
X109910523Y-82176752D01*
X109862904Y-82224371D01*
X109815285Y-82319609D01*
G04 #@! TO.C,C5*
X120330933Y-67006742D02*
X120283314Y-67054361D01*
X120140457Y-67101980D01*
X120045219Y-67101980D01*
X119902361Y-67054361D01*
X119807123Y-66959123D01*
X119759504Y-66863885D01*
X119711885Y-66673409D01*
X119711885Y-66530552D01*
X119759504Y-66340076D01*
X119807123Y-66244838D01*
X119902361Y-66149600D01*
X120045219Y-66101980D01*
X120140457Y-66101980D01*
X120283314Y-66149600D01*
X120330933Y-66197219D01*
X121235695Y-66101980D02*
X120759504Y-66101980D01*
X120711885Y-66578171D01*
X120759504Y-66530552D01*
X120854742Y-66482933D01*
X121092838Y-66482933D01*
X121188076Y-66530552D01*
X121235695Y-66578171D01*
X121283314Y-66673409D01*
X121283314Y-66911504D01*
X121235695Y-67006742D01*
X121188076Y-67054361D01*
X121092838Y-67101980D01*
X120854742Y-67101980D01*
X120759504Y-67054361D01*
X120711885Y-67006742D01*
G04 #@! TO.C,Y1*
X112680809Y-89765190D02*
X112680809Y-90241380D01*
X112347476Y-89241380D02*
X112680809Y-89765190D01*
X113014142Y-89241380D01*
X113871285Y-90241380D02*
X113299857Y-90241380D01*
X113585571Y-90241380D02*
X113585571Y-89241380D01*
X113490333Y-89384238D01*
X113395095Y-89479476D01*
X113299857Y-89527095D01*
G04 #@! TO.C,U3*
X108712095Y-87209380D02*
X108712095Y-88018904D01*
X108759714Y-88114142D01*
X108807333Y-88161761D01*
X108902571Y-88209380D01*
X109093047Y-88209380D01*
X109188285Y-88161761D01*
X109235904Y-88114142D01*
X109283523Y-88018904D01*
X109283523Y-87209380D01*
X109664476Y-87209380D02*
X110283523Y-87209380D01*
X109950190Y-87590333D01*
X110093047Y-87590333D01*
X110188285Y-87637952D01*
X110235904Y-87685571D01*
X110283523Y-87780809D01*
X110283523Y-88018904D01*
X110235904Y-88114142D01*
X110188285Y-88161761D01*
X110093047Y-88209380D01*
X109807333Y-88209380D01*
X109712095Y-88161761D01*
X109664476Y-88114142D01*
G04 #@! TO.C,U2*
X119634095Y-86066380D02*
X119634095Y-86875904D01*
X119681714Y-86971142D01*
X119729333Y-87018761D01*
X119824571Y-87066380D01*
X120015047Y-87066380D01*
X120110285Y-87018761D01*
X120157904Y-86971142D01*
X120205523Y-86875904D01*
X120205523Y-86066380D01*
X120634095Y-86161619D02*
X120681714Y-86114000D01*
X120776952Y-86066380D01*
X121015047Y-86066380D01*
X121110285Y-86114000D01*
X121157904Y-86161619D01*
X121205523Y-86256857D01*
X121205523Y-86352095D01*
X121157904Y-86494952D01*
X120586476Y-87066380D01*
X121205523Y-87066380D01*
G04 #@! TO.C,U1*
X140182695Y-66291180D02*
X140182695Y-67100704D01*
X140230314Y-67195942D01*
X140277933Y-67243561D01*
X140373171Y-67291180D01*
X140563647Y-67291180D01*
X140658885Y-67243561D01*
X140706504Y-67195942D01*
X140754123Y-67100704D01*
X140754123Y-66291180D01*
X141754123Y-67291180D02*
X141182695Y-67291180D01*
X141468409Y-67291180D02*
X141468409Y-66291180D01*
X141373171Y-66434038D01*
X141277933Y-66529276D01*
X141182695Y-66576895D01*
G04 #@! TO.C,U4*
X129032095Y-66152780D02*
X129032095Y-66962304D01*
X129079714Y-67057542D01*
X129127333Y-67105161D01*
X129222571Y-67152780D01*
X129413047Y-67152780D01*
X129508285Y-67105161D01*
X129555904Y-67057542D01*
X129603523Y-66962304D01*
X129603523Y-66152780D01*
X130508285Y-66486114D02*
X130508285Y-67152780D01*
X130270190Y-66105161D02*
X130032095Y-66819447D01*
X130651142Y-66819447D01*
G04 #@! TO.C,R3*
X120102333Y-85288380D02*
X119769000Y-84812190D01*
X119530904Y-85288380D02*
X119530904Y-84288380D01*
X119911857Y-84288380D01*
X120007095Y-84336000D01*
X120054714Y-84383619D01*
X120102333Y-84478857D01*
X120102333Y-84621714D01*
X120054714Y-84716952D01*
X120007095Y-84764571D01*
X119911857Y-84812190D01*
X119530904Y-84812190D01*
X120435666Y-84288380D02*
X121054714Y-84288380D01*
X120721380Y-84669333D01*
X120864238Y-84669333D01*
X120959476Y-84716952D01*
X121007095Y-84764571D01*
X121054714Y-84859809D01*
X121054714Y-85097904D01*
X121007095Y-85193142D01*
X120959476Y-85240761D01*
X120864238Y-85288380D01*
X120578523Y-85288380D01*
X120483285Y-85240761D01*
X120435666Y-85193142D01*
G04 #@! TO.C,R1*
X112863333Y-95067380D02*
X112530000Y-94591190D01*
X112291904Y-95067380D02*
X112291904Y-94067380D01*
X112672857Y-94067380D01*
X112768095Y-94115000D01*
X112815714Y-94162619D01*
X112863333Y-94257857D01*
X112863333Y-94400714D01*
X112815714Y-94495952D01*
X112768095Y-94543571D01*
X112672857Y-94591190D01*
X112291904Y-94591190D01*
X113815714Y-95067380D02*
X113244285Y-95067380D01*
X113530000Y-95067380D02*
X113530000Y-94067380D01*
X113434761Y-94210238D01*
X113339523Y-94305476D01*
X113244285Y-94353095D01*
G04 #@! TO.C,R2*
X118578333Y-82113380D02*
X118245000Y-81637190D01*
X118006904Y-82113380D02*
X118006904Y-81113380D01*
X118387857Y-81113380D01*
X118483095Y-81161000D01*
X118530714Y-81208619D01*
X118578333Y-81303857D01*
X118578333Y-81446714D01*
X118530714Y-81541952D01*
X118483095Y-81589571D01*
X118387857Y-81637190D01*
X118006904Y-81637190D01*
X118959285Y-81208619D02*
X119006904Y-81161000D01*
X119102142Y-81113380D01*
X119340238Y-81113380D01*
X119435476Y-81161000D01*
X119483095Y-81208619D01*
X119530714Y-81303857D01*
X119530714Y-81399095D01*
X119483095Y-81541952D01*
X118911666Y-82113380D01*
X119530714Y-82113380D01*
G04 #@! TD*
M02*
