M48
;DRILL file {KiCad (5.0.2)-1} date 2/2/2019 3:44:57 PM
;FORMAT={-:-/ absolute / inch / decimal}
FMAT,2
INCH,TZ
T1C0.0118
T2C0.0157
T3C0.0394
T4C0.0433
T5C0.0598
%
G90
G05
T1
X5.1884Y-4.5097
X5.1884Y-4.5491
X5.2081Y-4.5294
X5.2278Y-4.5097
X5.2278Y-4.5491
T2
X3.335Y-2.665
X3.335Y-2.715
X3.335Y-2.765
X3.335Y-2.815
X3.335Y-2.865
X3.335Y-2.915
X3.335Y-2.965
X3.335Y-3.015
X3.335Y-3.065
X3.335Y-3.115
X3.335Y-3.165
X3.335Y-3.215
X3.335Y-3.265
X3.335Y-3.315
X3.335Y-3.365
X3.335Y-3.415
X3.335Y-3.465
X3.335Y-3.515
X3.335Y-3.565
X3.335Y-3.615
X3.335Y-3.665
X3.335Y-3.715
X3.335Y-3.765
X3.335Y-3.815
X3.335Y-3.865
X3.335Y-3.915
X3.335Y-3.965
X3.335Y-4.015
X3.335Y-4.065
X3.335Y-4.115
X3.335Y-4.165
X3.335Y-4.215
X3.335Y-4.265
X3.335Y-4.315
X3.335Y-4.365
X3.335Y-4.415
X3.335Y-4.465
X3.335Y-4.515
X3.335Y-4.565
X3.335Y-4.615
X3.335Y-4.965
X3.335Y-5.015
X3.335Y-5.065
X3.335Y-5.115
X3.335Y-5.165
X3.335Y-5.215
X3.335Y-5.265
X3.335Y-5.315
X3.335Y-5.365
X3.335Y-5.415
X3.375Y-4.62
X3.385Y-2.665
X3.385Y-5.415
X3.39Y-4.965
X3.415Y-4.645
X3.435Y-2.665
X3.435Y-5.415
X3.45Y-4.975
X3.465Y-4.665
X3.485Y-2.665
X3.485Y-5.415
X3.525Y-4.67
X3.535Y-2.665
X3.535Y-5.415
X3.585Y-2.665
X3.585Y-5.415
X3.635Y-2.665
X3.635Y-5.415
X3.685Y-2.665
X3.685Y-5.415
X3.735Y-2.665
X3.735Y-5.415
X3.785Y-2.615
X3.785Y-5.465
X3.835Y-2.565
X3.835Y-5.515
X3.855Y-4.575
X3.885Y-2.515
X3.885Y-5.565
X3.935Y-2.065
X3.935Y-2.115
X3.935Y-2.165
X3.935Y-2.215
X3.935Y-2.265
X3.935Y-2.315
X3.935Y-2.365
X3.935Y-2.415
X3.935Y-2.465
X3.935Y-5.615
X3.935Y-5.665
X3.935Y-5.715
X3.935Y-5.765
X3.935Y-5.815
X3.935Y-5.865
X3.935Y-5.915
X3.935Y-5.965
X3.935Y-6.015
X3.96Y-3.875
X3.985Y-2.065
X3.985Y-6.015
X3.9955Y-3.4155
X4.0145Y-3.5096
X4.02Y-4.2
X4.02Y-4.32
X4.025Y-4.57
X4.0323Y-3.3923
X4.035Y-2.065
X4.035Y-6.015
X4.0445Y-3.4751
X4.0629Y-3.6327
X4.0716Y-3.5056
X4.085Y-2.065
X4.085Y-3.76
X4.085Y-6.015
X4.0985Y-4.32
X4.1Y-4.2765
X4.135Y-2.065
X4.135Y-6.015
X4.14Y-3.7
X4.14Y-4.075
X4.14Y-4.155
X4.17Y-4.285
X4.185Y-2.065
X4.185Y-6.015
X4.205Y-3.79
X4.2052Y-4.3702
X4.215Y-3.405
X4.215Y-4.2
X4.2158Y-3.6052
X4.2183Y-4.0981
X4.2215Y-3.6441
X4.225Y-3.465
X4.225Y-3.525
X4.235Y-2.065
X4.235Y-6.015
X4.2363Y-3.865
X4.27Y-4.115
X4.285Y-2.065
X4.285Y-6.015
X4.2963Y-3.735
X4.2963Y-3.79
X4.335Y-2.065
X4.335Y-6.015
X4.345Y-3.765
X4.3452Y-3.8648
X4.385Y-2.065
X4.385Y-6.015
X4.435Y-2.065
X4.435Y-6.015
X4.46Y-3.765
X4.485Y-2.065
X4.485Y-6.015
X4.5338Y-4.2602
X4.535Y-2.065
X4.535Y-3.445
X4.535Y-6.015
X4.545Y-4.365
X4.5467Y-4.1913
X4.5526Y-4.1505
X4.555Y-3.9613
X4.5625Y-3.6354
X4.5762Y-4.2781
X4.585Y-2.065
X4.585Y-6.015
X4.59Y-3.735
X4.5925Y-3.4434
X4.635Y-2.065
X4.635Y-6.015
X4.657Y-4.101
X4.66Y-4.215
X4.665Y-3.49
X4.665Y-3.69
X4.665Y-3.805
X4.685Y-2.065
X4.685Y-6.015
X4.7284Y-3.735
X4.73Y-4.495
X4.7323Y-3.5977
X4.735Y-2.065
X4.735Y-3.395
X4.735Y-6.015
X4.745Y-4.275
X4.746Y-4.351
X4.785Y-2.065
X4.785Y-6.015
X4.797Y-3.822
X4.815Y-4.34
X4.825Y-3.425
X4.825Y-3.4831
X4.835Y-2.065
X4.835Y-6.015
X4.85Y-4.456
X4.885Y-2.065
X4.885Y-6.015
X4.9065Y-3.79
X4.925Y-4.355
X4.935Y-2.065
X4.935Y-6.015
X4.94Y-4.49
X4.985Y-2.065
X4.985Y-6.015
X5.005Y-4.64
X5.035Y-2.065
X5.035Y-2.065
X5.035Y-2.065
X5.035Y-4.24
X5.035Y-4.54
X5.035Y-6.015
X5.075Y-4.635
X5.085Y-2.065
X5.085Y-6.015
X5.115Y-4.595
X5.115Y-4.635
X5.135Y-2.065
X5.135Y-6.015
X5.155Y-4.28
X5.155Y-4.635
X5.1589Y-3.7311
X5.185Y-2.065
X5.185Y-6.015
X5.235Y-2.065
X5.235Y-6.015
X5.255Y-3.73
X5.285Y-2.065
X5.285Y-6.015
X5.3075Y-3.9475
X5.3098Y-4.4698
X5.335Y-2.065
X5.335Y-6.015
X5.385Y-2.065
X5.385Y-6.015
X5.4057Y-4.082
X5.435Y-2.065
X5.435Y-6.015
X5.46Y-4.101
X5.4642Y-4.2399
X5.47Y-4.515
X5.485Y-2.065
X5.485Y-6.015
X5.49Y-4.0728
X5.5Y-4.655
X5.5036Y-4.2387
X5.5301Y-4.4896
X5.535Y-2.065
X5.535Y-6.015
X5.5451Y-4.2398
X5.5618Y-4.513
X5.576Y-3.43
X5.585Y-2.065
X5.585Y-6.015
X5.589Y-4.2476
X5.605Y-4.55
X5.6059Y-4.1033
X5.635Y-2.065
X5.635Y-6.015
X5.639Y-4.339
X5.6685Y-3.43
X5.685Y-2.065
X5.685Y-6.015
X5.73Y-4.455
X5.735Y-2.065
X5.735Y-4.07
X5.735Y-6.015
X5.7602Y-4.1002
X5.785Y-2.065
X5.785Y-6.015
X5.7862Y-4.3338
X5.8115Y-4.0028
X5.835Y-2.065
X5.835Y-6.015
X5.885Y-2.065
X5.885Y-4.335
X5.885Y-6.015
X5.915Y-4.375
X5.935Y-2.065
X5.935Y-6.015
X5.95Y-4.06
X5.95Y-4.1565
X5.975Y-3.2
X5.985Y-2.065
X5.985Y-6.015
X6.005Y-4.0615
X6.0065Y-3.43
X6.01Y-3.265
X6.0161Y-3.9689
X6.035Y-2.065
X6.035Y-6.015
X6.0352Y-3.3452
X6.0603Y-4.0304
X6.0637Y-3.405
X6.0641Y-4.1602
X6.085Y-2.065
X6.085Y-6.015
X6.135Y-2.065
X6.135Y-6.015
X6.145Y-4.1185
X6.16Y-4.0363
X6.16Y-3.9602
X6.175Y-3.189
X6.18Y-3.925
X6.1808Y-4.1349
X6.185Y-2.065
X6.185Y-6.015
X6.2243Y-3.9615
X6.225Y-4.335
X6.2275Y-4.4225
X6.235Y-2.065
X6.235Y-3.04
X6.235Y-4.12
X6.235Y-6.015
X6.285Y-2.065
X6.285Y-6.015
X6.295Y-3.64
X6.33Y-3.13
X6.335Y-2.065
X6.335Y-6.015
X6.357Y-4.2447
X6.3607Y-3.2403
X6.385Y-2.065
X6.385Y-6.015
X6.39Y-4.55
X6.3913Y-3.265
X6.398Y-3.6475
X6.4125Y-4.32
X6.4265Y-3.387
X6.4295Y-3.922
X6.4298Y-4.2175
X6.434Y-3.431
X6.435Y-2.065
X6.435Y-6.015
X6.4374Y-4.3528
X6.46Y-3.805
X6.4672Y-4.4225
X6.475Y-4.575
X6.485Y-2.065
X6.485Y-6.015
X6.4853Y-4.3875
X6.496Y-3.3159
X6.5129Y-4.5592
X6.5275Y-3.3475
X6.535Y-2.065
X6.535Y-6.015
X6.54Y-3.695
X6.5422Y-4.5315
X6.5805Y-4.6721
X6.585Y-2.065
X6.585Y-6.015
X6.6Y-4.615
X6.635Y-2.065
X6.635Y-5.615
X6.635Y-5.665
X6.635Y-5.715
X6.635Y-5.765
X6.635Y-5.815
X6.635Y-5.865
X6.635Y-5.915
X6.635Y-5.965
X6.635Y-6.015
X6.66Y-4.615
X6.6644Y-3.6919
X6.6755Y-4.5788
X6.685Y-2.065
X6.685Y-2.115
X6.685Y-2.165
X6.685Y-2.215
X6.685Y-2.265
X6.685Y-2.315
X6.685Y-2.365
X6.685Y-2.415
X6.685Y-2.465
X6.685Y-5.565
X6.715Y-3.945
X6.72Y-4.38
X6.735Y-2.515
X6.735Y-5.515
X6.775Y-3.4425
X6.785Y-2.565
X6.785Y-5.465
X6.815Y-4.315
X6.82Y-2.59
X6.835Y-5.415
X6.84Y-3.9325
X6.845Y-4.145
X6.86Y-2.615
X6.885Y-5.415
X6.895Y-2.635
X6.895Y-2.635
X6.895Y-2.635
X6.935Y-2.655
X6.935Y-5.415
X6.975Y-2.665
X6.985Y-5.415
X7.035Y-2.665
X7.035Y-5.415
X7.085Y-2.665
X7.085Y-5.415
X7.135Y-2.665
X7.135Y-5.415
X7.185Y-2.665
X7.185Y-5.415
X7.235Y-2.665
X7.235Y-2.715
X7.235Y-2.765
X7.235Y-2.815
X7.235Y-2.865
X7.235Y-2.915
X7.235Y-2.965
X7.235Y-3.015
X7.235Y-3.065
X7.235Y-3.115
X7.235Y-3.165
X7.235Y-3.215
X7.235Y-3.265
X7.235Y-3.315
X7.235Y-3.365
X7.235Y-3.415
X7.235Y-3.465
X7.235Y-3.515
X7.235Y-3.565
X7.235Y-3.615
X7.235Y-3.665
X7.235Y-3.715
X7.235Y-3.765
X7.235Y-3.815
X7.235Y-3.865
X7.235Y-3.915
X7.235Y-3.965
X7.235Y-4.015
X7.235Y-4.065
X7.235Y-4.115
X7.235Y-4.165
X7.235Y-4.215
X7.235Y-4.265
X7.235Y-4.315
X7.235Y-4.365
X7.235Y-4.415
X7.235Y-4.465
X7.235Y-4.515
X7.235Y-4.565
X7.235Y-4.615
X7.235Y-4.665
X7.235Y-4.715
X7.235Y-4.765
X7.235Y-4.815
X7.235Y-4.865
X7.235Y-4.915
X7.235Y-4.965
X7.235Y-5.015
X7.235Y-5.065
X7.235Y-5.115
X7.235Y-5.165
X7.235Y-5.215
X7.235Y-5.265
X7.235Y-5.315
X7.235Y-5.365
X7.235Y-5.415
T3
X6.8Y-3.54
X6.8Y-3.64
X6.9Y-3.54
X6.9Y-3.64
X7.Y-3.54
X7.Y-3.64
X5.825Y-4.495
X5.925Y-4.495
X6.025Y-4.495
X6.125Y-4.495
X6.225Y-4.495
X4.3475Y-4.7025
X4.3475Y-4.8025
X4.3475Y-4.9025
X4.3475Y-5.0025
X4.4475Y-4.7025
X4.4475Y-4.8025
X4.4475Y-4.9025
X4.4475Y-5.0025
X3.8425Y-3.355
X3.8425Y-3.455
X3.8425Y-3.555
X3.8425Y-3.655
X3.9425Y-3.355
X3.9425Y-3.455
X3.9425Y-3.555
X3.9425Y-3.655
X3.8425Y-4.0725
X3.8425Y-4.1725
X3.8425Y-4.2725
X3.8425Y-4.3725
X3.9425Y-4.0725
X3.9425Y-4.1725
X3.9425Y-4.2725
X3.9425Y-4.3725
X3.8425Y-4.7025
X3.8425Y-4.8025
X3.8425Y-4.9025
X3.8425Y-5.0025
X3.9425Y-4.7025
X3.9425Y-4.8025
X3.9425Y-4.9025
X3.9425Y-5.0025
X4.345Y-3.355
X4.345Y-3.455
X4.345Y-3.555
X4.345Y-3.655
X4.445Y-3.355
X4.445Y-3.455
X4.445Y-3.555
X4.445Y-3.655
X4.3475Y-4.0725
X4.3475Y-4.1725
X4.3475Y-4.2725
X4.3475Y-4.3725
X4.4475Y-4.0725
X4.4475Y-4.1725
X4.4475Y-4.2725
X4.4475Y-4.3725
T4
X6.225Y-2.725
X6.325Y-2.725
X6.3678Y-4.77
X6.3678Y-5.0259
X6.545Y-4.77
X6.545Y-5.0259
T5
X5.005Y-4.955
X5.205Y-4.955
X6.81Y-2.895
X6.81Y-3.095
T0
M30
