G04 #@! TF.GenerationSoftware,KiCad,Pcbnew,(5.0.2)-1*
G04 #@! TF.CreationDate,2019-02-02T15:46:13-06:00*
G04 #@! TF.ProjectId,Motor test module,4d6f746f-7220-4746-9573-74206d6f6475,rev?*
G04 #@! TF.SameCoordinates,Original*
G04 #@! TF.FileFunction,Paste,Top*
G04 #@! TF.FilePolarity,Positive*
%FSLAX46Y46*%
G04 Gerber Fmt 4.6, Leading zero omitted, Abs format (unit mm)*
G04 Created by KiCad (PCBNEW (5.0.2)-1) date 2/2/2019 3:46:13 PM*
%MOMM*%
%LPD*%
G01*
G04 APERTURE LIST*
%ADD10R,1.500000X0.300000*%
%ADD11R,0.300000X1.500000*%
%ADD12R,0.750000X0.650000*%
%ADD13R,0.500000X0.250000*%
%ADD14C,0.100000*%
%ADD15C,0.875000*%
%ADD16R,0.150000X0.600000*%
%ADD17O,0.800000X0.230000*%
%ADD18R,0.230000X0.230000*%
%ADD19R,0.650000X0.900000*%
%ADD20R,0.230000X0.600000*%
%ADD21R,1.450000X0.450000*%
%ADD22R,1.750000X0.550000*%
%ADD23R,0.400000X1.900000*%
%ADD24R,0.900000X0.800000*%
%ADD25C,0.975000*%
G04 APERTURE END LIST*
D10*
G04 #@! TO.C,U8*
X160117000Y-99918000D03*
X160117000Y-100418000D03*
X160117000Y-100918000D03*
X160117000Y-101418000D03*
X160117000Y-101918000D03*
X160117000Y-102418000D03*
X160117000Y-102918000D03*
X160117000Y-103418000D03*
X160117000Y-103918000D03*
X160117000Y-104418000D03*
X160117000Y-104918000D03*
X160117000Y-105418000D03*
X160117000Y-105918000D03*
X160117000Y-106418000D03*
X160117000Y-106918000D03*
X160117000Y-107418000D03*
X160117000Y-107918000D03*
X160117000Y-108418000D03*
X160117000Y-108918000D03*
X160117000Y-109418000D03*
X160117000Y-109918000D03*
X160117000Y-110418000D03*
X160117000Y-110918000D03*
X160117000Y-111418000D03*
X160117000Y-111918000D03*
D11*
X161767000Y-113568000D03*
X162267000Y-113568000D03*
X162767000Y-113568000D03*
X163267000Y-113568000D03*
X163767000Y-113568000D03*
X164267000Y-113568000D03*
X164767000Y-113568000D03*
X165267000Y-113568000D03*
X165767000Y-113568000D03*
X166267000Y-113568000D03*
X166767000Y-113568000D03*
X167267000Y-113568000D03*
X167767000Y-113568000D03*
X168267000Y-113568000D03*
X168767000Y-113568000D03*
X169267000Y-113568000D03*
X169767000Y-113568000D03*
X170267000Y-113568000D03*
X170767000Y-113568000D03*
X171267000Y-113568000D03*
X171767000Y-113568000D03*
X172267000Y-113568000D03*
X172767000Y-113568000D03*
X173267000Y-113568000D03*
X173767000Y-113568000D03*
D10*
X175417000Y-111918000D03*
X175417000Y-111418000D03*
X175417000Y-110918000D03*
X175417000Y-110418000D03*
X175417000Y-109918000D03*
X175417000Y-109418000D03*
X175417000Y-108918000D03*
X175417000Y-108418000D03*
X175417000Y-107918000D03*
X175417000Y-107418000D03*
X175417000Y-106918000D03*
X175417000Y-106418000D03*
X175417000Y-105918000D03*
X175417000Y-105418000D03*
X175417000Y-104918000D03*
X175417000Y-104418000D03*
X175417000Y-103918000D03*
X175417000Y-103418000D03*
X175417000Y-102918000D03*
X175417000Y-102418000D03*
X175417000Y-101918000D03*
X175417000Y-101418000D03*
X175417000Y-100918000D03*
X175417000Y-100418000D03*
X175417000Y-99918000D03*
D11*
X173767000Y-98268000D03*
X173267000Y-98268000D03*
X172767000Y-98268000D03*
X172267000Y-98268000D03*
X171767000Y-98268000D03*
X171267000Y-98268000D03*
X170767000Y-98268000D03*
X170267000Y-98268000D03*
X169767000Y-98268000D03*
X169267000Y-98268000D03*
X168767000Y-98268000D03*
X168267000Y-98268000D03*
X167767000Y-98268000D03*
X167267000Y-98268000D03*
X166767000Y-98268000D03*
X166267000Y-98268000D03*
X165767000Y-98268000D03*
X165267000Y-98268000D03*
X164767000Y-98268000D03*
X164267000Y-98268000D03*
X163767000Y-98268000D03*
X163267000Y-98268000D03*
X162767000Y-98268000D03*
X162267000Y-98268000D03*
X161767000Y-98268000D03*
G04 #@! TD*
D12*
G04 #@! TO.C,U7*
X118427500Y-91548000D03*
X118427500Y-92348000D03*
D13*
X119377500Y-92198000D03*
X119377500Y-92698000D03*
X117477500Y-92698000D03*
X117477500Y-91698000D03*
X117477500Y-91198000D03*
X119377500Y-91198000D03*
X119377500Y-91698000D03*
X117477500Y-92198000D03*
G04 #@! TD*
G04 #@! TO.C,U6*
X117477500Y-87245000D03*
X119377500Y-86745000D03*
X119377500Y-86245000D03*
X117477500Y-86245000D03*
X117477500Y-86745000D03*
X117477500Y-87745000D03*
X119377500Y-87745000D03*
X119377500Y-87245000D03*
D12*
X118427500Y-87395000D03*
X118427500Y-86595000D03*
G04 #@! TD*
G04 #@! TO.C,U5*
X105092500Y-106788000D03*
X105092500Y-107588000D03*
D13*
X106042500Y-107438000D03*
X106042500Y-107938000D03*
X104142500Y-107938000D03*
X104142500Y-106938000D03*
X104142500Y-106438000D03*
X106042500Y-106438000D03*
X106042500Y-106938000D03*
X104142500Y-107438000D03*
G04 #@! TD*
G04 #@! TO.C,U4*
X117477500Y-107438000D03*
X119377500Y-106938000D03*
X119377500Y-106438000D03*
X117477500Y-106438000D03*
X117477500Y-106938000D03*
X117477500Y-107938000D03*
X119377500Y-107938000D03*
X119377500Y-107438000D03*
D12*
X118427500Y-107588000D03*
X118427500Y-106788000D03*
G04 #@! TD*
G04 #@! TO.C,U2*
X105092500Y-91548000D03*
X105092500Y-92348000D03*
D13*
X106042500Y-92198000D03*
X106042500Y-92698000D03*
X104142500Y-92698000D03*
X104142500Y-91698000D03*
X104142500Y-91198000D03*
X106042500Y-91198000D03*
X106042500Y-91698000D03*
X104142500Y-92198000D03*
G04 #@! TD*
D12*
G04 #@! TO.C,U3*
X105092500Y-86576000D03*
X105092500Y-87376000D03*
D13*
X106042500Y-87226000D03*
X106042500Y-87726000D03*
X104142500Y-87726000D03*
X104142500Y-86726000D03*
X104142500Y-86226000D03*
X106042500Y-86226000D03*
X106042500Y-86726000D03*
X104142500Y-87226000D03*
G04 #@! TD*
D14*
G04 #@! TO.C,C3*
G36*
X132421691Y-117445553D02*
X132442926Y-117448703D01*
X132463750Y-117453919D01*
X132483962Y-117461151D01*
X132503368Y-117470330D01*
X132521781Y-117481366D01*
X132539024Y-117494154D01*
X132554930Y-117508570D01*
X132569346Y-117524476D01*
X132582134Y-117541719D01*
X132593170Y-117560132D01*
X132602349Y-117579538D01*
X132609581Y-117599750D01*
X132614797Y-117620574D01*
X132617947Y-117641809D01*
X132619000Y-117663250D01*
X132619000Y-118175750D01*
X132617947Y-118197191D01*
X132614797Y-118218426D01*
X132609581Y-118239250D01*
X132602349Y-118259462D01*
X132593170Y-118278868D01*
X132582134Y-118297281D01*
X132569346Y-118314524D01*
X132554930Y-118330430D01*
X132539024Y-118344846D01*
X132521781Y-118357634D01*
X132503368Y-118368670D01*
X132483962Y-118377849D01*
X132463750Y-118385081D01*
X132442926Y-118390297D01*
X132421691Y-118393447D01*
X132400250Y-118394500D01*
X131962750Y-118394500D01*
X131941309Y-118393447D01*
X131920074Y-118390297D01*
X131899250Y-118385081D01*
X131879038Y-118377849D01*
X131859632Y-118368670D01*
X131841219Y-118357634D01*
X131823976Y-118344846D01*
X131808070Y-118330430D01*
X131793654Y-118314524D01*
X131780866Y-118297281D01*
X131769830Y-118278868D01*
X131760651Y-118259462D01*
X131753419Y-118239250D01*
X131748203Y-118218426D01*
X131745053Y-118197191D01*
X131744000Y-118175750D01*
X131744000Y-117663250D01*
X131745053Y-117641809D01*
X131748203Y-117620574D01*
X131753419Y-117599750D01*
X131760651Y-117579538D01*
X131769830Y-117560132D01*
X131780866Y-117541719D01*
X131793654Y-117524476D01*
X131808070Y-117508570D01*
X131823976Y-117494154D01*
X131841219Y-117481366D01*
X131859632Y-117470330D01*
X131879038Y-117461151D01*
X131899250Y-117453919D01*
X131920074Y-117448703D01*
X131941309Y-117445553D01*
X131962750Y-117444500D01*
X132400250Y-117444500D01*
X132421691Y-117445553D01*
X132421691Y-117445553D01*
G37*
D15*
X132181500Y-117919500D03*
D14*
G36*
X133996691Y-117445553D02*
X134017926Y-117448703D01*
X134038750Y-117453919D01*
X134058962Y-117461151D01*
X134078368Y-117470330D01*
X134096781Y-117481366D01*
X134114024Y-117494154D01*
X134129930Y-117508570D01*
X134144346Y-117524476D01*
X134157134Y-117541719D01*
X134168170Y-117560132D01*
X134177349Y-117579538D01*
X134184581Y-117599750D01*
X134189797Y-117620574D01*
X134192947Y-117641809D01*
X134194000Y-117663250D01*
X134194000Y-118175750D01*
X134192947Y-118197191D01*
X134189797Y-118218426D01*
X134184581Y-118239250D01*
X134177349Y-118259462D01*
X134168170Y-118278868D01*
X134157134Y-118297281D01*
X134144346Y-118314524D01*
X134129930Y-118330430D01*
X134114024Y-118344846D01*
X134096781Y-118357634D01*
X134078368Y-118368670D01*
X134058962Y-118377849D01*
X134038750Y-118385081D01*
X134017926Y-118390297D01*
X133996691Y-118393447D01*
X133975250Y-118394500D01*
X133537750Y-118394500D01*
X133516309Y-118393447D01*
X133495074Y-118390297D01*
X133474250Y-118385081D01*
X133454038Y-118377849D01*
X133434632Y-118368670D01*
X133416219Y-118357634D01*
X133398976Y-118344846D01*
X133383070Y-118330430D01*
X133368654Y-118314524D01*
X133355866Y-118297281D01*
X133344830Y-118278868D01*
X133335651Y-118259462D01*
X133328419Y-118239250D01*
X133323203Y-118218426D01*
X133320053Y-118197191D01*
X133319000Y-118175750D01*
X133319000Y-117663250D01*
X133320053Y-117641809D01*
X133323203Y-117620574D01*
X133328419Y-117599750D01*
X133335651Y-117579538D01*
X133344830Y-117560132D01*
X133355866Y-117541719D01*
X133368654Y-117524476D01*
X133383070Y-117508570D01*
X133398976Y-117494154D01*
X133416219Y-117481366D01*
X133434632Y-117470330D01*
X133454038Y-117461151D01*
X133474250Y-117453919D01*
X133495074Y-117448703D01*
X133516309Y-117445553D01*
X133537750Y-117444500D01*
X133975250Y-117444500D01*
X133996691Y-117445553D01*
X133996691Y-117445553D01*
G37*
D15*
X133756500Y-117919500D03*
G04 #@! TD*
D14*
G04 #@! TO.C,C4*
G36*
X136295191Y-116112053D02*
X136316426Y-116115203D01*
X136337250Y-116120419D01*
X136357462Y-116127651D01*
X136376868Y-116136830D01*
X136395281Y-116147866D01*
X136412524Y-116160654D01*
X136428430Y-116175070D01*
X136442846Y-116190976D01*
X136455634Y-116208219D01*
X136466670Y-116226632D01*
X136475849Y-116246038D01*
X136483081Y-116266250D01*
X136488297Y-116287074D01*
X136491447Y-116308309D01*
X136492500Y-116329750D01*
X136492500Y-116842250D01*
X136491447Y-116863691D01*
X136488297Y-116884926D01*
X136483081Y-116905750D01*
X136475849Y-116925962D01*
X136466670Y-116945368D01*
X136455634Y-116963781D01*
X136442846Y-116981024D01*
X136428430Y-116996930D01*
X136412524Y-117011346D01*
X136395281Y-117024134D01*
X136376868Y-117035170D01*
X136357462Y-117044349D01*
X136337250Y-117051581D01*
X136316426Y-117056797D01*
X136295191Y-117059947D01*
X136273750Y-117061000D01*
X135836250Y-117061000D01*
X135814809Y-117059947D01*
X135793574Y-117056797D01*
X135772750Y-117051581D01*
X135752538Y-117044349D01*
X135733132Y-117035170D01*
X135714719Y-117024134D01*
X135697476Y-117011346D01*
X135681570Y-116996930D01*
X135667154Y-116981024D01*
X135654366Y-116963781D01*
X135643330Y-116945368D01*
X135634151Y-116925962D01*
X135626919Y-116905750D01*
X135621703Y-116884926D01*
X135618553Y-116863691D01*
X135617500Y-116842250D01*
X135617500Y-116329750D01*
X135618553Y-116308309D01*
X135621703Y-116287074D01*
X135626919Y-116266250D01*
X135634151Y-116246038D01*
X135643330Y-116226632D01*
X135654366Y-116208219D01*
X135667154Y-116190976D01*
X135681570Y-116175070D01*
X135697476Y-116160654D01*
X135714719Y-116147866D01*
X135733132Y-116136830D01*
X135752538Y-116127651D01*
X135772750Y-116120419D01*
X135793574Y-116115203D01*
X135814809Y-116112053D01*
X135836250Y-116111000D01*
X136273750Y-116111000D01*
X136295191Y-116112053D01*
X136295191Y-116112053D01*
G37*
D15*
X136055000Y-116586000D03*
D14*
G36*
X137870191Y-116112053D02*
X137891426Y-116115203D01*
X137912250Y-116120419D01*
X137932462Y-116127651D01*
X137951868Y-116136830D01*
X137970281Y-116147866D01*
X137987524Y-116160654D01*
X138003430Y-116175070D01*
X138017846Y-116190976D01*
X138030634Y-116208219D01*
X138041670Y-116226632D01*
X138050849Y-116246038D01*
X138058081Y-116266250D01*
X138063297Y-116287074D01*
X138066447Y-116308309D01*
X138067500Y-116329750D01*
X138067500Y-116842250D01*
X138066447Y-116863691D01*
X138063297Y-116884926D01*
X138058081Y-116905750D01*
X138050849Y-116925962D01*
X138041670Y-116945368D01*
X138030634Y-116963781D01*
X138017846Y-116981024D01*
X138003430Y-116996930D01*
X137987524Y-117011346D01*
X137970281Y-117024134D01*
X137951868Y-117035170D01*
X137932462Y-117044349D01*
X137912250Y-117051581D01*
X137891426Y-117056797D01*
X137870191Y-117059947D01*
X137848750Y-117061000D01*
X137411250Y-117061000D01*
X137389809Y-117059947D01*
X137368574Y-117056797D01*
X137347750Y-117051581D01*
X137327538Y-117044349D01*
X137308132Y-117035170D01*
X137289719Y-117024134D01*
X137272476Y-117011346D01*
X137256570Y-116996930D01*
X137242154Y-116981024D01*
X137229366Y-116963781D01*
X137218330Y-116945368D01*
X137209151Y-116925962D01*
X137201919Y-116905750D01*
X137196703Y-116884926D01*
X137193553Y-116863691D01*
X137192500Y-116842250D01*
X137192500Y-116329750D01*
X137193553Y-116308309D01*
X137196703Y-116287074D01*
X137201919Y-116266250D01*
X137209151Y-116246038D01*
X137218330Y-116226632D01*
X137229366Y-116208219D01*
X137242154Y-116190976D01*
X137256570Y-116175070D01*
X137272476Y-116160654D01*
X137289719Y-116147866D01*
X137308132Y-116136830D01*
X137327538Y-116127651D01*
X137347750Y-116120419D01*
X137368574Y-116115203D01*
X137389809Y-116112053D01*
X137411250Y-116111000D01*
X137848750Y-116111000D01*
X137870191Y-116112053D01*
X137870191Y-116112053D01*
G37*
D15*
X137630000Y-116586000D03*
G04 #@! TD*
D14*
G04 #@! TO.C,C14*
G36*
X162673191Y-73948053D02*
X162694426Y-73951203D01*
X162715250Y-73956419D01*
X162735462Y-73963651D01*
X162754868Y-73972830D01*
X162773281Y-73983866D01*
X162790524Y-73996654D01*
X162806430Y-74011070D01*
X162820846Y-74026976D01*
X162833634Y-74044219D01*
X162844670Y-74062632D01*
X162853849Y-74082038D01*
X162861081Y-74102250D01*
X162866297Y-74123074D01*
X162869447Y-74144309D01*
X162870500Y-74165750D01*
X162870500Y-74678250D01*
X162869447Y-74699691D01*
X162866297Y-74720926D01*
X162861081Y-74741750D01*
X162853849Y-74761962D01*
X162844670Y-74781368D01*
X162833634Y-74799781D01*
X162820846Y-74817024D01*
X162806430Y-74832930D01*
X162790524Y-74847346D01*
X162773281Y-74860134D01*
X162754868Y-74871170D01*
X162735462Y-74880349D01*
X162715250Y-74887581D01*
X162694426Y-74892797D01*
X162673191Y-74895947D01*
X162651750Y-74897000D01*
X162214250Y-74897000D01*
X162192809Y-74895947D01*
X162171574Y-74892797D01*
X162150750Y-74887581D01*
X162130538Y-74880349D01*
X162111132Y-74871170D01*
X162092719Y-74860134D01*
X162075476Y-74847346D01*
X162059570Y-74832930D01*
X162045154Y-74817024D01*
X162032366Y-74799781D01*
X162021330Y-74781368D01*
X162012151Y-74761962D01*
X162004919Y-74741750D01*
X161999703Y-74720926D01*
X161996553Y-74699691D01*
X161995500Y-74678250D01*
X161995500Y-74165750D01*
X161996553Y-74144309D01*
X161999703Y-74123074D01*
X162004919Y-74102250D01*
X162012151Y-74082038D01*
X162021330Y-74062632D01*
X162032366Y-74044219D01*
X162045154Y-74026976D01*
X162059570Y-74011070D01*
X162075476Y-73996654D01*
X162092719Y-73983866D01*
X162111132Y-73972830D01*
X162130538Y-73963651D01*
X162150750Y-73956419D01*
X162171574Y-73951203D01*
X162192809Y-73948053D01*
X162214250Y-73947000D01*
X162651750Y-73947000D01*
X162673191Y-73948053D01*
X162673191Y-73948053D01*
G37*
D15*
X162433000Y-74422000D03*
D14*
G36*
X164248191Y-73948053D02*
X164269426Y-73951203D01*
X164290250Y-73956419D01*
X164310462Y-73963651D01*
X164329868Y-73972830D01*
X164348281Y-73983866D01*
X164365524Y-73996654D01*
X164381430Y-74011070D01*
X164395846Y-74026976D01*
X164408634Y-74044219D01*
X164419670Y-74062632D01*
X164428849Y-74082038D01*
X164436081Y-74102250D01*
X164441297Y-74123074D01*
X164444447Y-74144309D01*
X164445500Y-74165750D01*
X164445500Y-74678250D01*
X164444447Y-74699691D01*
X164441297Y-74720926D01*
X164436081Y-74741750D01*
X164428849Y-74761962D01*
X164419670Y-74781368D01*
X164408634Y-74799781D01*
X164395846Y-74817024D01*
X164381430Y-74832930D01*
X164365524Y-74847346D01*
X164348281Y-74860134D01*
X164329868Y-74871170D01*
X164310462Y-74880349D01*
X164290250Y-74887581D01*
X164269426Y-74892797D01*
X164248191Y-74895947D01*
X164226750Y-74897000D01*
X163789250Y-74897000D01*
X163767809Y-74895947D01*
X163746574Y-74892797D01*
X163725750Y-74887581D01*
X163705538Y-74880349D01*
X163686132Y-74871170D01*
X163667719Y-74860134D01*
X163650476Y-74847346D01*
X163634570Y-74832930D01*
X163620154Y-74817024D01*
X163607366Y-74799781D01*
X163596330Y-74781368D01*
X163587151Y-74761962D01*
X163579919Y-74741750D01*
X163574703Y-74720926D01*
X163571553Y-74699691D01*
X163570500Y-74678250D01*
X163570500Y-74165750D01*
X163571553Y-74144309D01*
X163574703Y-74123074D01*
X163579919Y-74102250D01*
X163587151Y-74082038D01*
X163596330Y-74062632D01*
X163607366Y-74044219D01*
X163620154Y-74026976D01*
X163634570Y-74011070D01*
X163650476Y-73996654D01*
X163667719Y-73983866D01*
X163686132Y-73972830D01*
X163705538Y-73963651D01*
X163725750Y-73956419D01*
X163746574Y-73951203D01*
X163767809Y-73948053D01*
X163789250Y-73947000D01*
X164226750Y-73947000D01*
X164248191Y-73948053D01*
X164248191Y-73948053D01*
G37*
D15*
X164008000Y-74422000D03*
G04 #@! TD*
D16*
G04 #@! TO.C,U1*
X131685000Y-116471000D03*
X132885000Y-116471000D03*
X131685000Y-113621000D03*
X132885000Y-113621000D03*
D17*
X130810000Y-114046000D03*
X130810000Y-114546000D03*
D18*
X130525000Y-115046000D03*
D17*
X130810000Y-115546000D03*
D18*
X130525000Y-116046000D03*
D17*
X133760000Y-116046000D03*
X133760000Y-115546000D03*
D18*
X134045000Y-115046000D03*
X134045000Y-114546000D03*
X134045000Y-114046000D03*
D16*
X132085000Y-113621000D03*
X132485000Y-113621000D03*
X132085000Y-116471000D03*
X132485000Y-116471000D03*
D18*
X130525000Y-114046000D03*
X130525000Y-114546000D03*
D17*
X130810000Y-115046000D03*
D18*
X130525000Y-115546000D03*
D17*
X130810000Y-116046000D03*
D18*
X134045000Y-116046000D03*
X134045000Y-115546000D03*
D17*
X133760000Y-115046000D03*
X133760000Y-114546000D03*
X133760000Y-114046000D03*
D19*
X131850000Y-114486000D03*
X132720000Y-115606000D03*
X131850000Y-115606000D03*
X132720000Y-114486000D03*
D20*
X131685000Y-113621000D03*
X132085000Y-113621000D03*
X132485000Y-113621000D03*
X132885000Y-113621000D03*
X131685000Y-116471000D03*
X132085000Y-116471000D03*
X132485000Y-116471000D03*
X132885000Y-116471000D03*
G04 #@! TD*
D21*
G04 #@! TO.C,U9*
X151736000Y-73910000D03*
X151736000Y-74560000D03*
X151736000Y-75210000D03*
X151736000Y-75860000D03*
X151736000Y-76510000D03*
X151736000Y-77160000D03*
X151736000Y-77810000D03*
X151736000Y-78460000D03*
X151736000Y-79110000D03*
X151736000Y-79760000D03*
X157636000Y-79760000D03*
X157636000Y-79110000D03*
X157636000Y-78460000D03*
X157636000Y-77810000D03*
X157636000Y-77160000D03*
X157636000Y-76510000D03*
X157636000Y-75860000D03*
X157636000Y-75210000D03*
X157636000Y-74560000D03*
X157636000Y-73910000D03*
G04 #@! TD*
D14*
G04 #@! TO.C,C16*
G36*
X118502591Y-82660253D02*
X118523826Y-82663403D01*
X118544650Y-82668619D01*
X118564862Y-82675851D01*
X118584268Y-82685030D01*
X118602681Y-82696066D01*
X118619924Y-82708854D01*
X118635830Y-82723270D01*
X118650246Y-82739176D01*
X118663034Y-82756419D01*
X118674070Y-82774832D01*
X118683249Y-82794238D01*
X118690481Y-82814450D01*
X118695697Y-82835274D01*
X118698847Y-82856509D01*
X118699900Y-82877950D01*
X118699900Y-83390450D01*
X118698847Y-83411891D01*
X118695697Y-83433126D01*
X118690481Y-83453950D01*
X118683249Y-83474162D01*
X118674070Y-83493568D01*
X118663034Y-83511981D01*
X118650246Y-83529224D01*
X118635830Y-83545130D01*
X118619924Y-83559546D01*
X118602681Y-83572334D01*
X118584268Y-83583370D01*
X118564862Y-83592549D01*
X118544650Y-83599781D01*
X118523826Y-83604997D01*
X118502591Y-83608147D01*
X118481150Y-83609200D01*
X118043650Y-83609200D01*
X118022209Y-83608147D01*
X118000974Y-83604997D01*
X117980150Y-83599781D01*
X117959938Y-83592549D01*
X117940532Y-83583370D01*
X117922119Y-83572334D01*
X117904876Y-83559546D01*
X117888970Y-83545130D01*
X117874554Y-83529224D01*
X117861766Y-83511981D01*
X117850730Y-83493568D01*
X117841551Y-83474162D01*
X117834319Y-83453950D01*
X117829103Y-83433126D01*
X117825953Y-83411891D01*
X117824900Y-83390450D01*
X117824900Y-82877950D01*
X117825953Y-82856509D01*
X117829103Y-82835274D01*
X117834319Y-82814450D01*
X117841551Y-82794238D01*
X117850730Y-82774832D01*
X117861766Y-82756419D01*
X117874554Y-82739176D01*
X117888970Y-82723270D01*
X117904876Y-82708854D01*
X117922119Y-82696066D01*
X117940532Y-82685030D01*
X117959938Y-82675851D01*
X117980150Y-82668619D01*
X118000974Y-82663403D01*
X118022209Y-82660253D01*
X118043650Y-82659200D01*
X118481150Y-82659200D01*
X118502591Y-82660253D01*
X118502591Y-82660253D01*
G37*
D15*
X118262400Y-83134200D03*
D14*
G36*
X116927591Y-82660253D02*
X116948826Y-82663403D01*
X116969650Y-82668619D01*
X116989862Y-82675851D01*
X117009268Y-82685030D01*
X117027681Y-82696066D01*
X117044924Y-82708854D01*
X117060830Y-82723270D01*
X117075246Y-82739176D01*
X117088034Y-82756419D01*
X117099070Y-82774832D01*
X117108249Y-82794238D01*
X117115481Y-82814450D01*
X117120697Y-82835274D01*
X117123847Y-82856509D01*
X117124900Y-82877950D01*
X117124900Y-83390450D01*
X117123847Y-83411891D01*
X117120697Y-83433126D01*
X117115481Y-83453950D01*
X117108249Y-83474162D01*
X117099070Y-83493568D01*
X117088034Y-83511981D01*
X117075246Y-83529224D01*
X117060830Y-83545130D01*
X117044924Y-83559546D01*
X117027681Y-83572334D01*
X117009268Y-83583370D01*
X116989862Y-83592549D01*
X116969650Y-83599781D01*
X116948826Y-83604997D01*
X116927591Y-83608147D01*
X116906150Y-83609200D01*
X116468650Y-83609200D01*
X116447209Y-83608147D01*
X116425974Y-83604997D01*
X116405150Y-83599781D01*
X116384938Y-83592549D01*
X116365532Y-83583370D01*
X116347119Y-83572334D01*
X116329876Y-83559546D01*
X116313970Y-83545130D01*
X116299554Y-83529224D01*
X116286766Y-83511981D01*
X116275730Y-83493568D01*
X116266551Y-83474162D01*
X116259319Y-83453950D01*
X116254103Y-83433126D01*
X116250953Y-83411891D01*
X116249900Y-83390450D01*
X116249900Y-82877950D01*
X116250953Y-82856509D01*
X116254103Y-82835274D01*
X116259319Y-82814450D01*
X116266551Y-82794238D01*
X116275730Y-82774832D01*
X116286766Y-82756419D01*
X116299554Y-82739176D01*
X116313970Y-82723270D01*
X116329876Y-82708854D01*
X116347119Y-82696066D01*
X116365532Y-82685030D01*
X116384938Y-82675851D01*
X116405150Y-82668619D01*
X116425974Y-82663403D01*
X116447209Y-82660253D01*
X116468650Y-82659200D01*
X116906150Y-82659200D01*
X116927591Y-82660253D01*
X116927591Y-82660253D01*
G37*
D15*
X116687400Y-83134200D03*
G04 #@! TD*
D14*
G04 #@! TO.C,C17*
G36*
X120610691Y-82609453D02*
X120631926Y-82612603D01*
X120652750Y-82617819D01*
X120672962Y-82625051D01*
X120692368Y-82634230D01*
X120710781Y-82645266D01*
X120728024Y-82658054D01*
X120743930Y-82672470D01*
X120758346Y-82688376D01*
X120771134Y-82705619D01*
X120782170Y-82724032D01*
X120791349Y-82743438D01*
X120798581Y-82763650D01*
X120803797Y-82784474D01*
X120806947Y-82805709D01*
X120808000Y-82827150D01*
X120808000Y-83339650D01*
X120806947Y-83361091D01*
X120803797Y-83382326D01*
X120798581Y-83403150D01*
X120791349Y-83423362D01*
X120782170Y-83442768D01*
X120771134Y-83461181D01*
X120758346Y-83478424D01*
X120743930Y-83494330D01*
X120728024Y-83508746D01*
X120710781Y-83521534D01*
X120692368Y-83532570D01*
X120672962Y-83541749D01*
X120652750Y-83548981D01*
X120631926Y-83554197D01*
X120610691Y-83557347D01*
X120589250Y-83558400D01*
X120151750Y-83558400D01*
X120130309Y-83557347D01*
X120109074Y-83554197D01*
X120088250Y-83548981D01*
X120068038Y-83541749D01*
X120048632Y-83532570D01*
X120030219Y-83521534D01*
X120012976Y-83508746D01*
X119997070Y-83494330D01*
X119982654Y-83478424D01*
X119969866Y-83461181D01*
X119958830Y-83442768D01*
X119949651Y-83423362D01*
X119942419Y-83403150D01*
X119937203Y-83382326D01*
X119934053Y-83361091D01*
X119933000Y-83339650D01*
X119933000Y-82827150D01*
X119934053Y-82805709D01*
X119937203Y-82784474D01*
X119942419Y-82763650D01*
X119949651Y-82743438D01*
X119958830Y-82724032D01*
X119969866Y-82705619D01*
X119982654Y-82688376D01*
X119997070Y-82672470D01*
X120012976Y-82658054D01*
X120030219Y-82645266D01*
X120048632Y-82634230D01*
X120068038Y-82625051D01*
X120088250Y-82617819D01*
X120109074Y-82612603D01*
X120130309Y-82609453D01*
X120151750Y-82608400D01*
X120589250Y-82608400D01*
X120610691Y-82609453D01*
X120610691Y-82609453D01*
G37*
D15*
X120370500Y-83083400D03*
D14*
G36*
X122185691Y-82609453D02*
X122206926Y-82612603D01*
X122227750Y-82617819D01*
X122247962Y-82625051D01*
X122267368Y-82634230D01*
X122285781Y-82645266D01*
X122303024Y-82658054D01*
X122318930Y-82672470D01*
X122333346Y-82688376D01*
X122346134Y-82705619D01*
X122357170Y-82724032D01*
X122366349Y-82743438D01*
X122373581Y-82763650D01*
X122378797Y-82784474D01*
X122381947Y-82805709D01*
X122383000Y-82827150D01*
X122383000Y-83339650D01*
X122381947Y-83361091D01*
X122378797Y-83382326D01*
X122373581Y-83403150D01*
X122366349Y-83423362D01*
X122357170Y-83442768D01*
X122346134Y-83461181D01*
X122333346Y-83478424D01*
X122318930Y-83494330D01*
X122303024Y-83508746D01*
X122285781Y-83521534D01*
X122267368Y-83532570D01*
X122247962Y-83541749D01*
X122227750Y-83548981D01*
X122206926Y-83554197D01*
X122185691Y-83557347D01*
X122164250Y-83558400D01*
X121726750Y-83558400D01*
X121705309Y-83557347D01*
X121684074Y-83554197D01*
X121663250Y-83548981D01*
X121643038Y-83541749D01*
X121623632Y-83532570D01*
X121605219Y-83521534D01*
X121587976Y-83508746D01*
X121572070Y-83494330D01*
X121557654Y-83478424D01*
X121544866Y-83461181D01*
X121533830Y-83442768D01*
X121524651Y-83423362D01*
X121517419Y-83403150D01*
X121512203Y-83382326D01*
X121509053Y-83361091D01*
X121508000Y-83339650D01*
X121508000Y-82827150D01*
X121509053Y-82805709D01*
X121512203Y-82784474D01*
X121517419Y-82763650D01*
X121524651Y-82743438D01*
X121533830Y-82724032D01*
X121544866Y-82705619D01*
X121557654Y-82688376D01*
X121572070Y-82672470D01*
X121587976Y-82658054D01*
X121605219Y-82645266D01*
X121623632Y-82634230D01*
X121643038Y-82625051D01*
X121663250Y-82617819D01*
X121684074Y-82612603D01*
X121705309Y-82609453D01*
X121726750Y-82608400D01*
X122164250Y-82608400D01*
X122185691Y-82609453D01*
X122185691Y-82609453D01*
G37*
D15*
X121945500Y-83083400D03*
G04 #@! TD*
D14*
G04 #@! TO.C,C18*
G36*
X107783191Y-84171053D02*
X107804426Y-84174203D01*
X107825250Y-84179419D01*
X107845462Y-84186651D01*
X107864868Y-84195830D01*
X107883281Y-84206866D01*
X107900524Y-84219654D01*
X107916430Y-84234070D01*
X107930846Y-84249976D01*
X107943634Y-84267219D01*
X107954670Y-84285632D01*
X107963849Y-84305038D01*
X107971081Y-84325250D01*
X107976297Y-84346074D01*
X107979447Y-84367309D01*
X107980500Y-84388750D01*
X107980500Y-84826250D01*
X107979447Y-84847691D01*
X107976297Y-84868926D01*
X107971081Y-84889750D01*
X107963849Y-84909962D01*
X107954670Y-84929368D01*
X107943634Y-84947781D01*
X107930846Y-84965024D01*
X107916430Y-84980930D01*
X107900524Y-84995346D01*
X107883281Y-85008134D01*
X107864868Y-85019170D01*
X107845462Y-85028349D01*
X107825250Y-85035581D01*
X107804426Y-85040797D01*
X107783191Y-85043947D01*
X107761750Y-85045000D01*
X107249250Y-85045000D01*
X107227809Y-85043947D01*
X107206574Y-85040797D01*
X107185750Y-85035581D01*
X107165538Y-85028349D01*
X107146132Y-85019170D01*
X107127719Y-85008134D01*
X107110476Y-84995346D01*
X107094570Y-84980930D01*
X107080154Y-84965024D01*
X107067366Y-84947781D01*
X107056330Y-84929368D01*
X107047151Y-84909962D01*
X107039919Y-84889750D01*
X107034703Y-84868926D01*
X107031553Y-84847691D01*
X107030500Y-84826250D01*
X107030500Y-84388750D01*
X107031553Y-84367309D01*
X107034703Y-84346074D01*
X107039919Y-84325250D01*
X107047151Y-84305038D01*
X107056330Y-84285632D01*
X107067366Y-84267219D01*
X107080154Y-84249976D01*
X107094570Y-84234070D01*
X107110476Y-84219654D01*
X107127719Y-84206866D01*
X107146132Y-84195830D01*
X107165538Y-84186651D01*
X107185750Y-84179419D01*
X107206574Y-84174203D01*
X107227809Y-84171053D01*
X107249250Y-84170000D01*
X107761750Y-84170000D01*
X107783191Y-84171053D01*
X107783191Y-84171053D01*
G37*
D15*
X107505500Y-84607500D03*
D14*
G36*
X107783191Y-82596053D02*
X107804426Y-82599203D01*
X107825250Y-82604419D01*
X107845462Y-82611651D01*
X107864868Y-82620830D01*
X107883281Y-82631866D01*
X107900524Y-82644654D01*
X107916430Y-82659070D01*
X107930846Y-82674976D01*
X107943634Y-82692219D01*
X107954670Y-82710632D01*
X107963849Y-82730038D01*
X107971081Y-82750250D01*
X107976297Y-82771074D01*
X107979447Y-82792309D01*
X107980500Y-82813750D01*
X107980500Y-83251250D01*
X107979447Y-83272691D01*
X107976297Y-83293926D01*
X107971081Y-83314750D01*
X107963849Y-83334962D01*
X107954670Y-83354368D01*
X107943634Y-83372781D01*
X107930846Y-83390024D01*
X107916430Y-83405930D01*
X107900524Y-83420346D01*
X107883281Y-83433134D01*
X107864868Y-83444170D01*
X107845462Y-83453349D01*
X107825250Y-83460581D01*
X107804426Y-83465797D01*
X107783191Y-83468947D01*
X107761750Y-83470000D01*
X107249250Y-83470000D01*
X107227809Y-83468947D01*
X107206574Y-83465797D01*
X107185750Y-83460581D01*
X107165538Y-83453349D01*
X107146132Y-83444170D01*
X107127719Y-83433134D01*
X107110476Y-83420346D01*
X107094570Y-83405930D01*
X107080154Y-83390024D01*
X107067366Y-83372781D01*
X107056330Y-83354368D01*
X107047151Y-83334962D01*
X107039919Y-83314750D01*
X107034703Y-83293926D01*
X107031553Y-83272691D01*
X107030500Y-83251250D01*
X107030500Y-82813750D01*
X107031553Y-82792309D01*
X107034703Y-82771074D01*
X107039919Y-82750250D01*
X107047151Y-82730038D01*
X107056330Y-82710632D01*
X107067366Y-82692219D01*
X107080154Y-82674976D01*
X107094570Y-82659070D01*
X107110476Y-82644654D01*
X107127719Y-82631866D01*
X107146132Y-82620830D01*
X107165538Y-82611651D01*
X107185750Y-82604419D01*
X107206574Y-82599203D01*
X107227809Y-82596053D01*
X107249250Y-82595000D01*
X107761750Y-82595000D01*
X107783191Y-82596053D01*
X107783191Y-82596053D01*
G37*
D15*
X107505500Y-83032500D03*
G04 #@! TD*
D14*
G04 #@! TO.C,C19*
G36*
X123138191Y-90966053D02*
X123159426Y-90969203D01*
X123180250Y-90974419D01*
X123200462Y-90981651D01*
X123219868Y-90990830D01*
X123238281Y-91001866D01*
X123255524Y-91014654D01*
X123271430Y-91029070D01*
X123285846Y-91044976D01*
X123298634Y-91062219D01*
X123309670Y-91080632D01*
X123318849Y-91100038D01*
X123326081Y-91120250D01*
X123331297Y-91141074D01*
X123334447Y-91162309D01*
X123335500Y-91183750D01*
X123335500Y-91696250D01*
X123334447Y-91717691D01*
X123331297Y-91738926D01*
X123326081Y-91759750D01*
X123318849Y-91779962D01*
X123309670Y-91799368D01*
X123298634Y-91817781D01*
X123285846Y-91835024D01*
X123271430Y-91850930D01*
X123255524Y-91865346D01*
X123238281Y-91878134D01*
X123219868Y-91889170D01*
X123200462Y-91898349D01*
X123180250Y-91905581D01*
X123159426Y-91910797D01*
X123138191Y-91913947D01*
X123116750Y-91915000D01*
X122679250Y-91915000D01*
X122657809Y-91913947D01*
X122636574Y-91910797D01*
X122615750Y-91905581D01*
X122595538Y-91898349D01*
X122576132Y-91889170D01*
X122557719Y-91878134D01*
X122540476Y-91865346D01*
X122524570Y-91850930D01*
X122510154Y-91835024D01*
X122497366Y-91817781D01*
X122486330Y-91799368D01*
X122477151Y-91779962D01*
X122469919Y-91759750D01*
X122464703Y-91738926D01*
X122461553Y-91717691D01*
X122460500Y-91696250D01*
X122460500Y-91183750D01*
X122461553Y-91162309D01*
X122464703Y-91141074D01*
X122469919Y-91120250D01*
X122477151Y-91100038D01*
X122486330Y-91080632D01*
X122497366Y-91062219D01*
X122510154Y-91044976D01*
X122524570Y-91029070D01*
X122540476Y-91014654D01*
X122557719Y-91001866D01*
X122576132Y-90990830D01*
X122595538Y-90981651D01*
X122615750Y-90974419D01*
X122636574Y-90969203D01*
X122657809Y-90966053D01*
X122679250Y-90965000D01*
X123116750Y-90965000D01*
X123138191Y-90966053D01*
X123138191Y-90966053D01*
G37*
D15*
X122898000Y-91440000D03*
D14*
G36*
X121563191Y-90966053D02*
X121584426Y-90969203D01*
X121605250Y-90974419D01*
X121625462Y-90981651D01*
X121644868Y-90990830D01*
X121663281Y-91001866D01*
X121680524Y-91014654D01*
X121696430Y-91029070D01*
X121710846Y-91044976D01*
X121723634Y-91062219D01*
X121734670Y-91080632D01*
X121743849Y-91100038D01*
X121751081Y-91120250D01*
X121756297Y-91141074D01*
X121759447Y-91162309D01*
X121760500Y-91183750D01*
X121760500Y-91696250D01*
X121759447Y-91717691D01*
X121756297Y-91738926D01*
X121751081Y-91759750D01*
X121743849Y-91779962D01*
X121734670Y-91799368D01*
X121723634Y-91817781D01*
X121710846Y-91835024D01*
X121696430Y-91850930D01*
X121680524Y-91865346D01*
X121663281Y-91878134D01*
X121644868Y-91889170D01*
X121625462Y-91898349D01*
X121605250Y-91905581D01*
X121584426Y-91910797D01*
X121563191Y-91913947D01*
X121541750Y-91915000D01*
X121104250Y-91915000D01*
X121082809Y-91913947D01*
X121061574Y-91910797D01*
X121040750Y-91905581D01*
X121020538Y-91898349D01*
X121001132Y-91889170D01*
X120982719Y-91878134D01*
X120965476Y-91865346D01*
X120949570Y-91850930D01*
X120935154Y-91835024D01*
X120922366Y-91817781D01*
X120911330Y-91799368D01*
X120902151Y-91779962D01*
X120894919Y-91759750D01*
X120889703Y-91738926D01*
X120886553Y-91717691D01*
X120885500Y-91696250D01*
X120885500Y-91183750D01*
X120886553Y-91162309D01*
X120889703Y-91141074D01*
X120894919Y-91120250D01*
X120902151Y-91100038D01*
X120911330Y-91080632D01*
X120922366Y-91062219D01*
X120935154Y-91044976D01*
X120949570Y-91029070D01*
X120965476Y-91014654D01*
X120982719Y-91001866D01*
X121001132Y-90990830D01*
X121020538Y-90981651D01*
X121040750Y-90974419D01*
X121061574Y-90969203D01*
X121082809Y-90966053D01*
X121104250Y-90965000D01*
X121541750Y-90965000D01*
X121563191Y-90966053D01*
X121563191Y-90966053D01*
G37*
D15*
X121323000Y-91440000D03*
G04 #@! TD*
D14*
G04 #@! TO.C,C20*
G36*
X95019691Y-125090153D02*
X95040926Y-125093303D01*
X95061750Y-125098519D01*
X95081962Y-125105751D01*
X95101368Y-125114930D01*
X95119781Y-125125966D01*
X95137024Y-125138754D01*
X95152930Y-125153170D01*
X95167346Y-125169076D01*
X95180134Y-125186319D01*
X95191170Y-125204732D01*
X95200349Y-125224138D01*
X95207581Y-125244350D01*
X95212797Y-125265174D01*
X95215947Y-125286409D01*
X95217000Y-125307850D01*
X95217000Y-125745350D01*
X95215947Y-125766791D01*
X95212797Y-125788026D01*
X95207581Y-125808850D01*
X95200349Y-125829062D01*
X95191170Y-125848468D01*
X95180134Y-125866881D01*
X95167346Y-125884124D01*
X95152930Y-125900030D01*
X95137024Y-125914446D01*
X95119781Y-125927234D01*
X95101368Y-125938270D01*
X95081962Y-125947449D01*
X95061750Y-125954681D01*
X95040926Y-125959897D01*
X95019691Y-125963047D01*
X94998250Y-125964100D01*
X94485750Y-125964100D01*
X94464309Y-125963047D01*
X94443074Y-125959897D01*
X94422250Y-125954681D01*
X94402038Y-125947449D01*
X94382632Y-125938270D01*
X94364219Y-125927234D01*
X94346976Y-125914446D01*
X94331070Y-125900030D01*
X94316654Y-125884124D01*
X94303866Y-125866881D01*
X94292830Y-125848468D01*
X94283651Y-125829062D01*
X94276419Y-125808850D01*
X94271203Y-125788026D01*
X94268053Y-125766791D01*
X94267000Y-125745350D01*
X94267000Y-125307850D01*
X94268053Y-125286409D01*
X94271203Y-125265174D01*
X94276419Y-125244350D01*
X94283651Y-125224138D01*
X94292830Y-125204732D01*
X94303866Y-125186319D01*
X94316654Y-125169076D01*
X94331070Y-125153170D01*
X94346976Y-125138754D01*
X94364219Y-125125966D01*
X94382632Y-125114930D01*
X94402038Y-125105751D01*
X94422250Y-125098519D01*
X94443074Y-125093303D01*
X94464309Y-125090153D01*
X94485750Y-125089100D01*
X94998250Y-125089100D01*
X95019691Y-125090153D01*
X95019691Y-125090153D01*
G37*
D15*
X94742000Y-125526600D03*
D14*
G36*
X95019691Y-126665153D02*
X95040926Y-126668303D01*
X95061750Y-126673519D01*
X95081962Y-126680751D01*
X95101368Y-126689930D01*
X95119781Y-126700966D01*
X95137024Y-126713754D01*
X95152930Y-126728170D01*
X95167346Y-126744076D01*
X95180134Y-126761319D01*
X95191170Y-126779732D01*
X95200349Y-126799138D01*
X95207581Y-126819350D01*
X95212797Y-126840174D01*
X95215947Y-126861409D01*
X95217000Y-126882850D01*
X95217000Y-127320350D01*
X95215947Y-127341791D01*
X95212797Y-127363026D01*
X95207581Y-127383850D01*
X95200349Y-127404062D01*
X95191170Y-127423468D01*
X95180134Y-127441881D01*
X95167346Y-127459124D01*
X95152930Y-127475030D01*
X95137024Y-127489446D01*
X95119781Y-127502234D01*
X95101368Y-127513270D01*
X95081962Y-127522449D01*
X95061750Y-127529681D01*
X95040926Y-127534897D01*
X95019691Y-127538047D01*
X94998250Y-127539100D01*
X94485750Y-127539100D01*
X94464309Y-127538047D01*
X94443074Y-127534897D01*
X94422250Y-127529681D01*
X94402038Y-127522449D01*
X94382632Y-127513270D01*
X94364219Y-127502234D01*
X94346976Y-127489446D01*
X94331070Y-127475030D01*
X94316654Y-127459124D01*
X94303866Y-127441881D01*
X94292830Y-127423468D01*
X94283651Y-127404062D01*
X94276419Y-127383850D01*
X94271203Y-127363026D01*
X94268053Y-127341791D01*
X94267000Y-127320350D01*
X94267000Y-126882850D01*
X94268053Y-126861409D01*
X94271203Y-126840174D01*
X94276419Y-126819350D01*
X94283651Y-126799138D01*
X94292830Y-126779732D01*
X94303866Y-126761319D01*
X94316654Y-126744076D01*
X94331070Y-126728170D01*
X94346976Y-126713754D01*
X94364219Y-126700966D01*
X94382632Y-126689930D01*
X94402038Y-126680751D01*
X94422250Y-126673519D01*
X94443074Y-126668303D01*
X94464309Y-126665153D01*
X94485750Y-126664100D01*
X94998250Y-126664100D01*
X95019691Y-126665153D01*
X95019691Y-126665153D01*
G37*
D15*
X94742000Y-127101600D03*
G04 #@! TD*
D14*
G04 #@! TO.C,C21*
G36*
X153808592Y-120404653D02*
X153829827Y-120407803D01*
X153850651Y-120413019D01*
X153870863Y-120420251D01*
X153890269Y-120429430D01*
X153908682Y-120440466D01*
X153925925Y-120453254D01*
X153941831Y-120467670D01*
X153956247Y-120483576D01*
X153969035Y-120500819D01*
X153980071Y-120519232D01*
X153989250Y-120538638D01*
X153996482Y-120558850D01*
X154001698Y-120579674D01*
X154004848Y-120600909D01*
X154005901Y-120622350D01*
X154005901Y-121134850D01*
X154004848Y-121156291D01*
X154001698Y-121177526D01*
X153996482Y-121198350D01*
X153989250Y-121218562D01*
X153980071Y-121237968D01*
X153969035Y-121256381D01*
X153956247Y-121273624D01*
X153941831Y-121289530D01*
X153925925Y-121303946D01*
X153908682Y-121316734D01*
X153890269Y-121327770D01*
X153870863Y-121336949D01*
X153850651Y-121344181D01*
X153829827Y-121349397D01*
X153808592Y-121352547D01*
X153787151Y-121353600D01*
X153349651Y-121353600D01*
X153328210Y-121352547D01*
X153306975Y-121349397D01*
X153286151Y-121344181D01*
X153265939Y-121336949D01*
X153246533Y-121327770D01*
X153228120Y-121316734D01*
X153210877Y-121303946D01*
X153194971Y-121289530D01*
X153180555Y-121273624D01*
X153167767Y-121256381D01*
X153156731Y-121237968D01*
X153147552Y-121218562D01*
X153140320Y-121198350D01*
X153135104Y-121177526D01*
X153131954Y-121156291D01*
X153130901Y-121134850D01*
X153130901Y-120622350D01*
X153131954Y-120600909D01*
X153135104Y-120579674D01*
X153140320Y-120558850D01*
X153147552Y-120538638D01*
X153156731Y-120519232D01*
X153167767Y-120500819D01*
X153180555Y-120483576D01*
X153194971Y-120467670D01*
X153210877Y-120453254D01*
X153228120Y-120440466D01*
X153246533Y-120429430D01*
X153265939Y-120420251D01*
X153286151Y-120413019D01*
X153306975Y-120407803D01*
X153328210Y-120404653D01*
X153349651Y-120403600D01*
X153787151Y-120403600D01*
X153808592Y-120404653D01*
X153808592Y-120404653D01*
G37*
D15*
X153568401Y-120878600D03*
D14*
G36*
X155383592Y-120404653D02*
X155404827Y-120407803D01*
X155425651Y-120413019D01*
X155445863Y-120420251D01*
X155465269Y-120429430D01*
X155483682Y-120440466D01*
X155500925Y-120453254D01*
X155516831Y-120467670D01*
X155531247Y-120483576D01*
X155544035Y-120500819D01*
X155555071Y-120519232D01*
X155564250Y-120538638D01*
X155571482Y-120558850D01*
X155576698Y-120579674D01*
X155579848Y-120600909D01*
X155580901Y-120622350D01*
X155580901Y-121134850D01*
X155579848Y-121156291D01*
X155576698Y-121177526D01*
X155571482Y-121198350D01*
X155564250Y-121218562D01*
X155555071Y-121237968D01*
X155544035Y-121256381D01*
X155531247Y-121273624D01*
X155516831Y-121289530D01*
X155500925Y-121303946D01*
X155483682Y-121316734D01*
X155465269Y-121327770D01*
X155445863Y-121336949D01*
X155425651Y-121344181D01*
X155404827Y-121349397D01*
X155383592Y-121352547D01*
X155362151Y-121353600D01*
X154924651Y-121353600D01*
X154903210Y-121352547D01*
X154881975Y-121349397D01*
X154861151Y-121344181D01*
X154840939Y-121336949D01*
X154821533Y-121327770D01*
X154803120Y-121316734D01*
X154785877Y-121303946D01*
X154769971Y-121289530D01*
X154755555Y-121273624D01*
X154742767Y-121256381D01*
X154731731Y-121237968D01*
X154722552Y-121218562D01*
X154715320Y-121198350D01*
X154710104Y-121177526D01*
X154706954Y-121156291D01*
X154705901Y-121134850D01*
X154705901Y-120622350D01*
X154706954Y-120600909D01*
X154710104Y-120579674D01*
X154715320Y-120558850D01*
X154722552Y-120538638D01*
X154731731Y-120519232D01*
X154742767Y-120500819D01*
X154755555Y-120483576D01*
X154769971Y-120467670D01*
X154785877Y-120453254D01*
X154803120Y-120440466D01*
X154821533Y-120429430D01*
X154840939Y-120420251D01*
X154861151Y-120413019D01*
X154881975Y-120407803D01*
X154903210Y-120404653D01*
X154924651Y-120403600D01*
X155362151Y-120403600D01*
X155383592Y-120404653D01*
X155383592Y-120404653D01*
G37*
D15*
X155143401Y-120878600D03*
G04 #@! TD*
D14*
G04 #@! TO.C,C22*
G36*
X102766691Y-96744053D02*
X102787926Y-96747203D01*
X102808750Y-96752419D01*
X102828962Y-96759651D01*
X102848368Y-96768830D01*
X102866781Y-96779866D01*
X102884024Y-96792654D01*
X102899930Y-96807070D01*
X102914346Y-96822976D01*
X102927134Y-96840219D01*
X102938170Y-96858632D01*
X102947349Y-96878038D01*
X102954581Y-96898250D01*
X102959797Y-96919074D01*
X102962947Y-96940309D01*
X102964000Y-96961750D01*
X102964000Y-97399250D01*
X102962947Y-97420691D01*
X102959797Y-97441926D01*
X102954581Y-97462750D01*
X102947349Y-97482962D01*
X102938170Y-97502368D01*
X102927134Y-97520781D01*
X102914346Y-97538024D01*
X102899930Y-97553930D01*
X102884024Y-97568346D01*
X102866781Y-97581134D01*
X102848368Y-97592170D01*
X102828962Y-97601349D01*
X102808750Y-97608581D01*
X102787926Y-97613797D01*
X102766691Y-97616947D01*
X102745250Y-97618000D01*
X102232750Y-97618000D01*
X102211309Y-97616947D01*
X102190074Y-97613797D01*
X102169250Y-97608581D01*
X102149038Y-97601349D01*
X102129632Y-97592170D01*
X102111219Y-97581134D01*
X102093976Y-97568346D01*
X102078070Y-97553930D01*
X102063654Y-97538024D01*
X102050866Y-97520781D01*
X102039830Y-97502368D01*
X102030651Y-97482962D01*
X102023419Y-97462750D01*
X102018203Y-97441926D01*
X102015053Y-97420691D01*
X102014000Y-97399250D01*
X102014000Y-96961750D01*
X102015053Y-96940309D01*
X102018203Y-96919074D01*
X102023419Y-96898250D01*
X102030651Y-96878038D01*
X102039830Y-96858632D01*
X102050866Y-96840219D01*
X102063654Y-96822976D01*
X102078070Y-96807070D01*
X102093976Y-96792654D01*
X102111219Y-96779866D01*
X102129632Y-96768830D01*
X102149038Y-96759651D01*
X102169250Y-96752419D01*
X102190074Y-96747203D01*
X102211309Y-96744053D01*
X102232750Y-96743000D01*
X102745250Y-96743000D01*
X102766691Y-96744053D01*
X102766691Y-96744053D01*
G37*
D15*
X102489000Y-97180500D03*
D14*
G36*
X102766691Y-95169053D02*
X102787926Y-95172203D01*
X102808750Y-95177419D01*
X102828962Y-95184651D01*
X102848368Y-95193830D01*
X102866781Y-95204866D01*
X102884024Y-95217654D01*
X102899930Y-95232070D01*
X102914346Y-95247976D01*
X102927134Y-95265219D01*
X102938170Y-95283632D01*
X102947349Y-95303038D01*
X102954581Y-95323250D01*
X102959797Y-95344074D01*
X102962947Y-95365309D01*
X102964000Y-95386750D01*
X102964000Y-95824250D01*
X102962947Y-95845691D01*
X102959797Y-95866926D01*
X102954581Y-95887750D01*
X102947349Y-95907962D01*
X102938170Y-95927368D01*
X102927134Y-95945781D01*
X102914346Y-95963024D01*
X102899930Y-95978930D01*
X102884024Y-95993346D01*
X102866781Y-96006134D01*
X102848368Y-96017170D01*
X102828962Y-96026349D01*
X102808750Y-96033581D01*
X102787926Y-96038797D01*
X102766691Y-96041947D01*
X102745250Y-96043000D01*
X102232750Y-96043000D01*
X102211309Y-96041947D01*
X102190074Y-96038797D01*
X102169250Y-96033581D01*
X102149038Y-96026349D01*
X102129632Y-96017170D01*
X102111219Y-96006134D01*
X102093976Y-95993346D01*
X102078070Y-95978930D01*
X102063654Y-95963024D01*
X102050866Y-95945781D01*
X102039830Y-95927368D01*
X102030651Y-95907962D01*
X102023419Y-95887750D01*
X102018203Y-95866926D01*
X102015053Y-95845691D01*
X102014000Y-95824250D01*
X102014000Y-95386750D01*
X102015053Y-95365309D01*
X102018203Y-95344074D01*
X102023419Y-95323250D01*
X102030651Y-95303038D01*
X102039830Y-95283632D01*
X102050866Y-95265219D01*
X102063654Y-95247976D01*
X102078070Y-95232070D01*
X102093976Y-95217654D01*
X102111219Y-95204866D01*
X102129632Y-95193830D01*
X102149038Y-95184651D01*
X102169250Y-95177419D01*
X102190074Y-95172203D01*
X102211309Y-95169053D01*
X102232750Y-95168000D01*
X102745250Y-95168000D01*
X102766691Y-95169053D01*
X102766691Y-95169053D01*
G37*
D15*
X102489000Y-95605500D03*
G04 #@! TD*
D14*
G04 #@! TO.C,C23*
G36*
X121689691Y-86482553D02*
X121710926Y-86485703D01*
X121731750Y-86490919D01*
X121751962Y-86498151D01*
X121771368Y-86507330D01*
X121789781Y-86518366D01*
X121807024Y-86531154D01*
X121822930Y-86545570D01*
X121837346Y-86561476D01*
X121850134Y-86578719D01*
X121861170Y-86597132D01*
X121870349Y-86616538D01*
X121877581Y-86636750D01*
X121882797Y-86657574D01*
X121885947Y-86678809D01*
X121887000Y-86700250D01*
X121887000Y-87137750D01*
X121885947Y-87159191D01*
X121882797Y-87180426D01*
X121877581Y-87201250D01*
X121870349Y-87221462D01*
X121861170Y-87240868D01*
X121850134Y-87259281D01*
X121837346Y-87276524D01*
X121822930Y-87292430D01*
X121807024Y-87306846D01*
X121789781Y-87319634D01*
X121771368Y-87330670D01*
X121751962Y-87339849D01*
X121731750Y-87347081D01*
X121710926Y-87352297D01*
X121689691Y-87355447D01*
X121668250Y-87356500D01*
X121155750Y-87356500D01*
X121134309Y-87355447D01*
X121113074Y-87352297D01*
X121092250Y-87347081D01*
X121072038Y-87339849D01*
X121052632Y-87330670D01*
X121034219Y-87319634D01*
X121016976Y-87306846D01*
X121001070Y-87292430D01*
X120986654Y-87276524D01*
X120973866Y-87259281D01*
X120962830Y-87240868D01*
X120953651Y-87221462D01*
X120946419Y-87201250D01*
X120941203Y-87180426D01*
X120938053Y-87159191D01*
X120937000Y-87137750D01*
X120937000Y-86700250D01*
X120938053Y-86678809D01*
X120941203Y-86657574D01*
X120946419Y-86636750D01*
X120953651Y-86616538D01*
X120962830Y-86597132D01*
X120973866Y-86578719D01*
X120986654Y-86561476D01*
X121001070Y-86545570D01*
X121016976Y-86531154D01*
X121034219Y-86518366D01*
X121052632Y-86507330D01*
X121072038Y-86498151D01*
X121092250Y-86490919D01*
X121113074Y-86485703D01*
X121134309Y-86482553D01*
X121155750Y-86481500D01*
X121668250Y-86481500D01*
X121689691Y-86482553D01*
X121689691Y-86482553D01*
G37*
D15*
X121412000Y-86919000D03*
D14*
G36*
X121689691Y-84907553D02*
X121710926Y-84910703D01*
X121731750Y-84915919D01*
X121751962Y-84923151D01*
X121771368Y-84932330D01*
X121789781Y-84943366D01*
X121807024Y-84956154D01*
X121822930Y-84970570D01*
X121837346Y-84986476D01*
X121850134Y-85003719D01*
X121861170Y-85022132D01*
X121870349Y-85041538D01*
X121877581Y-85061750D01*
X121882797Y-85082574D01*
X121885947Y-85103809D01*
X121887000Y-85125250D01*
X121887000Y-85562750D01*
X121885947Y-85584191D01*
X121882797Y-85605426D01*
X121877581Y-85626250D01*
X121870349Y-85646462D01*
X121861170Y-85665868D01*
X121850134Y-85684281D01*
X121837346Y-85701524D01*
X121822930Y-85717430D01*
X121807024Y-85731846D01*
X121789781Y-85744634D01*
X121771368Y-85755670D01*
X121751962Y-85764849D01*
X121731750Y-85772081D01*
X121710926Y-85777297D01*
X121689691Y-85780447D01*
X121668250Y-85781500D01*
X121155750Y-85781500D01*
X121134309Y-85780447D01*
X121113074Y-85777297D01*
X121092250Y-85772081D01*
X121072038Y-85764849D01*
X121052632Y-85755670D01*
X121034219Y-85744634D01*
X121016976Y-85731846D01*
X121001070Y-85717430D01*
X120986654Y-85701524D01*
X120973866Y-85684281D01*
X120962830Y-85665868D01*
X120953651Y-85646462D01*
X120946419Y-85626250D01*
X120941203Y-85605426D01*
X120938053Y-85584191D01*
X120937000Y-85562750D01*
X120937000Y-85125250D01*
X120938053Y-85103809D01*
X120941203Y-85082574D01*
X120946419Y-85061750D01*
X120953651Y-85041538D01*
X120962830Y-85022132D01*
X120973866Y-85003719D01*
X120986654Y-84986476D01*
X121001070Y-84970570D01*
X121016976Y-84956154D01*
X121034219Y-84943366D01*
X121052632Y-84932330D01*
X121072038Y-84923151D01*
X121092250Y-84915919D01*
X121113074Y-84910703D01*
X121134309Y-84907553D01*
X121155750Y-84906500D01*
X121668250Y-84906500D01*
X121689691Y-84907553D01*
X121689691Y-84907553D01*
G37*
D15*
X121412000Y-85344000D03*
G04 #@! TD*
D14*
G04 #@! TO.C,C24*
G36*
X107592691Y-126716053D02*
X107613926Y-126719203D01*
X107634750Y-126724419D01*
X107654962Y-126731651D01*
X107674368Y-126740830D01*
X107692781Y-126751866D01*
X107710024Y-126764654D01*
X107725930Y-126779070D01*
X107740346Y-126794976D01*
X107753134Y-126812219D01*
X107764170Y-126830632D01*
X107773349Y-126850038D01*
X107780581Y-126870250D01*
X107785797Y-126891074D01*
X107788947Y-126912309D01*
X107790000Y-126933750D01*
X107790000Y-127371250D01*
X107788947Y-127392691D01*
X107785797Y-127413926D01*
X107780581Y-127434750D01*
X107773349Y-127454962D01*
X107764170Y-127474368D01*
X107753134Y-127492781D01*
X107740346Y-127510024D01*
X107725930Y-127525930D01*
X107710024Y-127540346D01*
X107692781Y-127553134D01*
X107674368Y-127564170D01*
X107654962Y-127573349D01*
X107634750Y-127580581D01*
X107613926Y-127585797D01*
X107592691Y-127588947D01*
X107571250Y-127590000D01*
X107058750Y-127590000D01*
X107037309Y-127588947D01*
X107016074Y-127585797D01*
X106995250Y-127580581D01*
X106975038Y-127573349D01*
X106955632Y-127564170D01*
X106937219Y-127553134D01*
X106919976Y-127540346D01*
X106904070Y-127525930D01*
X106889654Y-127510024D01*
X106876866Y-127492781D01*
X106865830Y-127474368D01*
X106856651Y-127454962D01*
X106849419Y-127434750D01*
X106844203Y-127413926D01*
X106841053Y-127392691D01*
X106840000Y-127371250D01*
X106840000Y-126933750D01*
X106841053Y-126912309D01*
X106844203Y-126891074D01*
X106849419Y-126870250D01*
X106856651Y-126850038D01*
X106865830Y-126830632D01*
X106876866Y-126812219D01*
X106889654Y-126794976D01*
X106904070Y-126779070D01*
X106919976Y-126764654D01*
X106937219Y-126751866D01*
X106955632Y-126740830D01*
X106975038Y-126731651D01*
X106995250Y-126724419D01*
X107016074Y-126719203D01*
X107037309Y-126716053D01*
X107058750Y-126715000D01*
X107571250Y-126715000D01*
X107592691Y-126716053D01*
X107592691Y-126716053D01*
G37*
D15*
X107315000Y-127152500D03*
D14*
G36*
X107592691Y-125141053D02*
X107613926Y-125144203D01*
X107634750Y-125149419D01*
X107654962Y-125156651D01*
X107674368Y-125165830D01*
X107692781Y-125176866D01*
X107710024Y-125189654D01*
X107725930Y-125204070D01*
X107740346Y-125219976D01*
X107753134Y-125237219D01*
X107764170Y-125255632D01*
X107773349Y-125275038D01*
X107780581Y-125295250D01*
X107785797Y-125316074D01*
X107788947Y-125337309D01*
X107790000Y-125358750D01*
X107790000Y-125796250D01*
X107788947Y-125817691D01*
X107785797Y-125838926D01*
X107780581Y-125859750D01*
X107773349Y-125879962D01*
X107764170Y-125899368D01*
X107753134Y-125917781D01*
X107740346Y-125935024D01*
X107725930Y-125950930D01*
X107710024Y-125965346D01*
X107692781Y-125978134D01*
X107674368Y-125989170D01*
X107654962Y-125998349D01*
X107634750Y-126005581D01*
X107613926Y-126010797D01*
X107592691Y-126013947D01*
X107571250Y-126015000D01*
X107058750Y-126015000D01*
X107037309Y-126013947D01*
X107016074Y-126010797D01*
X106995250Y-126005581D01*
X106975038Y-125998349D01*
X106955632Y-125989170D01*
X106937219Y-125978134D01*
X106919976Y-125965346D01*
X106904070Y-125950930D01*
X106889654Y-125935024D01*
X106876866Y-125917781D01*
X106865830Y-125899368D01*
X106856651Y-125879962D01*
X106849419Y-125859750D01*
X106844203Y-125838926D01*
X106841053Y-125817691D01*
X106840000Y-125796250D01*
X106840000Y-125358750D01*
X106841053Y-125337309D01*
X106844203Y-125316074D01*
X106849419Y-125295250D01*
X106856651Y-125275038D01*
X106865830Y-125255632D01*
X106876866Y-125237219D01*
X106889654Y-125219976D01*
X106904070Y-125204070D01*
X106919976Y-125189654D01*
X106937219Y-125176866D01*
X106955632Y-125165830D01*
X106975038Y-125156651D01*
X106995250Y-125149419D01*
X107016074Y-125144203D01*
X107037309Y-125141053D01*
X107058750Y-125140000D01*
X107571250Y-125140000D01*
X107592691Y-125141053D01*
X107592691Y-125141053D01*
G37*
D15*
X107315000Y-125577500D03*
G04 #@! TD*
D14*
G04 #@! TO.C,C25*
G36*
X94892691Y-95169053D02*
X94913926Y-95172203D01*
X94934750Y-95177419D01*
X94954962Y-95184651D01*
X94974368Y-95193830D01*
X94992781Y-95204866D01*
X95010024Y-95217654D01*
X95025930Y-95232070D01*
X95040346Y-95247976D01*
X95053134Y-95265219D01*
X95064170Y-95283632D01*
X95073349Y-95303038D01*
X95080581Y-95323250D01*
X95085797Y-95344074D01*
X95088947Y-95365309D01*
X95090000Y-95386750D01*
X95090000Y-95824250D01*
X95088947Y-95845691D01*
X95085797Y-95866926D01*
X95080581Y-95887750D01*
X95073349Y-95907962D01*
X95064170Y-95927368D01*
X95053134Y-95945781D01*
X95040346Y-95963024D01*
X95025930Y-95978930D01*
X95010024Y-95993346D01*
X94992781Y-96006134D01*
X94974368Y-96017170D01*
X94954962Y-96026349D01*
X94934750Y-96033581D01*
X94913926Y-96038797D01*
X94892691Y-96041947D01*
X94871250Y-96043000D01*
X94358750Y-96043000D01*
X94337309Y-96041947D01*
X94316074Y-96038797D01*
X94295250Y-96033581D01*
X94275038Y-96026349D01*
X94255632Y-96017170D01*
X94237219Y-96006134D01*
X94219976Y-95993346D01*
X94204070Y-95978930D01*
X94189654Y-95963024D01*
X94176866Y-95945781D01*
X94165830Y-95927368D01*
X94156651Y-95907962D01*
X94149419Y-95887750D01*
X94144203Y-95866926D01*
X94141053Y-95845691D01*
X94140000Y-95824250D01*
X94140000Y-95386750D01*
X94141053Y-95365309D01*
X94144203Y-95344074D01*
X94149419Y-95323250D01*
X94156651Y-95303038D01*
X94165830Y-95283632D01*
X94176866Y-95265219D01*
X94189654Y-95247976D01*
X94204070Y-95232070D01*
X94219976Y-95217654D01*
X94237219Y-95204866D01*
X94255632Y-95193830D01*
X94275038Y-95184651D01*
X94295250Y-95177419D01*
X94316074Y-95172203D01*
X94337309Y-95169053D01*
X94358750Y-95168000D01*
X94871250Y-95168000D01*
X94892691Y-95169053D01*
X94892691Y-95169053D01*
G37*
D15*
X94615000Y-95605500D03*
D14*
G36*
X94892691Y-96744053D02*
X94913926Y-96747203D01*
X94934750Y-96752419D01*
X94954962Y-96759651D01*
X94974368Y-96768830D01*
X94992781Y-96779866D01*
X95010024Y-96792654D01*
X95025930Y-96807070D01*
X95040346Y-96822976D01*
X95053134Y-96840219D01*
X95064170Y-96858632D01*
X95073349Y-96878038D01*
X95080581Y-96898250D01*
X95085797Y-96919074D01*
X95088947Y-96940309D01*
X95090000Y-96961750D01*
X95090000Y-97399250D01*
X95088947Y-97420691D01*
X95085797Y-97441926D01*
X95080581Y-97462750D01*
X95073349Y-97482962D01*
X95064170Y-97502368D01*
X95053134Y-97520781D01*
X95040346Y-97538024D01*
X95025930Y-97553930D01*
X95010024Y-97568346D01*
X94992781Y-97581134D01*
X94974368Y-97592170D01*
X94954962Y-97601349D01*
X94934750Y-97608581D01*
X94913926Y-97613797D01*
X94892691Y-97616947D01*
X94871250Y-97618000D01*
X94358750Y-97618000D01*
X94337309Y-97616947D01*
X94316074Y-97613797D01*
X94295250Y-97608581D01*
X94275038Y-97601349D01*
X94255632Y-97592170D01*
X94237219Y-97581134D01*
X94219976Y-97568346D01*
X94204070Y-97553930D01*
X94189654Y-97538024D01*
X94176866Y-97520781D01*
X94165830Y-97502368D01*
X94156651Y-97482962D01*
X94149419Y-97462750D01*
X94144203Y-97441926D01*
X94141053Y-97420691D01*
X94140000Y-97399250D01*
X94140000Y-96961750D01*
X94141053Y-96940309D01*
X94144203Y-96919074D01*
X94149419Y-96898250D01*
X94156651Y-96878038D01*
X94165830Y-96858632D01*
X94176866Y-96840219D01*
X94189654Y-96822976D01*
X94204070Y-96807070D01*
X94219976Y-96792654D01*
X94237219Y-96779866D01*
X94255632Y-96768830D01*
X94275038Y-96759651D01*
X94295250Y-96752419D01*
X94316074Y-96747203D01*
X94337309Y-96744053D01*
X94358750Y-96743000D01*
X94871250Y-96743000D01*
X94892691Y-96744053D01*
X94892691Y-96744053D01*
G37*
D15*
X94615000Y-97180500D03*
G04 #@! TD*
D14*
G04 #@! TO.C,C26*
G36*
X108088691Y-101888053D02*
X108109926Y-101891203D01*
X108130750Y-101896419D01*
X108150962Y-101903651D01*
X108170368Y-101912830D01*
X108188781Y-101923866D01*
X108206024Y-101936654D01*
X108221930Y-101951070D01*
X108236346Y-101966976D01*
X108249134Y-101984219D01*
X108260170Y-102002632D01*
X108269349Y-102022038D01*
X108276581Y-102042250D01*
X108281797Y-102063074D01*
X108284947Y-102084309D01*
X108286000Y-102105750D01*
X108286000Y-102618250D01*
X108284947Y-102639691D01*
X108281797Y-102660926D01*
X108276581Y-102681750D01*
X108269349Y-102701962D01*
X108260170Y-102721368D01*
X108249134Y-102739781D01*
X108236346Y-102757024D01*
X108221930Y-102772930D01*
X108206024Y-102787346D01*
X108188781Y-102800134D01*
X108170368Y-102811170D01*
X108150962Y-102820349D01*
X108130750Y-102827581D01*
X108109926Y-102832797D01*
X108088691Y-102835947D01*
X108067250Y-102837000D01*
X107629750Y-102837000D01*
X107608309Y-102835947D01*
X107587074Y-102832797D01*
X107566250Y-102827581D01*
X107546038Y-102820349D01*
X107526632Y-102811170D01*
X107508219Y-102800134D01*
X107490976Y-102787346D01*
X107475070Y-102772930D01*
X107460654Y-102757024D01*
X107447866Y-102739781D01*
X107436830Y-102721368D01*
X107427651Y-102701962D01*
X107420419Y-102681750D01*
X107415203Y-102660926D01*
X107412053Y-102639691D01*
X107411000Y-102618250D01*
X107411000Y-102105750D01*
X107412053Y-102084309D01*
X107415203Y-102063074D01*
X107420419Y-102042250D01*
X107427651Y-102022038D01*
X107436830Y-102002632D01*
X107447866Y-101984219D01*
X107460654Y-101966976D01*
X107475070Y-101951070D01*
X107490976Y-101936654D01*
X107508219Y-101923866D01*
X107526632Y-101912830D01*
X107546038Y-101903651D01*
X107566250Y-101896419D01*
X107587074Y-101891203D01*
X107608309Y-101888053D01*
X107629750Y-101887000D01*
X108067250Y-101887000D01*
X108088691Y-101888053D01*
X108088691Y-101888053D01*
G37*
D15*
X107848500Y-102362000D03*
D14*
G36*
X106513691Y-101888053D02*
X106534926Y-101891203D01*
X106555750Y-101896419D01*
X106575962Y-101903651D01*
X106595368Y-101912830D01*
X106613781Y-101923866D01*
X106631024Y-101936654D01*
X106646930Y-101951070D01*
X106661346Y-101966976D01*
X106674134Y-101984219D01*
X106685170Y-102002632D01*
X106694349Y-102022038D01*
X106701581Y-102042250D01*
X106706797Y-102063074D01*
X106709947Y-102084309D01*
X106711000Y-102105750D01*
X106711000Y-102618250D01*
X106709947Y-102639691D01*
X106706797Y-102660926D01*
X106701581Y-102681750D01*
X106694349Y-102701962D01*
X106685170Y-102721368D01*
X106674134Y-102739781D01*
X106661346Y-102757024D01*
X106646930Y-102772930D01*
X106631024Y-102787346D01*
X106613781Y-102800134D01*
X106595368Y-102811170D01*
X106575962Y-102820349D01*
X106555750Y-102827581D01*
X106534926Y-102832797D01*
X106513691Y-102835947D01*
X106492250Y-102837000D01*
X106054750Y-102837000D01*
X106033309Y-102835947D01*
X106012074Y-102832797D01*
X105991250Y-102827581D01*
X105971038Y-102820349D01*
X105951632Y-102811170D01*
X105933219Y-102800134D01*
X105915976Y-102787346D01*
X105900070Y-102772930D01*
X105885654Y-102757024D01*
X105872866Y-102739781D01*
X105861830Y-102721368D01*
X105852651Y-102701962D01*
X105845419Y-102681750D01*
X105840203Y-102660926D01*
X105837053Y-102639691D01*
X105836000Y-102618250D01*
X105836000Y-102105750D01*
X105837053Y-102084309D01*
X105840203Y-102063074D01*
X105845419Y-102042250D01*
X105852651Y-102022038D01*
X105861830Y-102002632D01*
X105872866Y-101984219D01*
X105885654Y-101966976D01*
X105900070Y-101951070D01*
X105915976Y-101936654D01*
X105933219Y-101923866D01*
X105951632Y-101912830D01*
X105971038Y-101903651D01*
X105991250Y-101896419D01*
X106012074Y-101891203D01*
X106033309Y-101888053D01*
X106054750Y-101887000D01*
X106492250Y-101887000D01*
X106513691Y-101888053D01*
X106513691Y-101888053D01*
G37*
D15*
X106273500Y-102362000D03*
G04 #@! TD*
D14*
G04 #@! TO.C,C27*
G36*
X124344691Y-106777553D02*
X124365926Y-106780703D01*
X124386750Y-106785919D01*
X124406962Y-106793151D01*
X124426368Y-106802330D01*
X124444781Y-106813366D01*
X124462024Y-106826154D01*
X124477930Y-106840570D01*
X124492346Y-106856476D01*
X124505134Y-106873719D01*
X124516170Y-106892132D01*
X124525349Y-106911538D01*
X124532581Y-106931750D01*
X124537797Y-106952574D01*
X124540947Y-106973809D01*
X124542000Y-106995250D01*
X124542000Y-107507750D01*
X124540947Y-107529191D01*
X124537797Y-107550426D01*
X124532581Y-107571250D01*
X124525349Y-107591462D01*
X124516170Y-107610868D01*
X124505134Y-107629281D01*
X124492346Y-107646524D01*
X124477930Y-107662430D01*
X124462024Y-107676846D01*
X124444781Y-107689634D01*
X124426368Y-107700670D01*
X124406962Y-107709849D01*
X124386750Y-107717081D01*
X124365926Y-107722297D01*
X124344691Y-107725447D01*
X124323250Y-107726500D01*
X123885750Y-107726500D01*
X123864309Y-107725447D01*
X123843074Y-107722297D01*
X123822250Y-107717081D01*
X123802038Y-107709849D01*
X123782632Y-107700670D01*
X123764219Y-107689634D01*
X123746976Y-107676846D01*
X123731070Y-107662430D01*
X123716654Y-107646524D01*
X123703866Y-107629281D01*
X123692830Y-107610868D01*
X123683651Y-107591462D01*
X123676419Y-107571250D01*
X123671203Y-107550426D01*
X123668053Y-107529191D01*
X123667000Y-107507750D01*
X123667000Y-106995250D01*
X123668053Y-106973809D01*
X123671203Y-106952574D01*
X123676419Y-106931750D01*
X123683651Y-106911538D01*
X123692830Y-106892132D01*
X123703866Y-106873719D01*
X123716654Y-106856476D01*
X123731070Y-106840570D01*
X123746976Y-106826154D01*
X123764219Y-106813366D01*
X123782632Y-106802330D01*
X123802038Y-106793151D01*
X123822250Y-106785919D01*
X123843074Y-106780703D01*
X123864309Y-106777553D01*
X123885750Y-106776500D01*
X124323250Y-106776500D01*
X124344691Y-106777553D01*
X124344691Y-106777553D01*
G37*
D15*
X124104500Y-107251500D03*
D14*
G36*
X122769691Y-106777553D02*
X122790926Y-106780703D01*
X122811750Y-106785919D01*
X122831962Y-106793151D01*
X122851368Y-106802330D01*
X122869781Y-106813366D01*
X122887024Y-106826154D01*
X122902930Y-106840570D01*
X122917346Y-106856476D01*
X122930134Y-106873719D01*
X122941170Y-106892132D01*
X122950349Y-106911538D01*
X122957581Y-106931750D01*
X122962797Y-106952574D01*
X122965947Y-106973809D01*
X122967000Y-106995250D01*
X122967000Y-107507750D01*
X122965947Y-107529191D01*
X122962797Y-107550426D01*
X122957581Y-107571250D01*
X122950349Y-107591462D01*
X122941170Y-107610868D01*
X122930134Y-107629281D01*
X122917346Y-107646524D01*
X122902930Y-107662430D01*
X122887024Y-107676846D01*
X122869781Y-107689634D01*
X122851368Y-107700670D01*
X122831962Y-107709849D01*
X122811750Y-107717081D01*
X122790926Y-107722297D01*
X122769691Y-107725447D01*
X122748250Y-107726500D01*
X122310750Y-107726500D01*
X122289309Y-107725447D01*
X122268074Y-107722297D01*
X122247250Y-107717081D01*
X122227038Y-107709849D01*
X122207632Y-107700670D01*
X122189219Y-107689634D01*
X122171976Y-107676846D01*
X122156070Y-107662430D01*
X122141654Y-107646524D01*
X122128866Y-107629281D01*
X122117830Y-107610868D01*
X122108651Y-107591462D01*
X122101419Y-107571250D01*
X122096203Y-107550426D01*
X122093053Y-107529191D01*
X122092000Y-107507750D01*
X122092000Y-106995250D01*
X122093053Y-106973809D01*
X122096203Y-106952574D01*
X122101419Y-106931750D01*
X122108651Y-106911538D01*
X122117830Y-106892132D01*
X122128866Y-106873719D01*
X122141654Y-106856476D01*
X122156070Y-106840570D01*
X122171976Y-106826154D01*
X122189219Y-106813366D01*
X122207632Y-106802330D01*
X122227038Y-106793151D01*
X122247250Y-106785919D01*
X122268074Y-106780703D01*
X122289309Y-106777553D01*
X122310750Y-106776500D01*
X122748250Y-106776500D01*
X122769691Y-106777553D01*
X122769691Y-106777553D01*
G37*
D15*
X122529500Y-107251500D03*
G04 #@! TD*
D14*
G04 #@! TO.C,C28*
G36*
X127913191Y-113381553D02*
X127934426Y-113384703D01*
X127955250Y-113389919D01*
X127975462Y-113397151D01*
X127994868Y-113406330D01*
X128013281Y-113417366D01*
X128030524Y-113430154D01*
X128046430Y-113444570D01*
X128060846Y-113460476D01*
X128073634Y-113477719D01*
X128084670Y-113496132D01*
X128093849Y-113515538D01*
X128101081Y-113535750D01*
X128106297Y-113556574D01*
X128109447Y-113577809D01*
X128110500Y-113599250D01*
X128110500Y-114111750D01*
X128109447Y-114133191D01*
X128106297Y-114154426D01*
X128101081Y-114175250D01*
X128093849Y-114195462D01*
X128084670Y-114214868D01*
X128073634Y-114233281D01*
X128060846Y-114250524D01*
X128046430Y-114266430D01*
X128030524Y-114280846D01*
X128013281Y-114293634D01*
X127994868Y-114304670D01*
X127975462Y-114313849D01*
X127955250Y-114321081D01*
X127934426Y-114326297D01*
X127913191Y-114329447D01*
X127891750Y-114330500D01*
X127454250Y-114330500D01*
X127432809Y-114329447D01*
X127411574Y-114326297D01*
X127390750Y-114321081D01*
X127370538Y-114313849D01*
X127351132Y-114304670D01*
X127332719Y-114293634D01*
X127315476Y-114280846D01*
X127299570Y-114266430D01*
X127285154Y-114250524D01*
X127272366Y-114233281D01*
X127261330Y-114214868D01*
X127252151Y-114195462D01*
X127244919Y-114175250D01*
X127239703Y-114154426D01*
X127236553Y-114133191D01*
X127235500Y-114111750D01*
X127235500Y-113599250D01*
X127236553Y-113577809D01*
X127239703Y-113556574D01*
X127244919Y-113535750D01*
X127252151Y-113515538D01*
X127261330Y-113496132D01*
X127272366Y-113477719D01*
X127285154Y-113460476D01*
X127299570Y-113444570D01*
X127315476Y-113430154D01*
X127332719Y-113417366D01*
X127351132Y-113406330D01*
X127370538Y-113397151D01*
X127390750Y-113389919D01*
X127411574Y-113384703D01*
X127432809Y-113381553D01*
X127454250Y-113380500D01*
X127891750Y-113380500D01*
X127913191Y-113381553D01*
X127913191Y-113381553D01*
G37*
D15*
X127673000Y-113855500D03*
D14*
G36*
X129488191Y-113381553D02*
X129509426Y-113384703D01*
X129530250Y-113389919D01*
X129550462Y-113397151D01*
X129569868Y-113406330D01*
X129588281Y-113417366D01*
X129605524Y-113430154D01*
X129621430Y-113444570D01*
X129635846Y-113460476D01*
X129648634Y-113477719D01*
X129659670Y-113496132D01*
X129668849Y-113515538D01*
X129676081Y-113535750D01*
X129681297Y-113556574D01*
X129684447Y-113577809D01*
X129685500Y-113599250D01*
X129685500Y-114111750D01*
X129684447Y-114133191D01*
X129681297Y-114154426D01*
X129676081Y-114175250D01*
X129668849Y-114195462D01*
X129659670Y-114214868D01*
X129648634Y-114233281D01*
X129635846Y-114250524D01*
X129621430Y-114266430D01*
X129605524Y-114280846D01*
X129588281Y-114293634D01*
X129569868Y-114304670D01*
X129550462Y-114313849D01*
X129530250Y-114321081D01*
X129509426Y-114326297D01*
X129488191Y-114329447D01*
X129466750Y-114330500D01*
X129029250Y-114330500D01*
X129007809Y-114329447D01*
X128986574Y-114326297D01*
X128965750Y-114321081D01*
X128945538Y-114313849D01*
X128926132Y-114304670D01*
X128907719Y-114293634D01*
X128890476Y-114280846D01*
X128874570Y-114266430D01*
X128860154Y-114250524D01*
X128847366Y-114233281D01*
X128836330Y-114214868D01*
X128827151Y-114195462D01*
X128819919Y-114175250D01*
X128814703Y-114154426D01*
X128811553Y-114133191D01*
X128810500Y-114111750D01*
X128810500Y-113599250D01*
X128811553Y-113577809D01*
X128814703Y-113556574D01*
X128819919Y-113535750D01*
X128827151Y-113515538D01*
X128836330Y-113496132D01*
X128847366Y-113477719D01*
X128860154Y-113460476D01*
X128874570Y-113444570D01*
X128890476Y-113430154D01*
X128907719Y-113417366D01*
X128926132Y-113406330D01*
X128945538Y-113397151D01*
X128965750Y-113389919D01*
X128986574Y-113384703D01*
X129007809Y-113381553D01*
X129029250Y-113380500D01*
X129466750Y-113380500D01*
X129488191Y-113381553D01*
X129488191Y-113381553D01*
G37*
D15*
X129248000Y-113855500D03*
G04 #@! TD*
D14*
G04 #@! TO.C,C29*
G36*
X95451491Y-108503952D02*
X95472726Y-108507102D01*
X95493550Y-108512318D01*
X95513762Y-108519550D01*
X95533168Y-108528729D01*
X95551581Y-108539765D01*
X95568824Y-108552553D01*
X95584730Y-108566969D01*
X95599146Y-108582875D01*
X95611934Y-108600118D01*
X95622970Y-108618531D01*
X95632149Y-108637937D01*
X95639381Y-108658149D01*
X95644597Y-108678973D01*
X95647747Y-108700208D01*
X95648800Y-108721649D01*
X95648800Y-109159149D01*
X95647747Y-109180590D01*
X95644597Y-109201825D01*
X95639381Y-109222649D01*
X95632149Y-109242861D01*
X95622970Y-109262267D01*
X95611934Y-109280680D01*
X95599146Y-109297923D01*
X95584730Y-109313829D01*
X95568824Y-109328245D01*
X95551581Y-109341033D01*
X95533168Y-109352069D01*
X95513762Y-109361248D01*
X95493550Y-109368480D01*
X95472726Y-109373696D01*
X95451491Y-109376846D01*
X95430050Y-109377899D01*
X94917550Y-109377899D01*
X94896109Y-109376846D01*
X94874874Y-109373696D01*
X94854050Y-109368480D01*
X94833838Y-109361248D01*
X94814432Y-109352069D01*
X94796019Y-109341033D01*
X94778776Y-109328245D01*
X94762870Y-109313829D01*
X94748454Y-109297923D01*
X94735666Y-109280680D01*
X94724630Y-109262267D01*
X94715451Y-109242861D01*
X94708219Y-109222649D01*
X94703003Y-109201825D01*
X94699853Y-109180590D01*
X94698800Y-109159149D01*
X94698800Y-108721649D01*
X94699853Y-108700208D01*
X94703003Y-108678973D01*
X94708219Y-108658149D01*
X94715451Y-108637937D01*
X94724630Y-108618531D01*
X94735666Y-108600118D01*
X94748454Y-108582875D01*
X94762870Y-108566969D01*
X94778776Y-108552553D01*
X94796019Y-108539765D01*
X94814432Y-108528729D01*
X94833838Y-108519550D01*
X94854050Y-108512318D01*
X94874874Y-108507102D01*
X94896109Y-108503952D01*
X94917550Y-108502899D01*
X95430050Y-108502899D01*
X95451491Y-108503952D01*
X95451491Y-108503952D01*
G37*
D15*
X95173800Y-108940399D03*
D14*
G36*
X95451491Y-110078952D02*
X95472726Y-110082102D01*
X95493550Y-110087318D01*
X95513762Y-110094550D01*
X95533168Y-110103729D01*
X95551581Y-110114765D01*
X95568824Y-110127553D01*
X95584730Y-110141969D01*
X95599146Y-110157875D01*
X95611934Y-110175118D01*
X95622970Y-110193531D01*
X95632149Y-110212937D01*
X95639381Y-110233149D01*
X95644597Y-110253973D01*
X95647747Y-110275208D01*
X95648800Y-110296649D01*
X95648800Y-110734149D01*
X95647747Y-110755590D01*
X95644597Y-110776825D01*
X95639381Y-110797649D01*
X95632149Y-110817861D01*
X95622970Y-110837267D01*
X95611934Y-110855680D01*
X95599146Y-110872923D01*
X95584730Y-110888829D01*
X95568824Y-110903245D01*
X95551581Y-110916033D01*
X95533168Y-110927069D01*
X95513762Y-110936248D01*
X95493550Y-110943480D01*
X95472726Y-110948696D01*
X95451491Y-110951846D01*
X95430050Y-110952899D01*
X94917550Y-110952899D01*
X94896109Y-110951846D01*
X94874874Y-110948696D01*
X94854050Y-110943480D01*
X94833838Y-110936248D01*
X94814432Y-110927069D01*
X94796019Y-110916033D01*
X94778776Y-110903245D01*
X94762870Y-110888829D01*
X94748454Y-110872923D01*
X94735666Y-110855680D01*
X94724630Y-110837267D01*
X94715451Y-110817861D01*
X94708219Y-110797649D01*
X94703003Y-110776825D01*
X94699853Y-110755590D01*
X94698800Y-110734149D01*
X94698800Y-110296649D01*
X94699853Y-110275208D01*
X94703003Y-110253973D01*
X94708219Y-110233149D01*
X94715451Y-110212937D01*
X94724630Y-110193531D01*
X94735666Y-110175118D01*
X94748454Y-110157875D01*
X94762870Y-110141969D01*
X94778776Y-110127553D01*
X94796019Y-110114765D01*
X94814432Y-110103729D01*
X94833838Y-110094550D01*
X94854050Y-110087318D01*
X94874874Y-110082102D01*
X94896109Y-110078952D01*
X94917550Y-110077899D01*
X95430050Y-110077899D01*
X95451491Y-110078952D01*
X95451491Y-110078952D01*
G37*
D15*
X95173800Y-110515399D03*
G04 #@! TD*
D14*
G04 #@! TO.C,C30*
G36*
X144854491Y-109596253D02*
X144875726Y-109599403D01*
X144896550Y-109604619D01*
X144916762Y-109611851D01*
X144936168Y-109621030D01*
X144954581Y-109632066D01*
X144971824Y-109644854D01*
X144987730Y-109659270D01*
X145002146Y-109675176D01*
X145014934Y-109692419D01*
X145025970Y-109710832D01*
X145035149Y-109730238D01*
X145042381Y-109750450D01*
X145047597Y-109771274D01*
X145050747Y-109792509D01*
X145051800Y-109813950D01*
X145051800Y-110251450D01*
X145050747Y-110272891D01*
X145047597Y-110294126D01*
X145042381Y-110314950D01*
X145035149Y-110335162D01*
X145025970Y-110354568D01*
X145014934Y-110372981D01*
X145002146Y-110390224D01*
X144987730Y-110406130D01*
X144971824Y-110420546D01*
X144954581Y-110433334D01*
X144936168Y-110444370D01*
X144916762Y-110453549D01*
X144896550Y-110460781D01*
X144875726Y-110465997D01*
X144854491Y-110469147D01*
X144833050Y-110470200D01*
X144320550Y-110470200D01*
X144299109Y-110469147D01*
X144277874Y-110465997D01*
X144257050Y-110460781D01*
X144236838Y-110453549D01*
X144217432Y-110444370D01*
X144199019Y-110433334D01*
X144181776Y-110420546D01*
X144165870Y-110406130D01*
X144151454Y-110390224D01*
X144138666Y-110372981D01*
X144127630Y-110354568D01*
X144118451Y-110335162D01*
X144111219Y-110314950D01*
X144106003Y-110294126D01*
X144102853Y-110272891D01*
X144101800Y-110251450D01*
X144101800Y-109813950D01*
X144102853Y-109792509D01*
X144106003Y-109771274D01*
X144111219Y-109750450D01*
X144118451Y-109730238D01*
X144127630Y-109710832D01*
X144138666Y-109692419D01*
X144151454Y-109675176D01*
X144165870Y-109659270D01*
X144181776Y-109644854D01*
X144199019Y-109632066D01*
X144217432Y-109621030D01*
X144236838Y-109611851D01*
X144257050Y-109604619D01*
X144277874Y-109599403D01*
X144299109Y-109596253D01*
X144320550Y-109595200D01*
X144833050Y-109595200D01*
X144854491Y-109596253D01*
X144854491Y-109596253D01*
G37*
D15*
X144576800Y-110032700D03*
D14*
G36*
X144854491Y-111171253D02*
X144875726Y-111174403D01*
X144896550Y-111179619D01*
X144916762Y-111186851D01*
X144936168Y-111196030D01*
X144954581Y-111207066D01*
X144971824Y-111219854D01*
X144987730Y-111234270D01*
X145002146Y-111250176D01*
X145014934Y-111267419D01*
X145025970Y-111285832D01*
X145035149Y-111305238D01*
X145042381Y-111325450D01*
X145047597Y-111346274D01*
X145050747Y-111367509D01*
X145051800Y-111388950D01*
X145051800Y-111826450D01*
X145050747Y-111847891D01*
X145047597Y-111869126D01*
X145042381Y-111889950D01*
X145035149Y-111910162D01*
X145025970Y-111929568D01*
X145014934Y-111947981D01*
X145002146Y-111965224D01*
X144987730Y-111981130D01*
X144971824Y-111995546D01*
X144954581Y-112008334D01*
X144936168Y-112019370D01*
X144916762Y-112028549D01*
X144896550Y-112035781D01*
X144875726Y-112040997D01*
X144854491Y-112044147D01*
X144833050Y-112045200D01*
X144320550Y-112045200D01*
X144299109Y-112044147D01*
X144277874Y-112040997D01*
X144257050Y-112035781D01*
X144236838Y-112028549D01*
X144217432Y-112019370D01*
X144199019Y-112008334D01*
X144181776Y-111995546D01*
X144165870Y-111981130D01*
X144151454Y-111965224D01*
X144138666Y-111947981D01*
X144127630Y-111929568D01*
X144118451Y-111910162D01*
X144111219Y-111889950D01*
X144106003Y-111869126D01*
X144102853Y-111847891D01*
X144101800Y-111826450D01*
X144101800Y-111388950D01*
X144102853Y-111367509D01*
X144106003Y-111346274D01*
X144111219Y-111325450D01*
X144118451Y-111305238D01*
X144127630Y-111285832D01*
X144138666Y-111267419D01*
X144151454Y-111250176D01*
X144165870Y-111234270D01*
X144181776Y-111219854D01*
X144199019Y-111207066D01*
X144217432Y-111196030D01*
X144236838Y-111186851D01*
X144257050Y-111179619D01*
X144277874Y-111174403D01*
X144299109Y-111171253D01*
X144320550Y-111170200D01*
X144833050Y-111170200D01*
X144854491Y-111171253D01*
X144854491Y-111171253D01*
G37*
D15*
X144576800Y-111607700D03*
G04 #@! TD*
D14*
G04 #@! TO.C,L1*
G36*
X131812191Y-111794053D02*
X131833426Y-111797203D01*
X131854250Y-111802419D01*
X131874462Y-111809651D01*
X131893868Y-111818830D01*
X131912281Y-111829866D01*
X131929524Y-111842654D01*
X131945430Y-111857070D01*
X131959846Y-111872976D01*
X131972634Y-111890219D01*
X131983670Y-111908632D01*
X131992849Y-111928038D01*
X132000081Y-111948250D01*
X132005297Y-111969074D01*
X132008447Y-111990309D01*
X132009500Y-112011750D01*
X132009500Y-112524250D01*
X132008447Y-112545691D01*
X132005297Y-112566926D01*
X132000081Y-112587750D01*
X131992849Y-112607962D01*
X131983670Y-112627368D01*
X131972634Y-112645781D01*
X131959846Y-112663024D01*
X131945430Y-112678930D01*
X131929524Y-112693346D01*
X131912281Y-112706134D01*
X131893868Y-112717170D01*
X131874462Y-112726349D01*
X131854250Y-112733581D01*
X131833426Y-112738797D01*
X131812191Y-112741947D01*
X131790750Y-112743000D01*
X131353250Y-112743000D01*
X131331809Y-112741947D01*
X131310574Y-112738797D01*
X131289750Y-112733581D01*
X131269538Y-112726349D01*
X131250132Y-112717170D01*
X131231719Y-112706134D01*
X131214476Y-112693346D01*
X131198570Y-112678930D01*
X131184154Y-112663024D01*
X131171366Y-112645781D01*
X131160330Y-112627368D01*
X131151151Y-112607962D01*
X131143919Y-112587750D01*
X131138703Y-112566926D01*
X131135553Y-112545691D01*
X131134500Y-112524250D01*
X131134500Y-112011750D01*
X131135553Y-111990309D01*
X131138703Y-111969074D01*
X131143919Y-111948250D01*
X131151151Y-111928038D01*
X131160330Y-111908632D01*
X131171366Y-111890219D01*
X131184154Y-111872976D01*
X131198570Y-111857070D01*
X131214476Y-111842654D01*
X131231719Y-111829866D01*
X131250132Y-111818830D01*
X131269538Y-111809651D01*
X131289750Y-111802419D01*
X131310574Y-111797203D01*
X131331809Y-111794053D01*
X131353250Y-111793000D01*
X131790750Y-111793000D01*
X131812191Y-111794053D01*
X131812191Y-111794053D01*
G37*
D15*
X131572000Y-112268000D03*
D14*
G36*
X133387191Y-111794053D02*
X133408426Y-111797203D01*
X133429250Y-111802419D01*
X133449462Y-111809651D01*
X133468868Y-111818830D01*
X133487281Y-111829866D01*
X133504524Y-111842654D01*
X133520430Y-111857070D01*
X133534846Y-111872976D01*
X133547634Y-111890219D01*
X133558670Y-111908632D01*
X133567849Y-111928038D01*
X133575081Y-111948250D01*
X133580297Y-111969074D01*
X133583447Y-111990309D01*
X133584500Y-112011750D01*
X133584500Y-112524250D01*
X133583447Y-112545691D01*
X133580297Y-112566926D01*
X133575081Y-112587750D01*
X133567849Y-112607962D01*
X133558670Y-112627368D01*
X133547634Y-112645781D01*
X133534846Y-112663024D01*
X133520430Y-112678930D01*
X133504524Y-112693346D01*
X133487281Y-112706134D01*
X133468868Y-112717170D01*
X133449462Y-112726349D01*
X133429250Y-112733581D01*
X133408426Y-112738797D01*
X133387191Y-112741947D01*
X133365750Y-112743000D01*
X132928250Y-112743000D01*
X132906809Y-112741947D01*
X132885574Y-112738797D01*
X132864750Y-112733581D01*
X132844538Y-112726349D01*
X132825132Y-112717170D01*
X132806719Y-112706134D01*
X132789476Y-112693346D01*
X132773570Y-112678930D01*
X132759154Y-112663024D01*
X132746366Y-112645781D01*
X132735330Y-112627368D01*
X132726151Y-112607962D01*
X132718919Y-112587750D01*
X132713703Y-112566926D01*
X132710553Y-112545691D01*
X132709500Y-112524250D01*
X132709500Y-112011750D01*
X132710553Y-111990309D01*
X132713703Y-111969074D01*
X132718919Y-111948250D01*
X132726151Y-111928038D01*
X132735330Y-111908632D01*
X132746366Y-111890219D01*
X132759154Y-111872976D01*
X132773570Y-111857070D01*
X132789476Y-111842654D01*
X132806719Y-111829866D01*
X132825132Y-111818830D01*
X132844538Y-111809651D01*
X132864750Y-111802419D01*
X132885574Y-111797203D01*
X132906809Y-111794053D01*
X132928250Y-111793000D01*
X133365750Y-111793000D01*
X133387191Y-111794053D01*
X133387191Y-111794053D01*
G37*
D15*
X133147000Y-112268000D03*
G04 #@! TD*
D14*
G04 #@! TO.C,R1*
G36*
X137870191Y-113064053D02*
X137891426Y-113067203D01*
X137912250Y-113072419D01*
X137932462Y-113079651D01*
X137951868Y-113088830D01*
X137970281Y-113099866D01*
X137987524Y-113112654D01*
X138003430Y-113127070D01*
X138017846Y-113142976D01*
X138030634Y-113160219D01*
X138041670Y-113178632D01*
X138050849Y-113198038D01*
X138058081Y-113218250D01*
X138063297Y-113239074D01*
X138066447Y-113260309D01*
X138067500Y-113281750D01*
X138067500Y-113794250D01*
X138066447Y-113815691D01*
X138063297Y-113836926D01*
X138058081Y-113857750D01*
X138050849Y-113877962D01*
X138041670Y-113897368D01*
X138030634Y-113915781D01*
X138017846Y-113933024D01*
X138003430Y-113948930D01*
X137987524Y-113963346D01*
X137970281Y-113976134D01*
X137951868Y-113987170D01*
X137932462Y-113996349D01*
X137912250Y-114003581D01*
X137891426Y-114008797D01*
X137870191Y-114011947D01*
X137848750Y-114013000D01*
X137411250Y-114013000D01*
X137389809Y-114011947D01*
X137368574Y-114008797D01*
X137347750Y-114003581D01*
X137327538Y-113996349D01*
X137308132Y-113987170D01*
X137289719Y-113976134D01*
X137272476Y-113963346D01*
X137256570Y-113948930D01*
X137242154Y-113933024D01*
X137229366Y-113915781D01*
X137218330Y-113897368D01*
X137209151Y-113877962D01*
X137201919Y-113857750D01*
X137196703Y-113836926D01*
X137193553Y-113815691D01*
X137192500Y-113794250D01*
X137192500Y-113281750D01*
X137193553Y-113260309D01*
X137196703Y-113239074D01*
X137201919Y-113218250D01*
X137209151Y-113198038D01*
X137218330Y-113178632D01*
X137229366Y-113160219D01*
X137242154Y-113142976D01*
X137256570Y-113127070D01*
X137272476Y-113112654D01*
X137289719Y-113099866D01*
X137308132Y-113088830D01*
X137327538Y-113079651D01*
X137347750Y-113072419D01*
X137368574Y-113067203D01*
X137389809Y-113064053D01*
X137411250Y-113063000D01*
X137848750Y-113063000D01*
X137870191Y-113064053D01*
X137870191Y-113064053D01*
G37*
D15*
X137630000Y-113538000D03*
D14*
G36*
X136295191Y-113064053D02*
X136316426Y-113067203D01*
X136337250Y-113072419D01*
X136357462Y-113079651D01*
X136376868Y-113088830D01*
X136395281Y-113099866D01*
X136412524Y-113112654D01*
X136428430Y-113127070D01*
X136442846Y-113142976D01*
X136455634Y-113160219D01*
X136466670Y-113178632D01*
X136475849Y-113198038D01*
X136483081Y-113218250D01*
X136488297Y-113239074D01*
X136491447Y-113260309D01*
X136492500Y-113281750D01*
X136492500Y-113794250D01*
X136491447Y-113815691D01*
X136488297Y-113836926D01*
X136483081Y-113857750D01*
X136475849Y-113877962D01*
X136466670Y-113897368D01*
X136455634Y-113915781D01*
X136442846Y-113933024D01*
X136428430Y-113948930D01*
X136412524Y-113963346D01*
X136395281Y-113976134D01*
X136376868Y-113987170D01*
X136357462Y-113996349D01*
X136337250Y-114003581D01*
X136316426Y-114008797D01*
X136295191Y-114011947D01*
X136273750Y-114013000D01*
X135836250Y-114013000D01*
X135814809Y-114011947D01*
X135793574Y-114008797D01*
X135772750Y-114003581D01*
X135752538Y-113996349D01*
X135733132Y-113987170D01*
X135714719Y-113976134D01*
X135697476Y-113963346D01*
X135681570Y-113948930D01*
X135667154Y-113933024D01*
X135654366Y-113915781D01*
X135643330Y-113897368D01*
X135634151Y-113877962D01*
X135626919Y-113857750D01*
X135621703Y-113836926D01*
X135618553Y-113815691D01*
X135617500Y-113794250D01*
X135617500Y-113281750D01*
X135618553Y-113260309D01*
X135621703Y-113239074D01*
X135626919Y-113218250D01*
X135634151Y-113198038D01*
X135643330Y-113178632D01*
X135654366Y-113160219D01*
X135667154Y-113142976D01*
X135681570Y-113127070D01*
X135697476Y-113112654D01*
X135714719Y-113099866D01*
X135733132Y-113088830D01*
X135752538Y-113079651D01*
X135772750Y-113072419D01*
X135793574Y-113067203D01*
X135814809Y-113064053D01*
X135836250Y-113063000D01*
X136273750Y-113063000D01*
X136295191Y-113064053D01*
X136295191Y-113064053D01*
G37*
D15*
X136055000Y-113538000D03*
G04 #@! TD*
D14*
G04 #@! TO.C,R2*
G36*
X137870191Y-114588053D02*
X137891426Y-114591203D01*
X137912250Y-114596419D01*
X137932462Y-114603651D01*
X137951868Y-114612830D01*
X137970281Y-114623866D01*
X137987524Y-114636654D01*
X138003430Y-114651070D01*
X138017846Y-114666976D01*
X138030634Y-114684219D01*
X138041670Y-114702632D01*
X138050849Y-114722038D01*
X138058081Y-114742250D01*
X138063297Y-114763074D01*
X138066447Y-114784309D01*
X138067500Y-114805750D01*
X138067500Y-115318250D01*
X138066447Y-115339691D01*
X138063297Y-115360926D01*
X138058081Y-115381750D01*
X138050849Y-115401962D01*
X138041670Y-115421368D01*
X138030634Y-115439781D01*
X138017846Y-115457024D01*
X138003430Y-115472930D01*
X137987524Y-115487346D01*
X137970281Y-115500134D01*
X137951868Y-115511170D01*
X137932462Y-115520349D01*
X137912250Y-115527581D01*
X137891426Y-115532797D01*
X137870191Y-115535947D01*
X137848750Y-115537000D01*
X137411250Y-115537000D01*
X137389809Y-115535947D01*
X137368574Y-115532797D01*
X137347750Y-115527581D01*
X137327538Y-115520349D01*
X137308132Y-115511170D01*
X137289719Y-115500134D01*
X137272476Y-115487346D01*
X137256570Y-115472930D01*
X137242154Y-115457024D01*
X137229366Y-115439781D01*
X137218330Y-115421368D01*
X137209151Y-115401962D01*
X137201919Y-115381750D01*
X137196703Y-115360926D01*
X137193553Y-115339691D01*
X137192500Y-115318250D01*
X137192500Y-114805750D01*
X137193553Y-114784309D01*
X137196703Y-114763074D01*
X137201919Y-114742250D01*
X137209151Y-114722038D01*
X137218330Y-114702632D01*
X137229366Y-114684219D01*
X137242154Y-114666976D01*
X137256570Y-114651070D01*
X137272476Y-114636654D01*
X137289719Y-114623866D01*
X137308132Y-114612830D01*
X137327538Y-114603651D01*
X137347750Y-114596419D01*
X137368574Y-114591203D01*
X137389809Y-114588053D01*
X137411250Y-114587000D01*
X137848750Y-114587000D01*
X137870191Y-114588053D01*
X137870191Y-114588053D01*
G37*
D15*
X137630000Y-115062000D03*
D14*
G36*
X136295191Y-114588053D02*
X136316426Y-114591203D01*
X136337250Y-114596419D01*
X136357462Y-114603651D01*
X136376868Y-114612830D01*
X136395281Y-114623866D01*
X136412524Y-114636654D01*
X136428430Y-114651070D01*
X136442846Y-114666976D01*
X136455634Y-114684219D01*
X136466670Y-114702632D01*
X136475849Y-114722038D01*
X136483081Y-114742250D01*
X136488297Y-114763074D01*
X136491447Y-114784309D01*
X136492500Y-114805750D01*
X136492500Y-115318250D01*
X136491447Y-115339691D01*
X136488297Y-115360926D01*
X136483081Y-115381750D01*
X136475849Y-115401962D01*
X136466670Y-115421368D01*
X136455634Y-115439781D01*
X136442846Y-115457024D01*
X136428430Y-115472930D01*
X136412524Y-115487346D01*
X136395281Y-115500134D01*
X136376868Y-115511170D01*
X136357462Y-115520349D01*
X136337250Y-115527581D01*
X136316426Y-115532797D01*
X136295191Y-115535947D01*
X136273750Y-115537000D01*
X135836250Y-115537000D01*
X135814809Y-115535947D01*
X135793574Y-115532797D01*
X135772750Y-115527581D01*
X135752538Y-115520349D01*
X135733132Y-115511170D01*
X135714719Y-115500134D01*
X135697476Y-115487346D01*
X135681570Y-115472930D01*
X135667154Y-115457024D01*
X135654366Y-115439781D01*
X135643330Y-115421368D01*
X135634151Y-115401962D01*
X135626919Y-115381750D01*
X135621703Y-115360926D01*
X135618553Y-115339691D01*
X135617500Y-115318250D01*
X135617500Y-114805750D01*
X135618553Y-114784309D01*
X135621703Y-114763074D01*
X135626919Y-114742250D01*
X135634151Y-114722038D01*
X135643330Y-114702632D01*
X135654366Y-114684219D01*
X135667154Y-114666976D01*
X135681570Y-114651070D01*
X135697476Y-114636654D01*
X135714719Y-114623866D01*
X135733132Y-114612830D01*
X135752538Y-114603651D01*
X135772750Y-114596419D01*
X135793574Y-114591203D01*
X135814809Y-114588053D01*
X135836250Y-114587000D01*
X136273750Y-114587000D01*
X136295191Y-114588053D01*
X136295191Y-114588053D01*
G37*
D15*
X136055000Y-115062000D03*
G04 #@! TD*
D14*
G04 #@! TO.C,R5*
G36*
X160158691Y-66328053D02*
X160179926Y-66331203D01*
X160200750Y-66336419D01*
X160220962Y-66343651D01*
X160240368Y-66352830D01*
X160258781Y-66363866D01*
X160276024Y-66376654D01*
X160291930Y-66391070D01*
X160306346Y-66406976D01*
X160319134Y-66424219D01*
X160330170Y-66442632D01*
X160339349Y-66462038D01*
X160346581Y-66482250D01*
X160351797Y-66503074D01*
X160354947Y-66524309D01*
X160356000Y-66545750D01*
X160356000Y-67058250D01*
X160354947Y-67079691D01*
X160351797Y-67100926D01*
X160346581Y-67121750D01*
X160339349Y-67141962D01*
X160330170Y-67161368D01*
X160319134Y-67179781D01*
X160306346Y-67197024D01*
X160291930Y-67212930D01*
X160276024Y-67227346D01*
X160258781Y-67240134D01*
X160240368Y-67251170D01*
X160220962Y-67260349D01*
X160200750Y-67267581D01*
X160179926Y-67272797D01*
X160158691Y-67275947D01*
X160137250Y-67277000D01*
X159699750Y-67277000D01*
X159678309Y-67275947D01*
X159657074Y-67272797D01*
X159636250Y-67267581D01*
X159616038Y-67260349D01*
X159596632Y-67251170D01*
X159578219Y-67240134D01*
X159560976Y-67227346D01*
X159545070Y-67212930D01*
X159530654Y-67197024D01*
X159517866Y-67179781D01*
X159506830Y-67161368D01*
X159497651Y-67141962D01*
X159490419Y-67121750D01*
X159485203Y-67100926D01*
X159482053Y-67079691D01*
X159481000Y-67058250D01*
X159481000Y-66545750D01*
X159482053Y-66524309D01*
X159485203Y-66503074D01*
X159490419Y-66482250D01*
X159497651Y-66462038D01*
X159506830Y-66442632D01*
X159517866Y-66424219D01*
X159530654Y-66406976D01*
X159545070Y-66391070D01*
X159560976Y-66376654D01*
X159578219Y-66363866D01*
X159596632Y-66352830D01*
X159616038Y-66343651D01*
X159636250Y-66336419D01*
X159657074Y-66331203D01*
X159678309Y-66328053D01*
X159699750Y-66327000D01*
X160137250Y-66327000D01*
X160158691Y-66328053D01*
X160158691Y-66328053D01*
G37*
D15*
X159918500Y-66802000D03*
D14*
G36*
X158583691Y-66328053D02*
X158604926Y-66331203D01*
X158625750Y-66336419D01*
X158645962Y-66343651D01*
X158665368Y-66352830D01*
X158683781Y-66363866D01*
X158701024Y-66376654D01*
X158716930Y-66391070D01*
X158731346Y-66406976D01*
X158744134Y-66424219D01*
X158755170Y-66442632D01*
X158764349Y-66462038D01*
X158771581Y-66482250D01*
X158776797Y-66503074D01*
X158779947Y-66524309D01*
X158781000Y-66545750D01*
X158781000Y-67058250D01*
X158779947Y-67079691D01*
X158776797Y-67100926D01*
X158771581Y-67121750D01*
X158764349Y-67141962D01*
X158755170Y-67161368D01*
X158744134Y-67179781D01*
X158731346Y-67197024D01*
X158716930Y-67212930D01*
X158701024Y-67227346D01*
X158683781Y-67240134D01*
X158665368Y-67251170D01*
X158645962Y-67260349D01*
X158625750Y-67267581D01*
X158604926Y-67272797D01*
X158583691Y-67275947D01*
X158562250Y-67277000D01*
X158124750Y-67277000D01*
X158103309Y-67275947D01*
X158082074Y-67272797D01*
X158061250Y-67267581D01*
X158041038Y-67260349D01*
X158021632Y-67251170D01*
X158003219Y-67240134D01*
X157985976Y-67227346D01*
X157970070Y-67212930D01*
X157955654Y-67197024D01*
X157942866Y-67179781D01*
X157931830Y-67161368D01*
X157922651Y-67141962D01*
X157915419Y-67121750D01*
X157910203Y-67100926D01*
X157907053Y-67079691D01*
X157906000Y-67058250D01*
X157906000Y-66545750D01*
X157907053Y-66524309D01*
X157910203Y-66503074D01*
X157915419Y-66482250D01*
X157922651Y-66462038D01*
X157931830Y-66442632D01*
X157942866Y-66424219D01*
X157955654Y-66406976D01*
X157970070Y-66391070D01*
X157985976Y-66376654D01*
X158003219Y-66363866D01*
X158021632Y-66352830D01*
X158041038Y-66343651D01*
X158061250Y-66336419D01*
X158082074Y-66331203D01*
X158103309Y-66328053D01*
X158124750Y-66327000D01*
X158562250Y-66327000D01*
X158583691Y-66328053D01*
X158583691Y-66328053D01*
G37*
D15*
X158343500Y-66802000D03*
G04 #@! TD*
D14*
G04 #@! TO.C,R7*
G36*
X161301691Y-73948053D02*
X161322926Y-73951203D01*
X161343750Y-73956419D01*
X161363962Y-73963651D01*
X161383368Y-73972830D01*
X161401781Y-73983866D01*
X161419024Y-73996654D01*
X161434930Y-74011070D01*
X161449346Y-74026976D01*
X161462134Y-74044219D01*
X161473170Y-74062632D01*
X161482349Y-74082038D01*
X161489581Y-74102250D01*
X161494797Y-74123074D01*
X161497947Y-74144309D01*
X161499000Y-74165750D01*
X161499000Y-74678250D01*
X161497947Y-74699691D01*
X161494797Y-74720926D01*
X161489581Y-74741750D01*
X161482349Y-74761962D01*
X161473170Y-74781368D01*
X161462134Y-74799781D01*
X161449346Y-74817024D01*
X161434930Y-74832930D01*
X161419024Y-74847346D01*
X161401781Y-74860134D01*
X161383368Y-74871170D01*
X161363962Y-74880349D01*
X161343750Y-74887581D01*
X161322926Y-74892797D01*
X161301691Y-74895947D01*
X161280250Y-74897000D01*
X160842750Y-74897000D01*
X160821309Y-74895947D01*
X160800074Y-74892797D01*
X160779250Y-74887581D01*
X160759038Y-74880349D01*
X160739632Y-74871170D01*
X160721219Y-74860134D01*
X160703976Y-74847346D01*
X160688070Y-74832930D01*
X160673654Y-74817024D01*
X160660866Y-74799781D01*
X160649830Y-74781368D01*
X160640651Y-74761962D01*
X160633419Y-74741750D01*
X160628203Y-74720926D01*
X160625053Y-74699691D01*
X160624000Y-74678250D01*
X160624000Y-74165750D01*
X160625053Y-74144309D01*
X160628203Y-74123074D01*
X160633419Y-74102250D01*
X160640651Y-74082038D01*
X160649830Y-74062632D01*
X160660866Y-74044219D01*
X160673654Y-74026976D01*
X160688070Y-74011070D01*
X160703976Y-73996654D01*
X160721219Y-73983866D01*
X160739632Y-73972830D01*
X160759038Y-73963651D01*
X160779250Y-73956419D01*
X160800074Y-73951203D01*
X160821309Y-73948053D01*
X160842750Y-73947000D01*
X161280250Y-73947000D01*
X161301691Y-73948053D01*
X161301691Y-73948053D01*
G37*
D15*
X161061500Y-74422000D03*
D14*
G36*
X159726691Y-73948053D02*
X159747926Y-73951203D01*
X159768750Y-73956419D01*
X159788962Y-73963651D01*
X159808368Y-73972830D01*
X159826781Y-73983866D01*
X159844024Y-73996654D01*
X159859930Y-74011070D01*
X159874346Y-74026976D01*
X159887134Y-74044219D01*
X159898170Y-74062632D01*
X159907349Y-74082038D01*
X159914581Y-74102250D01*
X159919797Y-74123074D01*
X159922947Y-74144309D01*
X159924000Y-74165750D01*
X159924000Y-74678250D01*
X159922947Y-74699691D01*
X159919797Y-74720926D01*
X159914581Y-74741750D01*
X159907349Y-74761962D01*
X159898170Y-74781368D01*
X159887134Y-74799781D01*
X159874346Y-74817024D01*
X159859930Y-74832930D01*
X159844024Y-74847346D01*
X159826781Y-74860134D01*
X159808368Y-74871170D01*
X159788962Y-74880349D01*
X159768750Y-74887581D01*
X159747926Y-74892797D01*
X159726691Y-74895947D01*
X159705250Y-74897000D01*
X159267750Y-74897000D01*
X159246309Y-74895947D01*
X159225074Y-74892797D01*
X159204250Y-74887581D01*
X159184038Y-74880349D01*
X159164632Y-74871170D01*
X159146219Y-74860134D01*
X159128976Y-74847346D01*
X159113070Y-74832930D01*
X159098654Y-74817024D01*
X159085866Y-74799781D01*
X159074830Y-74781368D01*
X159065651Y-74761962D01*
X159058419Y-74741750D01*
X159053203Y-74720926D01*
X159050053Y-74699691D01*
X159049000Y-74678250D01*
X159049000Y-74165750D01*
X159050053Y-74144309D01*
X159053203Y-74123074D01*
X159058419Y-74102250D01*
X159065651Y-74082038D01*
X159074830Y-74062632D01*
X159085866Y-74044219D01*
X159098654Y-74026976D01*
X159113070Y-74011070D01*
X159128976Y-73996654D01*
X159146219Y-73983866D01*
X159164632Y-73972830D01*
X159184038Y-73963651D01*
X159204250Y-73956419D01*
X159225074Y-73951203D01*
X159246309Y-73948053D01*
X159267750Y-73947000D01*
X159705250Y-73947000D01*
X159726691Y-73948053D01*
X159726691Y-73948053D01*
G37*
D15*
X159486500Y-74422000D03*
G04 #@! TD*
D14*
G04 #@! TO.C,R8*
G36*
X160311191Y-93252053D02*
X160332426Y-93255203D01*
X160353250Y-93260419D01*
X160373462Y-93267651D01*
X160392868Y-93276830D01*
X160411281Y-93287866D01*
X160428524Y-93300654D01*
X160444430Y-93315070D01*
X160458846Y-93330976D01*
X160471634Y-93348219D01*
X160482670Y-93366632D01*
X160491849Y-93386038D01*
X160499081Y-93406250D01*
X160504297Y-93427074D01*
X160507447Y-93448309D01*
X160508500Y-93469750D01*
X160508500Y-93982250D01*
X160507447Y-94003691D01*
X160504297Y-94024926D01*
X160499081Y-94045750D01*
X160491849Y-94065962D01*
X160482670Y-94085368D01*
X160471634Y-94103781D01*
X160458846Y-94121024D01*
X160444430Y-94136930D01*
X160428524Y-94151346D01*
X160411281Y-94164134D01*
X160392868Y-94175170D01*
X160373462Y-94184349D01*
X160353250Y-94191581D01*
X160332426Y-94196797D01*
X160311191Y-94199947D01*
X160289750Y-94201000D01*
X159852250Y-94201000D01*
X159830809Y-94199947D01*
X159809574Y-94196797D01*
X159788750Y-94191581D01*
X159768538Y-94184349D01*
X159749132Y-94175170D01*
X159730719Y-94164134D01*
X159713476Y-94151346D01*
X159697570Y-94136930D01*
X159683154Y-94121024D01*
X159670366Y-94103781D01*
X159659330Y-94085368D01*
X159650151Y-94065962D01*
X159642919Y-94045750D01*
X159637703Y-94024926D01*
X159634553Y-94003691D01*
X159633500Y-93982250D01*
X159633500Y-93469750D01*
X159634553Y-93448309D01*
X159637703Y-93427074D01*
X159642919Y-93406250D01*
X159650151Y-93386038D01*
X159659330Y-93366632D01*
X159670366Y-93348219D01*
X159683154Y-93330976D01*
X159697570Y-93315070D01*
X159713476Y-93300654D01*
X159730719Y-93287866D01*
X159749132Y-93276830D01*
X159768538Y-93267651D01*
X159788750Y-93260419D01*
X159809574Y-93255203D01*
X159830809Y-93252053D01*
X159852250Y-93251000D01*
X160289750Y-93251000D01*
X160311191Y-93252053D01*
X160311191Y-93252053D01*
G37*
D15*
X160071000Y-93726000D03*
D14*
G36*
X158736191Y-93252053D02*
X158757426Y-93255203D01*
X158778250Y-93260419D01*
X158798462Y-93267651D01*
X158817868Y-93276830D01*
X158836281Y-93287866D01*
X158853524Y-93300654D01*
X158869430Y-93315070D01*
X158883846Y-93330976D01*
X158896634Y-93348219D01*
X158907670Y-93366632D01*
X158916849Y-93386038D01*
X158924081Y-93406250D01*
X158929297Y-93427074D01*
X158932447Y-93448309D01*
X158933500Y-93469750D01*
X158933500Y-93982250D01*
X158932447Y-94003691D01*
X158929297Y-94024926D01*
X158924081Y-94045750D01*
X158916849Y-94065962D01*
X158907670Y-94085368D01*
X158896634Y-94103781D01*
X158883846Y-94121024D01*
X158869430Y-94136930D01*
X158853524Y-94151346D01*
X158836281Y-94164134D01*
X158817868Y-94175170D01*
X158798462Y-94184349D01*
X158778250Y-94191581D01*
X158757426Y-94196797D01*
X158736191Y-94199947D01*
X158714750Y-94201000D01*
X158277250Y-94201000D01*
X158255809Y-94199947D01*
X158234574Y-94196797D01*
X158213750Y-94191581D01*
X158193538Y-94184349D01*
X158174132Y-94175170D01*
X158155719Y-94164134D01*
X158138476Y-94151346D01*
X158122570Y-94136930D01*
X158108154Y-94121024D01*
X158095366Y-94103781D01*
X158084330Y-94085368D01*
X158075151Y-94065962D01*
X158067919Y-94045750D01*
X158062703Y-94024926D01*
X158059553Y-94003691D01*
X158058500Y-93982250D01*
X158058500Y-93469750D01*
X158059553Y-93448309D01*
X158062703Y-93427074D01*
X158067919Y-93406250D01*
X158075151Y-93386038D01*
X158084330Y-93366632D01*
X158095366Y-93348219D01*
X158108154Y-93330976D01*
X158122570Y-93315070D01*
X158138476Y-93300654D01*
X158155719Y-93287866D01*
X158174132Y-93276830D01*
X158193538Y-93267651D01*
X158213750Y-93260419D01*
X158234574Y-93255203D01*
X158255809Y-93252053D01*
X158277250Y-93251000D01*
X158714750Y-93251000D01*
X158736191Y-93252053D01*
X158736191Y-93252053D01*
G37*
D15*
X158496000Y-93726000D03*
G04 #@! TD*
D14*
G04 #@! TO.C,R10*
G36*
X159015691Y-81745853D02*
X159036926Y-81749003D01*
X159057750Y-81754219D01*
X159077962Y-81761451D01*
X159097368Y-81770630D01*
X159115781Y-81781666D01*
X159133024Y-81794454D01*
X159148930Y-81808870D01*
X159163346Y-81824776D01*
X159176134Y-81842019D01*
X159187170Y-81860432D01*
X159196349Y-81879838D01*
X159203581Y-81900050D01*
X159208797Y-81920874D01*
X159211947Y-81942109D01*
X159213000Y-81963550D01*
X159213000Y-82476050D01*
X159211947Y-82497491D01*
X159208797Y-82518726D01*
X159203581Y-82539550D01*
X159196349Y-82559762D01*
X159187170Y-82579168D01*
X159176134Y-82597581D01*
X159163346Y-82614824D01*
X159148930Y-82630730D01*
X159133024Y-82645146D01*
X159115781Y-82657934D01*
X159097368Y-82668970D01*
X159077962Y-82678149D01*
X159057750Y-82685381D01*
X159036926Y-82690597D01*
X159015691Y-82693747D01*
X158994250Y-82694800D01*
X158556750Y-82694800D01*
X158535309Y-82693747D01*
X158514074Y-82690597D01*
X158493250Y-82685381D01*
X158473038Y-82678149D01*
X158453632Y-82668970D01*
X158435219Y-82657934D01*
X158417976Y-82645146D01*
X158402070Y-82630730D01*
X158387654Y-82614824D01*
X158374866Y-82597581D01*
X158363830Y-82579168D01*
X158354651Y-82559762D01*
X158347419Y-82539550D01*
X158342203Y-82518726D01*
X158339053Y-82497491D01*
X158338000Y-82476050D01*
X158338000Y-81963550D01*
X158339053Y-81942109D01*
X158342203Y-81920874D01*
X158347419Y-81900050D01*
X158354651Y-81879838D01*
X158363830Y-81860432D01*
X158374866Y-81842019D01*
X158387654Y-81824776D01*
X158402070Y-81808870D01*
X158417976Y-81794454D01*
X158435219Y-81781666D01*
X158453632Y-81770630D01*
X158473038Y-81761451D01*
X158493250Y-81754219D01*
X158514074Y-81749003D01*
X158535309Y-81745853D01*
X158556750Y-81744800D01*
X158994250Y-81744800D01*
X159015691Y-81745853D01*
X159015691Y-81745853D01*
G37*
D15*
X158775500Y-82219800D03*
D14*
G36*
X157440691Y-81745853D02*
X157461926Y-81749003D01*
X157482750Y-81754219D01*
X157502962Y-81761451D01*
X157522368Y-81770630D01*
X157540781Y-81781666D01*
X157558024Y-81794454D01*
X157573930Y-81808870D01*
X157588346Y-81824776D01*
X157601134Y-81842019D01*
X157612170Y-81860432D01*
X157621349Y-81879838D01*
X157628581Y-81900050D01*
X157633797Y-81920874D01*
X157636947Y-81942109D01*
X157638000Y-81963550D01*
X157638000Y-82476050D01*
X157636947Y-82497491D01*
X157633797Y-82518726D01*
X157628581Y-82539550D01*
X157621349Y-82559762D01*
X157612170Y-82579168D01*
X157601134Y-82597581D01*
X157588346Y-82614824D01*
X157573930Y-82630730D01*
X157558024Y-82645146D01*
X157540781Y-82657934D01*
X157522368Y-82668970D01*
X157502962Y-82678149D01*
X157482750Y-82685381D01*
X157461926Y-82690597D01*
X157440691Y-82693747D01*
X157419250Y-82694800D01*
X156981750Y-82694800D01*
X156960309Y-82693747D01*
X156939074Y-82690597D01*
X156918250Y-82685381D01*
X156898038Y-82678149D01*
X156878632Y-82668970D01*
X156860219Y-82657934D01*
X156842976Y-82645146D01*
X156827070Y-82630730D01*
X156812654Y-82614824D01*
X156799866Y-82597581D01*
X156788830Y-82579168D01*
X156779651Y-82559762D01*
X156772419Y-82539550D01*
X156767203Y-82518726D01*
X156764053Y-82497491D01*
X156763000Y-82476050D01*
X156763000Y-81963550D01*
X156764053Y-81942109D01*
X156767203Y-81920874D01*
X156772419Y-81900050D01*
X156779651Y-81879838D01*
X156788830Y-81860432D01*
X156799866Y-81842019D01*
X156812654Y-81824776D01*
X156827070Y-81808870D01*
X156842976Y-81794454D01*
X156860219Y-81781666D01*
X156878632Y-81770630D01*
X156898038Y-81761451D01*
X156918250Y-81754219D01*
X156939074Y-81749003D01*
X156960309Y-81745853D01*
X156981750Y-81744800D01*
X157419250Y-81744800D01*
X157440691Y-81745853D01*
X157440691Y-81745853D01*
G37*
D15*
X157200500Y-82219800D03*
G04 #@! TD*
D22*
G04 #@! TO.C,U10*
X150986000Y-84582000D03*
X150986000Y-85852000D03*
X150986000Y-87122000D03*
X150986000Y-88392000D03*
X158386000Y-88392000D03*
X158386000Y-87122000D03*
X158386000Y-85852000D03*
X158386000Y-84582000D03*
G04 #@! TD*
D23*
G04 #@! TO.C,Y1*
X169742000Y-118999000D03*
X170942000Y-118999000D03*
X172142000Y-118999000D03*
G04 #@! TD*
G04 #@! TO.C,Y2*
X146247000Y-80518000D03*
X147447000Y-80518000D03*
X148647000Y-80518000D03*
G04 #@! TD*
D14*
G04 #@! TO.C,C11*
G36*
X164425191Y-93137053D02*
X164446426Y-93140203D01*
X164467250Y-93145419D01*
X164487462Y-93152651D01*
X164506868Y-93161830D01*
X164525281Y-93172866D01*
X164542524Y-93185654D01*
X164558430Y-93200070D01*
X164572846Y-93215976D01*
X164585634Y-93233219D01*
X164596670Y-93251632D01*
X164605849Y-93271038D01*
X164613081Y-93291250D01*
X164618297Y-93312074D01*
X164621447Y-93333309D01*
X164622500Y-93354750D01*
X164622500Y-93792250D01*
X164621447Y-93813691D01*
X164618297Y-93834926D01*
X164613081Y-93855750D01*
X164605849Y-93875962D01*
X164596670Y-93895368D01*
X164585634Y-93913781D01*
X164572846Y-93931024D01*
X164558430Y-93946930D01*
X164542524Y-93961346D01*
X164525281Y-93974134D01*
X164506868Y-93985170D01*
X164487462Y-93994349D01*
X164467250Y-94001581D01*
X164446426Y-94006797D01*
X164425191Y-94009947D01*
X164403750Y-94011000D01*
X163891250Y-94011000D01*
X163869809Y-94009947D01*
X163848574Y-94006797D01*
X163827750Y-94001581D01*
X163807538Y-93994349D01*
X163788132Y-93985170D01*
X163769719Y-93974134D01*
X163752476Y-93961346D01*
X163736570Y-93946930D01*
X163722154Y-93931024D01*
X163709366Y-93913781D01*
X163698330Y-93895368D01*
X163689151Y-93875962D01*
X163681919Y-93855750D01*
X163676703Y-93834926D01*
X163673553Y-93813691D01*
X163672500Y-93792250D01*
X163672500Y-93354750D01*
X163673553Y-93333309D01*
X163676703Y-93312074D01*
X163681919Y-93291250D01*
X163689151Y-93271038D01*
X163698330Y-93251632D01*
X163709366Y-93233219D01*
X163722154Y-93215976D01*
X163736570Y-93200070D01*
X163752476Y-93185654D01*
X163769719Y-93172866D01*
X163788132Y-93161830D01*
X163807538Y-93152651D01*
X163827750Y-93145419D01*
X163848574Y-93140203D01*
X163869809Y-93137053D01*
X163891250Y-93136000D01*
X164403750Y-93136000D01*
X164425191Y-93137053D01*
X164425191Y-93137053D01*
G37*
D15*
X164147500Y-93573500D03*
D14*
G36*
X164425191Y-94712053D02*
X164446426Y-94715203D01*
X164467250Y-94720419D01*
X164487462Y-94727651D01*
X164506868Y-94736830D01*
X164525281Y-94747866D01*
X164542524Y-94760654D01*
X164558430Y-94775070D01*
X164572846Y-94790976D01*
X164585634Y-94808219D01*
X164596670Y-94826632D01*
X164605849Y-94846038D01*
X164613081Y-94866250D01*
X164618297Y-94887074D01*
X164621447Y-94908309D01*
X164622500Y-94929750D01*
X164622500Y-95367250D01*
X164621447Y-95388691D01*
X164618297Y-95409926D01*
X164613081Y-95430750D01*
X164605849Y-95450962D01*
X164596670Y-95470368D01*
X164585634Y-95488781D01*
X164572846Y-95506024D01*
X164558430Y-95521930D01*
X164542524Y-95536346D01*
X164525281Y-95549134D01*
X164506868Y-95560170D01*
X164487462Y-95569349D01*
X164467250Y-95576581D01*
X164446426Y-95581797D01*
X164425191Y-95584947D01*
X164403750Y-95586000D01*
X163891250Y-95586000D01*
X163869809Y-95584947D01*
X163848574Y-95581797D01*
X163827750Y-95576581D01*
X163807538Y-95569349D01*
X163788132Y-95560170D01*
X163769719Y-95549134D01*
X163752476Y-95536346D01*
X163736570Y-95521930D01*
X163722154Y-95506024D01*
X163709366Y-95488781D01*
X163698330Y-95470368D01*
X163689151Y-95450962D01*
X163681919Y-95430750D01*
X163676703Y-95409926D01*
X163673553Y-95388691D01*
X163672500Y-95367250D01*
X163672500Y-94929750D01*
X163673553Y-94908309D01*
X163676703Y-94887074D01*
X163681919Y-94866250D01*
X163689151Y-94846038D01*
X163698330Y-94826632D01*
X163709366Y-94808219D01*
X163722154Y-94790976D01*
X163736570Y-94775070D01*
X163752476Y-94760654D01*
X163769719Y-94747866D01*
X163788132Y-94736830D01*
X163807538Y-94727651D01*
X163827750Y-94720419D01*
X163848574Y-94715203D01*
X163869809Y-94712053D01*
X163891250Y-94711000D01*
X164403750Y-94711000D01*
X164425191Y-94712053D01*
X164425191Y-94712053D01*
G37*
D15*
X164147500Y-95148500D03*
G04 #@! TD*
D14*
G04 #@! TO.C,R4*
G36*
X157466191Y-120176053D02*
X157487426Y-120179203D01*
X157508250Y-120184419D01*
X157528462Y-120191651D01*
X157547868Y-120200830D01*
X157566281Y-120211866D01*
X157583524Y-120224654D01*
X157599430Y-120239070D01*
X157613846Y-120254976D01*
X157626634Y-120272219D01*
X157637670Y-120290632D01*
X157646849Y-120310038D01*
X157654081Y-120330250D01*
X157659297Y-120351074D01*
X157662447Y-120372309D01*
X157663500Y-120393750D01*
X157663500Y-120906250D01*
X157662447Y-120927691D01*
X157659297Y-120948926D01*
X157654081Y-120969750D01*
X157646849Y-120989962D01*
X157637670Y-121009368D01*
X157626634Y-121027781D01*
X157613846Y-121045024D01*
X157599430Y-121060930D01*
X157583524Y-121075346D01*
X157566281Y-121088134D01*
X157547868Y-121099170D01*
X157528462Y-121108349D01*
X157508250Y-121115581D01*
X157487426Y-121120797D01*
X157466191Y-121123947D01*
X157444750Y-121125000D01*
X157007250Y-121125000D01*
X156985809Y-121123947D01*
X156964574Y-121120797D01*
X156943750Y-121115581D01*
X156923538Y-121108349D01*
X156904132Y-121099170D01*
X156885719Y-121088134D01*
X156868476Y-121075346D01*
X156852570Y-121060930D01*
X156838154Y-121045024D01*
X156825366Y-121027781D01*
X156814330Y-121009368D01*
X156805151Y-120989962D01*
X156797919Y-120969750D01*
X156792703Y-120948926D01*
X156789553Y-120927691D01*
X156788500Y-120906250D01*
X156788500Y-120393750D01*
X156789553Y-120372309D01*
X156792703Y-120351074D01*
X156797919Y-120330250D01*
X156805151Y-120310038D01*
X156814330Y-120290632D01*
X156825366Y-120272219D01*
X156838154Y-120254976D01*
X156852570Y-120239070D01*
X156868476Y-120224654D01*
X156885719Y-120211866D01*
X156904132Y-120200830D01*
X156923538Y-120191651D01*
X156943750Y-120184419D01*
X156964574Y-120179203D01*
X156985809Y-120176053D01*
X157007250Y-120175000D01*
X157444750Y-120175000D01*
X157466191Y-120176053D01*
X157466191Y-120176053D01*
G37*
D15*
X157226000Y-120650000D03*
D14*
G36*
X159041191Y-120176053D02*
X159062426Y-120179203D01*
X159083250Y-120184419D01*
X159103462Y-120191651D01*
X159122868Y-120200830D01*
X159141281Y-120211866D01*
X159158524Y-120224654D01*
X159174430Y-120239070D01*
X159188846Y-120254976D01*
X159201634Y-120272219D01*
X159212670Y-120290632D01*
X159221849Y-120310038D01*
X159229081Y-120330250D01*
X159234297Y-120351074D01*
X159237447Y-120372309D01*
X159238500Y-120393750D01*
X159238500Y-120906250D01*
X159237447Y-120927691D01*
X159234297Y-120948926D01*
X159229081Y-120969750D01*
X159221849Y-120989962D01*
X159212670Y-121009368D01*
X159201634Y-121027781D01*
X159188846Y-121045024D01*
X159174430Y-121060930D01*
X159158524Y-121075346D01*
X159141281Y-121088134D01*
X159122868Y-121099170D01*
X159103462Y-121108349D01*
X159083250Y-121115581D01*
X159062426Y-121120797D01*
X159041191Y-121123947D01*
X159019750Y-121125000D01*
X158582250Y-121125000D01*
X158560809Y-121123947D01*
X158539574Y-121120797D01*
X158518750Y-121115581D01*
X158498538Y-121108349D01*
X158479132Y-121099170D01*
X158460719Y-121088134D01*
X158443476Y-121075346D01*
X158427570Y-121060930D01*
X158413154Y-121045024D01*
X158400366Y-121027781D01*
X158389330Y-121009368D01*
X158380151Y-120989962D01*
X158372919Y-120969750D01*
X158367703Y-120948926D01*
X158364553Y-120927691D01*
X158363500Y-120906250D01*
X158363500Y-120393750D01*
X158364553Y-120372309D01*
X158367703Y-120351074D01*
X158372919Y-120330250D01*
X158380151Y-120310038D01*
X158389330Y-120290632D01*
X158400366Y-120272219D01*
X158413154Y-120254976D01*
X158427570Y-120239070D01*
X158443476Y-120224654D01*
X158460719Y-120211866D01*
X158479132Y-120200830D01*
X158498538Y-120191651D01*
X158518750Y-120184419D01*
X158539574Y-120179203D01*
X158560809Y-120176053D01*
X158582250Y-120175000D01*
X159019750Y-120175000D01*
X159041191Y-120176053D01*
X159041191Y-120176053D01*
G37*
D15*
X158801000Y-120650000D03*
G04 #@! TD*
D24*
G04 #@! TO.C,D2*
X148320000Y-111948000D03*
X148320000Y-110048000D03*
X146320000Y-110998000D03*
G04 #@! TD*
D14*
G04 #@! TO.C,C1*
G36*
X124780642Y-115061674D02*
X124804303Y-115065184D01*
X124827507Y-115070996D01*
X124850029Y-115079054D01*
X124871653Y-115089282D01*
X124892170Y-115101579D01*
X124911383Y-115115829D01*
X124929107Y-115131893D01*
X124945171Y-115149617D01*
X124959421Y-115168830D01*
X124971718Y-115189347D01*
X124981946Y-115210971D01*
X124990004Y-115233493D01*
X124995816Y-115256697D01*
X124999326Y-115280358D01*
X125000500Y-115304250D01*
X125000500Y-116216750D01*
X124999326Y-116240642D01*
X124995816Y-116264303D01*
X124990004Y-116287507D01*
X124981946Y-116310029D01*
X124971718Y-116331653D01*
X124959421Y-116352170D01*
X124945171Y-116371383D01*
X124929107Y-116389107D01*
X124911383Y-116405171D01*
X124892170Y-116419421D01*
X124871653Y-116431718D01*
X124850029Y-116441946D01*
X124827507Y-116450004D01*
X124804303Y-116455816D01*
X124780642Y-116459326D01*
X124756750Y-116460500D01*
X124269250Y-116460500D01*
X124245358Y-116459326D01*
X124221697Y-116455816D01*
X124198493Y-116450004D01*
X124175971Y-116441946D01*
X124154347Y-116431718D01*
X124133830Y-116419421D01*
X124114617Y-116405171D01*
X124096893Y-116389107D01*
X124080829Y-116371383D01*
X124066579Y-116352170D01*
X124054282Y-116331653D01*
X124044054Y-116310029D01*
X124035996Y-116287507D01*
X124030184Y-116264303D01*
X124026674Y-116240642D01*
X124025500Y-116216750D01*
X124025500Y-115304250D01*
X124026674Y-115280358D01*
X124030184Y-115256697D01*
X124035996Y-115233493D01*
X124044054Y-115210971D01*
X124054282Y-115189347D01*
X124066579Y-115168830D01*
X124080829Y-115149617D01*
X124096893Y-115131893D01*
X124114617Y-115115829D01*
X124133830Y-115101579D01*
X124154347Y-115089282D01*
X124175971Y-115079054D01*
X124198493Y-115070996D01*
X124221697Y-115065184D01*
X124245358Y-115061674D01*
X124269250Y-115060500D01*
X124756750Y-115060500D01*
X124780642Y-115061674D01*
X124780642Y-115061674D01*
G37*
D25*
X124513000Y-115760500D03*
D14*
G36*
X126655642Y-115061674D02*
X126679303Y-115065184D01*
X126702507Y-115070996D01*
X126725029Y-115079054D01*
X126746653Y-115089282D01*
X126767170Y-115101579D01*
X126786383Y-115115829D01*
X126804107Y-115131893D01*
X126820171Y-115149617D01*
X126834421Y-115168830D01*
X126846718Y-115189347D01*
X126856946Y-115210971D01*
X126865004Y-115233493D01*
X126870816Y-115256697D01*
X126874326Y-115280358D01*
X126875500Y-115304250D01*
X126875500Y-116216750D01*
X126874326Y-116240642D01*
X126870816Y-116264303D01*
X126865004Y-116287507D01*
X126856946Y-116310029D01*
X126846718Y-116331653D01*
X126834421Y-116352170D01*
X126820171Y-116371383D01*
X126804107Y-116389107D01*
X126786383Y-116405171D01*
X126767170Y-116419421D01*
X126746653Y-116431718D01*
X126725029Y-116441946D01*
X126702507Y-116450004D01*
X126679303Y-116455816D01*
X126655642Y-116459326D01*
X126631750Y-116460500D01*
X126144250Y-116460500D01*
X126120358Y-116459326D01*
X126096697Y-116455816D01*
X126073493Y-116450004D01*
X126050971Y-116441946D01*
X126029347Y-116431718D01*
X126008830Y-116419421D01*
X125989617Y-116405171D01*
X125971893Y-116389107D01*
X125955829Y-116371383D01*
X125941579Y-116352170D01*
X125929282Y-116331653D01*
X125919054Y-116310029D01*
X125910996Y-116287507D01*
X125905184Y-116264303D01*
X125901674Y-116240642D01*
X125900500Y-116216750D01*
X125900500Y-115304250D01*
X125901674Y-115280358D01*
X125905184Y-115256697D01*
X125910996Y-115233493D01*
X125919054Y-115210971D01*
X125929282Y-115189347D01*
X125941579Y-115168830D01*
X125955829Y-115149617D01*
X125971893Y-115131893D01*
X125989617Y-115115829D01*
X126008830Y-115101579D01*
X126029347Y-115089282D01*
X126050971Y-115079054D01*
X126073493Y-115070996D01*
X126096697Y-115065184D01*
X126120358Y-115061674D01*
X126144250Y-115060500D01*
X126631750Y-115060500D01*
X126655642Y-115061674D01*
X126655642Y-115061674D01*
G37*
D25*
X126388000Y-115760500D03*
G04 #@! TD*
D14*
G04 #@! TO.C,C5*
G36*
X133322142Y-91065674D02*
X133345803Y-91069184D01*
X133369007Y-91074996D01*
X133391529Y-91083054D01*
X133413153Y-91093282D01*
X133433670Y-91105579D01*
X133452883Y-91119829D01*
X133470607Y-91135893D01*
X133486671Y-91153617D01*
X133500921Y-91172830D01*
X133513218Y-91193347D01*
X133523446Y-91214971D01*
X133531504Y-91237493D01*
X133537316Y-91260697D01*
X133540826Y-91284358D01*
X133542000Y-91308250D01*
X133542000Y-91795750D01*
X133540826Y-91819642D01*
X133537316Y-91843303D01*
X133531504Y-91866507D01*
X133523446Y-91889029D01*
X133513218Y-91910653D01*
X133500921Y-91931170D01*
X133486671Y-91950383D01*
X133470607Y-91968107D01*
X133452883Y-91984171D01*
X133433670Y-91998421D01*
X133413153Y-92010718D01*
X133391529Y-92020946D01*
X133369007Y-92029004D01*
X133345803Y-92034816D01*
X133322142Y-92038326D01*
X133298250Y-92039500D01*
X132385750Y-92039500D01*
X132361858Y-92038326D01*
X132338197Y-92034816D01*
X132314993Y-92029004D01*
X132292471Y-92020946D01*
X132270847Y-92010718D01*
X132250330Y-91998421D01*
X132231117Y-91984171D01*
X132213393Y-91968107D01*
X132197329Y-91950383D01*
X132183079Y-91931170D01*
X132170782Y-91910653D01*
X132160554Y-91889029D01*
X132152496Y-91866507D01*
X132146684Y-91843303D01*
X132143174Y-91819642D01*
X132142000Y-91795750D01*
X132142000Y-91308250D01*
X132143174Y-91284358D01*
X132146684Y-91260697D01*
X132152496Y-91237493D01*
X132160554Y-91214971D01*
X132170782Y-91193347D01*
X132183079Y-91172830D01*
X132197329Y-91153617D01*
X132213393Y-91135893D01*
X132231117Y-91119829D01*
X132250330Y-91105579D01*
X132270847Y-91093282D01*
X132292471Y-91083054D01*
X132314993Y-91074996D01*
X132338197Y-91069184D01*
X132361858Y-91065674D01*
X132385750Y-91064500D01*
X133298250Y-91064500D01*
X133322142Y-91065674D01*
X133322142Y-91065674D01*
G37*
D25*
X132842000Y-91552000D03*
D14*
G36*
X133322142Y-89190674D02*
X133345803Y-89194184D01*
X133369007Y-89199996D01*
X133391529Y-89208054D01*
X133413153Y-89218282D01*
X133433670Y-89230579D01*
X133452883Y-89244829D01*
X133470607Y-89260893D01*
X133486671Y-89278617D01*
X133500921Y-89297830D01*
X133513218Y-89318347D01*
X133523446Y-89339971D01*
X133531504Y-89362493D01*
X133537316Y-89385697D01*
X133540826Y-89409358D01*
X133542000Y-89433250D01*
X133542000Y-89920750D01*
X133540826Y-89944642D01*
X133537316Y-89968303D01*
X133531504Y-89991507D01*
X133523446Y-90014029D01*
X133513218Y-90035653D01*
X133500921Y-90056170D01*
X133486671Y-90075383D01*
X133470607Y-90093107D01*
X133452883Y-90109171D01*
X133433670Y-90123421D01*
X133413153Y-90135718D01*
X133391529Y-90145946D01*
X133369007Y-90154004D01*
X133345803Y-90159816D01*
X133322142Y-90163326D01*
X133298250Y-90164500D01*
X132385750Y-90164500D01*
X132361858Y-90163326D01*
X132338197Y-90159816D01*
X132314993Y-90154004D01*
X132292471Y-90145946D01*
X132270847Y-90135718D01*
X132250330Y-90123421D01*
X132231117Y-90109171D01*
X132213393Y-90093107D01*
X132197329Y-90075383D01*
X132183079Y-90056170D01*
X132170782Y-90035653D01*
X132160554Y-90014029D01*
X132152496Y-89991507D01*
X132146684Y-89968303D01*
X132143174Y-89944642D01*
X132142000Y-89920750D01*
X132142000Y-89433250D01*
X132143174Y-89409358D01*
X132146684Y-89385697D01*
X132152496Y-89362493D01*
X132160554Y-89339971D01*
X132170782Y-89318347D01*
X132183079Y-89297830D01*
X132197329Y-89278617D01*
X132213393Y-89260893D01*
X132231117Y-89244829D01*
X132250330Y-89230579D01*
X132270847Y-89218282D01*
X132292471Y-89208054D01*
X132314993Y-89199996D01*
X132338197Y-89194184D01*
X132361858Y-89190674D01*
X132385750Y-89189500D01*
X133298250Y-89189500D01*
X133322142Y-89190674D01*
X133322142Y-89190674D01*
G37*
D25*
X132842000Y-89677000D03*
G04 #@! TD*
D14*
G04 #@! TO.C,C6*
G36*
X141323142Y-82777174D02*
X141346803Y-82780684D01*
X141370007Y-82786496D01*
X141392529Y-82794554D01*
X141414153Y-82804782D01*
X141434670Y-82817079D01*
X141453883Y-82831329D01*
X141471607Y-82847393D01*
X141487671Y-82865117D01*
X141501921Y-82884330D01*
X141514218Y-82904847D01*
X141524446Y-82926471D01*
X141532504Y-82948993D01*
X141538316Y-82972197D01*
X141541826Y-82995858D01*
X141543000Y-83019750D01*
X141543000Y-83507250D01*
X141541826Y-83531142D01*
X141538316Y-83554803D01*
X141532504Y-83578007D01*
X141524446Y-83600529D01*
X141514218Y-83622153D01*
X141501921Y-83642670D01*
X141487671Y-83661883D01*
X141471607Y-83679607D01*
X141453883Y-83695671D01*
X141434670Y-83709921D01*
X141414153Y-83722218D01*
X141392529Y-83732446D01*
X141370007Y-83740504D01*
X141346803Y-83746316D01*
X141323142Y-83749826D01*
X141299250Y-83751000D01*
X140386750Y-83751000D01*
X140362858Y-83749826D01*
X140339197Y-83746316D01*
X140315993Y-83740504D01*
X140293471Y-83732446D01*
X140271847Y-83722218D01*
X140251330Y-83709921D01*
X140232117Y-83695671D01*
X140214393Y-83679607D01*
X140198329Y-83661883D01*
X140184079Y-83642670D01*
X140171782Y-83622153D01*
X140161554Y-83600529D01*
X140153496Y-83578007D01*
X140147684Y-83554803D01*
X140144174Y-83531142D01*
X140143000Y-83507250D01*
X140143000Y-83019750D01*
X140144174Y-82995858D01*
X140147684Y-82972197D01*
X140153496Y-82948993D01*
X140161554Y-82926471D01*
X140171782Y-82904847D01*
X140184079Y-82884330D01*
X140198329Y-82865117D01*
X140214393Y-82847393D01*
X140232117Y-82831329D01*
X140251330Y-82817079D01*
X140271847Y-82804782D01*
X140293471Y-82794554D01*
X140315993Y-82786496D01*
X140339197Y-82780684D01*
X140362858Y-82777174D01*
X140386750Y-82776000D01*
X141299250Y-82776000D01*
X141323142Y-82777174D01*
X141323142Y-82777174D01*
G37*
D25*
X140843000Y-83263500D03*
D14*
G36*
X141323142Y-84652174D02*
X141346803Y-84655684D01*
X141370007Y-84661496D01*
X141392529Y-84669554D01*
X141414153Y-84679782D01*
X141434670Y-84692079D01*
X141453883Y-84706329D01*
X141471607Y-84722393D01*
X141487671Y-84740117D01*
X141501921Y-84759330D01*
X141514218Y-84779847D01*
X141524446Y-84801471D01*
X141532504Y-84823993D01*
X141538316Y-84847197D01*
X141541826Y-84870858D01*
X141543000Y-84894750D01*
X141543000Y-85382250D01*
X141541826Y-85406142D01*
X141538316Y-85429803D01*
X141532504Y-85453007D01*
X141524446Y-85475529D01*
X141514218Y-85497153D01*
X141501921Y-85517670D01*
X141487671Y-85536883D01*
X141471607Y-85554607D01*
X141453883Y-85570671D01*
X141434670Y-85584921D01*
X141414153Y-85597218D01*
X141392529Y-85607446D01*
X141370007Y-85615504D01*
X141346803Y-85621316D01*
X141323142Y-85624826D01*
X141299250Y-85626000D01*
X140386750Y-85626000D01*
X140362858Y-85624826D01*
X140339197Y-85621316D01*
X140315993Y-85615504D01*
X140293471Y-85607446D01*
X140271847Y-85597218D01*
X140251330Y-85584921D01*
X140232117Y-85570671D01*
X140214393Y-85554607D01*
X140198329Y-85536883D01*
X140184079Y-85517670D01*
X140171782Y-85497153D01*
X140161554Y-85475529D01*
X140153496Y-85453007D01*
X140147684Y-85429803D01*
X140144174Y-85406142D01*
X140143000Y-85382250D01*
X140143000Y-84894750D01*
X140144174Y-84870858D01*
X140147684Y-84847197D01*
X140153496Y-84823993D01*
X140161554Y-84801471D01*
X140171782Y-84779847D01*
X140184079Y-84759330D01*
X140198329Y-84740117D01*
X140214393Y-84722393D01*
X140232117Y-84706329D01*
X140251330Y-84692079D01*
X140271847Y-84679782D01*
X140293471Y-84669554D01*
X140315993Y-84661496D01*
X140339197Y-84655684D01*
X140362858Y-84652174D01*
X140386750Y-84651000D01*
X141299250Y-84651000D01*
X141323142Y-84652174D01*
X141323142Y-84652174D01*
G37*
D25*
X140843000Y-85138500D03*
G04 #@! TD*
D14*
G04 #@! TO.C,C7*
G36*
X153324642Y-66364174D02*
X153348303Y-66367684D01*
X153371507Y-66373496D01*
X153394029Y-66381554D01*
X153415653Y-66391782D01*
X153436170Y-66404079D01*
X153455383Y-66418329D01*
X153473107Y-66434393D01*
X153489171Y-66452117D01*
X153503421Y-66471330D01*
X153515718Y-66491847D01*
X153525946Y-66513471D01*
X153534004Y-66535993D01*
X153539816Y-66559197D01*
X153543326Y-66582858D01*
X153544500Y-66606750D01*
X153544500Y-67094250D01*
X153543326Y-67118142D01*
X153539816Y-67141803D01*
X153534004Y-67165007D01*
X153525946Y-67187529D01*
X153515718Y-67209153D01*
X153503421Y-67229670D01*
X153489171Y-67248883D01*
X153473107Y-67266607D01*
X153455383Y-67282671D01*
X153436170Y-67296921D01*
X153415653Y-67309218D01*
X153394029Y-67319446D01*
X153371507Y-67327504D01*
X153348303Y-67333316D01*
X153324642Y-67336826D01*
X153300750Y-67338000D01*
X152388250Y-67338000D01*
X152364358Y-67336826D01*
X152340697Y-67333316D01*
X152317493Y-67327504D01*
X152294971Y-67319446D01*
X152273347Y-67309218D01*
X152252830Y-67296921D01*
X152233617Y-67282671D01*
X152215893Y-67266607D01*
X152199829Y-67248883D01*
X152185579Y-67229670D01*
X152173282Y-67209153D01*
X152163054Y-67187529D01*
X152154996Y-67165007D01*
X152149184Y-67141803D01*
X152145674Y-67118142D01*
X152144500Y-67094250D01*
X152144500Y-66606750D01*
X152145674Y-66582858D01*
X152149184Y-66559197D01*
X152154996Y-66535993D01*
X152163054Y-66513471D01*
X152173282Y-66491847D01*
X152185579Y-66471330D01*
X152199829Y-66452117D01*
X152215893Y-66434393D01*
X152233617Y-66418329D01*
X152252830Y-66404079D01*
X152273347Y-66391782D01*
X152294971Y-66381554D01*
X152317493Y-66373496D01*
X152340697Y-66367684D01*
X152364358Y-66364174D01*
X152388250Y-66363000D01*
X153300750Y-66363000D01*
X153324642Y-66364174D01*
X153324642Y-66364174D01*
G37*
D25*
X152844500Y-66850500D03*
D14*
G36*
X153324642Y-64489174D02*
X153348303Y-64492684D01*
X153371507Y-64498496D01*
X153394029Y-64506554D01*
X153415653Y-64516782D01*
X153436170Y-64529079D01*
X153455383Y-64543329D01*
X153473107Y-64559393D01*
X153489171Y-64577117D01*
X153503421Y-64596330D01*
X153515718Y-64616847D01*
X153525946Y-64638471D01*
X153534004Y-64660993D01*
X153539816Y-64684197D01*
X153543326Y-64707858D01*
X153544500Y-64731750D01*
X153544500Y-65219250D01*
X153543326Y-65243142D01*
X153539816Y-65266803D01*
X153534004Y-65290007D01*
X153525946Y-65312529D01*
X153515718Y-65334153D01*
X153503421Y-65354670D01*
X153489171Y-65373883D01*
X153473107Y-65391607D01*
X153455383Y-65407671D01*
X153436170Y-65421921D01*
X153415653Y-65434218D01*
X153394029Y-65444446D01*
X153371507Y-65452504D01*
X153348303Y-65458316D01*
X153324642Y-65461826D01*
X153300750Y-65463000D01*
X152388250Y-65463000D01*
X152364358Y-65461826D01*
X152340697Y-65458316D01*
X152317493Y-65452504D01*
X152294971Y-65444446D01*
X152273347Y-65434218D01*
X152252830Y-65421921D01*
X152233617Y-65407671D01*
X152215893Y-65391607D01*
X152199829Y-65373883D01*
X152185579Y-65354670D01*
X152173282Y-65334153D01*
X152163054Y-65312529D01*
X152154996Y-65290007D01*
X152149184Y-65266803D01*
X152145674Y-65243142D01*
X152144500Y-65219250D01*
X152144500Y-64731750D01*
X152145674Y-64707858D01*
X152149184Y-64684197D01*
X152154996Y-64660993D01*
X152163054Y-64638471D01*
X152173282Y-64616847D01*
X152185579Y-64596330D01*
X152199829Y-64577117D01*
X152215893Y-64559393D01*
X152233617Y-64543329D01*
X152252830Y-64529079D01*
X152273347Y-64516782D01*
X152294971Y-64506554D01*
X152317493Y-64498496D01*
X152340697Y-64492684D01*
X152364358Y-64489174D01*
X152388250Y-64488000D01*
X153300750Y-64488000D01*
X153324642Y-64489174D01*
X153324642Y-64489174D01*
G37*
D25*
X152844500Y-64975500D03*
G04 #@! TD*
M02*
