G04 #@! TF.GenerationSoftware,KiCad,Pcbnew,(5.0.2)-1*
G04 #@! TF.CreationDate,2019-02-02T15:46:13-06:00*
G04 #@! TF.ProjectId,Motor test module,4d6f746f-7220-4746-9573-74206d6f6475,rev?*
G04 #@! TF.SameCoordinates,Original*
G04 #@! TF.FileFunction,Legend,Bot*
G04 #@! TF.FilePolarity,Positive*
%FSLAX46Y46*%
G04 Gerber Fmt 4.6, Leading zero omitted, Abs format (unit mm)*
G04 Created by KiCad (PCBNEW (5.0.2)-1) date 2/2/2019 3:46:13 PM*
%MOMM*%
%LPD*%
G01*
G04 APERTURE LIST*
%ADD10C,0.010000*%
G04 APERTURE END LIST*
D10*
G04 #@! TO.C,G\002A\002A\002A*
G36*
X133393747Y-106673920D02*
X133279418Y-106745311D01*
X133128069Y-106853992D01*
X132950211Y-106991536D01*
X132756351Y-107149512D01*
X132556998Y-107319491D01*
X132362661Y-107493044D01*
X132183848Y-107661741D01*
X132127082Y-107717871D01*
X131804859Y-108057549D01*
X131497287Y-108417109D01*
X131201214Y-108802179D01*
X130913481Y-109218388D01*
X130630935Y-109671366D01*
X130350419Y-110166741D01*
X130068777Y-110710143D01*
X129782855Y-111307201D01*
X129489496Y-111963543D01*
X129185546Y-112684800D01*
X128867847Y-113476600D01*
X128796359Y-113659376D01*
X128546590Y-114300658D01*
X128750072Y-114661620D01*
X129069891Y-115254699D01*
X129394057Y-115904306D01*
X129712672Y-116588881D01*
X130015839Y-117286864D01*
X130293661Y-117976698D01*
X130395995Y-118246917D01*
X130612777Y-118847891D01*
X130820301Y-119459502D01*
X131019597Y-120086439D01*
X131211696Y-120733391D01*
X131397627Y-121405046D01*
X131578422Y-122106094D01*
X131755110Y-122841224D01*
X131928722Y-123615124D01*
X132100288Y-124432484D01*
X132270839Y-125297992D01*
X132441404Y-126216338D01*
X132613014Y-127192210D01*
X132786700Y-128230297D01*
X132963491Y-129335288D01*
X133144418Y-130511872D01*
X133258076Y-131272298D01*
X133303285Y-131574856D01*
X133345446Y-131851400D01*
X133383033Y-132092359D01*
X133414520Y-132288158D01*
X133438381Y-132429225D01*
X133453091Y-132505986D01*
X133456486Y-132517215D01*
X133476033Y-132497431D01*
X133493507Y-132439886D01*
X133504276Y-132376165D01*
X133524060Y-132245355D01*
X133551194Y-132059019D01*
X133584012Y-131828723D01*
X133620848Y-131566030D01*
X133655706Y-131314031D01*
X133881892Y-129735205D01*
X134116076Y-128233164D01*
X134358863Y-126805666D01*
X134610856Y-125450466D01*
X134872657Y-124165322D01*
X135144868Y-122947989D01*
X135428094Y-121796225D01*
X135722938Y-120707784D01*
X136030000Y-119680425D01*
X136349886Y-118711903D01*
X136683198Y-117799974D01*
X137030538Y-116942395D01*
X137392510Y-116136923D01*
X137769716Y-115381314D01*
X138097145Y-114786342D01*
X138194497Y-114613662D01*
X138275399Y-114463463D01*
X138332359Y-114350157D01*
X138357884Y-114288157D01*
X138358562Y-114283471D01*
X138344610Y-114230871D01*
X138305485Y-114115301D01*
X138245285Y-113947572D01*
X138168109Y-113738497D01*
X138078053Y-113498886D01*
X137979216Y-113239551D01*
X137875696Y-112971303D01*
X137771590Y-112704953D01*
X137670996Y-112451312D01*
X137578013Y-112221193D01*
X137563038Y-112184656D01*
X137422086Y-111857072D01*
X137253560Y-111490602D01*
X137066487Y-111103075D01*
X136869894Y-110712321D01*
X136672807Y-110336169D01*
X136484254Y-109992448D01*
X136313261Y-109698986D01*
X136264391Y-109619665D01*
X135942255Y-109131357D01*
X135600690Y-108661245D01*
X135250285Y-108222376D01*
X134901630Y-107827797D01*
X134565314Y-107490554D01*
X134455826Y-107391417D01*
X134292058Y-107251780D01*
X134115359Y-107108203D01*
X133937865Y-106969748D01*
X133771711Y-106845477D01*
X133629034Y-106744451D01*
X133521968Y-106675732D01*
X133462649Y-106648381D01*
X133460549Y-106648250D01*
X133393747Y-106673920D01*
X133393747Y-106673920D01*
G37*
X133393747Y-106673920D02*
X133279418Y-106745311D01*
X133128069Y-106853992D01*
X132950211Y-106991536D01*
X132756351Y-107149512D01*
X132556998Y-107319491D01*
X132362661Y-107493044D01*
X132183848Y-107661741D01*
X132127082Y-107717871D01*
X131804859Y-108057549D01*
X131497287Y-108417109D01*
X131201214Y-108802179D01*
X130913481Y-109218388D01*
X130630935Y-109671366D01*
X130350419Y-110166741D01*
X130068777Y-110710143D01*
X129782855Y-111307201D01*
X129489496Y-111963543D01*
X129185546Y-112684800D01*
X128867847Y-113476600D01*
X128796359Y-113659376D01*
X128546590Y-114300658D01*
X128750072Y-114661620D01*
X129069891Y-115254699D01*
X129394057Y-115904306D01*
X129712672Y-116588881D01*
X130015839Y-117286864D01*
X130293661Y-117976698D01*
X130395995Y-118246917D01*
X130612777Y-118847891D01*
X130820301Y-119459502D01*
X131019597Y-120086439D01*
X131211696Y-120733391D01*
X131397627Y-121405046D01*
X131578422Y-122106094D01*
X131755110Y-122841224D01*
X131928722Y-123615124D01*
X132100288Y-124432484D01*
X132270839Y-125297992D01*
X132441404Y-126216338D01*
X132613014Y-127192210D01*
X132786700Y-128230297D01*
X132963491Y-129335288D01*
X133144418Y-130511872D01*
X133258076Y-131272298D01*
X133303285Y-131574856D01*
X133345446Y-131851400D01*
X133383033Y-132092359D01*
X133414520Y-132288158D01*
X133438381Y-132429225D01*
X133453091Y-132505986D01*
X133456486Y-132517215D01*
X133476033Y-132497431D01*
X133493507Y-132439886D01*
X133504276Y-132376165D01*
X133524060Y-132245355D01*
X133551194Y-132059019D01*
X133584012Y-131828723D01*
X133620848Y-131566030D01*
X133655706Y-131314031D01*
X133881892Y-129735205D01*
X134116076Y-128233164D01*
X134358863Y-126805666D01*
X134610856Y-125450466D01*
X134872657Y-124165322D01*
X135144868Y-122947989D01*
X135428094Y-121796225D01*
X135722938Y-120707784D01*
X136030000Y-119680425D01*
X136349886Y-118711903D01*
X136683198Y-117799974D01*
X137030538Y-116942395D01*
X137392510Y-116136923D01*
X137769716Y-115381314D01*
X138097145Y-114786342D01*
X138194497Y-114613662D01*
X138275399Y-114463463D01*
X138332359Y-114350157D01*
X138357884Y-114288157D01*
X138358562Y-114283471D01*
X138344610Y-114230871D01*
X138305485Y-114115301D01*
X138245285Y-113947572D01*
X138168109Y-113738497D01*
X138078053Y-113498886D01*
X137979216Y-113239551D01*
X137875696Y-112971303D01*
X137771590Y-112704953D01*
X137670996Y-112451312D01*
X137578013Y-112221193D01*
X137563038Y-112184656D01*
X137422086Y-111857072D01*
X137253560Y-111490602D01*
X137066487Y-111103075D01*
X136869894Y-110712321D01*
X136672807Y-110336169D01*
X136484254Y-109992448D01*
X136313261Y-109698986D01*
X136264391Y-109619665D01*
X135942255Y-109131357D01*
X135600690Y-108661245D01*
X135250285Y-108222376D01*
X134901630Y-107827797D01*
X134565314Y-107490554D01*
X134455826Y-107391417D01*
X134292058Y-107251780D01*
X134115359Y-107108203D01*
X133937865Y-106969748D01*
X133771711Y-106845477D01*
X133629034Y-106744451D01*
X133521968Y-106675732D01*
X133462649Y-106648381D01*
X133460549Y-106648250D01*
X133393747Y-106673920D01*
G36*
X136506465Y-74814818D02*
X136495120Y-74905590D01*
X136493250Y-74970422D01*
X136457893Y-75269211D01*
X136355687Y-75537566D01*
X136192433Y-75765334D01*
X135973928Y-75942364D01*
X135920764Y-75972569D01*
X135818159Y-76031261D01*
X135752327Y-76077101D01*
X135739187Y-76093082D01*
X135768114Y-76125742D01*
X135847518Y-76198753D01*
X135966337Y-76302339D01*
X136113506Y-76426718D01*
X136165828Y-76470181D01*
X136703085Y-76934859D01*
X137188805Y-77396552D01*
X137618716Y-77850398D01*
X137988544Y-78291536D01*
X138294016Y-78715104D01*
X138530860Y-79116241D01*
X138582090Y-79219238D01*
X138710809Y-79535547D01*
X138804655Y-79863226D01*
X138861822Y-80186943D01*
X138880507Y-80491371D01*
X138858902Y-80761180D01*
X138795202Y-80981040D01*
X138790744Y-80990735D01*
X138639607Y-81222489D01*
X138414367Y-81436723D01*
X138118535Y-81632559D01*
X137755619Y-81809117D01*
X137329128Y-81965515D01*
X136842572Y-82100874D01*
X136299461Y-82214315D01*
X135703303Y-82304957D01*
X135057608Y-82371920D01*
X134365885Y-82414324D01*
X133631643Y-82431289D01*
X133063473Y-82426957D01*
X132296510Y-82397599D01*
X131583278Y-82341913D01*
X130926689Y-82260592D01*
X130329655Y-82154333D01*
X129795089Y-82023828D01*
X129325903Y-81869774D01*
X128925010Y-81692863D01*
X128595320Y-81493792D01*
X128374231Y-81308656D01*
X128202883Y-81095271D01*
X128092546Y-80852447D01*
X128042050Y-80573605D01*
X128050226Y-80252162D01*
X128115904Y-79881536D01*
X128118637Y-79870066D01*
X128228272Y-79508560D01*
X128385947Y-79144121D01*
X128594627Y-78773132D01*
X128857281Y-78391980D01*
X129176878Y-77997047D01*
X129556384Y-77584718D01*
X129998768Y-77151378D01*
X130506998Y-76693410D01*
X131084042Y-76207200D01*
X131208579Y-76105756D01*
X131186344Y-76082859D01*
X131114167Y-76039767D01*
X131089516Y-76026832D01*
X130829199Y-75856136D01*
X130635199Y-75643028D01*
X130505400Y-75384337D01*
X130437690Y-75076893D01*
X130434343Y-75044321D01*
X130426084Y-74939308D01*
X130416543Y-74865315D01*
X130394742Y-74821591D01*
X130349702Y-74807384D01*
X130270443Y-74821940D01*
X130145988Y-74864509D01*
X129965356Y-74934339D01*
X129795641Y-75000575D01*
X129132066Y-75287744D01*
X128460201Y-75635465D01*
X127802105Y-76030950D01*
X127179839Y-76461406D01*
X126888875Y-76685881D01*
X126440157Y-77070384D01*
X125971440Y-77518730D01*
X125491924Y-78020954D01*
X125010808Y-78567088D01*
X124537292Y-79147166D01*
X124161325Y-79640906D01*
X124019793Y-79832521D01*
X123887985Y-80010351D01*
X123775915Y-80160933D01*
X123693597Y-80270802D01*
X123658202Y-80317360D01*
X123619747Y-80362688D01*
X123575719Y-80398093D01*
X123513330Y-80427606D01*
X123419793Y-80455254D01*
X123282320Y-80485067D01*
X123088125Y-80521074D01*
X122915019Y-80551524D01*
X122694279Y-80591119D01*
X122498872Y-80628219D01*
X122343147Y-80659939D01*
X122241458Y-80683393D01*
X122210314Y-80693240D01*
X122212677Y-80723877D01*
X122289419Y-80779106D01*
X122439655Y-80858306D01*
X122459137Y-80867737D01*
X122865136Y-81098637D01*
X123280771Y-81403688D01*
X123702771Y-81778720D01*
X124127864Y-82219567D01*
X124552779Y-82722059D01*
X124974244Y-83282030D01*
X125388988Y-83895310D01*
X125793739Y-84557732D01*
X126185225Y-85265128D01*
X126560176Y-86013329D01*
X126653202Y-86211126D01*
X127219194Y-87523963D01*
X127715262Y-88871583D01*
X128139950Y-90248618D01*
X128491806Y-91649700D01*
X128769376Y-93069460D01*
X128971205Y-94502531D01*
X129017369Y-94940438D01*
X129041906Y-95253339D01*
X129061157Y-95622090D01*
X129075023Y-96029932D01*
X129083401Y-96460109D01*
X129086190Y-96895861D01*
X129083289Y-97320432D01*
X129074598Y-97717062D01*
X129060013Y-98068995D01*
X129039435Y-98359472D01*
X129038120Y-98373406D01*
X128907665Y-99410793D01*
X128720401Y-100395266D01*
X128476609Y-101326298D01*
X128176566Y-102203358D01*
X127820550Y-103025917D01*
X127408841Y-103793448D01*
X126941716Y-104505421D01*
X126419455Y-105161306D01*
X125842335Y-105760576D01*
X125210636Y-106302701D01*
X124651644Y-106704539D01*
X124491261Y-106807197D01*
X124305724Y-106920279D01*
X124108285Y-107036362D01*
X123912195Y-107148025D01*
X123730706Y-107247846D01*
X123577068Y-107328402D01*
X123464534Y-107382274D01*
X123406354Y-107402037D01*
X123406297Y-107402037D01*
X123360035Y-107409363D01*
X123356687Y-107413362D01*
X123383213Y-107443644D01*
X123457154Y-107521572D01*
X123570061Y-107638407D01*
X123713481Y-107785413D01*
X123878963Y-107953850D01*
X123903670Y-107978909D01*
X124355105Y-108462636D01*
X124821641Y-109012037D01*
X125295719Y-109616712D01*
X125769773Y-110266266D01*
X126236244Y-110950299D01*
X126687566Y-111658415D01*
X127116180Y-112380216D01*
X127156962Y-112451799D01*
X127255609Y-112622726D01*
X127341185Y-112765587D01*
X127405873Y-112867728D01*
X127441854Y-112916498D01*
X127445578Y-112918875D01*
X127467332Y-112884030D01*
X127514839Y-112786599D01*
X127583250Y-112637235D01*
X127667722Y-112446591D01*
X127763406Y-112225323D01*
X127798333Y-112143357D01*
X128005766Y-111668527D01*
X128229810Y-111180408D01*
X128462485Y-110695139D01*
X128695809Y-110228859D01*
X128921803Y-109797706D01*
X129132487Y-109417820D01*
X129220336Y-109267625D01*
X129618115Y-108631599D01*
X130018474Y-108056158D01*
X130435413Y-107523335D01*
X130882933Y-107015166D01*
X131340221Y-106547604D01*
X131683479Y-106220358D01*
X132000507Y-105937437D01*
X132313705Y-105680434D01*
X132645473Y-105430941D01*
X133005328Y-105179305D01*
X133466312Y-104865894D01*
X133898296Y-105158998D01*
X134694532Y-105746415D01*
X135437367Y-106392207D01*
X135700291Y-106647459D01*
X136178532Y-107154117D01*
X136633024Y-107695430D01*
X137067674Y-108277650D01*
X137486386Y-108907031D01*
X137893065Y-109589828D01*
X138291615Y-110332295D01*
X138685942Y-111140685D01*
X139079951Y-112021253D01*
X139132891Y-112144969D01*
X139228447Y-112367337D01*
X139315039Y-112564966D01*
X139387365Y-112726062D01*
X139440119Y-112838831D01*
X139467998Y-112891478D01*
X139469287Y-112893059D01*
X139504198Y-112880461D01*
X139561048Y-112812933D01*
X139610443Y-112734309D01*
X139980008Y-112099960D01*
X140365533Y-111473346D01*
X140761568Y-110861923D01*
X141162661Y-110273146D01*
X141563360Y-109714467D01*
X141958213Y-109193343D01*
X142341769Y-108717227D01*
X142708576Y-108293574D01*
X143053182Y-107929837D01*
X143287172Y-107706810D01*
X143407459Y-107594931D01*
X143499101Y-107503557D01*
X143550347Y-107444771D01*
X143556538Y-107429848D01*
X143515693Y-107406219D01*
X143418942Y-107354586D01*
X143281194Y-107282803D01*
X143133445Y-107206930D01*
X142455508Y-106818139D01*
X141804916Y-106359880D01*
X141189701Y-105839674D01*
X140617898Y-105265043D01*
X140097541Y-104643509D01*
X139636662Y-103982593D01*
X139563279Y-103864357D01*
X139175178Y-103165223D01*
X138836567Y-102421108D01*
X138545976Y-101627524D01*
X138301936Y-100779983D01*
X138102977Y-99873998D01*
X137953536Y-98948875D01*
X137929929Y-98768048D01*
X137910848Y-98600643D01*
X137895824Y-98435260D01*
X137884390Y-98260502D01*
X137876077Y-98064970D01*
X137870416Y-97837264D01*
X137866940Y-97565986D01*
X137865180Y-97239738D01*
X137864668Y-96847120D01*
X137864669Y-96785906D01*
X137865908Y-96313171D01*
X137870191Y-95904804D01*
X137878577Y-95545822D01*
X137892124Y-95221242D01*
X137911892Y-94916082D01*
X137938940Y-94615360D01*
X137974327Y-94304093D01*
X138019111Y-93967299D01*
X138074352Y-93589994D01*
X138104503Y-93392625D01*
X138264987Y-92467749D01*
X138459531Y-91546754D01*
X138685905Y-90634028D01*
X138941879Y-89733955D01*
X139225225Y-88850924D01*
X139533711Y-87989319D01*
X139865110Y-87153528D01*
X140217191Y-86347938D01*
X140587725Y-85576933D01*
X140974482Y-84844901D01*
X141375234Y-84156228D01*
X141787750Y-83515301D01*
X142209802Y-82926505D01*
X142639158Y-82394228D01*
X143073591Y-81922855D01*
X143510871Y-81516774D01*
X143948768Y-81180369D01*
X144385053Y-80918029D01*
X144465338Y-80877999D01*
X144621484Y-80799682D01*
X144711572Y-80745967D01*
X144743031Y-80711461D01*
X144723307Y-80690776D01*
X144660445Y-80675022D01*
X144534237Y-80648777D01*
X144359573Y-80614949D01*
X144151342Y-80576450D01*
X143999764Y-80549368D01*
X143350497Y-80434972D01*
X143109492Y-80097471D01*
X142610852Y-79424373D01*
X142101977Y-78785972D01*
X141589882Y-78190062D01*
X141081580Y-77644435D01*
X140584086Y-77156887D01*
X140104414Y-76735209D01*
X140025300Y-76670758D01*
X139446790Y-76240486D01*
X138813233Y-75832896D01*
X138148373Y-75461567D01*
X137475956Y-75140075D01*
X137030697Y-74958435D01*
X136849353Y-74890825D01*
X136694859Y-74834882D01*
X136582328Y-74795961D01*
X136526875Y-74779416D01*
X136524681Y-74779188D01*
X136506465Y-74814818D01*
X136506465Y-74814818D01*
G37*
X136506465Y-74814818D02*
X136495120Y-74905590D01*
X136493250Y-74970422D01*
X136457893Y-75269211D01*
X136355687Y-75537566D01*
X136192433Y-75765334D01*
X135973928Y-75942364D01*
X135920764Y-75972569D01*
X135818159Y-76031261D01*
X135752327Y-76077101D01*
X135739187Y-76093082D01*
X135768114Y-76125742D01*
X135847518Y-76198753D01*
X135966337Y-76302339D01*
X136113506Y-76426718D01*
X136165828Y-76470181D01*
X136703085Y-76934859D01*
X137188805Y-77396552D01*
X137618716Y-77850398D01*
X137988544Y-78291536D01*
X138294016Y-78715104D01*
X138530860Y-79116241D01*
X138582090Y-79219238D01*
X138710809Y-79535547D01*
X138804655Y-79863226D01*
X138861822Y-80186943D01*
X138880507Y-80491371D01*
X138858902Y-80761180D01*
X138795202Y-80981040D01*
X138790744Y-80990735D01*
X138639607Y-81222489D01*
X138414367Y-81436723D01*
X138118535Y-81632559D01*
X137755619Y-81809117D01*
X137329128Y-81965515D01*
X136842572Y-82100874D01*
X136299461Y-82214315D01*
X135703303Y-82304957D01*
X135057608Y-82371920D01*
X134365885Y-82414324D01*
X133631643Y-82431289D01*
X133063473Y-82426957D01*
X132296510Y-82397599D01*
X131583278Y-82341913D01*
X130926689Y-82260592D01*
X130329655Y-82154333D01*
X129795089Y-82023828D01*
X129325903Y-81869774D01*
X128925010Y-81692863D01*
X128595320Y-81493792D01*
X128374231Y-81308656D01*
X128202883Y-81095271D01*
X128092546Y-80852447D01*
X128042050Y-80573605D01*
X128050226Y-80252162D01*
X128115904Y-79881536D01*
X128118637Y-79870066D01*
X128228272Y-79508560D01*
X128385947Y-79144121D01*
X128594627Y-78773132D01*
X128857281Y-78391980D01*
X129176878Y-77997047D01*
X129556384Y-77584718D01*
X129998768Y-77151378D01*
X130506998Y-76693410D01*
X131084042Y-76207200D01*
X131208579Y-76105756D01*
X131186344Y-76082859D01*
X131114167Y-76039767D01*
X131089516Y-76026832D01*
X130829199Y-75856136D01*
X130635199Y-75643028D01*
X130505400Y-75384337D01*
X130437690Y-75076893D01*
X130434343Y-75044321D01*
X130426084Y-74939308D01*
X130416543Y-74865315D01*
X130394742Y-74821591D01*
X130349702Y-74807384D01*
X130270443Y-74821940D01*
X130145988Y-74864509D01*
X129965356Y-74934339D01*
X129795641Y-75000575D01*
X129132066Y-75287744D01*
X128460201Y-75635465D01*
X127802105Y-76030950D01*
X127179839Y-76461406D01*
X126888875Y-76685881D01*
X126440157Y-77070384D01*
X125971440Y-77518730D01*
X125491924Y-78020954D01*
X125010808Y-78567088D01*
X124537292Y-79147166D01*
X124161325Y-79640906D01*
X124019793Y-79832521D01*
X123887985Y-80010351D01*
X123775915Y-80160933D01*
X123693597Y-80270802D01*
X123658202Y-80317360D01*
X123619747Y-80362688D01*
X123575719Y-80398093D01*
X123513330Y-80427606D01*
X123419793Y-80455254D01*
X123282320Y-80485067D01*
X123088125Y-80521074D01*
X122915019Y-80551524D01*
X122694279Y-80591119D01*
X122498872Y-80628219D01*
X122343147Y-80659939D01*
X122241458Y-80683393D01*
X122210314Y-80693240D01*
X122212677Y-80723877D01*
X122289419Y-80779106D01*
X122439655Y-80858306D01*
X122459137Y-80867737D01*
X122865136Y-81098637D01*
X123280771Y-81403688D01*
X123702771Y-81778720D01*
X124127864Y-82219567D01*
X124552779Y-82722059D01*
X124974244Y-83282030D01*
X125388988Y-83895310D01*
X125793739Y-84557732D01*
X126185225Y-85265128D01*
X126560176Y-86013329D01*
X126653202Y-86211126D01*
X127219194Y-87523963D01*
X127715262Y-88871583D01*
X128139950Y-90248618D01*
X128491806Y-91649700D01*
X128769376Y-93069460D01*
X128971205Y-94502531D01*
X129017369Y-94940438D01*
X129041906Y-95253339D01*
X129061157Y-95622090D01*
X129075023Y-96029932D01*
X129083401Y-96460109D01*
X129086190Y-96895861D01*
X129083289Y-97320432D01*
X129074598Y-97717062D01*
X129060013Y-98068995D01*
X129039435Y-98359472D01*
X129038120Y-98373406D01*
X128907665Y-99410793D01*
X128720401Y-100395266D01*
X128476609Y-101326298D01*
X128176566Y-102203358D01*
X127820550Y-103025917D01*
X127408841Y-103793448D01*
X126941716Y-104505421D01*
X126419455Y-105161306D01*
X125842335Y-105760576D01*
X125210636Y-106302701D01*
X124651644Y-106704539D01*
X124491261Y-106807197D01*
X124305724Y-106920279D01*
X124108285Y-107036362D01*
X123912195Y-107148025D01*
X123730706Y-107247846D01*
X123577068Y-107328402D01*
X123464534Y-107382274D01*
X123406354Y-107402037D01*
X123406297Y-107402037D01*
X123360035Y-107409363D01*
X123356687Y-107413362D01*
X123383213Y-107443644D01*
X123457154Y-107521572D01*
X123570061Y-107638407D01*
X123713481Y-107785413D01*
X123878963Y-107953850D01*
X123903670Y-107978909D01*
X124355105Y-108462636D01*
X124821641Y-109012037D01*
X125295719Y-109616712D01*
X125769773Y-110266266D01*
X126236244Y-110950299D01*
X126687566Y-111658415D01*
X127116180Y-112380216D01*
X127156962Y-112451799D01*
X127255609Y-112622726D01*
X127341185Y-112765587D01*
X127405873Y-112867728D01*
X127441854Y-112916498D01*
X127445578Y-112918875D01*
X127467332Y-112884030D01*
X127514839Y-112786599D01*
X127583250Y-112637235D01*
X127667722Y-112446591D01*
X127763406Y-112225323D01*
X127798333Y-112143357D01*
X128005766Y-111668527D01*
X128229810Y-111180408D01*
X128462485Y-110695139D01*
X128695809Y-110228859D01*
X128921803Y-109797706D01*
X129132487Y-109417820D01*
X129220336Y-109267625D01*
X129618115Y-108631599D01*
X130018474Y-108056158D01*
X130435413Y-107523335D01*
X130882933Y-107015166D01*
X131340221Y-106547604D01*
X131683479Y-106220358D01*
X132000507Y-105937437D01*
X132313705Y-105680434D01*
X132645473Y-105430941D01*
X133005328Y-105179305D01*
X133466312Y-104865894D01*
X133898296Y-105158998D01*
X134694532Y-105746415D01*
X135437367Y-106392207D01*
X135700291Y-106647459D01*
X136178532Y-107154117D01*
X136633024Y-107695430D01*
X137067674Y-108277650D01*
X137486386Y-108907031D01*
X137893065Y-109589828D01*
X138291615Y-110332295D01*
X138685942Y-111140685D01*
X139079951Y-112021253D01*
X139132891Y-112144969D01*
X139228447Y-112367337D01*
X139315039Y-112564966D01*
X139387365Y-112726062D01*
X139440119Y-112838831D01*
X139467998Y-112891478D01*
X139469287Y-112893059D01*
X139504198Y-112880461D01*
X139561048Y-112812933D01*
X139610443Y-112734309D01*
X139980008Y-112099960D01*
X140365533Y-111473346D01*
X140761568Y-110861923D01*
X141162661Y-110273146D01*
X141563360Y-109714467D01*
X141958213Y-109193343D01*
X142341769Y-108717227D01*
X142708576Y-108293574D01*
X143053182Y-107929837D01*
X143287172Y-107706810D01*
X143407459Y-107594931D01*
X143499101Y-107503557D01*
X143550347Y-107444771D01*
X143556538Y-107429848D01*
X143515693Y-107406219D01*
X143418942Y-107354586D01*
X143281194Y-107282803D01*
X143133445Y-107206930D01*
X142455508Y-106818139D01*
X141804916Y-106359880D01*
X141189701Y-105839674D01*
X140617898Y-105265043D01*
X140097541Y-104643509D01*
X139636662Y-103982593D01*
X139563279Y-103864357D01*
X139175178Y-103165223D01*
X138836567Y-102421108D01*
X138545976Y-101627524D01*
X138301936Y-100779983D01*
X138102977Y-99873998D01*
X137953536Y-98948875D01*
X137929929Y-98768048D01*
X137910848Y-98600643D01*
X137895824Y-98435260D01*
X137884390Y-98260502D01*
X137876077Y-98064970D01*
X137870416Y-97837264D01*
X137866940Y-97565986D01*
X137865180Y-97239738D01*
X137864668Y-96847120D01*
X137864669Y-96785906D01*
X137865908Y-96313171D01*
X137870191Y-95904804D01*
X137878577Y-95545822D01*
X137892124Y-95221242D01*
X137911892Y-94916082D01*
X137938940Y-94615360D01*
X137974327Y-94304093D01*
X138019111Y-93967299D01*
X138074352Y-93589994D01*
X138104503Y-93392625D01*
X138264987Y-92467749D01*
X138459531Y-91546754D01*
X138685905Y-90634028D01*
X138941879Y-89733955D01*
X139225225Y-88850924D01*
X139533711Y-87989319D01*
X139865110Y-87153528D01*
X140217191Y-86347938D01*
X140587725Y-85576933D01*
X140974482Y-84844901D01*
X141375234Y-84156228D01*
X141787750Y-83515301D01*
X142209802Y-82926505D01*
X142639158Y-82394228D01*
X143073591Y-81922855D01*
X143510871Y-81516774D01*
X143948768Y-81180369D01*
X144385053Y-80918029D01*
X144465338Y-80877999D01*
X144621484Y-80799682D01*
X144711572Y-80745967D01*
X144743031Y-80711461D01*
X144723307Y-80690776D01*
X144660445Y-80675022D01*
X144534237Y-80648777D01*
X144359573Y-80614949D01*
X144151342Y-80576450D01*
X143999764Y-80549368D01*
X143350497Y-80434972D01*
X143109492Y-80097471D01*
X142610852Y-79424373D01*
X142101977Y-78785972D01*
X141589882Y-78190062D01*
X141081580Y-77644435D01*
X140584086Y-77156887D01*
X140104414Y-76735209D01*
X140025300Y-76670758D01*
X139446790Y-76240486D01*
X138813233Y-75832896D01*
X138148373Y-75461567D01*
X137475956Y-75140075D01*
X137030697Y-74958435D01*
X136849353Y-74890825D01*
X136694859Y-74834882D01*
X136582328Y-74795961D01*
X136526875Y-74779416D01*
X136524681Y-74779188D01*
X136506465Y-74814818D01*
G36*
X145509370Y-89334795D02*
X144768488Y-89422645D01*
X144544651Y-89464614D01*
X143831952Y-89649577D01*
X143148273Y-89905952D01*
X142498269Y-90229607D01*
X141886599Y-90616412D01*
X141317919Y-91062234D01*
X140796886Y-91562942D01*
X140328155Y-92114405D01*
X139916385Y-92712491D01*
X139566232Y-93353068D01*
X139282353Y-94032006D01*
X139231918Y-94178096D01*
X139030598Y-94903707D01*
X138906110Y-95633449D01*
X138856738Y-96362278D01*
X138880763Y-97085150D01*
X138976471Y-97797021D01*
X139142143Y-98492847D01*
X139376064Y-99167583D01*
X139676517Y-99816187D01*
X140041785Y-100433612D01*
X140470151Y-101014817D01*
X140959899Y-101554755D01*
X141509313Y-102048384D01*
X142044759Y-102443123D01*
X142276107Y-102585937D01*
X142558783Y-102741839D01*
X142869366Y-102899402D01*
X143184436Y-103047200D01*
X143480571Y-103173806D01*
X143734353Y-103267791D01*
X143736219Y-103268404D01*
X144386413Y-103446046D01*
X145064357Y-103564843D01*
X145749888Y-103622675D01*
X146422847Y-103617419D01*
X146772312Y-103587786D01*
X147485772Y-103469401D01*
X148187895Y-103280192D01*
X148865206Y-103024797D01*
X149504226Y-102707852D01*
X149747323Y-102564117D01*
X150196493Y-102260380D01*
X150618506Y-101921168D01*
X151035478Y-101528339D01*
X151137937Y-101423360D01*
X151153708Y-101405236D01*
X149340630Y-101405236D01*
X149118112Y-101541637D01*
X148522091Y-101863073D01*
X147899386Y-102115133D01*
X147257904Y-102296117D01*
X146605554Y-102404324D01*
X145950242Y-102438055D01*
X145299877Y-102395611D01*
X145204656Y-102382773D01*
X144590808Y-102266501D01*
X144019269Y-102097600D01*
X143470647Y-101868842D01*
X142925546Y-101572999D01*
X142765377Y-101473637D01*
X142508910Y-101310281D01*
X143043189Y-101284827D01*
X143436486Y-101252502D01*
X143765739Y-101193368D01*
X144043111Y-101102823D01*
X144280765Y-100976263D01*
X144490862Y-100809084D01*
X144602122Y-100694774D01*
X144721879Y-100550639D01*
X144831367Y-100393002D01*
X144934136Y-100213330D01*
X145033739Y-100003091D01*
X145133729Y-99753755D01*
X145237658Y-99456788D01*
X145349077Y-99103660D01*
X145471540Y-98685837D01*
X145540632Y-98440643D01*
X145615406Y-98171754D01*
X145682620Y-97928708D01*
X145739467Y-97721759D01*
X145783144Y-97561157D01*
X145810845Y-97457157D01*
X145819812Y-97420192D01*
X145855257Y-97408645D01*
X145944664Y-97401837D01*
X145993490Y-97401063D01*
X146167168Y-97401063D01*
X146317346Y-97686852D01*
X146442163Y-97907478D01*
X146607046Y-98173615D01*
X146801383Y-98469684D01*
X147014567Y-98780103D01*
X147235986Y-99089292D01*
X147455032Y-99381668D01*
X147581231Y-99542950D01*
X147730902Y-99722713D01*
X147922456Y-99940874D01*
X148140637Y-100180740D01*
X148370188Y-100425613D01*
X148595852Y-100658797D01*
X148659296Y-100722758D01*
X149340630Y-101405236D01*
X151153708Y-101405236D01*
X151637478Y-100849299D01*
X152065750Y-100240589D01*
X152422158Y-99598719D01*
X152706104Y-98925179D01*
X152916991Y-98221460D01*
X153054222Y-97489050D01*
X153117200Y-96729441D01*
X153121585Y-96473500D01*
X153120929Y-96460045D01*
X151924642Y-96460045D01*
X151922751Y-96696377D01*
X151915315Y-96926158D01*
X151903220Y-97138616D01*
X151887351Y-97322976D01*
X151868591Y-97468463D01*
X151847825Y-97564303D01*
X151825938Y-97599720D01*
X151809122Y-97579656D01*
X151780879Y-97508534D01*
X151731897Y-97385094D01*
X151670692Y-97230802D01*
X151640507Y-97154695D01*
X151508625Y-96864801D01*
X151350939Y-96586793D01*
X151243838Y-96432311D01*
X146414099Y-96432311D01*
X146402755Y-96595114D01*
X146336310Y-96733437D01*
X146226534Y-96836424D01*
X146085197Y-96893221D01*
X145924070Y-96892974D01*
X145754922Y-96824828D01*
X145747044Y-96819819D01*
X145668995Y-96742394D01*
X145601749Y-96633170D01*
X145596262Y-96620666D01*
X145565161Y-96456570D01*
X145599528Y-96299906D01*
X145687935Y-96168438D01*
X145818958Y-96079932D01*
X145962204Y-96051688D01*
X146148959Y-96081738D01*
X146291978Y-96167382D01*
X146358570Y-96255881D01*
X146414099Y-96432311D01*
X151243838Y-96432311D01*
X151180413Y-96340829D01*
X151010011Y-96147066D01*
X150966964Y-96107410D01*
X150775461Y-95960365D01*
X150568829Y-95843563D01*
X150339829Y-95756395D01*
X150081221Y-95698252D01*
X149785769Y-95668525D01*
X149446234Y-95666605D01*
X149055377Y-95691884D01*
X148605959Y-95743751D01*
X148090743Y-95821599D01*
X147917058Y-95850822D01*
X147649944Y-95896134D01*
X147405784Y-95936521D01*
X147196479Y-95970098D01*
X147033931Y-95994977D01*
X146930042Y-96009274D01*
X146899815Y-96012000D01*
X146828692Y-95982198D01*
X146744118Y-95907458D01*
X146715531Y-95873172D01*
X146699887Y-95852661D01*
X145261364Y-95852661D01*
X145085594Y-96194597D01*
X144490281Y-96241009D01*
X143861360Y-96309367D01*
X143196450Y-96416890D01*
X142516887Y-96558477D01*
X141844008Y-96729028D01*
X141199149Y-96923442D01*
X140603647Y-97136618D01*
X140402469Y-97218229D01*
X140259347Y-97277760D01*
X140173182Y-97307956D01*
X140127479Y-97309569D01*
X140105745Y-97283353D01*
X140092044Y-97232391D01*
X140064533Y-97061753D01*
X140046884Y-96834248D01*
X140039564Y-96571824D01*
X140043043Y-96296430D01*
X140057788Y-96030017D01*
X140064741Y-95952469D01*
X140171806Y-95263100D01*
X140351779Y-94601394D01*
X140601725Y-93971701D01*
X140918709Y-93378371D01*
X141299797Y-92825756D01*
X141742052Y-92318206D01*
X142242541Y-91860073D01*
X142798329Y-91455705D01*
X143292367Y-91167775D01*
X143450138Y-91087393D01*
X143580539Y-91025204D01*
X143668716Y-90988016D01*
X143699453Y-90981224D01*
X143687335Y-91019950D01*
X143639772Y-91107734D01*
X143565985Y-91228018D01*
X143537689Y-91271661D01*
X143328312Y-91640644D01*
X143195446Y-91997789D01*
X143138543Y-92350299D01*
X143157055Y-92705377D01*
X143250436Y-93070227D01*
X143378091Y-93372781D01*
X143459203Y-93528596D01*
X143554406Y-93690502D01*
X143669387Y-93866270D01*
X143809831Y-94063672D01*
X143981423Y-94290478D01*
X144189850Y-94554458D01*
X144440798Y-94863384D01*
X144685162Y-95159147D01*
X145261364Y-95852661D01*
X146699887Y-95852661D01*
X146609642Y-95734343D01*
X146724546Y-95565594D01*
X146936704Y-95225561D01*
X147156305Y-94821601D01*
X147377586Y-94368056D01*
X147594782Y-93879266D01*
X147802131Y-93369574D01*
X147993868Y-92853320D01*
X148164228Y-92344846D01*
X148307449Y-91858493D01*
X148417766Y-91408603D01*
X148441469Y-91293685D01*
X148489488Y-91049612D01*
X148752072Y-91193136D01*
X149164346Y-91437231D01*
X149537822Y-91701198D01*
X149898243Y-92004463D01*
X150167363Y-92261293D01*
X150615757Y-92751651D01*
X150991731Y-93259277D01*
X151301961Y-93794807D01*
X151553125Y-94368878D01*
X151633814Y-94597368D01*
X151735410Y-94922080D01*
X151809696Y-95210519D01*
X151861427Y-95489771D01*
X151895360Y-95786922D01*
X151916250Y-96129058D01*
X151920104Y-96227940D01*
X151924642Y-96460045D01*
X153120929Y-96460045D01*
X153084370Y-95710348D01*
X152971679Y-94969734D01*
X152784808Y-94254674D01*
X152525049Y-93568185D01*
X152193697Y-92913282D01*
X151792044Y-92292982D01*
X151321384Y-91710302D01*
X150888262Y-91265907D01*
X150320869Y-90783116D01*
X149712412Y-90366153D01*
X149068428Y-90016590D01*
X148394452Y-89735999D01*
X147696022Y-89525952D01*
X146978674Y-89388020D01*
X146247944Y-89323778D01*
X145509370Y-89334795D01*
X145509370Y-89334795D01*
G37*
X145509370Y-89334795D02*
X144768488Y-89422645D01*
X144544651Y-89464614D01*
X143831952Y-89649577D01*
X143148273Y-89905952D01*
X142498269Y-90229607D01*
X141886599Y-90616412D01*
X141317919Y-91062234D01*
X140796886Y-91562942D01*
X140328155Y-92114405D01*
X139916385Y-92712491D01*
X139566232Y-93353068D01*
X139282353Y-94032006D01*
X139231918Y-94178096D01*
X139030598Y-94903707D01*
X138906110Y-95633449D01*
X138856738Y-96362278D01*
X138880763Y-97085150D01*
X138976471Y-97797021D01*
X139142143Y-98492847D01*
X139376064Y-99167583D01*
X139676517Y-99816187D01*
X140041785Y-100433612D01*
X140470151Y-101014817D01*
X140959899Y-101554755D01*
X141509313Y-102048384D01*
X142044759Y-102443123D01*
X142276107Y-102585937D01*
X142558783Y-102741839D01*
X142869366Y-102899402D01*
X143184436Y-103047200D01*
X143480571Y-103173806D01*
X143734353Y-103267791D01*
X143736219Y-103268404D01*
X144386413Y-103446046D01*
X145064357Y-103564843D01*
X145749888Y-103622675D01*
X146422847Y-103617419D01*
X146772312Y-103587786D01*
X147485772Y-103469401D01*
X148187895Y-103280192D01*
X148865206Y-103024797D01*
X149504226Y-102707852D01*
X149747323Y-102564117D01*
X150196493Y-102260380D01*
X150618506Y-101921168D01*
X151035478Y-101528339D01*
X151137937Y-101423360D01*
X151153708Y-101405236D01*
X149340630Y-101405236D01*
X149118112Y-101541637D01*
X148522091Y-101863073D01*
X147899386Y-102115133D01*
X147257904Y-102296117D01*
X146605554Y-102404324D01*
X145950242Y-102438055D01*
X145299877Y-102395611D01*
X145204656Y-102382773D01*
X144590808Y-102266501D01*
X144019269Y-102097600D01*
X143470647Y-101868842D01*
X142925546Y-101572999D01*
X142765377Y-101473637D01*
X142508910Y-101310281D01*
X143043189Y-101284827D01*
X143436486Y-101252502D01*
X143765739Y-101193368D01*
X144043111Y-101102823D01*
X144280765Y-100976263D01*
X144490862Y-100809084D01*
X144602122Y-100694774D01*
X144721879Y-100550639D01*
X144831367Y-100393002D01*
X144934136Y-100213330D01*
X145033739Y-100003091D01*
X145133729Y-99753755D01*
X145237658Y-99456788D01*
X145349077Y-99103660D01*
X145471540Y-98685837D01*
X145540632Y-98440643D01*
X145615406Y-98171754D01*
X145682620Y-97928708D01*
X145739467Y-97721759D01*
X145783144Y-97561157D01*
X145810845Y-97457157D01*
X145819812Y-97420192D01*
X145855257Y-97408645D01*
X145944664Y-97401837D01*
X145993490Y-97401063D01*
X146167168Y-97401063D01*
X146317346Y-97686852D01*
X146442163Y-97907478D01*
X146607046Y-98173615D01*
X146801383Y-98469684D01*
X147014567Y-98780103D01*
X147235986Y-99089292D01*
X147455032Y-99381668D01*
X147581231Y-99542950D01*
X147730902Y-99722713D01*
X147922456Y-99940874D01*
X148140637Y-100180740D01*
X148370188Y-100425613D01*
X148595852Y-100658797D01*
X148659296Y-100722758D01*
X149340630Y-101405236D01*
X151153708Y-101405236D01*
X151637478Y-100849299D01*
X152065750Y-100240589D01*
X152422158Y-99598719D01*
X152706104Y-98925179D01*
X152916991Y-98221460D01*
X153054222Y-97489050D01*
X153117200Y-96729441D01*
X153121585Y-96473500D01*
X153120929Y-96460045D01*
X151924642Y-96460045D01*
X151922751Y-96696377D01*
X151915315Y-96926158D01*
X151903220Y-97138616D01*
X151887351Y-97322976D01*
X151868591Y-97468463D01*
X151847825Y-97564303D01*
X151825938Y-97599720D01*
X151809122Y-97579656D01*
X151780879Y-97508534D01*
X151731897Y-97385094D01*
X151670692Y-97230802D01*
X151640507Y-97154695D01*
X151508625Y-96864801D01*
X151350939Y-96586793D01*
X151243838Y-96432311D01*
X146414099Y-96432311D01*
X146402755Y-96595114D01*
X146336310Y-96733437D01*
X146226534Y-96836424D01*
X146085197Y-96893221D01*
X145924070Y-96892974D01*
X145754922Y-96824828D01*
X145747044Y-96819819D01*
X145668995Y-96742394D01*
X145601749Y-96633170D01*
X145596262Y-96620666D01*
X145565161Y-96456570D01*
X145599528Y-96299906D01*
X145687935Y-96168438D01*
X145818958Y-96079932D01*
X145962204Y-96051688D01*
X146148959Y-96081738D01*
X146291978Y-96167382D01*
X146358570Y-96255881D01*
X146414099Y-96432311D01*
X151243838Y-96432311D01*
X151180413Y-96340829D01*
X151010011Y-96147066D01*
X150966964Y-96107410D01*
X150775461Y-95960365D01*
X150568829Y-95843563D01*
X150339829Y-95756395D01*
X150081221Y-95698252D01*
X149785769Y-95668525D01*
X149446234Y-95666605D01*
X149055377Y-95691884D01*
X148605959Y-95743751D01*
X148090743Y-95821599D01*
X147917058Y-95850822D01*
X147649944Y-95896134D01*
X147405784Y-95936521D01*
X147196479Y-95970098D01*
X147033931Y-95994977D01*
X146930042Y-96009274D01*
X146899815Y-96012000D01*
X146828692Y-95982198D01*
X146744118Y-95907458D01*
X146715531Y-95873172D01*
X146699887Y-95852661D01*
X145261364Y-95852661D01*
X145085594Y-96194597D01*
X144490281Y-96241009D01*
X143861360Y-96309367D01*
X143196450Y-96416890D01*
X142516887Y-96558477D01*
X141844008Y-96729028D01*
X141199149Y-96923442D01*
X140603647Y-97136618D01*
X140402469Y-97218229D01*
X140259347Y-97277760D01*
X140173182Y-97307956D01*
X140127479Y-97309569D01*
X140105745Y-97283353D01*
X140092044Y-97232391D01*
X140064533Y-97061753D01*
X140046884Y-96834248D01*
X140039564Y-96571824D01*
X140043043Y-96296430D01*
X140057788Y-96030017D01*
X140064741Y-95952469D01*
X140171806Y-95263100D01*
X140351779Y-94601394D01*
X140601725Y-93971701D01*
X140918709Y-93378371D01*
X141299797Y-92825756D01*
X141742052Y-92318206D01*
X142242541Y-91860073D01*
X142798329Y-91455705D01*
X143292367Y-91167775D01*
X143450138Y-91087393D01*
X143580539Y-91025204D01*
X143668716Y-90988016D01*
X143699453Y-90981224D01*
X143687335Y-91019950D01*
X143639772Y-91107734D01*
X143565985Y-91228018D01*
X143537689Y-91271661D01*
X143328312Y-91640644D01*
X143195446Y-91997789D01*
X143138543Y-92350299D01*
X143157055Y-92705377D01*
X143250436Y-93070227D01*
X143378091Y-93372781D01*
X143459203Y-93528596D01*
X143554406Y-93690502D01*
X143669387Y-93866270D01*
X143809831Y-94063672D01*
X143981423Y-94290478D01*
X144189850Y-94554458D01*
X144440798Y-94863384D01*
X144685162Y-95159147D01*
X145261364Y-95852661D01*
X146699887Y-95852661D01*
X146609642Y-95734343D01*
X146724546Y-95565594D01*
X146936704Y-95225561D01*
X147156305Y-94821601D01*
X147377586Y-94368056D01*
X147594782Y-93879266D01*
X147802131Y-93369574D01*
X147993868Y-92853320D01*
X148164228Y-92344846D01*
X148307449Y-91858493D01*
X148417766Y-91408603D01*
X148441469Y-91293685D01*
X148489488Y-91049612D01*
X148752072Y-91193136D01*
X149164346Y-91437231D01*
X149537822Y-91701198D01*
X149898243Y-92004463D01*
X150167363Y-92261293D01*
X150615757Y-92751651D01*
X150991731Y-93259277D01*
X151301961Y-93794807D01*
X151553125Y-94368878D01*
X151633814Y-94597368D01*
X151735410Y-94922080D01*
X151809696Y-95210519D01*
X151861427Y-95489771D01*
X151895360Y-95786922D01*
X151916250Y-96129058D01*
X151920104Y-96227940D01*
X151924642Y-96460045D01*
X153120929Y-96460045D01*
X153084370Y-95710348D01*
X152971679Y-94969734D01*
X152784808Y-94254674D01*
X152525049Y-93568185D01*
X152193697Y-92913282D01*
X151792044Y-92292982D01*
X151321384Y-91710302D01*
X150888262Y-91265907D01*
X150320869Y-90783116D01*
X149712412Y-90366153D01*
X149068428Y-90016590D01*
X148394452Y-89735999D01*
X147696022Y-89525952D01*
X146978674Y-89388020D01*
X146247944Y-89323778D01*
X145509370Y-89334795D01*
G36*
X119898305Y-89396181D02*
X119180198Y-89538204D01*
X118673562Y-89686051D01*
X117986684Y-89955827D01*
X117334368Y-90294808D01*
X116721658Y-90698517D01*
X116153594Y-91162479D01*
X115635220Y-91682217D01*
X115171577Y-92253255D01*
X114767707Y-92871116D01*
X114488532Y-93401397D01*
X114205369Y-94091279D01*
X113996213Y-94804026D01*
X113861493Y-95532840D01*
X113801641Y-96270923D01*
X113817087Y-97011477D01*
X113908262Y-97747704D01*
X114075597Y-98472805D01*
X114151560Y-98720633D01*
X114246285Y-98976678D01*
X114374570Y-99275148D01*
X114525994Y-99595407D01*
X114690139Y-99916819D01*
X114856584Y-100218750D01*
X115014912Y-100480563D01*
X115114529Y-100627800D01*
X115585392Y-101214914D01*
X116106749Y-101743877D01*
X116673524Y-102212428D01*
X117280640Y-102618302D01*
X117923019Y-102959236D01*
X118595586Y-103232967D01*
X119293263Y-103437232D01*
X120010974Y-103569766D01*
X120743642Y-103628307D01*
X121486190Y-103610592D01*
X121749344Y-103585746D01*
X122476230Y-103464829D01*
X123178213Y-103271440D01*
X123850894Y-103009522D01*
X124489877Y-102683019D01*
X125090765Y-102295877D01*
X125649161Y-101852038D01*
X126160670Y-101355447D01*
X126227124Y-101276694D01*
X124467757Y-101276694D01*
X124436032Y-101303823D01*
X124350315Y-101361174D01*
X124225590Y-101439693D01*
X124076841Y-101530325D01*
X123919052Y-101624017D01*
X123767208Y-101711712D01*
X123636293Y-101784359D01*
X123571945Y-101818002D01*
X123159620Y-102000394D01*
X122697198Y-102161975D01*
X122213013Y-102294153D01*
X121735399Y-102388334D01*
X121650125Y-102400892D01*
X121454829Y-102417962D01*
X121202920Y-102425345D01*
X120916473Y-102423770D01*
X120617563Y-102413965D01*
X120328266Y-102396658D01*
X120070657Y-102372580D01*
X119866811Y-102342457D01*
X119864187Y-102341946D01*
X119397736Y-102228158D01*
X118916528Y-102070015D01*
X118446475Y-101877715D01*
X118013487Y-101661453D01*
X117775268Y-101519971D01*
X117571505Y-101389656D01*
X117924552Y-101072156D01*
X118261529Y-100751589D01*
X118613614Y-100384803D01*
X118970815Y-99984389D01*
X119323139Y-99562941D01*
X119660595Y-99133052D01*
X119973189Y-98707316D01*
X120250929Y-98298324D01*
X120483822Y-97918669D01*
X120608249Y-97690017D01*
X120757156Y-97398479D01*
X120931724Y-97409692D01*
X121106291Y-97420906D01*
X121195426Y-97738406D01*
X121236851Y-97886603D01*
X121293499Y-98090148D01*
X121359489Y-98327872D01*
X121428943Y-98578605D01*
X121470968Y-98730594D01*
X121617722Y-99231752D01*
X121762610Y-99660284D01*
X121909864Y-100022707D01*
X122063715Y-100325535D01*
X122228391Y-100575285D01*
X122408125Y-100778471D01*
X122607146Y-100941609D01*
X122829685Y-101071214D01*
X123050655Y-101163533D01*
X123175671Y-101205276D01*
X123289337Y-101234066D01*
X123411520Y-101252346D01*
X123562088Y-101262556D01*
X123760908Y-101267137D01*
X123902211Y-101268160D01*
X124103784Y-101269430D01*
X124273658Y-101271269D01*
X124397750Y-101273463D01*
X124461976Y-101275801D01*
X124467757Y-101276694D01*
X126227124Y-101276694D01*
X126620893Y-100810049D01*
X127025435Y-100219786D01*
X127369899Y-99588604D01*
X127649887Y-98920446D01*
X127861003Y-98219256D01*
X127895190Y-98072629D01*
X128023589Y-97316989D01*
X128074025Y-96565405D01*
X128067593Y-96384831D01*
X126883671Y-96384831D01*
X126883657Y-96605317D01*
X126877884Y-96819031D01*
X126867167Y-97011732D01*
X126852319Y-97169176D01*
X126834155Y-97277120D01*
X126813490Y-97321321D01*
X126811396Y-97321688D01*
X126762384Y-97307493D01*
X126660436Y-97269917D01*
X126525732Y-97216470D01*
X126496765Y-97204590D01*
X125898542Y-96980208D01*
X125244228Y-96774725D01*
X124555925Y-96593387D01*
X123887784Y-96448392D01*
X121372312Y-96448392D01*
X121338605Y-96616578D01*
X121248504Y-96759618D01*
X121118546Y-96862268D01*
X120965266Y-96909283D01*
X120876219Y-96905768D01*
X120773265Y-96862530D01*
X120659615Y-96777550D01*
X120623545Y-96741860D01*
X120542389Y-96645461D01*
X120507993Y-96566479D01*
X120507618Y-96469792D01*
X120511954Y-96434175D01*
X120570747Y-96260207D01*
X120686447Y-96131990D01*
X120845614Y-96061524D01*
X120940345Y-96051688D01*
X121094563Y-96085038D01*
X121231339Y-96172770D01*
X121330554Y-96296405D01*
X121372084Y-96437464D01*
X121372312Y-96448392D01*
X123887784Y-96448392D01*
X123855735Y-96441437D01*
X123165757Y-96324117D01*
X122508094Y-96246673D01*
X122432547Y-96240321D01*
X121845750Y-96193264D01*
X121753896Y-96028919D01*
X121662042Y-95864575D01*
X121749345Y-95759177D01*
X120329328Y-95759177D01*
X120216380Y-95885589D01*
X120130297Y-95964549D01*
X120052248Y-96008459D01*
X120033419Y-96011690D01*
X119975929Y-96005220D01*
X119851878Y-95987212D01*
X119672945Y-95959500D01*
X119450810Y-95923916D01*
X119197152Y-95882294D01*
X119010906Y-95851190D01*
X118505041Y-95770889D01*
X118067310Y-95712514D01*
X117689557Y-95676074D01*
X117363628Y-95661577D01*
X117081366Y-95669033D01*
X116834617Y-95698449D01*
X116615226Y-95749835D01*
X116415036Y-95823198D01*
X116348191Y-95853975D01*
X116078402Y-96024946D01*
X115823634Y-96265047D01*
X115591598Y-96564370D01*
X115390006Y-96913006D01*
X115230397Y-97290188D01*
X115177809Y-97426965D01*
X115132113Y-97524917D01*
X115100927Y-97568421D01*
X115094950Y-97568000D01*
X115079479Y-97519134D01*
X115058920Y-97409067D01*
X115036274Y-97255560D01*
X115019800Y-97123250D01*
X114983077Y-96465722D01*
X115022369Y-95812302D01*
X115134348Y-95169356D01*
X115315687Y-94543253D01*
X115563056Y-93940359D01*
X115873129Y-93367042D01*
X116242578Y-92829669D01*
X116668074Y-92334607D01*
X117146290Y-91888223D01*
X117673898Y-91496885D01*
X118090229Y-91248599D01*
X118230358Y-91176818D01*
X118343137Y-91126115D01*
X118411523Y-91103837D01*
X118423264Y-91105035D01*
X118440590Y-91149812D01*
X118472873Y-91257764D01*
X118516216Y-91414962D01*
X118566719Y-91607478D01*
X118594347Y-91716250D01*
X118764586Y-92327852D01*
X118968920Y-92950137D01*
X119200699Y-93567056D01*
X119453272Y-94162560D01*
X119719991Y-94720600D01*
X119994205Y-95225127D01*
X120161595Y-95498636D01*
X120329328Y-95759177D01*
X121749345Y-95759177D01*
X122332435Y-95055241D01*
X122661766Y-94652131D01*
X122939552Y-94298893D01*
X123169810Y-93988710D01*
X123356556Y-93714768D01*
X123503808Y-93470252D01*
X123615583Y-93248346D01*
X123695897Y-93042237D01*
X123748767Y-92845108D01*
X123778210Y-92650146D01*
X123782838Y-92594506D01*
X123779731Y-92268585D01*
X123720560Y-91954951D01*
X123600795Y-91639118D01*
X123415908Y-91306605D01*
X123347457Y-91202011D01*
X123168141Y-90936240D01*
X123569993Y-91137861D01*
X124165512Y-91479438D01*
X124711176Y-91879317D01*
X125203665Y-92332449D01*
X125639663Y-92833783D01*
X126015850Y-93378268D01*
X126328910Y-93960855D01*
X126575525Y-94576494D01*
X126752376Y-95220133D01*
X126856146Y-95886724D01*
X126877113Y-96171818D01*
X126883671Y-96384831D01*
X128067593Y-96384831D01*
X128047550Y-95822170D01*
X127945214Y-95091573D01*
X127768070Y-94377906D01*
X127517168Y-93685460D01*
X127193559Y-93018527D01*
X126798294Y-92381397D01*
X126362059Y-91813162D01*
X125861275Y-91281553D01*
X125312688Y-90810095D01*
X124722091Y-90400390D01*
X124095279Y-90054041D01*
X123438044Y-89772650D01*
X122756180Y-89557822D01*
X122055481Y-89411158D01*
X121341739Y-89334261D01*
X120620750Y-89328734D01*
X119898305Y-89396181D01*
X119898305Y-89396181D01*
G37*
X119898305Y-89396181D02*
X119180198Y-89538204D01*
X118673562Y-89686051D01*
X117986684Y-89955827D01*
X117334368Y-90294808D01*
X116721658Y-90698517D01*
X116153594Y-91162479D01*
X115635220Y-91682217D01*
X115171577Y-92253255D01*
X114767707Y-92871116D01*
X114488532Y-93401397D01*
X114205369Y-94091279D01*
X113996213Y-94804026D01*
X113861493Y-95532840D01*
X113801641Y-96270923D01*
X113817087Y-97011477D01*
X113908262Y-97747704D01*
X114075597Y-98472805D01*
X114151560Y-98720633D01*
X114246285Y-98976678D01*
X114374570Y-99275148D01*
X114525994Y-99595407D01*
X114690139Y-99916819D01*
X114856584Y-100218750D01*
X115014912Y-100480563D01*
X115114529Y-100627800D01*
X115585392Y-101214914D01*
X116106749Y-101743877D01*
X116673524Y-102212428D01*
X117280640Y-102618302D01*
X117923019Y-102959236D01*
X118595586Y-103232967D01*
X119293263Y-103437232D01*
X120010974Y-103569766D01*
X120743642Y-103628307D01*
X121486190Y-103610592D01*
X121749344Y-103585746D01*
X122476230Y-103464829D01*
X123178213Y-103271440D01*
X123850894Y-103009522D01*
X124489877Y-102683019D01*
X125090765Y-102295877D01*
X125649161Y-101852038D01*
X126160670Y-101355447D01*
X126227124Y-101276694D01*
X124467757Y-101276694D01*
X124436032Y-101303823D01*
X124350315Y-101361174D01*
X124225590Y-101439693D01*
X124076841Y-101530325D01*
X123919052Y-101624017D01*
X123767208Y-101711712D01*
X123636293Y-101784359D01*
X123571945Y-101818002D01*
X123159620Y-102000394D01*
X122697198Y-102161975D01*
X122213013Y-102294153D01*
X121735399Y-102388334D01*
X121650125Y-102400892D01*
X121454829Y-102417962D01*
X121202920Y-102425345D01*
X120916473Y-102423770D01*
X120617563Y-102413965D01*
X120328266Y-102396658D01*
X120070657Y-102372580D01*
X119866811Y-102342457D01*
X119864187Y-102341946D01*
X119397736Y-102228158D01*
X118916528Y-102070015D01*
X118446475Y-101877715D01*
X118013487Y-101661453D01*
X117775268Y-101519971D01*
X117571505Y-101389656D01*
X117924552Y-101072156D01*
X118261529Y-100751589D01*
X118613614Y-100384803D01*
X118970815Y-99984389D01*
X119323139Y-99562941D01*
X119660595Y-99133052D01*
X119973189Y-98707316D01*
X120250929Y-98298324D01*
X120483822Y-97918669D01*
X120608249Y-97690017D01*
X120757156Y-97398479D01*
X120931724Y-97409692D01*
X121106291Y-97420906D01*
X121195426Y-97738406D01*
X121236851Y-97886603D01*
X121293499Y-98090148D01*
X121359489Y-98327872D01*
X121428943Y-98578605D01*
X121470968Y-98730594D01*
X121617722Y-99231752D01*
X121762610Y-99660284D01*
X121909864Y-100022707D01*
X122063715Y-100325535D01*
X122228391Y-100575285D01*
X122408125Y-100778471D01*
X122607146Y-100941609D01*
X122829685Y-101071214D01*
X123050655Y-101163533D01*
X123175671Y-101205276D01*
X123289337Y-101234066D01*
X123411520Y-101252346D01*
X123562088Y-101262556D01*
X123760908Y-101267137D01*
X123902211Y-101268160D01*
X124103784Y-101269430D01*
X124273658Y-101271269D01*
X124397750Y-101273463D01*
X124461976Y-101275801D01*
X124467757Y-101276694D01*
X126227124Y-101276694D01*
X126620893Y-100810049D01*
X127025435Y-100219786D01*
X127369899Y-99588604D01*
X127649887Y-98920446D01*
X127861003Y-98219256D01*
X127895190Y-98072629D01*
X128023589Y-97316989D01*
X128074025Y-96565405D01*
X128067593Y-96384831D01*
X126883671Y-96384831D01*
X126883657Y-96605317D01*
X126877884Y-96819031D01*
X126867167Y-97011732D01*
X126852319Y-97169176D01*
X126834155Y-97277120D01*
X126813490Y-97321321D01*
X126811396Y-97321688D01*
X126762384Y-97307493D01*
X126660436Y-97269917D01*
X126525732Y-97216470D01*
X126496765Y-97204590D01*
X125898542Y-96980208D01*
X125244228Y-96774725D01*
X124555925Y-96593387D01*
X123887784Y-96448392D01*
X121372312Y-96448392D01*
X121338605Y-96616578D01*
X121248504Y-96759618D01*
X121118546Y-96862268D01*
X120965266Y-96909283D01*
X120876219Y-96905768D01*
X120773265Y-96862530D01*
X120659615Y-96777550D01*
X120623545Y-96741860D01*
X120542389Y-96645461D01*
X120507993Y-96566479D01*
X120507618Y-96469792D01*
X120511954Y-96434175D01*
X120570747Y-96260207D01*
X120686447Y-96131990D01*
X120845614Y-96061524D01*
X120940345Y-96051688D01*
X121094563Y-96085038D01*
X121231339Y-96172770D01*
X121330554Y-96296405D01*
X121372084Y-96437464D01*
X121372312Y-96448392D01*
X123887784Y-96448392D01*
X123855735Y-96441437D01*
X123165757Y-96324117D01*
X122508094Y-96246673D01*
X122432547Y-96240321D01*
X121845750Y-96193264D01*
X121753896Y-96028919D01*
X121662042Y-95864575D01*
X121749345Y-95759177D01*
X120329328Y-95759177D01*
X120216380Y-95885589D01*
X120130297Y-95964549D01*
X120052248Y-96008459D01*
X120033419Y-96011690D01*
X119975929Y-96005220D01*
X119851878Y-95987212D01*
X119672945Y-95959500D01*
X119450810Y-95923916D01*
X119197152Y-95882294D01*
X119010906Y-95851190D01*
X118505041Y-95770889D01*
X118067310Y-95712514D01*
X117689557Y-95676074D01*
X117363628Y-95661577D01*
X117081366Y-95669033D01*
X116834617Y-95698449D01*
X116615226Y-95749835D01*
X116415036Y-95823198D01*
X116348191Y-95853975D01*
X116078402Y-96024946D01*
X115823634Y-96265047D01*
X115591598Y-96564370D01*
X115390006Y-96913006D01*
X115230397Y-97290188D01*
X115177809Y-97426965D01*
X115132113Y-97524917D01*
X115100927Y-97568421D01*
X115094950Y-97568000D01*
X115079479Y-97519134D01*
X115058920Y-97409067D01*
X115036274Y-97255560D01*
X115019800Y-97123250D01*
X114983077Y-96465722D01*
X115022369Y-95812302D01*
X115134348Y-95169356D01*
X115315687Y-94543253D01*
X115563056Y-93940359D01*
X115873129Y-93367042D01*
X116242578Y-92829669D01*
X116668074Y-92334607D01*
X117146290Y-91888223D01*
X117673898Y-91496885D01*
X118090229Y-91248599D01*
X118230358Y-91176818D01*
X118343137Y-91126115D01*
X118411523Y-91103837D01*
X118423264Y-91105035D01*
X118440590Y-91149812D01*
X118472873Y-91257764D01*
X118516216Y-91414962D01*
X118566719Y-91607478D01*
X118594347Y-91716250D01*
X118764586Y-92327852D01*
X118968920Y-92950137D01*
X119200699Y-93567056D01*
X119453272Y-94162560D01*
X119719991Y-94720600D01*
X119994205Y-95225127D01*
X120161595Y-95498636D01*
X120329328Y-95759177D01*
X121749345Y-95759177D01*
X122332435Y-95055241D01*
X122661766Y-94652131D01*
X122939552Y-94298893D01*
X123169810Y-93988710D01*
X123356556Y-93714768D01*
X123503808Y-93470252D01*
X123615583Y-93248346D01*
X123695897Y-93042237D01*
X123748767Y-92845108D01*
X123778210Y-92650146D01*
X123782838Y-92594506D01*
X123779731Y-92268585D01*
X123720560Y-91954951D01*
X123600795Y-91639118D01*
X123415908Y-91306605D01*
X123347457Y-91202011D01*
X123168141Y-90936240D01*
X123569993Y-91137861D01*
X124165512Y-91479438D01*
X124711176Y-91879317D01*
X125203665Y-92332449D01*
X125639663Y-92833783D01*
X126015850Y-93378268D01*
X126328910Y-93960855D01*
X126575525Y-94576494D01*
X126752376Y-95220133D01*
X126856146Y-95886724D01*
X126877113Y-96171818D01*
X126883671Y-96384831D01*
X128067593Y-96384831D01*
X128047550Y-95822170D01*
X127945214Y-95091573D01*
X127768070Y-94377906D01*
X127517168Y-93685460D01*
X127193559Y-93018527D01*
X126798294Y-92381397D01*
X126362059Y-91813162D01*
X125861275Y-91281553D01*
X125312688Y-90810095D01*
X124722091Y-90400390D01*
X124095279Y-90054041D01*
X123438044Y-89772650D01*
X122756180Y-89557822D01*
X122055481Y-89411158D01*
X121341739Y-89334261D01*
X120620750Y-89328734D01*
X119898305Y-89396181D01*
G36*
X152167020Y-89508515D02*
X151831103Y-89523055D01*
X151527779Y-89545946D01*
X151265577Y-89576108D01*
X151053029Y-89612463D01*
X150898663Y-89653933D01*
X150811009Y-89699439D01*
X150795135Y-89722403D01*
X150820992Y-89759270D01*
X150899889Y-89831000D01*
X151019612Y-89927266D01*
X151167949Y-90037741D01*
X151168713Y-90038291D01*
X151881428Y-90579505D01*
X152516081Y-91121556D01*
X153073985Y-91665732D01*
X153556452Y-92213317D01*
X153964796Y-92765597D01*
X153988289Y-92800911D01*
X154213719Y-93142005D01*
X154928094Y-93167798D01*
X155577863Y-93200796D01*
X156296134Y-93254740D01*
X157075182Y-93328452D01*
X157907279Y-93420752D01*
X158784700Y-93530461D01*
X159699718Y-93656399D01*
X160644607Y-93797387D01*
X161611641Y-93952246D01*
X162593093Y-94119795D01*
X163581237Y-94298856D01*
X164568346Y-94488250D01*
X165546696Y-94686796D01*
X166508558Y-94893316D01*
X167092312Y-95024632D01*
X167845103Y-95201707D01*
X168585342Y-95384843D01*
X169305401Y-95571821D01*
X169997646Y-95760423D01*
X170654447Y-95948428D01*
X171268172Y-96133618D01*
X171831189Y-96313774D01*
X172335868Y-96486677D01*
X172774577Y-96650106D01*
X173008268Y-96744930D01*
X173171205Y-96813461D01*
X173274575Y-96855841D01*
X173331930Y-96876805D01*
X173356822Y-96881088D01*
X173362804Y-96873424D01*
X173362937Y-96868839D01*
X173346938Y-96824192D01*
X173303144Y-96721607D01*
X173237862Y-96574825D01*
X173157398Y-96397585D01*
X173068057Y-96203626D01*
X172976145Y-96006688D01*
X172887970Y-95820509D01*
X172809836Y-95658831D01*
X172778409Y-95595281D01*
X172688098Y-95421140D01*
X172571354Y-95205547D01*
X172442768Y-94975001D01*
X172316928Y-94756004D01*
X172307850Y-94740516D01*
X172221611Y-94591596D01*
X172152545Y-94474019D01*
X172090970Y-94380490D01*
X172027207Y-94303712D01*
X171951573Y-94236389D01*
X171854387Y-94171225D01*
X171725969Y-94100922D01*
X171556636Y-94018186D01*
X171336708Y-93915720D01*
X171056503Y-93786227D01*
X171017776Y-93768250D01*
X170221911Y-93415156D01*
X169357368Y-93062684D01*
X168434783Y-92714605D01*
X167464791Y-92374690D01*
X166458026Y-92046708D01*
X165425125Y-91734430D01*
X164711062Y-91532374D01*
X163713704Y-91267166D01*
X162701583Y-91015719D01*
X161681968Y-90779242D01*
X160662125Y-90558946D01*
X159649322Y-90356041D01*
X158650824Y-90171738D01*
X157673900Y-90007245D01*
X156725816Y-89863774D01*
X155813838Y-89742535D01*
X154945234Y-89644738D01*
X154127271Y-89571592D01*
X153367216Y-89524308D01*
X152672335Y-89504097D01*
X152527000Y-89503404D01*
X152167020Y-89508515D01*
X152167020Y-89508515D01*
G37*
X152167020Y-89508515D02*
X151831103Y-89523055D01*
X151527779Y-89545946D01*
X151265577Y-89576108D01*
X151053029Y-89612463D01*
X150898663Y-89653933D01*
X150811009Y-89699439D01*
X150795135Y-89722403D01*
X150820992Y-89759270D01*
X150899889Y-89831000D01*
X151019612Y-89927266D01*
X151167949Y-90037741D01*
X151168713Y-90038291D01*
X151881428Y-90579505D01*
X152516081Y-91121556D01*
X153073985Y-91665732D01*
X153556452Y-92213317D01*
X153964796Y-92765597D01*
X153988289Y-92800911D01*
X154213719Y-93142005D01*
X154928094Y-93167798D01*
X155577863Y-93200796D01*
X156296134Y-93254740D01*
X157075182Y-93328452D01*
X157907279Y-93420752D01*
X158784700Y-93530461D01*
X159699718Y-93656399D01*
X160644607Y-93797387D01*
X161611641Y-93952246D01*
X162593093Y-94119795D01*
X163581237Y-94298856D01*
X164568346Y-94488250D01*
X165546696Y-94686796D01*
X166508558Y-94893316D01*
X167092312Y-95024632D01*
X167845103Y-95201707D01*
X168585342Y-95384843D01*
X169305401Y-95571821D01*
X169997646Y-95760423D01*
X170654447Y-95948428D01*
X171268172Y-96133618D01*
X171831189Y-96313774D01*
X172335868Y-96486677D01*
X172774577Y-96650106D01*
X173008268Y-96744930D01*
X173171205Y-96813461D01*
X173274575Y-96855841D01*
X173331930Y-96876805D01*
X173356822Y-96881088D01*
X173362804Y-96873424D01*
X173362937Y-96868839D01*
X173346938Y-96824192D01*
X173303144Y-96721607D01*
X173237862Y-96574825D01*
X173157398Y-96397585D01*
X173068057Y-96203626D01*
X172976145Y-96006688D01*
X172887970Y-95820509D01*
X172809836Y-95658831D01*
X172778409Y-95595281D01*
X172688098Y-95421140D01*
X172571354Y-95205547D01*
X172442768Y-94975001D01*
X172316928Y-94756004D01*
X172307850Y-94740516D01*
X172221611Y-94591596D01*
X172152545Y-94474019D01*
X172090970Y-94380490D01*
X172027207Y-94303712D01*
X171951573Y-94236389D01*
X171854387Y-94171225D01*
X171725969Y-94100922D01*
X171556636Y-94018186D01*
X171336708Y-93915720D01*
X171056503Y-93786227D01*
X171017776Y-93768250D01*
X170221911Y-93415156D01*
X169357368Y-93062684D01*
X168434783Y-92714605D01*
X167464791Y-92374690D01*
X166458026Y-92046708D01*
X165425125Y-91734430D01*
X164711062Y-91532374D01*
X163713704Y-91267166D01*
X162701583Y-91015719D01*
X161681968Y-90779242D01*
X160662125Y-90558946D01*
X159649322Y-90356041D01*
X158650824Y-90171738D01*
X157673900Y-90007245D01*
X156725816Y-89863774D01*
X155813838Y-89742535D01*
X154945234Y-89644738D01*
X154127271Y-89571592D01*
X153367216Y-89524308D01*
X152672335Y-89504097D01*
X152527000Y-89503404D01*
X152167020Y-89508515D01*
G36*
X114008660Y-89526627D02*
X113642503Y-89533689D01*
X113284457Y-89544882D01*
X112946999Y-89560127D01*
X112642609Y-89579342D01*
X112442625Y-89596400D01*
X111257323Y-89727026D01*
X110050553Y-89888002D01*
X108829361Y-90077499D01*
X107600794Y-90293689D01*
X106371897Y-90534740D01*
X105149717Y-90798824D01*
X103941301Y-91084113D01*
X102753695Y-91388775D01*
X101593945Y-91710982D01*
X100469097Y-92048905D01*
X99386198Y-92400714D01*
X98352294Y-92764579D01*
X97374432Y-93138672D01*
X96459658Y-93521163D01*
X95615018Y-93910223D01*
X95379754Y-94026245D01*
X94904400Y-94264532D01*
X94644980Y-94701567D01*
X94526026Y-94908254D01*
X94397062Y-95143170D01*
X94263057Y-95396134D01*
X94128976Y-95656968D01*
X93999785Y-95915491D01*
X93880451Y-96161524D01*
X93775940Y-96384888D01*
X93691218Y-96575403D01*
X93631252Y-96722890D01*
X93601007Y-96817168D01*
X93599440Y-96844639D01*
X93638580Y-96844169D01*
X93731797Y-96817259D01*
X93860530Y-96769469D01*
X93888719Y-96757972D01*
X94439444Y-96543542D01*
X95062695Y-96325131D01*
X95751799Y-96104060D01*
X96500085Y-95881650D01*
X97300879Y-95659223D01*
X98147510Y-95438101D01*
X99033305Y-95219605D01*
X99951593Y-95005056D01*
X100895701Y-94795777D01*
X101858957Y-94593089D01*
X102834689Y-94398313D01*
X103816224Y-94212771D01*
X104796891Y-94037785D01*
X105770017Y-93874676D01*
X106728930Y-93724765D01*
X107666957Y-93589375D01*
X108577428Y-93469826D01*
X109453669Y-93367440D01*
X110289008Y-93283539D01*
X111076773Y-93219445D01*
X111810292Y-93176479D01*
X112012937Y-93168121D01*
X112714342Y-93142195D01*
X112974438Y-92757705D01*
X113321496Y-92282301D01*
X113711811Y-91820539D01*
X114152307Y-91365653D01*
X114649907Y-90910875D01*
X115211536Y-90449438D01*
X115758711Y-90036515D01*
X116186544Y-89724727D01*
X116070756Y-89676353D01*
X115972173Y-89644180D01*
X115827537Y-89607318D01*
X115677156Y-89575537D01*
X115524375Y-89556116D01*
X115304835Y-89541311D01*
X115031016Y-89531040D01*
X114715395Y-89525222D01*
X114370450Y-89523778D01*
X114008660Y-89526627D01*
X114008660Y-89526627D01*
G37*
X114008660Y-89526627D02*
X113642503Y-89533689D01*
X113284457Y-89544882D01*
X112946999Y-89560127D01*
X112642609Y-89579342D01*
X112442625Y-89596400D01*
X111257323Y-89727026D01*
X110050553Y-89888002D01*
X108829361Y-90077499D01*
X107600794Y-90293689D01*
X106371897Y-90534740D01*
X105149717Y-90798824D01*
X103941301Y-91084113D01*
X102753695Y-91388775D01*
X101593945Y-91710982D01*
X100469097Y-92048905D01*
X99386198Y-92400714D01*
X98352294Y-92764579D01*
X97374432Y-93138672D01*
X96459658Y-93521163D01*
X95615018Y-93910223D01*
X95379754Y-94026245D01*
X94904400Y-94264532D01*
X94644980Y-94701567D01*
X94526026Y-94908254D01*
X94397062Y-95143170D01*
X94263057Y-95396134D01*
X94128976Y-95656968D01*
X93999785Y-95915491D01*
X93880451Y-96161524D01*
X93775940Y-96384888D01*
X93691218Y-96575403D01*
X93631252Y-96722890D01*
X93601007Y-96817168D01*
X93599440Y-96844639D01*
X93638580Y-96844169D01*
X93731797Y-96817259D01*
X93860530Y-96769469D01*
X93888719Y-96757972D01*
X94439444Y-96543542D01*
X95062695Y-96325131D01*
X95751799Y-96104060D01*
X96500085Y-95881650D01*
X97300879Y-95659223D01*
X98147510Y-95438101D01*
X99033305Y-95219605D01*
X99951593Y-95005056D01*
X100895701Y-94795777D01*
X101858957Y-94593089D01*
X102834689Y-94398313D01*
X103816224Y-94212771D01*
X104796891Y-94037785D01*
X105770017Y-93874676D01*
X106728930Y-93724765D01*
X107666957Y-93589375D01*
X108577428Y-93469826D01*
X109453669Y-93367440D01*
X110289008Y-93283539D01*
X111076773Y-93219445D01*
X111810292Y-93176479D01*
X112012937Y-93168121D01*
X112714342Y-93142195D01*
X112974438Y-92757705D01*
X113321496Y-92282301D01*
X113711811Y-91820539D01*
X114152307Y-91365653D01*
X114649907Y-90910875D01*
X115211536Y-90449438D01*
X115758711Y-90036515D01*
X116186544Y-89724727D01*
X116070756Y-89676353D01*
X115972173Y-89644180D01*
X115827537Y-89607318D01*
X115677156Y-89575537D01*
X115524375Y-89556116D01*
X115304835Y-89541311D01*
X115031016Y-89531040D01*
X114715395Y-89525222D01*
X114370450Y-89523778D01*
X114008660Y-89526627D01*
G36*
X146245695Y-81044636D02*
X146149247Y-81073817D01*
X146047829Y-81117899D01*
X145931102Y-81176744D01*
X145799895Y-81244521D01*
X145296929Y-81527726D01*
X144827744Y-81849464D01*
X144371014Y-82225078D01*
X144139616Y-82438875D01*
X143600269Y-83001379D01*
X143080780Y-83637682D01*
X142583610Y-84344136D01*
X142111221Y-85117095D01*
X141666075Y-85952912D01*
X141420376Y-86467156D01*
X141326670Y-86672921D01*
X141243571Y-86858367D01*
X141177318Y-87009335D01*
X141134153Y-87111666D01*
X141121425Y-87145416D01*
X141115210Y-87172344D01*
X141121736Y-87193051D01*
X141150418Y-87208729D01*
X141210673Y-87220572D01*
X141311914Y-87229773D01*
X141463560Y-87237525D01*
X141675024Y-87245022D01*
X141955724Y-87253458D01*
X141979388Y-87254148D01*
X143180949Y-87317796D01*
X144329786Y-87437589D01*
X145430159Y-87614420D01*
X146486327Y-87849180D01*
X147502551Y-88142761D01*
X148483092Y-88496055D01*
X149047280Y-88733169D01*
X149437091Y-88905934D01*
X149776125Y-88807685D01*
X150206020Y-88707281D01*
X150709054Y-88633750D01*
X151283664Y-88587123D01*
X151928291Y-88567431D01*
X152641374Y-88574704D01*
X153421351Y-88608973D01*
X154266663Y-88670269D01*
X154709812Y-88710720D01*
X155674114Y-88815481D01*
X156671474Y-88945022D01*
X157694865Y-89097610D01*
X158737258Y-89271513D01*
X159791625Y-89464998D01*
X160850936Y-89676332D01*
X161908165Y-89903783D01*
X162956282Y-90145618D01*
X163988258Y-90400105D01*
X164997066Y-90665511D01*
X165975676Y-90940103D01*
X166917061Y-91222149D01*
X167814191Y-91509916D01*
X168660038Y-91801671D01*
X169447574Y-92095682D01*
X170169771Y-92390216D01*
X170813016Y-92680397D01*
X171004738Y-92770097D01*
X171168633Y-92843332D01*
X171292717Y-92895024D01*
X171365007Y-92920098D01*
X171378562Y-92919967D01*
X171357188Y-92874805D01*
X171300880Y-92784188D01*
X171221361Y-92666877D01*
X171212968Y-92654945D01*
X170769842Y-92080859D01*
X170248727Y-91503367D01*
X169650893Y-90923330D01*
X168977613Y-90341608D01*
X168230157Y-89759062D01*
X167409796Y-89176553D01*
X166517802Y-88594942D01*
X165555446Y-88015089D01*
X164523998Y-87437855D01*
X163424731Y-86864101D01*
X162258914Y-86294687D01*
X161027819Y-85730475D01*
X160909473Y-85678041D01*
X159712971Y-85165135D01*
X158463041Y-84659093D01*
X157172317Y-84164115D01*
X155853433Y-83684402D01*
X154519022Y-83224155D01*
X153181718Y-82787575D01*
X151854154Y-82378863D01*
X150548963Y-82002219D01*
X149278780Y-81661844D01*
X148056238Y-81361940D01*
X147650178Y-81269155D01*
X147299017Y-81190176D01*
X147015263Y-81127061D01*
X146788574Y-81079673D01*
X146608612Y-81047874D01*
X146465038Y-81031526D01*
X146347512Y-81030493D01*
X146245695Y-81044636D01*
X146245695Y-81044636D01*
G37*
X146245695Y-81044636D02*
X146149247Y-81073817D01*
X146047829Y-81117899D01*
X145931102Y-81176744D01*
X145799895Y-81244521D01*
X145296929Y-81527726D01*
X144827744Y-81849464D01*
X144371014Y-82225078D01*
X144139616Y-82438875D01*
X143600269Y-83001379D01*
X143080780Y-83637682D01*
X142583610Y-84344136D01*
X142111221Y-85117095D01*
X141666075Y-85952912D01*
X141420376Y-86467156D01*
X141326670Y-86672921D01*
X141243571Y-86858367D01*
X141177318Y-87009335D01*
X141134153Y-87111666D01*
X141121425Y-87145416D01*
X141115210Y-87172344D01*
X141121736Y-87193051D01*
X141150418Y-87208729D01*
X141210673Y-87220572D01*
X141311914Y-87229773D01*
X141463560Y-87237525D01*
X141675024Y-87245022D01*
X141955724Y-87253458D01*
X141979388Y-87254148D01*
X143180949Y-87317796D01*
X144329786Y-87437589D01*
X145430159Y-87614420D01*
X146486327Y-87849180D01*
X147502551Y-88142761D01*
X148483092Y-88496055D01*
X149047280Y-88733169D01*
X149437091Y-88905934D01*
X149776125Y-88807685D01*
X150206020Y-88707281D01*
X150709054Y-88633750D01*
X151283664Y-88587123D01*
X151928291Y-88567431D01*
X152641374Y-88574704D01*
X153421351Y-88608973D01*
X154266663Y-88670269D01*
X154709812Y-88710720D01*
X155674114Y-88815481D01*
X156671474Y-88945022D01*
X157694865Y-89097610D01*
X158737258Y-89271513D01*
X159791625Y-89464998D01*
X160850936Y-89676332D01*
X161908165Y-89903783D01*
X162956282Y-90145618D01*
X163988258Y-90400105D01*
X164997066Y-90665511D01*
X165975676Y-90940103D01*
X166917061Y-91222149D01*
X167814191Y-91509916D01*
X168660038Y-91801671D01*
X169447574Y-92095682D01*
X170169771Y-92390216D01*
X170813016Y-92680397D01*
X171004738Y-92770097D01*
X171168633Y-92843332D01*
X171292717Y-92895024D01*
X171365007Y-92920098D01*
X171378562Y-92919967D01*
X171357188Y-92874805D01*
X171300880Y-92784188D01*
X171221361Y-92666877D01*
X171212968Y-92654945D01*
X170769842Y-92080859D01*
X170248727Y-91503367D01*
X169650893Y-90923330D01*
X168977613Y-90341608D01*
X168230157Y-89759062D01*
X167409796Y-89176553D01*
X166517802Y-88594942D01*
X165555446Y-88015089D01*
X164523998Y-87437855D01*
X163424731Y-86864101D01*
X162258914Y-86294687D01*
X161027819Y-85730475D01*
X160909473Y-85678041D01*
X159712971Y-85165135D01*
X158463041Y-84659093D01*
X157172317Y-84164115D01*
X155853433Y-83684402D01*
X154519022Y-83224155D01*
X153181718Y-82787575D01*
X151854154Y-82378863D01*
X150548963Y-82002219D01*
X149278780Y-81661844D01*
X148056238Y-81361940D01*
X147650178Y-81269155D01*
X147299017Y-81190176D01*
X147015263Y-81127061D01*
X146788574Y-81079673D01*
X146608612Y-81047874D01*
X146465038Y-81031526D01*
X146347512Y-81030493D01*
X146245695Y-81044636D01*
G36*
X120009156Y-81106769D02*
X119713544Y-81169739D01*
X119355187Y-81251042D01*
X118947680Y-81347262D01*
X118504615Y-81454982D01*
X118039585Y-81570785D01*
X117566183Y-81691255D01*
X117098002Y-81812975D01*
X116648636Y-81932529D01*
X116231677Y-82046499D01*
X115915281Y-82135748D01*
X114408661Y-82583037D01*
X112930363Y-83051227D01*
X111484260Y-83538600D01*
X110074225Y-84043440D01*
X108704133Y-84564031D01*
X107377856Y-85098655D01*
X106099268Y-85645598D01*
X104872243Y-86203141D01*
X103700654Y-86769569D01*
X102588374Y-87343165D01*
X101539277Y-87922212D01*
X100557236Y-88504994D01*
X99646125Y-89089795D01*
X98809817Y-89674897D01*
X98671062Y-89777477D01*
X98043428Y-90267415D01*
X97453047Y-90772211D01*
X96908109Y-91283893D01*
X96416803Y-91794491D01*
X95987317Y-92296035D01*
X95716532Y-92653268D01*
X95630939Y-92777123D01*
X95569124Y-92874156D01*
X95541025Y-92928460D01*
X95540884Y-92934333D01*
X95581458Y-92926444D01*
X95667031Y-92889974D01*
X95714344Y-92866452D01*
X96149773Y-92653896D01*
X96655313Y-92429963D01*
X97222997Y-92197569D01*
X97844861Y-91959631D01*
X98512937Y-91719066D01*
X99219259Y-91478789D01*
X99955860Y-91241718D01*
X100714775Y-91010768D01*
X101052312Y-90912245D01*
X102044772Y-90634965D01*
X103043782Y-90372618D01*
X104045039Y-90125757D01*
X105044239Y-89894934D01*
X106037076Y-89680703D01*
X107019247Y-89483616D01*
X107986447Y-89304227D01*
X108934372Y-89143088D01*
X109858717Y-89000753D01*
X110755178Y-88877774D01*
X111619451Y-88774705D01*
X112447230Y-88692098D01*
X113234213Y-88630507D01*
X113976093Y-88590484D01*
X114668568Y-88572583D01*
X115307332Y-88577357D01*
X115888081Y-88605357D01*
X116406511Y-88657139D01*
X116858317Y-88733253D01*
X117235774Y-88833127D01*
X117484704Y-88914997D01*
X117930305Y-88717667D01*
X118929437Y-88316983D01*
X119975573Y-87978651D01*
X121065566Y-87703495D01*
X122196270Y-87492342D01*
X123019344Y-87382036D01*
X123340004Y-87349809D01*
X123707971Y-87319419D01*
X124100864Y-87292199D01*
X124496305Y-87269483D01*
X124871913Y-87252605D01*
X125205312Y-87242897D01*
X125385153Y-87241063D01*
X125594597Y-87237985D01*
X125731606Y-87228263D01*
X125802900Y-87211163D01*
X125817312Y-87193901D01*
X125801706Y-87142666D01*
X125758753Y-87033306D01*
X125694254Y-86879821D01*
X125614009Y-86696209D01*
X125574769Y-86608510D01*
X125174631Y-85776777D01*
X124748799Y-84998678D01*
X124299788Y-84277139D01*
X123830111Y-83615084D01*
X123342284Y-83015438D01*
X122838822Y-82481127D01*
X122322238Y-82015074D01*
X121795048Y-81620205D01*
X121259766Y-81299445D01*
X120842593Y-81104361D01*
X120570843Y-80992867D01*
X120009156Y-81106769D01*
X120009156Y-81106769D01*
G37*
X120009156Y-81106769D02*
X119713544Y-81169739D01*
X119355187Y-81251042D01*
X118947680Y-81347262D01*
X118504615Y-81454982D01*
X118039585Y-81570785D01*
X117566183Y-81691255D01*
X117098002Y-81812975D01*
X116648636Y-81932529D01*
X116231677Y-82046499D01*
X115915281Y-82135748D01*
X114408661Y-82583037D01*
X112930363Y-83051227D01*
X111484260Y-83538600D01*
X110074225Y-84043440D01*
X108704133Y-84564031D01*
X107377856Y-85098655D01*
X106099268Y-85645598D01*
X104872243Y-86203141D01*
X103700654Y-86769569D01*
X102588374Y-87343165D01*
X101539277Y-87922212D01*
X100557236Y-88504994D01*
X99646125Y-89089795D01*
X98809817Y-89674897D01*
X98671062Y-89777477D01*
X98043428Y-90267415D01*
X97453047Y-90772211D01*
X96908109Y-91283893D01*
X96416803Y-91794491D01*
X95987317Y-92296035D01*
X95716532Y-92653268D01*
X95630939Y-92777123D01*
X95569124Y-92874156D01*
X95541025Y-92928460D01*
X95540884Y-92934333D01*
X95581458Y-92926444D01*
X95667031Y-92889974D01*
X95714344Y-92866452D01*
X96149773Y-92653896D01*
X96655313Y-92429963D01*
X97222997Y-92197569D01*
X97844861Y-91959631D01*
X98512937Y-91719066D01*
X99219259Y-91478789D01*
X99955860Y-91241718D01*
X100714775Y-91010768D01*
X101052312Y-90912245D01*
X102044772Y-90634965D01*
X103043782Y-90372618D01*
X104045039Y-90125757D01*
X105044239Y-89894934D01*
X106037076Y-89680703D01*
X107019247Y-89483616D01*
X107986447Y-89304227D01*
X108934372Y-89143088D01*
X109858717Y-89000753D01*
X110755178Y-88877774D01*
X111619451Y-88774705D01*
X112447230Y-88692098D01*
X113234213Y-88630507D01*
X113976093Y-88590484D01*
X114668568Y-88572583D01*
X115307332Y-88577357D01*
X115888081Y-88605357D01*
X116406511Y-88657139D01*
X116858317Y-88733253D01*
X117235774Y-88833127D01*
X117484704Y-88914997D01*
X117930305Y-88717667D01*
X118929437Y-88316983D01*
X119975573Y-87978651D01*
X121065566Y-87703495D01*
X122196270Y-87492342D01*
X123019344Y-87382036D01*
X123340004Y-87349809D01*
X123707971Y-87319419D01*
X124100864Y-87292199D01*
X124496305Y-87269483D01*
X124871913Y-87252605D01*
X125205312Y-87242897D01*
X125385153Y-87241063D01*
X125594597Y-87237985D01*
X125731606Y-87228263D01*
X125802900Y-87211163D01*
X125817312Y-87193901D01*
X125801706Y-87142666D01*
X125758753Y-87033306D01*
X125694254Y-86879821D01*
X125614009Y-86696209D01*
X125574769Y-86608510D01*
X125174631Y-85776777D01*
X124748799Y-84998678D01*
X124299788Y-84277139D01*
X123830111Y-83615084D01*
X123342284Y-83015438D01*
X122838822Y-82481127D01*
X122322238Y-82015074D01*
X121795048Y-81620205D01*
X121259766Y-81299445D01*
X120842593Y-81104361D01*
X120570843Y-80992867D01*
X120009156Y-81106769D01*
G04 #@! TD*
M02*
