G04 #@! TF.GenerationSoftware,KiCad,Pcbnew,(5.0.2)-1*
G04 #@! TF.CreationDate,2019-02-02T15:46:13-06:00*
G04 #@! TF.ProjectId,Motor test module,4d6f746f-7220-4746-9573-74206d6f6475,rev?*
G04 #@! TF.SameCoordinates,Original*
G04 #@! TF.FileFunction,Legend,Top*
G04 #@! TF.FilePolarity,Positive*
%FSLAX46Y46*%
G04 Gerber Fmt 4.6, Leading zero omitted, Abs format (unit mm)*
G04 Created by KiCad (PCBNEW (5.0.2)-1) date 2/2/2019 3:46:13 PM*
%MOMM*%
%LPD*%
G01*
G04 APERTURE LIST*
%ADD10C,0.300000*%
%ADD11C,0.120000*%
%ADD12C,0.150000*%
G04 APERTURE END LIST*
D10*
X161845857Y-131234571D02*
X161345857Y-130520285D01*
X160988714Y-131234571D02*
X160988714Y-129734571D01*
X161560142Y-129734571D01*
X161703000Y-129806000D01*
X161774428Y-129877428D01*
X161845857Y-130020285D01*
X161845857Y-130234571D01*
X161774428Y-130377428D01*
X161703000Y-130448857D01*
X161560142Y-130520285D01*
X160988714Y-130520285D01*
X163060142Y-131163142D02*
X162917285Y-131234571D01*
X162631571Y-131234571D01*
X162488714Y-131163142D01*
X162417285Y-131020285D01*
X162417285Y-130448857D01*
X162488714Y-130306000D01*
X162631571Y-130234571D01*
X162917285Y-130234571D01*
X163060142Y-130306000D01*
X163131571Y-130448857D01*
X163131571Y-130591714D01*
X162417285Y-130734571D01*
X163703000Y-131163142D02*
X163845857Y-131234571D01*
X164131571Y-131234571D01*
X164274428Y-131163142D01*
X164345857Y-131020285D01*
X164345857Y-130948857D01*
X164274428Y-130806000D01*
X164131571Y-130734571D01*
X163917285Y-130734571D01*
X163774428Y-130663142D01*
X163703000Y-130520285D01*
X163703000Y-130448857D01*
X163774428Y-130306000D01*
X163917285Y-130234571D01*
X164131571Y-130234571D01*
X164274428Y-130306000D01*
X165560142Y-131163142D02*
X165417285Y-131234571D01*
X165131571Y-131234571D01*
X164988714Y-131163142D01*
X164917285Y-131020285D01*
X164917285Y-130448857D01*
X164988714Y-130306000D01*
X165131571Y-130234571D01*
X165417285Y-130234571D01*
X165560142Y-130306000D01*
X165631571Y-130448857D01*
X165631571Y-130591714D01*
X164917285Y-130734571D01*
X166060142Y-130234571D02*
X166631571Y-130234571D01*
X166274428Y-129734571D02*
X166274428Y-131020285D01*
X166345857Y-131163142D01*
X166488714Y-131234571D01*
X166631571Y-131234571D01*
X132830000Y-130937142D02*
X132901428Y-130794285D01*
X132901428Y-130580000D01*
X132830000Y-130365714D01*
X132687142Y-130222857D01*
X132544285Y-130151428D01*
X132258571Y-130080000D01*
X132044285Y-130080000D01*
X131758571Y-130151428D01*
X131615714Y-130222857D01*
X131472857Y-130365714D01*
X131401428Y-130580000D01*
X131401428Y-130722857D01*
X131472857Y-130937142D01*
X131544285Y-131008571D01*
X132044285Y-131008571D01*
X132044285Y-130722857D01*
X131401428Y-131651428D02*
X132901428Y-131651428D01*
X131401428Y-132508571D01*
X132901428Y-132508571D01*
X131401428Y-133222857D02*
X132901428Y-133222857D01*
X132901428Y-133580000D01*
X132830000Y-133794285D01*
X132687142Y-133937142D01*
X132544285Y-134008571D01*
X132258571Y-134080000D01*
X132044285Y-134080000D01*
X131758571Y-134008571D01*
X131615714Y-133937142D01*
X131472857Y-133794285D01*
X131401428Y-133580000D01*
X131401428Y-133222857D01*
X126194428Y-131095857D02*
X126194428Y-130238714D01*
X126194428Y-130667285D02*
X127694428Y-130667285D01*
X127480142Y-130524428D01*
X127337285Y-130381571D01*
X127265857Y-130238714D01*
X127551571Y-131667285D02*
X127623000Y-131738714D01*
X127694428Y-131881571D01*
X127694428Y-132238714D01*
X127623000Y-132381571D01*
X127551571Y-132453000D01*
X127408714Y-132524428D01*
X127265857Y-132524428D01*
X127051571Y-132453000D01*
X126194428Y-131595857D01*
X126194428Y-132524428D01*
X127194428Y-133024428D02*
X126194428Y-133381571D01*
X127194428Y-133738714D01*
X116948571Y-58072571D02*
X116948571Y-56572571D01*
X117448571Y-57644000D01*
X117948571Y-56572571D01*
X117948571Y-58072571D01*
X118877142Y-58072571D02*
X118734285Y-58001142D01*
X118662857Y-57929714D01*
X118591428Y-57786857D01*
X118591428Y-57358285D01*
X118662857Y-57215428D01*
X118734285Y-57144000D01*
X118877142Y-57072571D01*
X119091428Y-57072571D01*
X119234285Y-57144000D01*
X119305714Y-57215428D01*
X119377142Y-57358285D01*
X119377142Y-57786857D01*
X119305714Y-57929714D01*
X119234285Y-58001142D01*
X119091428Y-58072571D01*
X118877142Y-58072571D01*
X119805714Y-57072571D02*
X120377142Y-57072571D01*
X120020000Y-56572571D02*
X120020000Y-57858285D01*
X120091428Y-58001142D01*
X120234285Y-58072571D01*
X120377142Y-58072571D01*
X121091428Y-58072571D02*
X120948571Y-58001142D01*
X120877142Y-57929714D01*
X120805714Y-57786857D01*
X120805714Y-57358285D01*
X120877142Y-57215428D01*
X120948571Y-57144000D01*
X121091428Y-57072571D01*
X121305714Y-57072571D01*
X121448571Y-57144000D01*
X121520000Y-57215428D01*
X121591428Y-57358285D01*
X121591428Y-57786857D01*
X121520000Y-57929714D01*
X121448571Y-58001142D01*
X121305714Y-58072571D01*
X121091428Y-58072571D01*
X122234285Y-58072571D02*
X122234285Y-57072571D01*
X122234285Y-57358285D02*
X122305714Y-57215428D01*
X122377142Y-57144000D01*
X122520000Y-57072571D01*
X122662857Y-57072571D01*
X124091428Y-56572571D02*
X124948571Y-56572571D01*
X124520000Y-58072571D02*
X124520000Y-56572571D01*
X126020000Y-58001142D02*
X125877142Y-58072571D01*
X125591428Y-58072571D01*
X125448571Y-58001142D01*
X125377142Y-57858285D01*
X125377142Y-57286857D01*
X125448571Y-57144000D01*
X125591428Y-57072571D01*
X125877142Y-57072571D01*
X126020000Y-57144000D01*
X126091428Y-57286857D01*
X126091428Y-57429714D01*
X125377142Y-57572571D01*
X126662857Y-58001142D02*
X126805714Y-58072571D01*
X127091428Y-58072571D01*
X127234285Y-58001142D01*
X127305714Y-57858285D01*
X127305714Y-57786857D01*
X127234285Y-57644000D01*
X127091428Y-57572571D01*
X126877142Y-57572571D01*
X126734285Y-57501142D01*
X126662857Y-57358285D01*
X126662857Y-57286857D01*
X126734285Y-57144000D01*
X126877142Y-57072571D01*
X127091428Y-57072571D01*
X127234285Y-57144000D01*
X127734285Y-57072571D02*
X128305714Y-57072571D01*
X127948571Y-56572571D02*
X127948571Y-57858285D01*
X128020000Y-58001142D01*
X128162857Y-58072571D01*
X128305714Y-58072571D01*
X130448571Y-57286857D02*
X130662857Y-57358285D01*
X130734285Y-57429714D01*
X130805714Y-57572571D01*
X130805714Y-57786857D01*
X130734285Y-57929714D01*
X130662857Y-58001142D01*
X130520000Y-58072571D01*
X129948571Y-58072571D01*
X129948571Y-56572571D01*
X130448571Y-56572571D01*
X130591428Y-56644000D01*
X130662857Y-56715428D01*
X130734285Y-56858285D01*
X130734285Y-57001142D01*
X130662857Y-57144000D01*
X130591428Y-57215428D01*
X130448571Y-57286857D01*
X129948571Y-57286857D01*
X131662857Y-58072571D02*
X131520000Y-58001142D01*
X131448571Y-57929714D01*
X131377142Y-57786857D01*
X131377142Y-57358285D01*
X131448571Y-57215428D01*
X131520000Y-57144000D01*
X131662857Y-57072571D01*
X131877142Y-57072571D01*
X132020000Y-57144000D01*
X132091428Y-57215428D01*
X132162857Y-57358285D01*
X132162857Y-57786857D01*
X132091428Y-57929714D01*
X132020000Y-58001142D01*
X131877142Y-58072571D01*
X131662857Y-58072571D01*
X133448571Y-58072571D02*
X133448571Y-57286857D01*
X133377142Y-57144000D01*
X133234285Y-57072571D01*
X132948571Y-57072571D01*
X132805714Y-57144000D01*
X133448571Y-58001142D02*
X133305714Y-58072571D01*
X132948571Y-58072571D01*
X132805714Y-58001142D01*
X132734285Y-57858285D01*
X132734285Y-57715428D01*
X132805714Y-57572571D01*
X132948571Y-57501142D01*
X133305714Y-57501142D01*
X133448571Y-57429714D01*
X134162857Y-58072571D02*
X134162857Y-57072571D01*
X134162857Y-57358285D02*
X134234285Y-57215428D01*
X134305714Y-57144000D01*
X134448571Y-57072571D01*
X134591428Y-57072571D01*
X135734285Y-58072571D02*
X135734285Y-56572571D01*
X135734285Y-58001142D02*
X135591428Y-58072571D01*
X135305714Y-58072571D01*
X135162857Y-58001142D01*
X135091428Y-57929714D01*
X135020000Y-57786857D01*
X135020000Y-57358285D01*
X135091428Y-57215428D01*
X135162857Y-57144000D01*
X135305714Y-57072571D01*
X135591428Y-57072571D01*
X135734285Y-57144000D01*
X137377142Y-56572571D02*
X137877142Y-58072571D01*
X138377142Y-56572571D01*
X139662857Y-58072571D02*
X138805714Y-58072571D01*
X139234285Y-58072571D02*
X139234285Y-56572571D01*
X139091428Y-56786857D01*
X138948571Y-56929714D01*
X138805714Y-57001142D01*
X112269999Y-60622571D02*
X112269999Y-59122571D01*
X112627142Y-59122571D01*
X112841428Y-59194000D01*
X112984285Y-59336857D01*
X113055714Y-59479714D01*
X113127142Y-59765428D01*
X113127142Y-59979714D01*
X113055714Y-60265428D01*
X112984285Y-60408285D01*
X112841428Y-60551142D01*
X112627142Y-60622571D01*
X112269999Y-60622571D01*
X114341428Y-60551142D02*
X114198571Y-60622571D01*
X113912857Y-60622571D01*
X113769999Y-60551142D01*
X113698571Y-60408285D01*
X113698571Y-59836857D01*
X113769999Y-59694000D01*
X113912857Y-59622571D01*
X114198571Y-59622571D01*
X114341428Y-59694000D01*
X114412857Y-59836857D01*
X114412857Y-59979714D01*
X113698571Y-60122571D01*
X114984285Y-60551142D02*
X115127142Y-60622571D01*
X115412857Y-60622571D01*
X115555714Y-60551142D01*
X115627142Y-60408285D01*
X115627142Y-60336857D01*
X115555714Y-60194000D01*
X115412857Y-60122571D01*
X115198571Y-60122571D01*
X115055714Y-60051142D01*
X114984285Y-59908285D01*
X114984285Y-59836857D01*
X115055714Y-59694000D01*
X115198571Y-59622571D01*
X115412857Y-59622571D01*
X115555714Y-59694000D01*
X116269999Y-60622571D02*
X116269999Y-59622571D01*
X116269999Y-59122571D02*
X116198571Y-59194000D01*
X116269999Y-59265428D01*
X116341428Y-59194000D01*
X116269999Y-59122571D01*
X116269999Y-59265428D01*
X117627142Y-59622571D02*
X117627142Y-60836857D01*
X117555714Y-60979714D01*
X117484285Y-61051142D01*
X117341428Y-61122571D01*
X117127142Y-61122571D01*
X116984285Y-61051142D01*
X117627142Y-60551142D02*
X117484285Y-60622571D01*
X117198571Y-60622571D01*
X117055714Y-60551142D01*
X116984285Y-60479714D01*
X116912857Y-60336857D01*
X116912857Y-59908285D01*
X116984285Y-59765428D01*
X117055714Y-59694000D01*
X117198571Y-59622571D01*
X117484285Y-59622571D01*
X117627142Y-59694000D01*
X118341428Y-59622571D02*
X118341428Y-60622571D01*
X118341428Y-59765428D02*
X118412857Y-59694000D01*
X118555714Y-59622571D01*
X118769999Y-59622571D01*
X118912857Y-59694000D01*
X118984285Y-59836857D01*
X118984285Y-60622571D01*
X120270000Y-60551142D02*
X120127142Y-60622571D01*
X119841428Y-60622571D01*
X119698571Y-60551142D01*
X119627142Y-60408285D01*
X119627142Y-59836857D01*
X119698571Y-59694000D01*
X119841428Y-59622571D01*
X120127142Y-59622571D01*
X120270000Y-59694000D01*
X120341428Y-59836857D01*
X120341428Y-59979714D01*
X119627142Y-60122571D01*
X121627142Y-60622571D02*
X121627142Y-59122571D01*
X121627142Y-60551142D02*
X121484285Y-60622571D01*
X121198571Y-60622571D01*
X121055714Y-60551142D01*
X120984285Y-60479714D01*
X120912857Y-60336857D01*
X120912857Y-59908285D01*
X120984285Y-59765428D01*
X121055714Y-59694000D01*
X121198571Y-59622571D01*
X121484285Y-59622571D01*
X121627142Y-59694000D01*
X123484285Y-60622571D02*
X123484285Y-59122571D01*
X123484285Y-59694000D02*
X123627142Y-59622571D01*
X123912857Y-59622571D01*
X124055714Y-59694000D01*
X124127142Y-59765428D01*
X124198571Y-59908285D01*
X124198571Y-60336857D01*
X124127142Y-60479714D01*
X124055714Y-60551142D01*
X123912857Y-60622571D01*
X123627142Y-60622571D01*
X123484285Y-60551142D01*
X124698571Y-59622571D02*
X125055714Y-60622571D01*
X125412857Y-59622571D02*
X125055714Y-60622571D01*
X124912857Y-60979714D01*
X124841428Y-61051142D01*
X124698571Y-61122571D01*
X127984285Y-60479714D02*
X127912857Y-60551142D01*
X127698571Y-60622571D01*
X127555714Y-60622571D01*
X127341428Y-60551142D01*
X127198571Y-60408285D01*
X127127142Y-60265428D01*
X127055714Y-59979714D01*
X127055714Y-59765428D01*
X127127142Y-59479714D01*
X127198571Y-59336857D01*
X127341428Y-59194000D01*
X127555714Y-59122571D01*
X127698571Y-59122571D01*
X127912857Y-59194000D01*
X127984285Y-59265428D01*
X129269999Y-60622571D02*
X129269999Y-59836857D01*
X129198571Y-59694000D01*
X129055714Y-59622571D01*
X128769999Y-59622571D01*
X128627142Y-59694000D01*
X129269999Y-60551142D02*
X129127142Y-60622571D01*
X128769999Y-60622571D01*
X128627142Y-60551142D01*
X128555714Y-60408285D01*
X128555714Y-60265428D01*
X128627142Y-60122571D01*
X128769999Y-60051142D01*
X129127142Y-60051142D01*
X129269999Y-59979714D01*
X129984285Y-60622571D02*
X129984285Y-59622571D01*
X129984285Y-59765428D02*
X130055714Y-59694000D01*
X130198571Y-59622571D01*
X130412857Y-59622571D01*
X130555714Y-59694000D01*
X130627142Y-59836857D01*
X130627142Y-60622571D01*
X130627142Y-59836857D02*
X130698571Y-59694000D01*
X130841428Y-59622571D01*
X131055714Y-59622571D01*
X131198571Y-59694000D01*
X131269999Y-59836857D01*
X131269999Y-60622571D01*
X132555714Y-60551142D02*
X132412857Y-60622571D01*
X132127142Y-60622571D01*
X131984285Y-60551142D01*
X131912857Y-60408285D01*
X131912857Y-59836857D01*
X131984285Y-59694000D01*
X132127142Y-59622571D01*
X132412857Y-59622571D01*
X132555714Y-59694000D01*
X132627142Y-59836857D01*
X132627142Y-59979714D01*
X131912857Y-60122571D01*
X133270000Y-60622571D02*
X133270000Y-59622571D01*
X133270000Y-59908285D02*
X133341428Y-59765428D01*
X133412857Y-59694000D01*
X133555714Y-59622571D01*
X133698571Y-59622571D01*
X134412857Y-60622571D02*
X134270000Y-60551142D01*
X134198571Y-60479714D01*
X134127142Y-60336857D01*
X134127142Y-59908285D01*
X134198571Y-59765428D01*
X134270000Y-59694000D01*
X134412857Y-59622571D01*
X134627142Y-59622571D01*
X134770000Y-59694000D01*
X134841428Y-59765428D01*
X134912857Y-59908285D01*
X134912857Y-60336857D01*
X134841428Y-60479714D01*
X134770000Y-60551142D01*
X134627142Y-60622571D01*
X134412857Y-60622571D01*
X135555714Y-59622571D02*
X135555714Y-60622571D01*
X135555714Y-59765428D02*
X135627142Y-59694000D01*
X135770000Y-59622571D01*
X135984285Y-59622571D01*
X136127142Y-59694000D01*
X136198571Y-59836857D01*
X136198571Y-60622571D01*
X138055714Y-60622571D02*
X138055714Y-59122571D01*
X138912857Y-60622571D02*
X138270000Y-59765428D01*
X138912857Y-59122571D02*
X138055714Y-59979714D01*
X139555714Y-59622571D02*
X139555714Y-60622571D01*
X139555714Y-59765428D02*
X139627142Y-59694000D01*
X139770000Y-59622571D01*
X139984285Y-59622571D01*
X140127142Y-59694000D01*
X140198571Y-59836857D01*
X140198571Y-60622571D01*
X141555714Y-60622571D02*
X141555714Y-59836857D01*
X141484285Y-59694000D01*
X141341428Y-59622571D01*
X141055714Y-59622571D01*
X140912857Y-59694000D01*
X141555714Y-60551142D02*
X141412857Y-60622571D01*
X141055714Y-60622571D01*
X140912857Y-60551142D01*
X140841428Y-60408285D01*
X140841428Y-60265428D01*
X140912857Y-60122571D01*
X141055714Y-60051142D01*
X141412857Y-60051142D01*
X141555714Y-59979714D01*
X142270000Y-59622571D02*
X142270000Y-61122571D01*
X142270000Y-59694000D02*
X142412857Y-59622571D01*
X142698571Y-59622571D01*
X142841428Y-59694000D01*
X142912857Y-59765428D01*
X142984285Y-59908285D01*
X142984285Y-60336857D01*
X142912857Y-60479714D01*
X142841428Y-60551142D01*
X142698571Y-60622571D01*
X142412857Y-60622571D01*
X142270000Y-60551142D01*
X143627142Y-59622571D02*
X143627142Y-61122571D01*
X143627142Y-59694000D02*
X143770000Y-59622571D01*
X144055714Y-59622571D01*
X144198571Y-59694000D01*
X144270000Y-59765428D01*
X144341428Y-59908285D01*
X144341428Y-60336857D01*
X144270000Y-60479714D01*
X144198571Y-60551142D01*
X144055714Y-60622571D01*
X143770000Y-60622571D01*
X143627142Y-60551142D01*
X121234285Y-63172571D02*
X121234285Y-61672571D01*
X121734285Y-62744000D01*
X122234285Y-61672571D01*
X122234285Y-63172571D01*
X122948571Y-63172571D02*
X122948571Y-62172571D01*
X122948571Y-61672571D02*
X122877142Y-61744000D01*
X122948571Y-61815428D01*
X123020000Y-61744000D01*
X122948571Y-61672571D01*
X122948571Y-61815428D01*
X123591428Y-63101142D02*
X123734285Y-63172571D01*
X124020000Y-63172571D01*
X124162857Y-63101142D01*
X124234285Y-62958285D01*
X124234285Y-62886857D01*
X124162857Y-62744000D01*
X124020000Y-62672571D01*
X123805714Y-62672571D01*
X123662857Y-62601142D01*
X123591428Y-62458285D01*
X123591428Y-62386857D01*
X123662857Y-62244000D01*
X123805714Y-62172571D01*
X124020000Y-62172571D01*
X124162857Y-62244000D01*
X124805714Y-63101142D02*
X124948571Y-63172571D01*
X125234285Y-63172571D01*
X125377142Y-63101142D01*
X125448571Y-62958285D01*
X125448571Y-62886857D01*
X125377142Y-62744000D01*
X125234285Y-62672571D01*
X125020000Y-62672571D01*
X124877142Y-62601142D01*
X124805714Y-62458285D01*
X124805714Y-62386857D01*
X124877142Y-62244000D01*
X125020000Y-62172571D01*
X125234285Y-62172571D01*
X125377142Y-62244000D01*
X126305714Y-63172571D02*
X126162857Y-63101142D01*
X126091428Y-63029714D01*
X126020000Y-62886857D01*
X126020000Y-62458285D01*
X126091428Y-62315428D01*
X126162857Y-62244000D01*
X126305714Y-62172571D01*
X126520000Y-62172571D01*
X126662857Y-62244000D01*
X126734285Y-62315428D01*
X126805714Y-62458285D01*
X126805714Y-62886857D01*
X126734285Y-63029714D01*
X126662857Y-63101142D01*
X126520000Y-63172571D01*
X126305714Y-63172571D01*
X128091428Y-62172571D02*
X128091428Y-63172571D01*
X127448571Y-62172571D02*
X127448571Y-62958285D01*
X127520000Y-63101142D01*
X127662857Y-63172571D01*
X127877142Y-63172571D01*
X128020000Y-63101142D01*
X128091428Y-63029714D01*
X128805714Y-63172571D02*
X128805714Y-62172571D01*
X128805714Y-62458285D02*
X128877142Y-62315428D01*
X128948571Y-62244000D01*
X129091428Y-62172571D01*
X129234285Y-62172571D01*
X129734285Y-63172571D02*
X129734285Y-62172571D01*
X129734285Y-61672571D02*
X129662857Y-61744000D01*
X129734285Y-61815428D01*
X129805714Y-61744000D01*
X129734285Y-61672571D01*
X129734285Y-61815428D01*
X131520000Y-63101142D02*
X131734285Y-63172571D01*
X132091428Y-63172571D01*
X132234285Y-63101142D01*
X132305714Y-63029714D01*
X132377142Y-62886857D01*
X132377142Y-62744000D01*
X132305714Y-62601142D01*
X132234285Y-62529714D01*
X132091428Y-62458285D01*
X131805714Y-62386857D01*
X131662857Y-62315428D01*
X131591428Y-62244000D01*
X131520000Y-62101142D01*
X131520000Y-61958285D01*
X131591428Y-61815428D01*
X131662857Y-61744000D01*
X131805714Y-61672571D01*
X132162857Y-61672571D01*
X132377142Y-61744000D01*
X134234285Y-63172571D02*
X134162857Y-63172571D01*
X134020000Y-63101142D01*
X133805714Y-62886857D01*
X133448571Y-62458285D01*
X133305714Y-62244000D01*
X133234285Y-62029714D01*
X133234285Y-61886857D01*
X133305714Y-61744000D01*
X133448571Y-61672571D01*
X133520000Y-61672571D01*
X133662857Y-61744000D01*
X133734285Y-61886857D01*
X133734285Y-61958285D01*
X133662857Y-62101142D01*
X133591428Y-62172571D01*
X133162857Y-62458285D01*
X133091428Y-62529714D01*
X133020000Y-62672571D01*
X133020000Y-62886857D01*
X133091428Y-63029714D01*
X133162857Y-63101142D01*
X133305714Y-63172571D01*
X133520000Y-63172571D01*
X133662857Y-63101142D01*
X133734285Y-63029714D01*
X133948571Y-62744000D01*
X134020000Y-62529714D01*
X134020000Y-62386857D01*
X134662857Y-61672571D02*
X135520000Y-61672571D01*
X135091428Y-63172571D02*
X135091428Y-61672571D01*
X170970000Y-70385714D02*
X170898571Y-70457142D01*
X170684285Y-70528571D01*
X170541428Y-70528571D01*
X170327142Y-70457142D01*
X170184285Y-70314285D01*
X170112857Y-70171428D01*
X170041428Y-69885714D01*
X170041428Y-69671428D01*
X170112857Y-69385714D01*
X170184285Y-69242857D01*
X170327142Y-69100000D01*
X170541428Y-69028571D01*
X170684285Y-69028571D01*
X170898571Y-69100000D01*
X170970000Y-69171428D01*
X171541428Y-70100000D02*
X172255714Y-70100000D01*
X171398571Y-70528571D02*
X171898571Y-69028571D01*
X172398571Y-70528571D01*
X172898571Y-70528571D02*
X172898571Y-69028571D01*
X173755714Y-70528571D01*
X173755714Y-69028571D01*
X174470000Y-70528571D02*
X174470000Y-69028571D01*
X174470000Y-69742857D02*
X175327142Y-69742857D01*
X175327142Y-70528571D02*
X175327142Y-69028571D01*
X178260571Y-79656714D02*
X178189142Y-79728142D01*
X177974857Y-79799571D01*
X177832000Y-79799571D01*
X177617714Y-79728142D01*
X177474857Y-79585285D01*
X177403428Y-79442428D01*
X177332000Y-79156714D01*
X177332000Y-78942428D01*
X177403428Y-78656714D01*
X177474857Y-78513857D01*
X177617714Y-78371000D01*
X177832000Y-78299571D01*
X177974857Y-78299571D01*
X178189142Y-78371000D01*
X178260571Y-78442428D01*
X178832000Y-79371000D02*
X179546285Y-79371000D01*
X178689142Y-79799571D02*
X179189142Y-78299571D01*
X179689142Y-79799571D01*
X180189142Y-79799571D02*
X180189142Y-78299571D01*
X181046285Y-79799571D01*
X181046285Y-78299571D01*
X182474857Y-79799571D02*
X181760571Y-79799571D01*
X181760571Y-78299571D01*
X177375428Y-95186571D02*
X178089714Y-94686571D01*
X177375428Y-94329428D02*
X178875428Y-94329428D01*
X178875428Y-94900857D01*
X178804000Y-95043714D01*
X178732571Y-95115142D01*
X178589714Y-95186571D01*
X178375428Y-95186571D01*
X178232571Y-95115142D01*
X178161142Y-95043714D01*
X178089714Y-94900857D01*
X178089714Y-94329428D01*
X177446857Y-95758000D02*
X177375428Y-95900857D01*
X177375428Y-96186571D01*
X177446857Y-96329428D01*
X177589714Y-96400857D01*
X177661142Y-96400857D01*
X177804000Y-96329428D01*
X177875428Y-96186571D01*
X177875428Y-95972285D01*
X177946857Y-95829428D01*
X178089714Y-95758000D01*
X178161142Y-95758000D01*
X178304000Y-95829428D01*
X178375428Y-95972285D01*
X178375428Y-96186571D01*
X178304000Y-96329428D01*
X178375428Y-96829428D02*
X178375428Y-97400857D01*
X178875428Y-97043714D02*
X177589714Y-97043714D01*
X177446857Y-97115142D01*
X177375428Y-97258000D01*
X177375428Y-97400857D01*
X174652857Y-94337428D02*
X174581428Y-94551714D01*
X174581428Y-94908857D01*
X174652857Y-95051714D01*
X174724285Y-95123142D01*
X174867142Y-95194571D01*
X175010000Y-95194571D01*
X175152857Y-95123142D01*
X175224285Y-95051714D01*
X175295714Y-94908857D01*
X175367142Y-94623142D01*
X175438571Y-94480285D01*
X175510000Y-94408857D01*
X175652857Y-94337428D01*
X175795714Y-94337428D01*
X175938571Y-94408857D01*
X176010000Y-94480285D01*
X176081428Y-94623142D01*
X176081428Y-94980285D01*
X176010000Y-95194571D01*
X174724285Y-96694571D02*
X174652857Y-96623142D01*
X174581428Y-96408857D01*
X174581428Y-96266000D01*
X174652857Y-96051714D01*
X174795714Y-95908857D01*
X174938571Y-95837428D01*
X175224285Y-95766000D01*
X175438571Y-95766000D01*
X175724285Y-95837428D01*
X175867142Y-95908857D01*
X176010000Y-96051714D01*
X176081428Y-96266000D01*
X176081428Y-96408857D01*
X176010000Y-96623142D01*
X175938571Y-96694571D01*
X174581428Y-97337428D02*
X176081428Y-97337428D01*
X174581428Y-98194571D02*
X175438571Y-97551714D01*
X176081428Y-98194571D02*
X175224285Y-97337428D01*
X171985857Y-94234142D02*
X171914428Y-94448428D01*
X171914428Y-94805571D01*
X171985857Y-94948428D01*
X172057285Y-95019857D01*
X172200142Y-95091285D01*
X172343000Y-95091285D01*
X172485857Y-95019857D01*
X172557285Y-94948428D01*
X172628714Y-94805571D01*
X172700142Y-94519857D01*
X172771571Y-94377000D01*
X172843000Y-94305571D01*
X172985857Y-94234142D01*
X173128714Y-94234142D01*
X173271571Y-94305571D01*
X173343000Y-94377000D01*
X173414428Y-94519857D01*
X173414428Y-94877000D01*
X173343000Y-95091285D01*
X173414428Y-96019857D02*
X173414428Y-96162714D01*
X173343000Y-96305571D01*
X173271571Y-96377000D01*
X173128714Y-96448428D01*
X172843000Y-96519857D01*
X172485857Y-96519857D01*
X172200142Y-96448428D01*
X172057285Y-96377000D01*
X171985857Y-96305571D01*
X171914428Y-96162714D01*
X171914428Y-96019857D01*
X171985857Y-95877000D01*
X172057285Y-95805571D01*
X172200142Y-95734142D01*
X172485857Y-95662714D01*
X172843000Y-95662714D01*
X173128714Y-95734142D01*
X173271571Y-95805571D01*
X173343000Y-95877000D01*
X173414428Y-96019857D01*
X178550000Y-84074142D02*
X178621428Y-83931285D01*
X178621428Y-83717000D01*
X178550000Y-83502714D01*
X178407142Y-83359857D01*
X178264285Y-83288428D01*
X177978571Y-83217000D01*
X177764285Y-83217000D01*
X177478571Y-83288428D01*
X177335714Y-83359857D01*
X177192857Y-83502714D01*
X177121428Y-83717000D01*
X177121428Y-83859857D01*
X177192857Y-84074142D01*
X177264285Y-84145571D01*
X177764285Y-84145571D01*
X177764285Y-83859857D01*
X177121428Y-84788428D02*
X178621428Y-84788428D01*
X177121428Y-85645571D01*
X178621428Y-85645571D01*
X177121428Y-86359857D02*
X178621428Y-86359857D01*
X178621428Y-86717000D01*
X178550000Y-86931285D01*
X178407142Y-87074142D01*
X178264285Y-87145571D01*
X177978571Y-87217000D01*
X177764285Y-87217000D01*
X177478571Y-87145571D01*
X177335714Y-87074142D01*
X177192857Y-86931285D01*
X177121428Y-86717000D01*
X177121428Y-86359857D01*
X174525857Y-85193285D02*
X174454428Y-85407571D01*
X174454428Y-85764714D01*
X174525857Y-85907571D01*
X174597285Y-85979000D01*
X174740142Y-86050428D01*
X174883000Y-86050428D01*
X175025857Y-85979000D01*
X175097285Y-85907571D01*
X175168714Y-85764714D01*
X175240142Y-85479000D01*
X175311571Y-85336142D01*
X175383000Y-85264714D01*
X175525857Y-85193285D01*
X175668714Y-85193285D01*
X175811571Y-85264714D01*
X175883000Y-85336142D01*
X175954428Y-85479000D01*
X175954428Y-85836142D01*
X175883000Y-86050428D01*
X174454428Y-86693285D02*
X175954428Y-86693285D01*
X172906428Y-83344000D02*
X171406428Y-83844000D01*
X172906428Y-84344000D01*
X171406428Y-84844000D02*
X172906428Y-84844000D01*
X172906428Y-85415428D01*
X172835000Y-85558285D01*
X172763571Y-85629714D01*
X172620714Y-85701142D01*
X172406428Y-85701142D01*
X172263571Y-85629714D01*
X172192142Y-85558285D01*
X172120714Y-85415428D01*
X172120714Y-84844000D01*
X171406428Y-86344000D02*
X172906428Y-86344000D01*
X172906428Y-86915428D01*
X172835000Y-87058285D01*
X172763571Y-87129714D01*
X172620714Y-87201142D01*
X172406428Y-87201142D01*
X172263571Y-87129714D01*
X172192142Y-87058285D01*
X172120714Y-86915428D01*
X172120714Y-86344000D01*
X158738000Y-116840142D02*
X158809428Y-116697285D01*
X158809428Y-116483000D01*
X158738000Y-116268714D01*
X158595142Y-116125857D01*
X158452285Y-116054428D01*
X158166571Y-115983000D01*
X157952285Y-115983000D01*
X157666571Y-116054428D01*
X157523714Y-116125857D01*
X157380857Y-116268714D01*
X157309428Y-116483000D01*
X157309428Y-116625857D01*
X157380857Y-116840142D01*
X157452285Y-116911571D01*
X157952285Y-116911571D01*
X157952285Y-116625857D01*
X157309428Y-117554428D02*
X158809428Y-117554428D01*
X157309428Y-118411571D01*
X158809428Y-118411571D01*
X157309428Y-119125857D02*
X158809428Y-119125857D01*
X158809428Y-119483000D01*
X158738000Y-119697285D01*
X158595142Y-119840142D01*
X158452285Y-119911571D01*
X158166571Y-119983000D01*
X157952285Y-119983000D01*
X157666571Y-119911571D01*
X157523714Y-119840142D01*
X157380857Y-119697285D01*
X157309428Y-119483000D01*
X157309428Y-119125857D01*
X156396428Y-117328285D02*
X156396428Y-118185428D01*
X154896428Y-117756857D02*
X156396428Y-117756857D01*
X154896428Y-118542571D02*
X155896428Y-119328285D01*
X155896428Y-118542571D02*
X154896428Y-119328285D01*
X152356428Y-117840142D02*
X153070714Y-117340142D01*
X152356428Y-116983000D02*
X153856428Y-116983000D01*
X153856428Y-117554428D01*
X153785000Y-117697285D01*
X153713571Y-117768714D01*
X153570714Y-117840142D01*
X153356428Y-117840142D01*
X153213571Y-117768714D01*
X153142142Y-117697285D01*
X153070714Y-117554428D01*
X153070714Y-116983000D01*
X152356428Y-118340142D02*
X153356428Y-119125857D01*
X153356428Y-118340142D02*
X152356428Y-119125857D01*
X149816428Y-117284571D02*
X150530714Y-116784571D01*
X149816428Y-116427428D02*
X151316428Y-116427428D01*
X151316428Y-116998857D01*
X151245000Y-117141714D01*
X151173571Y-117213142D01*
X151030714Y-117284571D01*
X150816428Y-117284571D01*
X150673571Y-117213142D01*
X150602142Y-117141714D01*
X150530714Y-116998857D01*
X150530714Y-116427428D01*
X149887857Y-117856000D02*
X149816428Y-117998857D01*
X149816428Y-118284571D01*
X149887857Y-118427428D01*
X150030714Y-118498857D01*
X150102142Y-118498857D01*
X150245000Y-118427428D01*
X150316428Y-118284571D01*
X150316428Y-118070285D01*
X150387857Y-117927428D01*
X150530714Y-117856000D01*
X150602142Y-117856000D01*
X150745000Y-117927428D01*
X150816428Y-118070285D01*
X150816428Y-118284571D01*
X150745000Y-118427428D01*
X150816428Y-118927428D02*
X150816428Y-119498857D01*
X151316428Y-119141714D02*
X150030714Y-119141714D01*
X149887857Y-119213142D01*
X149816428Y-119356000D01*
X149816428Y-119498857D01*
X148776428Y-115983000D02*
X147276428Y-116483000D01*
X148776428Y-116983000D01*
X147276428Y-117483000D02*
X148776428Y-117483000D01*
X148776428Y-118054428D01*
X148705000Y-118197285D01*
X148633571Y-118268714D01*
X148490714Y-118340142D01*
X148276428Y-118340142D01*
X148133571Y-118268714D01*
X148062142Y-118197285D01*
X147990714Y-118054428D01*
X147990714Y-117483000D01*
X147276428Y-118983000D02*
X148776428Y-118983000D01*
X148776428Y-119554428D01*
X148705000Y-119697285D01*
X148633571Y-119768714D01*
X148490714Y-119840142D01*
X148276428Y-119840142D01*
X148133571Y-119768714D01*
X148062142Y-119697285D01*
X147990714Y-119554428D01*
X147990714Y-118983000D01*
X89416285Y-117066142D02*
X89630571Y-117137571D01*
X89987714Y-117137571D01*
X90130571Y-117066142D01*
X90202000Y-116994714D01*
X90273428Y-116851857D01*
X90273428Y-116709000D01*
X90202000Y-116566142D01*
X90130571Y-116494714D01*
X89987714Y-116423285D01*
X89702000Y-116351857D01*
X89559142Y-116280428D01*
X89487714Y-116209000D01*
X89416285Y-116066142D01*
X89416285Y-115923285D01*
X89487714Y-115780428D01*
X89559142Y-115709000D01*
X89702000Y-115637571D01*
X90059142Y-115637571D01*
X90273428Y-115709000D01*
X91487714Y-117066142D02*
X91344857Y-117137571D01*
X91059142Y-117137571D01*
X90916285Y-117066142D01*
X90844857Y-116923285D01*
X90844857Y-116351857D01*
X90916285Y-116209000D01*
X91059142Y-116137571D01*
X91344857Y-116137571D01*
X91487714Y-116209000D01*
X91559142Y-116351857D01*
X91559142Y-116494714D01*
X90844857Y-116637571D01*
X92202000Y-117137571D02*
X92202000Y-116137571D01*
X92202000Y-116423285D02*
X92273428Y-116280428D01*
X92344857Y-116209000D01*
X92487714Y-116137571D01*
X92630571Y-116137571D01*
X92987714Y-116137571D02*
X93344857Y-117137571D01*
X93702000Y-116137571D01*
X94487714Y-117137571D02*
X94344857Y-117066142D01*
X94273428Y-116994714D01*
X94202000Y-116851857D01*
X94202000Y-116423285D01*
X94273428Y-116280428D01*
X94344857Y-116209000D01*
X94487714Y-116137571D01*
X94702000Y-116137571D01*
X94844857Y-116209000D01*
X94916285Y-116280428D01*
X94987714Y-116423285D01*
X94987714Y-116851857D01*
X94916285Y-116994714D01*
X94844857Y-117066142D01*
X94702000Y-117137571D01*
X94487714Y-117137571D01*
X85213428Y-118797571D02*
X84499142Y-118797571D01*
X84427714Y-119511857D01*
X84499142Y-119440428D01*
X84642000Y-119369000D01*
X84999142Y-119369000D01*
X85142000Y-119440428D01*
X85213428Y-119511857D01*
X85284857Y-119654714D01*
X85284857Y-120011857D01*
X85213428Y-120154714D01*
X85142000Y-120226142D01*
X84999142Y-120297571D01*
X84642000Y-120297571D01*
X84499142Y-120226142D01*
X84427714Y-120154714D01*
X85784857Y-119297571D02*
X86142000Y-120297571D01*
X86499142Y-119297571D01*
X90856285Y-120797571D02*
X90856285Y-118654714D01*
X92927714Y-120297571D02*
X93713428Y-119297571D01*
X92927714Y-119297571D02*
X93713428Y-120297571D01*
X84427714Y-122776142D02*
X84570571Y-122847571D01*
X84856285Y-122847571D01*
X84999142Y-122776142D01*
X85070571Y-122633285D01*
X85070571Y-122561857D01*
X84999142Y-122419000D01*
X84856285Y-122347571D01*
X84642000Y-122347571D01*
X84499142Y-122276142D01*
X84427714Y-122133285D01*
X84427714Y-122061857D01*
X84499142Y-121919000D01*
X84642000Y-121847571D01*
X84856285Y-121847571D01*
X84999142Y-121919000D01*
X86284857Y-122776142D02*
X86142000Y-122847571D01*
X85856285Y-122847571D01*
X85713428Y-122776142D01*
X85642000Y-122633285D01*
X85642000Y-122061857D01*
X85713428Y-121919000D01*
X85856285Y-121847571D01*
X86142000Y-121847571D01*
X86284857Y-121919000D01*
X86356285Y-122061857D01*
X86356285Y-122204714D01*
X85642000Y-122347571D01*
X86999142Y-122847571D02*
X86999142Y-121847571D01*
X86999142Y-122133285D02*
X87070571Y-121990428D01*
X87142000Y-121919000D01*
X87284857Y-121847571D01*
X87427714Y-121847571D01*
X87784857Y-121847571D02*
X88142000Y-122847571D01*
X88499142Y-121847571D01*
X89284857Y-122847571D02*
X89142000Y-122776142D01*
X89070571Y-122704714D01*
X88999142Y-122561857D01*
X88999142Y-122133285D01*
X89070571Y-121990428D01*
X89142000Y-121919000D01*
X89284857Y-121847571D01*
X89499142Y-121847571D01*
X89642000Y-121919000D01*
X89713428Y-121990428D01*
X89784857Y-122133285D01*
X89784857Y-122561857D01*
X89713428Y-122704714D01*
X89642000Y-122776142D01*
X89499142Y-122847571D01*
X89284857Y-122847571D01*
X90784857Y-123347571D02*
X90784857Y-121204714D01*
X92642000Y-121419000D02*
X92499142Y-121347571D01*
X92284857Y-121347571D01*
X92070571Y-121419000D01*
X91927714Y-121561857D01*
X91856285Y-121704714D01*
X91784857Y-121990428D01*
X91784857Y-122204714D01*
X91856285Y-122490428D01*
X91927714Y-122633285D01*
X92070571Y-122776142D01*
X92284857Y-122847571D01*
X92427714Y-122847571D01*
X92642000Y-122776142D01*
X92713428Y-122704714D01*
X92713428Y-122204714D01*
X92427714Y-122204714D01*
X93356285Y-122847571D02*
X93356285Y-121347571D01*
X94213428Y-122847571D01*
X94213428Y-121347571D01*
X94927714Y-122847571D02*
X94927714Y-121347571D01*
X95284857Y-121347571D01*
X95499142Y-121419000D01*
X95642000Y-121561857D01*
X95713428Y-121704714D01*
X95784857Y-121990428D01*
X95784857Y-122204714D01*
X95713428Y-122490428D01*
X95642000Y-122633285D01*
X95499142Y-122776142D01*
X95284857Y-122847571D01*
X94927714Y-122847571D01*
X85284857Y-123969000D02*
X85142000Y-123897571D01*
X84927714Y-123897571D01*
X84713428Y-123969000D01*
X84570571Y-124111857D01*
X84499142Y-124254714D01*
X84427714Y-124540428D01*
X84427714Y-124754714D01*
X84499142Y-125040428D01*
X84570571Y-125183285D01*
X84713428Y-125326142D01*
X84927714Y-125397571D01*
X85070571Y-125397571D01*
X85284857Y-125326142D01*
X85356285Y-125254714D01*
X85356285Y-124754714D01*
X85070571Y-124754714D01*
X85999142Y-125397571D02*
X85999142Y-123897571D01*
X86856285Y-125397571D01*
X86856285Y-123897571D01*
X87570571Y-125397571D02*
X87570571Y-123897571D01*
X87927714Y-123897571D01*
X88142000Y-123969000D01*
X88284857Y-124111857D01*
X88356285Y-124254714D01*
X88427714Y-124540428D01*
X88427714Y-124754714D01*
X88356285Y-125040428D01*
X88284857Y-125183285D01*
X88142000Y-125326142D01*
X87927714Y-125397571D01*
X87570571Y-125397571D01*
X90570571Y-125897571D02*
X90570571Y-123754714D01*
X91642000Y-124611857D02*
X92142000Y-124611857D01*
X92356285Y-125397571D02*
X91642000Y-125397571D01*
X91642000Y-123897571D01*
X92356285Y-123897571D01*
X87784857Y-127947571D02*
X88570571Y-126947571D01*
X87784857Y-126947571D02*
X88570571Y-127947571D01*
X90642000Y-128447571D02*
X90642000Y-126304714D01*
X92427714Y-126447571D02*
X91713428Y-126447571D01*
X91642000Y-127161857D01*
X91713428Y-127090428D01*
X91856285Y-127019000D01*
X92213428Y-127019000D01*
X92356285Y-127090428D01*
X92427714Y-127161857D01*
X92499142Y-127304714D01*
X92499142Y-127661857D01*
X92427714Y-127804714D01*
X92356285Y-127876142D01*
X92213428Y-127947571D01*
X91856285Y-127947571D01*
X91713428Y-127876142D01*
X91642000Y-127804714D01*
X92999142Y-126947571D02*
X93356285Y-127947571D01*
X93713428Y-126947571D01*
X86194285Y-81379142D02*
X86408571Y-81450571D01*
X86765714Y-81450571D01*
X86908571Y-81379142D01*
X86980000Y-81307714D01*
X87051428Y-81164857D01*
X87051428Y-81022000D01*
X86980000Y-80879142D01*
X86908571Y-80807714D01*
X86765714Y-80736285D01*
X86480000Y-80664857D01*
X86337142Y-80593428D01*
X86265714Y-80522000D01*
X86194285Y-80379142D01*
X86194285Y-80236285D01*
X86265714Y-80093428D01*
X86337142Y-80022000D01*
X86480000Y-79950571D01*
X86837142Y-79950571D01*
X87051428Y-80022000D01*
X87480000Y-80450571D02*
X88051428Y-80450571D01*
X87694285Y-79950571D02*
X87694285Y-81236285D01*
X87765714Y-81379142D01*
X87908571Y-81450571D01*
X88051428Y-81450571D01*
X89122857Y-81379142D02*
X88980000Y-81450571D01*
X88694285Y-81450571D01*
X88551428Y-81379142D01*
X88480000Y-81236285D01*
X88480000Y-80664857D01*
X88551428Y-80522000D01*
X88694285Y-80450571D01*
X88980000Y-80450571D01*
X89122857Y-80522000D01*
X89194285Y-80664857D01*
X89194285Y-80807714D01*
X88480000Y-80950571D01*
X89837142Y-80450571D02*
X89837142Y-81950571D01*
X89837142Y-80522000D02*
X89980000Y-80450571D01*
X90265714Y-80450571D01*
X90408571Y-80522000D01*
X90480000Y-80593428D01*
X90551428Y-80736285D01*
X90551428Y-81164857D01*
X90480000Y-81307714D01*
X90408571Y-81379142D01*
X90265714Y-81450571D01*
X89980000Y-81450571D01*
X89837142Y-81379142D01*
X91194285Y-80450571D02*
X91194285Y-81950571D01*
X91194285Y-80522000D02*
X91337142Y-80450571D01*
X91622857Y-80450571D01*
X91765714Y-80522000D01*
X91837142Y-80593428D01*
X91908571Y-80736285D01*
X91908571Y-81164857D01*
X91837142Y-81307714D01*
X91765714Y-81379142D01*
X91622857Y-81450571D01*
X91337142Y-81450571D01*
X91194285Y-81379142D01*
X93122857Y-81379142D02*
X92980000Y-81450571D01*
X92694285Y-81450571D01*
X92551428Y-81379142D01*
X92480000Y-81236285D01*
X92480000Y-80664857D01*
X92551428Y-80522000D01*
X92694285Y-80450571D01*
X92980000Y-80450571D01*
X93122857Y-80522000D01*
X93194285Y-80664857D01*
X93194285Y-80807714D01*
X92480000Y-80950571D01*
X93837142Y-81450571D02*
X93837142Y-80450571D01*
X93837142Y-80736285D02*
X93908571Y-80593428D01*
X93980000Y-80522000D01*
X94122857Y-80450571D01*
X94265714Y-80450571D01*
X95908571Y-81450571D02*
X95908571Y-80450571D01*
X95908571Y-80593428D02*
X95980000Y-80522000D01*
X96122857Y-80450571D01*
X96337142Y-80450571D01*
X96480000Y-80522000D01*
X96551428Y-80664857D01*
X96551428Y-81450571D01*
X96551428Y-80664857D02*
X96622857Y-80522000D01*
X96765714Y-80450571D01*
X96980000Y-80450571D01*
X97122857Y-80522000D01*
X97194285Y-80664857D01*
X97194285Y-81450571D01*
X98122857Y-81450571D02*
X97980000Y-81379142D01*
X97908571Y-81307714D01*
X97837142Y-81164857D01*
X97837142Y-80736285D01*
X97908571Y-80593428D01*
X97980000Y-80522000D01*
X98122857Y-80450571D01*
X98337142Y-80450571D01*
X98480000Y-80522000D01*
X98551428Y-80593428D01*
X98622857Y-80736285D01*
X98622857Y-81164857D01*
X98551428Y-81307714D01*
X98480000Y-81379142D01*
X98337142Y-81450571D01*
X98122857Y-81450571D01*
X99051428Y-80450571D02*
X99622857Y-80450571D01*
X99265714Y-79950571D02*
X99265714Y-81236285D01*
X99337142Y-81379142D01*
X99480000Y-81450571D01*
X99622857Y-81450571D01*
X100337142Y-81450571D02*
X100194285Y-81379142D01*
X100122857Y-81307714D01*
X100051428Y-81164857D01*
X100051428Y-80736285D01*
X100122857Y-80593428D01*
X100194285Y-80522000D01*
X100337142Y-80450571D01*
X100551428Y-80450571D01*
X100694285Y-80522000D01*
X100765714Y-80593428D01*
X100837142Y-80736285D01*
X100837142Y-81164857D01*
X100765714Y-81307714D01*
X100694285Y-81379142D01*
X100551428Y-81450571D01*
X100337142Y-81450571D01*
X101480000Y-81450571D02*
X101480000Y-80450571D01*
X101480000Y-80736285D02*
X101551428Y-80593428D01*
X101622857Y-80522000D01*
X101765714Y-80450571D01*
X101908571Y-80450571D01*
X85967714Y-100881571D02*
X85967714Y-99381571D01*
X86324857Y-99381571D01*
X86539142Y-99453000D01*
X86682000Y-99595857D01*
X86753428Y-99738714D01*
X86824857Y-100024428D01*
X86824857Y-100238714D01*
X86753428Y-100524428D01*
X86682000Y-100667285D01*
X86539142Y-100810142D01*
X86324857Y-100881571D01*
X85967714Y-100881571D01*
X88324857Y-100738714D02*
X88253428Y-100810142D01*
X88039142Y-100881571D01*
X87896285Y-100881571D01*
X87682000Y-100810142D01*
X87539142Y-100667285D01*
X87467714Y-100524428D01*
X87396285Y-100238714D01*
X87396285Y-100024428D01*
X87467714Y-99738714D01*
X87539142Y-99595857D01*
X87682000Y-99453000D01*
X87896285Y-99381571D01*
X88039142Y-99381571D01*
X88253428Y-99453000D01*
X88324857Y-99524428D01*
X90110571Y-100881571D02*
X90110571Y-99881571D01*
X90110571Y-100024428D02*
X90182000Y-99953000D01*
X90324857Y-99881571D01*
X90539142Y-99881571D01*
X90682000Y-99953000D01*
X90753428Y-100095857D01*
X90753428Y-100881571D01*
X90753428Y-100095857D02*
X90824857Y-99953000D01*
X90967714Y-99881571D01*
X91182000Y-99881571D01*
X91324857Y-99953000D01*
X91396285Y-100095857D01*
X91396285Y-100881571D01*
X92324857Y-100881571D02*
X92182000Y-100810142D01*
X92110571Y-100738714D01*
X92039142Y-100595857D01*
X92039142Y-100167285D01*
X92110571Y-100024428D01*
X92182000Y-99953000D01*
X92324857Y-99881571D01*
X92539142Y-99881571D01*
X92682000Y-99953000D01*
X92753428Y-100024428D01*
X92824857Y-100167285D01*
X92824857Y-100595857D01*
X92753428Y-100738714D01*
X92682000Y-100810142D01*
X92539142Y-100881571D01*
X92324857Y-100881571D01*
X93253428Y-99881571D02*
X93824857Y-99881571D01*
X93467714Y-99381571D02*
X93467714Y-100667285D01*
X93539142Y-100810142D01*
X93682000Y-100881571D01*
X93824857Y-100881571D01*
X94539142Y-100881571D02*
X94396285Y-100810142D01*
X94324857Y-100738714D01*
X94253428Y-100595857D01*
X94253428Y-100167285D01*
X94324857Y-100024428D01*
X94396285Y-99953000D01*
X94539142Y-99881571D01*
X94753428Y-99881571D01*
X94896285Y-99953000D01*
X94967714Y-100024428D01*
X95039142Y-100167285D01*
X95039142Y-100595857D01*
X94967714Y-100738714D01*
X94896285Y-100810142D01*
X94753428Y-100881571D01*
X94539142Y-100881571D01*
X95682000Y-100881571D02*
X95682000Y-99881571D01*
X95682000Y-100167285D02*
X95753428Y-100024428D01*
X95824857Y-99953000D01*
X95967714Y-99881571D01*
X96110571Y-99881571D01*
X85388142Y-104422571D02*
X85388142Y-102922571D01*
X85888142Y-103994000D01*
X86388142Y-102922571D01*
X86388142Y-104422571D01*
X87102428Y-103851142D02*
X88245285Y-103851142D01*
X87673857Y-104422571D02*
X87673857Y-103279714D01*
X89316714Y-104922571D02*
X89316714Y-102779714D01*
X90245285Y-104422571D02*
X91031000Y-103422571D01*
X90245285Y-103422571D02*
X91031000Y-104422571D01*
X85388142Y-106972571D02*
X85388142Y-105472571D01*
X85888142Y-106544000D01*
X86388142Y-105472571D01*
X86388142Y-106972571D01*
X87102428Y-106401142D02*
X88245285Y-106401142D01*
X89316714Y-107472571D02*
X89316714Y-105329714D01*
X91173857Y-105544000D02*
X91031000Y-105472571D01*
X90816714Y-105472571D01*
X90602428Y-105544000D01*
X90459571Y-105686857D01*
X90388142Y-105829714D01*
X90316714Y-106115428D01*
X90316714Y-106329714D01*
X90388142Y-106615428D01*
X90459571Y-106758285D01*
X90602428Y-106901142D01*
X90816714Y-106972571D01*
X90959571Y-106972571D01*
X91173857Y-106901142D01*
X91245285Y-106829714D01*
X91245285Y-106329714D01*
X90959571Y-106329714D01*
X91888142Y-106972571D02*
X91888142Y-105472571D01*
X92745285Y-106972571D01*
X92745285Y-105472571D01*
X93459571Y-106972571D02*
X93459571Y-105472571D01*
X93816714Y-105472571D01*
X94031000Y-105544000D01*
X94173857Y-105686857D01*
X94245285Y-105829714D01*
X94316714Y-106115428D01*
X94316714Y-106329714D01*
X94245285Y-106615428D01*
X94173857Y-106758285D01*
X94031000Y-106901142D01*
X93816714Y-106972571D01*
X93459571Y-106972571D01*
X85245285Y-109522571D02*
X86031000Y-108522571D01*
X85245285Y-108522571D02*
X86031000Y-109522571D01*
X89245285Y-110022571D02*
X89245285Y-107879714D01*
X90316714Y-108736857D02*
X90816714Y-108736857D01*
X91031000Y-109522571D02*
X90316714Y-109522571D01*
X90316714Y-108022571D01*
X91031000Y-108022571D01*
X85245285Y-112072571D02*
X86031000Y-111072571D01*
X85245285Y-111072571D02*
X86031000Y-112072571D01*
X89245285Y-112572571D02*
X89245285Y-110429714D01*
X91102428Y-112072571D02*
X90245285Y-112072571D01*
X90673857Y-112072571D02*
X90673857Y-110572571D01*
X90531000Y-110786857D01*
X90388142Y-110929714D01*
X90245285Y-111001142D01*
X91673857Y-110715428D02*
X91745285Y-110644000D01*
X91888142Y-110572571D01*
X92245285Y-110572571D01*
X92388142Y-110644000D01*
X92459571Y-110715428D01*
X92531000Y-110858285D01*
X92531000Y-111001142D01*
X92459571Y-111215428D01*
X91602428Y-112072571D01*
X92531000Y-112072571D01*
X93031000Y-111072571D02*
X93388142Y-112072571D01*
X93745285Y-111072571D01*
X85642142Y-86134571D02*
X85642142Y-84634571D01*
X86142142Y-85706000D01*
X86642142Y-84634571D01*
X86642142Y-86134571D01*
X87285000Y-85706000D02*
X87999285Y-85706000D01*
X87142142Y-86134571D02*
X87642142Y-84634571D01*
X88142142Y-86134571D01*
X88642142Y-85563142D02*
X89785000Y-85563142D01*
X89213571Y-86134571D02*
X89213571Y-84991714D01*
X90856428Y-86634571D02*
X90856428Y-84491714D01*
X91785000Y-86134571D02*
X92570714Y-85134571D01*
X91785000Y-85134571D02*
X92570714Y-86134571D01*
X85642142Y-88684571D02*
X85642142Y-87184571D01*
X86142142Y-88256000D01*
X86642142Y-87184571D01*
X86642142Y-88684571D01*
X87285000Y-88256000D02*
X87999285Y-88256000D01*
X87142142Y-88684571D02*
X87642142Y-87184571D01*
X88142142Y-88684571D01*
X88642142Y-88113142D02*
X89785000Y-88113142D01*
X90856428Y-89184571D02*
X90856428Y-87041714D01*
X92713571Y-87256000D02*
X92570714Y-87184571D01*
X92356428Y-87184571D01*
X92142142Y-87256000D01*
X91999285Y-87398857D01*
X91927857Y-87541714D01*
X91856428Y-87827428D01*
X91856428Y-88041714D01*
X91927857Y-88327428D01*
X91999285Y-88470285D01*
X92142142Y-88613142D01*
X92356428Y-88684571D01*
X92499285Y-88684571D01*
X92713571Y-88613142D01*
X92785000Y-88541714D01*
X92785000Y-88041714D01*
X92499285Y-88041714D01*
X93427857Y-88684571D02*
X93427857Y-87184571D01*
X94285000Y-88684571D01*
X94285000Y-87184571D01*
X94999285Y-88684571D02*
X94999285Y-87184571D01*
X95356428Y-87184571D01*
X95570714Y-87256000D01*
X95713571Y-87398857D01*
X95785000Y-87541714D01*
X95856428Y-87827428D01*
X95856428Y-88041714D01*
X95785000Y-88327428D01*
X95713571Y-88470285D01*
X95570714Y-88613142D01*
X95356428Y-88684571D01*
X94999285Y-88684571D01*
X85642142Y-91234571D02*
X85642142Y-89734571D01*
X86142142Y-90806000D01*
X86642142Y-89734571D01*
X86642142Y-91234571D01*
X87856428Y-90448857D02*
X88070714Y-90520285D01*
X88142142Y-90591714D01*
X88213571Y-90734571D01*
X88213571Y-90948857D01*
X88142142Y-91091714D01*
X88070714Y-91163142D01*
X87927857Y-91234571D01*
X87356428Y-91234571D01*
X87356428Y-89734571D01*
X87856428Y-89734571D01*
X87999285Y-89806000D01*
X88070714Y-89877428D01*
X88142142Y-90020285D01*
X88142142Y-90163142D01*
X88070714Y-90306000D01*
X87999285Y-90377428D01*
X87856428Y-90448857D01*
X87356428Y-90448857D01*
X88856428Y-90663142D02*
X89999285Y-90663142D01*
X89427857Y-91234571D02*
X89427857Y-90091714D01*
X91070714Y-91734571D02*
X91070714Y-89591714D01*
X92142142Y-90448857D02*
X92642142Y-90448857D01*
X92856428Y-91234571D02*
X92142142Y-91234571D01*
X92142142Y-89734571D01*
X92856428Y-89734571D01*
X85642142Y-93784571D02*
X85642142Y-92284571D01*
X86142142Y-93356000D01*
X86642142Y-92284571D01*
X86642142Y-93784571D01*
X87856428Y-92998857D02*
X88070714Y-93070285D01*
X88142142Y-93141714D01*
X88213571Y-93284571D01*
X88213571Y-93498857D01*
X88142142Y-93641714D01*
X88070714Y-93713142D01*
X87927857Y-93784571D01*
X87356428Y-93784571D01*
X87356428Y-92284571D01*
X87856428Y-92284571D01*
X87999285Y-92356000D01*
X88070714Y-92427428D01*
X88142142Y-92570285D01*
X88142142Y-92713142D01*
X88070714Y-92856000D01*
X87999285Y-92927428D01*
X87856428Y-92998857D01*
X87356428Y-92998857D01*
X88856428Y-93213142D02*
X89999285Y-93213142D01*
X91070714Y-94284571D02*
X91070714Y-92141714D01*
X92856428Y-92284571D02*
X92142142Y-92284571D01*
X92070714Y-92998857D01*
X92142142Y-92927428D01*
X92285000Y-92856000D01*
X92642142Y-92856000D01*
X92785000Y-92927428D01*
X92856428Y-92998857D01*
X92927857Y-93141714D01*
X92927857Y-93498857D01*
X92856428Y-93641714D01*
X92785000Y-93713142D01*
X92642142Y-93784571D01*
X92285000Y-93784571D01*
X92142142Y-93713142D01*
X92070714Y-93641714D01*
X93427857Y-92784571D02*
X93785000Y-93784571D01*
X94142142Y-92784571D01*
D11*
G04 #@! TO.C,J10*
X179130000Y-93786000D02*
X179130000Y-88586000D01*
X173990000Y-93786000D02*
X179130000Y-93786000D01*
X171390000Y-88586000D02*
X179130000Y-88586000D01*
X173990000Y-93786000D02*
X173990000Y-91186000D01*
X173990000Y-91186000D02*
X171390000Y-91186000D01*
X171390000Y-91186000D02*
X171390000Y-88586000D01*
X172720000Y-93786000D02*
X171390000Y-93786000D01*
X171390000Y-93786000D02*
X171390000Y-92456000D01*
G04 #@! TO.C,U8*
X161357000Y-98808000D02*
X160657000Y-98808000D01*
X160657000Y-98808000D02*
X160657000Y-99508000D01*
X174177000Y-98808000D02*
X174877000Y-98808000D01*
X174877000Y-98808000D02*
X174877000Y-99508000D01*
X174177000Y-113028000D02*
X174877000Y-113028000D01*
X174877000Y-113028000D02*
X174877000Y-112328000D01*
X161357000Y-113028000D02*
X160657000Y-113028000D01*
X160657000Y-113028000D02*
X160657000Y-112328000D01*
X160657000Y-99508000D02*
X159367000Y-99508000D01*
G04 #@! TO.C,J8*
X134747000Y-128397000D02*
X124587000Y-128397000D01*
X134747000Y-129667000D02*
X134747000Y-122047000D01*
X134747000Y-122047000D02*
X124587000Y-122047000D01*
X124587000Y-122047000D02*
X124587000Y-129667000D01*
X124587000Y-129667000D02*
X134747000Y-129667000D01*
G04 #@! TO.C,U7*
X116927500Y-90828000D02*
X118927500Y-90828000D01*
X118927500Y-93068000D02*
X117927500Y-93068000D01*
G04 #@! TO.C,U6*
X118927500Y-88115000D02*
X117927500Y-88115000D01*
X116927500Y-85875000D02*
X118927500Y-85875000D01*
G04 #@! TO.C,U5*
X103592500Y-106068000D02*
X105592500Y-106068000D01*
X105592500Y-108308000D02*
X104592500Y-108308000D01*
G04 #@! TO.C,U4*
X118927500Y-108308000D02*
X117927500Y-108308000D01*
X116927500Y-106068000D02*
X118927500Y-106068000D01*
G04 #@! TO.C,U2*
X103592500Y-90828000D02*
X105592500Y-90828000D01*
X105592500Y-93068000D02*
X104592500Y-93068000D01*
G04 #@! TO.C,U3*
X103592500Y-85856000D02*
X105592500Y-85856000D01*
X105592500Y-88096000D02*
X104592500Y-88096000D01*
G04 #@! TO.C,C3*
X132806221Y-117409500D02*
X133131779Y-117409500D01*
X132806221Y-118429500D02*
X133131779Y-118429500D01*
G04 #@! TO.C,C4*
X137005279Y-116076000D02*
X136679721Y-116076000D01*
X137005279Y-117096000D02*
X136679721Y-117096000D01*
G04 #@! TO.C,C14*
X163057721Y-73912000D02*
X163383279Y-73912000D01*
X163057721Y-74932000D02*
X163383279Y-74932000D01*
G04 #@! TO.C,D1*
X159366551Y-70382366D02*
G75*
G02X159426153Y-68115000I-1251551J1167366D01*
G01*
G04 #@! TO.C,U1*
X133270000Y-116696000D02*
X133935000Y-116696000D01*
X130635000Y-113396000D02*
X131300000Y-113396000D01*
X133270000Y-113396000D02*
X133935000Y-113396000D01*
X130635000Y-116696000D02*
X131300000Y-116696000D01*
X133935000Y-113646000D02*
X133935000Y-113396000D01*
X133935000Y-116446000D02*
X133935000Y-116696000D01*
X130635000Y-116696000D02*
X130635000Y-116446000D01*
D12*
G04 #@! TO.C,U9*
X152461000Y-80285000D02*
X156911000Y-80285000D01*
X150936000Y-73385000D02*
X156911000Y-73385000D01*
D11*
G04 #@! TO.C,C16*
X117312121Y-83644200D02*
X117637679Y-83644200D01*
X117312121Y-82624200D02*
X117637679Y-82624200D01*
G04 #@! TO.C,C17*
X120995221Y-82573400D02*
X121320779Y-82573400D01*
X120995221Y-83593400D02*
X121320779Y-83593400D01*
G04 #@! TO.C,C18*
X106995500Y-83982779D02*
X106995500Y-83657221D01*
X108015500Y-83982779D02*
X108015500Y-83657221D01*
G04 #@! TO.C,C19*
X121947721Y-91950000D02*
X122273279Y-91950000D01*
X121947721Y-90930000D02*
X122273279Y-90930000D01*
G04 #@! TO.C,C20*
X95252000Y-126151321D02*
X95252000Y-126476879D01*
X94232000Y-126151321D02*
X94232000Y-126476879D01*
G04 #@! TO.C,C21*
X154518680Y-120368600D02*
X154193122Y-120368600D01*
X154518680Y-121388600D02*
X154193122Y-121388600D01*
G04 #@! TO.C,C22*
X101979000Y-96230221D02*
X101979000Y-96555779D01*
X102999000Y-96230221D02*
X102999000Y-96555779D01*
G04 #@! TO.C,C23*
X120902000Y-86294279D02*
X120902000Y-85968721D01*
X121922000Y-86294279D02*
X121922000Y-85968721D01*
G04 #@! TO.C,C24*
X106805000Y-126202221D02*
X106805000Y-126527779D01*
X107825000Y-126202221D02*
X107825000Y-126527779D01*
G04 #@! TO.C,C25*
X95125000Y-96230221D02*
X95125000Y-96555779D01*
X94105000Y-96230221D02*
X94105000Y-96555779D01*
G04 #@! TO.C,C26*
X107223779Y-102872000D02*
X106898221Y-102872000D01*
X107223779Y-101852000D02*
X106898221Y-101852000D01*
G04 #@! TO.C,C27*
X123154221Y-107761500D02*
X123479779Y-107761500D01*
X123154221Y-106741500D02*
X123479779Y-106741500D01*
G04 #@! TO.C,C28*
X128623279Y-113345500D02*
X128297721Y-113345500D01*
X128623279Y-114365500D02*
X128297721Y-114365500D01*
G04 #@! TO.C,C29*
X95683800Y-109565120D02*
X95683800Y-109890678D01*
X94663800Y-109565120D02*
X94663800Y-109890678D01*
G04 #@! TO.C,C30*
X145086800Y-110982979D02*
X145086800Y-110657421D01*
X144066800Y-110982979D02*
X144066800Y-110657421D01*
G04 #@! TO.C,J1*
X96269500Y-94167000D02*
X101469500Y-94167000D01*
X96269500Y-86487000D02*
X96269500Y-94167000D01*
X101469500Y-83887000D02*
X101469500Y-94167000D01*
X96269500Y-86487000D02*
X98869500Y-86487000D01*
X98869500Y-86487000D02*
X98869500Y-83887000D01*
X98869500Y-83887000D02*
X101469500Y-83887000D01*
X96269500Y-85217000D02*
X96269500Y-83887000D01*
X96269500Y-83887000D02*
X97599500Y-83887000D01*
G04 #@! TO.C,J2*
X96269500Y-112391500D02*
X101469500Y-112391500D01*
X96269500Y-104711500D02*
X96269500Y-112391500D01*
X101469500Y-102111500D02*
X101469500Y-112391500D01*
X96269500Y-104711500D02*
X98869500Y-104711500D01*
X98869500Y-104711500D02*
X98869500Y-102111500D01*
X98869500Y-102111500D02*
X101469500Y-102111500D01*
X96269500Y-103441500D02*
X96269500Y-102111500D01*
X96269500Y-102111500D02*
X97599500Y-102111500D01*
G04 #@! TO.C,J3*
X96269500Y-118113500D02*
X97599500Y-118113500D01*
X96269500Y-119443500D02*
X96269500Y-118113500D01*
X98869500Y-118113500D02*
X101469500Y-118113500D01*
X98869500Y-120713500D02*
X98869500Y-118113500D01*
X96269500Y-120713500D02*
X98869500Y-120713500D01*
X101469500Y-118113500D02*
X101469500Y-128393500D01*
X96269500Y-120713500D02*
X96269500Y-128393500D01*
X96269500Y-128393500D02*
X101469500Y-128393500D01*
G04 #@! TO.C,J4*
X109033000Y-83887000D02*
X110363000Y-83887000D01*
X109033000Y-85217000D02*
X109033000Y-83887000D01*
X111633000Y-83887000D02*
X114233000Y-83887000D01*
X111633000Y-86487000D02*
X111633000Y-83887000D01*
X109033000Y-86487000D02*
X111633000Y-86487000D01*
X114233000Y-83887000D02*
X114233000Y-94167000D01*
X109033000Y-86487000D02*
X109033000Y-94167000D01*
X109033000Y-94167000D02*
X114233000Y-94167000D01*
G04 #@! TO.C,J5*
X109096500Y-112391500D02*
X114296500Y-112391500D01*
X109096500Y-104711500D02*
X109096500Y-112391500D01*
X114296500Y-102111500D02*
X114296500Y-112391500D01*
X109096500Y-104711500D02*
X111696500Y-104711500D01*
X111696500Y-104711500D02*
X111696500Y-102111500D01*
X111696500Y-102111500D02*
X114296500Y-102111500D01*
X109096500Y-103441500D02*
X109096500Y-102111500D01*
X109096500Y-102111500D02*
X110426500Y-102111500D01*
G04 #@! TO.C,J6*
X109096500Y-118113500D02*
X110426500Y-118113500D01*
X109096500Y-119443500D02*
X109096500Y-118113500D01*
X111696500Y-118113500D02*
X114296500Y-118113500D01*
X111696500Y-120713500D02*
X111696500Y-118113500D01*
X109096500Y-120713500D02*
X111696500Y-120713500D01*
X114296500Y-118113500D02*
X114296500Y-128393500D01*
X109096500Y-120713500D02*
X109096500Y-128393500D01*
X109096500Y-128393500D02*
X114296500Y-128393500D01*
G04 #@! TO.C,L1*
X132196721Y-111758000D02*
X132522279Y-111758000D01*
X132196721Y-112778000D02*
X132522279Y-112778000D01*
G04 #@! TO.C,R1*
X137005279Y-114048000D02*
X136679721Y-114048000D01*
X137005279Y-113028000D02*
X136679721Y-113028000D01*
G04 #@! TO.C,R2*
X136679721Y-115572000D02*
X137005279Y-115572000D01*
X136679721Y-114552000D02*
X137005279Y-114552000D01*
G04 #@! TO.C,R5*
X158968221Y-67312000D02*
X159293779Y-67312000D01*
X158968221Y-66292000D02*
X159293779Y-66292000D01*
G04 #@! TO.C,R7*
X160436779Y-74932000D02*
X160111221Y-74932000D01*
X160436779Y-73912000D02*
X160111221Y-73912000D01*
G04 #@! TO.C,R8*
X159120721Y-94236000D02*
X159446279Y-94236000D01*
X159120721Y-93216000D02*
X159446279Y-93216000D01*
G04 #@! TO.C,R10*
X158150779Y-82729800D02*
X157825221Y-82729800D01*
X158150779Y-81709800D02*
X157825221Y-81709800D01*
D12*
G04 #@! TO.C,U10*
X151936000Y-83282000D02*
X151936000Y-83937000D01*
X157436000Y-83282000D02*
X157436000Y-84032000D01*
X157436000Y-89692000D02*
X157436000Y-88942000D01*
X151936000Y-89692000D02*
X151936000Y-88942000D01*
X151936000Y-83282000D02*
X157436000Y-83282000D01*
X151936000Y-89692000D02*
X157436000Y-89692000D01*
X151936000Y-83937000D02*
X150186000Y-83937000D01*
D11*
G04 #@! TO.C,Y1*
X172942000Y-118199000D02*
X172942000Y-117799000D01*
X172742000Y-118199000D02*
X172742000Y-117799000D01*
X169142000Y-118199000D02*
X169142000Y-117799000D01*
X172942000Y-120199000D02*
X172942000Y-118199000D01*
X171742000Y-117799000D02*
X171742000Y-117399000D01*
X171742000Y-117799000D02*
X172742000Y-117799000D01*
X172742000Y-118199000D02*
X172742000Y-120199000D01*
X172742000Y-120199000D02*
X171742000Y-120199000D01*
X169942000Y-120199000D02*
X169142000Y-120199000D01*
X169142000Y-120199000D02*
X169142000Y-118199000D01*
X169142000Y-117799000D02*
X169942000Y-117799000D01*
G04 #@! TO.C,Y2*
X149247000Y-81718000D02*
X148447000Y-81718000D01*
X149247000Y-79318000D02*
X149247000Y-81318000D01*
X148447000Y-79318000D02*
X149247000Y-79318000D01*
X145647000Y-79318000D02*
X146647000Y-79318000D01*
X145647000Y-81318000D02*
X145647000Y-79318000D01*
X146647000Y-81718000D02*
X145647000Y-81718000D01*
X146647000Y-81718000D02*
X146647000Y-82118000D01*
X145447000Y-79318000D02*
X145447000Y-81318000D01*
X149247000Y-81318000D02*
X149247000Y-81718000D01*
X145647000Y-81318000D02*
X145647000Y-81718000D01*
X145447000Y-81318000D02*
X145447000Y-81718000D01*
G04 #@! TO.C,C11*
X164657500Y-94198221D02*
X164657500Y-94523779D01*
X163637500Y-94198221D02*
X163637500Y-94523779D01*
G04 #@! TO.C,R4*
X157850721Y-120140000D02*
X158176279Y-120140000D01*
X157850721Y-121160000D02*
X158176279Y-121160000D01*
G04 #@! TO.C,SW1*
X160743000Y-122158000D02*
X160743000Y-126658000D01*
X164743000Y-120908000D02*
X163243000Y-120908000D01*
X167243000Y-126658000D02*
X167243000Y-122158000D01*
X163243000Y-127908000D02*
X164743000Y-127908000D01*
G04 #@! TO.C,J7*
X159445000Y-115503000D02*
X159445000Y-112843000D01*
X149225000Y-115503000D02*
X159445000Y-115503000D01*
X149225000Y-112843000D02*
X159445000Y-112843000D01*
X149225000Y-115503000D02*
X149225000Y-112843000D01*
X147955000Y-115503000D02*
X146625000Y-115503000D01*
X146625000Y-115503000D02*
X146625000Y-114173000D01*
G04 #@! TO.C,D2*
X146560000Y-109418000D02*
X146560000Y-110348000D01*
X146560000Y-112578000D02*
X146560000Y-111648000D01*
X146560000Y-112578000D02*
X148720000Y-112578000D01*
X146560000Y-109418000D02*
X148020000Y-109418000D01*
G04 #@! TO.C,J9*
X170434000Y-81153000D02*
X170434000Y-70993000D01*
X169164000Y-81153000D02*
X176784000Y-81153000D01*
X176784000Y-81153000D02*
X176784000Y-70993000D01*
X176784000Y-70993000D02*
X169164000Y-70993000D01*
X169164000Y-70993000D02*
X169164000Y-81153000D01*
G04 #@! TO.C,C1*
X125709078Y-115050500D02*
X125191922Y-115050500D01*
X125709078Y-116470500D02*
X125191922Y-116470500D01*
G04 #@! TO.C,C5*
X132132000Y-90873078D02*
X132132000Y-90355922D01*
X133552000Y-90873078D02*
X133552000Y-90355922D01*
G04 #@! TO.C,C6*
X141553000Y-84459578D02*
X141553000Y-83942422D01*
X140133000Y-84459578D02*
X140133000Y-83942422D01*
G04 #@! TO.C,C7*
X152134500Y-66171578D02*
X152134500Y-65654422D01*
X153554500Y-66171578D02*
X153554500Y-65654422D01*
G04 #@! TO.C,J10*
D12*
X169842380Y-91995523D02*
X170556666Y-91995523D01*
X170699523Y-92043142D01*
X170794761Y-92138380D01*
X170842380Y-92281238D01*
X170842380Y-92376476D01*
X170842380Y-90995523D02*
X170842380Y-91566952D01*
X170842380Y-91281238D02*
X169842380Y-91281238D01*
X169985238Y-91376476D01*
X170080476Y-91471714D01*
X170128095Y-91566952D01*
X169842380Y-90376476D02*
X169842380Y-90281238D01*
X169890000Y-90186000D01*
X169937619Y-90138380D01*
X170032857Y-90090761D01*
X170223333Y-90043142D01*
X170461428Y-90043142D01*
X170651904Y-90090761D01*
X170747142Y-90138380D01*
X170794761Y-90186000D01*
X170842380Y-90281238D01*
X170842380Y-90376476D01*
X170794761Y-90471714D01*
X170747142Y-90519333D01*
X170651904Y-90566952D01*
X170461428Y-90614571D01*
X170223333Y-90614571D01*
X170032857Y-90566952D01*
X169937619Y-90519333D01*
X169890000Y-90471714D01*
X169842380Y-90376476D01*
G04 #@! TO.C,U8*
X167005095Y-96020380D02*
X167005095Y-96829904D01*
X167052714Y-96925142D01*
X167100333Y-96972761D01*
X167195571Y-97020380D01*
X167386047Y-97020380D01*
X167481285Y-96972761D01*
X167528904Y-96925142D01*
X167576523Y-96829904D01*
X167576523Y-96020380D01*
X168195571Y-96448952D02*
X168100333Y-96401333D01*
X168052714Y-96353714D01*
X168005095Y-96258476D01*
X168005095Y-96210857D01*
X168052714Y-96115619D01*
X168100333Y-96068000D01*
X168195571Y-96020380D01*
X168386047Y-96020380D01*
X168481285Y-96068000D01*
X168528904Y-96115619D01*
X168576523Y-96210857D01*
X168576523Y-96258476D01*
X168528904Y-96353714D01*
X168481285Y-96401333D01*
X168386047Y-96448952D01*
X168195571Y-96448952D01*
X168100333Y-96496571D01*
X168052714Y-96544190D01*
X168005095Y-96639428D01*
X168005095Y-96829904D01*
X168052714Y-96925142D01*
X168100333Y-96972761D01*
X168195571Y-97020380D01*
X168386047Y-97020380D01*
X168481285Y-96972761D01*
X168528904Y-96925142D01*
X168576523Y-96829904D01*
X168576523Y-96639428D01*
X168528904Y-96544190D01*
X168481285Y-96496571D01*
X168386047Y-96448952D01*
G04 #@! TO.C,J8*
X129333666Y-120229380D02*
X129333666Y-120943666D01*
X129286047Y-121086523D01*
X129190809Y-121181761D01*
X129047952Y-121229380D01*
X128952714Y-121229380D01*
X129952714Y-120657952D02*
X129857476Y-120610333D01*
X129809857Y-120562714D01*
X129762238Y-120467476D01*
X129762238Y-120419857D01*
X129809857Y-120324619D01*
X129857476Y-120277000D01*
X129952714Y-120229380D01*
X130143190Y-120229380D01*
X130238428Y-120277000D01*
X130286047Y-120324619D01*
X130333666Y-120419857D01*
X130333666Y-120467476D01*
X130286047Y-120562714D01*
X130238428Y-120610333D01*
X130143190Y-120657952D01*
X129952714Y-120657952D01*
X129857476Y-120705571D01*
X129809857Y-120753190D01*
X129762238Y-120848428D01*
X129762238Y-121038904D01*
X129809857Y-121134142D01*
X129857476Y-121181761D01*
X129952714Y-121229380D01*
X130143190Y-121229380D01*
X130238428Y-121181761D01*
X130286047Y-121134142D01*
X130333666Y-121038904D01*
X130333666Y-120848428D01*
X130286047Y-120753190D01*
X130238428Y-120705571D01*
X130143190Y-120657952D01*
G04 #@! TO.C,U7*
X118045595Y-89500380D02*
X118045595Y-90309904D01*
X118093214Y-90405142D01*
X118140833Y-90452761D01*
X118236071Y-90500380D01*
X118426547Y-90500380D01*
X118521785Y-90452761D01*
X118569404Y-90405142D01*
X118617023Y-90309904D01*
X118617023Y-89500380D01*
X118997976Y-89500380D02*
X119664642Y-89500380D01*
X119236071Y-90500380D01*
G04 #@! TO.C,U6*
X118045595Y-84547380D02*
X118045595Y-85356904D01*
X118093214Y-85452142D01*
X118140833Y-85499761D01*
X118236071Y-85547380D01*
X118426547Y-85547380D01*
X118521785Y-85499761D01*
X118569404Y-85452142D01*
X118617023Y-85356904D01*
X118617023Y-84547380D01*
X119521785Y-84547380D02*
X119331309Y-84547380D01*
X119236071Y-84595000D01*
X119188452Y-84642619D01*
X119093214Y-84785476D01*
X119045595Y-84975952D01*
X119045595Y-85356904D01*
X119093214Y-85452142D01*
X119140833Y-85499761D01*
X119236071Y-85547380D01*
X119426547Y-85547380D01*
X119521785Y-85499761D01*
X119569404Y-85452142D01*
X119617023Y-85356904D01*
X119617023Y-85118809D01*
X119569404Y-85023571D01*
X119521785Y-84975952D01*
X119426547Y-84928333D01*
X119236071Y-84928333D01*
X119140833Y-84975952D01*
X119093214Y-85023571D01*
X119045595Y-85118809D01*
G04 #@! TO.C,U5*
X104710595Y-104740380D02*
X104710595Y-105549904D01*
X104758214Y-105645142D01*
X104805833Y-105692761D01*
X104901071Y-105740380D01*
X105091547Y-105740380D01*
X105186785Y-105692761D01*
X105234404Y-105645142D01*
X105282023Y-105549904D01*
X105282023Y-104740380D01*
X106234404Y-104740380D02*
X105758214Y-104740380D01*
X105710595Y-105216571D01*
X105758214Y-105168952D01*
X105853452Y-105121333D01*
X106091547Y-105121333D01*
X106186785Y-105168952D01*
X106234404Y-105216571D01*
X106282023Y-105311809D01*
X106282023Y-105549904D01*
X106234404Y-105645142D01*
X106186785Y-105692761D01*
X106091547Y-105740380D01*
X105853452Y-105740380D01*
X105758214Y-105692761D01*
X105710595Y-105645142D01*
G04 #@! TO.C,U4*
X118045595Y-104740380D02*
X118045595Y-105549904D01*
X118093214Y-105645142D01*
X118140833Y-105692761D01*
X118236071Y-105740380D01*
X118426547Y-105740380D01*
X118521785Y-105692761D01*
X118569404Y-105645142D01*
X118617023Y-105549904D01*
X118617023Y-104740380D01*
X119521785Y-105073714D02*
X119521785Y-105740380D01*
X119283690Y-104692761D02*
X119045595Y-105407047D01*
X119664642Y-105407047D01*
G04 #@! TO.C,U2*
X104710595Y-89500380D02*
X104710595Y-90309904D01*
X104758214Y-90405142D01*
X104805833Y-90452761D01*
X104901071Y-90500380D01*
X105091547Y-90500380D01*
X105186785Y-90452761D01*
X105234404Y-90405142D01*
X105282023Y-90309904D01*
X105282023Y-89500380D01*
X105710595Y-89595619D02*
X105758214Y-89548000D01*
X105853452Y-89500380D01*
X106091547Y-89500380D01*
X106186785Y-89548000D01*
X106234404Y-89595619D01*
X106282023Y-89690857D01*
X106282023Y-89786095D01*
X106234404Y-89928952D01*
X105662976Y-90500380D01*
X106282023Y-90500380D01*
G04 #@! TO.C,U3*
X104710595Y-84528380D02*
X104710595Y-85337904D01*
X104758214Y-85433142D01*
X104805833Y-85480761D01*
X104901071Y-85528380D01*
X105091547Y-85528380D01*
X105186785Y-85480761D01*
X105234404Y-85433142D01*
X105282023Y-85337904D01*
X105282023Y-84528380D01*
X105662976Y-84528380D02*
X106282023Y-84528380D01*
X105948690Y-84909333D01*
X106091547Y-84909333D01*
X106186785Y-84956952D01*
X106234404Y-85004571D01*
X106282023Y-85099809D01*
X106282023Y-85337904D01*
X106234404Y-85433142D01*
X106186785Y-85480761D01*
X106091547Y-85528380D01*
X105805833Y-85528380D01*
X105710595Y-85480761D01*
X105662976Y-85433142D01*
G04 #@! TO.C,C3*
X130389333Y-118276642D02*
X130341714Y-118324261D01*
X130198857Y-118371880D01*
X130103619Y-118371880D01*
X129960761Y-118324261D01*
X129865523Y-118229023D01*
X129817904Y-118133785D01*
X129770285Y-117943309D01*
X129770285Y-117800452D01*
X129817904Y-117609976D01*
X129865523Y-117514738D01*
X129960761Y-117419500D01*
X130103619Y-117371880D01*
X130198857Y-117371880D01*
X130341714Y-117419500D01*
X130389333Y-117467119D01*
X130722666Y-117371880D02*
X131341714Y-117371880D01*
X131008380Y-117752833D01*
X131151238Y-117752833D01*
X131246476Y-117800452D01*
X131294095Y-117848071D01*
X131341714Y-117943309D01*
X131341714Y-118181404D01*
X131294095Y-118276642D01*
X131246476Y-118324261D01*
X131151238Y-118371880D01*
X130865523Y-118371880D01*
X130770285Y-118324261D01*
X130722666Y-118276642D01*
G04 #@! TO.C,C4*
X139088833Y-116943142D02*
X139041214Y-116990761D01*
X138898357Y-117038380D01*
X138803119Y-117038380D01*
X138660261Y-116990761D01*
X138565023Y-116895523D01*
X138517404Y-116800285D01*
X138469785Y-116609809D01*
X138469785Y-116466952D01*
X138517404Y-116276476D01*
X138565023Y-116181238D01*
X138660261Y-116086000D01*
X138803119Y-116038380D01*
X138898357Y-116038380D01*
X139041214Y-116086000D01*
X139088833Y-116133619D01*
X139945976Y-116371714D02*
X139945976Y-117038380D01*
X139707880Y-115990761D02*
X139469785Y-116705047D01*
X140088833Y-116705047D01*
G04 #@! TO.C,C14*
X162577642Y-73349142D02*
X162530023Y-73396761D01*
X162387166Y-73444380D01*
X162291928Y-73444380D01*
X162149071Y-73396761D01*
X162053833Y-73301523D01*
X162006214Y-73206285D01*
X161958595Y-73015809D01*
X161958595Y-72872952D01*
X162006214Y-72682476D01*
X162053833Y-72587238D01*
X162149071Y-72492000D01*
X162291928Y-72444380D01*
X162387166Y-72444380D01*
X162530023Y-72492000D01*
X162577642Y-72539619D01*
X163530023Y-73444380D02*
X162958595Y-73444380D01*
X163244309Y-73444380D02*
X163244309Y-72444380D01*
X163149071Y-72587238D01*
X163053833Y-72682476D01*
X162958595Y-72730095D01*
X164387166Y-72777714D02*
X164387166Y-73444380D01*
X164149071Y-72396761D02*
X163910976Y-73111047D01*
X164530023Y-73111047D01*
G04 #@! TO.C,D1*
X155027404Y-68333880D02*
X155027404Y-67333880D01*
X155265500Y-67333880D01*
X155408357Y-67381500D01*
X155503595Y-67476738D01*
X155551214Y-67571976D01*
X155598833Y-67762452D01*
X155598833Y-67905309D01*
X155551214Y-68095785D01*
X155503595Y-68191023D01*
X155408357Y-68286261D01*
X155265500Y-68333880D01*
X155027404Y-68333880D01*
X156551214Y-68333880D02*
X155979785Y-68333880D01*
X156265500Y-68333880D02*
X156265500Y-67333880D01*
X156170261Y-67476738D01*
X156075023Y-67571976D01*
X155979785Y-67619595D01*
X162516904Y-69381666D02*
X162993095Y-69381666D01*
X162421666Y-69667380D02*
X162755000Y-68667380D01*
X163088333Y-69667380D01*
G04 #@! TO.C,U1*
X131523095Y-111698380D02*
X131523095Y-112507904D01*
X131570714Y-112603142D01*
X131618333Y-112650761D01*
X131713571Y-112698380D01*
X131904047Y-112698380D01*
X131999285Y-112650761D01*
X132046904Y-112603142D01*
X132094523Y-112507904D01*
X132094523Y-111698380D01*
X133094523Y-112698380D02*
X132523095Y-112698380D01*
X132808809Y-112698380D02*
X132808809Y-111698380D01*
X132713571Y-111841238D01*
X132618333Y-111936476D01*
X132523095Y-111984095D01*
G04 #@! TO.C,U9*
X153924095Y-71987380D02*
X153924095Y-72796904D01*
X153971714Y-72892142D01*
X154019333Y-72939761D01*
X154114571Y-72987380D01*
X154305047Y-72987380D01*
X154400285Y-72939761D01*
X154447904Y-72892142D01*
X154495523Y-72796904D01*
X154495523Y-71987380D01*
X155019333Y-72987380D02*
X155209809Y-72987380D01*
X155305047Y-72939761D01*
X155352666Y-72892142D01*
X155447904Y-72749285D01*
X155495523Y-72558809D01*
X155495523Y-72177857D01*
X155447904Y-72082619D01*
X155400285Y-72035000D01*
X155305047Y-71987380D01*
X155114571Y-71987380D01*
X155019333Y-72035000D01*
X154971714Y-72082619D01*
X154924095Y-72177857D01*
X154924095Y-72415952D01*
X154971714Y-72511190D01*
X155019333Y-72558809D01*
X155114571Y-72606428D01*
X155305047Y-72606428D01*
X155400285Y-72558809D01*
X155447904Y-72511190D01*
X155495523Y-72415952D01*
G04 #@! TO.C,C16*
X116832042Y-82061342D02*
X116784423Y-82108961D01*
X116641566Y-82156580D01*
X116546328Y-82156580D01*
X116403471Y-82108961D01*
X116308233Y-82013723D01*
X116260614Y-81918485D01*
X116212995Y-81728009D01*
X116212995Y-81585152D01*
X116260614Y-81394676D01*
X116308233Y-81299438D01*
X116403471Y-81204200D01*
X116546328Y-81156580D01*
X116641566Y-81156580D01*
X116784423Y-81204200D01*
X116832042Y-81251819D01*
X117784423Y-82156580D02*
X117212995Y-82156580D01*
X117498709Y-82156580D02*
X117498709Y-81156580D01*
X117403471Y-81299438D01*
X117308233Y-81394676D01*
X117212995Y-81442295D01*
X118641566Y-81156580D02*
X118451090Y-81156580D01*
X118355852Y-81204200D01*
X118308233Y-81251819D01*
X118212995Y-81394676D01*
X118165376Y-81585152D01*
X118165376Y-81966104D01*
X118212995Y-82061342D01*
X118260614Y-82108961D01*
X118355852Y-82156580D01*
X118546328Y-82156580D01*
X118641566Y-82108961D01*
X118689185Y-82061342D01*
X118736804Y-81966104D01*
X118736804Y-81728009D01*
X118689185Y-81632771D01*
X118641566Y-81585152D01*
X118546328Y-81537533D01*
X118355852Y-81537533D01*
X118260614Y-81585152D01*
X118212995Y-81632771D01*
X118165376Y-81728009D01*
G04 #@! TO.C,C17*
X120515142Y-82010542D02*
X120467523Y-82058161D01*
X120324666Y-82105780D01*
X120229428Y-82105780D01*
X120086571Y-82058161D01*
X119991333Y-81962923D01*
X119943714Y-81867685D01*
X119896095Y-81677209D01*
X119896095Y-81534352D01*
X119943714Y-81343876D01*
X119991333Y-81248638D01*
X120086571Y-81153400D01*
X120229428Y-81105780D01*
X120324666Y-81105780D01*
X120467523Y-81153400D01*
X120515142Y-81201019D01*
X121467523Y-82105780D02*
X120896095Y-82105780D01*
X121181809Y-82105780D02*
X121181809Y-81105780D01*
X121086571Y-81248638D01*
X120991333Y-81343876D01*
X120896095Y-81391495D01*
X121800857Y-81105780D02*
X122467523Y-81105780D01*
X122038952Y-82105780D01*
G04 #@! TO.C,C18*
X107862642Y-81478357D02*
X107910261Y-81525976D01*
X107957880Y-81668833D01*
X107957880Y-81764071D01*
X107910261Y-81906928D01*
X107815023Y-82002166D01*
X107719785Y-82049785D01*
X107529309Y-82097404D01*
X107386452Y-82097404D01*
X107195976Y-82049785D01*
X107100738Y-82002166D01*
X107005500Y-81906928D01*
X106957880Y-81764071D01*
X106957880Y-81668833D01*
X107005500Y-81525976D01*
X107053119Y-81478357D01*
X107957880Y-80525976D02*
X107957880Y-81097404D01*
X107957880Y-80811690D02*
X106957880Y-80811690D01*
X107100738Y-80906928D01*
X107195976Y-81002166D01*
X107243595Y-81097404D01*
X107386452Y-79954547D02*
X107338833Y-80049785D01*
X107291214Y-80097404D01*
X107195976Y-80145023D01*
X107148357Y-80145023D01*
X107053119Y-80097404D01*
X107005500Y-80049785D01*
X106957880Y-79954547D01*
X106957880Y-79764071D01*
X107005500Y-79668833D01*
X107053119Y-79621214D01*
X107148357Y-79573595D01*
X107195976Y-79573595D01*
X107291214Y-79621214D01*
X107338833Y-79668833D01*
X107386452Y-79764071D01*
X107386452Y-79954547D01*
X107434071Y-80049785D01*
X107481690Y-80097404D01*
X107576928Y-80145023D01*
X107767404Y-80145023D01*
X107862642Y-80097404D01*
X107910261Y-80049785D01*
X107957880Y-79954547D01*
X107957880Y-79764071D01*
X107910261Y-79668833D01*
X107862642Y-79621214D01*
X107767404Y-79573595D01*
X107576928Y-79573595D01*
X107481690Y-79621214D01*
X107434071Y-79668833D01*
X107386452Y-79764071D01*
G04 #@! TO.C,C19*
X124312542Y-91797142D02*
X124264923Y-91844761D01*
X124122066Y-91892380D01*
X124026828Y-91892380D01*
X123883971Y-91844761D01*
X123788733Y-91749523D01*
X123741114Y-91654285D01*
X123693495Y-91463809D01*
X123693495Y-91320952D01*
X123741114Y-91130476D01*
X123788733Y-91035238D01*
X123883971Y-90940000D01*
X124026828Y-90892380D01*
X124122066Y-90892380D01*
X124264923Y-90940000D01*
X124312542Y-90987619D01*
X125264923Y-91892380D02*
X124693495Y-91892380D01*
X124979209Y-91892380D02*
X124979209Y-90892380D01*
X124883971Y-91035238D01*
X124788733Y-91130476D01*
X124693495Y-91178095D01*
X125741114Y-91892380D02*
X125931590Y-91892380D01*
X126026828Y-91844761D01*
X126074447Y-91797142D01*
X126169685Y-91654285D01*
X126217304Y-91463809D01*
X126217304Y-91082857D01*
X126169685Y-90987619D01*
X126122066Y-90940000D01*
X126026828Y-90892380D01*
X125836352Y-90892380D01*
X125741114Y-90940000D01*
X125693495Y-90987619D01*
X125645876Y-91082857D01*
X125645876Y-91320952D01*
X125693495Y-91416190D01*
X125741114Y-91463809D01*
X125836352Y-91511428D01*
X126026828Y-91511428D01*
X126122066Y-91463809D01*
X126169685Y-91416190D01*
X126217304Y-91320952D01*
G04 #@! TO.C,C20*
X95099142Y-129750957D02*
X95146761Y-129798576D01*
X95194380Y-129941433D01*
X95194380Y-130036671D01*
X95146761Y-130179528D01*
X95051523Y-130274766D01*
X94956285Y-130322385D01*
X94765809Y-130370004D01*
X94622952Y-130370004D01*
X94432476Y-130322385D01*
X94337238Y-130274766D01*
X94242000Y-130179528D01*
X94194380Y-130036671D01*
X94194380Y-129941433D01*
X94242000Y-129798576D01*
X94289619Y-129750957D01*
X94289619Y-129370004D02*
X94242000Y-129322385D01*
X94194380Y-129227147D01*
X94194380Y-128989052D01*
X94242000Y-128893814D01*
X94289619Y-128846195D01*
X94384857Y-128798576D01*
X94480095Y-128798576D01*
X94622952Y-128846195D01*
X95194380Y-129417623D01*
X95194380Y-128798576D01*
X94194380Y-128179528D02*
X94194380Y-128084290D01*
X94242000Y-127989052D01*
X94289619Y-127941433D01*
X94384857Y-127893814D01*
X94575333Y-127846195D01*
X94813428Y-127846195D01*
X95003904Y-127893814D01*
X95099142Y-127941433D01*
X95146761Y-127989052D01*
X95194380Y-128084290D01*
X95194380Y-128179528D01*
X95146761Y-128274766D01*
X95099142Y-128322385D01*
X95003904Y-128370004D01*
X94813428Y-128417623D01*
X94575333Y-128417623D01*
X94384857Y-128370004D01*
X94289619Y-128322385D01*
X94242000Y-128274766D01*
X94194380Y-128179528D01*
G04 #@! TO.C,C21*
X150919043Y-121235742D02*
X150871424Y-121283361D01*
X150728567Y-121330980D01*
X150633329Y-121330980D01*
X150490472Y-121283361D01*
X150395234Y-121188123D01*
X150347615Y-121092885D01*
X150299996Y-120902409D01*
X150299996Y-120759552D01*
X150347615Y-120569076D01*
X150395234Y-120473838D01*
X150490472Y-120378600D01*
X150633329Y-120330980D01*
X150728567Y-120330980D01*
X150871424Y-120378600D01*
X150919043Y-120426219D01*
X151299996Y-120426219D02*
X151347615Y-120378600D01*
X151442853Y-120330980D01*
X151680948Y-120330980D01*
X151776186Y-120378600D01*
X151823805Y-120426219D01*
X151871424Y-120521457D01*
X151871424Y-120616695D01*
X151823805Y-120759552D01*
X151252377Y-121330980D01*
X151871424Y-121330980D01*
X152823805Y-121330980D02*
X152252377Y-121330980D01*
X152538091Y-121330980D02*
X152538091Y-120330980D01*
X152442853Y-120473838D01*
X152347615Y-120569076D01*
X152252377Y-120616695D01*
G04 #@! TO.C,C22*
X104276142Y-97035857D02*
X104323761Y-97083476D01*
X104371380Y-97226333D01*
X104371380Y-97321571D01*
X104323761Y-97464428D01*
X104228523Y-97559666D01*
X104133285Y-97607285D01*
X103942809Y-97654904D01*
X103799952Y-97654904D01*
X103609476Y-97607285D01*
X103514238Y-97559666D01*
X103419000Y-97464428D01*
X103371380Y-97321571D01*
X103371380Y-97226333D01*
X103419000Y-97083476D01*
X103466619Y-97035857D01*
X103466619Y-96654904D02*
X103419000Y-96607285D01*
X103371380Y-96512047D01*
X103371380Y-96273952D01*
X103419000Y-96178714D01*
X103466619Y-96131095D01*
X103561857Y-96083476D01*
X103657095Y-96083476D01*
X103799952Y-96131095D01*
X104371380Y-96702523D01*
X104371380Y-96083476D01*
X103466619Y-95702523D02*
X103419000Y-95654904D01*
X103371380Y-95559666D01*
X103371380Y-95321571D01*
X103419000Y-95226333D01*
X103466619Y-95178714D01*
X103561857Y-95131095D01*
X103657095Y-95131095D01*
X103799952Y-95178714D01*
X104371380Y-95750142D01*
X104371380Y-95131095D01*
G04 #@! TO.C,C23*
X121743742Y-89695257D02*
X121791361Y-89742876D01*
X121838980Y-89885733D01*
X121838980Y-89980971D01*
X121791361Y-90123828D01*
X121696123Y-90219066D01*
X121600885Y-90266685D01*
X121410409Y-90314304D01*
X121267552Y-90314304D01*
X121077076Y-90266685D01*
X120981838Y-90219066D01*
X120886600Y-90123828D01*
X120838980Y-89980971D01*
X120838980Y-89885733D01*
X120886600Y-89742876D01*
X120934219Y-89695257D01*
X120934219Y-89314304D02*
X120886600Y-89266685D01*
X120838980Y-89171447D01*
X120838980Y-88933352D01*
X120886600Y-88838114D01*
X120934219Y-88790495D01*
X121029457Y-88742876D01*
X121124695Y-88742876D01*
X121267552Y-88790495D01*
X121838980Y-89361923D01*
X121838980Y-88742876D01*
X120838980Y-88409542D02*
X120838980Y-87790495D01*
X121219933Y-88123828D01*
X121219933Y-87980971D01*
X121267552Y-87885733D01*
X121315171Y-87838114D01*
X121410409Y-87790495D01*
X121648504Y-87790495D01*
X121743742Y-87838114D01*
X121791361Y-87885733D01*
X121838980Y-87980971D01*
X121838980Y-88266685D01*
X121791361Y-88361923D01*
X121743742Y-88409542D01*
G04 #@! TO.C,C24*
X106148142Y-127033156D02*
X106195761Y-127080775D01*
X106243380Y-127223632D01*
X106243380Y-127318870D01*
X106195761Y-127461727D01*
X106100523Y-127556965D01*
X106005285Y-127604584D01*
X105814809Y-127652203D01*
X105671952Y-127652203D01*
X105481476Y-127604584D01*
X105386238Y-127556965D01*
X105291000Y-127461727D01*
X105243380Y-127318870D01*
X105243380Y-127223632D01*
X105291000Y-127080775D01*
X105338619Y-127033156D01*
X105338619Y-126652203D02*
X105291000Y-126604584D01*
X105243380Y-126509346D01*
X105243380Y-126271251D01*
X105291000Y-126176013D01*
X105338619Y-126128394D01*
X105433857Y-126080775D01*
X105529095Y-126080775D01*
X105671952Y-126128394D01*
X106243380Y-126699822D01*
X106243380Y-126080775D01*
X105576714Y-125223632D02*
X106243380Y-125223632D01*
X105195761Y-125461727D02*
X105910047Y-125699822D01*
X105910047Y-125080775D01*
G04 #@! TO.C,C25*
X96402142Y-97035857D02*
X96449761Y-97083476D01*
X96497380Y-97226333D01*
X96497380Y-97321571D01*
X96449761Y-97464428D01*
X96354523Y-97559666D01*
X96259285Y-97607285D01*
X96068809Y-97654904D01*
X95925952Y-97654904D01*
X95735476Y-97607285D01*
X95640238Y-97559666D01*
X95545000Y-97464428D01*
X95497380Y-97321571D01*
X95497380Y-97226333D01*
X95545000Y-97083476D01*
X95592619Y-97035857D01*
X95592619Y-96654904D02*
X95545000Y-96607285D01*
X95497380Y-96512047D01*
X95497380Y-96273952D01*
X95545000Y-96178714D01*
X95592619Y-96131095D01*
X95687857Y-96083476D01*
X95783095Y-96083476D01*
X95925952Y-96131095D01*
X96497380Y-96702523D01*
X96497380Y-96083476D01*
X95497380Y-95178714D02*
X95497380Y-95654904D01*
X95973571Y-95702523D01*
X95925952Y-95654904D01*
X95878333Y-95559666D01*
X95878333Y-95321571D01*
X95925952Y-95226333D01*
X95973571Y-95178714D01*
X96068809Y-95131095D01*
X96306904Y-95131095D01*
X96402142Y-95178714D01*
X96449761Y-95226333D01*
X96497380Y-95321571D01*
X96497380Y-95559666D01*
X96449761Y-95654904D01*
X96402142Y-95702523D01*
G04 #@! TO.C,C26*
X103421043Y-102846142D02*
X103373424Y-102893761D01*
X103230567Y-102941380D01*
X103135329Y-102941380D01*
X102992472Y-102893761D01*
X102897234Y-102798523D01*
X102849615Y-102703285D01*
X102801996Y-102512809D01*
X102801996Y-102369952D01*
X102849615Y-102179476D01*
X102897234Y-102084238D01*
X102992472Y-101989000D01*
X103135329Y-101941380D01*
X103230567Y-101941380D01*
X103373424Y-101989000D01*
X103421043Y-102036619D01*
X103801996Y-102036619D02*
X103849615Y-101989000D01*
X103944853Y-101941380D01*
X104182948Y-101941380D01*
X104278186Y-101989000D01*
X104325805Y-102036619D01*
X104373424Y-102131857D01*
X104373424Y-102227095D01*
X104325805Y-102369952D01*
X103754377Y-102941380D01*
X104373424Y-102941380D01*
X105230567Y-101941380D02*
X105040091Y-101941380D01*
X104944853Y-101989000D01*
X104897234Y-102036619D01*
X104801996Y-102179476D01*
X104754377Y-102369952D01*
X104754377Y-102750904D01*
X104801996Y-102846142D01*
X104849615Y-102893761D01*
X104944853Y-102941380D01*
X105135329Y-102941380D01*
X105230567Y-102893761D01*
X105278186Y-102846142D01*
X105325805Y-102750904D01*
X105325805Y-102512809D01*
X105278186Y-102417571D01*
X105230567Y-102369952D01*
X105135329Y-102322333D01*
X104944853Y-102322333D01*
X104849615Y-102369952D01*
X104801996Y-102417571D01*
X104754377Y-102512809D01*
G04 #@! TO.C,C27*
X122674142Y-106178642D02*
X122626523Y-106226261D01*
X122483666Y-106273880D01*
X122388428Y-106273880D01*
X122245571Y-106226261D01*
X122150333Y-106131023D01*
X122102714Y-106035785D01*
X122055095Y-105845309D01*
X122055095Y-105702452D01*
X122102714Y-105511976D01*
X122150333Y-105416738D01*
X122245571Y-105321500D01*
X122388428Y-105273880D01*
X122483666Y-105273880D01*
X122626523Y-105321500D01*
X122674142Y-105369119D01*
X123055095Y-105369119D02*
X123102714Y-105321500D01*
X123197952Y-105273880D01*
X123436047Y-105273880D01*
X123531285Y-105321500D01*
X123578904Y-105369119D01*
X123626523Y-105464357D01*
X123626523Y-105559595D01*
X123578904Y-105702452D01*
X123007476Y-106273880D01*
X123626523Y-106273880D01*
X123959857Y-105273880D02*
X124626523Y-105273880D01*
X124197952Y-106273880D01*
G04 #@! TO.C,C28*
X127436642Y-112561642D02*
X127389023Y-112609261D01*
X127246166Y-112656880D01*
X127150928Y-112656880D01*
X127008071Y-112609261D01*
X126912833Y-112514023D01*
X126865214Y-112418785D01*
X126817595Y-112228309D01*
X126817595Y-112085452D01*
X126865214Y-111894976D01*
X126912833Y-111799738D01*
X127008071Y-111704500D01*
X127150928Y-111656880D01*
X127246166Y-111656880D01*
X127389023Y-111704500D01*
X127436642Y-111752119D01*
X127817595Y-111752119D02*
X127865214Y-111704500D01*
X127960452Y-111656880D01*
X128198547Y-111656880D01*
X128293785Y-111704500D01*
X128341404Y-111752119D01*
X128389023Y-111847357D01*
X128389023Y-111942595D01*
X128341404Y-112085452D01*
X127769976Y-112656880D01*
X128389023Y-112656880D01*
X128960452Y-112085452D02*
X128865214Y-112037833D01*
X128817595Y-111990214D01*
X128769976Y-111894976D01*
X128769976Y-111847357D01*
X128817595Y-111752119D01*
X128865214Y-111704500D01*
X128960452Y-111656880D01*
X129150928Y-111656880D01*
X129246166Y-111704500D01*
X129293785Y-111752119D01*
X129341404Y-111847357D01*
X129341404Y-111894976D01*
X129293785Y-111990214D01*
X129246166Y-112037833D01*
X129150928Y-112085452D01*
X128960452Y-112085452D01*
X128865214Y-112133071D01*
X128817595Y-112180690D01*
X128769976Y-112275928D01*
X128769976Y-112466404D01*
X128817595Y-112561642D01*
X128865214Y-112609261D01*
X128960452Y-112656880D01*
X129150928Y-112656880D01*
X129246166Y-112609261D01*
X129293785Y-112561642D01*
X129341404Y-112466404D01*
X129341404Y-112275928D01*
X129293785Y-112180690D01*
X129246166Y-112133071D01*
X129150928Y-112085452D01*
G04 #@! TO.C,C29*
X94032342Y-110269257D02*
X94079961Y-110316876D01*
X94127580Y-110459733D01*
X94127580Y-110554971D01*
X94079961Y-110697828D01*
X93984723Y-110793066D01*
X93889485Y-110840685D01*
X93699009Y-110888304D01*
X93556152Y-110888304D01*
X93365676Y-110840685D01*
X93270438Y-110793066D01*
X93175200Y-110697828D01*
X93127580Y-110554971D01*
X93127580Y-110459733D01*
X93175200Y-110316876D01*
X93222819Y-110269257D01*
X93222819Y-109888304D02*
X93175200Y-109840685D01*
X93127580Y-109745447D01*
X93127580Y-109507352D01*
X93175200Y-109412114D01*
X93222819Y-109364495D01*
X93318057Y-109316876D01*
X93413295Y-109316876D01*
X93556152Y-109364495D01*
X94127580Y-109935923D01*
X94127580Y-109316876D01*
X94127580Y-108840685D02*
X94127580Y-108650209D01*
X94079961Y-108554971D01*
X94032342Y-108507352D01*
X93889485Y-108412114D01*
X93699009Y-108364495D01*
X93318057Y-108364495D01*
X93222819Y-108412114D01*
X93175200Y-108459733D01*
X93127580Y-108554971D01*
X93127580Y-108745447D01*
X93175200Y-108840685D01*
X93222819Y-108888304D01*
X93318057Y-108935923D01*
X93556152Y-108935923D01*
X93651390Y-108888304D01*
X93699009Y-108840685D01*
X93746628Y-108745447D01*
X93746628Y-108554971D01*
X93699009Y-108459733D01*
X93651390Y-108412114D01*
X93556152Y-108364495D01*
G04 #@! TO.C,C30*
X143503942Y-111463057D02*
X143551561Y-111510676D01*
X143599180Y-111653533D01*
X143599180Y-111748771D01*
X143551561Y-111891628D01*
X143456323Y-111986866D01*
X143361085Y-112034485D01*
X143170609Y-112082104D01*
X143027752Y-112082104D01*
X142837276Y-112034485D01*
X142742038Y-111986866D01*
X142646800Y-111891628D01*
X142599180Y-111748771D01*
X142599180Y-111653533D01*
X142646800Y-111510676D01*
X142694419Y-111463057D01*
X142599180Y-111129723D02*
X142599180Y-110510676D01*
X142980133Y-110844009D01*
X142980133Y-110701152D01*
X143027752Y-110605914D01*
X143075371Y-110558295D01*
X143170609Y-110510676D01*
X143408704Y-110510676D01*
X143503942Y-110558295D01*
X143551561Y-110605914D01*
X143599180Y-110701152D01*
X143599180Y-110986866D01*
X143551561Y-111082104D01*
X143503942Y-111129723D01*
X142599180Y-109891628D02*
X142599180Y-109796390D01*
X142646800Y-109701152D01*
X142694419Y-109653533D01*
X142789657Y-109605914D01*
X142980133Y-109558295D01*
X143218228Y-109558295D01*
X143408704Y-109605914D01*
X143503942Y-109653533D01*
X143551561Y-109701152D01*
X143599180Y-109796390D01*
X143599180Y-109891628D01*
X143551561Y-109986866D01*
X143503942Y-110034485D01*
X143408704Y-110082104D01*
X143218228Y-110129723D01*
X142980133Y-110129723D01*
X142789657Y-110082104D01*
X142694419Y-110034485D01*
X142646800Y-109986866D01*
X142599180Y-109891628D01*
G04 #@! TO.C,J1*
X98536166Y-82339380D02*
X98536166Y-83053666D01*
X98488547Y-83196523D01*
X98393309Y-83291761D01*
X98250452Y-83339380D01*
X98155214Y-83339380D01*
X99536166Y-83339380D02*
X98964738Y-83339380D01*
X99250452Y-83339380D02*
X99250452Y-82339380D01*
X99155214Y-82482238D01*
X99059976Y-82577476D01*
X98964738Y-82625095D01*
G04 #@! TO.C,J2*
X98536166Y-100563880D02*
X98536166Y-101278166D01*
X98488547Y-101421023D01*
X98393309Y-101516261D01*
X98250452Y-101563880D01*
X98155214Y-101563880D01*
X98964738Y-100659119D02*
X99012357Y-100611500D01*
X99107595Y-100563880D01*
X99345690Y-100563880D01*
X99440928Y-100611500D01*
X99488547Y-100659119D01*
X99536166Y-100754357D01*
X99536166Y-100849595D01*
X99488547Y-100992452D01*
X98917119Y-101563880D01*
X99536166Y-101563880D01*
G04 #@! TO.C,J3*
X98536166Y-116565880D02*
X98536166Y-117280166D01*
X98488547Y-117423023D01*
X98393309Y-117518261D01*
X98250452Y-117565880D01*
X98155214Y-117565880D01*
X98917119Y-116565880D02*
X99536166Y-116565880D01*
X99202833Y-116946833D01*
X99345690Y-116946833D01*
X99440928Y-116994452D01*
X99488547Y-117042071D01*
X99536166Y-117137309D01*
X99536166Y-117375404D01*
X99488547Y-117470642D01*
X99440928Y-117518261D01*
X99345690Y-117565880D01*
X99059976Y-117565880D01*
X98964738Y-117518261D01*
X98917119Y-117470642D01*
G04 #@! TO.C,J4*
X111299666Y-82339380D02*
X111299666Y-83053666D01*
X111252047Y-83196523D01*
X111156809Y-83291761D01*
X111013952Y-83339380D01*
X110918714Y-83339380D01*
X112204428Y-82672714D02*
X112204428Y-83339380D01*
X111966333Y-82291761D02*
X111728238Y-83006047D01*
X112347285Y-83006047D01*
G04 #@! TO.C,J5*
X111363166Y-100563880D02*
X111363166Y-101278166D01*
X111315547Y-101421023D01*
X111220309Y-101516261D01*
X111077452Y-101563880D01*
X110982214Y-101563880D01*
X112315547Y-100563880D02*
X111839357Y-100563880D01*
X111791738Y-101040071D01*
X111839357Y-100992452D01*
X111934595Y-100944833D01*
X112172690Y-100944833D01*
X112267928Y-100992452D01*
X112315547Y-101040071D01*
X112363166Y-101135309D01*
X112363166Y-101373404D01*
X112315547Y-101468642D01*
X112267928Y-101516261D01*
X112172690Y-101563880D01*
X111934595Y-101563880D01*
X111839357Y-101516261D01*
X111791738Y-101468642D01*
G04 #@! TO.C,J6*
X111363166Y-116565880D02*
X111363166Y-117280166D01*
X111315547Y-117423023D01*
X111220309Y-117518261D01*
X111077452Y-117565880D01*
X110982214Y-117565880D01*
X112267928Y-116565880D02*
X112077452Y-116565880D01*
X111982214Y-116613500D01*
X111934595Y-116661119D01*
X111839357Y-116803976D01*
X111791738Y-116994452D01*
X111791738Y-117375404D01*
X111839357Y-117470642D01*
X111886976Y-117518261D01*
X111982214Y-117565880D01*
X112172690Y-117565880D01*
X112267928Y-117518261D01*
X112315547Y-117470642D01*
X112363166Y-117375404D01*
X112363166Y-117137309D01*
X112315547Y-117042071D01*
X112267928Y-116994452D01*
X112172690Y-116946833D01*
X111982214Y-116946833D01*
X111886976Y-116994452D01*
X111839357Y-117042071D01*
X111791738Y-117137309D01*
G04 #@! TO.C,L1*
X132192833Y-111290380D02*
X131716642Y-111290380D01*
X131716642Y-110290380D01*
X133049976Y-111290380D02*
X132478547Y-111290380D01*
X132764261Y-111290380D02*
X132764261Y-110290380D01*
X132669023Y-110433238D01*
X132573785Y-110528476D01*
X132478547Y-110576095D01*
G04 #@! TO.C,R1*
X139088833Y-113990380D02*
X138755500Y-113514190D01*
X138517404Y-113990380D02*
X138517404Y-112990380D01*
X138898357Y-112990380D01*
X138993595Y-113038000D01*
X139041214Y-113085619D01*
X139088833Y-113180857D01*
X139088833Y-113323714D01*
X139041214Y-113418952D01*
X138993595Y-113466571D01*
X138898357Y-113514190D01*
X138517404Y-113514190D01*
X140041214Y-113990380D02*
X139469785Y-113990380D01*
X139755500Y-113990380D02*
X139755500Y-112990380D01*
X139660261Y-113133238D01*
X139565023Y-113228476D01*
X139469785Y-113276095D01*
G04 #@! TO.C,R2*
X139088833Y-115514380D02*
X138755500Y-115038190D01*
X138517404Y-115514380D02*
X138517404Y-114514380D01*
X138898357Y-114514380D01*
X138993595Y-114562000D01*
X139041214Y-114609619D01*
X139088833Y-114704857D01*
X139088833Y-114847714D01*
X139041214Y-114942952D01*
X138993595Y-114990571D01*
X138898357Y-115038190D01*
X138517404Y-115038190D01*
X139469785Y-114609619D02*
X139517404Y-114562000D01*
X139612642Y-114514380D01*
X139850738Y-114514380D01*
X139945976Y-114562000D01*
X139993595Y-114609619D01*
X140041214Y-114704857D01*
X140041214Y-114800095D01*
X139993595Y-114942952D01*
X139422166Y-115514380D01*
X140041214Y-115514380D01*
G04 #@! TO.C,R5*
X158964333Y-65824380D02*
X158631000Y-65348190D01*
X158392904Y-65824380D02*
X158392904Y-64824380D01*
X158773857Y-64824380D01*
X158869095Y-64872000D01*
X158916714Y-64919619D01*
X158964333Y-65014857D01*
X158964333Y-65157714D01*
X158916714Y-65252952D01*
X158869095Y-65300571D01*
X158773857Y-65348190D01*
X158392904Y-65348190D01*
X159869095Y-64824380D02*
X159392904Y-64824380D01*
X159345285Y-65300571D01*
X159392904Y-65252952D01*
X159488142Y-65205333D01*
X159726238Y-65205333D01*
X159821476Y-65252952D01*
X159869095Y-65300571D01*
X159916714Y-65395809D01*
X159916714Y-65633904D01*
X159869095Y-65729142D01*
X159821476Y-65776761D01*
X159726238Y-65824380D01*
X159488142Y-65824380D01*
X159392904Y-65776761D01*
X159345285Y-65729142D01*
G04 #@! TO.C,R7*
X160107333Y-76304380D02*
X159774000Y-75828190D01*
X159535904Y-76304380D02*
X159535904Y-75304380D01*
X159916857Y-75304380D01*
X160012095Y-75352000D01*
X160059714Y-75399619D01*
X160107333Y-75494857D01*
X160107333Y-75637714D01*
X160059714Y-75732952D01*
X160012095Y-75780571D01*
X159916857Y-75828190D01*
X159535904Y-75828190D01*
X160440666Y-75304380D02*
X161107333Y-75304380D01*
X160678761Y-76304380D01*
G04 #@! TO.C,R8*
X156678333Y-94114880D02*
X156345000Y-93638690D01*
X156106904Y-94114880D02*
X156106904Y-93114880D01*
X156487857Y-93114880D01*
X156583095Y-93162500D01*
X156630714Y-93210119D01*
X156678333Y-93305357D01*
X156678333Y-93448214D01*
X156630714Y-93543452D01*
X156583095Y-93591071D01*
X156487857Y-93638690D01*
X156106904Y-93638690D01*
X157249761Y-93543452D02*
X157154523Y-93495833D01*
X157106904Y-93448214D01*
X157059285Y-93352976D01*
X157059285Y-93305357D01*
X157106904Y-93210119D01*
X157154523Y-93162500D01*
X157249761Y-93114880D01*
X157440238Y-93114880D01*
X157535476Y-93162500D01*
X157583095Y-93210119D01*
X157630714Y-93305357D01*
X157630714Y-93352976D01*
X157583095Y-93448214D01*
X157535476Y-93495833D01*
X157440238Y-93543452D01*
X157249761Y-93543452D01*
X157154523Y-93591071D01*
X157106904Y-93638690D01*
X157059285Y-93733928D01*
X157059285Y-93924404D01*
X157106904Y-94019642D01*
X157154523Y-94067261D01*
X157249761Y-94114880D01*
X157440238Y-94114880D01*
X157535476Y-94067261D01*
X157583095Y-94019642D01*
X157630714Y-93924404D01*
X157630714Y-93733928D01*
X157583095Y-93638690D01*
X157535476Y-93591071D01*
X157440238Y-93543452D01*
G04 #@! TO.C,R10*
X159478742Y-81402180D02*
X159145409Y-80925990D01*
X158907314Y-81402180D02*
X158907314Y-80402180D01*
X159288266Y-80402180D01*
X159383504Y-80449800D01*
X159431123Y-80497419D01*
X159478742Y-80592657D01*
X159478742Y-80735514D01*
X159431123Y-80830752D01*
X159383504Y-80878371D01*
X159288266Y-80925990D01*
X158907314Y-80925990D01*
X160431123Y-81402180D02*
X159859695Y-81402180D01*
X160145409Y-81402180D02*
X160145409Y-80402180D01*
X160050171Y-80545038D01*
X159954933Y-80640276D01*
X159859695Y-80687895D01*
X161050171Y-80402180D02*
X161145409Y-80402180D01*
X161240647Y-80449800D01*
X161288266Y-80497419D01*
X161335885Y-80592657D01*
X161383504Y-80783133D01*
X161383504Y-81021228D01*
X161335885Y-81211704D01*
X161288266Y-81306942D01*
X161240647Y-81354561D01*
X161145409Y-81402180D01*
X161050171Y-81402180D01*
X160954933Y-81354561D01*
X160907314Y-81306942D01*
X160859695Y-81211704D01*
X160812076Y-81021228D01*
X160812076Y-80783133D01*
X160859695Y-80592657D01*
X160907314Y-80497419D01*
X160954933Y-80449800D01*
X161050171Y-80402180D01*
G04 #@! TO.C,U10*
X153447904Y-81809380D02*
X153447904Y-82618904D01*
X153495523Y-82714142D01*
X153543142Y-82761761D01*
X153638380Y-82809380D01*
X153828857Y-82809380D01*
X153924095Y-82761761D01*
X153971714Y-82714142D01*
X154019333Y-82618904D01*
X154019333Y-81809380D01*
X155019333Y-82809380D02*
X154447904Y-82809380D01*
X154733619Y-82809380D02*
X154733619Y-81809380D01*
X154638380Y-81952238D01*
X154543142Y-82047476D01*
X154447904Y-82095095D01*
X155638380Y-81809380D02*
X155733619Y-81809380D01*
X155828857Y-81857000D01*
X155876476Y-81904619D01*
X155924095Y-81999857D01*
X155971714Y-82190333D01*
X155971714Y-82428428D01*
X155924095Y-82618904D01*
X155876476Y-82714142D01*
X155828857Y-82761761D01*
X155733619Y-82809380D01*
X155638380Y-82809380D01*
X155543142Y-82761761D01*
X155495523Y-82714142D01*
X155447904Y-82618904D01*
X155400285Y-82428428D01*
X155400285Y-82190333D01*
X155447904Y-81999857D01*
X155495523Y-81904619D01*
X155543142Y-81857000D01*
X155638380Y-81809380D01*
G04 #@! TO.C,Y1*
X170465809Y-120975190D02*
X170465809Y-121451380D01*
X170132476Y-120451380D02*
X170465809Y-120975190D01*
X170799142Y-120451380D01*
X171656285Y-121451380D02*
X171084857Y-121451380D01*
X171370571Y-121451380D02*
X171370571Y-120451380D01*
X171275333Y-120594238D01*
X171180095Y-120689476D01*
X171084857Y-120737095D01*
G04 #@! TO.C,Y2*
X146970809Y-78494190D02*
X146970809Y-78970380D01*
X146637476Y-77970380D02*
X146970809Y-78494190D01*
X147304142Y-77970380D01*
X147589857Y-78065619D02*
X147637476Y-78018000D01*
X147732714Y-77970380D01*
X147970809Y-77970380D01*
X148066047Y-78018000D01*
X148113666Y-78065619D01*
X148161285Y-78160857D01*
X148161285Y-78256095D01*
X148113666Y-78398952D01*
X147542238Y-78970380D01*
X148161285Y-78970380D01*
G04 #@! TO.C,C11*
X165934642Y-95003857D02*
X165982261Y-95051476D01*
X166029880Y-95194333D01*
X166029880Y-95289571D01*
X165982261Y-95432428D01*
X165887023Y-95527666D01*
X165791785Y-95575285D01*
X165601309Y-95622904D01*
X165458452Y-95622904D01*
X165267976Y-95575285D01*
X165172738Y-95527666D01*
X165077500Y-95432428D01*
X165029880Y-95289571D01*
X165029880Y-95194333D01*
X165077500Y-95051476D01*
X165125119Y-95003857D01*
X166029880Y-94051476D02*
X166029880Y-94622904D01*
X166029880Y-94337190D02*
X165029880Y-94337190D01*
X165172738Y-94432428D01*
X165267976Y-94527666D01*
X165315595Y-94622904D01*
X166029880Y-93099095D02*
X166029880Y-93670523D01*
X166029880Y-93384809D02*
X165029880Y-93384809D01*
X165172738Y-93480047D01*
X165267976Y-93575285D01*
X165315595Y-93670523D01*
G04 #@! TO.C,R4*
X157884833Y-122562880D02*
X157551500Y-122086690D01*
X157313404Y-122562880D02*
X157313404Y-121562880D01*
X157694357Y-121562880D01*
X157789595Y-121610500D01*
X157837214Y-121658119D01*
X157884833Y-121753357D01*
X157884833Y-121896214D01*
X157837214Y-121991452D01*
X157789595Y-122039071D01*
X157694357Y-122086690D01*
X157313404Y-122086690D01*
X158741976Y-121896214D02*
X158741976Y-122562880D01*
X158503880Y-121515261D02*
X158265785Y-122229547D01*
X158884833Y-122229547D01*
G04 #@! TO.C,SW1*
X168647761Y-125741333D02*
X168695380Y-125598476D01*
X168695380Y-125360380D01*
X168647761Y-125265142D01*
X168600142Y-125217523D01*
X168504904Y-125169904D01*
X168409666Y-125169904D01*
X168314428Y-125217523D01*
X168266809Y-125265142D01*
X168219190Y-125360380D01*
X168171571Y-125550857D01*
X168123952Y-125646095D01*
X168076333Y-125693714D01*
X167981095Y-125741333D01*
X167885857Y-125741333D01*
X167790619Y-125693714D01*
X167743000Y-125646095D01*
X167695380Y-125550857D01*
X167695380Y-125312761D01*
X167743000Y-125169904D01*
X167695380Y-124836571D02*
X168695380Y-124598476D01*
X167981095Y-124408000D01*
X168695380Y-124217523D01*
X167695380Y-123979428D01*
X168695380Y-123074666D02*
X168695380Y-123646095D01*
X168695380Y-123360380D02*
X167695380Y-123360380D01*
X167838238Y-123455619D01*
X167933476Y-123550857D01*
X167981095Y-123646095D01*
G04 #@! TO.C,J7*
X145077380Y-114506333D02*
X145791666Y-114506333D01*
X145934523Y-114553952D01*
X146029761Y-114649190D01*
X146077380Y-114792047D01*
X146077380Y-114887285D01*
X145077380Y-114125380D02*
X145077380Y-113458714D01*
X146077380Y-113887285D01*
G04 #@! TO.C,D2*
X146581904Y-113950380D02*
X146581904Y-112950380D01*
X146820000Y-112950380D01*
X146962857Y-112998000D01*
X147058095Y-113093238D01*
X147105714Y-113188476D01*
X147153333Y-113378952D01*
X147153333Y-113521809D01*
X147105714Y-113712285D01*
X147058095Y-113807523D01*
X146962857Y-113902761D01*
X146820000Y-113950380D01*
X146581904Y-113950380D01*
X147534285Y-113045619D02*
X147581904Y-112998000D01*
X147677142Y-112950380D01*
X147915238Y-112950380D01*
X148010476Y-112998000D01*
X148058095Y-113045619D01*
X148105714Y-113140857D01*
X148105714Y-113236095D01*
X148058095Y-113378952D01*
X147486666Y-113950380D01*
X148105714Y-113950380D01*
G04 #@! TO.C,J9*
X177506380Y-76406333D02*
X178220666Y-76406333D01*
X178363523Y-76453952D01*
X178458761Y-76549190D01*
X178506380Y-76692047D01*
X178506380Y-76787285D01*
X178506380Y-75882523D02*
X178506380Y-75692047D01*
X178458761Y-75596809D01*
X178411142Y-75549190D01*
X178268285Y-75453952D01*
X178077809Y-75406333D01*
X177696857Y-75406333D01*
X177601619Y-75453952D01*
X177554000Y-75501571D01*
X177506380Y-75596809D01*
X177506380Y-75787285D01*
X177554000Y-75882523D01*
X177601619Y-75930142D01*
X177696857Y-75977761D01*
X177934952Y-75977761D01*
X178030190Y-75930142D01*
X178077809Y-75882523D01*
X178125428Y-75787285D01*
X178125428Y-75596809D01*
X178077809Y-75501571D01*
X178030190Y-75453952D01*
X177934952Y-75406333D01*
G04 #@! TO.C,C1*
X125283833Y-117767642D02*
X125236214Y-117815261D01*
X125093357Y-117862880D01*
X124998119Y-117862880D01*
X124855261Y-117815261D01*
X124760023Y-117720023D01*
X124712404Y-117624785D01*
X124664785Y-117434309D01*
X124664785Y-117291452D01*
X124712404Y-117100976D01*
X124760023Y-117005738D01*
X124855261Y-116910500D01*
X124998119Y-116862880D01*
X125093357Y-116862880D01*
X125236214Y-116910500D01*
X125283833Y-116958119D01*
X126236214Y-117862880D02*
X125664785Y-117862880D01*
X125950500Y-117862880D02*
X125950500Y-116862880D01*
X125855261Y-117005738D01*
X125760023Y-117100976D01*
X125664785Y-117148595D01*
G04 #@! TO.C,C5*
X131549142Y-90781166D02*
X131596761Y-90828785D01*
X131644380Y-90971642D01*
X131644380Y-91066880D01*
X131596761Y-91209738D01*
X131501523Y-91304976D01*
X131406285Y-91352595D01*
X131215809Y-91400214D01*
X131072952Y-91400214D01*
X130882476Y-91352595D01*
X130787238Y-91304976D01*
X130692000Y-91209738D01*
X130644380Y-91066880D01*
X130644380Y-90971642D01*
X130692000Y-90828785D01*
X130739619Y-90781166D01*
X130644380Y-89876404D02*
X130644380Y-90352595D01*
X131120571Y-90400214D01*
X131072952Y-90352595D01*
X131025333Y-90257357D01*
X131025333Y-90019261D01*
X131072952Y-89924023D01*
X131120571Y-89876404D01*
X131215809Y-89828785D01*
X131453904Y-89828785D01*
X131549142Y-89876404D01*
X131596761Y-89924023D01*
X131644380Y-90019261D01*
X131644380Y-90257357D01*
X131596761Y-90352595D01*
X131549142Y-90400214D01*
G04 #@! TO.C,C6*
X139550142Y-84367666D02*
X139597761Y-84415285D01*
X139645380Y-84558142D01*
X139645380Y-84653380D01*
X139597761Y-84796238D01*
X139502523Y-84891476D01*
X139407285Y-84939095D01*
X139216809Y-84986714D01*
X139073952Y-84986714D01*
X138883476Y-84939095D01*
X138788238Y-84891476D01*
X138693000Y-84796238D01*
X138645380Y-84653380D01*
X138645380Y-84558142D01*
X138693000Y-84415285D01*
X138740619Y-84367666D01*
X138645380Y-83510523D02*
X138645380Y-83701000D01*
X138693000Y-83796238D01*
X138740619Y-83843857D01*
X138883476Y-83939095D01*
X139073952Y-83986714D01*
X139454904Y-83986714D01*
X139550142Y-83939095D01*
X139597761Y-83891476D01*
X139645380Y-83796238D01*
X139645380Y-83605761D01*
X139597761Y-83510523D01*
X139550142Y-83462904D01*
X139454904Y-83415285D01*
X139216809Y-83415285D01*
X139121571Y-83462904D01*
X139073952Y-83510523D01*
X139026333Y-83605761D01*
X139026333Y-83796238D01*
X139073952Y-83891476D01*
X139121571Y-83939095D01*
X139216809Y-83986714D01*
G04 #@! TO.C,C7*
X151551642Y-66079666D02*
X151599261Y-66127285D01*
X151646880Y-66270142D01*
X151646880Y-66365380D01*
X151599261Y-66508238D01*
X151504023Y-66603476D01*
X151408785Y-66651095D01*
X151218309Y-66698714D01*
X151075452Y-66698714D01*
X150884976Y-66651095D01*
X150789738Y-66603476D01*
X150694500Y-66508238D01*
X150646880Y-66365380D01*
X150646880Y-66270142D01*
X150694500Y-66127285D01*
X150742119Y-66079666D01*
X150646880Y-65746333D02*
X150646880Y-65079666D01*
X151646880Y-65508238D01*
G04 #@! TD*
M02*
