G04 #@! TF.GenerationSoftware,KiCad,Pcbnew,(5.0.2)-1*
G04 #@! TF.CreationDate,2019-02-02T15:46:13-06:00*
G04 #@! TF.ProjectId,Motor test module,4d6f746f-7220-4746-9573-74206d6f6475,rev?*
G04 #@! TF.SameCoordinates,Original*
G04 #@! TF.FileFunction,Copper,L2,Bot*
G04 #@! TF.FilePolarity,Positive*
%FSLAX46Y46*%
G04 Gerber Fmt 4.6, Leading zero omitted, Abs format (unit mm)*
G04 Created by KiCad (PCBNEW (5.0.2)-1) date 2/2/2019 3:46:13 PM*
%MOMM*%
%LPD*%
G01*
G04 APERTURE LIST*
G04 #@! TA.AperFunction,ComponentPad*
%ADD10R,1.700000X1.700000*%
G04 #@! TD*
G04 #@! TA.AperFunction,ComponentPad*
%ADD11O,1.700000X1.700000*%
G04 #@! TD*
G04 #@! TA.AperFunction,ComponentPad*
%ADD12R,3.000000X3.000000*%
G04 #@! TD*
G04 #@! TA.AperFunction,ComponentPad*
%ADD13C,3.000000*%
G04 #@! TD*
G04 #@! TA.AperFunction,ComponentPad*
%ADD14R,2.200000X2.200000*%
G04 #@! TD*
G04 #@! TA.AperFunction,ComponentPad*
%ADD15O,2.200000X2.200000*%
G04 #@! TD*
G04 #@! TA.AperFunction,ComponentPad*
%ADD16C,0.600000*%
G04 #@! TD*
G04 #@! TA.AperFunction,Conductor*
%ADD17R,2.300000X2.300000*%
G04 #@! TD*
G04 #@! TA.AperFunction,ComponentPad*
%ADD18C,2.000000*%
G04 #@! TD*
G04 #@! TA.AperFunction,ViaPad*
%ADD19C,0.800000*%
G04 #@! TD*
G04 #@! TA.AperFunction,Conductor*
%ADD20C,0.500000*%
G04 #@! TD*
G04 #@! TA.AperFunction,Conductor*
%ADD21C,0.250000*%
G04 #@! TD*
G04 #@! TA.AperFunction,Conductor*
%ADD22C,0.750000*%
G04 #@! TD*
G04 #@! TA.AperFunction,Conductor*
%ADD23C,0.254000*%
G04 #@! TD*
G04 APERTURE END LIST*
D10*
G04 #@! TO.P,J10,1*
G04 #@! TO.N,S0*
X172720000Y-92456000D03*
D11*
G04 #@! TO.P,J10,2*
G04 #@! TO.N,VPP*
X172720000Y-89916000D03*
G04 #@! TO.P,J10,3*
G04 #@! TO.N,SCK*
X175260000Y-92456000D03*
G04 #@! TO.P,J10,4*
G04 #@! TO.N,SI*
X175260000Y-89916000D03*
G04 #@! TO.P,J10,5*
G04 #@! TO.N,Rst*
X177800000Y-92456000D03*
G04 #@! TO.P,J10,6*
G04 #@! TO.N,GNDREF*
X177800000Y-89916000D03*
G04 #@! TD*
D12*
G04 #@! TO.P,J8,1*
G04 #@! TO.N,+12V*
X127127000Y-125857000D03*
D13*
G04 #@! TO.P,J8,2*
G04 #@! TO.N,GNDREF*
X132207000Y-125857000D03*
G04 #@! TD*
D14*
G04 #@! TO.P,D1,1*
G04 #@! TO.N,+5V*
X158115000Y-69215000D03*
D15*
G04 #@! TO.P,D1,2*
G04 #@! TO.N,Net-(C14-Pad1)*
X160655000Y-69215000D03*
G04 #@! TD*
D16*
G04 #@! TO.P,U1,11*
G04 #@! TO.N,GNDREF*
X132285000Y-115046000D03*
X131785000Y-114546000D03*
X132785000Y-114546000D03*
X131785000Y-115546000D03*
X132785000Y-115546000D03*
D17*
G04 #@! TD*
G04 #@! TO.N,GNDREF*
G04 #@! TO.C,U1*
X132284000Y-115046000D03*
D10*
G04 #@! TO.P,J1,1*
G04 #@! TO.N,M1A+*
X97599500Y-85217000D03*
D11*
G04 #@! TO.P,J1,2*
G04 #@! TO.N,M1A-*
X100139500Y-85217000D03*
G04 #@! TO.P,J1,3*
G04 #@! TO.N,M1B+*
X97599500Y-87757000D03*
G04 #@! TO.P,J1,4*
G04 #@! TO.N,M1B-*
X100139500Y-87757000D03*
G04 #@! TO.P,J1,5*
G04 #@! TO.N,+5V*
X97599500Y-90297000D03*
G04 #@! TO.P,J1,6*
G04 #@! TO.N,E1*
X100139500Y-90297000D03*
G04 #@! TO.P,J1,7*
G04 #@! TO.N,GNDREF*
X97599500Y-92837000D03*
G04 #@! TO.P,J1,8*
G04 #@! TO.N,N/C*
X100139500Y-92837000D03*
G04 #@! TD*
D10*
G04 #@! TO.P,J2,1*
G04 #@! TO.N,M1+*
X97599500Y-103441500D03*
D11*
G04 #@! TO.P,J2,2*
G04 #@! TO.N,M1-*
X100139500Y-103441500D03*
G04 #@! TO.P,J2,3*
G04 #@! TO.N,N/C*
X97599500Y-105981500D03*
G04 #@! TO.P,J2,4*
X100139500Y-105981500D03*
G04 #@! TO.P,J2,5*
G04 #@! TO.N,+12V*
X97599500Y-108521500D03*
G04 #@! TO.P,J2,6*
G04 #@! TO.N,E1*
X100139500Y-108521500D03*
G04 #@! TO.P,J2,7*
G04 #@! TO.N,GNDREF*
X97599500Y-111061500D03*
G04 #@! TO.P,J2,8*
G04 #@! TO.N,N/C*
X100139500Y-111061500D03*
G04 #@! TD*
G04 #@! TO.P,J3,8*
G04 #@! TO.N,N/C*
X100139500Y-127063500D03*
G04 #@! TO.P,J3,7*
G04 #@! TO.N,GNDREF*
X97599500Y-127063500D03*
G04 #@! TO.P,J3,6*
G04 #@! TO.N,E1*
X100139500Y-124523500D03*
G04 #@! TO.P,J3,5*
G04 #@! TO.N,+5V*
X97599500Y-124523500D03*
G04 #@! TO.P,J3,4*
G04 #@! TO.N,N/C*
X100139500Y-121983500D03*
G04 #@! TO.P,J3,3*
G04 #@! TO.N,GNDREF*
X97599500Y-121983500D03*
G04 #@! TO.P,J3,2*
G04 #@! TO.N,Servo1*
X100139500Y-119443500D03*
D10*
G04 #@! TO.P,J3,1*
G04 #@! TO.N,+5V*
X97599500Y-119443500D03*
G04 #@! TD*
D11*
G04 #@! TO.P,J4,8*
G04 #@! TO.N,N/C*
X112903000Y-92837000D03*
G04 #@! TO.P,J4,7*
G04 #@! TO.N,GNDREF*
X110363000Y-92837000D03*
G04 #@! TO.P,J4,6*
G04 #@! TO.N,E2*
X112903000Y-90297000D03*
G04 #@! TO.P,J4,5*
G04 #@! TO.N,+5V*
X110363000Y-90297000D03*
G04 #@! TO.P,J4,4*
G04 #@! TO.N,M2B-*
X112903000Y-87757000D03*
G04 #@! TO.P,J4,3*
G04 #@! TO.N,M2B+*
X110363000Y-87757000D03*
G04 #@! TO.P,J4,2*
G04 #@! TO.N,M2A-*
X112903000Y-85217000D03*
D10*
G04 #@! TO.P,J4,1*
G04 #@! TO.N,M2A+*
X110363000Y-85217000D03*
G04 #@! TD*
G04 #@! TO.P,J5,1*
G04 #@! TO.N,M2+*
X110426500Y-103441500D03*
D11*
G04 #@! TO.P,J5,2*
G04 #@! TO.N,M2-*
X112966500Y-103441500D03*
G04 #@! TO.P,J5,3*
G04 #@! TO.N,N/C*
X110426500Y-105981500D03*
G04 #@! TO.P,J5,4*
X112966500Y-105981500D03*
G04 #@! TO.P,J5,5*
G04 #@! TO.N,+12V*
X110426500Y-108521500D03*
G04 #@! TO.P,J5,6*
G04 #@! TO.N,E2*
X112966500Y-108521500D03*
G04 #@! TO.P,J5,7*
G04 #@! TO.N,GNDREF*
X110426500Y-111061500D03*
G04 #@! TO.P,J5,8*
G04 #@! TO.N,N/C*
X112966500Y-111061500D03*
G04 #@! TD*
G04 #@! TO.P,J6,8*
G04 #@! TO.N,N/C*
X112966500Y-127063500D03*
G04 #@! TO.P,J6,7*
G04 #@! TO.N,GNDREF*
X110426500Y-127063500D03*
G04 #@! TO.P,J6,6*
G04 #@! TO.N,E2*
X112966500Y-124523500D03*
G04 #@! TO.P,J6,5*
G04 #@! TO.N,+5V*
X110426500Y-124523500D03*
G04 #@! TO.P,J6,4*
G04 #@! TO.N,N/C*
X112966500Y-121983500D03*
G04 #@! TO.P,J6,3*
G04 #@! TO.N,GNDREF*
X110426500Y-121983500D03*
G04 #@! TO.P,J6,2*
G04 #@! TO.N,Servo2*
X112966500Y-119443500D03*
D10*
G04 #@! TO.P,J6,1*
G04 #@! TO.N,+5V*
X110426500Y-119443500D03*
G04 #@! TD*
D18*
G04 #@! TO.P,SW1,2*
G04 #@! TO.N,Rst*
X161743000Y-121158000D03*
G04 #@! TO.P,SW1,1*
G04 #@! TO.N,GNDREF*
X166243000Y-121158000D03*
G04 #@! TO.P,SW1,2*
G04 #@! TO.N,Rst*
X161743000Y-127658000D03*
G04 #@! TO.P,SW1,1*
G04 #@! TO.N,GNDREF*
X166243000Y-127658000D03*
G04 #@! TD*
D10*
G04 #@! TO.P,J7,1*
G04 #@! TO.N,VPP*
X147955000Y-114173000D03*
D11*
G04 #@! TO.P,J7,2*
G04 #@! TO.N,Rst*
X150495000Y-114173000D03*
G04 #@! TO.P,J7,3*
G04 #@! TO.N,Rx*
X153035000Y-114173000D03*
G04 #@! TO.P,J7,4*
G04 #@! TO.N,Tx*
X155575000Y-114173000D03*
G04 #@! TO.P,J7,5*
G04 #@! TO.N,GNDREF*
X158115000Y-114173000D03*
G04 #@! TD*
D12*
G04 #@! TO.P,J9,1*
G04 #@! TO.N,CANH*
X172974000Y-73533000D03*
D13*
G04 #@! TO.P,J9,2*
G04 #@! TO.N,CANL*
X172974000Y-78613000D03*
G04 #@! TD*
D19*
G04 #@! TO.N,+12V*
X102108000Y-109728000D03*
X104103000Y-109728000D03*
X127127000Y-117856000D03*
X120523000Y-108585000D03*
X120548400Y-110515400D03*
X123190000Y-113182400D03*
X125476000Y-114046000D03*
G04 #@! TO.N,GNDREF*
X118491000Y-93726000D03*
X118491000Y-96647000D03*
X125095000Y-110617000D03*
X118364000Y-107061000D03*
X97917000Y-116205000D03*
X105156000Y-105537000D03*
X115443000Y-110871000D03*
X120142000Y-114173000D03*
X127889000Y-107696000D03*
X122301000Y-110236000D03*
X130937000Y-108712000D03*
X127889000Y-115316000D03*
X156845000Y-81000600D03*
X151765000Y-81280000D03*
X158369000Y-104648000D03*
X105156000Y-93980000D03*
X115189000Y-87503000D03*
X118491000Y-88646000D03*
X138938000Y-114681000D03*
X108458000Y-104521000D03*
X170561000Y-100203000D03*
X173863000Y-105283000D03*
X158369000Y-77216000D03*
X164465000Y-116205000D03*
X100584000Y-98425000D03*
X102235000Y-116078000D03*
X158178500Y-112331500D03*
X118287800Y-104165400D03*
X121843800Y-97078800D03*
X163310410Y-99618012D03*
X143230600Y-110210600D03*
X164084000Y-96647000D03*
X110363000Y-95631000D03*
X113284000Y-95631000D03*
X183769000Y-71501000D03*
X183769000Y-72771000D03*
X183769000Y-74041000D03*
X183769000Y-75311000D03*
X183769000Y-76581000D03*
X183769000Y-77851000D03*
X183769000Y-79121000D03*
X183769000Y-80391000D03*
X183769000Y-81661000D03*
X183769000Y-82931000D03*
X183769000Y-84201000D03*
X183769000Y-85471000D03*
X183769000Y-86741000D03*
X183769000Y-88011000D03*
X183769000Y-89281000D03*
X183769000Y-90551000D03*
X183769000Y-91821000D03*
X183769000Y-93091000D03*
X183769000Y-94361000D03*
X183769000Y-95631000D03*
X183769000Y-96901000D03*
X183769000Y-98171000D03*
X183769000Y-99441000D03*
X183769000Y-100711000D03*
X183769000Y-101981000D03*
X183769000Y-103251000D03*
X183769000Y-104521000D03*
X183769000Y-105791000D03*
X183769000Y-107061000D03*
X183769000Y-108331000D03*
X183769000Y-109601000D03*
X183769000Y-110871000D03*
X183769000Y-112141000D03*
X183769000Y-113411000D03*
X183769000Y-114681000D03*
X183769000Y-115951000D03*
X183769000Y-117221000D03*
X183769000Y-118491000D03*
X183769000Y-119761000D03*
X183769000Y-121031000D03*
X183769000Y-122301000D03*
X183769000Y-123571000D03*
X183769000Y-124841000D03*
X183769000Y-126111000D03*
X183769000Y-127381000D03*
X183769000Y-128651000D03*
X183769000Y-129921000D03*
X183769000Y-131191000D03*
X183769000Y-132461000D03*
X183769000Y-133731000D03*
X183769000Y-135001000D03*
X183769000Y-136271000D03*
X183769000Y-137541000D03*
X182499000Y-137541000D03*
X181229000Y-137541000D03*
X179959000Y-137541000D03*
X178689000Y-137541000D03*
X177419000Y-137541000D03*
X176149000Y-137541000D03*
X174879000Y-137541000D03*
X173609000Y-137541000D03*
X172339000Y-138811000D03*
X171069000Y-140081000D03*
X169799000Y-141351000D03*
X168529000Y-142621000D03*
X168529000Y-143891000D03*
X168529000Y-145161000D03*
X168529000Y-146431000D03*
X168529000Y-147701000D03*
X168529000Y-148971000D03*
X168529000Y-150241000D03*
X168529000Y-151511000D03*
X168529000Y-152781000D03*
X167259000Y-152781000D03*
X165989000Y-152781000D03*
X164719000Y-152781000D03*
X163449000Y-152781000D03*
X162179000Y-152781000D03*
X160909000Y-152781000D03*
X159639000Y-152781000D03*
X158369000Y-152781000D03*
X157099000Y-152781000D03*
X155829000Y-152781000D03*
X154559000Y-152781000D03*
X153289000Y-152781000D03*
X152019000Y-152781000D03*
X150749000Y-152781000D03*
X149479000Y-152781000D03*
X148209000Y-152781000D03*
X146939000Y-152781000D03*
X145669000Y-152781000D03*
X144399000Y-152781000D03*
X143129000Y-152781000D03*
X141859000Y-152781000D03*
X140589000Y-152781000D03*
X139319000Y-152781000D03*
X138049000Y-152781000D03*
X136779000Y-152781000D03*
X135509000Y-152781000D03*
X134239000Y-152781000D03*
X132969000Y-152781000D03*
X131699000Y-152781000D03*
X130429000Y-152781000D03*
X129159000Y-152781000D03*
X127889000Y-152781000D03*
X126619000Y-152781000D03*
X125349000Y-152781000D03*
X124079000Y-152781000D03*
X122809000Y-152781000D03*
X121539000Y-152781000D03*
X120269000Y-152781000D03*
X118999000Y-152781000D03*
X117729000Y-152781000D03*
X116459000Y-152781000D03*
X115189000Y-152781000D03*
X113919000Y-152781000D03*
X112649000Y-152781000D03*
X111379000Y-152781000D03*
X110109000Y-152781000D03*
X108839000Y-152781000D03*
X107569000Y-152781000D03*
X106299000Y-152781000D03*
X105029000Y-152781000D03*
X103759000Y-152781000D03*
X102489000Y-152781000D03*
X101219000Y-152781000D03*
X99949000Y-152781000D03*
X99949000Y-151511000D03*
X99949000Y-150241000D03*
X99949000Y-148971000D03*
X99949000Y-147701000D03*
X99949000Y-146431000D03*
X99949000Y-145161000D03*
X99949000Y-143891000D03*
X99949000Y-142621000D03*
X98679000Y-141351000D03*
X97409000Y-140081000D03*
X96139000Y-138811000D03*
X94869000Y-137541000D03*
X93599000Y-137541000D03*
X92329000Y-137541000D03*
X91059000Y-137541000D03*
X89789000Y-137541000D03*
X88519000Y-137541000D03*
X87249000Y-137541000D03*
X85979000Y-137541000D03*
X84709000Y-137541000D03*
X84709000Y-136271000D03*
X84709000Y-135001000D03*
X84709000Y-133731000D03*
X84709000Y-131191000D03*
X84709000Y-129921000D03*
X84709000Y-132461000D03*
X84709000Y-128651000D03*
X84709000Y-127381000D03*
X84709000Y-126111000D03*
X86106000Y-126111000D03*
X87630000Y-126365000D03*
X89535000Y-118618000D03*
X85725000Y-117348000D03*
X88011000Y-118491000D03*
X86741000Y-117983000D03*
X84709000Y-117221000D03*
X84709000Y-114681000D03*
X84709000Y-113411000D03*
X84709000Y-112141000D03*
X84709000Y-110871000D03*
X84709000Y-109601000D03*
X84709000Y-108331000D03*
X84709000Y-107061000D03*
X84709000Y-105791000D03*
X84709000Y-104521000D03*
X84709000Y-103251000D03*
X84709000Y-101981000D03*
X84709000Y-100711000D03*
X84709000Y-99441000D03*
X84709000Y-98171000D03*
X84709000Y-96901000D03*
X84709000Y-95631000D03*
X84709000Y-94361000D03*
X84709000Y-93091000D03*
X84709000Y-91821000D03*
X84709000Y-90551000D03*
X84709000Y-89281000D03*
X84709000Y-88011000D03*
X84709000Y-86741000D03*
X84709000Y-85471000D03*
X84709000Y-84201000D03*
X84709000Y-82931000D03*
X84709000Y-81661000D03*
X84709000Y-80391000D03*
X84709000Y-79121000D03*
X84709000Y-77851000D03*
X84709000Y-76581000D03*
X84709000Y-75311000D03*
X84709000Y-74041000D03*
X84709000Y-72771000D03*
X84709000Y-70231000D03*
X84709000Y-68961000D03*
X84709000Y-71501000D03*
X84709000Y-67691000D03*
X85979000Y-67691000D03*
X87249000Y-67691000D03*
X88519000Y-67691000D03*
X89789000Y-67691000D03*
X91059000Y-67691000D03*
X92329000Y-67691000D03*
X93599000Y-67691000D03*
X94869000Y-67691000D03*
X96139000Y-66421000D03*
X97409000Y-65151000D03*
X98679000Y-63881000D03*
X99949000Y-62611000D03*
X99949000Y-61341000D03*
X99949000Y-60071000D03*
X99949000Y-58801000D03*
X99949000Y-57531000D03*
X99949000Y-56261000D03*
X99949000Y-54991000D03*
X99949000Y-53721000D03*
X99949000Y-52451000D03*
X101219000Y-52451000D03*
X102489000Y-52451000D03*
X103759000Y-52451000D03*
X105029000Y-52451000D03*
X106299000Y-52451000D03*
X107569000Y-52451000D03*
X108839000Y-52451000D03*
X110109000Y-52451000D03*
X111379000Y-52451000D03*
X112649000Y-52451000D03*
X113919000Y-52451000D03*
X115189000Y-52451000D03*
X116459000Y-52451000D03*
X117729000Y-52451000D03*
X118999000Y-52451000D03*
X120269000Y-52451000D03*
X121539000Y-52451000D03*
X122809000Y-52451000D03*
X124079000Y-52451000D03*
X125349000Y-52451000D03*
X126619000Y-52451000D03*
X127889000Y-52451000D03*
X127889000Y-52451000D03*
X127889000Y-52451000D03*
X129159000Y-52451000D03*
X130429000Y-52451000D03*
X131699000Y-52451000D03*
X132969000Y-52451000D03*
X134239000Y-52451000D03*
X135509000Y-52451000D03*
X136779000Y-52451000D03*
X138049000Y-52451000D03*
X139319000Y-52451000D03*
X140589000Y-52451000D03*
X141859000Y-52451000D03*
X143129000Y-52451000D03*
X144399000Y-52451000D03*
X145669000Y-52451000D03*
X146939000Y-52451000D03*
X148209000Y-52451000D03*
X149479000Y-52451000D03*
X150749000Y-52451000D03*
X152019000Y-52451000D03*
X153289000Y-52451000D03*
X154559000Y-52451000D03*
X155829000Y-52451000D03*
X157099000Y-52451000D03*
X158369000Y-52451000D03*
X160909000Y-52451000D03*
X162179000Y-52451000D03*
X163449000Y-52451000D03*
X164719000Y-52451000D03*
X165989000Y-52451000D03*
X167259000Y-52451000D03*
X168529000Y-52451000D03*
X169799000Y-52451000D03*
X159639000Y-52451000D03*
X169799000Y-53721000D03*
X169799000Y-54991000D03*
X169799000Y-56261000D03*
X169799000Y-57531000D03*
X169799000Y-58801000D03*
X169799000Y-60071000D03*
X169799000Y-61341000D03*
X169799000Y-62611000D03*
X171069000Y-63881000D03*
X172339000Y-65151000D03*
X178689000Y-67691000D03*
X179959000Y-67691000D03*
X181229000Y-67691000D03*
X182499000Y-67691000D03*
X183769000Y-67691000D03*
X183769000Y-68961000D03*
X183769000Y-70231000D03*
X84709000Y-115951000D03*
X128905000Y-117729000D03*
X129921000Y-117729000D03*
X130937000Y-117729000D03*
X129921000Y-116713000D03*
X105156000Y-103505000D03*
X173228000Y-65786000D03*
X174244000Y-66421000D03*
X175133000Y-66929000D03*
X175133000Y-66929000D03*
X175133000Y-66929000D03*
X176149000Y-67437000D03*
X177165000Y-67691000D03*
G04 #@! TO.N,+5V*
X152564000Y-87122000D03*
X159893000Y-92455999D03*
X154018670Y-86487000D03*
X107225000Y-92561075D03*
X103759000Y-95504000D03*
X109125011Y-94869000D03*
X116586000Y-94869000D03*
X120102500Y-94869000D03*
X122555000Y-86995000D03*
X122555000Y-88470000D03*
X143981000Y-87122000D03*
X141630978Y-87122000D03*
X133477000Y-94742000D03*
X131036847Y-94769153D03*
X139700000Y-118237000D03*
X134869340Y-113533340D03*
X107315000Y-88011000D03*
X145542000Y-113157000D03*
X142367000Y-115569996D03*
X134810496Y-100266500D03*
X124626210Y-96266000D03*
G04 #@! TO.N,Servo1*
X147612697Y-101671453D03*
X145669000Y-103378000D03*
X152809684Y-100810957D03*
X140463329Y-114036532D03*
G04 #@! TO.N,Servo2*
X146309192Y-104146231D03*
X141268475Y-114629627D03*
G04 #@! TO.N,INT*
X156464000Y-100588977D03*
X156463996Y-102521021D03*
G04 #@! TO.N,+3V3*
X116648373Y-87463115D03*
X107061000Y-86487000D03*
X107082298Y-91571308D03*
X103197747Y-92270556D03*
X115886711Y-92338030D03*
X120200847Y-91381153D03*
X107315000Y-89535000D03*
X115697000Y-100616011D03*
X120269000Y-86233000D03*
X107061000Y-106680000D03*
X107143850Y-104090790D03*
X103417490Y-89042474D03*
X115486673Y-106459447D03*
X115158947Y-108208653D03*
G04 #@! TO.N,M1A+C*
X106807000Y-96266000D03*
X109125021Y-96265123D03*
G04 #@! TO.N,M1A-C*
X110368358Y-98165642D03*
X107601026Y-98171005D03*
G04 #@! TO.N,M2A+C*
X142390930Y-104224818D03*
X141959481Y-107888178D03*
G04 #@! TO.N,M2A-C*
X139446000Y-103447998D03*
X140846155Y-107689835D03*
G04 #@! TO.N,M2B+C*
X139790360Y-107663547D03*
X138684000Y-104165968D03*
G04 #@! TO.N,SI*
X161560933Y-82303627D03*
X172085000Y-87439500D03*
X162877500Y-109728000D03*
G04 #@! TO.N,S0*
X162339653Y-82931000D03*
X162509200Y-92646500D03*
X164726972Y-111442067D03*
G04 #@! TO.N,TX2*
X153932481Y-102371930D03*
X150241000Y-111125000D03*
G04 #@! TO.N,M2B-C*
X138790775Y-107692759D03*
X137305954Y-103682035D03*
G04 #@! TO.N,M1-C*
X167640000Y-117221000D03*
X167143875Y-118671012D03*
G04 #@! TO.N,RX1*
X170688000Y-111252000D03*
X166116000Y-93853000D03*
G04 #@! TO.N,TX1*
X152527000Y-103160990D03*
X163510064Y-110560654D03*
G04 #@! TO.N,SCK*
X160782000Y-79502000D03*
X173101000Y-109601000D03*
G04 #@! TO.N,TX0*
X151130000Y-103124000D03*
X161467012Y-107815464D03*
G04 #@! TO.N,Net-(U10-Pad4)*
X153293660Y-84967660D03*
X152654000Y-82931000D03*
G04 #@! TO.N,M1A+*
X101486272Y-86754272D03*
X101967479Y-89144831D03*
G04 #@! TO.N,M1A-*
X102420847Y-86164847D03*
X102729877Y-88268170D03*
G04 #@! TO.N,M1-*
X105918000Y-108839000D03*
X106813071Y-111004071D03*
G04 #@! TO.N,M1+*
X102108000Y-106680000D03*
X104140000Y-108621990D03*
G04 #@! TO.N,M2-*
X115636811Y-105423073D03*
X116234487Y-108663010D03*
G04 #@! TO.N,Net-(U8-Pad33)*
X169164000Y-117221000D03*
X165426536Y-115803276D03*
G04 #@! TO.N,Net-(U8-Pad34)*
X169557920Y-116301853D03*
X166172790Y-115099000D03*
G04 #@! TO.N,CANL*
X163423600Y-87147400D03*
X165798500Y-85026500D03*
G04 #@! TO.N,CANH*
X163234200Y-86029800D03*
X164999091Y-84222804D03*
G04 #@! TO.N,Tx*
X156992089Y-105027606D03*
X158096999Y-100621000D03*
X154027852Y-105667924D03*
G04 #@! TO.N,Rx*
X156083000Y-104611000D03*
X156972000Y-99695000D03*
X151130000Y-105573990D03*
G04 #@! TO.N,Rst*
X162306000Y-115570008D03*
G04 #@! TO.N,VCC*
X149479000Y-110109000D03*
X158115000Y-110109000D03*
X146969060Y-110078940D03*
X163317186Y-107125310D03*
X164267512Y-112330278D03*
G04 #@! TO.N,MCP_SS*
X169276097Y-93774597D03*
X173736000Y-99885500D03*
G04 #@! TD*
D20*
G04 #@! TO.N,+12V*
X102108000Y-109728000D02*
X104103000Y-109728000D01*
X127127000Y-124107000D02*
X127127000Y-117856000D01*
X127127000Y-125857000D02*
X127127000Y-124107000D01*
X120523000Y-110490000D02*
X120548400Y-110515400D01*
X120523000Y-108585000D02*
X120523000Y-110490000D01*
X123190000Y-113182400D02*
X124612400Y-113182400D01*
X124612400Y-113182400D02*
X125476000Y-114046000D01*
X110426500Y-108521500D02*
X109576501Y-109371499D01*
X109576501Y-109498645D02*
X107221073Y-111854073D01*
X109576501Y-109371499D02*
X109576501Y-109498645D01*
X106229073Y-111854073D02*
X104502999Y-110127999D01*
X104502999Y-110127999D02*
X104103000Y-109728000D01*
X107221073Y-111854073D02*
X106229073Y-111854073D01*
G04 #@! TO.N,+5V*
X159327315Y-92455999D02*
X159893000Y-92455999D01*
D21*
X159257999Y-92455999D02*
X159327315Y-92455999D01*
D20*
X152564000Y-87122000D02*
X153924000Y-87122000D01*
X153924000Y-87122000D02*
X159257999Y-92455999D01*
D21*
X152564000Y-87122000D02*
X153383670Y-87122000D01*
D20*
X153618671Y-86886999D02*
X154018670Y-86487000D01*
D21*
X153383670Y-87122000D02*
X153618671Y-86886999D01*
D20*
X110363000Y-90297000D02*
X108098925Y-92561075D01*
X108077000Y-92561075D02*
X107203075Y-92561075D01*
X103759000Y-95504000D02*
X106172000Y-95504000D01*
X107225000Y-94451000D02*
X107225000Y-92561075D01*
X106172000Y-95504000D02*
X107225000Y-94451000D01*
X107225000Y-92561075D02*
X109125011Y-94461086D01*
D21*
X109125011Y-94461086D02*
X109125011Y-94869000D01*
D20*
X116586000Y-94869000D02*
X120102500Y-94869000D01*
X122555000Y-86995000D02*
X122555000Y-88470000D01*
X143981000Y-87122000D02*
X141630978Y-87122000D01*
X131064000Y-94742000D02*
X131036847Y-94769153D01*
X133477000Y-94742000D02*
X131036847Y-94769153D01*
X134996340Y-113533340D02*
X134869340Y-113533340D01*
X139700000Y-118237000D02*
X134996340Y-113533340D01*
D21*
X109601000Y-90297000D02*
X110363000Y-90297000D01*
D20*
X107315000Y-88011000D02*
X109601000Y-90297000D01*
X145542000Y-113157000D02*
X144780000Y-113157000D01*
X144780000Y-113112495D02*
X142766995Y-115125500D01*
X142684500Y-115252500D02*
X142367004Y-115569996D01*
X142367004Y-115569996D02*
X142367000Y-115569996D01*
X134869340Y-113533340D02*
X134869340Y-100325344D01*
X134869340Y-100325344D02*
X134810496Y-100266500D01*
X123254610Y-94894400D02*
X124626210Y-96266000D01*
X120102500Y-94869000D02*
X120127900Y-94894400D01*
X120127900Y-94894400D02*
X123254610Y-94894400D01*
X96299499Y-127687501D02*
X96299499Y-125823501D01*
X96975499Y-128363501D02*
X96299499Y-127687501D01*
X96299499Y-125823501D02*
X96749501Y-125373499D01*
X105384418Y-128363501D02*
X96975499Y-128363501D01*
X96749501Y-125373499D02*
X97599500Y-124523500D01*
X109224419Y-124523500D02*
X105384418Y-128363501D01*
X110426500Y-124523500D02*
X109224419Y-124523500D01*
X109576501Y-125373499D02*
X110426500Y-124523500D01*
X109126499Y-125823501D02*
X109576501Y-125373499D01*
X109126499Y-127687501D02*
X109126499Y-125823501D01*
X109802499Y-128363501D02*
X109126499Y-127687501D01*
X132586501Y-128363501D02*
X109802499Y-128363501D01*
X139300001Y-121650001D02*
X132586501Y-128363501D01*
X139300001Y-118636999D02*
X139300001Y-121650001D01*
X139700000Y-118237000D02*
X139300001Y-118636999D01*
D21*
G04 #@! TO.N,Servo1*
X147612697Y-101671453D02*
X148473193Y-100810957D01*
X148473193Y-100810957D02*
X152243999Y-100810957D01*
X152243999Y-100810957D02*
X152809684Y-100810957D01*
X145269001Y-103777999D02*
X145269001Y-106240389D01*
X145669000Y-103378000D02*
X145269001Y-103777999D01*
X140463329Y-113470847D02*
X140463329Y-114036532D01*
X140463329Y-111046061D02*
X140463329Y-113470847D01*
X145269001Y-106240389D02*
X140463329Y-111046061D01*
G04 #@! TO.N,Servo2*
X141668474Y-114229628D02*
X141268475Y-114629627D01*
X141668474Y-110477326D02*
X141668474Y-114229628D01*
X146309192Y-104146231D02*
X146309192Y-105836608D01*
X146309192Y-105836608D02*
X141668474Y-110477326D01*
G04 #@! TO.N,INT*
X156464000Y-102521017D02*
X156463996Y-102521021D01*
X156464000Y-100588977D02*
X156464000Y-102521017D01*
G04 #@! TO.N,+3V3*
X107082298Y-91571308D02*
X103896995Y-91571308D01*
X103896995Y-91571308D02*
X103197747Y-92270556D01*
X107082298Y-89767702D02*
X107315000Y-89535000D01*
X107082298Y-91571308D02*
X107082298Y-89767702D01*
X115886711Y-88224777D02*
X115886711Y-92338030D01*
X116648373Y-87463115D02*
X115886711Y-88224777D01*
X115697000Y-94684998D02*
X115697000Y-100616011D01*
X115886711Y-92338030D02*
X115697000Y-92527741D01*
X115697000Y-92527741D02*
X115697000Y-94684998D01*
X119243970Y-92338030D02*
X120200847Y-91381153D01*
X115886711Y-92338030D02*
X119243970Y-92338030D01*
X116648373Y-87463115D02*
X117878488Y-86233000D01*
X117878488Y-86233000D02*
X119703315Y-86233000D01*
X119703315Y-86233000D02*
X120269000Y-86233000D01*
X107061000Y-106680000D02*
X107061000Y-104173640D01*
X107061000Y-104173640D02*
X107143850Y-104090790D01*
X107061000Y-86487000D02*
X104505526Y-89042474D01*
X104505526Y-89042474D02*
X103983175Y-89042474D01*
X103983175Y-89042474D02*
X103417490Y-89042474D01*
X115486673Y-106459447D02*
X115486673Y-107880927D01*
X115486673Y-107880927D02*
X115158947Y-108208653D01*
X107124500Y-86423500D02*
X107061000Y-86487000D01*
X116648373Y-87463115D02*
X115608758Y-86423500D01*
X115608758Y-86423500D02*
X107124500Y-86423500D01*
G04 #@! TO.N,M1A+C*
X106807000Y-96266000D02*
X109124144Y-96266000D01*
X109124144Y-96266000D02*
X109125021Y-96265123D01*
G04 #@! TO.N,M1A-C*
X110368358Y-98165642D02*
X107606389Y-98165642D01*
X107606389Y-98165642D02*
X107601026Y-98171005D01*
G04 #@! TO.N,M2A+C*
X142359480Y-107488179D02*
X141959481Y-107888178D01*
X142390930Y-104224818D02*
X142390930Y-107456729D01*
X142390930Y-107456729D02*
X142359480Y-107488179D01*
G04 #@! TO.N,M2A-C*
X140846155Y-107124150D02*
X140846155Y-107689835D01*
X140846155Y-107064155D02*
X140846155Y-107124150D01*
X139446000Y-103447998D02*
X139446000Y-105664000D01*
X139446000Y-105664000D02*
X140846155Y-107064155D01*
G04 #@! TO.N,M2B+C*
X138684000Y-106557187D02*
X138684000Y-104731653D01*
X138684000Y-104731653D02*
X138684000Y-104165968D01*
X139790360Y-107663547D02*
X138684000Y-106557187D01*
G04 #@! TO.N,SI*
X163422499Y-78776999D02*
X172085000Y-87439500D01*
X160433999Y-78776999D02*
X163422499Y-78776999D01*
X160056999Y-79153999D02*
X160433999Y-78776999D01*
X161560933Y-82303627D02*
X160056999Y-80799693D01*
X160056999Y-80799693D02*
X160056999Y-79153999D01*
X161560933Y-82303627D02*
X161560933Y-106836383D01*
X162877500Y-109162315D02*
X162877500Y-109728000D01*
X162877500Y-108152950D02*
X162877500Y-109162315D01*
X161560933Y-106836383D02*
X162877500Y-108152950D01*
G04 #@! TO.N,S0*
X162339653Y-82931000D02*
X162509200Y-83100547D01*
X162509200Y-83100547D02*
X162509200Y-92646500D01*
X162509200Y-92646500D02*
X165126971Y-95264271D01*
X165126971Y-111042068D02*
X164726972Y-111442067D01*
X165126971Y-95264271D02*
X165126971Y-111042068D01*
G04 #@! TO.N,TX2*
X153447353Y-102371930D02*
X153061401Y-101985978D01*
X151195020Y-101985978D02*
X150241000Y-102939998D01*
X153061401Y-101985978D02*
X151195020Y-101985978D01*
X153932481Y-102371930D02*
X153447353Y-102371930D01*
X150241000Y-110559315D02*
X150241000Y-111125000D01*
X150241000Y-102939998D02*
X150241000Y-110559315D01*
G04 #@! TO.N,M2B-C*
X138790775Y-107692759D02*
X137305954Y-106207938D01*
X137305954Y-106207938D02*
X137305954Y-104247720D01*
X137305954Y-104247720D02*
X137305954Y-103682035D01*
G04 #@! TO.N,M1-C*
X167143875Y-118105327D02*
X167143875Y-118671012D01*
X167640000Y-117221000D02*
X167143875Y-117717125D01*
X167143875Y-117717125D02*
X167143875Y-118105327D01*
G04 #@! TO.N,RX1*
X170688000Y-111252000D02*
X166116000Y-106680000D01*
X166116000Y-106680000D02*
X166116000Y-94418685D01*
X166116000Y-94418685D02*
X166116000Y-93853000D01*
G04 #@! TO.N,TX1*
X152527000Y-103160990D02*
X152926999Y-103560989D01*
X159850927Y-110417997D02*
X162113493Y-110417997D01*
X162944379Y-110560654D02*
X163510064Y-110560654D01*
X152926999Y-103560989D02*
X152993919Y-103560989D01*
X162113493Y-110417997D02*
X162256150Y-110560654D01*
X152993919Y-103560989D02*
X159850927Y-110417997D01*
X162256150Y-110560654D02*
X162944379Y-110560654D01*
G04 #@! TO.N,SCK*
X176684732Y-95082813D02*
X176684732Y-101310232D01*
X175260000Y-93658081D02*
X176684732Y-95082813D01*
X175260000Y-92456000D02*
X175260000Y-93658081D01*
X166523502Y-84614998D02*
X166523502Y-85243502D01*
X166523502Y-85243502D02*
X170434000Y-89154000D01*
X160782000Y-79502000D02*
X161410504Y-79502000D01*
X161410504Y-79502000D02*
X166523502Y-84614998D01*
X170434000Y-95059500D02*
X176684732Y-101310232D01*
X170434000Y-89154000D02*
X170434000Y-95059500D01*
X173101000Y-104893964D02*
X176684732Y-101310232D01*
X173101000Y-109601000D02*
X173101000Y-104893964D01*
G04 #@! TO.N,TX0*
X158254476Y-107815464D02*
X160901327Y-107815464D01*
X160901327Y-107815464D02*
X161467012Y-107815464D01*
X152875001Y-102435989D02*
X158254476Y-107815464D01*
X151818011Y-102435989D02*
X152875001Y-102435989D01*
X151130000Y-103124000D02*
X151818011Y-102435989D01*
G04 #@! TO.N,E2*
X112116501Y-123673501D02*
X112966500Y-124523500D01*
X111601501Y-123158501D02*
X112116501Y-123673501D01*
X111601501Y-109886499D02*
X111601501Y-123158501D01*
X112966500Y-108521500D02*
X111601501Y-109886499D01*
X112116501Y-107671501D02*
X112966500Y-108521500D01*
X112903000Y-90297000D02*
X111633000Y-91567000D01*
X111633000Y-107188000D02*
X112116501Y-107671501D01*
X111633000Y-91567000D02*
X111633000Y-107188000D01*
G04 #@! TO.N,E1*
X99289501Y-123673501D02*
X100139500Y-124523500D01*
X98774501Y-123158501D02*
X99289501Y-123673501D01*
X98774501Y-109886499D02*
X98774501Y-123158501D01*
X100139500Y-108521500D02*
X98774501Y-109886499D01*
X99289501Y-107671501D02*
X100139500Y-108521500D01*
X98869500Y-107251500D02*
X99289501Y-107671501D01*
X100139500Y-90297000D02*
X98869500Y-91567000D01*
X98869500Y-91567000D02*
X98869500Y-107251500D01*
G04 #@! TO.N,Net-(U10-Pad4)*
X152654000Y-84328000D02*
X152654000Y-82931000D01*
X153293660Y-84967660D02*
X152654000Y-84328000D01*
G04 #@! TO.N,M1A+*
X101486272Y-86754272D02*
X101486272Y-88663624D01*
X101567480Y-88744832D02*
X101967479Y-89144831D01*
X101486272Y-88663624D02*
X101567480Y-88744832D01*
G04 #@! TO.N,M1A-*
X102420847Y-87959140D02*
X102729877Y-88268170D01*
X102420847Y-86164847D02*
X102420847Y-87959140D01*
G04 #@! TO.N,M1-*
X106413072Y-110604072D02*
X106813071Y-111004071D01*
X105918000Y-108839000D02*
X105918000Y-110109000D01*
X105918000Y-110109000D02*
X106413072Y-110604072D01*
G04 #@! TO.N,M1+*
X104049990Y-108621990D02*
X104140000Y-108621990D01*
X102108000Y-106680000D02*
X104049990Y-108621990D01*
G04 #@! TO.N,M2-*
X115636811Y-105423073D02*
X116234487Y-106020749D01*
X116234487Y-106020749D02*
X116234487Y-108097325D01*
X116234487Y-108097325D02*
X116234487Y-108663010D01*
G04 #@! TO.N,Net-(U8-Pad33)*
X165992221Y-115803276D02*
X165426536Y-115803276D01*
X167767000Y-115824000D02*
X166012945Y-115824000D01*
X166012945Y-115824000D02*
X165992221Y-115803276D01*
X169164000Y-117221000D02*
X167767000Y-115824000D01*
G04 #@! TO.N,Net-(U8-Pad34)*
X169557920Y-116301853D02*
X168355067Y-115099000D01*
X168355067Y-115099000D02*
X166172790Y-115099000D01*
G04 #@! TO.N,CANL*
X163423600Y-87147400D02*
X165544500Y-85026500D01*
X165544500Y-85026500D02*
X165798500Y-85026500D01*
G04 #@! TO.N,CANH*
X164999091Y-84264909D02*
X164999091Y-84222804D01*
X163234200Y-86029800D02*
X164999091Y-84264909D01*
G04 #@! TO.N,Tx*
X158096999Y-103233411D02*
X158096999Y-100621000D01*
X156992089Y-105027606D02*
X156992089Y-104338321D01*
X156992089Y-104338321D02*
X158096999Y-103233411D01*
X154427851Y-106067923D02*
X154027852Y-105667924D01*
X155575000Y-107215072D02*
X154427851Y-106067923D01*
X155575000Y-114173000D02*
X155575000Y-107215072D01*
G04 #@! TO.N,Rx*
X157371999Y-103322001D02*
X157371999Y-100094999D01*
X156083000Y-104611000D02*
X157371999Y-103322001D01*
X157371999Y-100094999D02*
X156972000Y-99695000D01*
X151130000Y-112268000D02*
X151130000Y-106139675D01*
X151130000Y-106139675D02*
X151130000Y-105573990D01*
X153035000Y-114173000D02*
X151130000Y-112268000D01*
G04 #@! TO.N,Rst*
X161743000Y-116133008D02*
X161906001Y-115970007D01*
X161906001Y-115970007D02*
X162306000Y-115570008D01*
X161743000Y-121158000D02*
X161743000Y-116133008D01*
X157480000Y-121158000D02*
X161743000Y-121158000D01*
X150495000Y-114173000D02*
X157480000Y-121158000D01*
X163068001Y-122483001D02*
X162742999Y-122157999D01*
X166879001Y-122483001D02*
X163068001Y-122483001D01*
X162742999Y-122157999D02*
X161743000Y-121158000D01*
X177800000Y-111562002D02*
X166879001Y-122483001D01*
X177800000Y-92456000D02*
X177800000Y-111562002D01*
G04 #@! TO.N,VCC*
X158115000Y-110109000D02*
X158877000Y-110871000D01*
X158877000Y-110871000D02*
X161920993Y-110871000D01*
X149479000Y-110109000D02*
X146999120Y-110109000D01*
X146999120Y-110109000D02*
X146969060Y-110078940D01*
X163701827Y-112330278D02*
X164267512Y-112330278D01*
X163807335Y-111288702D02*
X164237900Y-110858137D01*
X164237900Y-108046024D02*
X163717185Y-107525309D01*
X161920993Y-110871000D02*
X163380271Y-112330278D01*
X163380271Y-112330278D02*
X163701827Y-112330278D01*
X161920993Y-110871000D02*
X162338695Y-111288702D01*
X164237900Y-110858137D02*
X164237900Y-108046024D01*
X162338695Y-111288702D02*
X163807335Y-111288702D01*
X163717185Y-107525309D02*
X163317186Y-107125310D01*
D22*
G04 #@! TO.N,VPP*
X173569999Y-89066001D02*
X172720000Y-89916000D01*
X179197000Y-87503000D02*
X175133000Y-87503000D01*
X147955000Y-115773000D02*
X155365011Y-123183011D01*
X175133000Y-87503000D02*
X173569999Y-89066001D01*
X147955000Y-114173000D02*
X147955000Y-115773000D01*
X155365011Y-123183011D02*
X167168954Y-123183011D01*
X179959000Y-88265000D02*
X179197000Y-87503000D01*
X167168954Y-123183011D02*
X179959000Y-110392965D01*
X179959000Y-110392965D02*
X179959000Y-88265000D01*
D21*
G04 #@! TO.N,MCP_SS*
X169276097Y-93774597D02*
X169276097Y-95425597D01*
X169276097Y-95425597D02*
X173736000Y-99885500D01*
G04 #@! TD*
D23*
G04 #@! TO.N,GNDREF*
G36*
X160394003Y-51876394D02*
X165626890Y-52095717D01*
X169563909Y-52358430D01*
X169821189Y-52451456D01*
X169821188Y-57839087D01*
X169825221Y-57859360D01*
X169877148Y-58788154D01*
X169878557Y-58799628D01*
X169878799Y-58811185D01*
X169887618Y-58877283D01*
X170094068Y-60024684D01*
X170097795Y-60039633D01*
X170100153Y-60054863D01*
X170117637Y-60119213D01*
X170474025Y-61229230D01*
X170479698Y-61243558D01*
X170484048Y-61258338D01*
X170509888Y-61319811D01*
X171009951Y-62372942D01*
X171017470Y-62386396D01*
X171023736Y-62400469D01*
X171057480Y-62457985D01*
X171692435Y-63435729D01*
X171701667Y-63448070D01*
X171709739Y-63461190D01*
X171750793Y-63513738D01*
X172509482Y-64398916D01*
X172520264Y-64409926D01*
X172530002Y-64421866D01*
X172577645Y-64468522D01*
X173446741Y-65245583D01*
X173458882Y-65255068D01*
X173470115Y-65265617D01*
X173523511Y-65305562D01*
X174487743Y-65960853D01*
X174501029Y-65968648D01*
X174513561Y-65977620D01*
X174571771Y-66010152D01*
X175614199Y-66532162D01*
X175628408Y-66538135D01*
X175642008Y-66545366D01*
X175704009Y-66569914D01*
X176806319Y-66949470D01*
X176821188Y-66953510D01*
X176835631Y-66958881D01*
X176900334Y-66975013D01*
X178043158Y-67205447D01*
X178058430Y-67207485D01*
X178073458Y-67210899D01*
X178139720Y-67218331D01*
X178139725Y-67218332D01*
X178139726Y-67218332D01*
X179255246Y-67292425D01*
X179279312Y-67297212D01*
X180610908Y-67297212D01*
X180889683Y-67397166D01*
X180936071Y-67428162D01*
X181026047Y-67446059D01*
X181042925Y-67452111D01*
X181096915Y-67460156D01*
X181150466Y-67470808D01*
X181168400Y-67470808D01*
X181259133Y-67484328D01*
X181313259Y-67470808D01*
X183019527Y-67470808D01*
X183073653Y-67484328D01*
X183164385Y-67470808D01*
X183182319Y-67470808D01*
X183235869Y-67460156D01*
X183289860Y-67452111D01*
X183306738Y-67446059D01*
X183396714Y-67428162D01*
X183443103Y-67397166D01*
X183721875Y-67297212D01*
X184731698Y-67297212D01*
X184733493Y-67306637D01*
X184734845Y-67313848D01*
X184736074Y-67320885D01*
X184739520Y-67340938D01*
X184740995Y-67350226D01*
X184742202Y-67358068D01*
X184745240Y-67379675D01*
X184747146Y-67394923D01*
X184747485Y-67397672D01*
X184751625Y-67436121D01*
X184752396Y-67444472D01*
X184753831Y-67463128D01*
X185085573Y-72684720D01*
X185271580Y-77918894D01*
X185315189Y-81964227D01*
X185315188Y-123230094D01*
X185242006Y-128471004D01*
X185022683Y-133703890D01*
X184754151Y-137728111D01*
X184752396Y-137750928D01*
X184751625Y-137759279D01*
X184747485Y-137797728D01*
X184747146Y-137800477D01*
X184745240Y-137815725D01*
X184742202Y-137837332D01*
X184741022Y-137845003D01*
X184739520Y-137854462D01*
X184736077Y-137874498D01*
X184734845Y-137881552D01*
X184733538Y-137888525D01*
X184731698Y-137898188D01*
X183721875Y-137898188D01*
X183443103Y-137798234D01*
X183396714Y-137767238D01*
X183306738Y-137749341D01*
X183289860Y-137743289D01*
X183235869Y-137735244D01*
X183182319Y-137724592D01*
X183164385Y-137724592D01*
X183073653Y-137711072D01*
X183019527Y-137724592D01*
X181313259Y-137724592D01*
X181259133Y-137711072D01*
X181168400Y-137724592D01*
X181150466Y-137724592D01*
X181096915Y-137735244D01*
X181042925Y-137743289D01*
X181026047Y-137749341D01*
X180936071Y-137767238D01*
X180889683Y-137798234D01*
X180610908Y-137898188D01*
X179279312Y-137898188D01*
X179259038Y-137902221D01*
X178330245Y-137954148D01*
X178318771Y-137955557D01*
X178307214Y-137955799D01*
X178241117Y-137964618D01*
X177093716Y-138171068D01*
X177078765Y-138174796D01*
X177063538Y-138177153D01*
X176999187Y-138194637D01*
X175889170Y-138551025D01*
X175874842Y-138556698D01*
X175860062Y-138561048D01*
X175798589Y-138586888D01*
X174745458Y-139086951D01*
X174732007Y-139094468D01*
X174717930Y-139100736D01*
X174660431Y-139134472D01*
X174660416Y-139134480D01*
X174660415Y-139134481D01*
X173682671Y-139769435D01*
X173670334Y-139778665D01*
X173657209Y-139786739D01*
X173604662Y-139827794D01*
X172719484Y-140586482D01*
X172708475Y-140597263D01*
X172696534Y-140607002D01*
X172649878Y-140654645D01*
X171872817Y-141523740D01*
X171863328Y-141535886D01*
X171852783Y-141547115D01*
X171812838Y-141600511D01*
X171157547Y-142564743D01*
X171149752Y-142578029D01*
X171140780Y-142590561D01*
X171108248Y-142648771D01*
X170586239Y-143691199D01*
X170580269Y-143705401D01*
X170573034Y-143719008D01*
X170548486Y-143781009D01*
X170168930Y-144883319D01*
X170164890Y-144898188D01*
X170159519Y-144912631D01*
X170143387Y-144977334D01*
X169912953Y-146120159D01*
X169910915Y-146135429D01*
X169907501Y-146150458D01*
X169900068Y-146216726D01*
X169825975Y-147332253D01*
X169821189Y-147356312D01*
X169821188Y-152743944D01*
X169565031Y-152836564D01*
X164433679Y-153162573D01*
X159199506Y-153348580D01*
X155154266Y-153392188D01*
X113888306Y-153392188D01*
X108647396Y-153319006D01*
X103414510Y-153099683D01*
X99477491Y-152836970D01*
X99220212Y-152743944D01*
X99220212Y-147356312D01*
X99216179Y-147336038D01*
X99164252Y-146407245D01*
X99162843Y-146395771D01*
X99162601Y-146384214D01*
X99153782Y-146318117D01*
X99083523Y-145927629D01*
X104075962Y-145927629D01*
X104083847Y-146622607D01*
X104341393Y-147268151D01*
X104814065Y-147777698D01*
X105438482Y-148082921D01*
X106130912Y-148142892D01*
X106798507Y-147949569D01*
X107351747Y-147528876D01*
X107716446Y-146937224D01*
X107843700Y-146253950D01*
X107843211Y-146210889D01*
X107783777Y-145927629D01*
X161225962Y-145927629D01*
X161233847Y-146622607D01*
X161491393Y-147268151D01*
X161964065Y-147777698D01*
X162588482Y-148082921D01*
X163280912Y-148142892D01*
X163948507Y-147949569D01*
X164501747Y-147528876D01*
X164866446Y-146937224D01*
X164993700Y-146253950D01*
X164993211Y-146210889D01*
X164850488Y-145530678D01*
X164472461Y-144947453D01*
X163909819Y-144539420D01*
X163238010Y-144361293D01*
X162547118Y-144436958D01*
X161929787Y-144756268D01*
X161468796Y-145276408D01*
X161225962Y-145927629D01*
X107783777Y-145927629D01*
X107700488Y-145530678D01*
X107322461Y-144947453D01*
X106759819Y-144539420D01*
X106088010Y-144361293D01*
X105397118Y-144436958D01*
X104779787Y-144756268D01*
X104318796Y-145276408D01*
X104075962Y-145927629D01*
X99083523Y-145927629D01*
X98947332Y-145170716D01*
X98943604Y-145155765D01*
X98941247Y-145140538D01*
X98923763Y-145076187D01*
X98567375Y-143966170D01*
X98561702Y-143951842D01*
X98557352Y-143937062D01*
X98531512Y-143875589D01*
X98031449Y-142822458D01*
X98023932Y-142809007D01*
X98017664Y-142794930D01*
X97983919Y-142737415D01*
X97348965Y-141759671D01*
X97339735Y-141747334D01*
X97331661Y-141734209D01*
X97290606Y-141681662D01*
X96531918Y-140796484D01*
X96521137Y-140785475D01*
X96511398Y-140773534D01*
X96463755Y-140726878D01*
X95594660Y-139949817D01*
X95582514Y-139940328D01*
X95571285Y-139929783D01*
X95517889Y-139889838D01*
X94553657Y-139234547D01*
X94540371Y-139226752D01*
X94527839Y-139217780D01*
X94469629Y-139185248D01*
X93427201Y-138663239D01*
X93412999Y-138657269D01*
X93399392Y-138650034D01*
X93337391Y-138625486D01*
X92235081Y-138245930D01*
X92220212Y-138241890D01*
X92205769Y-138236519D01*
X92141078Y-138220390D01*
X92141067Y-138220387D01*
X92141064Y-138220387D01*
X90998241Y-137989953D01*
X90982971Y-137987915D01*
X90967942Y-137984501D01*
X90901680Y-137977069D01*
X90901675Y-137977068D01*
X90901674Y-137977068D01*
X89786154Y-137902975D01*
X89762088Y-137898188D01*
X84374456Y-137898188D01*
X84281836Y-137642031D01*
X83955827Y-132510679D01*
X83896683Y-130846379D01*
X88994712Y-130846379D01*
X89002597Y-131541357D01*
X89260143Y-132186901D01*
X89732815Y-132696448D01*
X90357232Y-133001671D01*
X91049662Y-133061642D01*
X91717257Y-132868319D01*
X92270497Y-132447626D01*
X92635196Y-131855974D01*
X92762450Y-131172700D01*
X92761961Y-131129639D01*
X92702527Y-130846379D01*
X176307212Y-130846379D01*
X176315097Y-131541357D01*
X176572643Y-132186901D01*
X177045315Y-132696448D01*
X177669732Y-133001671D01*
X178362162Y-133061642D01*
X179029757Y-132868319D01*
X179582997Y-132447626D01*
X179947696Y-131855974D01*
X180074950Y-131172700D01*
X180074461Y-131129639D01*
X179931738Y-130449428D01*
X179553711Y-129866203D01*
X178991069Y-129458170D01*
X178319260Y-129280043D01*
X177628368Y-129355708D01*
X177011037Y-129675018D01*
X176550046Y-130195158D01*
X176307212Y-130846379D01*
X92702527Y-130846379D01*
X92619238Y-130449428D01*
X92241211Y-129866203D01*
X91678569Y-129458170D01*
X91006760Y-129280043D01*
X90315868Y-129355708D01*
X89698537Y-129675018D01*
X89237546Y-130195158D01*
X88994712Y-130846379D01*
X83896683Y-130846379D01*
X83769820Y-127276506D01*
X83754157Y-125823501D01*
X95397162Y-125823501D01*
X95414500Y-125910666D01*
X95414499Y-127600340D01*
X95397162Y-127687501D01*
X95414499Y-127774662D01*
X95414499Y-127774665D01*
X95465847Y-128032810D01*
X95661450Y-128325550D01*
X95735346Y-128374926D01*
X96288076Y-128927657D01*
X96337450Y-129001550D01*
X96411343Y-129050924D01*
X96411344Y-129050925D01*
X96494596Y-129106552D01*
X96630189Y-129197153D01*
X96888334Y-129248501D01*
X96888338Y-129248501D01*
X96975498Y-129265838D01*
X97062658Y-129248501D01*
X105297257Y-129248501D01*
X105384418Y-129265838D01*
X105471579Y-129248501D01*
X105471583Y-129248501D01*
X105729728Y-129197153D01*
X106022467Y-129001550D01*
X106071843Y-128927654D01*
X108241499Y-126757998D01*
X108241499Y-127600340D01*
X108224162Y-127687501D01*
X108241499Y-127774662D01*
X108241499Y-127774665D01*
X108292847Y-128032810D01*
X108488450Y-128325550D01*
X108562346Y-128374926D01*
X109115076Y-128927657D01*
X109164450Y-129001550D01*
X109238343Y-129050924D01*
X109238344Y-129050925D01*
X109321596Y-129106552D01*
X109457189Y-129197153D01*
X109715334Y-129248501D01*
X109715338Y-129248501D01*
X109802498Y-129265838D01*
X109889658Y-129248501D01*
X132499340Y-129248501D01*
X132586501Y-129265838D01*
X132673662Y-129248501D01*
X132673666Y-129248501D01*
X132931811Y-129197153D01*
X133224550Y-129001550D01*
X133273926Y-128927654D01*
X134868802Y-127332778D01*
X160108000Y-127332778D01*
X160108000Y-127983222D01*
X160356914Y-128584153D01*
X160816847Y-129044086D01*
X161417778Y-129293000D01*
X162068222Y-129293000D01*
X162669153Y-129044086D01*
X162902707Y-128810532D01*
X165270073Y-128810532D01*
X165368736Y-129077387D01*
X165978461Y-129303908D01*
X166628460Y-129279856D01*
X167117264Y-129077387D01*
X167215927Y-128810532D01*
X166243000Y-127837605D01*
X165270073Y-128810532D01*
X162902707Y-128810532D01*
X163129086Y-128584153D01*
X163378000Y-127983222D01*
X163378000Y-127393461D01*
X164597092Y-127393461D01*
X164621144Y-128043460D01*
X164823613Y-128532264D01*
X165090468Y-128630927D01*
X166063395Y-127658000D01*
X166422605Y-127658000D01*
X167395532Y-128630927D01*
X167662387Y-128532264D01*
X167888908Y-127922539D01*
X167864856Y-127272540D01*
X167662387Y-126783736D01*
X167395532Y-126685073D01*
X166422605Y-127658000D01*
X166063395Y-127658000D01*
X165090468Y-126685073D01*
X164823613Y-126783736D01*
X164597092Y-127393461D01*
X163378000Y-127393461D01*
X163378000Y-127332778D01*
X163129086Y-126731847D01*
X162902707Y-126505468D01*
X165270073Y-126505468D01*
X166243000Y-127478395D01*
X167215927Y-126505468D01*
X167117264Y-126238613D01*
X166507539Y-126012092D01*
X165857540Y-126036144D01*
X165368736Y-126238613D01*
X165270073Y-126505468D01*
X162902707Y-126505468D01*
X162669153Y-126271914D01*
X162068222Y-126023000D01*
X161417778Y-126023000D01*
X160816847Y-126271914D01*
X160356914Y-126731847D01*
X160108000Y-127332778D01*
X134868802Y-127332778D01*
X139864157Y-122337424D01*
X139938050Y-122288050D01*
X140024949Y-122157998D01*
X140133653Y-121995311D01*
X140146069Y-121932889D01*
X140185001Y-121737166D01*
X140185001Y-121737162D01*
X140202338Y-121650001D01*
X140185001Y-121562840D01*
X140185001Y-119156382D01*
X140286280Y-119114431D01*
X140577431Y-118823280D01*
X140735000Y-118442874D01*
X140735000Y-118031126D01*
X140577431Y-117650720D01*
X140286280Y-117359569D01*
X139924148Y-117209569D01*
X135806969Y-113092391D01*
X135754340Y-112965333D01*
X135754340Y-103476161D01*
X136270954Y-103476161D01*
X136270954Y-103887909D01*
X136428523Y-104268315D01*
X136545955Y-104385747D01*
X136545954Y-106133091D01*
X136531066Y-106207938D01*
X136545954Y-106282785D01*
X136545954Y-106282789D01*
X136590050Y-106504474D01*
X136758025Y-106755867D01*
X136821484Y-106798269D01*
X137755775Y-107732561D01*
X137755775Y-107898633D01*
X137913344Y-108279039D01*
X138204495Y-108570190D01*
X138584901Y-108727759D01*
X138996649Y-108727759D01*
X139325830Y-108591408D01*
X139584486Y-108698547D01*
X139996234Y-108698547D01*
X140286525Y-108578305D01*
X140640281Y-108724835D01*
X141052029Y-108724835D01*
X141250300Y-108642708D01*
X141373201Y-108765609D01*
X141582348Y-108852240D01*
X139978859Y-110455730D01*
X139915400Y-110498132D01*
X139747425Y-110749525D01*
X139703329Y-110971210D01*
X139703329Y-110971214D01*
X139688441Y-111046061D01*
X139703329Y-111120908D01*
X139703330Y-113332820D01*
X139585898Y-113450252D01*
X139428329Y-113830658D01*
X139428329Y-114242406D01*
X139585898Y-114622812D01*
X139877049Y-114913963D01*
X140257455Y-115071532D01*
X140331242Y-115071532D01*
X140391044Y-115215907D01*
X140682195Y-115507058D01*
X141062601Y-115664627D01*
X141332000Y-115664627D01*
X141332000Y-115775870D01*
X141489569Y-116156276D01*
X141780720Y-116447427D01*
X142161126Y-116604996D01*
X142572874Y-116604996D01*
X142953280Y-116447427D01*
X143244431Y-116156276D01*
X143402000Y-115775870D01*
X143402000Y-115771642D01*
X143461542Y-115682531D01*
X145064560Y-114079514D01*
X145336126Y-114192000D01*
X145747874Y-114192000D01*
X146128280Y-114034431D01*
X146419431Y-113743280D01*
X146457560Y-113651228D01*
X146457560Y-115023000D01*
X146506843Y-115270765D01*
X146647191Y-115480809D01*
X146857235Y-115621157D01*
X146945001Y-115638615D01*
X146945001Y-115673525D01*
X146925214Y-115773000D01*
X146945001Y-115872476D01*
X146962242Y-115959152D01*
X147003602Y-116167082D01*
X147170482Y-116416837D01*
X147170485Y-116416840D01*
X147226832Y-116501169D01*
X147311161Y-116557516D01*
X154580493Y-123826848D01*
X154636842Y-123911180D01*
X154970929Y-124134410D01*
X155265535Y-124193011D01*
X155265539Y-124193011D01*
X155365010Y-124212797D01*
X155464481Y-124193011D01*
X167069483Y-124193011D01*
X167168954Y-124212797D01*
X167268425Y-124193011D01*
X167268430Y-124193011D01*
X167563036Y-124134410D01*
X167897123Y-123911180D01*
X167953472Y-123826848D01*
X180602841Y-111177480D01*
X180687169Y-111121134D01*
X180743516Y-111036805D01*
X180743518Y-111036803D01*
X180910399Y-110787048D01*
X180929275Y-110692153D01*
X180969000Y-110492441D01*
X180969000Y-110492437D01*
X180988786Y-110392965D01*
X180969000Y-110293493D01*
X180969000Y-88364471D01*
X180988786Y-88265000D01*
X180969000Y-88165529D01*
X180969000Y-88165524D01*
X180910399Y-87870918D01*
X180836054Y-87759653D01*
X180743518Y-87621162D01*
X180743516Y-87621160D01*
X180687169Y-87536831D01*
X180602840Y-87480484D01*
X179981517Y-86859162D01*
X179925169Y-86774831D01*
X179591082Y-86551601D01*
X179296476Y-86493000D01*
X179296471Y-86493000D01*
X179197000Y-86473214D01*
X179097529Y-86493000D01*
X175232470Y-86493000D01*
X175132999Y-86473214D01*
X175033528Y-86493000D01*
X175033524Y-86493000D01*
X174738918Y-86551601D01*
X174404831Y-86774831D01*
X174348482Y-86859163D01*
X172776645Y-88431000D01*
X172573744Y-88431000D01*
X172140582Y-88517161D01*
X171649375Y-88845375D01*
X171321161Y-89336582D01*
X171205908Y-89916000D01*
X171321161Y-90495418D01*
X171649375Y-90986625D01*
X171667619Y-90998816D01*
X171622235Y-91007843D01*
X171412191Y-91148191D01*
X171271843Y-91358235D01*
X171222560Y-91606000D01*
X171222560Y-93306000D01*
X171271843Y-93553765D01*
X171412191Y-93763809D01*
X171622235Y-93904157D01*
X171870000Y-93953440D01*
X173570000Y-93953440D01*
X173817765Y-93904157D01*
X174027809Y-93763809D01*
X174168157Y-93553765D01*
X174177184Y-93508381D01*
X174189375Y-93526625D01*
X174500287Y-93734370D01*
X174544097Y-93954618D01*
X174712072Y-94206010D01*
X174775528Y-94248410D01*
X175924732Y-95397616D01*
X175924733Y-99475431D01*
X171194000Y-94744699D01*
X171194000Y-89228846D01*
X171208888Y-89153999D01*
X171194000Y-89079152D01*
X171194000Y-89079148D01*
X171149904Y-88857463D01*
X171075385Y-88745937D01*
X171024329Y-88669526D01*
X171024327Y-88669524D01*
X170981929Y-88606071D01*
X170918476Y-88563673D01*
X167283502Y-84928701D01*
X167283502Y-84689844D01*
X167298390Y-84614997D01*
X167283502Y-84540150D01*
X167283502Y-84540146D01*
X167239406Y-84318461D01*
X167071431Y-84067069D01*
X167007975Y-84024669D01*
X162520304Y-79536999D01*
X163107698Y-79536999D01*
X171050000Y-87479303D01*
X171050000Y-87645374D01*
X171207569Y-88025780D01*
X171498720Y-88316931D01*
X171879126Y-88474500D01*
X172290874Y-88474500D01*
X172671280Y-88316931D01*
X172962431Y-88025780D01*
X173120000Y-87645374D01*
X173120000Y-87233626D01*
X172962431Y-86853220D01*
X172671280Y-86562069D01*
X172290874Y-86404500D01*
X172124803Y-86404500D01*
X164012830Y-78292529D01*
X163970428Y-78229070D01*
X163909445Y-78188322D01*
X170839000Y-78188322D01*
X170839000Y-79037678D01*
X171164034Y-79822380D01*
X171764620Y-80422966D01*
X172549322Y-80748000D01*
X173398678Y-80748000D01*
X174183380Y-80422966D01*
X174783966Y-79822380D01*
X175109000Y-79037678D01*
X175109000Y-78188322D01*
X174783966Y-77403620D01*
X174183380Y-76803034D01*
X173398678Y-76478000D01*
X172549322Y-76478000D01*
X171764620Y-76803034D01*
X171164034Y-77403620D01*
X170839000Y-78188322D01*
X163909445Y-78188322D01*
X163719036Y-78061095D01*
X163497351Y-78016999D01*
X163497346Y-78016999D01*
X163422499Y-78002111D01*
X163347652Y-78016999D01*
X160508847Y-78016999D01*
X160433999Y-78002111D01*
X160359151Y-78016999D01*
X160359147Y-78016999D01*
X160137462Y-78061095D01*
X159886070Y-78229070D01*
X159843668Y-78292529D01*
X159572527Y-78563670D01*
X159509071Y-78606070D01*
X159466671Y-78669526D01*
X159466670Y-78669527D01*
X159341096Y-78857462D01*
X159282111Y-79153999D01*
X159297000Y-79228850D01*
X159296999Y-80724846D01*
X159282111Y-80799693D01*
X159296999Y-80874540D01*
X159296999Y-80874544D01*
X159341095Y-81096229D01*
X159509070Y-81347622D01*
X159572529Y-81390024D01*
X160525933Y-82343429D01*
X160525933Y-82509501D01*
X160683502Y-82889907D01*
X160800933Y-83007338D01*
X160800933Y-91943358D01*
X160770431Y-91869719D01*
X160479280Y-91578568D01*
X160098874Y-91420999D01*
X159687126Y-91420999D01*
X159536832Y-91483253D01*
X154963688Y-86910110D01*
X155053670Y-86692874D01*
X155053670Y-86281126D01*
X154896101Y-85900720D01*
X154604950Y-85609569D01*
X154224544Y-85452000D01*
X154213316Y-85452000D01*
X154328660Y-85173534D01*
X154328660Y-84761786D01*
X154171091Y-84381380D01*
X153879940Y-84090229D01*
X153499534Y-83932660D01*
X153414000Y-83932660D01*
X153414000Y-83634711D01*
X153531431Y-83517280D01*
X153689000Y-83136874D01*
X153689000Y-82725126D01*
X153531431Y-82344720D01*
X153240280Y-82053569D01*
X152859874Y-81896000D01*
X152448126Y-81896000D01*
X152067720Y-82053569D01*
X151776569Y-82344720D01*
X151619000Y-82725126D01*
X151619000Y-83136874D01*
X151776569Y-83517280D01*
X151894000Y-83634711D01*
X151894000Y-84253153D01*
X151879112Y-84328000D01*
X151894000Y-84402847D01*
X151894000Y-84402851D01*
X151938096Y-84624536D01*
X152106071Y-84875929D01*
X152169530Y-84918331D01*
X152258660Y-85007461D01*
X152258660Y-85173534D01*
X152416229Y-85553940D01*
X152707380Y-85845091D01*
X153087786Y-86002660D01*
X153099014Y-86002660D01*
X153020994Y-86191017D01*
X152769874Y-86087000D01*
X152358126Y-86087000D01*
X151977720Y-86244569D01*
X151686569Y-86535720D01*
X151529000Y-86916126D01*
X151529000Y-87327874D01*
X151686569Y-87708280D01*
X151977720Y-87999431D01*
X152358126Y-88157000D01*
X152769874Y-88157000D01*
X153132007Y-88007000D01*
X153557422Y-88007000D01*
X158693844Y-93143423D01*
X158912689Y-93289651D01*
X159257999Y-93358336D01*
X159331536Y-93343709D01*
X159687126Y-93490999D01*
X160098874Y-93490999D01*
X160479280Y-93333430D01*
X160770431Y-93042279D01*
X160800933Y-92968639D01*
X160800934Y-106761531D01*
X160786045Y-106836383D01*
X160800934Y-106911235D01*
X160818619Y-107000146D01*
X160763301Y-107055464D01*
X158569278Y-107055464D01*
X157465572Y-105951759D01*
X157578369Y-105905037D01*
X157869520Y-105613886D01*
X158027089Y-105233480D01*
X158027089Y-104821732D01*
X157897159Y-104508052D01*
X158581472Y-103823740D01*
X158644928Y-103781340D01*
X158699417Y-103699791D01*
X158812903Y-103529949D01*
X158837373Y-103406930D01*
X158856999Y-103308263D01*
X158856999Y-103308259D01*
X158871887Y-103233411D01*
X158856999Y-103158563D01*
X158856999Y-101324711D01*
X158974430Y-101207280D01*
X159131999Y-100826874D01*
X159131999Y-100415126D01*
X158974430Y-100034720D01*
X158683279Y-99743569D01*
X158302873Y-99586000D01*
X158007000Y-99586000D01*
X158007000Y-99489126D01*
X157849431Y-99108720D01*
X157558280Y-98817569D01*
X157177874Y-98660000D01*
X156766126Y-98660000D01*
X156385720Y-98817569D01*
X156094569Y-99108720D01*
X155937000Y-99489126D01*
X155937000Y-99686991D01*
X155877720Y-99711546D01*
X155586569Y-100002697D01*
X155429000Y-100383103D01*
X155429000Y-100794851D01*
X155586569Y-101175257D01*
X155704000Y-101292688D01*
X155704001Y-101817305D01*
X155586565Y-101934741D01*
X155428996Y-102315147D01*
X155428996Y-102726895D01*
X155586565Y-103107301D01*
X155877716Y-103398452D01*
X156120275Y-103498923D01*
X156043199Y-103576000D01*
X155877126Y-103576000D01*
X155496720Y-103733569D01*
X155372051Y-103858238D01*
X154640968Y-103127154D01*
X154809912Y-102958210D01*
X154967481Y-102577804D01*
X154967481Y-102166056D01*
X154809912Y-101785650D01*
X154518761Y-101494499D01*
X154138355Y-101336930D01*
X153726607Y-101336930D01*
X153709089Y-101344186D01*
X153844684Y-101016831D01*
X153844684Y-100605083D01*
X153687115Y-100224677D01*
X153395964Y-99933526D01*
X153015558Y-99775957D01*
X152603810Y-99775957D01*
X152223404Y-99933526D01*
X152105973Y-100050957D01*
X148548039Y-100050957D01*
X148473192Y-100036069D01*
X148398345Y-100050957D01*
X148398341Y-100050957D01*
X148176656Y-100095053D01*
X147925264Y-100263028D01*
X147882864Y-100326484D01*
X147572895Y-100636453D01*
X147406823Y-100636453D01*
X147026417Y-100794022D01*
X146735266Y-101085173D01*
X146577697Y-101465579D01*
X146577697Y-101877327D01*
X146735266Y-102257733D01*
X147026417Y-102548884D01*
X147406823Y-102706453D01*
X147818571Y-102706453D01*
X148198977Y-102548884D01*
X148490128Y-102257733D01*
X148647697Y-101877327D01*
X148647697Y-101711255D01*
X148787995Y-101570957D01*
X150535239Y-101570957D01*
X149756530Y-102349667D01*
X149693071Y-102392069D01*
X149525096Y-102643462D01*
X149481000Y-102865147D01*
X149481000Y-102865151D01*
X149466112Y-102939998D01*
X149481000Y-103014845D01*
X149481001Y-109074000D01*
X149273126Y-109074000D01*
X148892720Y-109231569D01*
X148775289Y-109349000D01*
X147702831Y-109349000D01*
X147555340Y-109201509D01*
X147174934Y-109043940D01*
X146763186Y-109043940D01*
X146382780Y-109201509D01*
X146091629Y-109492660D01*
X145934060Y-109873066D01*
X145934060Y-110284814D01*
X146091629Y-110665220D01*
X146382780Y-110956371D01*
X146763186Y-111113940D01*
X147174934Y-111113940D01*
X147555340Y-110956371D01*
X147642711Y-110869000D01*
X148775289Y-110869000D01*
X148892720Y-110986431D01*
X149206000Y-111116196D01*
X149206000Y-111330874D01*
X149363569Y-111711280D01*
X149654720Y-112002431D01*
X150035126Y-112160000D01*
X150370000Y-112160000D01*
X150370000Y-112193153D01*
X150355112Y-112268000D01*
X150370000Y-112342847D01*
X150370000Y-112342851D01*
X150414096Y-112564536D01*
X150496592Y-112688000D01*
X150348744Y-112688000D01*
X149915582Y-112774161D01*
X149424375Y-113102375D01*
X149412184Y-113120619D01*
X149403157Y-113075235D01*
X149262809Y-112865191D01*
X149052765Y-112724843D01*
X148805000Y-112675560D01*
X147105000Y-112675560D01*
X146857235Y-112724843D01*
X146647191Y-112865191D01*
X146577000Y-112970238D01*
X146577000Y-112951126D01*
X146419431Y-112570720D01*
X146128280Y-112279569D01*
X145747874Y-112122000D01*
X145336126Y-112122000D01*
X145011922Y-112256289D01*
X144780000Y-112210158D01*
X144434690Y-112278843D01*
X144215845Y-112425071D01*
X142438041Y-114202876D01*
X142428474Y-114154782D01*
X142428474Y-110792127D01*
X146793668Y-106426935D01*
X146857121Y-106384537D01*
X146899519Y-106321084D01*
X146899521Y-106321082D01*
X147005207Y-106162911D01*
X147025096Y-106133145D01*
X147069192Y-105911460D01*
X147069192Y-105911456D01*
X147084080Y-105836609D01*
X147069192Y-105761762D01*
X147069192Y-104849942D01*
X147186623Y-104732511D01*
X147344192Y-104352105D01*
X147344192Y-103940357D01*
X147186623Y-103559951D01*
X146895472Y-103268800D01*
X146704000Y-103189490D01*
X146704000Y-103172126D01*
X146546431Y-102791720D01*
X146255280Y-102500569D01*
X145874874Y-102343000D01*
X145463126Y-102343000D01*
X145082720Y-102500569D01*
X144791569Y-102791720D01*
X144634000Y-103172126D01*
X144634000Y-103360383D01*
X144553097Y-103481463D01*
X144509001Y-103703148D01*
X144509001Y-103703152D01*
X144494113Y-103777999D01*
X144509001Y-103852846D01*
X144509002Y-105925586D01*
X143150930Y-107283658D01*
X143150930Y-104928529D01*
X143268361Y-104811098D01*
X143425930Y-104430692D01*
X143425930Y-104018944D01*
X143268361Y-103638538D01*
X142977210Y-103347387D01*
X142596804Y-103189818D01*
X142185056Y-103189818D01*
X141804650Y-103347387D01*
X141513499Y-103638538D01*
X141355930Y-104018944D01*
X141355930Y-104430692D01*
X141513499Y-104811098D01*
X141630930Y-104928529D01*
X141630931Y-106903992D01*
X141592363Y-106919967D01*
X141562059Y-106767618D01*
X141394084Y-106516226D01*
X141330628Y-106473826D01*
X140206000Y-105349199D01*
X140206000Y-104151709D01*
X140323431Y-104034278D01*
X140481000Y-103653872D01*
X140481000Y-103242124D01*
X140323431Y-102861718D01*
X140032280Y-102570567D01*
X139651874Y-102412998D01*
X139240126Y-102412998D01*
X138859720Y-102570567D01*
X138568569Y-102861718D01*
X138452676Y-103141510D01*
X138238998Y-103230018D01*
X138183385Y-103095755D01*
X137892234Y-102804604D01*
X137511828Y-102647035D01*
X137100080Y-102647035D01*
X136719674Y-102804604D01*
X136428523Y-103095755D01*
X136270954Y-103476161D01*
X135754340Y-103476161D01*
X135754340Y-100692445D01*
X135845496Y-100472374D01*
X135845496Y-100060626D01*
X135687927Y-99680220D01*
X135396776Y-99389069D01*
X135016370Y-99231500D01*
X134604622Y-99231500D01*
X134224216Y-99389069D01*
X133933065Y-99680220D01*
X133775496Y-100060626D01*
X133775496Y-100472374D01*
X133933065Y-100852780D01*
X133984341Y-100904056D01*
X133984340Y-112965333D01*
X133834340Y-113327466D01*
X133834340Y-113398315D01*
X133793698Y-113357673D01*
X133560309Y-113261000D01*
X132569750Y-113261000D01*
X132411000Y-113419750D01*
X132411000Y-113674415D01*
X132332393Y-113706975D01*
X132324892Y-113826500D01*
X132285000Y-113866392D01*
X132245108Y-113826500D01*
X132237607Y-113706975D01*
X132157000Y-113682186D01*
X132157000Y-113419750D01*
X131998250Y-113261000D01*
X131007691Y-113261000D01*
X130774302Y-113357673D01*
X130595673Y-113536301D01*
X130499000Y-113769690D01*
X130499000Y-114760250D01*
X130657750Y-114919000D01*
X130913001Y-114919000D01*
X130945975Y-114998607D01*
X131065500Y-115006108D01*
X131105392Y-115046000D01*
X131065500Y-115085892D01*
X130945975Y-115093393D01*
X130921493Y-115173000D01*
X130657750Y-115173000D01*
X130499000Y-115331750D01*
X130499000Y-116322310D01*
X130595673Y-116555699D01*
X130774302Y-116734327D01*
X131007691Y-116831000D01*
X131998250Y-116831000D01*
X132157000Y-116672250D01*
X132157000Y-116418414D01*
X132237607Y-116385025D01*
X132245108Y-116265500D01*
X132285000Y-116225608D01*
X132324892Y-116265500D01*
X132332393Y-116385025D01*
X132411000Y-116409199D01*
X132411000Y-116672250D01*
X132569750Y-116831000D01*
X133560309Y-116831000D01*
X133793698Y-116734327D01*
X133972327Y-116555699D01*
X134069000Y-116322310D01*
X134069000Y-115331750D01*
X133910250Y-115173000D01*
X133656999Y-115173000D01*
X133624025Y-115093393D01*
X133504500Y-115085892D01*
X133464608Y-115046000D01*
X133504500Y-115006108D01*
X133624025Y-114998607D01*
X133648507Y-114919000D01*
X133910250Y-114919000D01*
X134069000Y-114760250D01*
X134069000Y-114196711D01*
X134283060Y-114410771D01*
X134663466Y-114568340D01*
X134779762Y-114568340D01*
X138481074Y-118269653D01*
X138466349Y-118291690D01*
X138415001Y-118549835D01*
X138415001Y-118549838D01*
X138397664Y-118636999D01*
X138415001Y-118724160D01*
X138415002Y-121283421D01*
X134325681Y-125372743D01*
X134039739Y-124682418D01*
X133720970Y-124522635D01*
X132386605Y-125857000D01*
X132400748Y-125871143D01*
X132221143Y-126050748D01*
X132207000Y-126036605D01*
X130872635Y-127370970D01*
X130926535Y-127478501D01*
X129250272Y-127478501D01*
X129274440Y-127357000D01*
X129274440Y-125473187D01*
X130064277Y-125473187D01*
X130080503Y-126322387D01*
X130374261Y-127031582D01*
X130693030Y-127191365D01*
X132027395Y-125857000D01*
X130693030Y-124522635D01*
X130374261Y-124682418D01*
X130064277Y-125473187D01*
X129274440Y-125473187D01*
X129274440Y-124357000D01*
X129271662Y-124343030D01*
X130872635Y-124343030D01*
X132207000Y-125677395D01*
X133541365Y-124343030D01*
X133381582Y-124024261D01*
X132590813Y-123714277D01*
X131741613Y-123730503D01*
X131032418Y-124024261D01*
X130872635Y-124343030D01*
X129271662Y-124343030D01*
X129225157Y-124109235D01*
X129084809Y-123899191D01*
X128874765Y-123758843D01*
X128627000Y-123709560D01*
X128012000Y-123709560D01*
X128012000Y-118424007D01*
X128162000Y-118061874D01*
X128162000Y-117650126D01*
X128004431Y-117269720D01*
X127713280Y-116978569D01*
X127332874Y-116821000D01*
X126921126Y-116821000D01*
X126540720Y-116978569D01*
X126249569Y-117269720D01*
X126092000Y-117650126D01*
X126092000Y-118061874D01*
X126242001Y-118424009D01*
X126242000Y-123709560D01*
X125627000Y-123709560D01*
X125379235Y-123758843D01*
X125169191Y-123899191D01*
X125028843Y-124109235D01*
X124979560Y-124357000D01*
X124979560Y-127357000D01*
X125003728Y-127478501D01*
X114398043Y-127478501D01*
X114480592Y-127063500D01*
X114365339Y-126484082D01*
X114037125Y-125992875D01*
X113738739Y-125793500D01*
X114037125Y-125594125D01*
X114365339Y-125102918D01*
X114480592Y-124523500D01*
X114365339Y-123944082D01*
X114037125Y-123452875D01*
X113738739Y-123253500D01*
X114037125Y-123054125D01*
X114365339Y-122562918D01*
X114480592Y-121983500D01*
X114365339Y-121404082D01*
X114037125Y-120912875D01*
X113738739Y-120713500D01*
X114037125Y-120514125D01*
X114365339Y-120022918D01*
X114480592Y-119443500D01*
X114365339Y-118864082D01*
X114037125Y-118372875D01*
X113545918Y-118044661D01*
X113112756Y-117958500D01*
X112820244Y-117958500D01*
X112387082Y-118044661D01*
X112361501Y-118061754D01*
X112361501Y-112976526D01*
X122155000Y-112976526D01*
X122155000Y-113388274D01*
X122312569Y-113768680D01*
X122603720Y-114059831D01*
X122984126Y-114217400D01*
X123395874Y-114217400D01*
X123758007Y-114067400D01*
X124245822Y-114067400D01*
X124448569Y-114270148D01*
X124598569Y-114632280D01*
X124889720Y-114923431D01*
X125270126Y-115081000D01*
X125681874Y-115081000D01*
X126062280Y-114923431D01*
X126353431Y-114632280D01*
X126511000Y-114251874D01*
X126511000Y-113840126D01*
X126353431Y-113459720D01*
X126062280Y-113168569D01*
X125700148Y-113018569D01*
X125299825Y-112618247D01*
X125250449Y-112544351D01*
X124957710Y-112348748D01*
X124699565Y-112297400D01*
X124699561Y-112297400D01*
X124612400Y-112280063D01*
X124525239Y-112297400D01*
X123758007Y-112297400D01*
X123395874Y-112147400D01*
X122984126Y-112147400D01*
X122603720Y-112304969D01*
X122312569Y-112596120D01*
X122155000Y-112976526D01*
X112361501Y-112976526D01*
X112361501Y-112443246D01*
X112387082Y-112460339D01*
X112820244Y-112546500D01*
X113112756Y-112546500D01*
X113545918Y-112460339D01*
X114037125Y-112132125D01*
X114365339Y-111640918D01*
X114480592Y-111061500D01*
X114365339Y-110482082D01*
X114037125Y-109990875D01*
X113738739Y-109791500D01*
X114037125Y-109592125D01*
X114365339Y-109100918D01*
X114402198Y-108915615D01*
X114572667Y-109086084D01*
X114953073Y-109243653D01*
X115354721Y-109243653D01*
X115357056Y-109249290D01*
X115648207Y-109540441D01*
X116028613Y-109698010D01*
X116440361Y-109698010D01*
X116820767Y-109540441D01*
X117111918Y-109249290D01*
X117269487Y-108868884D01*
X117269487Y-108457136D01*
X117237175Y-108379126D01*
X119488000Y-108379126D01*
X119488000Y-108790874D01*
X119638000Y-109153008D01*
X119638001Y-110008713D01*
X119513400Y-110309526D01*
X119513400Y-110721274D01*
X119670969Y-111101680D01*
X119962120Y-111392831D01*
X120342526Y-111550400D01*
X120754274Y-111550400D01*
X121134680Y-111392831D01*
X121425831Y-111101680D01*
X121583400Y-110721274D01*
X121583400Y-110309526D01*
X121425831Y-109929120D01*
X121408000Y-109911289D01*
X121408000Y-109153007D01*
X121558000Y-108790874D01*
X121558000Y-108379126D01*
X121400431Y-107998720D01*
X121109280Y-107707569D01*
X120728874Y-107550000D01*
X120317126Y-107550000D01*
X119936720Y-107707569D01*
X119645569Y-107998720D01*
X119488000Y-108379126D01*
X117237175Y-108379126D01*
X117111918Y-108076730D01*
X116994487Y-107959299D01*
X116994487Y-106095597D01*
X117009375Y-106020749D01*
X116994487Y-105945901D01*
X116994487Y-105945897D01*
X116950391Y-105724212D01*
X116782416Y-105472820D01*
X116718960Y-105430420D01*
X116671811Y-105383271D01*
X116671811Y-105217199D01*
X116514242Y-104836793D01*
X116223091Y-104545642D01*
X115842685Y-104388073D01*
X115430937Y-104388073D01*
X115050531Y-104545642D01*
X114759380Y-104836793D01*
X114601811Y-105217199D01*
X114601811Y-105628947D01*
X114675518Y-105806891D01*
X114609242Y-105873167D01*
X114451673Y-106253573D01*
X114451673Y-106665321D01*
X114609242Y-107045727D01*
X114726673Y-107163158D01*
X114726674Y-107267431D01*
X114572667Y-107331222D01*
X114281516Y-107622373D01*
X114231844Y-107742292D01*
X114037125Y-107450875D01*
X113738739Y-107251500D01*
X114037125Y-107052125D01*
X114365339Y-106560918D01*
X114480592Y-105981500D01*
X114365339Y-105402082D01*
X114037125Y-104910875D01*
X113738739Y-104711500D01*
X114037125Y-104512125D01*
X114365339Y-104020918D01*
X114480592Y-103441500D01*
X114365339Y-102862082D01*
X114037125Y-102370875D01*
X113545918Y-102042661D01*
X113112756Y-101956500D01*
X112820244Y-101956500D01*
X112393000Y-102041484D01*
X112393000Y-94249647D01*
X112756744Y-94322000D01*
X113049256Y-94322000D01*
X113482418Y-94235839D01*
X113973625Y-93907625D01*
X114301839Y-93416418D01*
X114417092Y-92837000D01*
X114301839Y-92257582D01*
X113973625Y-91766375D01*
X113675239Y-91567000D01*
X113973625Y-91367625D01*
X114301839Y-90876418D01*
X114417092Y-90297000D01*
X114301839Y-89717582D01*
X113973625Y-89226375D01*
X113675239Y-89027000D01*
X113973625Y-88827625D01*
X114301839Y-88336418D01*
X114417092Y-87757000D01*
X114303016Y-87183500D01*
X115293957Y-87183500D01*
X115573572Y-87463115D01*
X115402241Y-87634446D01*
X115338782Y-87676848D01*
X115170807Y-87928241D01*
X115126711Y-88149926D01*
X115126711Y-88149930D01*
X115111823Y-88224777D01*
X115126711Y-88299624D01*
X115126712Y-91634318D01*
X115009280Y-91751750D01*
X114851711Y-92132156D01*
X114851711Y-92543904D01*
X114937000Y-92749811D01*
X114937001Y-94610142D01*
X114937000Y-94610147D01*
X114937001Y-99912299D01*
X114819569Y-100029731D01*
X114662000Y-100410137D01*
X114662000Y-100821885D01*
X114819569Y-101202291D01*
X115110720Y-101493442D01*
X115491126Y-101651011D01*
X115902874Y-101651011D01*
X116283280Y-101493442D01*
X116574431Y-101202291D01*
X116732000Y-100821885D01*
X116732000Y-100410137D01*
X116574431Y-100029731D01*
X116457000Y-99912300D01*
X116457000Y-95904000D01*
X116791874Y-95904000D01*
X117154007Y-95754000D01*
X119534493Y-95754000D01*
X119896626Y-95904000D01*
X120308374Y-95904000D01*
X120609186Y-95779400D01*
X122888032Y-95779400D01*
X123598779Y-96490148D01*
X123748779Y-96852280D01*
X124039930Y-97143431D01*
X124420336Y-97301000D01*
X124832084Y-97301000D01*
X125212490Y-97143431D01*
X125503641Y-96852280D01*
X125661210Y-96471874D01*
X125661210Y-96060126D01*
X125503641Y-95679720D01*
X125212490Y-95388569D01*
X124850358Y-95238569D01*
X124175068Y-94563279D01*
X130001847Y-94563279D01*
X130001847Y-94975027D01*
X130159416Y-95355433D01*
X130450567Y-95646584D01*
X130830973Y-95804153D01*
X131242721Y-95804153D01*
X131620399Y-95647714D01*
X132923981Y-95633208D01*
X133271126Y-95777000D01*
X133682874Y-95777000D01*
X134063280Y-95619431D01*
X134354431Y-95328280D01*
X134512000Y-94947874D01*
X134512000Y-94536126D01*
X134354431Y-94155720D01*
X134063280Y-93864569D01*
X133682874Y-93707000D01*
X133271126Y-93707000D01*
X132893448Y-93863439D01*
X131589866Y-93877945D01*
X131242721Y-93734153D01*
X130830973Y-93734153D01*
X130450567Y-93891722D01*
X130159416Y-94182873D01*
X130001847Y-94563279D01*
X124175068Y-94563279D01*
X123942034Y-94330246D01*
X123892659Y-94256351D01*
X123599920Y-94060748D01*
X123341775Y-94009400D01*
X123341771Y-94009400D01*
X123254610Y-93992063D01*
X123167449Y-94009400D01*
X120706611Y-94009400D01*
X120688780Y-93991569D01*
X120308374Y-93834000D01*
X119896626Y-93834000D01*
X119534493Y-93984000D01*
X117154007Y-93984000D01*
X116791874Y-93834000D01*
X116457000Y-93834000D01*
X116457000Y-93222085D01*
X116472991Y-93215461D01*
X116590422Y-93098030D01*
X119169123Y-93098030D01*
X119243970Y-93112918D01*
X119318817Y-93098030D01*
X119318822Y-93098030D01*
X119540507Y-93053934D01*
X119791899Y-92885959D01*
X119834301Y-92822501D01*
X120240649Y-92416153D01*
X120406721Y-92416153D01*
X120787127Y-92258584D01*
X121078278Y-91967433D01*
X121235847Y-91587027D01*
X121235847Y-91175279D01*
X121078278Y-90794873D01*
X120787127Y-90503722D01*
X120406721Y-90346153D01*
X119994973Y-90346153D01*
X119614567Y-90503722D01*
X119323416Y-90794873D01*
X119165847Y-91175279D01*
X119165847Y-91341351D01*
X118929168Y-91578030D01*
X116646711Y-91578030D01*
X116646711Y-88539578D01*
X116688174Y-88498115D01*
X116854247Y-88498115D01*
X117234653Y-88340546D01*
X117525804Y-88049395D01*
X117683373Y-87668989D01*
X117683373Y-87502917D01*
X118193291Y-86993000D01*
X119565289Y-86993000D01*
X119682720Y-87110431D01*
X120063126Y-87268000D01*
X120474874Y-87268000D01*
X120855280Y-87110431D01*
X121146431Y-86819280D01*
X121158921Y-86789126D01*
X121520000Y-86789126D01*
X121520000Y-87200874D01*
X121670000Y-87563008D01*
X121670001Y-87901992D01*
X121520000Y-88264126D01*
X121520000Y-88675874D01*
X121677569Y-89056280D01*
X121968720Y-89347431D01*
X122349126Y-89505000D01*
X122760874Y-89505000D01*
X123141280Y-89347431D01*
X123432431Y-89056280D01*
X123590000Y-88675874D01*
X123590000Y-88264126D01*
X123440000Y-87901993D01*
X123440000Y-87563007D01*
X123590000Y-87200874D01*
X123590000Y-86916126D01*
X140595978Y-86916126D01*
X140595978Y-87327874D01*
X140753547Y-87708280D01*
X141044698Y-87999431D01*
X141425104Y-88157000D01*
X141836852Y-88157000D01*
X142198985Y-88007000D01*
X143412993Y-88007000D01*
X143775126Y-88157000D01*
X144186874Y-88157000D01*
X144567280Y-87999431D01*
X144858431Y-87708280D01*
X145016000Y-87327874D01*
X145016000Y-86916126D01*
X144858431Y-86535720D01*
X144567280Y-86244569D01*
X144186874Y-86087000D01*
X143775126Y-86087000D01*
X143412993Y-86237000D01*
X142198985Y-86237000D01*
X141836852Y-86087000D01*
X141425104Y-86087000D01*
X141044698Y-86244569D01*
X140753547Y-86535720D01*
X140595978Y-86916126D01*
X123590000Y-86916126D01*
X123590000Y-86789126D01*
X123432431Y-86408720D01*
X123141280Y-86117569D01*
X122760874Y-85960000D01*
X122349126Y-85960000D01*
X121968720Y-86117569D01*
X121677569Y-86408720D01*
X121520000Y-86789126D01*
X121158921Y-86789126D01*
X121304000Y-86438874D01*
X121304000Y-86027126D01*
X121146431Y-85646720D01*
X120855280Y-85355569D01*
X120474874Y-85198000D01*
X120063126Y-85198000D01*
X119682720Y-85355569D01*
X119565289Y-85473000D01*
X117953334Y-85473000D01*
X117878487Y-85458112D01*
X117803640Y-85473000D01*
X117803636Y-85473000D01*
X117581951Y-85517096D01*
X117539699Y-85545328D01*
X117394014Y-85642671D01*
X117394012Y-85642673D01*
X117330559Y-85685071D01*
X117288161Y-85748524D01*
X116648373Y-86388313D01*
X116199089Y-85939030D01*
X116156687Y-85875571D01*
X115905295Y-85707596D01*
X115683610Y-85663500D01*
X115683605Y-85663500D01*
X115608758Y-85648612D01*
X115533911Y-85663500D01*
X114328278Y-85663500D01*
X114417092Y-85217000D01*
X114301839Y-84637582D01*
X113973625Y-84146375D01*
X113482418Y-83818161D01*
X113049256Y-83732000D01*
X112756744Y-83732000D01*
X112323582Y-83818161D01*
X111832375Y-84146375D01*
X111820184Y-84164619D01*
X111811157Y-84119235D01*
X111670809Y-83909191D01*
X111460765Y-83768843D01*
X111213000Y-83719560D01*
X109513000Y-83719560D01*
X109265235Y-83768843D01*
X109055191Y-83909191D01*
X108914843Y-84119235D01*
X108865560Y-84367000D01*
X108865560Y-85663500D01*
X107701211Y-85663500D01*
X107647280Y-85609569D01*
X107266874Y-85452000D01*
X106855126Y-85452000D01*
X106474720Y-85609569D01*
X106183569Y-85900720D01*
X106026000Y-86281126D01*
X106026000Y-86447198D01*
X104190725Y-88282474D01*
X104121201Y-88282474D01*
X104003770Y-88165043D01*
X103764877Y-88066090D01*
X103764877Y-88062296D01*
X103607308Y-87681890D01*
X103316157Y-87390739D01*
X103180847Y-87334692D01*
X103180847Y-86868558D01*
X103298278Y-86751127D01*
X103455847Y-86370721D01*
X103455847Y-85958973D01*
X103298278Y-85578567D01*
X103007127Y-85287416D01*
X102626721Y-85129847D01*
X102214973Y-85129847D01*
X101834567Y-85287416D01*
X101591171Y-85530812D01*
X101653592Y-85217000D01*
X101538339Y-84637582D01*
X101210125Y-84146375D01*
X100718918Y-83818161D01*
X100285756Y-83732000D01*
X99993244Y-83732000D01*
X99560082Y-83818161D01*
X99068875Y-84146375D01*
X99056684Y-84164619D01*
X99047657Y-84119235D01*
X98907309Y-83909191D01*
X98697265Y-83768843D01*
X98449500Y-83719560D01*
X96749500Y-83719560D01*
X96501735Y-83768843D01*
X96291691Y-83909191D01*
X96151343Y-84119235D01*
X96102060Y-84367000D01*
X96102060Y-86067000D01*
X96151343Y-86314765D01*
X96291691Y-86524809D01*
X96501735Y-86665157D01*
X96547119Y-86674184D01*
X96528875Y-86686375D01*
X96200661Y-87177582D01*
X96085408Y-87757000D01*
X96200661Y-88336418D01*
X96528875Y-88827625D01*
X96827261Y-89027000D01*
X96528875Y-89226375D01*
X96200661Y-89717582D01*
X96085408Y-90297000D01*
X96200661Y-90876418D01*
X96528875Y-91367625D01*
X96847978Y-91580843D01*
X96718142Y-91641817D01*
X96327855Y-92070076D01*
X96158024Y-92480110D01*
X96279345Y-92710000D01*
X97472500Y-92710000D01*
X97472500Y-92690000D01*
X97726500Y-92690000D01*
X97726500Y-92710000D01*
X97746500Y-92710000D01*
X97746500Y-92964000D01*
X97726500Y-92964000D01*
X97726500Y-94157819D01*
X97956392Y-94278486D01*
X98109500Y-94206582D01*
X98109501Y-101944060D01*
X96749500Y-101944060D01*
X96501735Y-101993343D01*
X96291691Y-102133691D01*
X96151343Y-102343735D01*
X96102060Y-102591500D01*
X96102060Y-104291500D01*
X96151343Y-104539265D01*
X96291691Y-104749309D01*
X96501735Y-104889657D01*
X96547119Y-104898684D01*
X96528875Y-104910875D01*
X96200661Y-105402082D01*
X96085408Y-105981500D01*
X96200661Y-106560918D01*
X96528875Y-107052125D01*
X96827261Y-107251500D01*
X96528875Y-107450875D01*
X96200661Y-107942082D01*
X96085408Y-108521500D01*
X96200661Y-109100918D01*
X96528875Y-109592125D01*
X96847978Y-109805343D01*
X96718142Y-109866317D01*
X96327855Y-110294576D01*
X96158024Y-110704610D01*
X96279345Y-110934500D01*
X97472500Y-110934500D01*
X97472500Y-110914500D01*
X97726500Y-110914500D01*
X97726500Y-110934500D01*
X97746500Y-110934500D01*
X97746500Y-111188500D01*
X97726500Y-111188500D01*
X97726500Y-112382319D01*
X97956392Y-112502986D01*
X98014501Y-112475696D01*
X98014502Y-117946060D01*
X96749500Y-117946060D01*
X96501735Y-117995343D01*
X96291691Y-118135691D01*
X96151343Y-118345735D01*
X96102060Y-118593500D01*
X96102060Y-120293500D01*
X96151343Y-120541265D01*
X96291691Y-120751309D01*
X96501735Y-120891657D01*
X96605208Y-120912239D01*
X96327855Y-121216576D01*
X96158024Y-121626610D01*
X96279345Y-121856500D01*
X97472500Y-121856500D01*
X97472500Y-121836500D01*
X97726500Y-121836500D01*
X97726500Y-121856500D01*
X97746500Y-121856500D01*
X97746500Y-122110500D01*
X97726500Y-122110500D01*
X97726500Y-122130500D01*
X97472500Y-122130500D01*
X97472500Y-122110500D01*
X96279345Y-122110500D01*
X96158024Y-122340390D01*
X96327855Y-122750424D01*
X96718142Y-123178683D01*
X96847978Y-123239657D01*
X96528875Y-123452875D01*
X96200661Y-123944082D01*
X96085408Y-124523500D01*
X96128962Y-124742460D01*
X95735344Y-125136078D01*
X95661451Y-125185452D01*
X95612077Y-125259345D01*
X95612075Y-125259347D01*
X95465847Y-125478192D01*
X95397162Y-125823501D01*
X83754157Y-125823501D01*
X83726212Y-123231266D01*
X83726212Y-111418390D01*
X96158024Y-111418390D01*
X96327855Y-111828424D01*
X96718142Y-112256683D01*
X97242608Y-112502986D01*
X97472500Y-112382319D01*
X97472500Y-111188500D01*
X96279345Y-111188500D01*
X96158024Y-111418390D01*
X83726212Y-111418390D01*
X83726212Y-93193890D01*
X96158024Y-93193890D01*
X96327855Y-93603924D01*
X96718142Y-94032183D01*
X97242608Y-94278486D01*
X97472500Y-94157819D01*
X97472500Y-92964000D01*
X96279345Y-92964000D01*
X96158024Y-93193890D01*
X83726212Y-93193890D01*
X83726212Y-81965306D01*
X83799394Y-76724397D01*
X83926305Y-73696379D01*
X88994712Y-73696379D01*
X89002597Y-74391357D01*
X89260143Y-75036901D01*
X89732815Y-75546448D01*
X90357232Y-75851671D01*
X91049662Y-75911642D01*
X91717257Y-75718319D01*
X92270497Y-75297626D01*
X92635196Y-74705974D01*
X92762450Y-74022700D01*
X92761961Y-73979639D01*
X92619238Y-73299428D01*
X92241211Y-72716203D01*
X91678569Y-72308170D01*
X91006760Y-72130043D01*
X90315868Y-72205708D01*
X89698537Y-72525018D01*
X89237546Y-73045158D01*
X88994712Y-73696379D01*
X83926305Y-73696379D01*
X83996021Y-72033000D01*
X170826560Y-72033000D01*
X170826560Y-75033000D01*
X170875843Y-75280765D01*
X171016191Y-75490809D01*
X171226235Y-75631157D01*
X171474000Y-75680440D01*
X174474000Y-75680440D01*
X174721765Y-75631157D01*
X174931809Y-75490809D01*
X175072157Y-75280765D01*
X175121440Y-75033000D01*
X175121440Y-73696379D01*
X176307212Y-73696379D01*
X176315097Y-74391357D01*
X176572643Y-75036901D01*
X177045315Y-75546448D01*
X177669732Y-75851671D01*
X178362162Y-75911642D01*
X179029757Y-75718319D01*
X179582997Y-75297626D01*
X179947696Y-74705974D01*
X180074950Y-74022700D01*
X180074461Y-73979639D01*
X179931738Y-73299428D01*
X179553711Y-72716203D01*
X178991069Y-72308170D01*
X178319260Y-72130043D01*
X177628368Y-72205708D01*
X177011037Y-72525018D01*
X176550046Y-73045158D01*
X176307212Y-73696379D01*
X175121440Y-73696379D01*
X175121440Y-72033000D01*
X175072157Y-71785235D01*
X174931809Y-71575191D01*
X174721765Y-71434843D01*
X174474000Y-71385560D01*
X171474000Y-71385560D01*
X171226235Y-71434843D01*
X171016191Y-71575191D01*
X170875843Y-71785235D01*
X170826560Y-72033000D01*
X83996021Y-72033000D01*
X84018717Y-71491510D01*
X84244027Y-68115000D01*
X156367560Y-68115000D01*
X156367560Y-70315000D01*
X156416843Y-70562765D01*
X156557191Y-70772809D01*
X156767235Y-70913157D01*
X157015000Y-70962440D01*
X159215000Y-70962440D01*
X159462765Y-70913157D01*
X159672809Y-70772809D01*
X159731671Y-70684717D01*
X159978037Y-70849334D01*
X160484120Y-70950000D01*
X160825880Y-70950000D01*
X161331963Y-70849334D01*
X161905865Y-70465865D01*
X162289334Y-69891963D01*
X162423990Y-69215000D01*
X162289334Y-68538037D01*
X161905865Y-67964135D01*
X161331963Y-67580666D01*
X160825880Y-67480000D01*
X160484120Y-67480000D01*
X159978037Y-67580666D01*
X159731671Y-67745283D01*
X159672809Y-67657191D01*
X159462765Y-67516843D01*
X159215000Y-67467560D01*
X157015000Y-67467560D01*
X156767235Y-67516843D01*
X156557191Y-67657191D01*
X156416843Y-67867235D01*
X156367560Y-68115000D01*
X84244027Y-68115000D01*
X84281430Y-67554491D01*
X84374456Y-67297212D01*
X89762088Y-67297212D01*
X89782362Y-67293179D01*
X90711154Y-67241252D01*
X90722628Y-67239843D01*
X90734185Y-67239601D01*
X90800283Y-67230782D01*
X91947684Y-67024332D01*
X91962633Y-67020605D01*
X91977863Y-67018247D01*
X92042213Y-67000763D01*
X93152230Y-66644375D01*
X93166558Y-66638702D01*
X93181338Y-66634352D01*
X93242811Y-66608512D01*
X94295942Y-66108449D01*
X94309396Y-66100930D01*
X94323469Y-66094664D01*
X94380985Y-66060920D01*
X95358729Y-65425965D01*
X95371070Y-65416733D01*
X95384190Y-65408661D01*
X95436738Y-65367607D01*
X96321916Y-64608918D01*
X96332926Y-64598136D01*
X96344866Y-64588398D01*
X96391522Y-64540755D01*
X97168583Y-63671659D01*
X97178068Y-63659518D01*
X97188617Y-63648285D01*
X97228562Y-63594889D01*
X97883853Y-62630657D01*
X97891648Y-62617371D01*
X97900620Y-62604839D01*
X97933152Y-62546629D01*
X98455162Y-61504201D01*
X98461135Y-61489992D01*
X98468366Y-61476392D01*
X98492914Y-61414391D01*
X98872470Y-60312081D01*
X98876510Y-60297212D01*
X98881881Y-60282769D01*
X98898013Y-60218066D01*
X99128447Y-59075242D01*
X99130485Y-59059970D01*
X99133899Y-59044942D01*
X99141332Y-58978674D01*
X99165478Y-58615129D01*
X104075962Y-58615129D01*
X104083847Y-59310107D01*
X104341393Y-59955651D01*
X104814065Y-60465198D01*
X105438482Y-60770421D01*
X106130912Y-60830392D01*
X106798507Y-60637069D01*
X107351747Y-60216376D01*
X107716446Y-59624724D01*
X107843700Y-58941450D01*
X107843211Y-58898389D01*
X107783777Y-58615129D01*
X161225962Y-58615129D01*
X161233847Y-59310107D01*
X161491393Y-59955651D01*
X161964065Y-60465198D01*
X162588482Y-60770421D01*
X163280912Y-60830392D01*
X163948507Y-60637069D01*
X164501747Y-60216376D01*
X164866446Y-59624724D01*
X164993700Y-58941450D01*
X164993211Y-58898389D01*
X164850488Y-58218178D01*
X164472461Y-57634953D01*
X163909819Y-57226920D01*
X163238010Y-57048793D01*
X162547118Y-57124458D01*
X161929787Y-57443768D01*
X161468796Y-57963908D01*
X161225962Y-58615129D01*
X107783777Y-58615129D01*
X107700488Y-58218178D01*
X107322461Y-57634953D01*
X106759819Y-57226920D01*
X106088010Y-57048793D01*
X105397118Y-57124458D01*
X104779787Y-57443768D01*
X104318796Y-57963908D01*
X104075962Y-58615129D01*
X99165478Y-58615129D01*
X99215425Y-57863154D01*
X99220212Y-57839088D01*
X99220212Y-52451456D01*
X99476369Y-52358836D01*
X104607720Y-52032827D01*
X109841894Y-51846820D01*
X113887134Y-51803212D01*
X155153094Y-51803212D01*
X160394003Y-51876394D01*
X160394003Y-51876394D01*
G37*
X160394003Y-51876394D02*
X165626890Y-52095717D01*
X169563909Y-52358430D01*
X169821189Y-52451456D01*
X169821188Y-57839087D01*
X169825221Y-57859360D01*
X169877148Y-58788154D01*
X169878557Y-58799628D01*
X169878799Y-58811185D01*
X169887618Y-58877283D01*
X170094068Y-60024684D01*
X170097795Y-60039633D01*
X170100153Y-60054863D01*
X170117637Y-60119213D01*
X170474025Y-61229230D01*
X170479698Y-61243558D01*
X170484048Y-61258338D01*
X170509888Y-61319811D01*
X171009951Y-62372942D01*
X171017470Y-62386396D01*
X171023736Y-62400469D01*
X171057480Y-62457985D01*
X171692435Y-63435729D01*
X171701667Y-63448070D01*
X171709739Y-63461190D01*
X171750793Y-63513738D01*
X172509482Y-64398916D01*
X172520264Y-64409926D01*
X172530002Y-64421866D01*
X172577645Y-64468522D01*
X173446741Y-65245583D01*
X173458882Y-65255068D01*
X173470115Y-65265617D01*
X173523511Y-65305562D01*
X174487743Y-65960853D01*
X174501029Y-65968648D01*
X174513561Y-65977620D01*
X174571771Y-66010152D01*
X175614199Y-66532162D01*
X175628408Y-66538135D01*
X175642008Y-66545366D01*
X175704009Y-66569914D01*
X176806319Y-66949470D01*
X176821188Y-66953510D01*
X176835631Y-66958881D01*
X176900334Y-66975013D01*
X178043158Y-67205447D01*
X178058430Y-67207485D01*
X178073458Y-67210899D01*
X178139720Y-67218331D01*
X178139725Y-67218332D01*
X178139726Y-67218332D01*
X179255246Y-67292425D01*
X179279312Y-67297212D01*
X180610908Y-67297212D01*
X180889683Y-67397166D01*
X180936071Y-67428162D01*
X181026047Y-67446059D01*
X181042925Y-67452111D01*
X181096915Y-67460156D01*
X181150466Y-67470808D01*
X181168400Y-67470808D01*
X181259133Y-67484328D01*
X181313259Y-67470808D01*
X183019527Y-67470808D01*
X183073653Y-67484328D01*
X183164385Y-67470808D01*
X183182319Y-67470808D01*
X183235869Y-67460156D01*
X183289860Y-67452111D01*
X183306738Y-67446059D01*
X183396714Y-67428162D01*
X183443103Y-67397166D01*
X183721875Y-67297212D01*
X184731698Y-67297212D01*
X184733493Y-67306637D01*
X184734845Y-67313848D01*
X184736074Y-67320885D01*
X184739520Y-67340938D01*
X184740995Y-67350226D01*
X184742202Y-67358068D01*
X184745240Y-67379675D01*
X184747146Y-67394923D01*
X184747485Y-67397672D01*
X184751625Y-67436121D01*
X184752396Y-67444472D01*
X184753831Y-67463128D01*
X185085573Y-72684720D01*
X185271580Y-77918894D01*
X185315189Y-81964227D01*
X185315188Y-123230094D01*
X185242006Y-128471004D01*
X185022683Y-133703890D01*
X184754151Y-137728111D01*
X184752396Y-137750928D01*
X184751625Y-137759279D01*
X184747485Y-137797728D01*
X184747146Y-137800477D01*
X184745240Y-137815725D01*
X184742202Y-137837332D01*
X184741022Y-137845003D01*
X184739520Y-137854462D01*
X184736077Y-137874498D01*
X184734845Y-137881552D01*
X184733538Y-137888525D01*
X184731698Y-137898188D01*
X183721875Y-137898188D01*
X183443103Y-137798234D01*
X183396714Y-137767238D01*
X183306738Y-137749341D01*
X183289860Y-137743289D01*
X183235869Y-137735244D01*
X183182319Y-137724592D01*
X183164385Y-137724592D01*
X183073653Y-137711072D01*
X183019527Y-137724592D01*
X181313259Y-137724592D01*
X181259133Y-137711072D01*
X181168400Y-137724592D01*
X181150466Y-137724592D01*
X181096915Y-137735244D01*
X181042925Y-137743289D01*
X181026047Y-137749341D01*
X180936071Y-137767238D01*
X180889683Y-137798234D01*
X180610908Y-137898188D01*
X179279312Y-137898188D01*
X179259038Y-137902221D01*
X178330245Y-137954148D01*
X178318771Y-137955557D01*
X178307214Y-137955799D01*
X178241117Y-137964618D01*
X177093716Y-138171068D01*
X177078765Y-138174796D01*
X177063538Y-138177153D01*
X176999187Y-138194637D01*
X175889170Y-138551025D01*
X175874842Y-138556698D01*
X175860062Y-138561048D01*
X175798589Y-138586888D01*
X174745458Y-139086951D01*
X174732007Y-139094468D01*
X174717930Y-139100736D01*
X174660431Y-139134472D01*
X174660416Y-139134480D01*
X174660415Y-139134481D01*
X173682671Y-139769435D01*
X173670334Y-139778665D01*
X173657209Y-139786739D01*
X173604662Y-139827794D01*
X172719484Y-140586482D01*
X172708475Y-140597263D01*
X172696534Y-140607002D01*
X172649878Y-140654645D01*
X171872817Y-141523740D01*
X171863328Y-141535886D01*
X171852783Y-141547115D01*
X171812838Y-141600511D01*
X171157547Y-142564743D01*
X171149752Y-142578029D01*
X171140780Y-142590561D01*
X171108248Y-142648771D01*
X170586239Y-143691199D01*
X170580269Y-143705401D01*
X170573034Y-143719008D01*
X170548486Y-143781009D01*
X170168930Y-144883319D01*
X170164890Y-144898188D01*
X170159519Y-144912631D01*
X170143387Y-144977334D01*
X169912953Y-146120159D01*
X169910915Y-146135429D01*
X169907501Y-146150458D01*
X169900068Y-146216726D01*
X169825975Y-147332253D01*
X169821189Y-147356312D01*
X169821188Y-152743944D01*
X169565031Y-152836564D01*
X164433679Y-153162573D01*
X159199506Y-153348580D01*
X155154266Y-153392188D01*
X113888306Y-153392188D01*
X108647396Y-153319006D01*
X103414510Y-153099683D01*
X99477491Y-152836970D01*
X99220212Y-152743944D01*
X99220212Y-147356312D01*
X99216179Y-147336038D01*
X99164252Y-146407245D01*
X99162843Y-146395771D01*
X99162601Y-146384214D01*
X99153782Y-146318117D01*
X99083523Y-145927629D01*
X104075962Y-145927629D01*
X104083847Y-146622607D01*
X104341393Y-147268151D01*
X104814065Y-147777698D01*
X105438482Y-148082921D01*
X106130912Y-148142892D01*
X106798507Y-147949569D01*
X107351747Y-147528876D01*
X107716446Y-146937224D01*
X107843700Y-146253950D01*
X107843211Y-146210889D01*
X107783777Y-145927629D01*
X161225962Y-145927629D01*
X161233847Y-146622607D01*
X161491393Y-147268151D01*
X161964065Y-147777698D01*
X162588482Y-148082921D01*
X163280912Y-148142892D01*
X163948507Y-147949569D01*
X164501747Y-147528876D01*
X164866446Y-146937224D01*
X164993700Y-146253950D01*
X164993211Y-146210889D01*
X164850488Y-145530678D01*
X164472461Y-144947453D01*
X163909819Y-144539420D01*
X163238010Y-144361293D01*
X162547118Y-144436958D01*
X161929787Y-144756268D01*
X161468796Y-145276408D01*
X161225962Y-145927629D01*
X107783777Y-145927629D01*
X107700488Y-145530678D01*
X107322461Y-144947453D01*
X106759819Y-144539420D01*
X106088010Y-144361293D01*
X105397118Y-144436958D01*
X104779787Y-144756268D01*
X104318796Y-145276408D01*
X104075962Y-145927629D01*
X99083523Y-145927629D01*
X98947332Y-145170716D01*
X98943604Y-145155765D01*
X98941247Y-145140538D01*
X98923763Y-145076187D01*
X98567375Y-143966170D01*
X98561702Y-143951842D01*
X98557352Y-143937062D01*
X98531512Y-143875589D01*
X98031449Y-142822458D01*
X98023932Y-142809007D01*
X98017664Y-142794930D01*
X97983919Y-142737415D01*
X97348965Y-141759671D01*
X97339735Y-141747334D01*
X97331661Y-141734209D01*
X97290606Y-141681662D01*
X96531918Y-140796484D01*
X96521137Y-140785475D01*
X96511398Y-140773534D01*
X96463755Y-140726878D01*
X95594660Y-139949817D01*
X95582514Y-139940328D01*
X95571285Y-139929783D01*
X95517889Y-139889838D01*
X94553657Y-139234547D01*
X94540371Y-139226752D01*
X94527839Y-139217780D01*
X94469629Y-139185248D01*
X93427201Y-138663239D01*
X93412999Y-138657269D01*
X93399392Y-138650034D01*
X93337391Y-138625486D01*
X92235081Y-138245930D01*
X92220212Y-138241890D01*
X92205769Y-138236519D01*
X92141078Y-138220390D01*
X92141067Y-138220387D01*
X92141064Y-138220387D01*
X90998241Y-137989953D01*
X90982971Y-137987915D01*
X90967942Y-137984501D01*
X90901680Y-137977069D01*
X90901675Y-137977068D01*
X90901674Y-137977068D01*
X89786154Y-137902975D01*
X89762088Y-137898188D01*
X84374456Y-137898188D01*
X84281836Y-137642031D01*
X83955827Y-132510679D01*
X83896683Y-130846379D01*
X88994712Y-130846379D01*
X89002597Y-131541357D01*
X89260143Y-132186901D01*
X89732815Y-132696448D01*
X90357232Y-133001671D01*
X91049662Y-133061642D01*
X91717257Y-132868319D01*
X92270497Y-132447626D01*
X92635196Y-131855974D01*
X92762450Y-131172700D01*
X92761961Y-131129639D01*
X92702527Y-130846379D01*
X176307212Y-130846379D01*
X176315097Y-131541357D01*
X176572643Y-132186901D01*
X177045315Y-132696448D01*
X177669732Y-133001671D01*
X178362162Y-133061642D01*
X179029757Y-132868319D01*
X179582997Y-132447626D01*
X179947696Y-131855974D01*
X180074950Y-131172700D01*
X180074461Y-131129639D01*
X179931738Y-130449428D01*
X179553711Y-129866203D01*
X178991069Y-129458170D01*
X178319260Y-129280043D01*
X177628368Y-129355708D01*
X177011037Y-129675018D01*
X176550046Y-130195158D01*
X176307212Y-130846379D01*
X92702527Y-130846379D01*
X92619238Y-130449428D01*
X92241211Y-129866203D01*
X91678569Y-129458170D01*
X91006760Y-129280043D01*
X90315868Y-129355708D01*
X89698537Y-129675018D01*
X89237546Y-130195158D01*
X88994712Y-130846379D01*
X83896683Y-130846379D01*
X83769820Y-127276506D01*
X83754157Y-125823501D01*
X95397162Y-125823501D01*
X95414500Y-125910666D01*
X95414499Y-127600340D01*
X95397162Y-127687501D01*
X95414499Y-127774662D01*
X95414499Y-127774665D01*
X95465847Y-128032810D01*
X95661450Y-128325550D01*
X95735346Y-128374926D01*
X96288076Y-128927657D01*
X96337450Y-129001550D01*
X96411343Y-129050924D01*
X96411344Y-129050925D01*
X96494596Y-129106552D01*
X96630189Y-129197153D01*
X96888334Y-129248501D01*
X96888338Y-129248501D01*
X96975498Y-129265838D01*
X97062658Y-129248501D01*
X105297257Y-129248501D01*
X105384418Y-129265838D01*
X105471579Y-129248501D01*
X105471583Y-129248501D01*
X105729728Y-129197153D01*
X106022467Y-129001550D01*
X106071843Y-128927654D01*
X108241499Y-126757998D01*
X108241499Y-127600340D01*
X108224162Y-127687501D01*
X108241499Y-127774662D01*
X108241499Y-127774665D01*
X108292847Y-128032810D01*
X108488450Y-128325550D01*
X108562346Y-128374926D01*
X109115076Y-128927657D01*
X109164450Y-129001550D01*
X109238343Y-129050924D01*
X109238344Y-129050925D01*
X109321596Y-129106552D01*
X109457189Y-129197153D01*
X109715334Y-129248501D01*
X109715338Y-129248501D01*
X109802498Y-129265838D01*
X109889658Y-129248501D01*
X132499340Y-129248501D01*
X132586501Y-129265838D01*
X132673662Y-129248501D01*
X132673666Y-129248501D01*
X132931811Y-129197153D01*
X133224550Y-129001550D01*
X133273926Y-128927654D01*
X134868802Y-127332778D01*
X160108000Y-127332778D01*
X160108000Y-127983222D01*
X160356914Y-128584153D01*
X160816847Y-129044086D01*
X161417778Y-129293000D01*
X162068222Y-129293000D01*
X162669153Y-129044086D01*
X162902707Y-128810532D01*
X165270073Y-128810532D01*
X165368736Y-129077387D01*
X165978461Y-129303908D01*
X166628460Y-129279856D01*
X167117264Y-129077387D01*
X167215927Y-128810532D01*
X166243000Y-127837605D01*
X165270073Y-128810532D01*
X162902707Y-128810532D01*
X163129086Y-128584153D01*
X163378000Y-127983222D01*
X163378000Y-127393461D01*
X164597092Y-127393461D01*
X164621144Y-128043460D01*
X164823613Y-128532264D01*
X165090468Y-128630927D01*
X166063395Y-127658000D01*
X166422605Y-127658000D01*
X167395532Y-128630927D01*
X167662387Y-128532264D01*
X167888908Y-127922539D01*
X167864856Y-127272540D01*
X167662387Y-126783736D01*
X167395532Y-126685073D01*
X166422605Y-127658000D01*
X166063395Y-127658000D01*
X165090468Y-126685073D01*
X164823613Y-126783736D01*
X164597092Y-127393461D01*
X163378000Y-127393461D01*
X163378000Y-127332778D01*
X163129086Y-126731847D01*
X162902707Y-126505468D01*
X165270073Y-126505468D01*
X166243000Y-127478395D01*
X167215927Y-126505468D01*
X167117264Y-126238613D01*
X166507539Y-126012092D01*
X165857540Y-126036144D01*
X165368736Y-126238613D01*
X165270073Y-126505468D01*
X162902707Y-126505468D01*
X162669153Y-126271914D01*
X162068222Y-126023000D01*
X161417778Y-126023000D01*
X160816847Y-126271914D01*
X160356914Y-126731847D01*
X160108000Y-127332778D01*
X134868802Y-127332778D01*
X139864157Y-122337424D01*
X139938050Y-122288050D01*
X140024949Y-122157998D01*
X140133653Y-121995311D01*
X140146069Y-121932889D01*
X140185001Y-121737166D01*
X140185001Y-121737162D01*
X140202338Y-121650001D01*
X140185001Y-121562840D01*
X140185001Y-119156382D01*
X140286280Y-119114431D01*
X140577431Y-118823280D01*
X140735000Y-118442874D01*
X140735000Y-118031126D01*
X140577431Y-117650720D01*
X140286280Y-117359569D01*
X139924148Y-117209569D01*
X135806969Y-113092391D01*
X135754340Y-112965333D01*
X135754340Y-103476161D01*
X136270954Y-103476161D01*
X136270954Y-103887909D01*
X136428523Y-104268315D01*
X136545955Y-104385747D01*
X136545954Y-106133091D01*
X136531066Y-106207938D01*
X136545954Y-106282785D01*
X136545954Y-106282789D01*
X136590050Y-106504474D01*
X136758025Y-106755867D01*
X136821484Y-106798269D01*
X137755775Y-107732561D01*
X137755775Y-107898633D01*
X137913344Y-108279039D01*
X138204495Y-108570190D01*
X138584901Y-108727759D01*
X138996649Y-108727759D01*
X139325830Y-108591408D01*
X139584486Y-108698547D01*
X139996234Y-108698547D01*
X140286525Y-108578305D01*
X140640281Y-108724835D01*
X141052029Y-108724835D01*
X141250300Y-108642708D01*
X141373201Y-108765609D01*
X141582348Y-108852240D01*
X139978859Y-110455730D01*
X139915400Y-110498132D01*
X139747425Y-110749525D01*
X139703329Y-110971210D01*
X139703329Y-110971214D01*
X139688441Y-111046061D01*
X139703329Y-111120908D01*
X139703330Y-113332820D01*
X139585898Y-113450252D01*
X139428329Y-113830658D01*
X139428329Y-114242406D01*
X139585898Y-114622812D01*
X139877049Y-114913963D01*
X140257455Y-115071532D01*
X140331242Y-115071532D01*
X140391044Y-115215907D01*
X140682195Y-115507058D01*
X141062601Y-115664627D01*
X141332000Y-115664627D01*
X141332000Y-115775870D01*
X141489569Y-116156276D01*
X141780720Y-116447427D01*
X142161126Y-116604996D01*
X142572874Y-116604996D01*
X142953280Y-116447427D01*
X143244431Y-116156276D01*
X143402000Y-115775870D01*
X143402000Y-115771642D01*
X143461542Y-115682531D01*
X145064560Y-114079514D01*
X145336126Y-114192000D01*
X145747874Y-114192000D01*
X146128280Y-114034431D01*
X146419431Y-113743280D01*
X146457560Y-113651228D01*
X146457560Y-115023000D01*
X146506843Y-115270765D01*
X146647191Y-115480809D01*
X146857235Y-115621157D01*
X146945001Y-115638615D01*
X146945001Y-115673525D01*
X146925214Y-115773000D01*
X146945001Y-115872476D01*
X146962242Y-115959152D01*
X147003602Y-116167082D01*
X147170482Y-116416837D01*
X147170485Y-116416840D01*
X147226832Y-116501169D01*
X147311161Y-116557516D01*
X154580493Y-123826848D01*
X154636842Y-123911180D01*
X154970929Y-124134410D01*
X155265535Y-124193011D01*
X155265539Y-124193011D01*
X155365010Y-124212797D01*
X155464481Y-124193011D01*
X167069483Y-124193011D01*
X167168954Y-124212797D01*
X167268425Y-124193011D01*
X167268430Y-124193011D01*
X167563036Y-124134410D01*
X167897123Y-123911180D01*
X167953472Y-123826848D01*
X180602841Y-111177480D01*
X180687169Y-111121134D01*
X180743516Y-111036805D01*
X180743518Y-111036803D01*
X180910399Y-110787048D01*
X180929275Y-110692153D01*
X180969000Y-110492441D01*
X180969000Y-110492437D01*
X180988786Y-110392965D01*
X180969000Y-110293493D01*
X180969000Y-88364471D01*
X180988786Y-88265000D01*
X180969000Y-88165529D01*
X180969000Y-88165524D01*
X180910399Y-87870918D01*
X180836054Y-87759653D01*
X180743518Y-87621162D01*
X180743516Y-87621160D01*
X180687169Y-87536831D01*
X180602840Y-87480484D01*
X179981517Y-86859162D01*
X179925169Y-86774831D01*
X179591082Y-86551601D01*
X179296476Y-86493000D01*
X179296471Y-86493000D01*
X179197000Y-86473214D01*
X179097529Y-86493000D01*
X175232470Y-86493000D01*
X175132999Y-86473214D01*
X175033528Y-86493000D01*
X175033524Y-86493000D01*
X174738918Y-86551601D01*
X174404831Y-86774831D01*
X174348482Y-86859163D01*
X172776645Y-88431000D01*
X172573744Y-88431000D01*
X172140582Y-88517161D01*
X171649375Y-88845375D01*
X171321161Y-89336582D01*
X171205908Y-89916000D01*
X171321161Y-90495418D01*
X171649375Y-90986625D01*
X171667619Y-90998816D01*
X171622235Y-91007843D01*
X171412191Y-91148191D01*
X171271843Y-91358235D01*
X171222560Y-91606000D01*
X171222560Y-93306000D01*
X171271843Y-93553765D01*
X171412191Y-93763809D01*
X171622235Y-93904157D01*
X171870000Y-93953440D01*
X173570000Y-93953440D01*
X173817765Y-93904157D01*
X174027809Y-93763809D01*
X174168157Y-93553765D01*
X174177184Y-93508381D01*
X174189375Y-93526625D01*
X174500287Y-93734370D01*
X174544097Y-93954618D01*
X174712072Y-94206010D01*
X174775528Y-94248410D01*
X175924732Y-95397616D01*
X175924733Y-99475431D01*
X171194000Y-94744699D01*
X171194000Y-89228846D01*
X171208888Y-89153999D01*
X171194000Y-89079152D01*
X171194000Y-89079148D01*
X171149904Y-88857463D01*
X171075385Y-88745937D01*
X171024329Y-88669526D01*
X171024327Y-88669524D01*
X170981929Y-88606071D01*
X170918476Y-88563673D01*
X167283502Y-84928701D01*
X167283502Y-84689844D01*
X167298390Y-84614997D01*
X167283502Y-84540150D01*
X167283502Y-84540146D01*
X167239406Y-84318461D01*
X167071431Y-84067069D01*
X167007975Y-84024669D01*
X162520304Y-79536999D01*
X163107698Y-79536999D01*
X171050000Y-87479303D01*
X171050000Y-87645374D01*
X171207569Y-88025780D01*
X171498720Y-88316931D01*
X171879126Y-88474500D01*
X172290874Y-88474500D01*
X172671280Y-88316931D01*
X172962431Y-88025780D01*
X173120000Y-87645374D01*
X173120000Y-87233626D01*
X172962431Y-86853220D01*
X172671280Y-86562069D01*
X172290874Y-86404500D01*
X172124803Y-86404500D01*
X164012830Y-78292529D01*
X163970428Y-78229070D01*
X163909445Y-78188322D01*
X170839000Y-78188322D01*
X170839000Y-79037678D01*
X171164034Y-79822380D01*
X171764620Y-80422966D01*
X172549322Y-80748000D01*
X173398678Y-80748000D01*
X174183380Y-80422966D01*
X174783966Y-79822380D01*
X175109000Y-79037678D01*
X175109000Y-78188322D01*
X174783966Y-77403620D01*
X174183380Y-76803034D01*
X173398678Y-76478000D01*
X172549322Y-76478000D01*
X171764620Y-76803034D01*
X171164034Y-77403620D01*
X170839000Y-78188322D01*
X163909445Y-78188322D01*
X163719036Y-78061095D01*
X163497351Y-78016999D01*
X163497346Y-78016999D01*
X163422499Y-78002111D01*
X163347652Y-78016999D01*
X160508847Y-78016999D01*
X160433999Y-78002111D01*
X160359151Y-78016999D01*
X160359147Y-78016999D01*
X160137462Y-78061095D01*
X159886070Y-78229070D01*
X159843668Y-78292529D01*
X159572527Y-78563670D01*
X159509071Y-78606070D01*
X159466671Y-78669526D01*
X159466670Y-78669527D01*
X159341096Y-78857462D01*
X159282111Y-79153999D01*
X159297000Y-79228850D01*
X159296999Y-80724846D01*
X159282111Y-80799693D01*
X159296999Y-80874540D01*
X159296999Y-80874544D01*
X159341095Y-81096229D01*
X159509070Y-81347622D01*
X159572529Y-81390024D01*
X160525933Y-82343429D01*
X160525933Y-82509501D01*
X160683502Y-82889907D01*
X160800933Y-83007338D01*
X160800933Y-91943358D01*
X160770431Y-91869719D01*
X160479280Y-91578568D01*
X160098874Y-91420999D01*
X159687126Y-91420999D01*
X159536832Y-91483253D01*
X154963688Y-86910110D01*
X155053670Y-86692874D01*
X155053670Y-86281126D01*
X154896101Y-85900720D01*
X154604950Y-85609569D01*
X154224544Y-85452000D01*
X154213316Y-85452000D01*
X154328660Y-85173534D01*
X154328660Y-84761786D01*
X154171091Y-84381380D01*
X153879940Y-84090229D01*
X153499534Y-83932660D01*
X153414000Y-83932660D01*
X153414000Y-83634711D01*
X153531431Y-83517280D01*
X153689000Y-83136874D01*
X153689000Y-82725126D01*
X153531431Y-82344720D01*
X153240280Y-82053569D01*
X152859874Y-81896000D01*
X152448126Y-81896000D01*
X152067720Y-82053569D01*
X151776569Y-82344720D01*
X151619000Y-82725126D01*
X151619000Y-83136874D01*
X151776569Y-83517280D01*
X151894000Y-83634711D01*
X151894000Y-84253153D01*
X151879112Y-84328000D01*
X151894000Y-84402847D01*
X151894000Y-84402851D01*
X151938096Y-84624536D01*
X152106071Y-84875929D01*
X152169530Y-84918331D01*
X152258660Y-85007461D01*
X152258660Y-85173534D01*
X152416229Y-85553940D01*
X152707380Y-85845091D01*
X153087786Y-86002660D01*
X153099014Y-86002660D01*
X153020994Y-86191017D01*
X152769874Y-86087000D01*
X152358126Y-86087000D01*
X151977720Y-86244569D01*
X151686569Y-86535720D01*
X151529000Y-86916126D01*
X151529000Y-87327874D01*
X151686569Y-87708280D01*
X151977720Y-87999431D01*
X152358126Y-88157000D01*
X152769874Y-88157000D01*
X153132007Y-88007000D01*
X153557422Y-88007000D01*
X158693844Y-93143423D01*
X158912689Y-93289651D01*
X159257999Y-93358336D01*
X159331536Y-93343709D01*
X159687126Y-93490999D01*
X160098874Y-93490999D01*
X160479280Y-93333430D01*
X160770431Y-93042279D01*
X160800933Y-92968639D01*
X160800934Y-106761531D01*
X160786045Y-106836383D01*
X160800934Y-106911235D01*
X160818619Y-107000146D01*
X160763301Y-107055464D01*
X158569278Y-107055464D01*
X157465572Y-105951759D01*
X157578369Y-105905037D01*
X157869520Y-105613886D01*
X158027089Y-105233480D01*
X158027089Y-104821732D01*
X157897159Y-104508052D01*
X158581472Y-103823740D01*
X158644928Y-103781340D01*
X158699417Y-103699791D01*
X158812903Y-103529949D01*
X158837373Y-103406930D01*
X158856999Y-103308263D01*
X158856999Y-103308259D01*
X158871887Y-103233411D01*
X158856999Y-103158563D01*
X158856999Y-101324711D01*
X158974430Y-101207280D01*
X159131999Y-100826874D01*
X159131999Y-100415126D01*
X158974430Y-100034720D01*
X158683279Y-99743569D01*
X158302873Y-99586000D01*
X158007000Y-99586000D01*
X158007000Y-99489126D01*
X157849431Y-99108720D01*
X157558280Y-98817569D01*
X157177874Y-98660000D01*
X156766126Y-98660000D01*
X156385720Y-98817569D01*
X156094569Y-99108720D01*
X155937000Y-99489126D01*
X155937000Y-99686991D01*
X155877720Y-99711546D01*
X155586569Y-100002697D01*
X155429000Y-100383103D01*
X155429000Y-100794851D01*
X155586569Y-101175257D01*
X155704000Y-101292688D01*
X155704001Y-101817305D01*
X155586565Y-101934741D01*
X155428996Y-102315147D01*
X155428996Y-102726895D01*
X155586565Y-103107301D01*
X155877716Y-103398452D01*
X156120275Y-103498923D01*
X156043199Y-103576000D01*
X155877126Y-103576000D01*
X155496720Y-103733569D01*
X155372051Y-103858238D01*
X154640968Y-103127154D01*
X154809912Y-102958210D01*
X154967481Y-102577804D01*
X154967481Y-102166056D01*
X154809912Y-101785650D01*
X154518761Y-101494499D01*
X154138355Y-101336930D01*
X153726607Y-101336930D01*
X153709089Y-101344186D01*
X153844684Y-101016831D01*
X153844684Y-100605083D01*
X153687115Y-100224677D01*
X153395964Y-99933526D01*
X153015558Y-99775957D01*
X152603810Y-99775957D01*
X152223404Y-99933526D01*
X152105973Y-100050957D01*
X148548039Y-100050957D01*
X148473192Y-100036069D01*
X148398345Y-100050957D01*
X148398341Y-100050957D01*
X148176656Y-100095053D01*
X147925264Y-100263028D01*
X147882864Y-100326484D01*
X147572895Y-100636453D01*
X147406823Y-100636453D01*
X147026417Y-100794022D01*
X146735266Y-101085173D01*
X146577697Y-101465579D01*
X146577697Y-101877327D01*
X146735266Y-102257733D01*
X147026417Y-102548884D01*
X147406823Y-102706453D01*
X147818571Y-102706453D01*
X148198977Y-102548884D01*
X148490128Y-102257733D01*
X148647697Y-101877327D01*
X148647697Y-101711255D01*
X148787995Y-101570957D01*
X150535239Y-101570957D01*
X149756530Y-102349667D01*
X149693071Y-102392069D01*
X149525096Y-102643462D01*
X149481000Y-102865147D01*
X149481000Y-102865151D01*
X149466112Y-102939998D01*
X149481000Y-103014845D01*
X149481001Y-109074000D01*
X149273126Y-109074000D01*
X148892720Y-109231569D01*
X148775289Y-109349000D01*
X147702831Y-109349000D01*
X147555340Y-109201509D01*
X147174934Y-109043940D01*
X146763186Y-109043940D01*
X146382780Y-109201509D01*
X146091629Y-109492660D01*
X145934060Y-109873066D01*
X145934060Y-110284814D01*
X146091629Y-110665220D01*
X146382780Y-110956371D01*
X146763186Y-111113940D01*
X147174934Y-111113940D01*
X147555340Y-110956371D01*
X147642711Y-110869000D01*
X148775289Y-110869000D01*
X148892720Y-110986431D01*
X149206000Y-111116196D01*
X149206000Y-111330874D01*
X149363569Y-111711280D01*
X149654720Y-112002431D01*
X150035126Y-112160000D01*
X150370000Y-112160000D01*
X150370000Y-112193153D01*
X150355112Y-112268000D01*
X150370000Y-112342847D01*
X150370000Y-112342851D01*
X150414096Y-112564536D01*
X150496592Y-112688000D01*
X150348744Y-112688000D01*
X149915582Y-112774161D01*
X149424375Y-113102375D01*
X149412184Y-113120619D01*
X149403157Y-113075235D01*
X149262809Y-112865191D01*
X149052765Y-112724843D01*
X148805000Y-112675560D01*
X147105000Y-112675560D01*
X146857235Y-112724843D01*
X146647191Y-112865191D01*
X146577000Y-112970238D01*
X146577000Y-112951126D01*
X146419431Y-112570720D01*
X146128280Y-112279569D01*
X145747874Y-112122000D01*
X145336126Y-112122000D01*
X145011922Y-112256289D01*
X144780000Y-112210158D01*
X144434690Y-112278843D01*
X144215845Y-112425071D01*
X142438041Y-114202876D01*
X142428474Y-114154782D01*
X142428474Y-110792127D01*
X146793668Y-106426935D01*
X146857121Y-106384537D01*
X146899519Y-106321084D01*
X146899521Y-106321082D01*
X147005207Y-106162911D01*
X147025096Y-106133145D01*
X147069192Y-105911460D01*
X147069192Y-105911456D01*
X147084080Y-105836609D01*
X147069192Y-105761762D01*
X147069192Y-104849942D01*
X147186623Y-104732511D01*
X147344192Y-104352105D01*
X147344192Y-103940357D01*
X147186623Y-103559951D01*
X146895472Y-103268800D01*
X146704000Y-103189490D01*
X146704000Y-103172126D01*
X146546431Y-102791720D01*
X146255280Y-102500569D01*
X145874874Y-102343000D01*
X145463126Y-102343000D01*
X145082720Y-102500569D01*
X144791569Y-102791720D01*
X144634000Y-103172126D01*
X144634000Y-103360383D01*
X144553097Y-103481463D01*
X144509001Y-103703148D01*
X144509001Y-103703152D01*
X144494113Y-103777999D01*
X144509001Y-103852846D01*
X144509002Y-105925586D01*
X143150930Y-107283658D01*
X143150930Y-104928529D01*
X143268361Y-104811098D01*
X143425930Y-104430692D01*
X143425930Y-104018944D01*
X143268361Y-103638538D01*
X142977210Y-103347387D01*
X142596804Y-103189818D01*
X142185056Y-103189818D01*
X141804650Y-103347387D01*
X141513499Y-103638538D01*
X141355930Y-104018944D01*
X141355930Y-104430692D01*
X141513499Y-104811098D01*
X141630930Y-104928529D01*
X141630931Y-106903992D01*
X141592363Y-106919967D01*
X141562059Y-106767618D01*
X141394084Y-106516226D01*
X141330628Y-106473826D01*
X140206000Y-105349199D01*
X140206000Y-104151709D01*
X140323431Y-104034278D01*
X140481000Y-103653872D01*
X140481000Y-103242124D01*
X140323431Y-102861718D01*
X140032280Y-102570567D01*
X139651874Y-102412998D01*
X139240126Y-102412998D01*
X138859720Y-102570567D01*
X138568569Y-102861718D01*
X138452676Y-103141510D01*
X138238998Y-103230018D01*
X138183385Y-103095755D01*
X137892234Y-102804604D01*
X137511828Y-102647035D01*
X137100080Y-102647035D01*
X136719674Y-102804604D01*
X136428523Y-103095755D01*
X136270954Y-103476161D01*
X135754340Y-103476161D01*
X135754340Y-100692445D01*
X135845496Y-100472374D01*
X135845496Y-100060626D01*
X135687927Y-99680220D01*
X135396776Y-99389069D01*
X135016370Y-99231500D01*
X134604622Y-99231500D01*
X134224216Y-99389069D01*
X133933065Y-99680220D01*
X133775496Y-100060626D01*
X133775496Y-100472374D01*
X133933065Y-100852780D01*
X133984341Y-100904056D01*
X133984340Y-112965333D01*
X133834340Y-113327466D01*
X133834340Y-113398315D01*
X133793698Y-113357673D01*
X133560309Y-113261000D01*
X132569750Y-113261000D01*
X132411000Y-113419750D01*
X132411000Y-113674415D01*
X132332393Y-113706975D01*
X132324892Y-113826500D01*
X132285000Y-113866392D01*
X132245108Y-113826500D01*
X132237607Y-113706975D01*
X132157000Y-113682186D01*
X132157000Y-113419750D01*
X131998250Y-113261000D01*
X131007691Y-113261000D01*
X130774302Y-113357673D01*
X130595673Y-113536301D01*
X130499000Y-113769690D01*
X130499000Y-114760250D01*
X130657750Y-114919000D01*
X130913001Y-114919000D01*
X130945975Y-114998607D01*
X131065500Y-115006108D01*
X131105392Y-115046000D01*
X131065500Y-115085892D01*
X130945975Y-115093393D01*
X130921493Y-115173000D01*
X130657750Y-115173000D01*
X130499000Y-115331750D01*
X130499000Y-116322310D01*
X130595673Y-116555699D01*
X130774302Y-116734327D01*
X131007691Y-116831000D01*
X131998250Y-116831000D01*
X132157000Y-116672250D01*
X132157000Y-116418414D01*
X132237607Y-116385025D01*
X132245108Y-116265500D01*
X132285000Y-116225608D01*
X132324892Y-116265500D01*
X132332393Y-116385025D01*
X132411000Y-116409199D01*
X132411000Y-116672250D01*
X132569750Y-116831000D01*
X133560309Y-116831000D01*
X133793698Y-116734327D01*
X133972327Y-116555699D01*
X134069000Y-116322310D01*
X134069000Y-115331750D01*
X133910250Y-115173000D01*
X133656999Y-115173000D01*
X133624025Y-115093393D01*
X133504500Y-115085892D01*
X133464608Y-115046000D01*
X133504500Y-115006108D01*
X133624025Y-114998607D01*
X133648507Y-114919000D01*
X133910250Y-114919000D01*
X134069000Y-114760250D01*
X134069000Y-114196711D01*
X134283060Y-114410771D01*
X134663466Y-114568340D01*
X134779762Y-114568340D01*
X138481074Y-118269653D01*
X138466349Y-118291690D01*
X138415001Y-118549835D01*
X138415001Y-118549838D01*
X138397664Y-118636999D01*
X138415001Y-118724160D01*
X138415002Y-121283421D01*
X134325681Y-125372743D01*
X134039739Y-124682418D01*
X133720970Y-124522635D01*
X132386605Y-125857000D01*
X132400748Y-125871143D01*
X132221143Y-126050748D01*
X132207000Y-126036605D01*
X130872635Y-127370970D01*
X130926535Y-127478501D01*
X129250272Y-127478501D01*
X129274440Y-127357000D01*
X129274440Y-125473187D01*
X130064277Y-125473187D01*
X130080503Y-126322387D01*
X130374261Y-127031582D01*
X130693030Y-127191365D01*
X132027395Y-125857000D01*
X130693030Y-124522635D01*
X130374261Y-124682418D01*
X130064277Y-125473187D01*
X129274440Y-125473187D01*
X129274440Y-124357000D01*
X129271662Y-124343030D01*
X130872635Y-124343030D01*
X132207000Y-125677395D01*
X133541365Y-124343030D01*
X133381582Y-124024261D01*
X132590813Y-123714277D01*
X131741613Y-123730503D01*
X131032418Y-124024261D01*
X130872635Y-124343030D01*
X129271662Y-124343030D01*
X129225157Y-124109235D01*
X129084809Y-123899191D01*
X128874765Y-123758843D01*
X128627000Y-123709560D01*
X128012000Y-123709560D01*
X128012000Y-118424007D01*
X128162000Y-118061874D01*
X128162000Y-117650126D01*
X128004431Y-117269720D01*
X127713280Y-116978569D01*
X127332874Y-116821000D01*
X126921126Y-116821000D01*
X126540720Y-116978569D01*
X126249569Y-117269720D01*
X126092000Y-117650126D01*
X126092000Y-118061874D01*
X126242001Y-118424009D01*
X126242000Y-123709560D01*
X125627000Y-123709560D01*
X125379235Y-123758843D01*
X125169191Y-123899191D01*
X125028843Y-124109235D01*
X124979560Y-124357000D01*
X124979560Y-127357000D01*
X125003728Y-127478501D01*
X114398043Y-127478501D01*
X114480592Y-127063500D01*
X114365339Y-126484082D01*
X114037125Y-125992875D01*
X113738739Y-125793500D01*
X114037125Y-125594125D01*
X114365339Y-125102918D01*
X114480592Y-124523500D01*
X114365339Y-123944082D01*
X114037125Y-123452875D01*
X113738739Y-123253500D01*
X114037125Y-123054125D01*
X114365339Y-122562918D01*
X114480592Y-121983500D01*
X114365339Y-121404082D01*
X114037125Y-120912875D01*
X113738739Y-120713500D01*
X114037125Y-120514125D01*
X114365339Y-120022918D01*
X114480592Y-119443500D01*
X114365339Y-118864082D01*
X114037125Y-118372875D01*
X113545918Y-118044661D01*
X113112756Y-117958500D01*
X112820244Y-117958500D01*
X112387082Y-118044661D01*
X112361501Y-118061754D01*
X112361501Y-112976526D01*
X122155000Y-112976526D01*
X122155000Y-113388274D01*
X122312569Y-113768680D01*
X122603720Y-114059831D01*
X122984126Y-114217400D01*
X123395874Y-114217400D01*
X123758007Y-114067400D01*
X124245822Y-114067400D01*
X124448569Y-114270148D01*
X124598569Y-114632280D01*
X124889720Y-114923431D01*
X125270126Y-115081000D01*
X125681874Y-115081000D01*
X126062280Y-114923431D01*
X126353431Y-114632280D01*
X126511000Y-114251874D01*
X126511000Y-113840126D01*
X126353431Y-113459720D01*
X126062280Y-113168569D01*
X125700148Y-113018569D01*
X125299825Y-112618247D01*
X125250449Y-112544351D01*
X124957710Y-112348748D01*
X124699565Y-112297400D01*
X124699561Y-112297400D01*
X124612400Y-112280063D01*
X124525239Y-112297400D01*
X123758007Y-112297400D01*
X123395874Y-112147400D01*
X122984126Y-112147400D01*
X122603720Y-112304969D01*
X122312569Y-112596120D01*
X122155000Y-112976526D01*
X112361501Y-112976526D01*
X112361501Y-112443246D01*
X112387082Y-112460339D01*
X112820244Y-112546500D01*
X113112756Y-112546500D01*
X113545918Y-112460339D01*
X114037125Y-112132125D01*
X114365339Y-111640918D01*
X114480592Y-111061500D01*
X114365339Y-110482082D01*
X114037125Y-109990875D01*
X113738739Y-109791500D01*
X114037125Y-109592125D01*
X114365339Y-109100918D01*
X114402198Y-108915615D01*
X114572667Y-109086084D01*
X114953073Y-109243653D01*
X115354721Y-109243653D01*
X115357056Y-109249290D01*
X115648207Y-109540441D01*
X116028613Y-109698010D01*
X116440361Y-109698010D01*
X116820767Y-109540441D01*
X117111918Y-109249290D01*
X117269487Y-108868884D01*
X117269487Y-108457136D01*
X117237175Y-108379126D01*
X119488000Y-108379126D01*
X119488000Y-108790874D01*
X119638000Y-109153008D01*
X119638001Y-110008713D01*
X119513400Y-110309526D01*
X119513400Y-110721274D01*
X119670969Y-111101680D01*
X119962120Y-111392831D01*
X120342526Y-111550400D01*
X120754274Y-111550400D01*
X121134680Y-111392831D01*
X121425831Y-111101680D01*
X121583400Y-110721274D01*
X121583400Y-110309526D01*
X121425831Y-109929120D01*
X121408000Y-109911289D01*
X121408000Y-109153007D01*
X121558000Y-108790874D01*
X121558000Y-108379126D01*
X121400431Y-107998720D01*
X121109280Y-107707569D01*
X120728874Y-107550000D01*
X120317126Y-107550000D01*
X119936720Y-107707569D01*
X119645569Y-107998720D01*
X119488000Y-108379126D01*
X117237175Y-108379126D01*
X117111918Y-108076730D01*
X116994487Y-107959299D01*
X116994487Y-106095597D01*
X117009375Y-106020749D01*
X116994487Y-105945901D01*
X116994487Y-105945897D01*
X116950391Y-105724212D01*
X116782416Y-105472820D01*
X116718960Y-105430420D01*
X116671811Y-105383271D01*
X116671811Y-105217199D01*
X116514242Y-104836793D01*
X116223091Y-104545642D01*
X115842685Y-104388073D01*
X115430937Y-104388073D01*
X115050531Y-104545642D01*
X114759380Y-104836793D01*
X114601811Y-105217199D01*
X114601811Y-105628947D01*
X114675518Y-105806891D01*
X114609242Y-105873167D01*
X114451673Y-106253573D01*
X114451673Y-106665321D01*
X114609242Y-107045727D01*
X114726673Y-107163158D01*
X114726674Y-107267431D01*
X114572667Y-107331222D01*
X114281516Y-107622373D01*
X114231844Y-107742292D01*
X114037125Y-107450875D01*
X113738739Y-107251500D01*
X114037125Y-107052125D01*
X114365339Y-106560918D01*
X114480592Y-105981500D01*
X114365339Y-105402082D01*
X114037125Y-104910875D01*
X113738739Y-104711500D01*
X114037125Y-104512125D01*
X114365339Y-104020918D01*
X114480592Y-103441500D01*
X114365339Y-102862082D01*
X114037125Y-102370875D01*
X113545918Y-102042661D01*
X113112756Y-101956500D01*
X112820244Y-101956500D01*
X112393000Y-102041484D01*
X112393000Y-94249647D01*
X112756744Y-94322000D01*
X113049256Y-94322000D01*
X113482418Y-94235839D01*
X113973625Y-93907625D01*
X114301839Y-93416418D01*
X114417092Y-92837000D01*
X114301839Y-92257582D01*
X113973625Y-91766375D01*
X113675239Y-91567000D01*
X113973625Y-91367625D01*
X114301839Y-90876418D01*
X114417092Y-90297000D01*
X114301839Y-89717582D01*
X113973625Y-89226375D01*
X113675239Y-89027000D01*
X113973625Y-88827625D01*
X114301839Y-88336418D01*
X114417092Y-87757000D01*
X114303016Y-87183500D01*
X115293957Y-87183500D01*
X115573572Y-87463115D01*
X115402241Y-87634446D01*
X115338782Y-87676848D01*
X115170807Y-87928241D01*
X115126711Y-88149926D01*
X115126711Y-88149930D01*
X115111823Y-88224777D01*
X115126711Y-88299624D01*
X115126712Y-91634318D01*
X115009280Y-91751750D01*
X114851711Y-92132156D01*
X114851711Y-92543904D01*
X114937000Y-92749811D01*
X114937001Y-94610142D01*
X114937000Y-94610147D01*
X114937001Y-99912299D01*
X114819569Y-100029731D01*
X114662000Y-100410137D01*
X114662000Y-100821885D01*
X114819569Y-101202291D01*
X115110720Y-101493442D01*
X115491126Y-101651011D01*
X115902874Y-101651011D01*
X116283280Y-101493442D01*
X116574431Y-101202291D01*
X116732000Y-100821885D01*
X116732000Y-100410137D01*
X116574431Y-100029731D01*
X116457000Y-99912300D01*
X116457000Y-95904000D01*
X116791874Y-95904000D01*
X117154007Y-95754000D01*
X119534493Y-95754000D01*
X119896626Y-95904000D01*
X120308374Y-95904000D01*
X120609186Y-95779400D01*
X122888032Y-95779400D01*
X123598779Y-96490148D01*
X123748779Y-96852280D01*
X124039930Y-97143431D01*
X124420336Y-97301000D01*
X124832084Y-97301000D01*
X125212490Y-97143431D01*
X125503641Y-96852280D01*
X125661210Y-96471874D01*
X125661210Y-96060126D01*
X125503641Y-95679720D01*
X125212490Y-95388569D01*
X124850358Y-95238569D01*
X124175068Y-94563279D01*
X130001847Y-94563279D01*
X130001847Y-94975027D01*
X130159416Y-95355433D01*
X130450567Y-95646584D01*
X130830973Y-95804153D01*
X131242721Y-95804153D01*
X131620399Y-95647714D01*
X132923981Y-95633208D01*
X133271126Y-95777000D01*
X133682874Y-95777000D01*
X134063280Y-95619431D01*
X134354431Y-95328280D01*
X134512000Y-94947874D01*
X134512000Y-94536126D01*
X134354431Y-94155720D01*
X134063280Y-93864569D01*
X133682874Y-93707000D01*
X133271126Y-93707000D01*
X132893448Y-93863439D01*
X131589866Y-93877945D01*
X131242721Y-93734153D01*
X130830973Y-93734153D01*
X130450567Y-93891722D01*
X130159416Y-94182873D01*
X130001847Y-94563279D01*
X124175068Y-94563279D01*
X123942034Y-94330246D01*
X123892659Y-94256351D01*
X123599920Y-94060748D01*
X123341775Y-94009400D01*
X123341771Y-94009400D01*
X123254610Y-93992063D01*
X123167449Y-94009400D01*
X120706611Y-94009400D01*
X120688780Y-93991569D01*
X120308374Y-93834000D01*
X119896626Y-93834000D01*
X119534493Y-93984000D01*
X117154007Y-93984000D01*
X116791874Y-93834000D01*
X116457000Y-93834000D01*
X116457000Y-93222085D01*
X116472991Y-93215461D01*
X116590422Y-93098030D01*
X119169123Y-93098030D01*
X119243970Y-93112918D01*
X119318817Y-93098030D01*
X119318822Y-93098030D01*
X119540507Y-93053934D01*
X119791899Y-92885959D01*
X119834301Y-92822501D01*
X120240649Y-92416153D01*
X120406721Y-92416153D01*
X120787127Y-92258584D01*
X121078278Y-91967433D01*
X121235847Y-91587027D01*
X121235847Y-91175279D01*
X121078278Y-90794873D01*
X120787127Y-90503722D01*
X120406721Y-90346153D01*
X119994973Y-90346153D01*
X119614567Y-90503722D01*
X119323416Y-90794873D01*
X119165847Y-91175279D01*
X119165847Y-91341351D01*
X118929168Y-91578030D01*
X116646711Y-91578030D01*
X116646711Y-88539578D01*
X116688174Y-88498115D01*
X116854247Y-88498115D01*
X117234653Y-88340546D01*
X117525804Y-88049395D01*
X117683373Y-87668989D01*
X117683373Y-87502917D01*
X118193291Y-86993000D01*
X119565289Y-86993000D01*
X119682720Y-87110431D01*
X120063126Y-87268000D01*
X120474874Y-87268000D01*
X120855280Y-87110431D01*
X121146431Y-86819280D01*
X121158921Y-86789126D01*
X121520000Y-86789126D01*
X121520000Y-87200874D01*
X121670000Y-87563008D01*
X121670001Y-87901992D01*
X121520000Y-88264126D01*
X121520000Y-88675874D01*
X121677569Y-89056280D01*
X121968720Y-89347431D01*
X122349126Y-89505000D01*
X122760874Y-89505000D01*
X123141280Y-89347431D01*
X123432431Y-89056280D01*
X123590000Y-88675874D01*
X123590000Y-88264126D01*
X123440000Y-87901993D01*
X123440000Y-87563007D01*
X123590000Y-87200874D01*
X123590000Y-86916126D01*
X140595978Y-86916126D01*
X140595978Y-87327874D01*
X140753547Y-87708280D01*
X141044698Y-87999431D01*
X141425104Y-88157000D01*
X141836852Y-88157000D01*
X142198985Y-88007000D01*
X143412993Y-88007000D01*
X143775126Y-88157000D01*
X144186874Y-88157000D01*
X144567280Y-87999431D01*
X144858431Y-87708280D01*
X145016000Y-87327874D01*
X145016000Y-86916126D01*
X144858431Y-86535720D01*
X144567280Y-86244569D01*
X144186874Y-86087000D01*
X143775126Y-86087000D01*
X143412993Y-86237000D01*
X142198985Y-86237000D01*
X141836852Y-86087000D01*
X141425104Y-86087000D01*
X141044698Y-86244569D01*
X140753547Y-86535720D01*
X140595978Y-86916126D01*
X123590000Y-86916126D01*
X123590000Y-86789126D01*
X123432431Y-86408720D01*
X123141280Y-86117569D01*
X122760874Y-85960000D01*
X122349126Y-85960000D01*
X121968720Y-86117569D01*
X121677569Y-86408720D01*
X121520000Y-86789126D01*
X121158921Y-86789126D01*
X121304000Y-86438874D01*
X121304000Y-86027126D01*
X121146431Y-85646720D01*
X120855280Y-85355569D01*
X120474874Y-85198000D01*
X120063126Y-85198000D01*
X119682720Y-85355569D01*
X119565289Y-85473000D01*
X117953334Y-85473000D01*
X117878487Y-85458112D01*
X117803640Y-85473000D01*
X117803636Y-85473000D01*
X117581951Y-85517096D01*
X117539699Y-85545328D01*
X117394014Y-85642671D01*
X117394012Y-85642673D01*
X117330559Y-85685071D01*
X117288161Y-85748524D01*
X116648373Y-86388313D01*
X116199089Y-85939030D01*
X116156687Y-85875571D01*
X115905295Y-85707596D01*
X115683610Y-85663500D01*
X115683605Y-85663500D01*
X115608758Y-85648612D01*
X115533911Y-85663500D01*
X114328278Y-85663500D01*
X114417092Y-85217000D01*
X114301839Y-84637582D01*
X113973625Y-84146375D01*
X113482418Y-83818161D01*
X113049256Y-83732000D01*
X112756744Y-83732000D01*
X112323582Y-83818161D01*
X111832375Y-84146375D01*
X111820184Y-84164619D01*
X111811157Y-84119235D01*
X111670809Y-83909191D01*
X111460765Y-83768843D01*
X111213000Y-83719560D01*
X109513000Y-83719560D01*
X109265235Y-83768843D01*
X109055191Y-83909191D01*
X108914843Y-84119235D01*
X108865560Y-84367000D01*
X108865560Y-85663500D01*
X107701211Y-85663500D01*
X107647280Y-85609569D01*
X107266874Y-85452000D01*
X106855126Y-85452000D01*
X106474720Y-85609569D01*
X106183569Y-85900720D01*
X106026000Y-86281126D01*
X106026000Y-86447198D01*
X104190725Y-88282474D01*
X104121201Y-88282474D01*
X104003770Y-88165043D01*
X103764877Y-88066090D01*
X103764877Y-88062296D01*
X103607308Y-87681890D01*
X103316157Y-87390739D01*
X103180847Y-87334692D01*
X103180847Y-86868558D01*
X103298278Y-86751127D01*
X103455847Y-86370721D01*
X103455847Y-85958973D01*
X103298278Y-85578567D01*
X103007127Y-85287416D01*
X102626721Y-85129847D01*
X102214973Y-85129847D01*
X101834567Y-85287416D01*
X101591171Y-85530812D01*
X101653592Y-85217000D01*
X101538339Y-84637582D01*
X101210125Y-84146375D01*
X100718918Y-83818161D01*
X100285756Y-83732000D01*
X99993244Y-83732000D01*
X99560082Y-83818161D01*
X99068875Y-84146375D01*
X99056684Y-84164619D01*
X99047657Y-84119235D01*
X98907309Y-83909191D01*
X98697265Y-83768843D01*
X98449500Y-83719560D01*
X96749500Y-83719560D01*
X96501735Y-83768843D01*
X96291691Y-83909191D01*
X96151343Y-84119235D01*
X96102060Y-84367000D01*
X96102060Y-86067000D01*
X96151343Y-86314765D01*
X96291691Y-86524809D01*
X96501735Y-86665157D01*
X96547119Y-86674184D01*
X96528875Y-86686375D01*
X96200661Y-87177582D01*
X96085408Y-87757000D01*
X96200661Y-88336418D01*
X96528875Y-88827625D01*
X96827261Y-89027000D01*
X96528875Y-89226375D01*
X96200661Y-89717582D01*
X96085408Y-90297000D01*
X96200661Y-90876418D01*
X96528875Y-91367625D01*
X96847978Y-91580843D01*
X96718142Y-91641817D01*
X96327855Y-92070076D01*
X96158024Y-92480110D01*
X96279345Y-92710000D01*
X97472500Y-92710000D01*
X97472500Y-92690000D01*
X97726500Y-92690000D01*
X97726500Y-92710000D01*
X97746500Y-92710000D01*
X97746500Y-92964000D01*
X97726500Y-92964000D01*
X97726500Y-94157819D01*
X97956392Y-94278486D01*
X98109500Y-94206582D01*
X98109501Y-101944060D01*
X96749500Y-101944060D01*
X96501735Y-101993343D01*
X96291691Y-102133691D01*
X96151343Y-102343735D01*
X96102060Y-102591500D01*
X96102060Y-104291500D01*
X96151343Y-104539265D01*
X96291691Y-104749309D01*
X96501735Y-104889657D01*
X96547119Y-104898684D01*
X96528875Y-104910875D01*
X96200661Y-105402082D01*
X96085408Y-105981500D01*
X96200661Y-106560918D01*
X96528875Y-107052125D01*
X96827261Y-107251500D01*
X96528875Y-107450875D01*
X96200661Y-107942082D01*
X96085408Y-108521500D01*
X96200661Y-109100918D01*
X96528875Y-109592125D01*
X96847978Y-109805343D01*
X96718142Y-109866317D01*
X96327855Y-110294576D01*
X96158024Y-110704610D01*
X96279345Y-110934500D01*
X97472500Y-110934500D01*
X97472500Y-110914500D01*
X97726500Y-110914500D01*
X97726500Y-110934500D01*
X97746500Y-110934500D01*
X97746500Y-111188500D01*
X97726500Y-111188500D01*
X97726500Y-112382319D01*
X97956392Y-112502986D01*
X98014501Y-112475696D01*
X98014502Y-117946060D01*
X96749500Y-117946060D01*
X96501735Y-117995343D01*
X96291691Y-118135691D01*
X96151343Y-118345735D01*
X96102060Y-118593500D01*
X96102060Y-120293500D01*
X96151343Y-120541265D01*
X96291691Y-120751309D01*
X96501735Y-120891657D01*
X96605208Y-120912239D01*
X96327855Y-121216576D01*
X96158024Y-121626610D01*
X96279345Y-121856500D01*
X97472500Y-121856500D01*
X97472500Y-121836500D01*
X97726500Y-121836500D01*
X97726500Y-121856500D01*
X97746500Y-121856500D01*
X97746500Y-122110500D01*
X97726500Y-122110500D01*
X97726500Y-122130500D01*
X97472500Y-122130500D01*
X97472500Y-122110500D01*
X96279345Y-122110500D01*
X96158024Y-122340390D01*
X96327855Y-122750424D01*
X96718142Y-123178683D01*
X96847978Y-123239657D01*
X96528875Y-123452875D01*
X96200661Y-123944082D01*
X96085408Y-124523500D01*
X96128962Y-124742460D01*
X95735344Y-125136078D01*
X95661451Y-125185452D01*
X95612077Y-125259345D01*
X95612075Y-125259347D01*
X95465847Y-125478192D01*
X95397162Y-125823501D01*
X83754157Y-125823501D01*
X83726212Y-123231266D01*
X83726212Y-111418390D01*
X96158024Y-111418390D01*
X96327855Y-111828424D01*
X96718142Y-112256683D01*
X97242608Y-112502986D01*
X97472500Y-112382319D01*
X97472500Y-111188500D01*
X96279345Y-111188500D01*
X96158024Y-111418390D01*
X83726212Y-111418390D01*
X83726212Y-93193890D01*
X96158024Y-93193890D01*
X96327855Y-93603924D01*
X96718142Y-94032183D01*
X97242608Y-94278486D01*
X97472500Y-94157819D01*
X97472500Y-92964000D01*
X96279345Y-92964000D01*
X96158024Y-93193890D01*
X83726212Y-93193890D01*
X83726212Y-81965306D01*
X83799394Y-76724397D01*
X83926305Y-73696379D01*
X88994712Y-73696379D01*
X89002597Y-74391357D01*
X89260143Y-75036901D01*
X89732815Y-75546448D01*
X90357232Y-75851671D01*
X91049662Y-75911642D01*
X91717257Y-75718319D01*
X92270497Y-75297626D01*
X92635196Y-74705974D01*
X92762450Y-74022700D01*
X92761961Y-73979639D01*
X92619238Y-73299428D01*
X92241211Y-72716203D01*
X91678569Y-72308170D01*
X91006760Y-72130043D01*
X90315868Y-72205708D01*
X89698537Y-72525018D01*
X89237546Y-73045158D01*
X88994712Y-73696379D01*
X83926305Y-73696379D01*
X83996021Y-72033000D01*
X170826560Y-72033000D01*
X170826560Y-75033000D01*
X170875843Y-75280765D01*
X171016191Y-75490809D01*
X171226235Y-75631157D01*
X171474000Y-75680440D01*
X174474000Y-75680440D01*
X174721765Y-75631157D01*
X174931809Y-75490809D01*
X175072157Y-75280765D01*
X175121440Y-75033000D01*
X175121440Y-73696379D01*
X176307212Y-73696379D01*
X176315097Y-74391357D01*
X176572643Y-75036901D01*
X177045315Y-75546448D01*
X177669732Y-75851671D01*
X178362162Y-75911642D01*
X179029757Y-75718319D01*
X179582997Y-75297626D01*
X179947696Y-74705974D01*
X180074950Y-74022700D01*
X180074461Y-73979639D01*
X179931738Y-73299428D01*
X179553711Y-72716203D01*
X178991069Y-72308170D01*
X178319260Y-72130043D01*
X177628368Y-72205708D01*
X177011037Y-72525018D01*
X176550046Y-73045158D01*
X176307212Y-73696379D01*
X175121440Y-73696379D01*
X175121440Y-72033000D01*
X175072157Y-71785235D01*
X174931809Y-71575191D01*
X174721765Y-71434843D01*
X174474000Y-71385560D01*
X171474000Y-71385560D01*
X171226235Y-71434843D01*
X171016191Y-71575191D01*
X170875843Y-71785235D01*
X170826560Y-72033000D01*
X83996021Y-72033000D01*
X84018717Y-71491510D01*
X84244027Y-68115000D01*
X156367560Y-68115000D01*
X156367560Y-70315000D01*
X156416843Y-70562765D01*
X156557191Y-70772809D01*
X156767235Y-70913157D01*
X157015000Y-70962440D01*
X159215000Y-70962440D01*
X159462765Y-70913157D01*
X159672809Y-70772809D01*
X159731671Y-70684717D01*
X159978037Y-70849334D01*
X160484120Y-70950000D01*
X160825880Y-70950000D01*
X161331963Y-70849334D01*
X161905865Y-70465865D01*
X162289334Y-69891963D01*
X162423990Y-69215000D01*
X162289334Y-68538037D01*
X161905865Y-67964135D01*
X161331963Y-67580666D01*
X160825880Y-67480000D01*
X160484120Y-67480000D01*
X159978037Y-67580666D01*
X159731671Y-67745283D01*
X159672809Y-67657191D01*
X159462765Y-67516843D01*
X159215000Y-67467560D01*
X157015000Y-67467560D01*
X156767235Y-67516843D01*
X156557191Y-67657191D01*
X156416843Y-67867235D01*
X156367560Y-68115000D01*
X84244027Y-68115000D01*
X84281430Y-67554491D01*
X84374456Y-67297212D01*
X89762088Y-67297212D01*
X89782362Y-67293179D01*
X90711154Y-67241252D01*
X90722628Y-67239843D01*
X90734185Y-67239601D01*
X90800283Y-67230782D01*
X91947684Y-67024332D01*
X91962633Y-67020605D01*
X91977863Y-67018247D01*
X92042213Y-67000763D01*
X93152230Y-66644375D01*
X93166558Y-66638702D01*
X93181338Y-66634352D01*
X93242811Y-66608512D01*
X94295942Y-66108449D01*
X94309396Y-66100930D01*
X94323469Y-66094664D01*
X94380985Y-66060920D01*
X95358729Y-65425965D01*
X95371070Y-65416733D01*
X95384190Y-65408661D01*
X95436738Y-65367607D01*
X96321916Y-64608918D01*
X96332926Y-64598136D01*
X96344866Y-64588398D01*
X96391522Y-64540755D01*
X97168583Y-63671659D01*
X97178068Y-63659518D01*
X97188617Y-63648285D01*
X97228562Y-63594889D01*
X97883853Y-62630657D01*
X97891648Y-62617371D01*
X97900620Y-62604839D01*
X97933152Y-62546629D01*
X98455162Y-61504201D01*
X98461135Y-61489992D01*
X98468366Y-61476392D01*
X98492914Y-61414391D01*
X98872470Y-60312081D01*
X98876510Y-60297212D01*
X98881881Y-60282769D01*
X98898013Y-60218066D01*
X99128447Y-59075242D01*
X99130485Y-59059970D01*
X99133899Y-59044942D01*
X99141332Y-58978674D01*
X99165478Y-58615129D01*
X104075962Y-58615129D01*
X104083847Y-59310107D01*
X104341393Y-59955651D01*
X104814065Y-60465198D01*
X105438482Y-60770421D01*
X106130912Y-60830392D01*
X106798507Y-60637069D01*
X107351747Y-60216376D01*
X107716446Y-59624724D01*
X107843700Y-58941450D01*
X107843211Y-58898389D01*
X107783777Y-58615129D01*
X161225962Y-58615129D01*
X161233847Y-59310107D01*
X161491393Y-59955651D01*
X161964065Y-60465198D01*
X162588482Y-60770421D01*
X163280912Y-60830392D01*
X163948507Y-60637069D01*
X164501747Y-60216376D01*
X164866446Y-59624724D01*
X164993700Y-58941450D01*
X164993211Y-58898389D01*
X164850488Y-58218178D01*
X164472461Y-57634953D01*
X163909819Y-57226920D01*
X163238010Y-57048793D01*
X162547118Y-57124458D01*
X161929787Y-57443768D01*
X161468796Y-57963908D01*
X161225962Y-58615129D01*
X107783777Y-58615129D01*
X107700488Y-58218178D01*
X107322461Y-57634953D01*
X106759819Y-57226920D01*
X106088010Y-57048793D01*
X105397118Y-57124458D01*
X104779787Y-57443768D01*
X104318796Y-57963908D01*
X104075962Y-58615129D01*
X99165478Y-58615129D01*
X99215425Y-57863154D01*
X99220212Y-57839088D01*
X99220212Y-52451456D01*
X99476369Y-52358836D01*
X104607720Y-52032827D01*
X109841894Y-51846820D01*
X113887134Y-51803212D01*
X155153094Y-51803212D01*
X160394003Y-51876394D01*
G36*
X103878853Y-110755431D02*
X105541650Y-112418229D01*
X105591024Y-112492122D01*
X105664917Y-112541496D01*
X105664918Y-112541497D01*
X105746667Y-112596120D01*
X105883763Y-112687725D01*
X106141908Y-112739073D01*
X106141912Y-112739073D01*
X106229072Y-112756410D01*
X106316232Y-112739073D01*
X107133912Y-112739073D01*
X107221073Y-112756410D01*
X107308234Y-112739073D01*
X107308238Y-112739073D01*
X107566383Y-112687725D01*
X107859122Y-112492122D01*
X107908498Y-112418226D01*
X109070721Y-111256003D01*
X108985024Y-111418390D01*
X109154855Y-111828424D01*
X109545142Y-112256683D01*
X110069608Y-112502986D01*
X110299500Y-112382319D01*
X110299500Y-111188500D01*
X110279500Y-111188500D01*
X110279500Y-110934500D01*
X110299500Y-110934500D01*
X110299500Y-110914500D01*
X110553500Y-110914500D01*
X110553500Y-110934500D01*
X110573500Y-110934500D01*
X110573500Y-111188500D01*
X110553500Y-111188500D01*
X110553500Y-112382319D01*
X110783392Y-112502986D01*
X110841501Y-112475696D01*
X110841502Y-117946060D01*
X109576500Y-117946060D01*
X109328735Y-117995343D01*
X109118691Y-118135691D01*
X108978343Y-118345735D01*
X108929060Y-118593500D01*
X108929060Y-120293500D01*
X108978343Y-120541265D01*
X109118691Y-120751309D01*
X109328735Y-120891657D01*
X109432208Y-120912239D01*
X109154855Y-121216576D01*
X108985024Y-121626610D01*
X109106345Y-121856500D01*
X110299500Y-121856500D01*
X110299500Y-121836500D01*
X110553500Y-121836500D01*
X110553500Y-121856500D01*
X110573500Y-121856500D01*
X110573500Y-122110500D01*
X110553500Y-122110500D01*
X110553500Y-122130500D01*
X110299500Y-122130500D01*
X110299500Y-122110500D01*
X109106345Y-122110500D01*
X108985024Y-122340390D01*
X109154855Y-122750424D01*
X109545142Y-123178683D01*
X109674978Y-123239657D01*
X109355875Y-123452875D01*
X109241198Y-123624501D01*
X109224418Y-123621163D01*
X109137258Y-123638500D01*
X109137254Y-123638500D01*
X108879109Y-123689848D01*
X108849608Y-123709560D01*
X108660264Y-123836076D01*
X108660263Y-123836077D01*
X108586370Y-123885451D01*
X108536996Y-123959344D01*
X105017840Y-127478501D01*
X101571043Y-127478501D01*
X101653592Y-127063500D01*
X101538339Y-126484082D01*
X101210125Y-125992875D01*
X100911739Y-125793500D01*
X101210125Y-125594125D01*
X101538339Y-125102918D01*
X101653592Y-124523500D01*
X101538339Y-123944082D01*
X101210125Y-123452875D01*
X100911739Y-123253500D01*
X101210125Y-123054125D01*
X101538339Y-122562918D01*
X101653592Y-121983500D01*
X101538339Y-121404082D01*
X101210125Y-120912875D01*
X100911739Y-120713500D01*
X101210125Y-120514125D01*
X101538339Y-120022918D01*
X101653592Y-119443500D01*
X101538339Y-118864082D01*
X101210125Y-118372875D01*
X100718918Y-118044661D01*
X100285756Y-117958500D01*
X99993244Y-117958500D01*
X99560082Y-118044661D01*
X99534501Y-118061754D01*
X99534501Y-112443246D01*
X99560082Y-112460339D01*
X99993244Y-112546500D01*
X100285756Y-112546500D01*
X100718918Y-112460339D01*
X101210125Y-112132125D01*
X101538339Y-111640918D01*
X101653592Y-111061500D01*
X101566570Y-110624008D01*
X101902126Y-110763000D01*
X102313874Y-110763000D01*
X102676007Y-110613000D01*
X103534993Y-110613000D01*
X103878853Y-110755431D01*
X103878853Y-110755431D01*
G37*
X103878853Y-110755431D02*
X105541650Y-112418229D01*
X105591024Y-112492122D01*
X105664917Y-112541496D01*
X105664918Y-112541497D01*
X105746667Y-112596120D01*
X105883763Y-112687725D01*
X106141908Y-112739073D01*
X106141912Y-112739073D01*
X106229072Y-112756410D01*
X106316232Y-112739073D01*
X107133912Y-112739073D01*
X107221073Y-112756410D01*
X107308234Y-112739073D01*
X107308238Y-112739073D01*
X107566383Y-112687725D01*
X107859122Y-112492122D01*
X107908498Y-112418226D01*
X109070721Y-111256003D01*
X108985024Y-111418390D01*
X109154855Y-111828424D01*
X109545142Y-112256683D01*
X110069608Y-112502986D01*
X110299500Y-112382319D01*
X110299500Y-111188500D01*
X110279500Y-111188500D01*
X110279500Y-110934500D01*
X110299500Y-110934500D01*
X110299500Y-110914500D01*
X110553500Y-110914500D01*
X110553500Y-110934500D01*
X110573500Y-110934500D01*
X110573500Y-111188500D01*
X110553500Y-111188500D01*
X110553500Y-112382319D01*
X110783392Y-112502986D01*
X110841501Y-112475696D01*
X110841502Y-117946060D01*
X109576500Y-117946060D01*
X109328735Y-117995343D01*
X109118691Y-118135691D01*
X108978343Y-118345735D01*
X108929060Y-118593500D01*
X108929060Y-120293500D01*
X108978343Y-120541265D01*
X109118691Y-120751309D01*
X109328735Y-120891657D01*
X109432208Y-120912239D01*
X109154855Y-121216576D01*
X108985024Y-121626610D01*
X109106345Y-121856500D01*
X110299500Y-121856500D01*
X110299500Y-121836500D01*
X110553500Y-121836500D01*
X110553500Y-121856500D01*
X110573500Y-121856500D01*
X110573500Y-122110500D01*
X110553500Y-122110500D01*
X110553500Y-122130500D01*
X110299500Y-122130500D01*
X110299500Y-122110500D01*
X109106345Y-122110500D01*
X108985024Y-122340390D01*
X109154855Y-122750424D01*
X109545142Y-123178683D01*
X109674978Y-123239657D01*
X109355875Y-123452875D01*
X109241198Y-123624501D01*
X109224418Y-123621163D01*
X109137258Y-123638500D01*
X109137254Y-123638500D01*
X108879109Y-123689848D01*
X108849608Y-123709560D01*
X108660264Y-123836076D01*
X108660263Y-123836077D01*
X108586370Y-123885451D01*
X108536996Y-123959344D01*
X105017840Y-127478501D01*
X101571043Y-127478501D01*
X101653592Y-127063500D01*
X101538339Y-126484082D01*
X101210125Y-125992875D01*
X100911739Y-125793500D01*
X101210125Y-125594125D01*
X101538339Y-125102918D01*
X101653592Y-124523500D01*
X101538339Y-123944082D01*
X101210125Y-123452875D01*
X100911739Y-123253500D01*
X101210125Y-123054125D01*
X101538339Y-122562918D01*
X101653592Y-121983500D01*
X101538339Y-121404082D01*
X101210125Y-120912875D01*
X100911739Y-120713500D01*
X101210125Y-120514125D01*
X101538339Y-120022918D01*
X101653592Y-119443500D01*
X101538339Y-118864082D01*
X101210125Y-118372875D01*
X100718918Y-118044661D01*
X100285756Y-117958500D01*
X99993244Y-117958500D01*
X99560082Y-118044661D01*
X99534501Y-118061754D01*
X99534501Y-112443246D01*
X99560082Y-112460339D01*
X99993244Y-112546500D01*
X100285756Y-112546500D01*
X100718918Y-112460339D01*
X101210125Y-112132125D01*
X101538339Y-111640918D01*
X101653592Y-111061500D01*
X101566570Y-110624008D01*
X101902126Y-110763000D01*
X102313874Y-110763000D01*
X102676007Y-110613000D01*
X103534993Y-110613000D01*
X103878853Y-110755431D01*
G36*
X110553500Y-126936500D02*
X110573500Y-126936500D01*
X110573500Y-127190500D01*
X110553500Y-127190500D01*
X110553500Y-127210500D01*
X110299500Y-127210500D01*
X110299500Y-127190500D01*
X110279500Y-127190500D01*
X110279500Y-126936500D01*
X110299500Y-126936500D01*
X110299500Y-126916500D01*
X110553500Y-126916500D01*
X110553500Y-126936500D01*
X110553500Y-126936500D01*
G37*
X110553500Y-126936500D02*
X110573500Y-126936500D01*
X110573500Y-127190500D01*
X110553500Y-127190500D01*
X110553500Y-127210500D01*
X110299500Y-127210500D01*
X110299500Y-127190500D01*
X110279500Y-127190500D01*
X110279500Y-126936500D01*
X110299500Y-126936500D01*
X110299500Y-126916500D01*
X110553500Y-126916500D01*
X110553500Y-126936500D01*
G36*
X97726500Y-126936500D02*
X97746500Y-126936500D01*
X97746500Y-127190500D01*
X97726500Y-127190500D01*
X97726500Y-127210500D01*
X97472500Y-127210500D01*
X97472500Y-127190500D01*
X97452500Y-127190500D01*
X97452500Y-126936500D01*
X97472500Y-126936500D01*
X97472500Y-126916500D01*
X97726500Y-126916500D01*
X97726500Y-126936500D01*
X97726500Y-126936500D01*
G37*
X97726500Y-126936500D02*
X97746500Y-126936500D01*
X97746500Y-127190500D01*
X97726500Y-127190500D01*
X97726500Y-127210500D01*
X97472500Y-127210500D01*
X97472500Y-127190500D01*
X97452500Y-127190500D01*
X97452500Y-126936500D01*
X97472500Y-126936500D01*
X97472500Y-126916500D01*
X97726500Y-126916500D01*
X97726500Y-126936500D01*
G36*
X106437569Y-88597280D02*
X106613289Y-88773000D01*
X106437569Y-88948720D01*
X106280000Y-89329126D01*
X106280000Y-89740874D01*
X106322299Y-89842993D01*
X106322298Y-90811308D01*
X103971841Y-90811308D01*
X103896994Y-90796420D01*
X103822147Y-90811308D01*
X103822143Y-90811308D01*
X103600458Y-90855404D01*
X103349066Y-91023379D01*
X103306666Y-91086835D01*
X103157945Y-91235556D01*
X102991873Y-91235556D01*
X102611467Y-91393125D01*
X102320316Y-91684276D01*
X102162747Y-92064682D01*
X102162747Y-92476430D01*
X102320316Y-92856836D01*
X102611467Y-93147987D01*
X102991873Y-93305556D01*
X103403621Y-93305556D01*
X103784027Y-93147987D01*
X104075178Y-92856836D01*
X104232747Y-92476430D01*
X104232747Y-92331308D01*
X106199897Y-92331308D01*
X106190000Y-92355201D01*
X106190000Y-92766949D01*
X106340001Y-93129083D01*
X106340000Y-94084421D01*
X105805422Y-94619000D01*
X104327007Y-94619000D01*
X103964874Y-94469000D01*
X103553126Y-94469000D01*
X103172720Y-94626569D01*
X102881569Y-94917720D01*
X102724000Y-95298126D01*
X102724000Y-95709874D01*
X102881569Y-96090280D01*
X103172720Y-96381431D01*
X103553126Y-96539000D01*
X103964874Y-96539000D01*
X104327007Y-96389000D01*
X105772000Y-96389000D01*
X105772000Y-96471874D01*
X105929569Y-96852280D01*
X106220720Y-97143431D01*
X106601126Y-97301000D01*
X107007320Y-97301000D01*
X106723595Y-97584725D01*
X106566026Y-97965131D01*
X106566026Y-98376879D01*
X106723595Y-98757285D01*
X107014746Y-99048436D01*
X107395152Y-99206005D01*
X107806900Y-99206005D01*
X108187306Y-99048436D01*
X108310100Y-98925642D01*
X109664647Y-98925642D01*
X109782078Y-99043073D01*
X110162484Y-99200642D01*
X110574232Y-99200642D01*
X110873000Y-99076888D01*
X110873001Y-101944060D01*
X109576500Y-101944060D01*
X109328735Y-101993343D01*
X109118691Y-102133691D01*
X108978343Y-102343735D01*
X108929060Y-102591500D01*
X108929060Y-104291500D01*
X108978343Y-104539265D01*
X109118691Y-104749309D01*
X109328735Y-104889657D01*
X109374119Y-104898684D01*
X109355875Y-104910875D01*
X109027661Y-105402082D01*
X108912408Y-105981500D01*
X109027661Y-106560918D01*
X109355875Y-107052125D01*
X109654261Y-107251500D01*
X109355875Y-107450875D01*
X109027661Y-107942082D01*
X108912408Y-108521500D01*
X108952677Y-108723945D01*
X108938452Y-108733450D01*
X108742849Y-109026190D01*
X108729310Y-109094258D01*
X107548139Y-110275428D01*
X107399351Y-110126640D01*
X107018945Y-109969071D01*
X106852873Y-109969071D01*
X106678000Y-109794199D01*
X106678000Y-109542711D01*
X106795431Y-109425280D01*
X106953000Y-109044874D01*
X106953000Y-108633126D01*
X106795431Y-108252720D01*
X106504280Y-107961569D01*
X106123874Y-107804000D01*
X105712126Y-107804000D01*
X105331720Y-107961569D01*
X105087769Y-108205520D01*
X105017431Y-108035710D01*
X104726280Y-107744559D01*
X104345874Y-107586990D01*
X104089792Y-107586990D01*
X103143000Y-106640199D01*
X103143000Y-106474126D01*
X106026000Y-106474126D01*
X106026000Y-106885874D01*
X106183569Y-107266280D01*
X106474720Y-107557431D01*
X106855126Y-107715000D01*
X107266874Y-107715000D01*
X107647280Y-107557431D01*
X107938431Y-107266280D01*
X108096000Y-106885874D01*
X108096000Y-106474126D01*
X107938431Y-106093720D01*
X107821000Y-105976289D01*
X107821000Y-104877351D01*
X108021281Y-104677070D01*
X108178850Y-104296664D01*
X108178850Y-103884916D01*
X108021281Y-103504510D01*
X107730130Y-103213359D01*
X107349724Y-103055790D01*
X106937976Y-103055790D01*
X106557570Y-103213359D01*
X106266419Y-103504510D01*
X106108850Y-103884916D01*
X106108850Y-104296664D01*
X106266419Y-104677070D01*
X106301001Y-104711652D01*
X106301000Y-105976289D01*
X106183569Y-106093720D01*
X106026000Y-106474126D01*
X103143000Y-106474126D01*
X102985431Y-106093720D01*
X102694280Y-105802569D01*
X102313874Y-105645000D01*
X101902126Y-105645000D01*
X101610672Y-105765724D01*
X101538339Y-105402082D01*
X101210125Y-104910875D01*
X100911739Y-104711500D01*
X101210125Y-104512125D01*
X101538339Y-104020918D01*
X101653592Y-103441500D01*
X101538339Y-102862082D01*
X101210125Y-102370875D01*
X100718918Y-102042661D01*
X100285756Y-101956500D01*
X99993244Y-101956500D01*
X99629500Y-102028853D01*
X99629500Y-94249647D01*
X99993244Y-94322000D01*
X100285756Y-94322000D01*
X100718918Y-94235839D01*
X101210125Y-93907625D01*
X101538339Y-93416418D01*
X101653592Y-92837000D01*
X101538339Y-92257582D01*
X101210125Y-91766375D01*
X100911739Y-91567000D01*
X101210125Y-91367625D01*
X101538339Y-90876418D01*
X101653592Y-90297000D01*
X101618495Y-90120553D01*
X101761605Y-90179831D01*
X102173353Y-90179831D01*
X102553759Y-90022262D01*
X102743663Y-89832358D01*
X102831210Y-89919905D01*
X103211616Y-90077474D01*
X103623364Y-90077474D01*
X104003770Y-89919905D01*
X104121201Y-89802474D01*
X104430679Y-89802474D01*
X104505526Y-89817362D01*
X104580373Y-89802474D01*
X104580378Y-89802474D01*
X104802063Y-89758378D01*
X105053455Y-89590403D01*
X105095857Y-89526944D01*
X106316883Y-88305918D01*
X106437569Y-88597280D01*
X106437569Y-88597280D01*
G37*
X106437569Y-88597280D02*
X106613289Y-88773000D01*
X106437569Y-88948720D01*
X106280000Y-89329126D01*
X106280000Y-89740874D01*
X106322299Y-89842993D01*
X106322298Y-90811308D01*
X103971841Y-90811308D01*
X103896994Y-90796420D01*
X103822147Y-90811308D01*
X103822143Y-90811308D01*
X103600458Y-90855404D01*
X103349066Y-91023379D01*
X103306666Y-91086835D01*
X103157945Y-91235556D01*
X102991873Y-91235556D01*
X102611467Y-91393125D01*
X102320316Y-91684276D01*
X102162747Y-92064682D01*
X102162747Y-92476430D01*
X102320316Y-92856836D01*
X102611467Y-93147987D01*
X102991873Y-93305556D01*
X103403621Y-93305556D01*
X103784027Y-93147987D01*
X104075178Y-92856836D01*
X104232747Y-92476430D01*
X104232747Y-92331308D01*
X106199897Y-92331308D01*
X106190000Y-92355201D01*
X106190000Y-92766949D01*
X106340001Y-93129083D01*
X106340000Y-94084421D01*
X105805422Y-94619000D01*
X104327007Y-94619000D01*
X103964874Y-94469000D01*
X103553126Y-94469000D01*
X103172720Y-94626569D01*
X102881569Y-94917720D01*
X102724000Y-95298126D01*
X102724000Y-95709874D01*
X102881569Y-96090280D01*
X103172720Y-96381431D01*
X103553126Y-96539000D01*
X103964874Y-96539000D01*
X104327007Y-96389000D01*
X105772000Y-96389000D01*
X105772000Y-96471874D01*
X105929569Y-96852280D01*
X106220720Y-97143431D01*
X106601126Y-97301000D01*
X107007320Y-97301000D01*
X106723595Y-97584725D01*
X106566026Y-97965131D01*
X106566026Y-98376879D01*
X106723595Y-98757285D01*
X107014746Y-99048436D01*
X107395152Y-99206005D01*
X107806900Y-99206005D01*
X108187306Y-99048436D01*
X108310100Y-98925642D01*
X109664647Y-98925642D01*
X109782078Y-99043073D01*
X110162484Y-99200642D01*
X110574232Y-99200642D01*
X110873000Y-99076888D01*
X110873001Y-101944060D01*
X109576500Y-101944060D01*
X109328735Y-101993343D01*
X109118691Y-102133691D01*
X108978343Y-102343735D01*
X108929060Y-102591500D01*
X108929060Y-104291500D01*
X108978343Y-104539265D01*
X109118691Y-104749309D01*
X109328735Y-104889657D01*
X109374119Y-104898684D01*
X109355875Y-104910875D01*
X109027661Y-105402082D01*
X108912408Y-105981500D01*
X109027661Y-106560918D01*
X109355875Y-107052125D01*
X109654261Y-107251500D01*
X109355875Y-107450875D01*
X109027661Y-107942082D01*
X108912408Y-108521500D01*
X108952677Y-108723945D01*
X108938452Y-108733450D01*
X108742849Y-109026190D01*
X108729310Y-109094258D01*
X107548139Y-110275428D01*
X107399351Y-110126640D01*
X107018945Y-109969071D01*
X106852873Y-109969071D01*
X106678000Y-109794199D01*
X106678000Y-109542711D01*
X106795431Y-109425280D01*
X106953000Y-109044874D01*
X106953000Y-108633126D01*
X106795431Y-108252720D01*
X106504280Y-107961569D01*
X106123874Y-107804000D01*
X105712126Y-107804000D01*
X105331720Y-107961569D01*
X105087769Y-108205520D01*
X105017431Y-108035710D01*
X104726280Y-107744559D01*
X104345874Y-107586990D01*
X104089792Y-107586990D01*
X103143000Y-106640199D01*
X103143000Y-106474126D01*
X106026000Y-106474126D01*
X106026000Y-106885874D01*
X106183569Y-107266280D01*
X106474720Y-107557431D01*
X106855126Y-107715000D01*
X107266874Y-107715000D01*
X107647280Y-107557431D01*
X107938431Y-107266280D01*
X108096000Y-106885874D01*
X108096000Y-106474126D01*
X107938431Y-106093720D01*
X107821000Y-105976289D01*
X107821000Y-104877351D01*
X108021281Y-104677070D01*
X108178850Y-104296664D01*
X108178850Y-103884916D01*
X108021281Y-103504510D01*
X107730130Y-103213359D01*
X107349724Y-103055790D01*
X106937976Y-103055790D01*
X106557570Y-103213359D01*
X106266419Y-103504510D01*
X106108850Y-103884916D01*
X106108850Y-104296664D01*
X106266419Y-104677070D01*
X106301001Y-104711652D01*
X106301000Y-105976289D01*
X106183569Y-106093720D01*
X106026000Y-106474126D01*
X103143000Y-106474126D01*
X102985431Y-106093720D01*
X102694280Y-105802569D01*
X102313874Y-105645000D01*
X101902126Y-105645000D01*
X101610672Y-105765724D01*
X101538339Y-105402082D01*
X101210125Y-104910875D01*
X100911739Y-104711500D01*
X101210125Y-104512125D01*
X101538339Y-104020918D01*
X101653592Y-103441500D01*
X101538339Y-102862082D01*
X101210125Y-102370875D01*
X100718918Y-102042661D01*
X100285756Y-101956500D01*
X99993244Y-101956500D01*
X99629500Y-102028853D01*
X99629500Y-94249647D01*
X99993244Y-94322000D01*
X100285756Y-94322000D01*
X100718918Y-94235839D01*
X101210125Y-93907625D01*
X101538339Y-93416418D01*
X101653592Y-92837000D01*
X101538339Y-92257582D01*
X101210125Y-91766375D01*
X100911739Y-91567000D01*
X101210125Y-91367625D01*
X101538339Y-90876418D01*
X101653592Y-90297000D01*
X101618495Y-90120553D01*
X101761605Y-90179831D01*
X102173353Y-90179831D01*
X102553759Y-90022262D01*
X102743663Y-89832358D01*
X102831210Y-89919905D01*
X103211616Y-90077474D01*
X103623364Y-90077474D01*
X104003770Y-89919905D01*
X104121201Y-89802474D01*
X104430679Y-89802474D01*
X104505526Y-89817362D01*
X104580373Y-89802474D01*
X104580378Y-89802474D01*
X104802063Y-89758378D01*
X105053455Y-89590403D01*
X105095857Y-89526944D01*
X106316883Y-88305918D01*
X106437569Y-88597280D01*
G36*
X110490000Y-92710000D02*
X110510000Y-92710000D01*
X110510000Y-92964000D01*
X110490000Y-92964000D01*
X110490000Y-94157819D01*
X110719892Y-94278486D01*
X110873000Y-94206582D01*
X110873000Y-97254396D01*
X110574232Y-97130642D01*
X110162484Y-97130642D01*
X109782078Y-97288211D01*
X109664647Y-97405642D01*
X108299374Y-97405642D01*
X108187306Y-97293574D01*
X107806900Y-97136005D01*
X107400706Y-97136005D01*
X107510711Y-97026000D01*
X108422187Y-97026000D01*
X108538741Y-97142554D01*
X108919147Y-97300123D01*
X109330895Y-97300123D01*
X109711301Y-97142554D01*
X110002452Y-96851403D01*
X110160021Y-96470997D01*
X110160021Y-96059249D01*
X110002452Y-95678843D01*
X109890666Y-95567057D01*
X110002442Y-95455280D01*
X110160011Y-95074874D01*
X110160011Y-94663126D01*
X110002442Y-94282720D01*
X109991213Y-94271491D01*
X110006108Y-94278486D01*
X110236000Y-94157819D01*
X110236000Y-92964000D01*
X110216000Y-92964000D01*
X110216000Y-92710000D01*
X110236000Y-92710000D01*
X110236000Y-92690000D01*
X110490000Y-92690000D01*
X110490000Y-92710000D01*
X110490000Y-92710000D01*
G37*
X110490000Y-92710000D02*
X110510000Y-92710000D01*
X110510000Y-92964000D01*
X110490000Y-92964000D01*
X110490000Y-94157819D01*
X110719892Y-94278486D01*
X110873000Y-94206582D01*
X110873000Y-97254396D01*
X110574232Y-97130642D01*
X110162484Y-97130642D01*
X109782078Y-97288211D01*
X109664647Y-97405642D01*
X108299374Y-97405642D01*
X108187306Y-97293574D01*
X107806900Y-97136005D01*
X107400706Y-97136005D01*
X107510711Y-97026000D01*
X108422187Y-97026000D01*
X108538741Y-97142554D01*
X108919147Y-97300123D01*
X109330895Y-97300123D01*
X109711301Y-97142554D01*
X110002452Y-96851403D01*
X110160021Y-96470997D01*
X110160021Y-96059249D01*
X110002452Y-95678843D01*
X109890666Y-95567057D01*
X110002442Y-95455280D01*
X110160011Y-95074874D01*
X110160011Y-94663126D01*
X110002442Y-94282720D01*
X109991213Y-94271491D01*
X110006108Y-94278486D01*
X110236000Y-94157819D01*
X110236000Y-92964000D01*
X110216000Y-92964000D01*
X110216000Y-92710000D01*
X110236000Y-92710000D01*
X110236000Y-92690000D01*
X110490000Y-92690000D01*
X110490000Y-92710000D01*
G36*
X169674000Y-89468803D02*
X169674001Y-92819138D01*
X169481971Y-92739597D01*
X169070223Y-92739597D01*
X168689817Y-92897166D01*
X168398666Y-93188317D01*
X168241097Y-93568723D01*
X168241097Y-93980471D01*
X168398666Y-94360877D01*
X168516097Y-94478308D01*
X168516098Y-95350746D01*
X168501209Y-95425597D01*
X168560194Y-95722134D01*
X168611365Y-95798716D01*
X168728169Y-95973526D01*
X168791625Y-96015926D01*
X172701000Y-99925303D01*
X172701000Y-100091374D01*
X172858569Y-100471780D01*
X173149720Y-100762931D01*
X173530126Y-100920500D01*
X173941874Y-100920500D01*
X174322280Y-100762931D01*
X174613431Y-100471780D01*
X174659722Y-100360024D01*
X175609930Y-101310232D01*
X172616528Y-104303635D01*
X172553072Y-104346035D01*
X172510672Y-104409491D01*
X172510671Y-104409492D01*
X172385097Y-104597427D01*
X172326112Y-104893964D01*
X172341001Y-104968816D01*
X172341000Y-108897289D01*
X172223569Y-109014720D01*
X172066000Y-109395126D01*
X172066000Y-109806874D01*
X172223569Y-110187280D01*
X172514720Y-110478431D01*
X172895126Y-110636000D01*
X173306874Y-110636000D01*
X173687280Y-110478431D01*
X173978431Y-110187280D01*
X174136000Y-109806874D01*
X174136000Y-109395126D01*
X173978431Y-109014720D01*
X173861000Y-108897289D01*
X173861000Y-105208765D01*
X177040001Y-102029766D01*
X177040001Y-111247199D01*
X167762286Y-120524915D01*
X167662387Y-120283736D01*
X167395532Y-120185073D01*
X166422605Y-121158000D01*
X166436748Y-121172143D01*
X166257143Y-121351748D01*
X166243000Y-121337605D01*
X166228858Y-121351748D01*
X166049253Y-121172143D01*
X166063395Y-121158000D01*
X165090468Y-120185073D01*
X164823613Y-120283736D01*
X164597092Y-120893461D01*
X164621144Y-121543460D01*
X164695512Y-121723001D01*
X163382802Y-121723001D01*
X163333330Y-121673529D01*
X163333328Y-121673526D01*
X163309177Y-121649375D01*
X163378000Y-121483222D01*
X163378000Y-120832778D01*
X163129086Y-120231847D01*
X162669153Y-119771914D01*
X162503000Y-119703091D01*
X162503000Y-116605008D01*
X162511874Y-116605008D01*
X162892280Y-116447439D01*
X163183431Y-116156288D01*
X163341000Y-115775882D01*
X163341000Y-115597402D01*
X164391536Y-115597402D01*
X164391536Y-116009150D01*
X164549105Y-116389556D01*
X164840256Y-116680707D01*
X165220662Y-116838276D01*
X165632410Y-116838276D01*
X166012816Y-116680707D01*
X166109523Y-116584000D01*
X166813289Y-116584000D01*
X166762569Y-116634720D01*
X166605000Y-117015126D01*
X166605000Y-117163146D01*
X166595946Y-117169196D01*
X166427971Y-117420589D01*
X166383875Y-117642274D01*
X166383875Y-117642278D01*
X166368987Y-117717125D01*
X166383875Y-117791972D01*
X166383875Y-117967301D01*
X166266444Y-118084732D01*
X166108875Y-118465138D01*
X166108875Y-118876886D01*
X166266444Y-119257292D01*
X166529345Y-119520193D01*
X166507539Y-119512092D01*
X165857540Y-119536144D01*
X165368736Y-119738613D01*
X165270073Y-120005468D01*
X166243000Y-120978395D01*
X167215927Y-120005468D01*
X167117264Y-119738613D01*
X167029512Y-119706012D01*
X167349749Y-119706012D01*
X167730155Y-119548443D01*
X168021306Y-119257292D01*
X168178875Y-118876886D01*
X168178875Y-118465138D01*
X168056167Y-118168894D01*
X168226280Y-118098431D01*
X168402000Y-117922711D01*
X168577720Y-118098431D01*
X168958126Y-118256000D01*
X169369874Y-118256000D01*
X169750280Y-118098431D01*
X170041431Y-117807280D01*
X170199000Y-117426874D01*
X170199000Y-117124484D01*
X170435351Y-116888133D01*
X170592920Y-116507727D01*
X170592920Y-116095979D01*
X170435351Y-115715573D01*
X170144200Y-115424422D01*
X169763794Y-115266853D01*
X169597722Y-115266853D01*
X168945398Y-114614530D01*
X168902996Y-114551071D01*
X168651604Y-114383096D01*
X168429919Y-114339000D01*
X168429914Y-114339000D01*
X168355067Y-114324112D01*
X168280220Y-114339000D01*
X166876501Y-114339000D01*
X166759070Y-114221569D01*
X166378664Y-114064000D01*
X165966916Y-114064000D01*
X165586510Y-114221569D01*
X165295359Y-114512720D01*
X165183052Y-114783855D01*
X164840256Y-114925845D01*
X164549105Y-115216996D01*
X164391536Y-115597402D01*
X163341000Y-115597402D01*
X163341000Y-115364134D01*
X163183431Y-114983728D01*
X162892280Y-114692577D01*
X162511874Y-114535008D01*
X162100126Y-114535008D01*
X161719720Y-114692577D01*
X161428569Y-114983728D01*
X161271000Y-115364134D01*
X161271000Y-115530207D01*
X161258528Y-115542679D01*
X161195072Y-115585079D01*
X161152672Y-115648535D01*
X161152671Y-115648536D01*
X161027097Y-115836471D01*
X160968112Y-116133008D01*
X160983001Y-116207860D01*
X160983000Y-119703091D01*
X160816847Y-119771914D01*
X160356914Y-120231847D01*
X160288091Y-120398000D01*
X157794802Y-120398000D01*
X153054801Y-115658000D01*
X153181256Y-115658000D01*
X153614418Y-115571839D01*
X154105625Y-115243625D01*
X154305000Y-114945239D01*
X154504375Y-115243625D01*
X154995582Y-115571839D01*
X155428744Y-115658000D01*
X155721256Y-115658000D01*
X156154418Y-115571839D01*
X156645625Y-115243625D01*
X156858843Y-114924522D01*
X156919817Y-115054358D01*
X157348076Y-115444645D01*
X157758110Y-115614476D01*
X157988000Y-115493155D01*
X157988000Y-114300000D01*
X158242000Y-114300000D01*
X158242000Y-115493155D01*
X158471890Y-115614476D01*
X158881924Y-115444645D01*
X159310183Y-115054358D01*
X159556486Y-114529892D01*
X159435819Y-114300000D01*
X158242000Y-114300000D01*
X157988000Y-114300000D01*
X157968000Y-114300000D01*
X157968000Y-114046000D01*
X157988000Y-114046000D01*
X157988000Y-112852845D01*
X158242000Y-112852845D01*
X158242000Y-114046000D01*
X159435819Y-114046000D01*
X159556486Y-113816108D01*
X159310183Y-113291642D01*
X158881924Y-112901355D01*
X158471890Y-112731524D01*
X158242000Y-112852845D01*
X157988000Y-112852845D01*
X157758110Y-112731524D01*
X157348076Y-112901355D01*
X156919817Y-113291642D01*
X156858843Y-113421478D01*
X156645625Y-113102375D01*
X156335000Y-112894822D01*
X156335000Y-107976872D01*
X157571837Y-109213709D01*
X157528720Y-109231569D01*
X157237569Y-109522720D01*
X157080000Y-109903126D01*
X157080000Y-110314874D01*
X157237569Y-110695280D01*
X157528720Y-110986431D01*
X157909126Y-111144000D01*
X158075198Y-111144000D01*
X158286670Y-111355472D01*
X158329071Y-111418929D01*
X158392527Y-111461329D01*
X158580462Y-111586904D01*
X158618148Y-111594400D01*
X158802148Y-111631000D01*
X158802152Y-111631000D01*
X158877000Y-111645888D01*
X158951848Y-111631000D01*
X161606192Y-111631000D01*
X161748365Y-111773173D01*
X161790766Y-111836631D01*
X161854224Y-111879032D01*
X162789942Y-112814751D01*
X162832342Y-112878207D01*
X162895798Y-112920607D01*
X163083733Y-113046182D01*
X163131876Y-113055758D01*
X163305419Y-113090278D01*
X163305423Y-113090278D01*
X163380271Y-113105166D01*
X163455119Y-113090278D01*
X163563801Y-113090278D01*
X163681232Y-113207709D01*
X164061638Y-113365278D01*
X164473386Y-113365278D01*
X164853792Y-113207709D01*
X165144943Y-112916558D01*
X165302512Y-112536152D01*
X165302512Y-112323947D01*
X165313252Y-112319498D01*
X165604403Y-112028347D01*
X165761972Y-111647941D01*
X165761972Y-111459685D01*
X165842875Y-111338605D01*
X165886971Y-111116920D01*
X165886971Y-111116916D01*
X165901859Y-111042069D01*
X165886971Y-110967222D01*
X165886971Y-107525772D01*
X169653000Y-111291803D01*
X169653000Y-111457874D01*
X169810569Y-111838280D01*
X170101720Y-112129431D01*
X170482126Y-112287000D01*
X170893874Y-112287000D01*
X171274280Y-112129431D01*
X171565431Y-111838280D01*
X171723000Y-111457874D01*
X171723000Y-111046126D01*
X171565431Y-110665720D01*
X171274280Y-110374569D01*
X170893874Y-110217000D01*
X170727803Y-110217000D01*
X166876000Y-106365199D01*
X166876000Y-94556711D01*
X166993431Y-94439280D01*
X167151000Y-94058874D01*
X167151000Y-93647126D01*
X166993431Y-93266720D01*
X166702280Y-92975569D01*
X166321874Y-92818000D01*
X165910126Y-92818000D01*
X165529720Y-92975569D01*
X165238569Y-93266720D01*
X165081000Y-93647126D01*
X165081000Y-94058874D01*
X165140838Y-94203336D01*
X163544200Y-92606699D01*
X163544200Y-92440626D01*
X163386631Y-92060220D01*
X163269200Y-91942789D01*
X163269200Y-88182400D01*
X163629474Y-88182400D01*
X164009880Y-88024831D01*
X164301031Y-87733680D01*
X164458600Y-87353274D01*
X164458600Y-87187201D01*
X165586740Y-86059062D01*
X165592626Y-86061500D01*
X166004374Y-86061500D01*
X166189866Y-85984667D01*
X169674000Y-89468803D01*
X169674000Y-89468803D01*
G37*
X169674000Y-89468803D02*
X169674001Y-92819138D01*
X169481971Y-92739597D01*
X169070223Y-92739597D01*
X168689817Y-92897166D01*
X168398666Y-93188317D01*
X168241097Y-93568723D01*
X168241097Y-93980471D01*
X168398666Y-94360877D01*
X168516097Y-94478308D01*
X168516098Y-95350746D01*
X168501209Y-95425597D01*
X168560194Y-95722134D01*
X168611365Y-95798716D01*
X168728169Y-95973526D01*
X168791625Y-96015926D01*
X172701000Y-99925303D01*
X172701000Y-100091374D01*
X172858569Y-100471780D01*
X173149720Y-100762931D01*
X173530126Y-100920500D01*
X173941874Y-100920500D01*
X174322280Y-100762931D01*
X174613431Y-100471780D01*
X174659722Y-100360024D01*
X175609930Y-101310232D01*
X172616528Y-104303635D01*
X172553072Y-104346035D01*
X172510672Y-104409491D01*
X172510671Y-104409492D01*
X172385097Y-104597427D01*
X172326112Y-104893964D01*
X172341001Y-104968816D01*
X172341000Y-108897289D01*
X172223569Y-109014720D01*
X172066000Y-109395126D01*
X172066000Y-109806874D01*
X172223569Y-110187280D01*
X172514720Y-110478431D01*
X172895126Y-110636000D01*
X173306874Y-110636000D01*
X173687280Y-110478431D01*
X173978431Y-110187280D01*
X174136000Y-109806874D01*
X174136000Y-109395126D01*
X173978431Y-109014720D01*
X173861000Y-108897289D01*
X173861000Y-105208765D01*
X177040001Y-102029766D01*
X177040001Y-111247199D01*
X167762286Y-120524915D01*
X167662387Y-120283736D01*
X167395532Y-120185073D01*
X166422605Y-121158000D01*
X166436748Y-121172143D01*
X166257143Y-121351748D01*
X166243000Y-121337605D01*
X166228858Y-121351748D01*
X166049253Y-121172143D01*
X166063395Y-121158000D01*
X165090468Y-120185073D01*
X164823613Y-120283736D01*
X164597092Y-120893461D01*
X164621144Y-121543460D01*
X164695512Y-121723001D01*
X163382802Y-121723001D01*
X163333330Y-121673529D01*
X163333328Y-121673526D01*
X163309177Y-121649375D01*
X163378000Y-121483222D01*
X163378000Y-120832778D01*
X163129086Y-120231847D01*
X162669153Y-119771914D01*
X162503000Y-119703091D01*
X162503000Y-116605008D01*
X162511874Y-116605008D01*
X162892280Y-116447439D01*
X163183431Y-116156288D01*
X163341000Y-115775882D01*
X163341000Y-115597402D01*
X164391536Y-115597402D01*
X164391536Y-116009150D01*
X164549105Y-116389556D01*
X164840256Y-116680707D01*
X165220662Y-116838276D01*
X165632410Y-116838276D01*
X166012816Y-116680707D01*
X166109523Y-116584000D01*
X166813289Y-116584000D01*
X166762569Y-116634720D01*
X166605000Y-117015126D01*
X166605000Y-117163146D01*
X166595946Y-117169196D01*
X166427971Y-117420589D01*
X166383875Y-117642274D01*
X166383875Y-117642278D01*
X166368987Y-117717125D01*
X166383875Y-117791972D01*
X166383875Y-117967301D01*
X166266444Y-118084732D01*
X166108875Y-118465138D01*
X166108875Y-118876886D01*
X166266444Y-119257292D01*
X166529345Y-119520193D01*
X166507539Y-119512092D01*
X165857540Y-119536144D01*
X165368736Y-119738613D01*
X165270073Y-120005468D01*
X166243000Y-120978395D01*
X167215927Y-120005468D01*
X167117264Y-119738613D01*
X167029512Y-119706012D01*
X167349749Y-119706012D01*
X167730155Y-119548443D01*
X168021306Y-119257292D01*
X168178875Y-118876886D01*
X168178875Y-118465138D01*
X168056167Y-118168894D01*
X168226280Y-118098431D01*
X168402000Y-117922711D01*
X168577720Y-118098431D01*
X168958126Y-118256000D01*
X169369874Y-118256000D01*
X169750280Y-118098431D01*
X170041431Y-117807280D01*
X170199000Y-117426874D01*
X170199000Y-117124484D01*
X170435351Y-116888133D01*
X170592920Y-116507727D01*
X170592920Y-116095979D01*
X170435351Y-115715573D01*
X170144200Y-115424422D01*
X169763794Y-115266853D01*
X169597722Y-115266853D01*
X168945398Y-114614530D01*
X168902996Y-114551071D01*
X168651604Y-114383096D01*
X168429919Y-114339000D01*
X168429914Y-114339000D01*
X168355067Y-114324112D01*
X168280220Y-114339000D01*
X166876501Y-114339000D01*
X166759070Y-114221569D01*
X166378664Y-114064000D01*
X165966916Y-114064000D01*
X165586510Y-114221569D01*
X165295359Y-114512720D01*
X165183052Y-114783855D01*
X164840256Y-114925845D01*
X164549105Y-115216996D01*
X164391536Y-115597402D01*
X163341000Y-115597402D01*
X163341000Y-115364134D01*
X163183431Y-114983728D01*
X162892280Y-114692577D01*
X162511874Y-114535008D01*
X162100126Y-114535008D01*
X161719720Y-114692577D01*
X161428569Y-114983728D01*
X161271000Y-115364134D01*
X161271000Y-115530207D01*
X161258528Y-115542679D01*
X161195072Y-115585079D01*
X161152672Y-115648535D01*
X161152671Y-115648536D01*
X161027097Y-115836471D01*
X160968112Y-116133008D01*
X160983001Y-116207860D01*
X160983000Y-119703091D01*
X160816847Y-119771914D01*
X160356914Y-120231847D01*
X160288091Y-120398000D01*
X157794802Y-120398000D01*
X153054801Y-115658000D01*
X153181256Y-115658000D01*
X153614418Y-115571839D01*
X154105625Y-115243625D01*
X154305000Y-114945239D01*
X154504375Y-115243625D01*
X154995582Y-115571839D01*
X155428744Y-115658000D01*
X155721256Y-115658000D01*
X156154418Y-115571839D01*
X156645625Y-115243625D01*
X156858843Y-114924522D01*
X156919817Y-115054358D01*
X157348076Y-115444645D01*
X157758110Y-115614476D01*
X157988000Y-115493155D01*
X157988000Y-114300000D01*
X158242000Y-114300000D01*
X158242000Y-115493155D01*
X158471890Y-115614476D01*
X158881924Y-115444645D01*
X159310183Y-115054358D01*
X159556486Y-114529892D01*
X159435819Y-114300000D01*
X158242000Y-114300000D01*
X157988000Y-114300000D01*
X157968000Y-114300000D01*
X157968000Y-114046000D01*
X157988000Y-114046000D01*
X157988000Y-112852845D01*
X158242000Y-112852845D01*
X158242000Y-114046000D01*
X159435819Y-114046000D01*
X159556486Y-113816108D01*
X159310183Y-113291642D01*
X158881924Y-112901355D01*
X158471890Y-112731524D01*
X158242000Y-112852845D01*
X157988000Y-112852845D01*
X157758110Y-112731524D01*
X157348076Y-112901355D01*
X156919817Y-113291642D01*
X156858843Y-113421478D01*
X156645625Y-113102375D01*
X156335000Y-112894822D01*
X156335000Y-107976872D01*
X157571837Y-109213709D01*
X157528720Y-109231569D01*
X157237569Y-109522720D01*
X157080000Y-109903126D01*
X157080000Y-110314874D01*
X157237569Y-110695280D01*
X157528720Y-110986431D01*
X157909126Y-111144000D01*
X158075198Y-111144000D01*
X158286670Y-111355472D01*
X158329071Y-111418929D01*
X158392527Y-111461329D01*
X158580462Y-111586904D01*
X158618148Y-111594400D01*
X158802148Y-111631000D01*
X158802152Y-111631000D01*
X158877000Y-111645888D01*
X158951848Y-111631000D01*
X161606192Y-111631000D01*
X161748365Y-111773173D01*
X161790766Y-111836631D01*
X161854224Y-111879032D01*
X162789942Y-112814751D01*
X162832342Y-112878207D01*
X162895798Y-112920607D01*
X163083733Y-113046182D01*
X163131876Y-113055758D01*
X163305419Y-113090278D01*
X163305423Y-113090278D01*
X163380271Y-113105166D01*
X163455119Y-113090278D01*
X163563801Y-113090278D01*
X163681232Y-113207709D01*
X164061638Y-113365278D01*
X164473386Y-113365278D01*
X164853792Y-113207709D01*
X165144943Y-112916558D01*
X165302512Y-112536152D01*
X165302512Y-112323947D01*
X165313252Y-112319498D01*
X165604403Y-112028347D01*
X165761972Y-111647941D01*
X165761972Y-111459685D01*
X165842875Y-111338605D01*
X165886971Y-111116920D01*
X165886971Y-111116916D01*
X165901859Y-111042069D01*
X165886971Y-110967222D01*
X165886971Y-107525772D01*
X169653000Y-111291803D01*
X169653000Y-111457874D01*
X169810569Y-111838280D01*
X170101720Y-112129431D01*
X170482126Y-112287000D01*
X170893874Y-112287000D01*
X171274280Y-112129431D01*
X171565431Y-111838280D01*
X171723000Y-111457874D01*
X171723000Y-111046126D01*
X171565431Y-110665720D01*
X171274280Y-110374569D01*
X170893874Y-110217000D01*
X170727803Y-110217000D01*
X166876000Y-106365199D01*
X166876000Y-94556711D01*
X166993431Y-94439280D01*
X167151000Y-94058874D01*
X167151000Y-93647126D01*
X166993431Y-93266720D01*
X166702280Y-92975569D01*
X166321874Y-92818000D01*
X165910126Y-92818000D01*
X165529720Y-92975569D01*
X165238569Y-93266720D01*
X165081000Y-93647126D01*
X165081000Y-94058874D01*
X165140838Y-94203336D01*
X163544200Y-92606699D01*
X163544200Y-92440626D01*
X163386631Y-92060220D01*
X163269200Y-91942789D01*
X163269200Y-88182400D01*
X163629474Y-88182400D01*
X164009880Y-88024831D01*
X164301031Y-87733680D01*
X164458600Y-87353274D01*
X164458600Y-87187201D01*
X165586740Y-86059062D01*
X165592626Y-86061500D01*
X166004374Y-86061500D01*
X166189866Y-85984667D01*
X169674000Y-89468803D01*
G36*
X164366971Y-95579073D02*
X164366972Y-107100294D01*
X164352186Y-107085509D01*
X164352186Y-106919436D01*
X164194617Y-106539030D01*
X163903466Y-106247879D01*
X163523060Y-106090310D01*
X163111312Y-106090310D01*
X162730906Y-106247879D01*
X162439755Y-106539030D01*
X162410063Y-106610712D01*
X162320933Y-106521582D01*
X162320933Y-93681500D01*
X162469399Y-93681500D01*
X164366971Y-95579073D01*
X164366971Y-95579073D01*
G37*
X164366971Y-95579073D02*
X164366972Y-107100294D01*
X164352186Y-107085509D01*
X164352186Y-106919436D01*
X164194617Y-106539030D01*
X163903466Y-106247879D01*
X163523060Y-106090310D01*
X163111312Y-106090310D01*
X162730906Y-106247879D01*
X162439755Y-106539030D01*
X162410063Y-106610712D01*
X162320933Y-106521582D01*
X162320933Y-93681500D01*
X162469399Y-93681500D01*
X164366971Y-95579073D01*
G36*
X177927000Y-89789000D02*
X177947000Y-89789000D01*
X177947000Y-90043000D01*
X177927000Y-90043000D01*
X177927000Y-90063000D01*
X177673000Y-90063000D01*
X177673000Y-90043000D01*
X177653000Y-90043000D01*
X177653000Y-89789000D01*
X177673000Y-89789000D01*
X177673000Y-89769000D01*
X177927000Y-89769000D01*
X177927000Y-89789000D01*
X177927000Y-89789000D01*
G37*
X177927000Y-89789000D02*
X177947000Y-89789000D01*
X177947000Y-90043000D01*
X177927000Y-90043000D01*
X177927000Y-90063000D01*
X177673000Y-90063000D01*
X177673000Y-90043000D01*
X177653000Y-90043000D01*
X177653000Y-89789000D01*
X177673000Y-89789000D01*
X177673000Y-89769000D01*
X177927000Y-89769000D01*
X177927000Y-89789000D01*
G04 #@! TD*
M02*
