G04 #@! TF.GenerationSoftware,KiCad,Pcbnew,(5.0.1)-3*
G04 #@! TF.CreationDate,2018-11-02T13:07:49-05:00*
G04 #@! TF.ProjectId,ProgrammerBoard,50726F6772616D6D6572426F6172642E,rev?*
G04 #@! TF.SameCoordinates,Original*
G04 #@! TF.FileFunction,Copper,L2,Bot,Signal*
G04 #@! TF.FilePolarity,Positive*
%FSLAX46Y46*%
G04 Gerber Fmt 4.6, Leading zero omitted, Abs format (unit mm)*
G04 Created by KiCad (PCBNEW (5.0.1)-3) date 11/2/2018 1:07:49 PM*
%MOMM*%
%LPD*%
G01*
G04 APERTURE LIST*
G04 #@! TA.AperFunction,ComponentPad*
%ADD10O,1.000000X1.000000*%
G04 #@! TD*
G04 #@! TA.AperFunction,ComponentPad*
%ADD11R,1.000000X1.000000*%
G04 #@! TD*
G04 #@! TA.AperFunction,ComponentPad*
%ADD12O,1.350000X1.700000*%
G04 #@! TD*
G04 #@! TA.AperFunction,ComponentPad*
%ADD13O,1.100000X1.500000*%
G04 #@! TD*
G04 #@! TA.AperFunction,ViaPad*
%ADD14C,0.800000*%
G04 #@! TD*
G04 #@! TA.AperFunction,Conductor*
%ADD15C,0.250000*%
G04 #@! TD*
G04 #@! TA.AperFunction,Conductor*
%ADD16C,0.500000*%
G04 #@! TD*
G04 #@! TA.AperFunction,Conductor*
%ADD17C,0.254000*%
G04 #@! TD*
G04 APERTURE END LIST*
D10*
G04 #@! TO.P,J2,8*
G04 #@! TO.N,+5V*
X58420000Y-42672000D03*
G04 #@! TO.P,J2,7*
G04 #@! TO.N,GND*
X58420000Y-43942000D03*
G04 #@! TO.P,J2,6*
G04 #@! TO.N,Net-(J2-Pad6)*
X58420000Y-45212000D03*
G04 #@! TO.P,J2,5*
G04 #@! TO.N,Net-(J2-Pad5)*
X58420000Y-46482000D03*
G04 #@! TO.P,J2,4*
G04 #@! TO.N,Net-(J2-Pad4)*
X58420000Y-47752000D03*
G04 #@! TO.P,J2,3*
G04 #@! TO.N,Net-(J2-Pad3)*
X58420000Y-49022000D03*
G04 #@! TO.P,J2,2*
G04 #@! TO.N,Net-(J2-Pad2)*
X58420000Y-50292000D03*
D11*
G04 #@! TO.P,J2,1*
G04 #@! TO.N,Net-(C1-Pad1)*
X58420000Y-51562000D03*
G04 #@! TD*
D12*
G04 #@! TO.P,J1,6*
G04 #@! TO.N,GND*
X75404000Y-57490000D03*
X69944000Y-57490000D03*
D13*
X75094000Y-54490000D03*
X70254000Y-54490000D03*
G04 #@! TD*
D14*
G04 #@! TO.N,Net-(C1-Pad2)*
X64008000Y-48006000D03*
X65659000Y-42163994D03*
G04 #@! TO.N,+5V*
X72644000Y-46482000D03*
X71374000Y-50038000D03*
G04 #@! TO.N,Net-(IC1-Pad1)*
X71120000Y-42671968D03*
X69596000Y-50546000D03*
G04 #@! TO.N,Net-(IC1-Pad22)*
X77470000Y-46990000D03*
X77470000Y-45212000D03*
G04 #@! TO.N,Net-(J2-Pad2)*
X61341000Y-50165000D03*
X61722000Y-47371000D03*
G04 #@! TO.N,Net-(J2-Pad3)*
X64897000Y-50165000D03*
X62066010Y-49022000D03*
G04 #@! TO.N,GND*
X78105000Y-35560000D03*
X76835000Y-35560000D03*
X75565000Y-35560000D03*
X74295000Y-35560000D03*
X73025000Y-35560000D03*
X71755000Y-35560000D03*
X70485000Y-35560000D03*
X69215000Y-35560000D03*
X67945000Y-35560000D03*
X66675000Y-35560000D03*
X65405000Y-35560000D03*
X64135000Y-35560000D03*
X62865000Y-35560000D03*
X61595000Y-35560000D03*
X60325000Y-35560000D03*
X59055000Y-35560000D03*
X57785000Y-35560000D03*
X57150000Y-36830000D03*
X57150000Y-38100000D03*
X57150000Y-39370000D03*
X57150000Y-40640000D03*
X57150000Y-41910000D03*
X57150000Y-43180000D03*
X57150000Y-44450000D03*
X57150000Y-45720000D03*
X57150000Y-46990000D03*
X57150000Y-48260000D03*
X57150000Y-49530000D03*
X57150000Y-50800000D03*
X57150000Y-52070000D03*
X57150000Y-53340000D03*
X57150000Y-54610000D03*
X62230000Y-59055000D03*
X63500000Y-59055000D03*
X64770000Y-59055000D03*
X66040000Y-59055000D03*
X67310000Y-59055000D03*
X68580000Y-59055000D03*
X69850000Y-59055000D03*
X75565000Y-59055000D03*
X76835000Y-59055000D03*
X78105000Y-59055000D03*
X79375000Y-59055000D03*
X80645000Y-59055000D03*
X81915000Y-59055000D03*
X82550000Y-57785000D03*
X82550000Y-56515000D03*
X82550000Y-55245000D03*
X82550000Y-53975000D03*
X82550000Y-52705000D03*
X82550000Y-51435000D03*
X82550000Y-50165000D03*
X82550000Y-48895000D03*
X82550000Y-47625000D03*
X82550000Y-46355000D03*
X82550000Y-45085000D03*
X82550000Y-43815000D03*
X82550000Y-42545000D03*
X82550000Y-41275000D03*
X69215000Y-49530000D03*
X69215000Y-48260000D03*
X69215000Y-46990000D03*
X69215000Y-45720000D03*
X69215000Y-44450000D03*
X71755000Y-48260000D03*
G04 #@! TD*
D15*
G04 #@! TO.N,Net-(C1-Pad2)*
X65659000Y-46355000D02*
X65659000Y-42729679D01*
X65659000Y-42729679D02*
X65659000Y-42163994D01*
X64008000Y-48006000D02*
X65659000Y-46355000D01*
D16*
G04 #@! TO.N,+5V*
X72644000Y-48641000D02*
X72644000Y-46482000D01*
X71374000Y-50038000D02*
X71374000Y-49911000D01*
X71374000Y-49911000D02*
X72644000Y-48641000D01*
D15*
G04 #@! TO.N,Net-(IC1-Pad1)*
X70923989Y-49218011D02*
X70923989Y-47311600D01*
X70923989Y-47311600D02*
X71120000Y-47115589D01*
X69596000Y-50546000D02*
X70923989Y-49218011D01*
X71120000Y-43237653D02*
X71120000Y-42671968D01*
X71120000Y-47115589D02*
X71120000Y-43237653D01*
G04 #@! TO.N,Net-(IC1-Pad22)*
X77470000Y-46990000D02*
X77470000Y-45212000D01*
G04 #@! TO.N,Net-(J2-Pad2)*
X61341000Y-47752000D02*
X61722000Y-47371000D01*
X61341000Y-50165000D02*
X61341000Y-47752000D01*
G04 #@! TO.N,Net-(J2-Pad3)*
X65024000Y-50165000D02*
X64897000Y-50165000D01*
X62466009Y-49421999D02*
X62066010Y-49022000D01*
X63209010Y-50165000D02*
X62466009Y-49421999D01*
X64897000Y-50165000D02*
X63209010Y-50165000D01*
G04 #@! TD*
D17*
G04 #@! TO.N,GND*
G36*
X83110000Y-59488000D02*
X57098000Y-59488000D01*
X57098000Y-57058887D01*
X57447000Y-57058887D01*
X57447000Y-57749113D01*
X57711138Y-58386799D01*
X58199201Y-58874862D01*
X58836887Y-59139000D01*
X59527113Y-59139000D01*
X60164799Y-58874862D01*
X60652862Y-58386799D01*
X60886443Y-57822883D01*
X68640327Y-57822883D01*
X68799982Y-58309759D01*
X69133804Y-58698476D01*
X69590971Y-58929856D01*
X69614600Y-58932910D01*
X69817000Y-58809224D01*
X69817000Y-57617000D01*
X70071000Y-57617000D01*
X70071000Y-58809224D01*
X70273400Y-58932910D01*
X70297029Y-58929856D01*
X70754196Y-58698476D01*
X71088018Y-58309759D01*
X71247673Y-57822883D01*
X74100327Y-57822883D01*
X74259982Y-58309759D01*
X74593804Y-58698476D01*
X75050971Y-58929856D01*
X75074600Y-58932910D01*
X75277000Y-58809224D01*
X75277000Y-57617000D01*
X75531000Y-57617000D01*
X75531000Y-58809224D01*
X75733400Y-58932910D01*
X75757029Y-58929856D01*
X76214196Y-58698476D01*
X76548018Y-58309759D01*
X76707673Y-57822883D01*
X76557571Y-57617000D01*
X75531000Y-57617000D01*
X75277000Y-57617000D01*
X74250429Y-57617000D01*
X74100327Y-57822883D01*
X71247673Y-57822883D01*
X71097571Y-57617000D01*
X70071000Y-57617000D01*
X69817000Y-57617000D01*
X68790429Y-57617000D01*
X68640327Y-57822883D01*
X60886443Y-57822883D01*
X60917000Y-57749113D01*
X60917000Y-57157117D01*
X68640327Y-57157117D01*
X68790429Y-57363000D01*
X69817000Y-57363000D01*
X69817000Y-56170776D01*
X70071000Y-56170776D01*
X70071000Y-57363000D01*
X71097571Y-57363000D01*
X71247673Y-57157117D01*
X74100327Y-57157117D01*
X74250429Y-57363000D01*
X75277000Y-57363000D01*
X75277000Y-56170776D01*
X75531000Y-56170776D01*
X75531000Y-57363000D01*
X76557571Y-57363000D01*
X76707673Y-57157117D01*
X76548018Y-56670241D01*
X76214196Y-56281524D01*
X75757029Y-56050144D01*
X75733400Y-56047090D01*
X75531000Y-56170776D01*
X75277000Y-56170776D01*
X75074600Y-56047090D01*
X75050971Y-56050144D01*
X74593804Y-56281524D01*
X74259982Y-56670241D01*
X74100327Y-57157117D01*
X71247673Y-57157117D01*
X71088018Y-56670241D01*
X70754196Y-56281524D01*
X70297029Y-56050144D01*
X70273400Y-56047090D01*
X70071000Y-56170776D01*
X69817000Y-56170776D01*
X69614600Y-56047090D01*
X69590971Y-56050144D01*
X69133804Y-56281524D01*
X68799982Y-56670241D01*
X68640327Y-57157117D01*
X60917000Y-57157117D01*
X60917000Y-57058887D01*
X60652862Y-56421201D01*
X60164799Y-55933138D01*
X59527113Y-55669000D01*
X58836887Y-55669000D01*
X58199201Y-55933138D01*
X57711138Y-56421201D01*
X57447000Y-57058887D01*
X57098000Y-57058887D01*
X57098000Y-54803883D01*
X69068320Y-54803883D01*
X69202156Y-55248954D01*
X69496125Y-55608929D01*
X69905474Y-55829006D01*
X69944256Y-55833803D01*
X70127000Y-55708361D01*
X70127000Y-54617000D01*
X70381000Y-54617000D01*
X70381000Y-55708361D01*
X70563744Y-55833803D01*
X70602526Y-55829006D01*
X71011875Y-55608929D01*
X71305844Y-55248954D01*
X71439680Y-54803883D01*
X73908320Y-54803883D01*
X74042156Y-55248954D01*
X74336125Y-55608929D01*
X74745474Y-55829006D01*
X74784256Y-55833803D01*
X74967000Y-55708361D01*
X74967000Y-54617000D01*
X75221000Y-54617000D01*
X75221000Y-55708361D01*
X75403744Y-55833803D01*
X75442526Y-55829006D01*
X75851875Y-55608929D01*
X76145844Y-55248954D01*
X76279680Y-54803883D01*
X76124148Y-54617000D01*
X75221000Y-54617000D01*
X74967000Y-54617000D01*
X74063852Y-54617000D01*
X73908320Y-54803883D01*
X71439680Y-54803883D01*
X71284148Y-54617000D01*
X70381000Y-54617000D01*
X70127000Y-54617000D01*
X69223852Y-54617000D01*
X69068320Y-54803883D01*
X57098000Y-54803883D01*
X57098000Y-54176117D01*
X69068320Y-54176117D01*
X69223852Y-54363000D01*
X70127000Y-54363000D01*
X70127000Y-53271639D01*
X70381000Y-53271639D01*
X70381000Y-54363000D01*
X71284148Y-54363000D01*
X71439680Y-54176117D01*
X73908320Y-54176117D01*
X74063852Y-54363000D01*
X74967000Y-54363000D01*
X74967000Y-53271639D01*
X75221000Y-53271639D01*
X75221000Y-54363000D01*
X76124148Y-54363000D01*
X76279680Y-54176117D01*
X76145844Y-53731046D01*
X75851875Y-53371071D01*
X75442526Y-53150994D01*
X75403744Y-53146197D01*
X75221000Y-53271639D01*
X74967000Y-53271639D01*
X74784256Y-53146197D01*
X74745474Y-53150994D01*
X74336125Y-53371071D01*
X74042156Y-53731046D01*
X73908320Y-54176117D01*
X71439680Y-54176117D01*
X71305844Y-53731046D01*
X71011875Y-53371071D01*
X70602526Y-53150994D01*
X70563744Y-53146197D01*
X70381000Y-53271639D01*
X70127000Y-53271639D01*
X69944256Y-53146197D01*
X69905474Y-53150994D01*
X69496125Y-53371071D01*
X69202156Y-53731046D01*
X69068320Y-54176117D01*
X57098000Y-54176117D01*
X57098000Y-45212000D01*
X57262765Y-45212000D01*
X57350854Y-45654855D01*
X57479241Y-45847000D01*
X57350854Y-46039145D01*
X57262765Y-46482000D01*
X57350854Y-46924855D01*
X57479241Y-47117000D01*
X57350854Y-47309145D01*
X57262765Y-47752000D01*
X57350854Y-48194855D01*
X57479241Y-48387000D01*
X57350854Y-48579145D01*
X57262765Y-49022000D01*
X57350854Y-49464855D01*
X57479241Y-49657000D01*
X57350854Y-49849145D01*
X57262765Y-50292000D01*
X57350854Y-50734855D01*
X57362869Y-50752836D01*
X57321843Y-50814235D01*
X57272560Y-51062000D01*
X57272560Y-52062000D01*
X57321843Y-52309765D01*
X57462191Y-52519809D01*
X57672235Y-52660157D01*
X57920000Y-52709440D01*
X58920000Y-52709440D01*
X59167765Y-52660157D01*
X59377809Y-52519809D01*
X59518157Y-52309765D01*
X59567440Y-52062000D01*
X59567440Y-51062000D01*
X59518157Y-50814235D01*
X59477131Y-50752836D01*
X59489146Y-50734855D01*
X59577235Y-50292000D01*
X59511023Y-49959126D01*
X60306000Y-49959126D01*
X60306000Y-50370874D01*
X60463569Y-50751280D01*
X60754720Y-51042431D01*
X61135126Y-51200000D01*
X61546874Y-51200000D01*
X61927280Y-51042431D01*
X62218431Y-50751280D01*
X62365480Y-50396272D01*
X62618681Y-50649473D01*
X62661081Y-50712929D01*
X62912473Y-50880904D01*
X63134158Y-50925000D01*
X63134162Y-50925000D01*
X63209009Y-50939888D01*
X63283856Y-50925000D01*
X64193289Y-50925000D01*
X64310720Y-51042431D01*
X64691126Y-51200000D01*
X65102874Y-51200000D01*
X65483280Y-51042431D01*
X65774431Y-50751280D01*
X65932000Y-50370874D01*
X65932000Y-50340126D01*
X68561000Y-50340126D01*
X68561000Y-50751874D01*
X68718569Y-51132280D01*
X69009720Y-51423431D01*
X69390126Y-51581000D01*
X69801874Y-51581000D01*
X70182280Y-51423431D01*
X70473431Y-51132280D01*
X70628997Y-50756708D01*
X70787720Y-50915431D01*
X71168126Y-51073000D01*
X71579874Y-51073000D01*
X71960280Y-50915431D01*
X72251431Y-50624280D01*
X72409000Y-50243874D01*
X72409000Y-50127578D01*
X73208156Y-49328423D01*
X73282049Y-49279049D01*
X73477652Y-48986310D01*
X73529000Y-48728165D01*
X73529000Y-48728161D01*
X73546337Y-48641001D01*
X73529000Y-48553841D01*
X73529000Y-47050007D01*
X73679000Y-46687874D01*
X73679000Y-46276126D01*
X73521431Y-45895720D01*
X73230280Y-45604569D01*
X72849874Y-45447000D01*
X72438126Y-45447000D01*
X72057720Y-45604569D01*
X71880000Y-45782289D01*
X71880000Y-45006126D01*
X76435000Y-45006126D01*
X76435000Y-45417874D01*
X76592569Y-45798280D01*
X76710001Y-45915712D01*
X76710000Y-46286289D01*
X76592569Y-46403720D01*
X76435000Y-46784126D01*
X76435000Y-47195874D01*
X76592569Y-47576280D01*
X76883720Y-47867431D01*
X77264126Y-48025000D01*
X77675874Y-48025000D01*
X78056280Y-47867431D01*
X78347431Y-47576280D01*
X78505000Y-47195874D01*
X78505000Y-46784126D01*
X78347431Y-46403720D01*
X78230000Y-46286289D01*
X78230000Y-45915711D01*
X78347431Y-45798280D01*
X78505000Y-45417874D01*
X78505000Y-45006126D01*
X78347431Y-44625720D01*
X78056280Y-44334569D01*
X77675874Y-44177000D01*
X77264126Y-44177000D01*
X76883720Y-44334569D01*
X76592569Y-44625720D01*
X76435000Y-45006126D01*
X71880000Y-45006126D01*
X71880000Y-43375679D01*
X71997431Y-43258248D01*
X72155000Y-42877842D01*
X72155000Y-42466094D01*
X71997431Y-42085688D01*
X71706280Y-41794537D01*
X71325874Y-41636968D01*
X70914126Y-41636968D01*
X70533720Y-41794537D01*
X70242569Y-42085688D01*
X70085000Y-42466094D01*
X70085000Y-42877842D01*
X70242569Y-43258248D01*
X70360001Y-43375680D01*
X70360000Y-46787708D01*
X70333661Y-46827127D01*
X70333660Y-46827128D01*
X70208086Y-47015063D01*
X70149101Y-47311600D01*
X70163990Y-47386452D01*
X70163989Y-48903209D01*
X69556199Y-49511000D01*
X69390126Y-49511000D01*
X69009720Y-49668569D01*
X68718569Y-49959720D01*
X68561000Y-50340126D01*
X65932000Y-50340126D01*
X65932000Y-49959126D01*
X65774431Y-49578720D01*
X65483280Y-49287569D01*
X65102874Y-49130000D01*
X64691126Y-49130000D01*
X64310720Y-49287569D01*
X64193289Y-49405000D01*
X63523812Y-49405000D01*
X63101010Y-48982199D01*
X63101010Y-48816126D01*
X62943441Y-48435720D01*
X62652290Y-48144569D01*
X62482480Y-48074231D01*
X62599431Y-47957280D01*
X62664526Y-47800126D01*
X62973000Y-47800126D01*
X62973000Y-48211874D01*
X63130569Y-48592280D01*
X63421720Y-48883431D01*
X63802126Y-49041000D01*
X64213874Y-49041000D01*
X64594280Y-48883431D01*
X64885431Y-48592280D01*
X65043000Y-48211874D01*
X65043000Y-48045801D01*
X66143473Y-46945329D01*
X66206929Y-46902929D01*
X66374904Y-46651537D01*
X66419000Y-46429852D01*
X66419000Y-46429848D01*
X66433888Y-46355000D01*
X66419000Y-46280152D01*
X66419000Y-42867705D01*
X66536431Y-42750274D01*
X66694000Y-42369868D01*
X66694000Y-41958120D01*
X66536431Y-41577714D01*
X66245280Y-41286563D01*
X65864874Y-41128994D01*
X65453126Y-41128994D01*
X65072720Y-41286563D01*
X64781569Y-41577714D01*
X64624000Y-41958120D01*
X64624000Y-42369868D01*
X64781569Y-42750274D01*
X64899001Y-42867706D01*
X64899000Y-46040198D01*
X63968199Y-46971000D01*
X63802126Y-46971000D01*
X63421720Y-47128569D01*
X63130569Y-47419720D01*
X62973000Y-47800126D01*
X62664526Y-47800126D01*
X62757000Y-47576874D01*
X62757000Y-47165126D01*
X62599431Y-46784720D01*
X62308280Y-46493569D01*
X61927874Y-46336000D01*
X61516126Y-46336000D01*
X61135720Y-46493569D01*
X60844569Y-46784720D01*
X60687000Y-47165126D01*
X60687000Y-47362819D01*
X60654054Y-47412126D01*
X60625097Y-47455463D01*
X60612857Y-47517000D01*
X60566112Y-47752000D01*
X60581001Y-47826852D01*
X60581000Y-49461289D01*
X60463569Y-49578720D01*
X60306000Y-49959126D01*
X59511023Y-49959126D01*
X59489146Y-49849145D01*
X59360759Y-49657000D01*
X59489146Y-49464855D01*
X59577235Y-49022000D01*
X59489146Y-48579145D01*
X59360759Y-48387000D01*
X59489146Y-48194855D01*
X59577235Y-47752000D01*
X59489146Y-47309145D01*
X59360759Y-47117000D01*
X59489146Y-46924855D01*
X59577235Y-46482000D01*
X59489146Y-46039145D01*
X59360759Y-45847000D01*
X59489146Y-45654855D01*
X59577235Y-45212000D01*
X59489146Y-44769145D01*
X59352801Y-44565090D01*
X59407127Y-44502209D01*
X59514119Y-44243874D01*
X59387954Y-44069000D01*
X58547000Y-44069000D01*
X58547000Y-44080027D01*
X58531783Y-44077000D01*
X58308217Y-44077000D01*
X58293000Y-44080027D01*
X58293000Y-44069000D01*
X57452046Y-44069000D01*
X57325881Y-44243874D01*
X57432873Y-44502209D01*
X57487199Y-44565090D01*
X57350854Y-44769145D01*
X57262765Y-45212000D01*
X57098000Y-45212000D01*
X57098000Y-42672000D01*
X57262765Y-42672000D01*
X57350854Y-43114855D01*
X57487199Y-43318910D01*
X57432873Y-43381791D01*
X57325881Y-43640126D01*
X57452046Y-43815000D01*
X58293000Y-43815000D01*
X58293000Y-43803973D01*
X58308217Y-43807000D01*
X58531783Y-43807000D01*
X58547000Y-43803973D01*
X58547000Y-43815000D01*
X59387954Y-43815000D01*
X59514119Y-43640126D01*
X59407127Y-43381791D01*
X59352801Y-43318910D01*
X59489146Y-43114855D01*
X59577235Y-42672000D01*
X59489146Y-42229145D01*
X59238289Y-41853711D01*
X58862855Y-41602854D01*
X58531783Y-41537000D01*
X58308217Y-41537000D01*
X57977145Y-41602854D01*
X57601711Y-41853711D01*
X57350854Y-42229145D01*
X57262765Y-42672000D01*
X57098000Y-42672000D01*
X57098000Y-37246887D01*
X79291000Y-37246887D01*
X79291000Y-37937113D01*
X79555138Y-38574799D01*
X80043201Y-39062862D01*
X80680887Y-39327000D01*
X81371113Y-39327000D01*
X82008799Y-39062862D01*
X82496862Y-38574799D01*
X82761000Y-37937113D01*
X82761000Y-37246887D01*
X82496862Y-36609201D01*
X82008799Y-36121138D01*
X81371113Y-35857000D01*
X80680887Y-35857000D01*
X80043201Y-36121138D01*
X79555138Y-36609201D01*
X79291000Y-37246887D01*
X57098000Y-37246887D01*
X57098000Y-35508000D01*
X83110001Y-35508000D01*
X83110000Y-59488000D01*
X83110000Y-59488000D01*
G37*
X83110000Y-59488000D02*
X57098000Y-59488000D01*
X57098000Y-57058887D01*
X57447000Y-57058887D01*
X57447000Y-57749113D01*
X57711138Y-58386799D01*
X58199201Y-58874862D01*
X58836887Y-59139000D01*
X59527113Y-59139000D01*
X60164799Y-58874862D01*
X60652862Y-58386799D01*
X60886443Y-57822883D01*
X68640327Y-57822883D01*
X68799982Y-58309759D01*
X69133804Y-58698476D01*
X69590971Y-58929856D01*
X69614600Y-58932910D01*
X69817000Y-58809224D01*
X69817000Y-57617000D01*
X70071000Y-57617000D01*
X70071000Y-58809224D01*
X70273400Y-58932910D01*
X70297029Y-58929856D01*
X70754196Y-58698476D01*
X71088018Y-58309759D01*
X71247673Y-57822883D01*
X74100327Y-57822883D01*
X74259982Y-58309759D01*
X74593804Y-58698476D01*
X75050971Y-58929856D01*
X75074600Y-58932910D01*
X75277000Y-58809224D01*
X75277000Y-57617000D01*
X75531000Y-57617000D01*
X75531000Y-58809224D01*
X75733400Y-58932910D01*
X75757029Y-58929856D01*
X76214196Y-58698476D01*
X76548018Y-58309759D01*
X76707673Y-57822883D01*
X76557571Y-57617000D01*
X75531000Y-57617000D01*
X75277000Y-57617000D01*
X74250429Y-57617000D01*
X74100327Y-57822883D01*
X71247673Y-57822883D01*
X71097571Y-57617000D01*
X70071000Y-57617000D01*
X69817000Y-57617000D01*
X68790429Y-57617000D01*
X68640327Y-57822883D01*
X60886443Y-57822883D01*
X60917000Y-57749113D01*
X60917000Y-57157117D01*
X68640327Y-57157117D01*
X68790429Y-57363000D01*
X69817000Y-57363000D01*
X69817000Y-56170776D01*
X70071000Y-56170776D01*
X70071000Y-57363000D01*
X71097571Y-57363000D01*
X71247673Y-57157117D01*
X74100327Y-57157117D01*
X74250429Y-57363000D01*
X75277000Y-57363000D01*
X75277000Y-56170776D01*
X75531000Y-56170776D01*
X75531000Y-57363000D01*
X76557571Y-57363000D01*
X76707673Y-57157117D01*
X76548018Y-56670241D01*
X76214196Y-56281524D01*
X75757029Y-56050144D01*
X75733400Y-56047090D01*
X75531000Y-56170776D01*
X75277000Y-56170776D01*
X75074600Y-56047090D01*
X75050971Y-56050144D01*
X74593804Y-56281524D01*
X74259982Y-56670241D01*
X74100327Y-57157117D01*
X71247673Y-57157117D01*
X71088018Y-56670241D01*
X70754196Y-56281524D01*
X70297029Y-56050144D01*
X70273400Y-56047090D01*
X70071000Y-56170776D01*
X69817000Y-56170776D01*
X69614600Y-56047090D01*
X69590971Y-56050144D01*
X69133804Y-56281524D01*
X68799982Y-56670241D01*
X68640327Y-57157117D01*
X60917000Y-57157117D01*
X60917000Y-57058887D01*
X60652862Y-56421201D01*
X60164799Y-55933138D01*
X59527113Y-55669000D01*
X58836887Y-55669000D01*
X58199201Y-55933138D01*
X57711138Y-56421201D01*
X57447000Y-57058887D01*
X57098000Y-57058887D01*
X57098000Y-54803883D01*
X69068320Y-54803883D01*
X69202156Y-55248954D01*
X69496125Y-55608929D01*
X69905474Y-55829006D01*
X69944256Y-55833803D01*
X70127000Y-55708361D01*
X70127000Y-54617000D01*
X70381000Y-54617000D01*
X70381000Y-55708361D01*
X70563744Y-55833803D01*
X70602526Y-55829006D01*
X71011875Y-55608929D01*
X71305844Y-55248954D01*
X71439680Y-54803883D01*
X73908320Y-54803883D01*
X74042156Y-55248954D01*
X74336125Y-55608929D01*
X74745474Y-55829006D01*
X74784256Y-55833803D01*
X74967000Y-55708361D01*
X74967000Y-54617000D01*
X75221000Y-54617000D01*
X75221000Y-55708361D01*
X75403744Y-55833803D01*
X75442526Y-55829006D01*
X75851875Y-55608929D01*
X76145844Y-55248954D01*
X76279680Y-54803883D01*
X76124148Y-54617000D01*
X75221000Y-54617000D01*
X74967000Y-54617000D01*
X74063852Y-54617000D01*
X73908320Y-54803883D01*
X71439680Y-54803883D01*
X71284148Y-54617000D01*
X70381000Y-54617000D01*
X70127000Y-54617000D01*
X69223852Y-54617000D01*
X69068320Y-54803883D01*
X57098000Y-54803883D01*
X57098000Y-54176117D01*
X69068320Y-54176117D01*
X69223852Y-54363000D01*
X70127000Y-54363000D01*
X70127000Y-53271639D01*
X70381000Y-53271639D01*
X70381000Y-54363000D01*
X71284148Y-54363000D01*
X71439680Y-54176117D01*
X73908320Y-54176117D01*
X74063852Y-54363000D01*
X74967000Y-54363000D01*
X74967000Y-53271639D01*
X75221000Y-53271639D01*
X75221000Y-54363000D01*
X76124148Y-54363000D01*
X76279680Y-54176117D01*
X76145844Y-53731046D01*
X75851875Y-53371071D01*
X75442526Y-53150994D01*
X75403744Y-53146197D01*
X75221000Y-53271639D01*
X74967000Y-53271639D01*
X74784256Y-53146197D01*
X74745474Y-53150994D01*
X74336125Y-53371071D01*
X74042156Y-53731046D01*
X73908320Y-54176117D01*
X71439680Y-54176117D01*
X71305844Y-53731046D01*
X71011875Y-53371071D01*
X70602526Y-53150994D01*
X70563744Y-53146197D01*
X70381000Y-53271639D01*
X70127000Y-53271639D01*
X69944256Y-53146197D01*
X69905474Y-53150994D01*
X69496125Y-53371071D01*
X69202156Y-53731046D01*
X69068320Y-54176117D01*
X57098000Y-54176117D01*
X57098000Y-45212000D01*
X57262765Y-45212000D01*
X57350854Y-45654855D01*
X57479241Y-45847000D01*
X57350854Y-46039145D01*
X57262765Y-46482000D01*
X57350854Y-46924855D01*
X57479241Y-47117000D01*
X57350854Y-47309145D01*
X57262765Y-47752000D01*
X57350854Y-48194855D01*
X57479241Y-48387000D01*
X57350854Y-48579145D01*
X57262765Y-49022000D01*
X57350854Y-49464855D01*
X57479241Y-49657000D01*
X57350854Y-49849145D01*
X57262765Y-50292000D01*
X57350854Y-50734855D01*
X57362869Y-50752836D01*
X57321843Y-50814235D01*
X57272560Y-51062000D01*
X57272560Y-52062000D01*
X57321843Y-52309765D01*
X57462191Y-52519809D01*
X57672235Y-52660157D01*
X57920000Y-52709440D01*
X58920000Y-52709440D01*
X59167765Y-52660157D01*
X59377809Y-52519809D01*
X59518157Y-52309765D01*
X59567440Y-52062000D01*
X59567440Y-51062000D01*
X59518157Y-50814235D01*
X59477131Y-50752836D01*
X59489146Y-50734855D01*
X59577235Y-50292000D01*
X59511023Y-49959126D01*
X60306000Y-49959126D01*
X60306000Y-50370874D01*
X60463569Y-50751280D01*
X60754720Y-51042431D01*
X61135126Y-51200000D01*
X61546874Y-51200000D01*
X61927280Y-51042431D01*
X62218431Y-50751280D01*
X62365480Y-50396272D01*
X62618681Y-50649473D01*
X62661081Y-50712929D01*
X62912473Y-50880904D01*
X63134158Y-50925000D01*
X63134162Y-50925000D01*
X63209009Y-50939888D01*
X63283856Y-50925000D01*
X64193289Y-50925000D01*
X64310720Y-51042431D01*
X64691126Y-51200000D01*
X65102874Y-51200000D01*
X65483280Y-51042431D01*
X65774431Y-50751280D01*
X65932000Y-50370874D01*
X65932000Y-50340126D01*
X68561000Y-50340126D01*
X68561000Y-50751874D01*
X68718569Y-51132280D01*
X69009720Y-51423431D01*
X69390126Y-51581000D01*
X69801874Y-51581000D01*
X70182280Y-51423431D01*
X70473431Y-51132280D01*
X70628997Y-50756708D01*
X70787720Y-50915431D01*
X71168126Y-51073000D01*
X71579874Y-51073000D01*
X71960280Y-50915431D01*
X72251431Y-50624280D01*
X72409000Y-50243874D01*
X72409000Y-50127578D01*
X73208156Y-49328423D01*
X73282049Y-49279049D01*
X73477652Y-48986310D01*
X73529000Y-48728165D01*
X73529000Y-48728161D01*
X73546337Y-48641001D01*
X73529000Y-48553841D01*
X73529000Y-47050007D01*
X73679000Y-46687874D01*
X73679000Y-46276126D01*
X73521431Y-45895720D01*
X73230280Y-45604569D01*
X72849874Y-45447000D01*
X72438126Y-45447000D01*
X72057720Y-45604569D01*
X71880000Y-45782289D01*
X71880000Y-45006126D01*
X76435000Y-45006126D01*
X76435000Y-45417874D01*
X76592569Y-45798280D01*
X76710001Y-45915712D01*
X76710000Y-46286289D01*
X76592569Y-46403720D01*
X76435000Y-46784126D01*
X76435000Y-47195874D01*
X76592569Y-47576280D01*
X76883720Y-47867431D01*
X77264126Y-48025000D01*
X77675874Y-48025000D01*
X78056280Y-47867431D01*
X78347431Y-47576280D01*
X78505000Y-47195874D01*
X78505000Y-46784126D01*
X78347431Y-46403720D01*
X78230000Y-46286289D01*
X78230000Y-45915711D01*
X78347431Y-45798280D01*
X78505000Y-45417874D01*
X78505000Y-45006126D01*
X78347431Y-44625720D01*
X78056280Y-44334569D01*
X77675874Y-44177000D01*
X77264126Y-44177000D01*
X76883720Y-44334569D01*
X76592569Y-44625720D01*
X76435000Y-45006126D01*
X71880000Y-45006126D01*
X71880000Y-43375679D01*
X71997431Y-43258248D01*
X72155000Y-42877842D01*
X72155000Y-42466094D01*
X71997431Y-42085688D01*
X71706280Y-41794537D01*
X71325874Y-41636968D01*
X70914126Y-41636968D01*
X70533720Y-41794537D01*
X70242569Y-42085688D01*
X70085000Y-42466094D01*
X70085000Y-42877842D01*
X70242569Y-43258248D01*
X70360001Y-43375680D01*
X70360000Y-46787708D01*
X70333661Y-46827127D01*
X70333660Y-46827128D01*
X70208086Y-47015063D01*
X70149101Y-47311600D01*
X70163990Y-47386452D01*
X70163989Y-48903209D01*
X69556199Y-49511000D01*
X69390126Y-49511000D01*
X69009720Y-49668569D01*
X68718569Y-49959720D01*
X68561000Y-50340126D01*
X65932000Y-50340126D01*
X65932000Y-49959126D01*
X65774431Y-49578720D01*
X65483280Y-49287569D01*
X65102874Y-49130000D01*
X64691126Y-49130000D01*
X64310720Y-49287569D01*
X64193289Y-49405000D01*
X63523812Y-49405000D01*
X63101010Y-48982199D01*
X63101010Y-48816126D01*
X62943441Y-48435720D01*
X62652290Y-48144569D01*
X62482480Y-48074231D01*
X62599431Y-47957280D01*
X62664526Y-47800126D01*
X62973000Y-47800126D01*
X62973000Y-48211874D01*
X63130569Y-48592280D01*
X63421720Y-48883431D01*
X63802126Y-49041000D01*
X64213874Y-49041000D01*
X64594280Y-48883431D01*
X64885431Y-48592280D01*
X65043000Y-48211874D01*
X65043000Y-48045801D01*
X66143473Y-46945329D01*
X66206929Y-46902929D01*
X66374904Y-46651537D01*
X66419000Y-46429852D01*
X66419000Y-46429848D01*
X66433888Y-46355000D01*
X66419000Y-46280152D01*
X66419000Y-42867705D01*
X66536431Y-42750274D01*
X66694000Y-42369868D01*
X66694000Y-41958120D01*
X66536431Y-41577714D01*
X66245280Y-41286563D01*
X65864874Y-41128994D01*
X65453126Y-41128994D01*
X65072720Y-41286563D01*
X64781569Y-41577714D01*
X64624000Y-41958120D01*
X64624000Y-42369868D01*
X64781569Y-42750274D01*
X64899001Y-42867706D01*
X64899000Y-46040198D01*
X63968199Y-46971000D01*
X63802126Y-46971000D01*
X63421720Y-47128569D01*
X63130569Y-47419720D01*
X62973000Y-47800126D01*
X62664526Y-47800126D01*
X62757000Y-47576874D01*
X62757000Y-47165126D01*
X62599431Y-46784720D01*
X62308280Y-46493569D01*
X61927874Y-46336000D01*
X61516126Y-46336000D01*
X61135720Y-46493569D01*
X60844569Y-46784720D01*
X60687000Y-47165126D01*
X60687000Y-47362819D01*
X60654054Y-47412126D01*
X60625097Y-47455463D01*
X60612857Y-47517000D01*
X60566112Y-47752000D01*
X60581001Y-47826852D01*
X60581000Y-49461289D01*
X60463569Y-49578720D01*
X60306000Y-49959126D01*
X59511023Y-49959126D01*
X59489146Y-49849145D01*
X59360759Y-49657000D01*
X59489146Y-49464855D01*
X59577235Y-49022000D01*
X59489146Y-48579145D01*
X59360759Y-48387000D01*
X59489146Y-48194855D01*
X59577235Y-47752000D01*
X59489146Y-47309145D01*
X59360759Y-47117000D01*
X59489146Y-46924855D01*
X59577235Y-46482000D01*
X59489146Y-46039145D01*
X59360759Y-45847000D01*
X59489146Y-45654855D01*
X59577235Y-45212000D01*
X59489146Y-44769145D01*
X59352801Y-44565090D01*
X59407127Y-44502209D01*
X59514119Y-44243874D01*
X59387954Y-44069000D01*
X58547000Y-44069000D01*
X58547000Y-44080027D01*
X58531783Y-44077000D01*
X58308217Y-44077000D01*
X58293000Y-44080027D01*
X58293000Y-44069000D01*
X57452046Y-44069000D01*
X57325881Y-44243874D01*
X57432873Y-44502209D01*
X57487199Y-44565090D01*
X57350854Y-44769145D01*
X57262765Y-45212000D01*
X57098000Y-45212000D01*
X57098000Y-42672000D01*
X57262765Y-42672000D01*
X57350854Y-43114855D01*
X57487199Y-43318910D01*
X57432873Y-43381791D01*
X57325881Y-43640126D01*
X57452046Y-43815000D01*
X58293000Y-43815000D01*
X58293000Y-43803973D01*
X58308217Y-43807000D01*
X58531783Y-43807000D01*
X58547000Y-43803973D01*
X58547000Y-43815000D01*
X59387954Y-43815000D01*
X59514119Y-43640126D01*
X59407127Y-43381791D01*
X59352801Y-43318910D01*
X59489146Y-43114855D01*
X59577235Y-42672000D01*
X59489146Y-42229145D01*
X59238289Y-41853711D01*
X58862855Y-41602854D01*
X58531783Y-41537000D01*
X58308217Y-41537000D01*
X57977145Y-41602854D01*
X57601711Y-41853711D01*
X57350854Y-42229145D01*
X57262765Y-42672000D01*
X57098000Y-42672000D01*
X57098000Y-37246887D01*
X79291000Y-37246887D01*
X79291000Y-37937113D01*
X79555138Y-38574799D01*
X80043201Y-39062862D01*
X80680887Y-39327000D01*
X81371113Y-39327000D01*
X82008799Y-39062862D01*
X82496862Y-38574799D01*
X82761000Y-37937113D01*
X82761000Y-37246887D01*
X82496862Y-36609201D01*
X82008799Y-36121138D01*
X81371113Y-35857000D01*
X80680887Y-35857000D01*
X80043201Y-36121138D01*
X79555138Y-36609201D01*
X79291000Y-37246887D01*
X57098000Y-37246887D01*
X57098000Y-35508000D01*
X83110001Y-35508000D01*
X83110000Y-59488000D01*
G36*
X71759000Y-48274421D02*
X71683989Y-48349432D01*
X71683989Y-47639483D01*
X71759001Y-47527220D01*
X71759000Y-48274421D01*
X71759000Y-48274421D01*
G37*
X71759000Y-48274421D02*
X71683989Y-48349432D01*
X71683989Y-47639483D01*
X71759001Y-47527220D01*
X71759000Y-48274421D01*
G04 #@! TD*
M02*
