G04 #@! TF.GenerationSoftware,KiCad,Pcbnew,(5.0.1)-3*
G04 #@! TF.CreationDate,2018-11-02T13:07:49-05:00*
G04 #@! TF.ProjectId,ProgrammerBoard,50726F6772616D6D6572426F6172642E,rev?*
G04 #@! TF.SameCoordinates,Original*
G04 #@! TF.FileFunction,Soldermask,Bot*
G04 #@! TF.FilePolarity,Negative*
%FSLAX46Y46*%
G04 Gerber Fmt 4.6, Leading zero omitted, Abs format (unit mm)*
G04 Created by KiCad (PCBNEW (5.0.1)-3) date 11/2/2018 1:07:49 PM*
%MOMM*%
%LPD*%
G01*
G04 APERTURE LIST*
%ADD10C,0.100000*%
G04 APERTURE END LIST*
D10*
G36*
X59561196Y-56153958D02*
X59797780Y-56251954D01*
X60010705Y-56394226D01*
X60191774Y-56575295D01*
X60334046Y-56788220D01*
X60432042Y-57024804D01*
X60482000Y-57275960D01*
X60482000Y-57532040D01*
X60432042Y-57783196D01*
X60334046Y-58019780D01*
X60191774Y-58232705D01*
X60010705Y-58413774D01*
X59797780Y-58556046D01*
X59561196Y-58654042D01*
X59310040Y-58704000D01*
X59053960Y-58704000D01*
X58802804Y-58654042D01*
X58566220Y-58556046D01*
X58353295Y-58413774D01*
X58172226Y-58232705D01*
X58029954Y-58019780D01*
X57931958Y-57783196D01*
X57882000Y-57532040D01*
X57882000Y-57275960D01*
X57931958Y-57024804D01*
X58029954Y-56788220D01*
X58172226Y-56575295D01*
X58353295Y-56394226D01*
X58566220Y-56251954D01*
X58802804Y-56153958D01*
X59053960Y-56104000D01*
X59310040Y-56104000D01*
X59561196Y-56153958D01*
X59561196Y-56153958D01*
G37*
G36*
X70115529Y-56452661D02*
X70237550Y-56489676D01*
X70280471Y-56502696D01*
X70432472Y-56583942D01*
X70432473Y-56583943D01*
X70432475Y-56583944D01*
X70565712Y-56693288D01*
X70675056Y-56826524D01*
X70729222Y-56927863D01*
X70756305Y-56978531D01*
X70770342Y-57024804D01*
X70806339Y-57143470D01*
X70819000Y-57272021D01*
X70819000Y-57707978D01*
X70806339Y-57836529D01*
X70772983Y-57946488D01*
X70756305Y-58001469D01*
X70746517Y-58019780D01*
X70675056Y-58153476D01*
X70565712Y-58286712D01*
X70432476Y-58396056D01*
X70331137Y-58450222D01*
X70280469Y-58477305D01*
X70225489Y-58493983D01*
X70115530Y-58527339D01*
X69944000Y-58544233D01*
X69772471Y-58527339D01*
X69662512Y-58493983D01*
X69607532Y-58477305D01*
X69556864Y-58450222D01*
X69455525Y-58396056D01*
X69322289Y-58286712D01*
X69322288Y-58286710D01*
X69322286Y-58286709D01*
X69277964Y-58232702D01*
X69212944Y-58153476D01*
X69141483Y-58019780D01*
X69131695Y-58001469D01*
X69115017Y-57946489D01*
X69081661Y-57836530D01*
X69069000Y-57707979D01*
X69069000Y-57272022D01*
X69081661Y-57143471D01*
X69131695Y-56978533D01*
X69131696Y-56978529D01*
X69212942Y-56826528D01*
X69212943Y-56826527D01*
X69212944Y-56826525D01*
X69322288Y-56693288D01*
X69455524Y-56583944D01*
X69556863Y-56529778D01*
X69607531Y-56502695D01*
X69662511Y-56486017D01*
X69772470Y-56452661D01*
X69944000Y-56435767D01*
X70115529Y-56452661D01*
X70115529Y-56452661D01*
G37*
G36*
X75575529Y-56452661D02*
X75697550Y-56489676D01*
X75740471Y-56502696D01*
X75892472Y-56583942D01*
X75892473Y-56583943D01*
X75892475Y-56583944D01*
X76025712Y-56693288D01*
X76135056Y-56826524D01*
X76189222Y-56927863D01*
X76216305Y-56978531D01*
X76230342Y-57024804D01*
X76266339Y-57143470D01*
X76279000Y-57272021D01*
X76279000Y-57707978D01*
X76266339Y-57836529D01*
X76232983Y-57946488D01*
X76216305Y-58001469D01*
X76206517Y-58019780D01*
X76135056Y-58153476D01*
X76025712Y-58286712D01*
X75892476Y-58396056D01*
X75791137Y-58450222D01*
X75740469Y-58477305D01*
X75685489Y-58493983D01*
X75575530Y-58527339D01*
X75404000Y-58544233D01*
X75232471Y-58527339D01*
X75122512Y-58493983D01*
X75067532Y-58477305D01*
X75016864Y-58450222D01*
X74915525Y-58396056D01*
X74782289Y-58286712D01*
X74782288Y-58286710D01*
X74782286Y-58286709D01*
X74737964Y-58232702D01*
X74672944Y-58153476D01*
X74601483Y-58019780D01*
X74591695Y-58001469D01*
X74575017Y-57946489D01*
X74541661Y-57836530D01*
X74529000Y-57707979D01*
X74529000Y-57272022D01*
X74541661Y-57143471D01*
X74591695Y-56978533D01*
X74591696Y-56978529D01*
X74672942Y-56826528D01*
X74672943Y-56826527D01*
X74672944Y-56826525D01*
X74782288Y-56693288D01*
X74915524Y-56583944D01*
X75016863Y-56529778D01*
X75067531Y-56502695D01*
X75122511Y-56486017D01*
X75232470Y-56452661D01*
X75404000Y-56435767D01*
X75575529Y-56452661D01*
X75575529Y-56452661D01*
G37*
G36*
X75241026Y-53550852D02*
X75382400Y-53593738D01*
X75512690Y-53663378D01*
X75626899Y-53757107D01*
X75720620Y-53871306D01*
X75790262Y-54001599D01*
X75833148Y-54142973D01*
X75844000Y-54253161D01*
X75844000Y-54726838D01*
X75833148Y-54837027D01*
X75790262Y-54978401D01*
X75720620Y-55108694D01*
X75626896Y-55222896D01*
X75512694Y-55316620D01*
X75382401Y-55386262D01*
X75241027Y-55429148D01*
X75094000Y-55443628D01*
X74946974Y-55429148D01*
X74805600Y-55386262D01*
X74675307Y-55316620D01*
X74561107Y-55222898D01*
X74467379Y-55108691D01*
X74397738Y-54978401D01*
X74354852Y-54837027D01*
X74344000Y-54726839D01*
X74344000Y-54253162D01*
X74354852Y-54142974D01*
X74397738Y-54001600D01*
X74467378Y-53871310D01*
X74561107Y-53757101D01*
X74675306Y-53663380D01*
X74805599Y-53593738D01*
X74946973Y-53550852D01*
X75094000Y-53536372D01*
X75241026Y-53550852D01*
X75241026Y-53550852D01*
G37*
G36*
X70401026Y-53550852D02*
X70542400Y-53593738D01*
X70672690Y-53663378D01*
X70786899Y-53757107D01*
X70880620Y-53871306D01*
X70950262Y-54001599D01*
X70993148Y-54142973D01*
X71004000Y-54253161D01*
X71004000Y-54726838D01*
X70993148Y-54837027D01*
X70950262Y-54978401D01*
X70880620Y-55108694D01*
X70786896Y-55222896D01*
X70672694Y-55316620D01*
X70542401Y-55386262D01*
X70401027Y-55429148D01*
X70254000Y-55443628D01*
X70106974Y-55429148D01*
X69965600Y-55386262D01*
X69835307Y-55316620D01*
X69721107Y-55222898D01*
X69627379Y-55108691D01*
X69557738Y-54978401D01*
X69514852Y-54837027D01*
X69504000Y-54726839D01*
X69504000Y-54253162D01*
X69514852Y-54142974D01*
X69557738Y-54001600D01*
X69627378Y-53871310D01*
X69721107Y-53757101D01*
X69835306Y-53663380D01*
X69965599Y-53593738D01*
X70106973Y-53550852D01*
X70254000Y-53536372D01*
X70401026Y-53550852D01*
X70401026Y-53550852D01*
G37*
G36*
X58557224Y-41982128D02*
X58689175Y-42022155D01*
X58810781Y-42087155D01*
X58917370Y-42174630D01*
X59004845Y-42281219D01*
X59069845Y-42402825D01*
X59109872Y-42534776D01*
X59123387Y-42672000D01*
X59109872Y-42809224D01*
X59069845Y-42941175D01*
X59004845Y-43062781D01*
X58917370Y-43169370D01*
X58867399Y-43210380D01*
X58850078Y-43227701D01*
X58836464Y-43248076D01*
X58827086Y-43270715D01*
X58822306Y-43294748D01*
X58822306Y-43319252D01*
X58827087Y-43343286D01*
X58836464Y-43365925D01*
X58850078Y-43386299D01*
X58867399Y-43403620D01*
X58917370Y-43444630D01*
X59004845Y-43551219D01*
X59069845Y-43672825D01*
X59109872Y-43804776D01*
X59123387Y-43942000D01*
X59109872Y-44079224D01*
X59069845Y-44211175D01*
X59004845Y-44332781D01*
X58917370Y-44439370D01*
X58867399Y-44480380D01*
X58850078Y-44497701D01*
X58836464Y-44518076D01*
X58827086Y-44540715D01*
X58822306Y-44564748D01*
X58822306Y-44589252D01*
X58827087Y-44613286D01*
X58836464Y-44635925D01*
X58850078Y-44656299D01*
X58867399Y-44673620D01*
X58917370Y-44714630D01*
X59004845Y-44821219D01*
X59069845Y-44942825D01*
X59109872Y-45074776D01*
X59123387Y-45212000D01*
X59109872Y-45349224D01*
X59069845Y-45481175D01*
X59004845Y-45602781D01*
X58917370Y-45709370D01*
X58867399Y-45750380D01*
X58850078Y-45767701D01*
X58836464Y-45788076D01*
X58827086Y-45810715D01*
X58822306Y-45834748D01*
X58822306Y-45859252D01*
X58827087Y-45883286D01*
X58836464Y-45905925D01*
X58850078Y-45926299D01*
X58867399Y-45943620D01*
X58917370Y-45984630D01*
X59004845Y-46091219D01*
X59069845Y-46212825D01*
X59109872Y-46344776D01*
X59123387Y-46482000D01*
X59109872Y-46619224D01*
X59069845Y-46751175D01*
X59004845Y-46872781D01*
X58917370Y-46979370D01*
X58867399Y-47020380D01*
X58850078Y-47037701D01*
X58836464Y-47058076D01*
X58827086Y-47080715D01*
X58822306Y-47104748D01*
X58822306Y-47129252D01*
X58827087Y-47153286D01*
X58836464Y-47175925D01*
X58850078Y-47196299D01*
X58867399Y-47213620D01*
X58917370Y-47254630D01*
X59004845Y-47361219D01*
X59069845Y-47482825D01*
X59109872Y-47614776D01*
X59123387Y-47752000D01*
X59109872Y-47889224D01*
X59069845Y-48021175D01*
X59004845Y-48142781D01*
X58917370Y-48249370D01*
X58867399Y-48290380D01*
X58850078Y-48307701D01*
X58836464Y-48328076D01*
X58827086Y-48350715D01*
X58822306Y-48374748D01*
X58822306Y-48399252D01*
X58827087Y-48423286D01*
X58836464Y-48445925D01*
X58850078Y-48466299D01*
X58867399Y-48483620D01*
X58917370Y-48524630D01*
X59004845Y-48631219D01*
X59069845Y-48752825D01*
X59109872Y-48884776D01*
X59123387Y-49022000D01*
X59109872Y-49159224D01*
X59069845Y-49291175D01*
X59004845Y-49412781D01*
X58917370Y-49519370D01*
X58867399Y-49560380D01*
X58850078Y-49577701D01*
X58836464Y-49598076D01*
X58827086Y-49620715D01*
X58822306Y-49644748D01*
X58822306Y-49669252D01*
X58827087Y-49693286D01*
X58836464Y-49715925D01*
X58850078Y-49736299D01*
X58867399Y-49753620D01*
X58917370Y-49794630D01*
X59004845Y-49901219D01*
X59069845Y-50022825D01*
X59109872Y-50154776D01*
X59123387Y-50292000D01*
X59109872Y-50429224D01*
X59069845Y-50561175D01*
X59069843Y-50561178D01*
X59007360Y-50678076D01*
X58997982Y-50700715D01*
X58993202Y-50724748D01*
X58993202Y-50749253D01*
X58997983Y-50773286D01*
X59007360Y-50795925D01*
X59020974Y-50816300D01*
X59038301Y-50833627D01*
X59058676Y-50847240D01*
X59081315Y-50856618D01*
X59117600Y-50862000D01*
X59120000Y-50862000D01*
X59120000Y-52262000D01*
X57720000Y-52262000D01*
X57720000Y-50862000D01*
X57722400Y-50862000D01*
X57746786Y-50859598D01*
X57770235Y-50852485D01*
X57791846Y-50840934D01*
X57810788Y-50825388D01*
X57826334Y-50806446D01*
X57837885Y-50784835D01*
X57844998Y-50761386D01*
X57847400Y-50737000D01*
X57844998Y-50712614D01*
X57832640Y-50678076D01*
X57770157Y-50561178D01*
X57770155Y-50561175D01*
X57730128Y-50429224D01*
X57716613Y-50292000D01*
X57730128Y-50154776D01*
X57770155Y-50022825D01*
X57835155Y-49901219D01*
X57922630Y-49794630D01*
X57972601Y-49753620D01*
X57989922Y-49736299D01*
X58003536Y-49715924D01*
X58012914Y-49693285D01*
X58017694Y-49669252D01*
X58017694Y-49644748D01*
X58012913Y-49620714D01*
X58003536Y-49598075D01*
X57989922Y-49577701D01*
X57972601Y-49560380D01*
X57922630Y-49519370D01*
X57835155Y-49412781D01*
X57770155Y-49291175D01*
X57730128Y-49159224D01*
X57716613Y-49022000D01*
X57730128Y-48884776D01*
X57770155Y-48752825D01*
X57835155Y-48631219D01*
X57922630Y-48524630D01*
X57972601Y-48483620D01*
X57989922Y-48466299D01*
X58003536Y-48445924D01*
X58012914Y-48423285D01*
X58017694Y-48399252D01*
X58017694Y-48374748D01*
X58012913Y-48350714D01*
X58003536Y-48328075D01*
X57989922Y-48307701D01*
X57972601Y-48290380D01*
X57922630Y-48249370D01*
X57835155Y-48142781D01*
X57770155Y-48021175D01*
X57730128Y-47889224D01*
X57716613Y-47752000D01*
X57730128Y-47614776D01*
X57770155Y-47482825D01*
X57835155Y-47361219D01*
X57922630Y-47254630D01*
X57972601Y-47213620D01*
X57989922Y-47196299D01*
X58003536Y-47175924D01*
X58012914Y-47153285D01*
X58017694Y-47129252D01*
X58017694Y-47104748D01*
X58012913Y-47080714D01*
X58003536Y-47058075D01*
X57989922Y-47037701D01*
X57972601Y-47020380D01*
X57922630Y-46979370D01*
X57835155Y-46872781D01*
X57770155Y-46751175D01*
X57730128Y-46619224D01*
X57716613Y-46482000D01*
X57730128Y-46344776D01*
X57770155Y-46212825D01*
X57835155Y-46091219D01*
X57922630Y-45984630D01*
X57972601Y-45943620D01*
X57989922Y-45926299D01*
X58003536Y-45905924D01*
X58012914Y-45883285D01*
X58017694Y-45859252D01*
X58017694Y-45834748D01*
X58012913Y-45810714D01*
X58003536Y-45788075D01*
X57989922Y-45767701D01*
X57972601Y-45750380D01*
X57922630Y-45709370D01*
X57835155Y-45602781D01*
X57770155Y-45481175D01*
X57730128Y-45349224D01*
X57716613Y-45212000D01*
X57730128Y-45074776D01*
X57770155Y-44942825D01*
X57835155Y-44821219D01*
X57922630Y-44714630D01*
X57972601Y-44673620D01*
X57989922Y-44656299D01*
X58003536Y-44635924D01*
X58012914Y-44613285D01*
X58017694Y-44589252D01*
X58017694Y-44564748D01*
X58012913Y-44540714D01*
X58003536Y-44518075D01*
X57989922Y-44497701D01*
X57972601Y-44480380D01*
X57922630Y-44439370D01*
X57835155Y-44332781D01*
X57770155Y-44211175D01*
X57730128Y-44079224D01*
X57716613Y-43942000D01*
X57730128Y-43804776D01*
X57770155Y-43672825D01*
X57835155Y-43551219D01*
X57922630Y-43444630D01*
X57972601Y-43403620D01*
X57989922Y-43386299D01*
X58003536Y-43365924D01*
X58012914Y-43343285D01*
X58017694Y-43319252D01*
X58017694Y-43294748D01*
X58012913Y-43270714D01*
X58003536Y-43248075D01*
X57989922Y-43227701D01*
X57972601Y-43210380D01*
X57922630Y-43169370D01*
X57835155Y-43062781D01*
X57770155Y-42941175D01*
X57730128Y-42809224D01*
X57716613Y-42672000D01*
X57730128Y-42534776D01*
X57770155Y-42402825D01*
X57835155Y-42281219D01*
X57922630Y-42174630D01*
X58029219Y-42087155D01*
X58150825Y-42022155D01*
X58282776Y-41982128D01*
X58385610Y-41972000D01*
X58454390Y-41972000D01*
X58557224Y-41982128D01*
X58557224Y-41982128D01*
G37*
G36*
X81405196Y-36341958D02*
X81641780Y-36439954D01*
X81854705Y-36582226D01*
X82035774Y-36763295D01*
X82178046Y-36976220D01*
X82276042Y-37212804D01*
X82326000Y-37463960D01*
X82326000Y-37720040D01*
X82276042Y-37971196D01*
X82178046Y-38207780D01*
X82035774Y-38420705D01*
X81854705Y-38601774D01*
X81641780Y-38744046D01*
X81405196Y-38842042D01*
X81154040Y-38892000D01*
X80897960Y-38892000D01*
X80646804Y-38842042D01*
X80410220Y-38744046D01*
X80197295Y-38601774D01*
X80016226Y-38420705D01*
X79873954Y-38207780D01*
X79775958Y-37971196D01*
X79726000Y-37720040D01*
X79726000Y-37463960D01*
X79775958Y-37212804D01*
X79873954Y-36976220D01*
X80016226Y-36763295D01*
X80197295Y-36582226D01*
X80410220Y-36439954D01*
X80646804Y-36341958D01*
X80897960Y-36292000D01*
X81154040Y-36292000D01*
X81405196Y-36341958D01*
X81405196Y-36341958D01*
G37*
M02*
