M48
;DRILL file {KiCad (5.0.1)-3} date 11/2/2018 1:07:56 PM
;FORMAT={-:-/ absolute / inch / decimal}
FMAT,2
INCH,TZ
T1C0.0157
T2C0.0256
T3C0.0276
%
G90
G05
M72
T1
X2.25Y-1.45
X2.25Y-1.5
X2.25Y-1.55
X2.25Y-1.6
X2.25Y-1.65
X2.25Y-1.7
X2.25Y-1.75
X2.25Y-1.8
X2.25Y-1.85
X2.25Y-1.9
X2.25Y-1.95
X2.25Y-2.
X2.25Y-2.05
X2.25Y-2.1
X2.25Y-2.15
X2.275Y-1.4
X2.325Y-1.4
X2.375Y-1.4
X2.415Y-1.975
X2.425Y-1.4
X2.43Y-1.865
X2.4435Y-1.93
X2.45Y-2.325
X2.475Y-1.4
X2.5Y-2.325
X2.52Y-1.89
X2.525Y-1.4
X2.55Y-2.325
X2.555Y-1.975
X2.575Y-1.4
X2.585Y-1.66
X2.6Y-2.325
X2.625Y-1.4
X2.65Y-2.325
X2.675Y-1.4
X2.7Y-2.325
X2.725Y-1.4
X2.725Y-1.75
X2.725Y-1.8
X2.725Y-1.85
X2.725Y-1.9
X2.725Y-1.95
X2.74Y-1.99
X2.75Y-2.325
X2.775Y-1.4
X2.8Y-1.68
X2.81Y-1.97
X2.825Y-1.4
X2.825Y-1.9
X2.86Y-1.83
X2.875Y-1.4
X2.925Y-1.4
X2.975Y-1.4
X2.975Y-2.325
X3.025Y-1.4
X3.025Y-2.325
X3.05Y-1.78
X3.05Y-1.85
X3.075Y-1.4
X3.075Y-2.325
X3.125Y-2.325
X3.175Y-2.325
X3.225Y-2.325
X3.25Y-1.625
X3.25Y-1.675
X3.25Y-1.725
X3.25Y-1.775
X3.25Y-1.825
X3.25Y-1.875
X3.25Y-1.925
X3.25Y-1.975
X3.25Y-2.025
X3.25Y-2.075
X3.25Y-2.125
X3.25Y-2.175
X3.25Y-2.225
X3.25Y-2.275
T2
X2.3Y-1.68
X2.3Y-1.73
X2.3Y-1.78
X2.3Y-1.83
X2.3Y-1.88
X2.3Y-1.93
X2.3Y-1.98
X2.3Y-2.03
T2
X2.7659Y-2.1531G85X2.7659Y-2.1374
G05
X2.9565Y-2.1531G85X2.9565Y-2.1374
G05
T3
X2.7537Y-2.2732G85X2.7537Y-2.2535
G05
X2.9687Y-2.2732G85X2.9687Y-2.2535
G05
T0
M30
