G04 #@! TF.GenerationSoftware,KiCad,Pcbnew,(5.0.1)-3*
G04 #@! TF.CreationDate,2018-11-01T17:09:47-05:00*
G04 #@! TF.ProjectId,power_board,706F7765725F626F6172642E6B696361,rev?*
G04 #@! TF.SameCoordinates,Original*
G04 #@! TF.FileFunction,Soldermask,Top*
G04 #@! TF.FilePolarity,Negative*
%FSLAX46Y46*%
G04 Gerber Fmt 4.6, Leading zero omitted, Abs format (unit mm)*
G04 Created by KiCad (PCBNEW (5.0.1)-3) date 11/1/2018 5:09:47 PM*
%MOMM*%
%LPD*%
G01*
G04 APERTURE LIST*
%ADD10C,0.100000*%
G04 APERTURE END LIST*
D10*
G36*
X210947000Y-148796000D02*
X209547000Y-148796000D01*
X209547000Y-145596000D01*
X210947000Y-145596000D01*
X210947000Y-148796000D01*
X210947000Y-148796000D01*
G37*
G36*
X205997000Y-148796000D02*
X204597000Y-148796000D01*
X204597000Y-145596000D01*
X205997000Y-145596000D01*
X205997000Y-148796000D01*
X205997000Y-148796000D01*
G37*
G36*
X195576920Y-148745080D02*
X194176920Y-148745080D01*
X194176920Y-145545080D01*
X195576920Y-145545080D01*
X195576920Y-148745080D01*
X195576920Y-148745080D01*
G37*
G36*
X190626920Y-148745080D02*
X189226920Y-148745080D01*
X189226920Y-145545080D01*
X190626920Y-145545080D01*
X190626920Y-148745080D01*
X190626920Y-148745080D01*
G37*
G36*
X198312000Y-148745080D02*
X196912000Y-148745080D01*
X196912000Y-145545080D01*
X198312000Y-145545080D01*
X198312000Y-148745080D01*
X198312000Y-148745080D01*
G37*
G36*
X203262000Y-148745080D02*
X201862000Y-148745080D01*
X201862000Y-145545080D01*
X203262000Y-145545080D01*
X203262000Y-148745080D01*
X203262000Y-148745080D01*
G37*
G36*
X223315000Y-148639000D02*
X219915000Y-148639000D01*
X219915000Y-145239000D01*
X223315000Y-145239000D01*
X223315000Y-148639000D01*
X223315000Y-148639000D01*
G37*
G36*
X187286920Y-148554080D02*
X186086920Y-148554080D01*
X186086920Y-147254080D01*
X187286920Y-147254080D01*
X187286920Y-148554080D01*
X187286920Y-148554080D01*
G37*
G36*
X182650622Y-147158517D02*
X182698585Y-147173066D01*
X182742775Y-147196686D01*
X182781518Y-147228482D01*
X182813314Y-147267225D01*
X182836934Y-147311415D01*
X182851483Y-147359378D01*
X182857000Y-147415391D01*
X182857000Y-148240609D01*
X182851483Y-148296622D01*
X182836934Y-148344585D01*
X182813314Y-148388775D01*
X182781518Y-148427518D01*
X182742775Y-148459314D01*
X182698585Y-148482934D01*
X182650622Y-148497483D01*
X182594609Y-148503000D01*
X181844391Y-148503000D01*
X181788378Y-148497483D01*
X181740415Y-148482934D01*
X181696225Y-148459314D01*
X181657482Y-148427518D01*
X181625686Y-148388775D01*
X181602066Y-148344585D01*
X181587517Y-148296622D01*
X181582000Y-148240609D01*
X181582000Y-147415391D01*
X181587517Y-147359378D01*
X181602066Y-147311415D01*
X181625686Y-147267225D01*
X181657482Y-147228482D01*
X181696225Y-147196686D01*
X181740415Y-147173066D01*
X181788378Y-147158517D01*
X181844391Y-147153000D01*
X182594609Y-147153000D01*
X182650622Y-147158517D01*
X182650622Y-147158517D01*
G37*
G36*
X184225622Y-147158517D02*
X184273585Y-147173066D01*
X184317775Y-147196686D01*
X184356518Y-147228482D01*
X184388314Y-147267225D01*
X184411934Y-147311415D01*
X184426483Y-147359378D01*
X184432000Y-147415391D01*
X184432000Y-148240609D01*
X184426483Y-148296622D01*
X184411934Y-148344585D01*
X184388314Y-148388775D01*
X184356518Y-148427518D01*
X184317775Y-148459314D01*
X184273585Y-148482934D01*
X184225622Y-148497483D01*
X184169609Y-148503000D01*
X183419391Y-148503000D01*
X183363378Y-148497483D01*
X183315415Y-148482934D01*
X183271225Y-148459314D01*
X183232482Y-148427518D01*
X183200686Y-148388775D01*
X183177066Y-148344585D01*
X183162517Y-148296622D01*
X183157000Y-148240609D01*
X183157000Y-147415391D01*
X183162517Y-147359378D01*
X183177066Y-147311415D01*
X183200686Y-147267225D01*
X183232482Y-147228482D01*
X183271225Y-147196686D01*
X183315415Y-147173066D01*
X183363378Y-147158517D01*
X183419391Y-147153000D01*
X184169609Y-147153000D01*
X184225622Y-147158517D01*
X184225622Y-147158517D01*
G37*
G36*
X182625122Y-145253517D02*
X182673085Y-145268066D01*
X182717275Y-145291686D01*
X182756018Y-145323482D01*
X182787814Y-145362225D01*
X182811434Y-145406415D01*
X182825983Y-145454378D01*
X182831500Y-145510391D01*
X182831500Y-146335609D01*
X182825983Y-146391622D01*
X182811434Y-146439585D01*
X182787814Y-146483775D01*
X182756018Y-146522518D01*
X182717275Y-146554314D01*
X182673085Y-146577934D01*
X182625122Y-146592483D01*
X182569109Y-146598000D01*
X181818891Y-146598000D01*
X181762878Y-146592483D01*
X181714915Y-146577934D01*
X181670725Y-146554314D01*
X181631982Y-146522518D01*
X181600186Y-146483775D01*
X181576566Y-146439585D01*
X181562017Y-146391622D01*
X181556500Y-146335609D01*
X181556500Y-145510391D01*
X181562017Y-145454378D01*
X181576566Y-145406415D01*
X181600186Y-145362225D01*
X181631982Y-145323482D01*
X181670725Y-145291686D01*
X181714915Y-145268066D01*
X181762878Y-145253517D01*
X181818891Y-145248000D01*
X182569109Y-145248000D01*
X182625122Y-145253517D01*
X182625122Y-145253517D01*
G37*
G36*
X184200122Y-145253517D02*
X184248085Y-145268066D01*
X184292275Y-145291686D01*
X184331018Y-145323482D01*
X184362814Y-145362225D01*
X184386434Y-145406415D01*
X184400983Y-145454378D01*
X184406500Y-145510391D01*
X184406500Y-146335609D01*
X184400983Y-146391622D01*
X184386434Y-146439585D01*
X184362814Y-146483775D01*
X184331018Y-146522518D01*
X184292275Y-146554314D01*
X184248085Y-146577934D01*
X184200122Y-146592483D01*
X184144109Y-146598000D01*
X183393891Y-146598000D01*
X183337878Y-146592483D01*
X183289915Y-146577934D01*
X183245725Y-146554314D01*
X183206982Y-146522518D01*
X183175186Y-146483775D01*
X183151566Y-146439585D01*
X183137017Y-146391622D01*
X183131500Y-146335609D01*
X183131500Y-145510391D01*
X183137017Y-145454378D01*
X183151566Y-145406415D01*
X183175186Y-145362225D01*
X183206982Y-145323482D01*
X183245725Y-145291686D01*
X183289915Y-145268066D01*
X183337878Y-145253517D01*
X183393891Y-145248000D01*
X184144109Y-145248000D01*
X184200122Y-145253517D01*
X184200122Y-145253517D01*
G37*
G36*
X188236920Y-146554080D02*
X187036920Y-146554080D01*
X187036920Y-145254080D01*
X188236920Y-145254080D01*
X188236920Y-146554080D01*
X188236920Y-146554080D01*
G37*
G36*
X186336920Y-146554080D02*
X185136920Y-146554080D01*
X185136920Y-145254080D01*
X186336920Y-145254080D01*
X186336920Y-146554080D01*
X186336920Y-146554080D01*
G37*
G36*
X208897000Y-144896000D02*
X206647000Y-144896000D01*
X206647000Y-142796000D01*
X208897000Y-142796000D01*
X208897000Y-144896000D01*
X208897000Y-144896000D01*
G37*
G36*
X201212000Y-144845080D02*
X198962000Y-144845080D01*
X198962000Y-142745080D01*
X201212000Y-142745080D01*
X201212000Y-144845080D01*
X201212000Y-144845080D01*
G37*
G36*
X193526920Y-144845080D02*
X191276920Y-144845080D01*
X191276920Y-142745080D01*
X193526920Y-142745080D01*
X193526920Y-144845080D01*
X193526920Y-144845080D01*
G37*
G36*
X184225622Y-143475517D02*
X184273585Y-143490066D01*
X184317775Y-143513686D01*
X184356518Y-143545482D01*
X184388314Y-143584225D01*
X184411934Y-143628415D01*
X184426483Y-143676378D01*
X184432000Y-143732391D01*
X184432000Y-144557609D01*
X184426483Y-144613622D01*
X184411934Y-144661585D01*
X184388314Y-144705775D01*
X184356518Y-144744518D01*
X184317775Y-144776314D01*
X184273585Y-144799934D01*
X184225622Y-144814483D01*
X184169609Y-144820000D01*
X183419391Y-144820000D01*
X183363378Y-144814483D01*
X183315415Y-144799934D01*
X183271225Y-144776314D01*
X183232482Y-144744518D01*
X183200686Y-144705775D01*
X183177066Y-144661585D01*
X183162517Y-144613622D01*
X183157000Y-144557609D01*
X183157000Y-143732391D01*
X183162517Y-143676378D01*
X183177066Y-143628415D01*
X183200686Y-143584225D01*
X183232482Y-143545482D01*
X183271225Y-143513686D01*
X183315415Y-143490066D01*
X183363378Y-143475517D01*
X183419391Y-143470000D01*
X184169609Y-143470000D01*
X184225622Y-143475517D01*
X184225622Y-143475517D01*
G37*
G36*
X186308122Y-143475517D02*
X186356085Y-143490066D01*
X186400275Y-143513686D01*
X186439018Y-143545482D01*
X186470814Y-143584225D01*
X186494434Y-143628415D01*
X186508983Y-143676378D01*
X186514500Y-143732391D01*
X186514500Y-144557609D01*
X186508983Y-144613622D01*
X186494434Y-144661585D01*
X186470814Y-144705775D01*
X186439018Y-144744518D01*
X186400275Y-144776314D01*
X186356085Y-144799934D01*
X186308122Y-144814483D01*
X186252109Y-144820000D01*
X185501891Y-144820000D01*
X185445878Y-144814483D01*
X185397915Y-144799934D01*
X185353725Y-144776314D01*
X185314982Y-144744518D01*
X185283186Y-144705775D01*
X185259566Y-144661585D01*
X185245017Y-144613622D01*
X185239500Y-144557609D01*
X185239500Y-143732391D01*
X185245017Y-143676378D01*
X185259566Y-143628415D01*
X185283186Y-143584225D01*
X185314982Y-143545482D01*
X185353725Y-143513686D01*
X185397915Y-143490066D01*
X185445878Y-143475517D01*
X185501891Y-143470000D01*
X186252109Y-143470000D01*
X186308122Y-143475517D01*
X186308122Y-143475517D01*
G37*
G36*
X187883122Y-143475517D02*
X187931085Y-143490066D01*
X187975275Y-143513686D01*
X188014018Y-143545482D01*
X188045814Y-143584225D01*
X188069434Y-143628415D01*
X188083983Y-143676378D01*
X188089500Y-143732391D01*
X188089500Y-144557609D01*
X188083983Y-144613622D01*
X188069434Y-144661585D01*
X188045814Y-144705775D01*
X188014018Y-144744518D01*
X187975275Y-144776314D01*
X187931085Y-144799934D01*
X187883122Y-144814483D01*
X187827109Y-144820000D01*
X187076891Y-144820000D01*
X187020878Y-144814483D01*
X186972915Y-144799934D01*
X186928725Y-144776314D01*
X186889982Y-144744518D01*
X186858186Y-144705775D01*
X186834566Y-144661585D01*
X186820017Y-144613622D01*
X186814500Y-144557609D01*
X186814500Y-143732391D01*
X186820017Y-143676378D01*
X186834566Y-143628415D01*
X186858186Y-143584225D01*
X186889982Y-143545482D01*
X186928725Y-143513686D01*
X186972915Y-143490066D01*
X187020878Y-143475517D01*
X187076891Y-143470000D01*
X187827109Y-143470000D01*
X187883122Y-143475517D01*
X187883122Y-143475517D01*
G37*
G36*
X182650622Y-143475517D02*
X182698585Y-143490066D01*
X182742775Y-143513686D01*
X182781518Y-143545482D01*
X182813314Y-143584225D01*
X182836934Y-143628415D01*
X182851483Y-143676378D01*
X182857000Y-143732391D01*
X182857000Y-144557609D01*
X182851483Y-144613622D01*
X182836934Y-144661585D01*
X182813314Y-144705775D01*
X182781518Y-144744518D01*
X182742775Y-144776314D01*
X182698585Y-144799934D01*
X182650622Y-144814483D01*
X182594609Y-144820000D01*
X181844391Y-144820000D01*
X181788378Y-144814483D01*
X181740415Y-144799934D01*
X181696225Y-144776314D01*
X181657482Y-144744518D01*
X181625686Y-144705775D01*
X181602066Y-144661585D01*
X181587517Y-144613622D01*
X181582000Y-144557609D01*
X181582000Y-143732391D01*
X181587517Y-143676378D01*
X181602066Y-143628415D01*
X181625686Y-143584225D01*
X181657482Y-143545482D01*
X181696225Y-143513686D01*
X181740415Y-143490066D01*
X181788378Y-143475517D01*
X181844391Y-143470000D01*
X182594609Y-143470000D01*
X182650622Y-143475517D01*
X182650622Y-143475517D01*
G37*
G36*
X222001393Y-140202553D02*
X222110872Y-140224330D01*
X222420252Y-140352479D01*
X222698687Y-140538523D01*
X222935477Y-140775313D01*
X223121521Y-141053748D01*
X223249670Y-141363128D01*
X223249670Y-141363129D01*
X223305228Y-141642435D01*
X223315000Y-141691565D01*
X223315000Y-142026435D01*
X223249670Y-142354872D01*
X223121521Y-142664252D01*
X222935477Y-142942687D01*
X222698687Y-143179477D01*
X222420252Y-143365521D01*
X222110872Y-143493670D01*
X222010244Y-143513686D01*
X221782437Y-143559000D01*
X221447563Y-143559000D01*
X221219756Y-143513686D01*
X221119128Y-143493670D01*
X220809748Y-143365521D01*
X220531313Y-143179477D01*
X220294523Y-142942687D01*
X220108479Y-142664252D01*
X219980330Y-142354872D01*
X219915000Y-142026435D01*
X219915000Y-141691565D01*
X219924773Y-141642435D01*
X219980330Y-141363129D01*
X219980330Y-141363128D01*
X220108479Y-141053748D01*
X220294523Y-140775313D01*
X220531313Y-140538523D01*
X220809748Y-140352479D01*
X221119128Y-140224330D01*
X221228607Y-140202553D01*
X221447563Y-140159000D01*
X221782437Y-140159000D01*
X222001393Y-140202553D01*
X222001393Y-140202553D01*
G37*
G36*
X191718622Y-140554517D02*
X191766585Y-140569066D01*
X191810775Y-140592686D01*
X191849518Y-140624482D01*
X191881314Y-140663225D01*
X191904934Y-140707415D01*
X191919483Y-140755378D01*
X191925000Y-140811391D01*
X191925000Y-141636609D01*
X191919483Y-141692622D01*
X191904934Y-141740585D01*
X191881314Y-141784775D01*
X191849518Y-141823518D01*
X191810775Y-141855314D01*
X191766585Y-141878934D01*
X191718622Y-141893483D01*
X191662609Y-141899000D01*
X190912391Y-141899000D01*
X190856378Y-141893483D01*
X190808415Y-141878934D01*
X190764225Y-141855314D01*
X190725482Y-141823518D01*
X190693686Y-141784775D01*
X190670066Y-141740585D01*
X190655517Y-141692622D01*
X190650000Y-141636609D01*
X190650000Y-140811391D01*
X190655517Y-140755378D01*
X190670066Y-140707415D01*
X190693686Y-140663225D01*
X190725482Y-140624482D01*
X190764225Y-140592686D01*
X190808415Y-140569066D01*
X190856378Y-140554517D01*
X190912391Y-140549000D01*
X191662609Y-140549000D01*
X191718622Y-140554517D01*
X191718622Y-140554517D01*
G37*
G36*
X190143622Y-140554517D02*
X190191585Y-140569066D01*
X190235775Y-140592686D01*
X190274518Y-140624482D01*
X190306314Y-140663225D01*
X190329934Y-140707415D01*
X190344483Y-140755378D01*
X190350000Y-140811391D01*
X190350000Y-141636609D01*
X190344483Y-141692622D01*
X190329934Y-141740585D01*
X190306314Y-141784775D01*
X190274518Y-141823518D01*
X190235775Y-141855314D01*
X190191585Y-141878934D01*
X190143622Y-141893483D01*
X190087609Y-141899000D01*
X189337391Y-141899000D01*
X189281378Y-141893483D01*
X189233415Y-141878934D01*
X189189225Y-141855314D01*
X189150482Y-141823518D01*
X189118686Y-141784775D01*
X189095066Y-141740585D01*
X189080517Y-141692622D01*
X189075000Y-141636609D01*
X189075000Y-140811391D01*
X189080517Y-140755378D01*
X189095066Y-140707415D01*
X189118686Y-140663225D01*
X189150482Y-140624482D01*
X189189225Y-140592686D01*
X189233415Y-140569066D01*
X189281378Y-140554517D01*
X189337391Y-140549000D01*
X190087609Y-140549000D01*
X190143622Y-140554517D01*
X190143622Y-140554517D01*
G37*
G36*
X103181000Y-139677000D02*
X100781000Y-139677000D01*
X100781000Y-137277000D01*
X103181000Y-137277000D01*
X103181000Y-139677000D01*
X103181000Y-139677000D01*
G37*
G36*
X142170000Y-139503000D02*
X139770000Y-139503000D01*
X139770000Y-137103000D01*
X142170000Y-137103000D01*
X142170000Y-139503000D01*
X142170000Y-139503000D01*
G37*
G36*
X223315000Y-137082000D02*
X219915000Y-137082000D01*
X219915000Y-133682000D01*
X223315000Y-133682000D01*
X223315000Y-137082000D01*
X223315000Y-137082000D01*
G37*
G36*
X102331026Y-132323115D02*
X102549412Y-132413573D01*
X102745958Y-132544901D01*
X102913099Y-132712042D01*
X103044427Y-132908588D01*
X103134885Y-133126974D01*
X103181000Y-133358809D01*
X103181000Y-133595191D01*
X103134885Y-133827026D01*
X103044427Y-134045412D01*
X102913099Y-134241958D01*
X102745958Y-134409099D01*
X102549412Y-134540427D01*
X102331026Y-134630885D01*
X102099191Y-134677000D01*
X101862809Y-134677000D01*
X101630974Y-134630885D01*
X101412588Y-134540427D01*
X101216042Y-134409099D01*
X101048901Y-134241958D01*
X100917573Y-134045412D01*
X100827115Y-133827026D01*
X100781000Y-133595191D01*
X100781000Y-133358809D01*
X100827115Y-133126974D01*
X100917573Y-132908588D01*
X101048901Y-132712042D01*
X101216042Y-132544901D01*
X101412588Y-132413573D01*
X101630974Y-132323115D01*
X101862809Y-132277000D01*
X102099191Y-132277000D01*
X102331026Y-132323115D01*
X102331026Y-132323115D01*
G37*
G36*
X141320026Y-132149115D02*
X141538412Y-132239573D01*
X141734958Y-132370901D01*
X141902099Y-132538042D01*
X142033427Y-132734588D01*
X142123885Y-132952974D01*
X142170000Y-133184809D01*
X142170000Y-133421191D01*
X142123885Y-133653026D01*
X142033427Y-133871412D01*
X141902099Y-134067958D01*
X141734958Y-134235099D01*
X141538412Y-134366427D01*
X141320026Y-134456885D01*
X141088191Y-134503000D01*
X140851809Y-134503000D01*
X140619974Y-134456885D01*
X140401588Y-134366427D01*
X140205042Y-134235099D01*
X140037901Y-134067958D01*
X139906573Y-133871412D01*
X139816115Y-133653026D01*
X139770000Y-133421191D01*
X139770000Y-133184809D01*
X139816115Y-132952974D01*
X139906573Y-132734588D01*
X140037901Y-132538042D01*
X140205042Y-132370901D01*
X140401588Y-132239573D01*
X140619974Y-132149115D01*
X140851809Y-132103000D01*
X141088191Y-132103000D01*
X141320026Y-132149115D01*
X141320026Y-132149115D01*
G37*
G36*
X222001393Y-128645553D02*
X222110872Y-128667330D01*
X222420252Y-128795479D01*
X222698687Y-128981523D01*
X222935477Y-129218313D01*
X223121521Y-129496748D01*
X223249670Y-129806128D01*
X223315000Y-130134565D01*
X223315000Y-130469435D01*
X223249670Y-130797872D01*
X223121521Y-131107252D01*
X222935477Y-131385687D01*
X222698687Y-131622477D01*
X222420252Y-131808521D01*
X222110872Y-131936670D01*
X222001393Y-131958447D01*
X221782437Y-132002000D01*
X221447563Y-132002000D01*
X221228607Y-131958447D01*
X221119128Y-131936670D01*
X220809748Y-131808521D01*
X220531313Y-131622477D01*
X220294523Y-131385687D01*
X220108479Y-131107252D01*
X219980330Y-130797872D01*
X219915000Y-130469435D01*
X219915000Y-130134565D01*
X219980330Y-129806128D01*
X220108479Y-129496748D01*
X220294523Y-129218313D01*
X220531313Y-128981523D01*
X220809748Y-128795479D01*
X221119128Y-128667330D01*
X221228607Y-128645553D01*
X221447563Y-128602000D01*
X221782437Y-128602000D01*
X222001393Y-128645553D01*
X222001393Y-128645553D01*
G37*
G36*
X145385445Y-122916929D02*
X145521006Y-122943894D01*
X145904091Y-123102573D01*
X146246536Y-123331388D01*
X146248862Y-123332942D01*
X146542058Y-123626138D01*
X146542060Y-123626141D01*
X146772427Y-123970909D01*
X146931106Y-124353994D01*
X147012000Y-124760676D01*
X147012000Y-125175324D01*
X146931106Y-125582006D01*
X146772427Y-125965091D01*
X146543612Y-126307536D01*
X146542058Y-126309862D01*
X146248862Y-126603058D01*
X146248859Y-126603060D01*
X145904091Y-126833427D01*
X145521006Y-126992106D01*
X145385445Y-127019071D01*
X145114326Y-127073000D01*
X144699674Y-127073000D01*
X144428555Y-127019071D01*
X144292994Y-126992106D01*
X143909909Y-126833427D01*
X143565141Y-126603060D01*
X143565138Y-126603058D01*
X143271942Y-126309862D01*
X143270388Y-126307536D01*
X143041573Y-125965091D01*
X142882894Y-125582006D01*
X142802000Y-125175324D01*
X142802000Y-124760676D01*
X142882894Y-124353994D01*
X143041573Y-123970909D01*
X143271940Y-123626141D01*
X143271942Y-123626138D01*
X143565138Y-123332942D01*
X143567464Y-123331388D01*
X143909909Y-123102573D01*
X144292994Y-122943894D01*
X144428555Y-122916929D01*
X144699674Y-122863000D01*
X145114326Y-122863000D01*
X145385445Y-122916929D01*
X145385445Y-122916929D01*
G37*
G36*
X103856445Y-122916929D02*
X103992006Y-122943894D01*
X104375091Y-123102573D01*
X104717536Y-123331388D01*
X104719862Y-123332942D01*
X105013058Y-123626138D01*
X105013060Y-123626141D01*
X105243427Y-123970909D01*
X105402106Y-124353994D01*
X105483000Y-124760676D01*
X105483000Y-125175324D01*
X105402106Y-125582006D01*
X105243427Y-125965091D01*
X105014612Y-126307536D01*
X105013058Y-126309862D01*
X104719862Y-126603058D01*
X104719859Y-126603060D01*
X104375091Y-126833427D01*
X103992006Y-126992106D01*
X103856445Y-127019071D01*
X103585326Y-127073000D01*
X103170674Y-127073000D01*
X102899555Y-127019071D01*
X102763994Y-126992106D01*
X102380909Y-126833427D01*
X102036141Y-126603060D01*
X102036138Y-126603058D01*
X101742942Y-126309862D01*
X101741388Y-126307536D01*
X101512573Y-125965091D01*
X101353894Y-125582006D01*
X101273000Y-125175324D01*
X101273000Y-124760676D01*
X101353894Y-124353994D01*
X101512573Y-123970909D01*
X101742940Y-123626141D01*
X101742942Y-123626138D01*
X102036138Y-123332942D01*
X102038464Y-123331388D01*
X102380909Y-123102573D01*
X102763994Y-122943894D01*
X102899555Y-122916929D01*
X103170674Y-122863000D01*
X103585326Y-122863000D01*
X103856445Y-122916929D01*
X103856445Y-122916929D01*
G37*
G36*
X111476445Y-122916929D02*
X111612006Y-122943894D01*
X111995091Y-123102573D01*
X112337536Y-123331388D01*
X112339862Y-123332942D01*
X112633058Y-123626138D01*
X112633060Y-123626141D01*
X112863427Y-123970909D01*
X113022106Y-124353994D01*
X113103000Y-124760676D01*
X113103000Y-125175324D01*
X113022106Y-125582006D01*
X112863427Y-125965091D01*
X112634612Y-126307536D01*
X112633058Y-126309862D01*
X112339862Y-126603058D01*
X112339859Y-126603060D01*
X111995091Y-126833427D01*
X111612006Y-126992106D01*
X111476445Y-127019071D01*
X111205326Y-127073000D01*
X110790674Y-127073000D01*
X110519555Y-127019071D01*
X110383994Y-126992106D01*
X110000909Y-126833427D01*
X109656141Y-126603060D01*
X109656138Y-126603058D01*
X109362942Y-126309862D01*
X109361388Y-126307536D01*
X109132573Y-125965091D01*
X108973894Y-125582006D01*
X108893000Y-125175324D01*
X108893000Y-124760676D01*
X108973894Y-124353994D01*
X109132573Y-123970909D01*
X109362940Y-123626141D01*
X109362942Y-123626138D01*
X109656138Y-123332942D01*
X109658464Y-123331388D01*
X110000909Y-123102573D01*
X110383994Y-122943894D01*
X110519555Y-122916929D01*
X110790674Y-122863000D01*
X111205326Y-122863000D01*
X111476445Y-122916929D01*
X111476445Y-122916929D01*
G37*
G36*
X153005445Y-122916929D02*
X153141006Y-122943894D01*
X153524091Y-123102573D01*
X153866536Y-123331388D01*
X153868862Y-123332942D01*
X154162058Y-123626138D01*
X154162060Y-123626141D01*
X154392427Y-123970909D01*
X154551106Y-124353994D01*
X154632000Y-124760676D01*
X154632000Y-125175324D01*
X154551106Y-125582006D01*
X154392427Y-125965091D01*
X154163612Y-126307536D01*
X154162058Y-126309862D01*
X153868862Y-126603058D01*
X153868859Y-126603060D01*
X153524091Y-126833427D01*
X153141006Y-126992106D01*
X153005445Y-127019071D01*
X152734326Y-127073000D01*
X152319674Y-127073000D01*
X152048555Y-127019071D01*
X151912994Y-126992106D01*
X151529909Y-126833427D01*
X151185141Y-126603060D01*
X151185138Y-126603058D01*
X150891942Y-126309862D01*
X150890388Y-126307536D01*
X150661573Y-125965091D01*
X150502894Y-125582006D01*
X150422000Y-125175324D01*
X150422000Y-124760676D01*
X150502894Y-124353994D01*
X150661573Y-123970909D01*
X150891940Y-123626141D01*
X150891942Y-123626138D01*
X151185138Y-123332942D01*
X151187464Y-123331388D01*
X151529909Y-123102573D01*
X151912994Y-122943894D01*
X152048555Y-122916929D01*
X152319674Y-122863000D01*
X152734326Y-122863000D01*
X153005445Y-122916929D01*
X153005445Y-122916929D01*
G37*
G36*
X160625445Y-122916929D02*
X160761006Y-122943894D01*
X161144091Y-123102573D01*
X161486536Y-123331388D01*
X161488862Y-123332942D01*
X161782058Y-123626138D01*
X161782060Y-123626141D01*
X162012427Y-123970909D01*
X162171106Y-124353994D01*
X162252000Y-124760676D01*
X162252000Y-125175324D01*
X162171106Y-125582006D01*
X162012427Y-125965091D01*
X161783612Y-126307536D01*
X161782058Y-126309862D01*
X161488862Y-126603058D01*
X161488859Y-126603060D01*
X161144091Y-126833427D01*
X160761006Y-126992106D01*
X160625445Y-127019071D01*
X160354326Y-127073000D01*
X159939674Y-127073000D01*
X159668555Y-127019071D01*
X159532994Y-126992106D01*
X159149909Y-126833427D01*
X158805141Y-126603060D01*
X158805138Y-126603058D01*
X158511942Y-126309862D01*
X158510388Y-126307536D01*
X158281573Y-125965091D01*
X158122894Y-125582006D01*
X158042000Y-125175324D01*
X158042000Y-124760676D01*
X158122894Y-124353994D01*
X158281573Y-123970909D01*
X158511940Y-123626141D01*
X158511942Y-123626138D01*
X158805138Y-123332942D01*
X158807464Y-123331388D01*
X159149909Y-123102573D01*
X159532994Y-122943894D01*
X159668555Y-122916929D01*
X159939674Y-122863000D01*
X160354326Y-122863000D01*
X160625445Y-122916929D01*
X160625445Y-122916929D01*
G37*
G36*
X119096445Y-122916929D02*
X119232006Y-122943894D01*
X119615091Y-123102573D01*
X119957536Y-123331388D01*
X119959862Y-123332942D01*
X120253058Y-123626138D01*
X120253060Y-123626141D01*
X120483427Y-123970909D01*
X120642106Y-124353994D01*
X120723000Y-124760676D01*
X120723000Y-125175324D01*
X120642106Y-125582006D01*
X120483427Y-125965091D01*
X120254612Y-126307536D01*
X120253058Y-126309862D01*
X119959862Y-126603058D01*
X119959859Y-126603060D01*
X119615091Y-126833427D01*
X119232006Y-126992106D01*
X119096445Y-127019071D01*
X118825326Y-127073000D01*
X118410674Y-127073000D01*
X118139555Y-127019071D01*
X118003994Y-126992106D01*
X117620909Y-126833427D01*
X117276141Y-126603060D01*
X117276138Y-126603058D01*
X116982942Y-126309862D01*
X116981388Y-126307536D01*
X116752573Y-125965091D01*
X116593894Y-125582006D01*
X116513000Y-125175324D01*
X116513000Y-124760676D01*
X116593894Y-124353994D01*
X116752573Y-123970909D01*
X116982940Y-123626141D01*
X116982942Y-123626138D01*
X117276138Y-123332942D01*
X117278464Y-123331388D01*
X117620909Y-123102573D01*
X118003994Y-122943894D01*
X118139555Y-122916929D01*
X118410674Y-122863000D01*
X118825326Y-122863000D01*
X119096445Y-122916929D01*
X119096445Y-122916929D01*
G37*
G36*
X223315000Y-125525000D02*
X219915000Y-125525000D01*
X219915000Y-122125000D01*
X223315000Y-122125000D01*
X223315000Y-125525000D01*
X223315000Y-125525000D01*
G37*
G36*
X222001393Y-117088553D02*
X222110872Y-117110330D01*
X222420252Y-117238479D01*
X222698687Y-117424523D01*
X222935477Y-117661313D01*
X223121521Y-117939748D01*
X223249670Y-118249128D01*
X223315000Y-118577565D01*
X223315000Y-118912435D01*
X223249670Y-119240872D01*
X223121521Y-119550252D01*
X222935477Y-119828687D01*
X222698687Y-120065477D01*
X222420252Y-120251521D01*
X222110872Y-120379670D01*
X222001393Y-120401447D01*
X221782437Y-120445000D01*
X221447563Y-120445000D01*
X221228607Y-120401447D01*
X221119128Y-120379670D01*
X220809748Y-120251521D01*
X220531313Y-120065477D01*
X220294523Y-119828687D01*
X220108479Y-119550252D01*
X219980330Y-119240872D01*
X219915000Y-118912435D01*
X219915000Y-118577565D01*
X219980330Y-118249128D01*
X220108479Y-117939748D01*
X220294523Y-117661313D01*
X220531313Y-117424523D01*
X220809748Y-117238479D01*
X221119128Y-117110330D01*
X221228607Y-117088553D01*
X221447563Y-117045000D01*
X221782437Y-117045000D01*
X222001393Y-117088553D01*
X222001393Y-117088553D01*
G37*
G36*
X223315000Y-113968000D02*
X219915000Y-113968000D01*
X219915000Y-110568000D01*
X223315000Y-110568000D01*
X223315000Y-113968000D01*
X223315000Y-113968000D01*
G37*
G36*
X81945195Y-98888874D02*
X82820119Y-99062907D01*
X83781018Y-99460924D01*
X84645804Y-100038756D01*
X85381244Y-100774196D01*
X85959076Y-101638982D01*
X86357093Y-102599881D01*
X86560000Y-103619965D01*
X86560000Y-104660035D01*
X86357093Y-105680119D01*
X85959076Y-106641018D01*
X85381244Y-107505804D01*
X84645804Y-108241244D01*
X83781018Y-108819076D01*
X82820119Y-109217093D01*
X81945195Y-109391126D01*
X81800036Y-109420000D01*
X80759964Y-109420000D01*
X80614805Y-109391126D01*
X79739881Y-109217093D01*
X78778982Y-108819076D01*
X77914196Y-108241244D01*
X77178756Y-107505804D01*
X76600924Y-106641018D01*
X76202907Y-105680119D01*
X76000000Y-104660035D01*
X76000000Y-103619965D01*
X76202907Y-102599881D01*
X76600924Y-101638982D01*
X77178756Y-100774196D01*
X77914196Y-100038756D01*
X78778982Y-99460924D01*
X79739881Y-99062907D01*
X80614805Y-98888874D01*
X80759964Y-98860000D01*
X81800036Y-98860000D01*
X81945195Y-98888874D01*
X81945195Y-98888874D01*
G37*
G36*
X222001393Y-105531553D02*
X222110872Y-105553330D01*
X222420252Y-105681479D01*
X222698687Y-105867523D01*
X222935477Y-106104313D01*
X223121521Y-106382748D01*
X223249670Y-106692128D01*
X223249670Y-106692129D01*
X223315000Y-107020563D01*
X223315000Y-107355437D01*
X223271447Y-107574393D01*
X223249670Y-107683872D01*
X223121521Y-107993252D01*
X222935477Y-108271687D01*
X222698687Y-108508477D01*
X222420252Y-108694521D01*
X222110872Y-108822670D01*
X222001393Y-108844447D01*
X221782437Y-108888000D01*
X221447563Y-108888000D01*
X221228607Y-108844447D01*
X221119128Y-108822670D01*
X220809748Y-108694521D01*
X220531313Y-108508477D01*
X220294523Y-108271687D01*
X220108479Y-107993252D01*
X219980330Y-107683872D01*
X219958553Y-107574393D01*
X219915000Y-107355437D01*
X219915000Y-107020563D01*
X219980330Y-106692129D01*
X219980330Y-106692128D01*
X220108479Y-106382748D01*
X220294523Y-106104313D01*
X220531313Y-105867523D01*
X220809748Y-105681479D01*
X221119128Y-105553330D01*
X221228607Y-105531553D01*
X221447563Y-105488000D01*
X221782437Y-105488000D01*
X222001393Y-105531553D01*
X222001393Y-105531553D01*
G37*
G36*
X197773000Y-104301000D02*
X195673000Y-104301000D01*
X195673000Y-102201000D01*
X197773000Y-102201000D01*
X197773000Y-104301000D01*
X197773000Y-104301000D01*
G37*
G36*
X199391707Y-102208596D02*
X199468836Y-102216193D01*
X199600787Y-102256220D01*
X199666763Y-102276233D01*
X199849172Y-102373733D01*
X200009054Y-102504946D01*
X200140267Y-102664828D01*
X200237767Y-102847237D01*
X200237767Y-102847238D01*
X200297807Y-103045164D01*
X200318080Y-103251000D01*
X200297807Y-103456836D01*
X200257780Y-103588787D01*
X200237767Y-103654763D01*
X200140267Y-103837172D01*
X200009054Y-103997054D01*
X199849172Y-104128267D01*
X199666763Y-104225767D01*
X199600787Y-104245780D01*
X199468836Y-104285807D01*
X199391707Y-104293403D01*
X199314580Y-104301000D01*
X199211420Y-104301000D01*
X199134293Y-104293404D01*
X199057164Y-104285807D01*
X198925213Y-104245780D01*
X198859237Y-104225767D01*
X198676828Y-104128267D01*
X198516946Y-103997054D01*
X198385733Y-103837172D01*
X198288233Y-103654763D01*
X198268220Y-103588787D01*
X198228193Y-103456836D01*
X198207920Y-103251000D01*
X198228193Y-103045164D01*
X198288233Y-102847238D01*
X198288233Y-102847237D01*
X198385733Y-102664828D01*
X198516946Y-102504946D01*
X198676828Y-102373733D01*
X198859237Y-102276233D01*
X198925213Y-102256220D01*
X199057164Y-102216193D01*
X199134293Y-102208596D01*
X199211420Y-102201000D01*
X199314580Y-102201000D01*
X199391707Y-102208596D01*
X199391707Y-102208596D01*
G37*
G36*
X201931707Y-102208596D02*
X202008836Y-102216193D01*
X202140787Y-102256220D01*
X202206763Y-102276233D01*
X202389172Y-102373733D01*
X202549054Y-102504946D01*
X202680267Y-102664828D01*
X202777767Y-102847237D01*
X202777767Y-102847238D01*
X202837807Y-103045164D01*
X202858080Y-103251000D01*
X202837807Y-103456836D01*
X202797780Y-103588787D01*
X202777767Y-103654763D01*
X202680267Y-103837172D01*
X202549054Y-103997054D01*
X202389172Y-104128267D01*
X202206763Y-104225767D01*
X202140787Y-104245780D01*
X202008836Y-104285807D01*
X201931707Y-104293403D01*
X201854580Y-104301000D01*
X201751420Y-104301000D01*
X201674293Y-104293404D01*
X201597164Y-104285807D01*
X201465213Y-104245780D01*
X201399237Y-104225767D01*
X201216828Y-104128267D01*
X201056946Y-103997054D01*
X200925733Y-103837172D01*
X200828233Y-103654763D01*
X200808220Y-103588787D01*
X200768193Y-103456836D01*
X200747920Y-103251000D01*
X200768193Y-103045164D01*
X200828233Y-102847238D01*
X200828233Y-102847237D01*
X200925733Y-102664828D01*
X201056946Y-102504946D01*
X201216828Y-102373733D01*
X201399237Y-102276233D01*
X201465213Y-102256220D01*
X201597164Y-102216193D01*
X201674293Y-102208596D01*
X201751420Y-102201000D01*
X201854580Y-102201000D01*
X201931707Y-102208596D01*
X201931707Y-102208596D01*
G37*
G36*
X204471707Y-102208596D02*
X204548836Y-102216193D01*
X204680787Y-102256220D01*
X204746763Y-102276233D01*
X204929172Y-102373733D01*
X205089054Y-102504946D01*
X205220267Y-102664828D01*
X205317767Y-102847237D01*
X205317767Y-102847238D01*
X205377807Y-103045164D01*
X205398080Y-103251000D01*
X205377807Y-103456836D01*
X205337780Y-103588787D01*
X205317767Y-103654763D01*
X205220267Y-103837172D01*
X205089054Y-103997054D01*
X204929172Y-104128267D01*
X204746763Y-104225767D01*
X204680787Y-104245780D01*
X204548836Y-104285807D01*
X204471707Y-104293403D01*
X204394580Y-104301000D01*
X204291420Y-104301000D01*
X204214293Y-104293404D01*
X204137164Y-104285807D01*
X204005213Y-104245780D01*
X203939237Y-104225767D01*
X203756828Y-104128267D01*
X203596946Y-103997054D01*
X203465733Y-103837172D01*
X203368233Y-103654763D01*
X203348220Y-103588787D01*
X203308193Y-103456836D01*
X203287920Y-103251000D01*
X203308193Y-103045164D01*
X203368233Y-102847238D01*
X203368233Y-102847237D01*
X203465733Y-102664828D01*
X203596946Y-102504946D01*
X203756828Y-102373733D01*
X203939237Y-102276233D01*
X204005213Y-102256220D01*
X204137164Y-102216193D01*
X204214293Y-102208596D01*
X204291420Y-102201000D01*
X204394580Y-102201000D01*
X204471707Y-102208596D01*
X204471707Y-102208596D01*
G37*
G36*
X214248122Y-100549517D02*
X214296085Y-100564066D01*
X214340275Y-100587686D01*
X214379018Y-100619482D01*
X214410814Y-100658225D01*
X214434434Y-100702415D01*
X214448983Y-100750378D01*
X214454500Y-100806391D01*
X214454500Y-101631609D01*
X214448983Y-101687622D01*
X214434434Y-101735585D01*
X214410814Y-101779775D01*
X214379018Y-101818518D01*
X214340275Y-101850314D01*
X214296085Y-101873934D01*
X214248122Y-101888483D01*
X214192109Y-101894000D01*
X213441891Y-101894000D01*
X213385878Y-101888483D01*
X213337915Y-101873934D01*
X213293725Y-101850314D01*
X213254982Y-101818518D01*
X213223186Y-101779775D01*
X213199566Y-101735585D01*
X213185017Y-101687622D01*
X213179500Y-101631609D01*
X213179500Y-100806391D01*
X213185017Y-100750378D01*
X213199566Y-100702415D01*
X213223186Y-100658225D01*
X213254982Y-100619482D01*
X213293725Y-100587686D01*
X213337915Y-100564066D01*
X213385878Y-100549517D01*
X213441891Y-100544000D01*
X214192109Y-100544000D01*
X214248122Y-100549517D01*
X214248122Y-100549517D01*
G37*
G36*
X215823122Y-100549517D02*
X215871085Y-100564066D01*
X215915275Y-100587686D01*
X215954018Y-100619482D01*
X215985814Y-100658225D01*
X216009434Y-100702415D01*
X216023983Y-100750378D01*
X216029500Y-100806391D01*
X216029500Y-101631609D01*
X216023983Y-101687622D01*
X216009434Y-101735585D01*
X215985814Y-101779775D01*
X215954018Y-101818518D01*
X215915275Y-101850314D01*
X215871085Y-101873934D01*
X215823122Y-101888483D01*
X215767109Y-101894000D01*
X215016891Y-101894000D01*
X214960878Y-101888483D01*
X214912915Y-101873934D01*
X214868725Y-101850314D01*
X214829982Y-101818518D01*
X214798186Y-101779775D01*
X214774566Y-101735585D01*
X214760017Y-101687622D01*
X214754500Y-101631609D01*
X214754500Y-100806391D01*
X214760017Y-100750378D01*
X214774566Y-100702415D01*
X214798186Y-100658225D01*
X214829982Y-100619482D01*
X214868725Y-100587686D01*
X214912915Y-100564066D01*
X214960878Y-100549517D01*
X215016891Y-100544000D01*
X215767109Y-100544000D01*
X215823122Y-100549517D01*
X215823122Y-100549517D01*
G37*
G36*
X223315000Y-101395000D02*
X219915000Y-101395000D01*
X219915000Y-97995000D01*
X223315000Y-97995000D01*
X223315000Y-101395000D01*
X223315000Y-101395000D01*
G37*
G36*
X70796000Y-101022000D02*
X68396000Y-101022000D01*
X68396000Y-98622000D01*
X70796000Y-98622000D01*
X70796000Y-101022000D01*
X70796000Y-101022000D01*
G37*
G36*
X209294908Y-99647625D02*
X207344908Y-99647625D01*
X207344908Y-98647625D01*
X209294908Y-98647625D01*
X209294908Y-99647625D01*
X209294908Y-99647625D01*
G37*
G36*
X214694908Y-99647625D02*
X212744908Y-99647625D01*
X212744908Y-98647625D01*
X214694908Y-98647625D01*
X214694908Y-99647625D01*
X214694908Y-99647625D01*
G37*
G36*
X193381622Y-97945517D02*
X193429585Y-97960066D01*
X193473775Y-97983686D01*
X193512518Y-98015482D01*
X193544314Y-98054225D01*
X193567934Y-98098415D01*
X193582483Y-98146378D01*
X193588000Y-98202391D01*
X193588000Y-98952609D01*
X193582483Y-99008622D01*
X193567934Y-99056585D01*
X193544314Y-99100775D01*
X193512518Y-99139518D01*
X193473775Y-99171314D01*
X193429585Y-99194934D01*
X193381622Y-99209483D01*
X193325609Y-99215000D01*
X192500391Y-99215000D01*
X192444378Y-99209483D01*
X192396415Y-99194934D01*
X192352225Y-99171314D01*
X192313482Y-99139518D01*
X192281686Y-99100775D01*
X192258066Y-99056585D01*
X192243517Y-99008622D01*
X192238000Y-98952609D01*
X192238000Y-98202391D01*
X192243517Y-98146378D01*
X192258066Y-98098415D01*
X192281686Y-98054225D01*
X192313482Y-98015482D01*
X192352225Y-97983686D01*
X192396415Y-97960066D01*
X192444378Y-97945517D01*
X192500391Y-97940000D01*
X193325609Y-97940000D01*
X193381622Y-97945517D01*
X193381622Y-97945517D01*
G37*
G36*
X191603622Y-97945517D02*
X191651585Y-97960066D01*
X191695775Y-97983686D01*
X191734518Y-98015482D01*
X191766314Y-98054225D01*
X191789934Y-98098415D01*
X191804483Y-98146378D01*
X191810000Y-98202391D01*
X191810000Y-98952609D01*
X191804483Y-99008622D01*
X191789934Y-99056585D01*
X191766314Y-99100775D01*
X191734518Y-99139518D01*
X191695775Y-99171314D01*
X191651585Y-99194934D01*
X191603622Y-99209483D01*
X191547609Y-99215000D01*
X190722391Y-99215000D01*
X190666378Y-99209483D01*
X190618415Y-99194934D01*
X190574225Y-99171314D01*
X190535482Y-99139518D01*
X190503686Y-99100775D01*
X190480066Y-99056585D01*
X190465517Y-99008622D01*
X190460000Y-98952609D01*
X190460000Y-98202391D01*
X190465517Y-98146378D01*
X190480066Y-98098415D01*
X190503686Y-98054225D01*
X190535482Y-98015482D01*
X190574225Y-97983686D01*
X190618415Y-97960066D01*
X190666378Y-97945517D01*
X190722391Y-97940000D01*
X191547609Y-97940000D01*
X191603622Y-97945517D01*
X191603622Y-97945517D01*
G37*
G36*
X206716622Y-97412017D02*
X206764585Y-97426566D01*
X206808775Y-97450186D01*
X206847518Y-97481982D01*
X206879314Y-97520725D01*
X206902934Y-97564915D01*
X206917483Y-97612878D01*
X206923000Y-97668891D01*
X206923000Y-98419109D01*
X206917483Y-98475122D01*
X206902934Y-98523085D01*
X206879314Y-98567275D01*
X206847518Y-98606018D01*
X206808775Y-98637814D01*
X206764585Y-98661434D01*
X206716622Y-98675983D01*
X206660609Y-98681500D01*
X205835391Y-98681500D01*
X205779378Y-98675983D01*
X205731415Y-98661434D01*
X205687225Y-98637814D01*
X205648482Y-98606018D01*
X205616686Y-98567275D01*
X205593066Y-98523085D01*
X205578517Y-98475122D01*
X205573000Y-98419109D01*
X205573000Y-97668891D01*
X205578517Y-97612878D01*
X205593066Y-97564915D01*
X205616686Y-97520725D01*
X205648482Y-97481982D01*
X205687225Y-97450186D01*
X205731415Y-97426566D01*
X205779378Y-97412017D01*
X205835391Y-97406500D01*
X206660609Y-97406500D01*
X206716622Y-97412017D01*
X206716622Y-97412017D01*
G37*
G36*
X209294908Y-98377625D02*
X207344908Y-98377625D01*
X207344908Y-97377625D01*
X209294908Y-97377625D01*
X209294908Y-98377625D01*
X209294908Y-98377625D01*
G37*
G36*
X214694908Y-98377625D02*
X212744908Y-98377625D01*
X212744908Y-97377625D01*
X214694908Y-97377625D01*
X214694908Y-98377625D01*
X214694908Y-98377625D01*
G37*
G36*
X191603622Y-96370517D02*
X191651585Y-96385066D01*
X191695775Y-96408686D01*
X191734518Y-96440482D01*
X191766314Y-96479225D01*
X191789934Y-96523415D01*
X191804483Y-96571378D01*
X191810000Y-96627391D01*
X191810000Y-97377609D01*
X191804483Y-97433622D01*
X191789934Y-97481585D01*
X191766314Y-97525775D01*
X191734518Y-97564518D01*
X191695775Y-97596314D01*
X191651585Y-97619934D01*
X191603622Y-97634483D01*
X191547609Y-97640000D01*
X190722391Y-97640000D01*
X190666378Y-97634483D01*
X190618415Y-97619934D01*
X190574225Y-97596314D01*
X190535482Y-97564518D01*
X190503686Y-97525775D01*
X190480066Y-97481585D01*
X190465517Y-97433622D01*
X190460000Y-97377609D01*
X190460000Y-96627391D01*
X190465517Y-96571378D01*
X190480066Y-96523415D01*
X190503686Y-96479225D01*
X190535482Y-96440482D01*
X190574225Y-96408686D01*
X190618415Y-96385066D01*
X190666378Y-96370517D01*
X190722391Y-96365000D01*
X191547609Y-96365000D01*
X191603622Y-96370517D01*
X191603622Y-96370517D01*
G37*
G36*
X193381622Y-96370517D02*
X193429585Y-96385066D01*
X193473775Y-96408686D01*
X193512518Y-96440482D01*
X193544314Y-96479225D01*
X193567934Y-96523415D01*
X193582483Y-96571378D01*
X193588000Y-96627391D01*
X193588000Y-97377609D01*
X193582483Y-97433622D01*
X193567934Y-97481585D01*
X193544314Y-97525775D01*
X193512518Y-97564518D01*
X193473775Y-97596314D01*
X193429585Y-97619934D01*
X193381622Y-97634483D01*
X193325609Y-97640000D01*
X192500391Y-97640000D01*
X192444378Y-97634483D01*
X192396415Y-97619934D01*
X192352225Y-97596314D01*
X192313482Y-97564518D01*
X192281686Y-97525775D01*
X192258066Y-97481585D01*
X192243517Y-97433622D01*
X192238000Y-97377609D01*
X192238000Y-96627391D01*
X192243517Y-96571378D01*
X192258066Y-96523415D01*
X192281686Y-96479225D01*
X192313482Y-96440482D01*
X192352225Y-96408686D01*
X192396415Y-96385066D01*
X192444378Y-96370517D01*
X192500391Y-96365000D01*
X193325609Y-96365000D01*
X193381622Y-96370517D01*
X193381622Y-96370517D01*
G37*
G36*
X214694908Y-97107625D02*
X212744908Y-97107625D01*
X212744908Y-96107625D01*
X214694908Y-96107625D01*
X214694908Y-97107625D01*
X214694908Y-97107625D01*
G37*
G36*
X209294908Y-97107625D02*
X207344908Y-97107625D01*
X207344908Y-96107625D01*
X209294908Y-96107625D01*
X209294908Y-97107625D01*
X209294908Y-97107625D01*
G37*
G36*
X206716622Y-95837017D02*
X206764585Y-95851566D01*
X206808775Y-95875186D01*
X206847518Y-95906982D01*
X206879314Y-95945725D01*
X206902934Y-95989915D01*
X206917483Y-96037878D01*
X206923000Y-96093891D01*
X206923000Y-96844109D01*
X206917483Y-96900122D01*
X206902934Y-96948085D01*
X206879314Y-96992275D01*
X206847518Y-97031018D01*
X206808775Y-97062814D01*
X206764585Y-97086434D01*
X206716622Y-97100983D01*
X206660609Y-97106500D01*
X205835391Y-97106500D01*
X205779378Y-97100983D01*
X205731415Y-97086434D01*
X205687225Y-97062814D01*
X205648482Y-97031018D01*
X205616686Y-96992275D01*
X205593066Y-96948085D01*
X205578517Y-96900122D01*
X205573000Y-96844109D01*
X205573000Y-96093891D01*
X205578517Y-96037878D01*
X205593066Y-95989915D01*
X205616686Y-95945725D01*
X205648482Y-95906982D01*
X205687225Y-95875186D01*
X205731415Y-95851566D01*
X205779378Y-95837017D01*
X205835391Y-95831500D01*
X206660609Y-95831500D01*
X206716622Y-95837017D01*
X206716622Y-95837017D01*
G37*
G36*
X182625122Y-95596517D02*
X182673085Y-95611066D01*
X182717275Y-95634686D01*
X182756018Y-95666482D01*
X182787814Y-95705225D01*
X182811434Y-95749415D01*
X182825983Y-95797378D01*
X182831500Y-95853391D01*
X182831500Y-96678609D01*
X182825983Y-96734622D01*
X182811434Y-96782585D01*
X182787814Y-96826775D01*
X182756018Y-96865518D01*
X182717275Y-96897314D01*
X182673085Y-96920934D01*
X182625122Y-96935483D01*
X182569109Y-96941000D01*
X181818891Y-96941000D01*
X181762878Y-96935483D01*
X181714915Y-96920934D01*
X181670725Y-96897314D01*
X181631982Y-96865518D01*
X181600186Y-96826775D01*
X181576566Y-96782585D01*
X181562017Y-96734622D01*
X181556500Y-96678609D01*
X181556500Y-95853391D01*
X181562017Y-95797378D01*
X181576566Y-95749415D01*
X181600186Y-95705225D01*
X181631982Y-95666482D01*
X181670725Y-95634686D01*
X181714915Y-95611066D01*
X181762878Y-95596517D01*
X181818891Y-95591000D01*
X182569109Y-95591000D01*
X182625122Y-95596517D01*
X182625122Y-95596517D01*
G37*
G36*
X184200122Y-95596517D02*
X184248085Y-95611066D01*
X184292275Y-95634686D01*
X184331018Y-95666482D01*
X184362814Y-95705225D01*
X184386434Y-95749415D01*
X184400983Y-95797378D01*
X184406500Y-95853391D01*
X184406500Y-96678609D01*
X184400983Y-96734622D01*
X184386434Y-96782585D01*
X184362814Y-96826775D01*
X184331018Y-96865518D01*
X184292275Y-96897314D01*
X184248085Y-96920934D01*
X184200122Y-96935483D01*
X184144109Y-96941000D01*
X183393891Y-96941000D01*
X183337878Y-96935483D01*
X183289915Y-96920934D01*
X183245725Y-96897314D01*
X183206982Y-96865518D01*
X183175186Y-96826775D01*
X183151566Y-96782585D01*
X183137017Y-96734622D01*
X183131500Y-96678609D01*
X183131500Y-95853391D01*
X183137017Y-95797378D01*
X183151566Y-95749415D01*
X183175186Y-95705225D01*
X183206982Y-95666482D01*
X183245725Y-95634686D01*
X183289915Y-95611066D01*
X183337878Y-95596517D01*
X183393891Y-95591000D01*
X184144109Y-95591000D01*
X184200122Y-95596517D01*
X184200122Y-95596517D01*
G37*
G36*
X222001393Y-92958553D02*
X222110872Y-92980330D01*
X222420252Y-93108479D01*
X222698687Y-93294523D01*
X222935477Y-93531313D01*
X223121521Y-93809748D01*
X223154721Y-93889901D01*
X223249670Y-94119129D01*
X223315000Y-94447563D01*
X223315000Y-94782437D01*
X223271447Y-95001393D01*
X223249670Y-95110872D01*
X223121521Y-95420252D01*
X222935477Y-95698687D01*
X222698687Y-95935477D01*
X222420252Y-96121521D01*
X222110872Y-96249670D01*
X222001393Y-96271447D01*
X221782437Y-96315000D01*
X221447563Y-96315000D01*
X221228607Y-96271447D01*
X221119128Y-96249670D01*
X220809748Y-96121521D01*
X220531313Y-95935477D01*
X220294523Y-95698687D01*
X220108479Y-95420252D01*
X219980330Y-95110872D01*
X219958553Y-95001393D01*
X219915000Y-94782437D01*
X219915000Y-94447563D01*
X219980330Y-94119129D01*
X220075279Y-93889901D01*
X220108479Y-93809748D01*
X220294523Y-93531313D01*
X220531313Y-93294523D01*
X220809748Y-93108479D01*
X221119128Y-92980330D01*
X221228607Y-92958553D01*
X221447563Y-92915000D01*
X221782437Y-92915000D01*
X222001393Y-92958553D01*
X222001393Y-92958553D01*
G37*
G36*
X69946026Y-93668115D02*
X70164412Y-93758573D01*
X70360958Y-93889901D01*
X70528099Y-94057042D01*
X70659427Y-94253588D01*
X70749885Y-94471974D01*
X70796000Y-94703809D01*
X70796000Y-94940191D01*
X70749885Y-95172026D01*
X70659427Y-95390412D01*
X70528099Y-95586958D01*
X70360958Y-95754099D01*
X70164412Y-95885427D01*
X69946026Y-95975885D01*
X69714191Y-96022000D01*
X69477809Y-96022000D01*
X69245974Y-95975885D01*
X69027588Y-95885427D01*
X68831042Y-95754099D01*
X68663901Y-95586958D01*
X68532573Y-95390412D01*
X68442115Y-95172026D01*
X68396000Y-94940191D01*
X68396000Y-94703809D01*
X68442115Y-94471974D01*
X68532573Y-94253588D01*
X68663901Y-94057042D01*
X68831042Y-93889901D01*
X69027588Y-93758573D01*
X69245974Y-93668115D01*
X69477809Y-93622000D01*
X69714191Y-93622000D01*
X69946026Y-93668115D01*
X69946026Y-93668115D01*
G37*
G36*
X209294908Y-95837625D02*
X207344908Y-95837625D01*
X207344908Y-94837625D01*
X209294908Y-94837625D01*
X209294908Y-95837625D01*
X209294908Y-95837625D01*
G37*
G36*
X214694908Y-95837625D02*
X212744908Y-95837625D01*
X212744908Y-94837625D01*
X214694908Y-94837625D01*
X214694908Y-95837625D01*
X214694908Y-95837625D01*
G37*
G36*
X193033908Y-95656625D02*
X186333908Y-95656625D01*
X186333908Y-93806625D01*
X193033908Y-93806625D01*
X193033908Y-95656625D01*
X193033908Y-95656625D01*
G37*
G36*
X184401935Y-95079785D02*
X181501935Y-95079785D01*
X181501935Y-92779785D01*
X184401935Y-92779785D01*
X184401935Y-95079785D01*
X184401935Y-95079785D01*
G37*
G36*
X222665000Y-91093000D02*
X220565000Y-91093000D01*
X220565000Y-88993000D01*
X222665000Y-88993000D01*
X222665000Y-91093000D01*
X222665000Y-91093000D01*
G37*
G36*
X214749000Y-90724000D02*
X212799000Y-90724000D01*
X212799000Y-89724000D01*
X214749000Y-89724000D01*
X214749000Y-90724000D01*
X214749000Y-90724000D01*
G37*
G36*
X209349000Y-90724000D02*
X207399000Y-90724000D01*
X207399000Y-89724000D01*
X209349000Y-89724000D01*
X209349000Y-90724000D01*
X209349000Y-90724000D01*
G37*
G36*
X184401935Y-90679785D02*
X181501935Y-90679785D01*
X181501935Y-88379785D01*
X184401935Y-88379785D01*
X184401935Y-90679785D01*
X184401935Y-90679785D01*
G37*
G36*
X193033908Y-89756625D02*
X186333908Y-89756625D01*
X186333908Y-87906625D01*
X193033908Y-87906625D01*
X193033908Y-89756625D01*
X193033908Y-89756625D01*
G37*
G36*
X209349000Y-89454000D02*
X207399000Y-89454000D01*
X207399000Y-88454000D01*
X209349000Y-88454000D01*
X209349000Y-89454000D01*
X209349000Y-89454000D01*
G37*
G36*
X214749000Y-89454000D02*
X212799000Y-89454000D01*
X212799000Y-88454000D01*
X214749000Y-88454000D01*
X214749000Y-89454000D01*
X214749000Y-89454000D01*
G37*
G36*
X221743707Y-86460597D02*
X221820836Y-86468193D01*
X221928060Y-86500719D01*
X222018763Y-86528233D01*
X222201172Y-86625733D01*
X222361054Y-86756946D01*
X222492267Y-86916828D01*
X222589767Y-87099237D01*
X222589767Y-87099238D01*
X222649807Y-87297164D01*
X222670080Y-87503000D01*
X222649807Y-87708836D01*
X222624921Y-87790875D01*
X222589767Y-87906763D01*
X222492267Y-88089172D01*
X222361054Y-88249054D01*
X222201172Y-88380267D01*
X222018763Y-88477767D01*
X221952787Y-88497780D01*
X221820836Y-88537807D01*
X221743707Y-88545404D01*
X221666580Y-88553000D01*
X221563420Y-88553000D01*
X221486293Y-88545404D01*
X221409164Y-88537807D01*
X221277213Y-88497780D01*
X221211237Y-88477767D01*
X221028828Y-88380267D01*
X220868946Y-88249054D01*
X220737733Y-88089172D01*
X220640233Y-87906763D01*
X220605079Y-87790875D01*
X220580193Y-87708836D01*
X220559920Y-87503000D01*
X220580193Y-87297164D01*
X220640233Y-87099238D01*
X220640233Y-87099237D01*
X220737733Y-86916828D01*
X220868946Y-86756946D01*
X221028828Y-86625733D01*
X221211237Y-86528233D01*
X221301940Y-86500719D01*
X221409164Y-86468193D01*
X221486293Y-86460597D01*
X221563420Y-86453000D01*
X221666580Y-86453000D01*
X221743707Y-86460597D01*
X221743707Y-86460597D01*
G37*
G36*
X209349000Y-88184000D02*
X207399000Y-88184000D01*
X207399000Y-87184000D01*
X209349000Y-87184000D01*
X209349000Y-88184000D01*
X209349000Y-88184000D01*
G37*
G36*
X214749000Y-88184000D02*
X212799000Y-88184000D01*
X212799000Y-87184000D01*
X214749000Y-87184000D01*
X214749000Y-88184000D01*
X214749000Y-88184000D01*
G37*
G36*
X182650622Y-86452517D02*
X182698585Y-86467066D01*
X182742775Y-86490686D01*
X182781518Y-86522482D01*
X182813314Y-86561225D01*
X182836934Y-86605415D01*
X182851483Y-86653378D01*
X182857000Y-86709391D01*
X182857000Y-87534609D01*
X182851483Y-87590622D01*
X182836934Y-87638585D01*
X182813314Y-87682775D01*
X182781518Y-87721518D01*
X182742775Y-87753314D01*
X182698585Y-87776934D01*
X182650622Y-87791483D01*
X182594609Y-87797000D01*
X181844391Y-87797000D01*
X181788378Y-87791483D01*
X181740415Y-87776934D01*
X181696225Y-87753314D01*
X181657482Y-87721518D01*
X181625686Y-87682775D01*
X181602066Y-87638585D01*
X181587517Y-87590622D01*
X181582000Y-87534609D01*
X181582000Y-86709391D01*
X181587517Y-86653378D01*
X181602066Y-86605415D01*
X181625686Y-86561225D01*
X181657482Y-86522482D01*
X181696225Y-86490686D01*
X181740415Y-86467066D01*
X181788378Y-86452517D01*
X181844391Y-86447000D01*
X182594609Y-86447000D01*
X182650622Y-86452517D01*
X182650622Y-86452517D01*
G37*
G36*
X184225622Y-86452517D02*
X184273585Y-86467066D01*
X184317775Y-86490686D01*
X184356518Y-86522482D01*
X184388314Y-86561225D01*
X184411934Y-86605415D01*
X184426483Y-86653378D01*
X184432000Y-86709391D01*
X184432000Y-87534609D01*
X184426483Y-87590622D01*
X184411934Y-87638585D01*
X184388314Y-87682775D01*
X184356518Y-87721518D01*
X184317775Y-87753314D01*
X184273585Y-87776934D01*
X184225622Y-87791483D01*
X184169609Y-87797000D01*
X183419391Y-87797000D01*
X183363378Y-87791483D01*
X183315415Y-87776934D01*
X183271225Y-87753314D01*
X183232482Y-87721518D01*
X183200686Y-87682775D01*
X183177066Y-87638585D01*
X183162517Y-87590622D01*
X183157000Y-87534609D01*
X183157000Y-86709391D01*
X183162517Y-86653378D01*
X183177066Y-86605415D01*
X183200686Y-86561225D01*
X183232482Y-86522482D01*
X183271225Y-86490686D01*
X183315415Y-86467066D01*
X183363378Y-86452517D01*
X183419391Y-86447000D01*
X184169609Y-86447000D01*
X184225622Y-86452517D01*
X184225622Y-86452517D01*
G37*
G36*
X214749000Y-86914000D02*
X212799000Y-86914000D01*
X212799000Y-85914000D01*
X214749000Y-85914000D01*
X214749000Y-86914000D01*
X214749000Y-86914000D01*
G37*
G36*
X209349000Y-86914000D02*
X207399000Y-86914000D01*
X207399000Y-85914000D01*
X209349000Y-85914000D01*
X209349000Y-86914000D01*
X209349000Y-86914000D01*
G37*
G36*
X222665000Y-85886000D02*
X220565000Y-85886000D01*
X220565000Y-83786000D01*
X222665000Y-83786000D01*
X222665000Y-85886000D01*
X222665000Y-85886000D01*
G37*
G36*
X214336622Y-83975517D02*
X214384585Y-83990066D01*
X214428775Y-84013686D01*
X214467518Y-84045482D01*
X214499314Y-84084225D01*
X214522934Y-84128415D01*
X214537483Y-84176378D01*
X214543000Y-84232391D01*
X214543000Y-84982609D01*
X214537483Y-85038622D01*
X214522934Y-85086585D01*
X214499314Y-85130775D01*
X214467518Y-85169518D01*
X214428775Y-85201314D01*
X214384585Y-85224934D01*
X214336622Y-85239483D01*
X214280609Y-85245000D01*
X213455391Y-85245000D01*
X213399378Y-85239483D01*
X213351415Y-85224934D01*
X213307225Y-85201314D01*
X213268482Y-85169518D01*
X213236686Y-85130775D01*
X213213066Y-85086585D01*
X213198517Y-85038622D01*
X213193000Y-84982609D01*
X213193000Y-84232391D01*
X213198517Y-84176378D01*
X213213066Y-84128415D01*
X213236686Y-84084225D01*
X213268482Y-84045482D01*
X213307225Y-84013686D01*
X213351415Y-83990066D01*
X213399378Y-83975517D01*
X213455391Y-83970000D01*
X214280609Y-83970000D01*
X214336622Y-83975517D01*
X214336622Y-83975517D01*
G37*
G36*
X212673622Y-83785517D02*
X212721585Y-83800066D01*
X212765775Y-83823686D01*
X212804518Y-83855482D01*
X212836314Y-83894225D01*
X212859934Y-83938415D01*
X212874483Y-83986378D01*
X212880000Y-84042391D01*
X212880000Y-84867609D01*
X212874483Y-84923622D01*
X212859934Y-84971585D01*
X212836314Y-85015775D01*
X212804518Y-85054518D01*
X212765775Y-85086314D01*
X212721585Y-85109934D01*
X212673622Y-85124483D01*
X212617609Y-85130000D01*
X211867391Y-85130000D01*
X211811378Y-85124483D01*
X211763415Y-85109934D01*
X211719225Y-85086314D01*
X211680482Y-85054518D01*
X211648686Y-85015775D01*
X211625066Y-84971585D01*
X211610517Y-84923622D01*
X211605000Y-84867609D01*
X211605000Y-84042391D01*
X211610517Y-83986378D01*
X211625066Y-83938415D01*
X211648686Y-83894225D01*
X211680482Y-83855482D01*
X211719225Y-83823686D01*
X211763415Y-83800066D01*
X211811378Y-83785517D01*
X211867391Y-83780000D01*
X212617609Y-83780000D01*
X212673622Y-83785517D01*
X212673622Y-83785517D01*
G37*
G36*
X211098622Y-83785517D02*
X211146585Y-83800066D01*
X211190775Y-83823686D01*
X211229518Y-83855482D01*
X211261314Y-83894225D01*
X211284934Y-83938415D01*
X211299483Y-83986378D01*
X211305000Y-84042391D01*
X211305000Y-84867609D01*
X211299483Y-84923622D01*
X211284934Y-84971585D01*
X211261314Y-85015775D01*
X211229518Y-85054518D01*
X211190775Y-85086314D01*
X211146585Y-85109934D01*
X211098622Y-85124483D01*
X211042609Y-85130000D01*
X210292391Y-85130000D01*
X210236378Y-85124483D01*
X210188415Y-85109934D01*
X210144225Y-85086314D01*
X210105482Y-85054518D01*
X210073686Y-85015775D01*
X210050066Y-84971585D01*
X210035517Y-84923622D01*
X210030000Y-84867609D01*
X210030000Y-84042391D01*
X210035517Y-83986378D01*
X210050066Y-83938415D01*
X210073686Y-83894225D01*
X210105482Y-83855482D01*
X210144225Y-83823686D01*
X210188415Y-83800066D01*
X210236378Y-83785517D01*
X210292391Y-83780000D01*
X211042609Y-83780000D01*
X211098622Y-83785517D01*
X211098622Y-83785517D01*
G37*
G36*
X192759000Y-76410000D02*
X192761402Y-76434386D01*
X192768515Y-76457835D01*
X192780066Y-76479446D01*
X192795612Y-76498388D01*
X192814554Y-76513934D01*
X192836165Y-76525485D01*
X192859614Y-76532598D01*
X192884000Y-76535000D01*
X194734000Y-76535000D01*
X194734000Y-83085000D01*
X192884000Y-83085000D01*
X192859614Y-83087402D01*
X192836165Y-83094515D01*
X192814554Y-83106066D01*
X192795612Y-83121612D01*
X192780066Y-83140554D01*
X192768515Y-83162165D01*
X192761402Y-83185614D01*
X192759000Y-83210000D01*
X192759000Y-85060000D01*
X186209000Y-85060000D01*
X186209000Y-83210000D01*
X186206598Y-83185614D01*
X186199485Y-83162165D01*
X186187934Y-83140554D01*
X186172388Y-83121612D01*
X186153446Y-83106066D01*
X186131835Y-83094515D01*
X186108386Y-83087402D01*
X186084000Y-83085000D01*
X184234000Y-83085000D01*
X184234000Y-76685000D01*
X186234000Y-76685000D01*
X186234000Y-82935000D01*
X186236402Y-82959386D01*
X186243515Y-82982835D01*
X186255066Y-83004446D01*
X186270612Y-83023388D01*
X186289554Y-83038934D01*
X186311165Y-83050485D01*
X186334614Y-83057598D01*
X186359000Y-83060000D01*
X192609000Y-83060000D01*
X192633386Y-83057598D01*
X192656835Y-83050485D01*
X192678446Y-83038934D01*
X192697388Y-83023388D01*
X192712934Y-83004446D01*
X192724485Y-82982835D01*
X192731598Y-82959386D01*
X192734000Y-82935000D01*
X192734000Y-76685000D01*
X192731598Y-76660614D01*
X192724485Y-76637165D01*
X192712934Y-76615554D01*
X192697388Y-76596612D01*
X192678446Y-76581066D01*
X192656835Y-76569515D01*
X192633386Y-76562402D01*
X192609000Y-76560000D01*
X186359000Y-76560000D01*
X186334614Y-76562402D01*
X186311165Y-76569515D01*
X186289554Y-76581066D01*
X186270612Y-76596612D01*
X186255066Y-76615554D01*
X186243515Y-76637165D01*
X186236402Y-76660614D01*
X186234000Y-76685000D01*
X184234000Y-76685000D01*
X184234000Y-76535000D01*
X186084000Y-76535000D01*
X186108386Y-76532598D01*
X186131835Y-76525485D01*
X186153446Y-76513934D01*
X186172388Y-76498388D01*
X186187934Y-76479446D01*
X186199485Y-76457835D01*
X186206598Y-76434386D01*
X186209000Y-76410000D01*
X186209000Y-74560000D01*
X192759000Y-74560000D01*
X192759000Y-76410000D01*
X192759000Y-76410000D01*
G37*
G36*
X214336622Y-82400517D02*
X214384585Y-82415066D01*
X214428775Y-82438686D01*
X214467518Y-82470482D01*
X214499314Y-82509225D01*
X214522934Y-82553415D01*
X214537483Y-82601378D01*
X214543000Y-82657391D01*
X214543000Y-83407609D01*
X214537483Y-83463622D01*
X214522934Y-83511585D01*
X214499314Y-83555775D01*
X214467518Y-83594518D01*
X214428775Y-83626314D01*
X214384585Y-83649934D01*
X214336622Y-83664483D01*
X214280609Y-83670000D01*
X213455391Y-83670000D01*
X213399378Y-83664483D01*
X213351415Y-83649934D01*
X213307225Y-83626314D01*
X213268482Y-83594518D01*
X213236686Y-83555775D01*
X213213066Y-83511585D01*
X213198517Y-83463622D01*
X213193000Y-83407609D01*
X213193000Y-82657391D01*
X213198517Y-82601378D01*
X213213066Y-82553415D01*
X213236686Y-82509225D01*
X213268482Y-82470482D01*
X213307225Y-82438686D01*
X213351415Y-82415066D01*
X213399378Y-82400517D01*
X213455391Y-82395000D01*
X214280609Y-82395000D01*
X214336622Y-82400517D01*
X214336622Y-82400517D01*
G37*
G36*
X221743707Y-81253596D02*
X221820836Y-81261193D01*
X221952787Y-81301220D01*
X222018763Y-81321233D01*
X222201172Y-81418733D01*
X222361054Y-81549946D01*
X222492267Y-81709828D01*
X222589767Y-81892237D01*
X222589767Y-81892238D01*
X222649807Y-82090164D01*
X222670080Y-82296000D01*
X222649807Y-82501836D01*
X222622526Y-82591770D01*
X222589767Y-82699763D01*
X222492267Y-82882172D01*
X222361054Y-83042054D01*
X222201172Y-83173267D01*
X222018763Y-83270767D01*
X221952787Y-83290780D01*
X221820836Y-83330807D01*
X221743707Y-83338403D01*
X221666580Y-83346000D01*
X221563420Y-83346000D01*
X221486293Y-83338403D01*
X221409164Y-83330807D01*
X221277213Y-83290780D01*
X221211237Y-83270767D01*
X221028828Y-83173267D01*
X220868946Y-83042054D01*
X220737733Y-82882172D01*
X220640233Y-82699763D01*
X220607474Y-82591770D01*
X220580193Y-82501836D01*
X220559920Y-82296000D01*
X220580193Y-82090164D01*
X220640233Y-81892238D01*
X220640233Y-81892237D01*
X220737733Y-81709828D01*
X220868946Y-81549946D01*
X221028828Y-81418733D01*
X221211237Y-81321233D01*
X221277213Y-81301220D01*
X221409164Y-81261193D01*
X221486293Y-81253596D01*
X221563420Y-81246000D01*
X221666580Y-81246000D01*
X221743707Y-81253596D01*
X221743707Y-81253596D01*
G37*
G36*
X201075000Y-82076000D02*
X198975000Y-82076000D01*
X198975000Y-79976000D01*
X201075000Y-79976000D01*
X201075000Y-82076000D01*
X201075000Y-82076000D01*
G37*
G36*
X214655000Y-81780000D02*
X212705000Y-81780000D01*
X212705000Y-80780000D01*
X214655000Y-80780000D01*
X214655000Y-81780000D01*
X214655000Y-81780000D01*
G37*
G36*
X209255000Y-81780000D02*
X207305000Y-81780000D01*
X207305000Y-80780000D01*
X209255000Y-80780000D01*
X209255000Y-81780000D01*
X209255000Y-81780000D01*
G37*
G36*
X209255000Y-80510000D02*
X207305000Y-80510000D01*
X207305000Y-79510000D01*
X209255000Y-79510000D01*
X209255000Y-80510000D01*
X209255000Y-80510000D01*
G37*
G36*
X214655000Y-80510000D02*
X212705000Y-80510000D01*
X212705000Y-79510000D01*
X214655000Y-79510000D01*
X214655000Y-80510000D01*
X214655000Y-80510000D01*
G37*
G36*
X183221622Y-79203517D02*
X183269585Y-79218066D01*
X183313775Y-79241686D01*
X183352518Y-79273482D01*
X183384314Y-79312225D01*
X183407934Y-79356415D01*
X183422483Y-79404378D01*
X183428000Y-79460391D01*
X183428000Y-80210609D01*
X183422483Y-80266622D01*
X183407934Y-80314585D01*
X183384314Y-80358775D01*
X183352518Y-80397518D01*
X183313775Y-80429314D01*
X183269585Y-80452934D01*
X183221622Y-80467483D01*
X183165609Y-80473000D01*
X182340391Y-80473000D01*
X182284378Y-80467483D01*
X182236415Y-80452934D01*
X182192225Y-80429314D01*
X182153482Y-80397518D01*
X182121686Y-80358775D01*
X182098066Y-80314585D01*
X182083517Y-80266622D01*
X182078000Y-80210609D01*
X182078000Y-79460391D01*
X182083517Y-79404378D01*
X182098066Y-79356415D01*
X182121686Y-79312225D01*
X182153482Y-79273482D01*
X182192225Y-79241686D01*
X182236415Y-79218066D01*
X182284378Y-79203517D01*
X182340391Y-79198000D01*
X183165609Y-79198000D01*
X183221622Y-79203517D01*
X183221622Y-79203517D01*
G37*
G36*
X200153707Y-77443597D02*
X200230836Y-77451193D01*
X200342283Y-77485000D01*
X200428763Y-77511233D01*
X200611172Y-77608733D01*
X200771054Y-77739946D01*
X200902267Y-77899828D01*
X200999767Y-78082237D01*
X200999767Y-78082238D01*
X201059807Y-78280164D01*
X201080080Y-78486000D01*
X201059807Y-78691836D01*
X201031918Y-78783775D01*
X200999767Y-78889763D01*
X200902267Y-79072172D01*
X200771054Y-79232054D01*
X200611172Y-79363267D01*
X200428763Y-79460767D01*
X200362787Y-79480780D01*
X200230836Y-79520807D01*
X200153707Y-79528404D01*
X200076580Y-79536000D01*
X199973420Y-79536000D01*
X199896293Y-79528404D01*
X199819164Y-79520807D01*
X199687213Y-79480780D01*
X199621237Y-79460767D01*
X199438828Y-79363267D01*
X199278946Y-79232054D01*
X199147733Y-79072172D01*
X199050233Y-78889763D01*
X199018082Y-78783775D01*
X198990193Y-78691836D01*
X198969920Y-78486000D01*
X198990193Y-78280164D01*
X199050233Y-78082238D01*
X199050233Y-78082237D01*
X199147733Y-77899828D01*
X199278946Y-77739946D01*
X199438828Y-77608733D01*
X199621237Y-77511233D01*
X199707717Y-77485000D01*
X199819164Y-77451193D01*
X199896293Y-77443597D01*
X199973420Y-77436000D01*
X200076580Y-77436000D01*
X200153707Y-77443597D01*
X200153707Y-77443597D01*
G37*
G36*
X224528026Y-77006115D02*
X224746412Y-77096573D01*
X224942958Y-77227901D01*
X225110099Y-77395042D01*
X225241427Y-77591588D01*
X225331885Y-77809974D01*
X225378000Y-78041809D01*
X225378000Y-78278191D01*
X225331885Y-78510026D01*
X225241427Y-78728412D01*
X225110099Y-78924958D01*
X224942958Y-79092099D01*
X224746412Y-79223427D01*
X224528026Y-79313885D01*
X224296191Y-79360000D01*
X224059809Y-79360000D01*
X223827974Y-79313885D01*
X223609588Y-79223427D01*
X223413042Y-79092099D01*
X223245901Y-78924958D01*
X223114573Y-78728412D01*
X223024115Y-78510026D01*
X222978000Y-78278191D01*
X222978000Y-78041809D01*
X223024115Y-77809974D01*
X223114573Y-77591588D01*
X223245901Y-77395042D01*
X223413042Y-77227901D01*
X223609588Y-77096573D01*
X223827974Y-77006115D01*
X224059809Y-76960000D01*
X224296191Y-76960000D01*
X224528026Y-77006115D01*
X224528026Y-77006115D01*
G37*
G36*
X218028026Y-77006115D02*
X218246412Y-77096573D01*
X218442958Y-77227901D01*
X218610099Y-77395042D01*
X218741427Y-77591588D01*
X218831885Y-77809974D01*
X218878000Y-78041809D01*
X218878000Y-78278191D01*
X218831885Y-78510026D01*
X218741427Y-78728412D01*
X218610099Y-78924958D01*
X218442958Y-79092099D01*
X218246412Y-79223427D01*
X218028026Y-79313885D01*
X217796191Y-79360000D01*
X217559809Y-79360000D01*
X217327974Y-79313885D01*
X217109588Y-79223427D01*
X216913042Y-79092099D01*
X216745901Y-78924958D01*
X216614573Y-78728412D01*
X216524115Y-78510026D01*
X216478000Y-78278191D01*
X216478000Y-78041809D01*
X216524115Y-77809974D01*
X216614573Y-77591588D01*
X216745901Y-77395042D01*
X216913042Y-77227901D01*
X217109588Y-77096573D01*
X217327974Y-77006115D01*
X217559809Y-76960000D01*
X217796191Y-76960000D01*
X218028026Y-77006115D01*
X218028026Y-77006115D01*
G37*
G36*
X209255000Y-79240000D02*
X207305000Y-79240000D01*
X207305000Y-78240000D01*
X209255000Y-78240000D01*
X209255000Y-79240000D01*
X209255000Y-79240000D01*
G37*
G36*
X214655000Y-79240000D02*
X212705000Y-79240000D01*
X212705000Y-78240000D01*
X214655000Y-78240000D01*
X214655000Y-79240000D01*
X214655000Y-79240000D01*
G37*
G36*
X183221622Y-77628517D02*
X183269585Y-77643066D01*
X183313775Y-77666686D01*
X183352518Y-77698482D01*
X183384314Y-77737225D01*
X183407934Y-77781415D01*
X183422483Y-77829378D01*
X183428000Y-77885391D01*
X183428000Y-78635609D01*
X183422483Y-78691622D01*
X183407934Y-78739585D01*
X183384314Y-78783775D01*
X183352518Y-78822518D01*
X183313775Y-78854314D01*
X183269585Y-78877934D01*
X183221622Y-78892483D01*
X183165609Y-78898000D01*
X182340391Y-78898000D01*
X182284378Y-78892483D01*
X182236415Y-78877934D01*
X182192225Y-78854314D01*
X182153482Y-78822518D01*
X182121686Y-78783775D01*
X182098066Y-78739585D01*
X182083517Y-78691622D01*
X182078000Y-78635609D01*
X182078000Y-77885391D01*
X182083517Y-77829378D01*
X182098066Y-77781415D01*
X182121686Y-77737225D01*
X182153482Y-77698482D01*
X182192225Y-77666686D01*
X182236415Y-77643066D01*
X182284378Y-77628517D01*
X182340391Y-77623000D01*
X183165609Y-77623000D01*
X183221622Y-77628517D01*
X183221622Y-77628517D01*
G37*
G36*
X195580983Y-74663300D02*
X195708374Y-74716068D01*
X195823024Y-74792674D01*
X195920526Y-74890176D01*
X195934569Y-74911193D01*
X195997132Y-75004826D01*
X196049900Y-75132217D01*
X196076800Y-75267455D01*
X196076800Y-75405345D01*
X196049900Y-75540583D01*
X195997132Y-75667974D01*
X195948897Y-75740164D01*
X195920525Y-75782625D01*
X195873538Y-75829612D01*
X195857992Y-75848554D01*
X195846441Y-75870165D01*
X195839328Y-75893614D01*
X195836926Y-75918000D01*
X195839328Y-75942386D01*
X195846441Y-75965835D01*
X195857992Y-75987446D01*
X195873538Y-76006388D01*
X195892480Y-76021934D01*
X195914091Y-76033485D01*
X195937540Y-76040598D01*
X195961926Y-76043000D01*
X197596000Y-76043000D01*
X197596000Y-78643000D01*
X195596000Y-78643000D01*
X195596000Y-76158825D01*
X195593598Y-76134439D01*
X195586485Y-76110990D01*
X195574934Y-76089379D01*
X195559388Y-76070437D01*
X195540446Y-76054891D01*
X195518835Y-76043340D01*
X195495386Y-76036227D01*
X195471000Y-76033825D01*
X195446614Y-76036227D01*
X195445744Y-76036400D01*
X195307855Y-76036400D01*
X195172617Y-76009500D01*
X195045226Y-75956732D01*
X194958102Y-75898518D01*
X194930576Y-75880126D01*
X194833074Y-75782624D01*
X194789516Y-75717435D01*
X194756468Y-75667975D01*
X194717485Y-75573862D01*
X194705934Y-75552251D01*
X194690388Y-75533309D01*
X194671446Y-75517763D01*
X194649836Y-75506212D01*
X194626386Y-75499099D01*
X194602000Y-75496697D01*
X194577614Y-75499099D01*
X194554165Y-75506212D01*
X194532554Y-75517763D01*
X194513612Y-75533309D01*
X194498066Y-75552251D01*
X194486515Y-75573861D01*
X194479402Y-75597311D01*
X194477000Y-75621697D01*
X194477000Y-75711609D01*
X194471483Y-75767622D01*
X194456934Y-75815585D01*
X194433314Y-75859775D01*
X194401518Y-75898518D01*
X194362775Y-75930314D01*
X194318585Y-75953934D01*
X194270622Y-75968483D01*
X194214609Y-75974000D01*
X193389391Y-75974000D01*
X193333378Y-75968483D01*
X193285415Y-75953934D01*
X193241225Y-75930314D01*
X193202482Y-75898518D01*
X193170686Y-75859775D01*
X193147066Y-75815585D01*
X193132517Y-75767622D01*
X193127000Y-75711609D01*
X193127000Y-74961391D01*
X193132517Y-74905378D01*
X193147066Y-74857415D01*
X193170686Y-74813225D01*
X193202482Y-74774482D01*
X193241225Y-74742686D01*
X193285415Y-74719066D01*
X193333378Y-74704517D01*
X193389391Y-74699000D01*
X194214609Y-74699000D01*
X194270622Y-74704517D01*
X194318585Y-74719066D01*
X194362775Y-74742686D01*
X194401518Y-74774482D01*
X194433314Y-74813225D01*
X194456934Y-74857415D01*
X194471483Y-74905378D01*
X194477000Y-74961391D01*
X194477000Y-75051103D01*
X194479402Y-75075489D01*
X194486515Y-75098938D01*
X194498066Y-75120549D01*
X194513612Y-75139491D01*
X194532554Y-75155037D01*
X194554165Y-75166588D01*
X194577614Y-75173701D01*
X194602000Y-75176103D01*
X194626386Y-75173701D01*
X194649835Y-75166588D01*
X194671446Y-75155037D01*
X194690388Y-75139491D01*
X194705934Y-75120549D01*
X194717485Y-75098938D01*
X194756468Y-75004825D01*
X194819031Y-74911193D01*
X194833074Y-74890176D01*
X194930576Y-74792674D01*
X195045226Y-74716068D01*
X195172617Y-74663300D01*
X195307855Y-74636400D01*
X195445745Y-74636400D01*
X195580983Y-74663300D01*
X195580983Y-74663300D01*
G37*
G36*
X209255000Y-77970000D02*
X207305000Y-77970000D01*
X207305000Y-76970000D01*
X209255000Y-76970000D01*
X209255000Y-77970000D01*
X209255000Y-77970000D01*
G37*
G36*
X214655000Y-77970000D02*
X212705000Y-77970000D01*
X212705000Y-76970000D01*
X214655000Y-76970000D01*
X214655000Y-77970000D01*
X214655000Y-77970000D01*
G37*
G36*
X200153707Y-74903597D02*
X200230836Y-74911193D01*
X200329756Y-74941200D01*
X200428763Y-74971233D01*
X200611172Y-75068733D01*
X200771054Y-75199946D01*
X200902267Y-75359828D01*
X200999767Y-75542237D01*
X201008873Y-75572255D01*
X201059807Y-75740164D01*
X201080080Y-75946000D01*
X201059807Y-76151836D01*
X201027078Y-76259730D01*
X200999767Y-76349763D01*
X200902267Y-76532172D01*
X200771054Y-76692054D01*
X200611172Y-76823267D01*
X200428763Y-76920767D01*
X200362787Y-76940780D01*
X200230836Y-76980807D01*
X200153707Y-76988404D01*
X200076580Y-76996000D01*
X199973420Y-76996000D01*
X199896293Y-76988404D01*
X199819164Y-76980807D01*
X199687213Y-76940780D01*
X199621237Y-76920767D01*
X199438828Y-76823267D01*
X199278946Y-76692054D01*
X199147733Y-76532172D01*
X199050233Y-76349763D01*
X199022922Y-76259730D01*
X198990193Y-76151836D01*
X198969920Y-75946000D01*
X198990193Y-75740164D01*
X199041127Y-75572255D01*
X199050233Y-75542237D01*
X199147733Y-75359828D01*
X199278946Y-75199946D01*
X199438828Y-75068733D01*
X199621237Y-74971233D01*
X199720244Y-74941200D01*
X199819164Y-74911193D01*
X199896293Y-74903597D01*
X199973420Y-74896000D01*
X200076580Y-74896000D01*
X200153707Y-74903597D01*
X200153707Y-74903597D01*
G37*
G36*
X214209622Y-75187017D02*
X214257585Y-75201566D01*
X214301775Y-75225186D01*
X214340518Y-75256982D01*
X214372314Y-75295725D01*
X214395934Y-75339915D01*
X214410483Y-75387878D01*
X214416000Y-75443891D01*
X214416000Y-76194109D01*
X214410483Y-76250122D01*
X214395934Y-76298085D01*
X214372314Y-76342275D01*
X214340518Y-76381018D01*
X214301775Y-76412814D01*
X214257585Y-76436434D01*
X214209622Y-76450983D01*
X214153609Y-76456500D01*
X213328391Y-76456500D01*
X213272378Y-76450983D01*
X213224415Y-76436434D01*
X213180225Y-76412814D01*
X213141482Y-76381018D01*
X213109686Y-76342275D01*
X213086066Y-76298085D01*
X213071517Y-76250122D01*
X213066000Y-76194109D01*
X213066000Y-75443891D01*
X213071517Y-75387878D01*
X213086066Y-75339915D01*
X213109686Y-75295725D01*
X213141482Y-75256982D01*
X213180225Y-75225186D01*
X213224415Y-75201566D01*
X213272378Y-75187017D01*
X213328391Y-75181500D01*
X214153609Y-75181500D01*
X214209622Y-75187017D01*
X214209622Y-75187017D01*
G37*
G36*
X212521122Y-75022517D02*
X212569085Y-75037066D01*
X212613275Y-75060686D01*
X212652018Y-75092482D01*
X212683814Y-75131225D01*
X212707434Y-75175415D01*
X212721983Y-75223378D01*
X212727500Y-75279391D01*
X212727500Y-76104609D01*
X212721983Y-76160622D01*
X212707434Y-76208585D01*
X212683814Y-76252775D01*
X212652018Y-76291518D01*
X212613275Y-76323314D01*
X212569085Y-76346934D01*
X212521122Y-76361483D01*
X212465109Y-76367000D01*
X211714891Y-76367000D01*
X211658878Y-76361483D01*
X211610915Y-76346934D01*
X211566725Y-76323314D01*
X211527982Y-76291518D01*
X211496186Y-76252775D01*
X211472566Y-76208585D01*
X211458017Y-76160622D01*
X211452500Y-76104609D01*
X211452500Y-75279391D01*
X211458017Y-75223378D01*
X211472566Y-75175415D01*
X211496186Y-75131225D01*
X211527982Y-75092482D01*
X211566725Y-75060686D01*
X211610915Y-75037066D01*
X211658878Y-75022517D01*
X211714891Y-75017000D01*
X212465109Y-75017000D01*
X212521122Y-75022517D01*
X212521122Y-75022517D01*
G37*
G36*
X210946122Y-75022517D02*
X210994085Y-75037066D01*
X211038275Y-75060686D01*
X211077018Y-75092482D01*
X211108814Y-75131225D01*
X211132434Y-75175415D01*
X211146983Y-75223378D01*
X211152500Y-75279391D01*
X211152500Y-76104609D01*
X211146983Y-76160622D01*
X211132434Y-76208585D01*
X211108814Y-76252775D01*
X211077018Y-76291518D01*
X211038275Y-76323314D01*
X210994085Y-76346934D01*
X210946122Y-76361483D01*
X210890109Y-76367000D01*
X210139891Y-76367000D01*
X210083878Y-76361483D01*
X210035915Y-76346934D01*
X209991725Y-76323314D01*
X209952982Y-76291518D01*
X209921186Y-76252775D01*
X209897566Y-76208585D01*
X209883017Y-76160622D01*
X209877500Y-76104609D01*
X209877500Y-75279391D01*
X209883017Y-75223378D01*
X209897566Y-75175415D01*
X209921186Y-75131225D01*
X209952982Y-75092482D01*
X209991725Y-75060686D01*
X210035915Y-75037066D01*
X210083878Y-75022517D01*
X210139891Y-75017000D01*
X210890109Y-75017000D01*
X210946122Y-75022517D01*
X210946122Y-75022517D01*
G37*
G36*
X181991983Y-74968100D02*
X182119374Y-75020868D01*
X182234024Y-75097474D01*
X182331526Y-75194976D01*
X182350503Y-75223378D01*
X182408132Y-75309626D01*
X182460900Y-75437017D01*
X182487800Y-75572255D01*
X182487800Y-75710145D01*
X182460900Y-75845383D01*
X182420719Y-75942386D01*
X182408132Y-75972774D01*
X182331526Y-76087424D01*
X182234024Y-76184926D01*
X182136450Y-76250122D01*
X182119374Y-76261532D01*
X181991983Y-76314300D01*
X181856745Y-76341200D01*
X181718855Y-76341200D01*
X181583617Y-76314300D01*
X181456226Y-76261532D01*
X181439150Y-76250122D01*
X181341576Y-76184926D01*
X181244074Y-76087424D01*
X181167468Y-75972774D01*
X181154881Y-75942386D01*
X181114700Y-75845383D01*
X181087800Y-75710145D01*
X181087800Y-75572255D01*
X181114700Y-75437017D01*
X181167468Y-75309626D01*
X181225097Y-75223378D01*
X181244074Y-75194976D01*
X181341576Y-75097474D01*
X181456226Y-75020868D01*
X181583617Y-74968100D01*
X181718855Y-74941200D01*
X181856745Y-74941200D01*
X181991983Y-74968100D01*
X181991983Y-74968100D01*
G37*
G36*
X105297958Y-70825088D02*
X105449922Y-70888033D01*
X105586684Y-70979415D01*
X105702985Y-71095716D01*
X105794367Y-71232478D01*
X105857312Y-71384442D01*
X105889400Y-71545758D01*
X105889400Y-71710242D01*
X105857312Y-71871558D01*
X105794367Y-72023522D01*
X105702985Y-72160284D01*
X105586684Y-72276585D01*
X105449922Y-72367967D01*
X105297958Y-72430912D01*
X105136642Y-72463000D01*
X104970219Y-72463000D01*
X104949670Y-72460976D01*
X104925284Y-72463378D01*
X104901835Y-72470492D01*
X104880224Y-72482043D01*
X104861283Y-72497589D01*
X104845737Y-72516531D01*
X104834186Y-72538142D01*
X104827074Y-72561591D01*
X104824672Y-72585978D01*
X104827074Y-72610364D01*
X104834188Y-72633813D01*
X104845739Y-72655424D01*
X104861284Y-72674364D01*
X105013058Y-72826138D01*
X105013060Y-72826141D01*
X105243427Y-73170909D01*
X105397059Y-73541810D01*
X105402106Y-73553995D01*
X105483000Y-73960674D01*
X105483000Y-74375326D01*
X105469975Y-74440807D01*
X105402106Y-74782006D01*
X105243427Y-75165091D01*
X105061731Y-75437018D01*
X105013058Y-75509862D01*
X104719862Y-75803058D01*
X104719859Y-75803060D01*
X104375091Y-76033427D01*
X103992006Y-76192106D01*
X103909160Y-76208585D01*
X103585326Y-76273000D01*
X103170674Y-76273000D01*
X102846840Y-76208585D01*
X102763994Y-76192106D01*
X102380909Y-76033427D01*
X102036141Y-75803060D01*
X102036138Y-75803058D01*
X101742942Y-75509862D01*
X101694269Y-75437018D01*
X101512573Y-75165091D01*
X101353894Y-74782006D01*
X101286025Y-74440807D01*
X101273000Y-74375326D01*
X101273000Y-73960674D01*
X101353894Y-73553995D01*
X101358941Y-73541810D01*
X101512573Y-73170909D01*
X101742940Y-72826141D01*
X101742942Y-72826138D01*
X102036138Y-72532942D01*
X102078205Y-72504834D01*
X102380909Y-72302573D01*
X102763994Y-72143894D01*
X102899555Y-72116929D01*
X103170674Y-72063000D01*
X103585326Y-72063000D01*
X103856445Y-72116929D01*
X103992006Y-72143894D01*
X104168326Y-72216928D01*
X104168328Y-72216929D01*
X104191777Y-72224042D01*
X104216163Y-72226444D01*
X104240549Y-72224042D01*
X104263999Y-72216929D01*
X104285609Y-72205378D01*
X104304551Y-72189832D01*
X104320097Y-72170890D01*
X104331648Y-72149279D01*
X104338761Y-72125830D01*
X104341163Y-72101444D01*
X104338761Y-72077058D01*
X104331648Y-72053608D01*
X104320096Y-72031996D01*
X104314432Y-72023520D01*
X104251488Y-71871558D01*
X104219400Y-71710242D01*
X104219400Y-71545758D01*
X104251488Y-71384442D01*
X104314433Y-71232478D01*
X104405815Y-71095716D01*
X104522116Y-70979415D01*
X104658878Y-70888033D01*
X104810842Y-70825088D01*
X104972158Y-70793000D01*
X105136642Y-70793000D01*
X105297958Y-70825088D01*
X105297958Y-70825088D01*
G37*
G36*
X117185158Y-70825088D02*
X117337122Y-70888033D01*
X117473884Y-70979415D01*
X117590185Y-71095716D01*
X117681567Y-71232478D01*
X117744512Y-71384442D01*
X117776600Y-71545758D01*
X117776600Y-71710242D01*
X117744512Y-71871558D01*
X117681568Y-72023520D01*
X117675904Y-72031996D01*
X117664353Y-72053607D01*
X117657239Y-72077056D01*
X117654837Y-72101442D01*
X117657239Y-72125829D01*
X117664351Y-72149278D01*
X117675902Y-72170889D01*
X117691447Y-72189831D01*
X117710389Y-72205377D01*
X117732000Y-72216928D01*
X117755449Y-72224042D01*
X117779835Y-72226444D01*
X117804222Y-72224042D01*
X117827672Y-72216929D01*
X117827674Y-72216928D01*
X118003994Y-72143894D01*
X118139555Y-72116929D01*
X118410674Y-72063000D01*
X118825326Y-72063000D01*
X119096445Y-72116929D01*
X119232006Y-72143894D01*
X119615091Y-72302573D01*
X119917795Y-72504834D01*
X119959862Y-72532942D01*
X120253058Y-72826138D01*
X120253060Y-72826141D01*
X120483427Y-73170909D01*
X120637059Y-73541810D01*
X120642106Y-73553995D01*
X120723000Y-73960674D01*
X120723000Y-74375326D01*
X120709975Y-74440807D01*
X120642106Y-74782006D01*
X120483427Y-75165091D01*
X120301731Y-75437018D01*
X120253058Y-75509862D01*
X119959862Y-75803058D01*
X119959859Y-75803060D01*
X119615091Y-76033427D01*
X119232006Y-76192106D01*
X119149160Y-76208585D01*
X118825326Y-76273000D01*
X118410674Y-76273000D01*
X118086840Y-76208585D01*
X118003994Y-76192106D01*
X117620909Y-76033427D01*
X117276141Y-75803060D01*
X117276138Y-75803058D01*
X116982942Y-75509862D01*
X116934269Y-75437018D01*
X116752573Y-75165091D01*
X116593894Y-74782006D01*
X116526025Y-74440807D01*
X116513000Y-74375326D01*
X116513000Y-73960674D01*
X116593894Y-73553995D01*
X116598941Y-73541810D01*
X116752573Y-73170909D01*
X116982940Y-72826141D01*
X116982942Y-72826138D01*
X117134716Y-72674364D01*
X117150262Y-72655422D01*
X117161813Y-72633811D01*
X117168926Y-72610362D01*
X117171328Y-72585976D01*
X117168926Y-72561590D01*
X117161813Y-72538141D01*
X117150262Y-72516530D01*
X117134716Y-72497588D01*
X117115774Y-72482042D01*
X117094163Y-72470491D01*
X117070714Y-72463378D01*
X117046328Y-72460976D01*
X117025780Y-72463000D01*
X116859358Y-72463000D01*
X116698042Y-72430912D01*
X116546078Y-72367967D01*
X116409316Y-72276585D01*
X116293015Y-72160284D01*
X116201633Y-72023522D01*
X116138688Y-71871558D01*
X116106600Y-71710242D01*
X116106600Y-71545758D01*
X116138688Y-71384442D01*
X116201633Y-71232478D01*
X116293015Y-71095716D01*
X116409316Y-70979415D01*
X116546078Y-70888033D01*
X116698042Y-70825088D01*
X116859358Y-70793000D01*
X117023842Y-70793000D01*
X117185158Y-70825088D01*
X117185158Y-70825088D01*
G37*
G36*
X146826958Y-70825088D02*
X146978922Y-70888033D01*
X147115684Y-70979415D01*
X147231985Y-71095716D01*
X147323367Y-71232478D01*
X147386312Y-71384442D01*
X147418400Y-71545758D01*
X147418400Y-71710242D01*
X147386312Y-71871558D01*
X147323367Y-72023522D01*
X147231985Y-72160284D01*
X147115684Y-72276585D01*
X146978922Y-72367967D01*
X146826958Y-72430912D01*
X146665642Y-72463000D01*
X146499219Y-72463000D01*
X146478670Y-72460976D01*
X146454284Y-72463378D01*
X146430835Y-72470492D01*
X146409224Y-72482043D01*
X146390283Y-72497589D01*
X146374737Y-72516531D01*
X146363186Y-72538142D01*
X146356074Y-72561591D01*
X146353672Y-72585978D01*
X146356074Y-72610364D01*
X146363188Y-72633813D01*
X146374739Y-72655424D01*
X146390284Y-72674364D01*
X146542058Y-72826138D01*
X146542060Y-72826141D01*
X146772427Y-73170909D01*
X146926059Y-73541810D01*
X146931106Y-73553995D01*
X147012000Y-73960674D01*
X147012000Y-74375326D01*
X146998975Y-74440807D01*
X146931106Y-74782006D01*
X146772427Y-75165091D01*
X146590731Y-75437018D01*
X146542058Y-75509862D01*
X146248862Y-75803058D01*
X146248859Y-75803060D01*
X145904091Y-76033427D01*
X145521006Y-76192106D01*
X145438160Y-76208585D01*
X145114326Y-76273000D01*
X144699674Y-76273000D01*
X144375840Y-76208585D01*
X144292994Y-76192106D01*
X143909909Y-76033427D01*
X143565141Y-75803060D01*
X143565138Y-75803058D01*
X143271942Y-75509862D01*
X143223269Y-75437018D01*
X143041573Y-75165091D01*
X142882894Y-74782006D01*
X142815025Y-74440807D01*
X142802000Y-74375326D01*
X142802000Y-73960674D01*
X142882894Y-73553995D01*
X142887941Y-73541810D01*
X143041573Y-73170909D01*
X143271940Y-72826141D01*
X143271942Y-72826138D01*
X143565138Y-72532942D01*
X143607205Y-72504834D01*
X143909909Y-72302573D01*
X144292994Y-72143894D01*
X144428555Y-72116929D01*
X144699674Y-72063000D01*
X145114326Y-72063000D01*
X145385445Y-72116929D01*
X145521006Y-72143894D01*
X145697326Y-72216928D01*
X145697328Y-72216929D01*
X145720777Y-72224042D01*
X145745163Y-72226444D01*
X145769549Y-72224042D01*
X145792999Y-72216929D01*
X145814609Y-72205378D01*
X145833551Y-72189832D01*
X145849097Y-72170890D01*
X145860648Y-72149279D01*
X145867761Y-72125830D01*
X145870163Y-72101444D01*
X145867761Y-72077058D01*
X145860648Y-72053608D01*
X145849096Y-72031996D01*
X145843432Y-72023520D01*
X145780488Y-71871558D01*
X145748400Y-71710242D01*
X145748400Y-71545758D01*
X145780488Y-71384442D01*
X145843433Y-71232478D01*
X145934815Y-71095716D01*
X146051116Y-70979415D01*
X146187878Y-70888033D01*
X146339842Y-70825088D01*
X146501158Y-70793000D01*
X146665642Y-70793000D01*
X146826958Y-70825088D01*
X146826958Y-70825088D01*
G37*
G36*
X158714158Y-70825088D02*
X158866122Y-70888033D01*
X159002884Y-70979415D01*
X159119185Y-71095716D01*
X159210567Y-71232478D01*
X159273512Y-71384442D01*
X159305600Y-71545758D01*
X159305600Y-71710242D01*
X159273512Y-71871558D01*
X159210568Y-72023520D01*
X159204904Y-72031996D01*
X159193353Y-72053607D01*
X159186239Y-72077056D01*
X159183837Y-72101442D01*
X159186239Y-72125829D01*
X159193351Y-72149278D01*
X159204902Y-72170889D01*
X159220447Y-72189831D01*
X159239389Y-72205377D01*
X159261000Y-72216928D01*
X159284449Y-72224042D01*
X159308835Y-72226444D01*
X159333222Y-72224042D01*
X159356672Y-72216929D01*
X159356674Y-72216928D01*
X159532994Y-72143894D01*
X159668555Y-72116929D01*
X159939674Y-72063000D01*
X160354326Y-72063000D01*
X160625445Y-72116929D01*
X160761006Y-72143894D01*
X161144091Y-72302573D01*
X161446795Y-72504834D01*
X161488862Y-72532942D01*
X161782058Y-72826138D01*
X161782060Y-72826141D01*
X162012427Y-73170909D01*
X162166059Y-73541810D01*
X162171106Y-73553995D01*
X162252000Y-73960674D01*
X162252000Y-74375326D01*
X162238975Y-74440807D01*
X162171106Y-74782006D01*
X162012427Y-75165091D01*
X161830731Y-75437018D01*
X161782058Y-75509862D01*
X161488862Y-75803058D01*
X161488859Y-75803060D01*
X161144091Y-76033427D01*
X160761006Y-76192106D01*
X160678160Y-76208585D01*
X160354326Y-76273000D01*
X159939674Y-76273000D01*
X159615840Y-76208585D01*
X159532994Y-76192106D01*
X159149909Y-76033427D01*
X158805141Y-75803060D01*
X158805138Y-75803058D01*
X158511942Y-75509862D01*
X158463269Y-75437018D01*
X158281573Y-75165091D01*
X158122894Y-74782006D01*
X158055025Y-74440807D01*
X158042000Y-74375326D01*
X158042000Y-73960674D01*
X158122894Y-73553995D01*
X158127941Y-73541810D01*
X158281573Y-73170909D01*
X158511940Y-72826141D01*
X158511942Y-72826138D01*
X158663716Y-72674364D01*
X158679262Y-72655422D01*
X158690813Y-72633811D01*
X158697926Y-72610362D01*
X158700328Y-72585976D01*
X158697926Y-72561590D01*
X158690813Y-72538141D01*
X158679262Y-72516530D01*
X158663716Y-72497588D01*
X158644774Y-72482042D01*
X158623163Y-72470491D01*
X158599714Y-72463378D01*
X158575328Y-72460976D01*
X158554780Y-72463000D01*
X158388358Y-72463000D01*
X158227042Y-72430912D01*
X158075078Y-72367967D01*
X157938316Y-72276585D01*
X157822015Y-72160284D01*
X157730633Y-72023522D01*
X157667688Y-71871558D01*
X157635600Y-71710242D01*
X157635600Y-71545758D01*
X157667688Y-71384442D01*
X157730633Y-71232478D01*
X157822015Y-71095716D01*
X157938316Y-70979415D01*
X158075078Y-70888033D01*
X158227042Y-70825088D01*
X158388358Y-70793000D01*
X158552842Y-70793000D01*
X158714158Y-70825088D01*
X158714158Y-70825088D01*
G37*
G36*
X152770558Y-70825088D02*
X152922522Y-70888033D01*
X153059284Y-70979415D01*
X153175585Y-71095716D01*
X153266967Y-71232478D01*
X153329912Y-71384442D01*
X153362000Y-71545758D01*
X153362000Y-71710242D01*
X153329912Y-71871558D01*
X153266967Y-72023522D01*
X153175585Y-72160284D01*
X153059284Y-72276585D01*
X152922522Y-72367967D01*
X152770558Y-72430912D01*
X152666142Y-72451682D01*
X152642693Y-72458795D01*
X152621082Y-72470346D01*
X152602140Y-72485892D01*
X152586594Y-72504834D01*
X152575043Y-72526444D01*
X152567930Y-72549894D01*
X152565528Y-72574280D01*
X152567930Y-72598666D01*
X152575043Y-72622115D01*
X152586594Y-72643726D01*
X152602140Y-72662668D01*
X152621082Y-72678214D01*
X152642692Y-72689765D01*
X152666142Y-72696878D01*
X152955781Y-72754490D01*
X153223307Y-72865303D01*
X153464074Y-73026178D01*
X153668822Y-73230926D01*
X153829697Y-73471693D01*
X153940510Y-73739219D01*
X153997000Y-74023216D01*
X153997000Y-74312784D01*
X153940510Y-74596781D01*
X153829697Y-74864307D01*
X153668822Y-75105074D01*
X153464074Y-75309822D01*
X153223307Y-75470697D01*
X152955781Y-75581510D01*
X152671784Y-75638000D01*
X152382216Y-75638000D01*
X152098219Y-75581510D01*
X151830693Y-75470697D01*
X151589926Y-75309822D01*
X151385178Y-75105074D01*
X151224303Y-74864307D01*
X151113490Y-74596781D01*
X151057000Y-74312784D01*
X151057000Y-74023216D01*
X151113490Y-73739219D01*
X151224303Y-73471693D01*
X151385178Y-73230926D01*
X151589926Y-73026178D01*
X151830693Y-72865303D01*
X152098219Y-72754490D01*
X152387858Y-72696878D01*
X152411307Y-72689765D01*
X152432918Y-72678214D01*
X152451860Y-72662669D01*
X152467405Y-72643727D01*
X152478957Y-72622116D01*
X152486070Y-72598667D01*
X152488472Y-72574280D01*
X152486070Y-72549894D01*
X152478957Y-72526445D01*
X152467406Y-72504834D01*
X152451861Y-72485892D01*
X152432919Y-72470347D01*
X152411308Y-72458795D01*
X152387858Y-72451682D01*
X152283442Y-72430912D01*
X152131478Y-72367967D01*
X151994716Y-72276585D01*
X151878415Y-72160284D01*
X151787033Y-72023522D01*
X151724088Y-71871558D01*
X151692000Y-71710242D01*
X151692000Y-71545758D01*
X151724088Y-71384442D01*
X151787033Y-71232478D01*
X151878415Y-71095716D01*
X151994716Y-70979415D01*
X152131478Y-70888033D01*
X152283442Y-70825088D01*
X152444758Y-70793000D01*
X152609242Y-70793000D01*
X152770558Y-70825088D01*
X152770558Y-70825088D01*
G37*
G36*
X111241558Y-70825088D02*
X111393522Y-70888033D01*
X111530284Y-70979415D01*
X111646585Y-71095716D01*
X111737967Y-71232478D01*
X111800912Y-71384442D01*
X111833000Y-71545758D01*
X111833000Y-71710242D01*
X111800912Y-71871558D01*
X111737967Y-72023522D01*
X111646585Y-72160284D01*
X111530284Y-72276585D01*
X111393522Y-72367967D01*
X111241558Y-72430912D01*
X111137142Y-72451682D01*
X111113693Y-72458795D01*
X111092082Y-72470346D01*
X111073140Y-72485892D01*
X111057594Y-72504834D01*
X111046043Y-72526444D01*
X111038930Y-72549894D01*
X111036528Y-72574280D01*
X111038930Y-72598666D01*
X111046043Y-72622115D01*
X111057594Y-72643726D01*
X111073140Y-72662668D01*
X111092082Y-72678214D01*
X111113692Y-72689765D01*
X111137142Y-72696878D01*
X111426781Y-72754490D01*
X111694307Y-72865303D01*
X111935074Y-73026178D01*
X112139822Y-73230926D01*
X112300697Y-73471693D01*
X112411510Y-73739219D01*
X112468000Y-74023216D01*
X112468000Y-74312784D01*
X112411510Y-74596781D01*
X112300697Y-74864307D01*
X112139822Y-75105074D01*
X111935074Y-75309822D01*
X111694307Y-75470697D01*
X111426781Y-75581510D01*
X111142784Y-75638000D01*
X110853216Y-75638000D01*
X110569219Y-75581510D01*
X110301693Y-75470697D01*
X110060926Y-75309822D01*
X109856178Y-75105074D01*
X109695303Y-74864307D01*
X109584490Y-74596781D01*
X109528000Y-74312784D01*
X109528000Y-74023216D01*
X109584490Y-73739219D01*
X109695303Y-73471693D01*
X109856178Y-73230926D01*
X110060926Y-73026178D01*
X110301693Y-72865303D01*
X110569219Y-72754490D01*
X110858858Y-72696878D01*
X110882307Y-72689765D01*
X110903918Y-72678214D01*
X110922860Y-72662669D01*
X110938405Y-72643727D01*
X110949957Y-72622116D01*
X110957070Y-72598667D01*
X110959472Y-72574280D01*
X110957070Y-72549894D01*
X110949957Y-72526445D01*
X110938406Y-72504834D01*
X110922861Y-72485892D01*
X110903919Y-72470347D01*
X110882308Y-72458795D01*
X110858858Y-72451682D01*
X110754442Y-72430912D01*
X110602478Y-72367967D01*
X110465716Y-72276585D01*
X110349415Y-72160284D01*
X110258033Y-72023522D01*
X110195088Y-71871558D01*
X110163000Y-71710242D01*
X110163000Y-71545758D01*
X110195088Y-71384442D01*
X110258033Y-71232478D01*
X110349415Y-71095716D01*
X110465716Y-70979415D01*
X110602478Y-70888033D01*
X110754442Y-70825088D01*
X110915758Y-70793000D01*
X111080242Y-70793000D01*
X111241558Y-70825088D01*
X111241558Y-70825088D01*
G37*
G36*
X214209622Y-73612017D02*
X214257585Y-73626566D01*
X214301775Y-73650186D01*
X214340518Y-73681982D01*
X214372314Y-73720725D01*
X214395934Y-73764915D01*
X214410483Y-73812878D01*
X214416000Y-73868891D01*
X214416000Y-74619109D01*
X214410483Y-74675122D01*
X214395934Y-74723085D01*
X214372314Y-74767275D01*
X214340518Y-74806018D01*
X214301775Y-74837814D01*
X214257585Y-74861434D01*
X214209622Y-74875983D01*
X214153609Y-74881500D01*
X213328391Y-74881500D01*
X213272378Y-74875983D01*
X213224415Y-74861434D01*
X213180225Y-74837814D01*
X213141482Y-74806018D01*
X213109686Y-74767275D01*
X213086066Y-74723085D01*
X213071517Y-74675122D01*
X213066000Y-74619109D01*
X213066000Y-73868891D01*
X213071517Y-73812878D01*
X213086066Y-73764915D01*
X213109686Y-73720725D01*
X213141482Y-73681982D01*
X213180225Y-73650186D01*
X213224415Y-73626566D01*
X213272378Y-73612017D01*
X213328391Y-73606500D01*
X214153609Y-73606500D01*
X214209622Y-73612017D01*
X214209622Y-73612017D01*
G37*
G36*
X224528026Y-72506115D02*
X224746412Y-72596573D01*
X224942958Y-72727901D01*
X225110099Y-72895042D01*
X225241427Y-73091588D01*
X225331885Y-73309974D01*
X225378000Y-73541809D01*
X225378000Y-73778191D01*
X225331885Y-74010026D01*
X225241427Y-74228412D01*
X225110099Y-74424958D01*
X224942958Y-74592099D01*
X224746412Y-74723427D01*
X224528026Y-74813885D01*
X224296191Y-74860000D01*
X224059809Y-74860000D01*
X223827974Y-74813885D01*
X223609588Y-74723427D01*
X223413042Y-74592099D01*
X223245901Y-74424958D01*
X223114573Y-74228412D01*
X223024115Y-74010026D01*
X222978000Y-73778191D01*
X222978000Y-73541809D01*
X223024115Y-73309974D01*
X223114573Y-73091588D01*
X223245901Y-72895042D01*
X223413042Y-72727901D01*
X223609588Y-72596573D01*
X223827974Y-72506115D01*
X224059809Y-72460000D01*
X224296191Y-72460000D01*
X224528026Y-72506115D01*
X224528026Y-72506115D01*
G37*
G36*
X218028026Y-72506115D02*
X218246412Y-72596573D01*
X218442958Y-72727901D01*
X218610099Y-72895042D01*
X218741427Y-73091588D01*
X218831885Y-73309974D01*
X218878000Y-73541809D01*
X218878000Y-73778191D01*
X218831885Y-74010026D01*
X218741427Y-74228412D01*
X218610099Y-74424958D01*
X218442958Y-74592099D01*
X218246412Y-74723427D01*
X218028026Y-74813885D01*
X217796191Y-74860000D01*
X217559809Y-74860000D01*
X217327974Y-74813885D01*
X217109588Y-74723427D01*
X216913042Y-74592099D01*
X216745901Y-74424958D01*
X216614573Y-74228412D01*
X216524115Y-74010026D01*
X216478000Y-73778191D01*
X216478000Y-73541809D01*
X216524115Y-73309974D01*
X216614573Y-73091588D01*
X216745901Y-72895042D01*
X216913042Y-72727901D01*
X217109588Y-72596573D01*
X217327974Y-72506115D01*
X217559809Y-72460000D01*
X217796191Y-72460000D01*
X218028026Y-72506115D01*
X218028026Y-72506115D01*
G37*
G36*
X200153707Y-72363597D02*
X200230836Y-72371193D01*
X200362787Y-72411220D01*
X200428763Y-72431233D01*
X200611172Y-72528733D01*
X200771054Y-72659946D01*
X200902267Y-72819828D01*
X200999767Y-73002237D01*
X201007029Y-73026178D01*
X201059807Y-73200164D01*
X201080080Y-73406000D01*
X201059807Y-73611836D01*
X201033105Y-73699860D01*
X200999767Y-73809763D01*
X200902267Y-73992172D01*
X200771054Y-74152054D01*
X200611172Y-74283267D01*
X200428763Y-74380767D01*
X200386843Y-74393483D01*
X200230836Y-74440807D01*
X200153707Y-74448404D01*
X200076580Y-74456000D01*
X199973420Y-74456000D01*
X199896293Y-74448404D01*
X199819164Y-74440807D01*
X199663157Y-74393483D01*
X199621237Y-74380767D01*
X199438828Y-74283267D01*
X199278946Y-74152054D01*
X199147733Y-73992172D01*
X199050233Y-73809763D01*
X199016895Y-73699860D01*
X198990193Y-73611836D01*
X198969920Y-73406000D01*
X198990193Y-73200164D01*
X199042971Y-73026178D01*
X199050233Y-73002237D01*
X199147733Y-72819828D01*
X199278946Y-72659946D01*
X199438828Y-72528733D01*
X199621237Y-72431233D01*
X199687213Y-72411220D01*
X199819164Y-72371193D01*
X199896293Y-72363597D01*
X199973420Y-72356000D01*
X200076580Y-72356000D01*
X200153707Y-72363597D01*
X200153707Y-72363597D01*
G37*
G36*
X194270622Y-73129517D02*
X194318585Y-73144066D01*
X194362775Y-73167686D01*
X194401518Y-73199482D01*
X194433314Y-73238225D01*
X194456934Y-73282415D01*
X194471483Y-73330378D01*
X194477000Y-73386391D01*
X194477000Y-74136609D01*
X194471483Y-74192622D01*
X194456934Y-74240585D01*
X194433314Y-74284775D01*
X194401518Y-74323518D01*
X194362775Y-74355314D01*
X194318585Y-74378934D01*
X194270622Y-74393483D01*
X194214609Y-74399000D01*
X193389391Y-74399000D01*
X193333378Y-74393483D01*
X193285415Y-74378934D01*
X193241225Y-74355314D01*
X193202482Y-74323518D01*
X193170686Y-74284775D01*
X193147066Y-74240585D01*
X193132517Y-74192622D01*
X193127000Y-74136609D01*
X193127000Y-73386391D01*
X193132517Y-73330378D01*
X193147066Y-73282415D01*
X193170686Y-73238225D01*
X193202482Y-73199482D01*
X193241225Y-73167686D01*
X193285415Y-73144066D01*
X193333378Y-73129517D01*
X193389391Y-73124000D01*
X194214609Y-73124000D01*
X194270622Y-73129517D01*
X194270622Y-73129517D01*
G37*
G36*
X197196000Y-73548000D02*
X195996000Y-73548000D01*
X195996000Y-72248000D01*
X197196000Y-72248000D01*
X197196000Y-73548000D01*
X197196000Y-73548000D01*
G37*
G36*
X109260358Y-70825088D02*
X109412322Y-70888033D01*
X109549084Y-70979415D01*
X109665385Y-71095716D01*
X109756767Y-71232478D01*
X109819712Y-71384442D01*
X109851800Y-71545758D01*
X109851800Y-71710242D01*
X109819712Y-71871558D01*
X109756767Y-72023522D01*
X109665385Y-72160284D01*
X109549084Y-72276585D01*
X109412322Y-72367967D01*
X109260358Y-72430912D01*
X109099042Y-72463000D01*
X108934558Y-72463000D01*
X108773242Y-72430912D01*
X108621278Y-72367967D01*
X108484516Y-72276585D01*
X108368215Y-72160284D01*
X108276833Y-72023522D01*
X108213888Y-71871558D01*
X108181800Y-71710242D01*
X108181800Y-71545758D01*
X108213888Y-71384442D01*
X108276833Y-71232478D01*
X108368215Y-71095716D01*
X108484516Y-70979415D01*
X108621278Y-70888033D01*
X108773242Y-70825088D01*
X108934558Y-70793000D01*
X109099042Y-70793000D01*
X109260358Y-70825088D01*
X109260358Y-70825088D01*
G37*
G36*
X113222758Y-70825088D02*
X113374722Y-70888033D01*
X113511484Y-70979415D01*
X113627785Y-71095716D01*
X113719167Y-71232478D01*
X113782112Y-71384442D01*
X113814200Y-71545758D01*
X113814200Y-71710242D01*
X113782112Y-71871558D01*
X113719167Y-72023522D01*
X113627785Y-72160284D01*
X113511484Y-72276585D01*
X113374722Y-72367967D01*
X113222758Y-72430912D01*
X113061442Y-72463000D01*
X112896958Y-72463000D01*
X112735642Y-72430912D01*
X112583678Y-72367967D01*
X112446916Y-72276585D01*
X112330615Y-72160284D01*
X112239233Y-72023522D01*
X112176288Y-71871558D01*
X112144200Y-71710242D01*
X112144200Y-71545758D01*
X112176288Y-71384442D01*
X112239233Y-71232478D01*
X112330615Y-71095716D01*
X112446916Y-70979415D01*
X112583678Y-70888033D01*
X112735642Y-70825088D01*
X112896958Y-70793000D01*
X113061442Y-70793000D01*
X113222758Y-70825088D01*
X113222758Y-70825088D01*
G37*
G36*
X115203958Y-70825088D02*
X115355922Y-70888033D01*
X115492684Y-70979415D01*
X115608985Y-71095716D01*
X115700367Y-71232478D01*
X115763312Y-71384442D01*
X115795400Y-71545758D01*
X115795400Y-71710242D01*
X115763312Y-71871558D01*
X115700367Y-72023522D01*
X115608985Y-72160284D01*
X115492684Y-72276585D01*
X115355922Y-72367967D01*
X115203958Y-72430912D01*
X115042642Y-72463000D01*
X114878158Y-72463000D01*
X114716842Y-72430912D01*
X114564878Y-72367967D01*
X114428116Y-72276585D01*
X114311815Y-72160284D01*
X114220433Y-72023522D01*
X114157488Y-71871558D01*
X114125400Y-71710242D01*
X114125400Y-71545758D01*
X114157488Y-71384442D01*
X114220433Y-71232478D01*
X114311815Y-71095716D01*
X114428116Y-70979415D01*
X114564878Y-70888033D01*
X114716842Y-70825088D01*
X114878158Y-70793000D01*
X115042642Y-70793000D01*
X115203958Y-70825088D01*
X115203958Y-70825088D01*
G37*
G36*
X148808158Y-70825088D02*
X148960122Y-70888033D01*
X149096884Y-70979415D01*
X149213185Y-71095716D01*
X149304567Y-71232478D01*
X149367512Y-71384442D01*
X149399600Y-71545758D01*
X149399600Y-71710242D01*
X149367512Y-71871558D01*
X149304567Y-72023522D01*
X149213185Y-72160284D01*
X149096884Y-72276585D01*
X148960122Y-72367967D01*
X148808158Y-72430912D01*
X148646842Y-72463000D01*
X148482358Y-72463000D01*
X148321042Y-72430912D01*
X148169078Y-72367967D01*
X148032316Y-72276585D01*
X147916015Y-72160284D01*
X147824633Y-72023522D01*
X147761688Y-71871558D01*
X147729600Y-71710242D01*
X147729600Y-71545758D01*
X147761688Y-71384442D01*
X147824633Y-71232478D01*
X147916015Y-71095716D01*
X148032316Y-70979415D01*
X148169078Y-70888033D01*
X148321042Y-70825088D01*
X148482358Y-70793000D01*
X148646842Y-70793000D01*
X148808158Y-70825088D01*
X148808158Y-70825088D01*
G37*
G36*
X150789358Y-70825088D02*
X150941322Y-70888033D01*
X151078084Y-70979415D01*
X151194385Y-71095716D01*
X151285767Y-71232478D01*
X151348712Y-71384442D01*
X151380800Y-71545758D01*
X151380800Y-71710242D01*
X151348712Y-71871558D01*
X151285767Y-72023522D01*
X151194385Y-72160284D01*
X151078084Y-72276585D01*
X150941322Y-72367967D01*
X150789358Y-72430912D01*
X150628042Y-72463000D01*
X150463558Y-72463000D01*
X150302242Y-72430912D01*
X150150278Y-72367967D01*
X150013516Y-72276585D01*
X149897215Y-72160284D01*
X149805833Y-72023522D01*
X149742888Y-71871558D01*
X149710800Y-71710242D01*
X149710800Y-71545758D01*
X149742888Y-71384442D01*
X149805833Y-71232478D01*
X149897215Y-71095716D01*
X150013516Y-70979415D01*
X150150278Y-70888033D01*
X150302242Y-70825088D01*
X150463558Y-70793000D01*
X150628042Y-70793000D01*
X150789358Y-70825088D01*
X150789358Y-70825088D01*
G37*
G36*
X154751758Y-70825088D02*
X154903722Y-70888033D01*
X155040484Y-70979415D01*
X155156785Y-71095716D01*
X155248167Y-71232478D01*
X155311112Y-71384442D01*
X155343200Y-71545758D01*
X155343200Y-71710242D01*
X155311112Y-71871558D01*
X155248167Y-72023522D01*
X155156785Y-72160284D01*
X155040484Y-72276585D01*
X154903722Y-72367967D01*
X154751758Y-72430912D01*
X154590442Y-72463000D01*
X154425958Y-72463000D01*
X154264642Y-72430912D01*
X154112678Y-72367967D01*
X153975916Y-72276585D01*
X153859615Y-72160284D01*
X153768233Y-72023522D01*
X153705288Y-71871558D01*
X153673200Y-71710242D01*
X153673200Y-71545758D01*
X153705288Y-71384442D01*
X153768233Y-71232478D01*
X153859615Y-71095716D01*
X153975916Y-70979415D01*
X154112678Y-70888033D01*
X154264642Y-70825088D01*
X154425958Y-70793000D01*
X154590442Y-70793000D01*
X154751758Y-70825088D01*
X154751758Y-70825088D01*
G37*
G36*
X156732958Y-70825088D02*
X156884922Y-70888033D01*
X157021684Y-70979415D01*
X157137985Y-71095716D01*
X157229367Y-71232478D01*
X157292312Y-71384442D01*
X157324400Y-71545758D01*
X157324400Y-71710242D01*
X157292312Y-71871558D01*
X157229367Y-72023522D01*
X157137985Y-72160284D01*
X157021684Y-72276585D01*
X156884922Y-72367967D01*
X156732958Y-72430912D01*
X156571642Y-72463000D01*
X156407158Y-72463000D01*
X156245842Y-72430912D01*
X156093878Y-72367967D01*
X155957116Y-72276585D01*
X155840815Y-72160284D01*
X155749433Y-72023522D01*
X155686488Y-71871558D01*
X155654400Y-71710242D01*
X155654400Y-71545758D01*
X155686488Y-71384442D01*
X155749433Y-71232478D01*
X155840815Y-71095716D01*
X155957116Y-70979415D01*
X156093878Y-70888033D01*
X156245842Y-70825088D01*
X156407158Y-70793000D01*
X156571642Y-70793000D01*
X156732958Y-70825088D01*
X156732958Y-70825088D01*
G37*
G36*
X107279158Y-70825088D02*
X107431122Y-70888033D01*
X107567884Y-70979415D01*
X107684185Y-71095716D01*
X107775567Y-71232478D01*
X107838512Y-71384442D01*
X107870600Y-71545758D01*
X107870600Y-71710242D01*
X107838512Y-71871558D01*
X107775567Y-72023522D01*
X107684185Y-72160284D01*
X107567884Y-72276585D01*
X107431122Y-72367967D01*
X107279158Y-72430912D01*
X107117842Y-72463000D01*
X106953358Y-72463000D01*
X106792042Y-72430912D01*
X106640078Y-72367967D01*
X106503316Y-72276585D01*
X106387015Y-72160284D01*
X106295633Y-72023522D01*
X106232688Y-71871558D01*
X106200600Y-71710242D01*
X106200600Y-71545758D01*
X106232688Y-71384442D01*
X106295633Y-71232478D01*
X106387015Y-71095716D01*
X106503316Y-70979415D01*
X106640078Y-70888033D01*
X106792042Y-70825088D01*
X106953358Y-70793000D01*
X107117842Y-70793000D01*
X107279158Y-70825088D01*
X107279158Y-70825088D01*
G37*
G36*
X188164183Y-71081900D02*
X188291574Y-71134668D01*
X188406224Y-71211274D01*
X188503726Y-71308776D01*
X188523599Y-71338518D01*
X188580332Y-71423426D01*
X188633100Y-71550817D01*
X188660000Y-71686055D01*
X188660000Y-71823945D01*
X188633100Y-71959183D01*
X188584274Y-72077058D01*
X188580332Y-72086574D01*
X188503726Y-72201224D01*
X188406224Y-72298726D01*
X188291574Y-72375332D01*
X188164183Y-72428100D01*
X188028945Y-72455000D01*
X187891055Y-72455000D01*
X187755817Y-72428100D01*
X187628426Y-72375332D01*
X187513776Y-72298726D01*
X187416274Y-72201224D01*
X187339668Y-72086574D01*
X187335726Y-72077058D01*
X187286900Y-71959183D01*
X187260000Y-71823945D01*
X187260000Y-71686055D01*
X187286900Y-71550817D01*
X187339668Y-71423426D01*
X187396401Y-71338518D01*
X187416274Y-71308776D01*
X187513776Y-71211274D01*
X187628426Y-71134668D01*
X187755817Y-71081900D01*
X187891055Y-71055000D01*
X188028945Y-71055000D01*
X188164183Y-71081900D01*
X188164183Y-71081900D01*
G37*
G36*
X184989183Y-71081900D02*
X185116574Y-71134668D01*
X185231224Y-71211274D01*
X185328726Y-71308776D01*
X185348599Y-71338518D01*
X185405332Y-71423426D01*
X185458100Y-71550817D01*
X185485000Y-71686055D01*
X185485000Y-71823945D01*
X185458100Y-71959183D01*
X185409274Y-72077058D01*
X185405332Y-72086574D01*
X185328726Y-72201224D01*
X185231224Y-72298726D01*
X185116574Y-72375332D01*
X184989183Y-72428100D01*
X184853945Y-72455000D01*
X184716055Y-72455000D01*
X184580817Y-72428100D01*
X184453426Y-72375332D01*
X184338776Y-72298726D01*
X184241274Y-72201224D01*
X184164668Y-72086574D01*
X184160726Y-72077058D01*
X184111900Y-71959183D01*
X184085000Y-71823945D01*
X184085000Y-71686055D01*
X184111900Y-71550817D01*
X184164668Y-71423426D01*
X184221401Y-71338518D01*
X184241274Y-71308776D01*
X184338776Y-71211274D01*
X184453426Y-71134668D01*
X184580817Y-71081900D01*
X184716055Y-71055000D01*
X184853945Y-71055000D01*
X184989183Y-71081900D01*
X184989183Y-71081900D01*
G37*
G36*
X200153707Y-69823596D02*
X200230836Y-69831193D01*
X200362787Y-69871220D01*
X200428763Y-69891233D01*
X200611172Y-69988733D01*
X200771054Y-70119946D01*
X200902267Y-70279828D01*
X200999767Y-70462237D01*
X200999767Y-70462238D01*
X201059807Y-70660164D01*
X201080080Y-70866000D01*
X201059807Y-71071836D01*
X201052704Y-71095250D01*
X200999767Y-71269763D01*
X200902267Y-71452172D01*
X200771054Y-71612054D01*
X200611172Y-71743267D01*
X200428763Y-71840767D01*
X200362787Y-71860780D01*
X200230836Y-71900807D01*
X200153707Y-71908404D01*
X200076580Y-71916000D01*
X199973420Y-71916000D01*
X199896293Y-71908404D01*
X199819164Y-71900807D01*
X199687213Y-71860780D01*
X199621237Y-71840767D01*
X199438828Y-71743267D01*
X199278946Y-71612054D01*
X199147733Y-71452172D01*
X199050233Y-71269763D01*
X198997296Y-71095250D01*
X198990193Y-71071836D01*
X198969920Y-70866000D01*
X198990193Y-70660164D01*
X199050233Y-70462238D01*
X199050233Y-70462237D01*
X199147733Y-70279828D01*
X199278946Y-70119946D01*
X199438828Y-69988733D01*
X199621237Y-69891233D01*
X199687213Y-69871220D01*
X199819164Y-69831193D01*
X199896293Y-69823596D01*
X199973420Y-69816000D01*
X200076580Y-69816000D01*
X200153707Y-69823596D01*
X200153707Y-69823596D01*
G37*
G36*
X191339183Y-70446900D02*
X191466574Y-70499668D01*
X191581225Y-70576275D01*
X191678725Y-70673775D01*
X191755332Y-70788426D01*
X191808100Y-70915817D01*
X191835000Y-71051055D01*
X191835000Y-71188945D01*
X191808100Y-71324183D01*
X191773433Y-71407875D01*
X191755332Y-71451574D01*
X191689021Y-71550817D01*
X191678725Y-71566225D01*
X191581225Y-71663725D01*
X191466574Y-71740332D01*
X191339183Y-71793100D01*
X191203945Y-71820000D01*
X191066055Y-71820000D01*
X190930817Y-71793100D01*
X190803426Y-71740332D01*
X190688775Y-71663725D01*
X190591275Y-71566225D01*
X190580980Y-71550817D01*
X190514668Y-71451574D01*
X190496567Y-71407875D01*
X190461900Y-71324183D01*
X190435000Y-71188945D01*
X190435000Y-71051055D01*
X190461900Y-70915817D01*
X190514668Y-70788426D01*
X190591275Y-70673775D01*
X190688775Y-70576275D01*
X190803426Y-70499668D01*
X190930817Y-70446900D01*
X191066055Y-70420000D01*
X191203945Y-70420000D01*
X191339183Y-70446900D01*
X191339183Y-70446900D01*
G37*
G36*
X198146000Y-71548000D02*
X196946000Y-71548000D01*
X196946000Y-70248000D01*
X198146000Y-70248000D01*
X198146000Y-71548000D01*
X198146000Y-71548000D01*
G37*
G36*
X196246000Y-71548000D02*
X195046000Y-71548000D01*
X195046000Y-70248000D01*
X196246000Y-70248000D01*
X196246000Y-71548000D01*
X196246000Y-71548000D01*
G37*
G36*
X221055622Y-70069517D02*
X221103585Y-70084066D01*
X221147775Y-70107686D01*
X221186518Y-70139482D01*
X221218314Y-70178225D01*
X221241934Y-70222415D01*
X221256483Y-70270378D01*
X221262000Y-70326391D01*
X221262000Y-71151609D01*
X221256483Y-71207622D01*
X221241934Y-71255585D01*
X221218314Y-71299775D01*
X221186518Y-71338518D01*
X221147775Y-71370314D01*
X221103585Y-71393934D01*
X221055622Y-71408483D01*
X220999609Y-71414000D01*
X220249391Y-71414000D01*
X220193378Y-71408483D01*
X220145415Y-71393934D01*
X220101225Y-71370314D01*
X220062482Y-71338518D01*
X220030686Y-71299775D01*
X220007066Y-71255585D01*
X219992517Y-71207622D01*
X219987000Y-71151609D01*
X219987000Y-70326391D01*
X219992517Y-70270378D01*
X220007066Y-70222415D01*
X220030686Y-70178225D01*
X220062482Y-70139482D01*
X220101225Y-70107686D01*
X220145415Y-70084066D01*
X220193378Y-70069517D01*
X220249391Y-70064000D01*
X220999609Y-70064000D01*
X221055622Y-70069517D01*
X221055622Y-70069517D01*
G37*
G36*
X219480622Y-70069517D02*
X219528585Y-70084066D01*
X219572775Y-70107686D01*
X219611518Y-70139482D01*
X219643314Y-70178225D01*
X219666934Y-70222415D01*
X219681483Y-70270378D01*
X219687000Y-70326391D01*
X219687000Y-71151609D01*
X219681483Y-71207622D01*
X219666934Y-71255585D01*
X219643314Y-71299775D01*
X219611518Y-71338518D01*
X219572775Y-71370314D01*
X219528585Y-71393934D01*
X219480622Y-71408483D01*
X219424609Y-71414000D01*
X218674391Y-71414000D01*
X218618378Y-71408483D01*
X218570415Y-71393934D01*
X218526225Y-71370314D01*
X218487482Y-71338518D01*
X218455686Y-71299775D01*
X218432066Y-71255585D01*
X218417517Y-71207622D01*
X218412000Y-71151609D01*
X218412000Y-70326391D01*
X218417517Y-70270378D01*
X218432066Y-70222415D01*
X218455686Y-70178225D01*
X218487482Y-70139482D01*
X218526225Y-70107686D01*
X218570415Y-70084066D01*
X218618378Y-70069517D01*
X218674391Y-70064000D01*
X219424609Y-70064000D01*
X219480622Y-70069517D01*
X219480622Y-70069517D01*
G37*
G36*
X223519122Y-70069517D02*
X223567085Y-70084066D01*
X223611275Y-70107686D01*
X223650018Y-70139482D01*
X223681814Y-70178225D01*
X223705434Y-70222415D01*
X223719983Y-70270378D01*
X223725500Y-70326391D01*
X223725500Y-71151609D01*
X223719983Y-71207622D01*
X223705434Y-71255585D01*
X223681814Y-71299775D01*
X223650018Y-71338518D01*
X223611275Y-71370314D01*
X223567085Y-71393934D01*
X223519122Y-71408483D01*
X223463109Y-71414000D01*
X222712891Y-71414000D01*
X222656878Y-71408483D01*
X222608915Y-71393934D01*
X222564725Y-71370314D01*
X222525982Y-71338518D01*
X222494186Y-71299775D01*
X222470566Y-71255585D01*
X222456017Y-71207622D01*
X222450500Y-71151609D01*
X222450500Y-70326391D01*
X222456017Y-70270378D01*
X222470566Y-70222415D01*
X222494186Y-70178225D01*
X222525982Y-70139482D01*
X222564725Y-70107686D01*
X222608915Y-70084066D01*
X222656878Y-70069517D01*
X222712891Y-70064000D01*
X223463109Y-70064000D01*
X223519122Y-70069517D01*
X223519122Y-70069517D01*
G37*
G36*
X225094122Y-70069517D02*
X225142085Y-70084066D01*
X225186275Y-70107686D01*
X225225018Y-70139482D01*
X225256814Y-70178225D01*
X225280434Y-70222415D01*
X225294983Y-70270378D01*
X225300500Y-70326391D01*
X225300500Y-71151609D01*
X225294983Y-71207622D01*
X225280434Y-71255585D01*
X225256814Y-71299775D01*
X225225018Y-71338518D01*
X225186275Y-71370314D01*
X225142085Y-71393934D01*
X225094122Y-71408483D01*
X225038109Y-71414000D01*
X224287891Y-71414000D01*
X224231878Y-71408483D01*
X224183915Y-71393934D01*
X224139725Y-71370314D01*
X224100982Y-71338518D01*
X224069186Y-71299775D01*
X224045566Y-71255585D01*
X224031017Y-71207622D01*
X224025500Y-71151609D01*
X224025500Y-70326391D01*
X224031017Y-70270378D01*
X224045566Y-70222415D01*
X224069186Y-70178225D01*
X224100982Y-70139482D01*
X224139725Y-70107686D01*
X224183915Y-70084066D01*
X224231878Y-70069517D01*
X224287891Y-70064000D01*
X225038109Y-70064000D01*
X225094122Y-70069517D01*
X225094122Y-70069517D01*
G37*
G36*
X200229183Y-67729100D02*
X200356574Y-67781868D01*
X200471225Y-67858475D01*
X200568725Y-67955975D01*
X200645332Y-68070626D01*
X200698100Y-68198017D01*
X200725000Y-68333255D01*
X200725000Y-68471145D01*
X200698100Y-68606383D01*
X200645332Y-68733774D01*
X200568725Y-68848425D01*
X200471225Y-68945925D01*
X200356574Y-69022532D01*
X200229183Y-69075300D01*
X200093945Y-69102200D01*
X199956055Y-69102200D01*
X199820817Y-69075300D01*
X199693426Y-69022532D01*
X199578775Y-68945925D01*
X199481275Y-68848425D01*
X199404668Y-68733774D01*
X199351900Y-68606383D01*
X199325000Y-68471145D01*
X199325000Y-68333255D01*
X199351900Y-68198017D01*
X199404668Y-68070626D01*
X199481275Y-67955975D01*
X199578775Y-67858475D01*
X199693426Y-67781868D01*
X199820817Y-67729100D01*
X199956055Y-67702200D01*
X200093945Y-67702200D01*
X200229183Y-67729100D01*
X200229183Y-67729100D01*
G37*
G36*
X194089000Y-69060000D02*
X188689000Y-69060000D01*
X188689000Y-65560000D01*
X194089000Y-65560000D01*
X194089000Y-69060000D01*
X194089000Y-69060000D01*
G37*
G36*
X223315000Y-68248000D02*
X219915000Y-68248000D01*
X219915000Y-64848000D01*
X223315000Y-64848000D01*
X223315000Y-68248000D01*
X223315000Y-68248000D01*
G37*
G36*
X182203600Y-68208400D02*
X180203600Y-68208400D01*
X180203600Y-66208400D01*
X182203600Y-66208400D01*
X182203600Y-68208400D01*
X182203600Y-68208400D01*
G37*
G36*
X104640306Y-58305301D02*
X104640309Y-58305302D01*
X104640310Y-58305302D01*
X105243512Y-58488281D01*
X105799427Y-58785424D01*
X106286690Y-59185310D01*
X106686576Y-59672573D01*
X106983719Y-60228488D01*
X107166698Y-60831690D01*
X107166699Y-60831694D01*
X107213000Y-61301796D01*
X107213000Y-64616204D01*
X107166699Y-65086306D01*
X107166698Y-65086309D01*
X107166698Y-65086310D01*
X106983719Y-65689512D01*
X106686576Y-66245427D01*
X106286690Y-66732690D01*
X105799426Y-67132576D01*
X105243511Y-67429719D01*
X104640309Y-67612698D01*
X104640308Y-67612698D01*
X104640305Y-67612699D01*
X104013000Y-67674483D01*
X103385694Y-67612699D01*
X103385691Y-67612698D01*
X103385690Y-67612698D01*
X102782488Y-67429719D01*
X102226573Y-67132576D01*
X101739310Y-66732690D01*
X101339424Y-66245426D01*
X101042281Y-65689511D01*
X100859302Y-65086309D01*
X100859302Y-65086308D01*
X100859301Y-65086305D01*
X100813000Y-64616203D01*
X100813000Y-61301796D01*
X100859301Y-60831689D01*
X101042281Y-60228490D01*
X101044120Y-60225050D01*
X101339425Y-59672573D01*
X101739311Y-59185310D01*
X102226574Y-58785424D01*
X102782489Y-58488281D01*
X103385691Y-58305302D01*
X103385692Y-58305302D01*
X103385695Y-58305301D01*
X104013000Y-58243517D01*
X104640306Y-58305301D01*
X104640306Y-58305301D01*
G37*
G36*
X146047306Y-58165301D02*
X146047309Y-58165302D01*
X146047310Y-58165302D01*
X146650512Y-58348281D01*
X147206427Y-58645424D01*
X147693690Y-59045310D01*
X148093576Y-59532573D01*
X148390719Y-60088488D01*
X148573698Y-60691690D01*
X148573699Y-60691694D01*
X148620000Y-61161796D01*
X148620000Y-64476204D01*
X148573699Y-64946306D01*
X148573698Y-64946309D01*
X148573698Y-64946310D01*
X148390719Y-65549512D01*
X148093576Y-66105427D01*
X147693690Y-66592690D01*
X147206426Y-66992576D01*
X146650511Y-67289719D01*
X146047309Y-67472698D01*
X146047308Y-67472698D01*
X146047305Y-67472699D01*
X145420000Y-67534483D01*
X144792694Y-67472699D01*
X144792691Y-67472698D01*
X144792690Y-67472698D01*
X144189488Y-67289719D01*
X143633573Y-66992576D01*
X143146310Y-66592690D01*
X142746424Y-66105426D01*
X142449281Y-65549511D01*
X142266302Y-64946309D01*
X142266302Y-64946308D01*
X142266301Y-64946305D01*
X142220000Y-64476203D01*
X142220000Y-61161796D01*
X142266301Y-60691689D01*
X142449281Y-60088490D01*
X142585667Y-59833330D01*
X142746425Y-59532573D01*
X143146311Y-59045310D01*
X143633574Y-58645424D01*
X144189489Y-58348281D01*
X144792691Y-58165302D01*
X144792692Y-58165302D01*
X144792695Y-58165301D01*
X145420000Y-58103517D01*
X146047306Y-58165301D01*
X146047306Y-58165301D01*
G37*
G36*
X81945195Y-55708874D02*
X82820119Y-55882907D01*
X83781018Y-56280924D01*
X84645804Y-56858756D01*
X85381244Y-57594196D01*
X85959076Y-58458982D01*
X86357093Y-59419881D01*
X86530312Y-60290713D01*
X86560000Y-60439964D01*
X86560000Y-61480036D01*
X86546282Y-61549000D01*
X86357093Y-62500119D01*
X85959076Y-63461018D01*
X85381244Y-64325804D01*
X84645804Y-65061244D01*
X83781018Y-65639076D01*
X82820119Y-66037093D01*
X81958899Y-66208400D01*
X81800036Y-66240000D01*
X80759964Y-66240000D01*
X80601101Y-66208400D01*
X79739881Y-66037093D01*
X78778982Y-65639076D01*
X77914196Y-65061244D01*
X77178756Y-64325804D01*
X76600924Y-63461018D01*
X76202907Y-62500119D01*
X76013718Y-61549000D01*
X76000000Y-61480036D01*
X76000000Y-60439964D01*
X76029688Y-60290713D01*
X76202907Y-59419881D01*
X76600924Y-58458982D01*
X77178756Y-57594196D01*
X77914196Y-56858756D01*
X78778982Y-56280924D01*
X79739881Y-55882907D01*
X80614805Y-55708874D01*
X80759964Y-55680000D01*
X81800036Y-55680000D01*
X81945195Y-55708874D01*
X81945195Y-55708874D01*
G37*
G36*
X215666000Y-66052000D02*
X205866000Y-66052000D01*
X205866000Y-54852000D01*
X215666000Y-54852000D01*
X215666000Y-66052000D01*
X215666000Y-66052000D01*
G37*
G36*
X181379370Y-63723772D02*
X181495289Y-63746829D01*
X181677278Y-63822211D01*
X181841063Y-63931649D01*
X181980351Y-64070937D01*
X182089789Y-64234722D01*
X182165171Y-64416711D01*
X182203600Y-64609909D01*
X182203600Y-64806891D01*
X182165171Y-65000089D01*
X182089789Y-65182078D01*
X181980351Y-65345863D01*
X181841063Y-65485151D01*
X181677278Y-65594589D01*
X181495289Y-65669971D01*
X181397038Y-65689514D01*
X181302093Y-65708400D01*
X181105107Y-65708400D01*
X181010162Y-65689514D01*
X180911911Y-65669971D01*
X180729922Y-65594589D01*
X180566137Y-65485151D01*
X180426849Y-65345863D01*
X180317411Y-65182078D01*
X180242029Y-65000089D01*
X180203600Y-64806891D01*
X180203600Y-64609909D01*
X180242029Y-64416711D01*
X180317411Y-64234722D01*
X180426849Y-64070937D01*
X180566137Y-63931649D01*
X180729922Y-63822211D01*
X180911911Y-63746829D01*
X181027830Y-63723772D01*
X181105107Y-63708400D01*
X181302093Y-63708400D01*
X181379370Y-63723772D01*
X181379370Y-63723772D01*
G37*
G36*
X204116000Y-64602000D02*
X199116000Y-64602000D01*
X199116000Y-56302000D01*
X204116000Y-56302000D01*
X204116000Y-64602000D01*
X204116000Y-64602000D01*
G37*
G36*
X221913217Y-59794014D02*
X222110872Y-59833330D01*
X222420252Y-59961479D01*
X222698687Y-60147523D01*
X222935477Y-60384313D01*
X223121521Y-60662748D01*
X223210720Y-60878095D01*
X223249670Y-60972129D01*
X223315000Y-61300563D01*
X223315000Y-61635437D01*
X223299759Y-61712058D01*
X223249670Y-61963872D01*
X223121521Y-62273252D01*
X222935477Y-62551687D01*
X222698687Y-62788477D01*
X222420252Y-62974521D01*
X222110872Y-63102670D01*
X222001393Y-63124447D01*
X221782437Y-63168000D01*
X221447563Y-63168000D01*
X221228607Y-63124447D01*
X221119128Y-63102670D01*
X220809748Y-62974521D01*
X220531313Y-62788477D01*
X220294523Y-62551687D01*
X220108479Y-62273252D01*
X219980330Y-61963872D01*
X219930241Y-61712058D01*
X219915000Y-61635437D01*
X219915000Y-61300563D01*
X219980330Y-60972129D01*
X220019280Y-60878095D01*
X220108479Y-60662748D01*
X220294523Y-60384313D01*
X220531313Y-60147523D01*
X220809748Y-59961479D01*
X221119128Y-59833330D01*
X221316783Y-59794014D01*
X221447563Y-59768000D01*
X221782437Y-59768000D01*
X221913217Y-59794014D01*
X221913217Y-59794014D01*
G37*
G36*
X126363000Y-56999000D02*
X126098279Y-56999000D01*
X126073893Y-57001402D01*
X126050444Y-57008515D01*
X126028833Y-57020066D01*
X126009891Y-57035612D01*
X125994345Y-57054554D01*
X125982794Y-57076165D01*
X125975681Y-57099614D01*
X125973279Y-57124000D01*
X125975681Y-57148386D01*
X125982794Y-57171835D01*
X125994345Y-57193446D01*
X126009891Y-57212388D01*
X126150913Y-57353410D01*
X126254879Y-57509006D01*
X126326492Y-57681895D01*
X126363000Y-57865433D01*
X126363000Y-58052567D01*
X126326492Y-58236105D01*
X126254879Y-58408994D01*
X126150913Y-58564590D01*
X126018590Y-58696913D01*
X125862994Y-58800879D01*
X125862988Y-58800881D01*
X125857860Y-58804308D01*
X125847090Y-58810064D01*
X125828148Y-58825609D01*
X125812602Y-58844551D01*
X125801050Y-58866161D01*
X125793936Y-58889610D01*
X125791534Y-58913997D01*
X125793935Y-58938383D01*
X125801048Y-58961832D01*
X125812598Y-58983444D01*
X125828143Y-59002386D01*
X125847085Y-59017932D01*
X125857855Y-59023689D01*
X125862987Y-59027118D01*
X125862994Y-59027121D01*
X126018590Y-59131087D01*
X126150913Y-59263410D01*
X126254879Y-59419006D01*
X126326492Y-59591895D01*
X126348393Y-59702000D01*
X126361522Y-59768000D01*
X126363000Y-59775433D01*
X126363000Y-59962567D01*
X126326492Y-60146105D01*
X126254879Y-60318994D01*
X126150913Y-60474590D01*
X126018590Y-60606913D01*
X125862994Y-60710879D01*
X125690105Y-60782492D01*
X125552452Y-60809873D01*
X125506568Y-60819000D01*
X125319432Y-60819000D01*
X125273548Y-60809873D01*
X125135895Y-60782492D01*
X124963006Y-60710879D01*
X124807410Y-60606913D01*
X124675087Y-60474590D01*
X124571121Y-60318994D01*
X124499508Y-60146105D01*
X124463000Y-59962567D01*
X124463000Y-59775433D01*
X124464479Y-59768000D01*
X124477607Y-59702000D01*
X124499508Y-59591895D01*
X124571121Y-59419006D01*
X124675087Y-59263410D01*
X124807410Y-59131087D01*
X124963006Y-59027121D01*
X124963012Y-59027119D01*
X124968140Y-59023692D01*
X124978910Y-59017936D01*
X124997852Y-59002391D01*
X125013398Y-58983449D01*
X125024950Y-58961839D01*
X125032064Y-58938390D01*
X125034466Y-58914003D01*
X125032065Y-58889617D01*
X125024952Y-58866168D01*
X125013402Y-58844556D01*
X124997857Y-58825614D01*
X124978915Y-58810068D01*
X124968145Y-58804311D01*
X124963013Y-58800882D01*
X124963006Y-58800879D01*
X124807410Y-58696913D01*
X124675087Y-58564590D01*
X124571121Y-58408994D01*
X124499508Y-58236105D01*
X124463000Y-58052567D01*
X124463000Y-57865433D01*
X124499508Y-57681895D01*
X124571121Y-57509006D01*
X124675087Y-57353410D01*
X124816109Y-57212388D01*
X124831655Y-57193446D01*
X124843206Y-57171835D01*
X124850319Y-57148386D01*
X124852721Y-57124000D01*
X124850319Y-57099614D01*
X124843206Y-57076165D01*
X124831655Y-57054554D01*
X124816109Y-57035612D01*
X124797167Y-57020066D01*
X124775556Y-57008515D01*
X124752107Y-57001402D01*
X124727721Y-56999000D01*
X124463000Y-56999000D01*
X124463000Y-55099000D01*
X126363000Y-55099000D01*
X126363000Y-56999000D01*
X126363000Y-56999000D01*
G37*
G36*
X167770000Y-56859000D02*
X167505279Y-56859000D01*
X167480893Y-56861402D01*
X167457444Y-56868515D01*
X167435833Y-56880066D01*
X167416891Y-56895612D01*
X167401345Y-56914554D01*
X167389794Y-56936165D01*
X167382681Y-56959614D01*
X167380279Y-56984000D01*
X167382681Y-57008386D01*
X167389794Y-57031835D01*
X167401345Y-57053446D01*
X167416891Y-57072388D01*
X167557913Y-57213410D01*
X167661879Y-57369006D01*
X167733492Y-57541895D01*
X167747576Y-57612699D01*
X167770000Y-57725432D01*
X167770000Y-57912568D01*
X167760873Y-57958451D01*
X167733492Y-58096105D01*
X167661879Y-58268994D01*
X167557913Y-58424590D01*
X167425590Y-58556913D01*
X167269994Y-58660879D01*
X167269988Y-58660881D01*
X167264860Y-58664308D01*
X167254090Y-58670064D01*
X167235148Y-58685609D01*
X167219602Y-58704551D01*
X167208050Y-58726161D01*
X167200936Y-58749610D01*
X167198534Y-58773997D01*
X167200935Y-58798383D01*
X167208048Y-58821832D01*
X167219598Y-58843444D01*
X167235143Y-58862386D01*
X167254085Y-58877932D01*
X167264855Y-58883689D01*
X167269987Y-58887118D01*
X167269994Y-58887121D01*
X167425590Y-58991087D01*
X167557913Y-59123410D01*
X167661879Y-59279006D01*
X167733492Y-59451895D01*
X167770000Y-59635433D01*
X167770000Y-59822567D01*
X167733492Y-60006105D01*
X167661879Y-60178994D01*
X167557913Y-60334590D01*
X167425590Y-60466913D01*
X167269994Y-60570879D01*
X167097105Y-60642492D01*
X166959452Y-60669873D01*
X166913568Y-60679000D01*
X166726432Y-60679000D01*
X166680548Y-60669873D01*
X166542895Y-60642492D01*
X166370006Y-60570879D01*
X166214410Y-60466913D01*
X166082087Y-60334590D01*
X165978121Y-60178994D01*
X165906508Y-60006105D01*
X165870000Y-59822567D01*
X165870000Y-59635433D01*
X165906508Y-59451895D01*
X165978121Y-59279006D01*
X166082087Y-59123410D01*
X166214410Y-58991087D01*
X166370006Y-58887121D01*
X166370012Y-58887119D01*
X166375140Y-58883692D01*
X166385910Y-58877936D01*
X166404852Y-58862391D01*
X166420398Y-58843449D01*
X166431950Y-58821839D01*
X166439064Y-58798390D01*
X166441466Y-58774003D01*
X166439065Y-58749617D01*
X166431952Y-58726168D01*
X166420402Y-58704556D01*
X166404857Y-58685614D01*
X166385915Y-58670068D01*
X166375145Y-58664311D01*
X166370013Y-58660882D01*
X166370006Y-58660879D01*
X166214410Y-58556913D01*
X166082087Y-58424590D01*
X165978121Y-58268994D01*
X165906508Y-58096105D01*
X165879127Y-57958451D01*
X165870000Y-57912568D01*
X165870000Y-57725432D01*
X165892424Y-57612699D01*
X165906508Y-57541895D01*
X165978121Y-57369006D01*
X166082087Y-57213410D01*
X166223109Y-57072388D01*
X166238655Y-57053446D01*
X166250206Y-57031835D01*
X166257319Y-57008386D01*
X166259721Y-56984000D01*
X166257319Y-56959614D01*
X166250206Y-56936165D01*
X166238655Y-56914554D01*
X166223109Y-56895612D01*
X166204167Y-56880066D01*
X166182556Y-56868515D01*
X166159107Y-56861402D01*
X166134721Y-56859000D01*
X165870000Y-56859000D01*
X165870000Y-54959000D01*
X167770000Y-54959000D01*
X167770000Y-56859000D01*
X167770000Y-56859000D01*
G37*
G36*
X169378622Y-56924517D02*
X169426585Y-56939066D01*
X169470775Y-56962686D01*
X169509518Y-56994482D01*
X169541314Y-57033225D01*
X169564934Y-57077415D01*
X169579483Y-57125378D01*
X169585000Y-57181391D01*
X169585000Y-57931609D01*
X169579483Y-57987622D01*
X169564934Y-58035585D01*
X169541314Y-58079775D01*
X169509518Y-58118518D01*
X169470775Y-58150314D01*
X169426585Y-58173934D01*
X169378622Y-58188483D01*
X169322609Y-58194000D01*
X168497391Y-58194000D01*
X168441378Y-58188483D01*
X168393415Y-58173934D01*
X168349225Y-58150314D01*
X168310482Y-58118518D01*
X168278686Y-58079775D01*
X168255066Y-58035585D01*
X168240517Y-57987622D01*
X168235000Y-57931609D01*
X168235000Y-57181391D01*
X168240517Y-57125378D01*
X168255066Y-57077415D01*
X168278686Y-57033225D01*
X168310482Y-56994482D01*
X168349225Y-56962686D01*
X168393415Y-56939066D01*
X168441378Y-56924517D01*
X168497391Y-56919000D01*
X169322609Y-56919000D01*
X169378622Y-56924517D01*
X169378622Y-56924517D01*
G37*
G36*
X127976622Y-56924517D02*
X128024585Y-56939066D01*
X128068775Y-56962686D01*
X128107518Y-56994482D01*
X128139314Y-57033225D01*
X128162934Y-57077415D01*
X128177483Y-57125378D01*
X128183000Y-57181391D01*
X128183000Y-57931609D01*
X128177483Y-57987622D01*
X128162934Y-58035585D01*
X128139314Y-58079775D01*
X128107518Y-58118518D01*
X128068775Y-58150314D01*
X128024585Y-58173934D01*
X127976622Y-58188483D01*
X127920609Y-58194000D01*
X127095391Y-58194000D01*
X127039378Y-58188483D01*
X126991415Y-58173934D01*
X126947225Y-58150314D01*
X126908482Y-58118518D01*
X126876686Y-58079775D01*
X126853066Y-58035585D01*
X126838517Y-57987622D01*
X126833000Y-57931609D01*
X126833000Y-57181391D01*
X126838517Y-57125378D01*
X126853066Y-57077415D01*
X126876686Y-57033225D01*
X126908482Y-56994482D01*
X126947225Y-56962686D01*
X126991415Y-56939066D01*
X127039378Y-56924517D01*
X127095391Y-56919000D01*
X127920609Y-56919000D01*
X127976622Y-56924517D01*
X127976622Y-56924517D01*
G37*
G36*
X177225200Y-57984000D02*
X174325200Y-57984000D01*
X174325200Y-54284000D01*
X177225200Y-54284000D01*
X177225200Y-57984000D01*
X177225200Y-57984000D01*
G37*
G36*
X184025200Y-57984000D02*
X181125200Y-57984000D01*
X181125200Y-54284000D01*
X184025200Y-54284000D01*
X184025200Y-57984000D01*
X184025200Y-57984000D01*
G37*
G36*
X194089000Y-57960000D02*
X188689000Y-57960000D01*
X188689000Y-54460000D01*
X194089000Y-54460000D01*
X194089000Y-57960000D01*
X194089000Y-57960000D01*
G37*
G36*
X104640306Y-48305301D02*
X104640309Y-48305302D01*
X104640310Y-48305302D01*
X105243512Y-48488281D01*
X105799427Y-48785424D01*
X106286690Y-49185310D01*
X106686576Y-49672573D01*
X106983719Y-50228488D01*
X107166698Y-50831690D01*
X107166699Y-50831694D01*
X107213000Y-51301796D01*
X107213000Y-54616204D01*
X107166699Y-55086306D01*
X107166698Y-55086309D01*
X107166698Y-55086310D01*
X106983719Y-55689512D01*
X106686576Y-56245427D01*
X106286690Y-56732690D01*
X105799426Y-57132576D01*
X105386279Y-57353408D01*
X105305527Y-57396571D01*
X105243511Y-57429719D01*
X104640309Y-57612698D01*
X104640308Y-57612698D01*
X104640305Y-57612699D01*
X104013000Y-57674483D01*
X103385694Y-57612699D01*
X103385691Y-57612698D01*
X103385690Y-57612698D01*
X102782488Y-57429719D01*
X102720473Y-57396571D01*
X102639720Y-57353408D01*
X102226573Y-57132576D01*
X101739310Y-56732690D01*
X101339424Y-56245426D01*
X101042281Y-55689511D01*
X100859302Y-55086309D01*
X100859302Y-55086308D01*
X100859301Y-55086305D01*
X100813000Y-54616203D01*
X100813000Y-51301796D01*
X100859301Y-50831689D01*
X101042281Y-50228490D01*
X101044120Y-50225050D01*
X101339425Y-49672573D01*
X101739311Y-49185310D01*
X102226574Y-48785424D01*
X102782489Y-48488281D01*
X103385691Y-48305302D01*
X103385692Y-48305302D01*
X103385695Y-48305301D01*
X104013000Y-48243517D01*
X104640306Y-48305301D01*
X104640306Y-48305301D01*
G37*
G36*
X146047306Y-48165301D02*
X146047309Y-48165302D01*
X146047310Y-48165302D01*
X146650512Y-48348281D01*
X147206427Y-48645424D01*
X147693690Y-49045310D01*
X148093576Y-49532573D01*
X148390719Y-50088488D01*
X148573698Y-50691690D01*
X148573699Y-50691694D01*
X148620000Y-51161796D01*
X148620000Y-54476204D01*
X148573699Y-54946306D01*
X148573698Y-54946309D01*
X148573698Y-54946310D01*
X148390719Y-55549512D01*
X148093576Y-56105427D01*
X147693690Y-56592690D01*
X147206426Y-56992576D01*
X146650511Y-57289719D01*
X146047309Y-57472698D01*
X146047308Y-57472698D01*
X146047305Y-57472699D01*
X145420000Y-57534483D01*
X144792694Y-57472699D01*
X144792691Y-57472698D01*
X144792690Y-57472698D01*
X144189488Y-57289719D01*
X143633573Y-56992576D01*
X143146310Y-56592690D01*
X142746424Y-56105426D01*
X142449281Y-55549511D01*
X142266302Y-54946309D01*
X142266302Y-54946308D01*
X142266301Y-54946305D01*
X142220000Y-54476203D01*
X142220000Y-51161796D01*
X142266301Y-50691689D01*
X142449281Y-50088490D01*
X142593810Y-49818095D01*
X142746425Y-49532573D01*
X143146311Y-49045310D01*
X143633574Y-48645424D01*
X144189489Y-48348281D01*
X144792691Y-48165302D01*
X144792692Y-48165302D01*
X144792695Y-48165301D01*
X145420000Y-48103517D01*
X146047306Y-48165301D01*
X146047306Y-48165301D01*
G37*
G36*
X221155770Y-55450372D02*
X221271689Y-55473429D01*
X221453678Y-55548811D01*
X221617463Y-55658249D01*
X221756751Y-55797537D01*
X221866189Y-55961322D01*
X221941571Y-56143311D01*
X221951656Y-56194014D01*
X221980000Y-56336507D01*
X221980000Y-56533493D01*
X221971681Y-56575314D01*
X221941571Y-56726689D01*
X221866189Y-56908678D01*
X221756751Y-57072463D01*
X221617463Y-57211751D01*
X221453678Y-57321189D01*
X221271689Y-57396571D01*
X221155770Y-57419628D01*
X221078493Y-57435000D01*
X220881507Y-57435000D01*
X220804230Y-57419628D01*
X220688311Y-57396571D01*
X220506322Y-57321189D01*
X220342537Y-57211751D01*
X220203249Y-57072463D01*
X220093811Y-56908678D01*
X220018429Y-56726689D01*
X219988319Y-56575314D01*
X219980000Y-56533493D01*
X219980000Y-56336507D01*
X220008344Y-56194014D01*
X220018429Y-56143311D01*
X220093811Y-55961322D01*
X220203249Y-55797537D01*
X220342537Y-55658249D01*
X220506322Y-55548811D01*
X220688311Y-55473429D01*
X220804230Y-55450372D01*
X220881507Y-55435000D01*
X221078493Y-55435000D01*
X221155770Y-55450372D01*
X221155770Y-55450372D01*
G37*
G36*
X169378622Y-55349517D02*
X169426585Y-55364066D01*
X169470775Y-55387686D01*
X169509518Y-55419482D01*
X169541314Y-55458225D01*
X169564934Y-55502415D01*
X169579483Y-55550378D01*
X169585000Y-55606391D01*
X169585000Y-56356609D01*
X169579483Y-56412622D01*
X169564934Y-56460585D01*
X169541314Y-56504775D01*
X169509518Y-56543518D01*
X169470775Y-56575314D01*
X169426585Y-56598934D01*
X169378622Y-56613483D01*
X169322609Y-56619000D01*
X168497391Y-56619000D01*
X168441378Y-56613483D01*
X168393415Y-56598934D01*
X168349225Y-56575314D01*
X168310482Y-56543518D01*
X168278686Y-56504775D01*
X168255066Y-56460585D01*
X168240517Y-56412622D01*
X168235000Y-56356609D01*
X168235000Y-55606391D01*
X168240517Y-55550378D01*
X168255066Y-55502415D01*
X168278686Y-55458225D01*
X168310482Y-55419482D01*
X168349225Y-55387686D01*
X168393415Y-55364066D01*
X168441378Y-55349517D01*
X168497391Y-55344000D01*
X169322609Y-55344000D01*
X169378622Y-55349517D01*
X169378622Y-55349517D01*
G37*
G36*
X127976622Y-55349517D02*
X128024585Y-55364066D01*
X128068775Y-55387686D01*
X128107518Y-55419482D01*
X128139314Y-55458225D01*
X128162934Y-55502415D01*
X128177483Y-55550378D01*
X128183000Y-55606391D01*
X128183000Y-56356609D01*
X128177483Y-56412622D01*
X128162934Y-56460585D01*
X128139314Y-56504775D01*
X128107518Y-56543518D01*
X128068775Y-56575314D01*
X128024585Y-56598934D01*
X127976622Y-56613483D01*
X127920609Y-56619000D01*
X127095391Y-56619000D01*
X127039378Y-56613483D01*
X126991415Y-56598934D01*
X126947225Y-56575314D01*
X126908482Y-56543518D01*
X126876686Y-56504775D01*
X126853066Y-56460585D01*
X126838517Y-56412622D01*
X126833000Y-56356609D01*
X126833000Y-55606391D01*
X126838517Y-55550378D01*
X126853066Y-55502415D01*
X126876686Y-55458225D01*
X126908482Y-55419482D01*
X126947225Y-55387686D01*
X126991415Y-55364066D01*
X127039378Y-55349517D01*
X127095391Y-55344000D01*
X127920609Y-55344000D01*
X127976622Y-55349517D01*
X127976622Y-55349517D01*
G37*
G36*
X221980000Y-52435000D02*
X219980000Y-52435000D01*
X219980000Y-50435000D01*
X221980000Y-50435000D01*
X221980000Y-52435000D01*
X221980000Y-52435000D01*
G37*
G36*
X185763320Y-47483117D02*
X185802497Y-47495001D01*
X185838594Y-47514295D01*
X185870236Y-47540264D01*
X185896205Y-47571906D01*
X185915499Y-47608003D01*
X185927383Y-47647180D01*
X185932000Y-47694056D01*
X185932000Y-49587944D01*
X185927383Y-49634820D01*
X185915499Y-49673997D01*
X185896205Y-49710094D01*
X185870236Y-49741736D01*
X185838594Y-49767705D01*
X185802497Y-49786999D01*
X185763320Y-49798883D01*
X185716444Y-49803500D01*
X180297556Y-49803500D01*
X180250680Y-49798883D01*
X180211503Y-49786999D01*
X180175406Y-49767705D01*
X180143764Y-49741736D01*
X180117795Y-49710094D01*
X180098501Y-49673997D01*
X180086617Y-49634820D01*
X180082000Y-49587944D01*
X180082000Y-47694056D01*
X180086617Y-47647180D01*
X180098501Y-47608003D01*
X180117795Y-47571906D01*
X180143764Y-47540264D01*
X180175406Y-47514295D01*
X180211503Y-47495001D01*
X180250680Y-47483117D01*
X180297556Y-47478500D01*
X185716444Y-47478500D01*
X185763320Y-47483117D01*
X185763320Y-47483117D01*
G37*
G36*
X197701320Y-47441617D02*
X197740497Y-47453501D01*
X197776594Y-47472795D01*
X197808236Y-47498764D01*
X197834205Y-47530406D01*
X197853499Y-47566503D01*
X197865383Y-47605680D01*
X197870000Y-47652556D01*
X197870000Y-49546444D01*
X197865383Y-49593320D01*
X197853499Y-49632497D01*
X197834205Y-49668594D01*
X197808236Y-49700236D01*
X197776594Y-49726205D01*
X197740497Y-49745499D01*
X197701320Y-49757383D01*
X197654444Y-49762000D01*
X192235556Y-49762000D01*
X192188680Y-49757383D01*
X192149503Y-49745499D01*
X192113406Y-49726205D01*
X192081764Y-49700236D01*
X192055795Y-49668594D01*
X192036501Y-49632497D01*
X192024617Y-49593320D01*
X192020000Y-49546444D01*
X192020000Y-47652556D01*
X192024617Y-47605680D01*
X192036501Y-47566503D01*
X192055795Y-47530406D01*
X192081764Y-47498764D01*
X192113406Y-47472795D01*
X192149503Y-47453501D01*
X192188680Y-47441617D01*
X192235556Y-47437000D01*
X197654444Y-47437000D01*
X197701320Y-47441617D01*
X197701320Y-47441617D01*
G37*
G36*
X209766320Y-47400117D02*
X209805497Y-47412001D01*
X209841594Y-47431295D01*
X209873236Y-47457264D01*
X209899205Y-47488906D01*
X209918499Y-47525003D01*
X209930383Y-47564180D01*
X209935000Y-47611056D01*
X209935000Y-49504944D01*
X209930383Y-49551820D01*
X209918499Y-49590997D01*
X209899205Y-49627094D01*
X209873236Y-49658736D01*
X209841594Y-49684705D01*
X209805497Y-49703999D01*
X209766320Y-49715883D01*
X209719444Y-49720500D01*
X204300556Y-49720500D01*
X204253680Y-49715883D01*
X204214503Y-49703999D01*
X204178406Y-49684705D01*
X204146764Y-49658736D01*
X204120795Y-49627094D01*
X204101501Y-49590997D01*
X204089617Y-49551820D01*
X204085000Y-49504944D01*
X204085000Y-47611056D01*
X204089617Y-47564180D01*
X204101501Y-47525003D01*
X204120795Y-47488906D01*
X204146764Y-47457264D01*
X204178406Y-47431295D01*
X204214503Y-47412001D01*
X204253680Y-47400117D01*
X204300556Y-47395500D01*
X209719444Y-47395500D01*
X209766320Y-47400117D01*
X209766320Y-47400117D01*
G37*
G36*
X221831320Y-47400117D02*
X221870497Y-47412001D01*
X221906594Y-47431295D01*
X221938236Y-47457264D01*
X221964205Y-47488906D01*
X221983499Y-47525003D01*
X221995383Y-47564180D01*
X222000000Y-47611056D01*
X222000000Y-49504944D01*
X221995383Y-49551820D01*
X221983499Y-49590997D01*
X221964205Y-49627094D01*
X221938236Y-49658736D01*
X221906594Y-49684705D01*
X221870497Y-49703999D01*
X221831320Y-49715883D01*
X221784444Y-49720500D01*
X216365556Y-49720500D01*
X216318680Y-49715883D01*
X216279503Y-49703999D01*
X216243406Y-49684705D01*
X216211764Y-49658736D01*
X216185795Y-49627094D01*
X216166501Y-49590997D01*
X216154617Y-49551820D01*
X216150000Y-49504944D01*
X216150000Y-47611056D01*
X216154617Y-47564180D01*
X216166501Y-47525003D01*
X216185795Y-47488906D01*
X216211764Y-47457264D01*
X216243406Y-47431295D01*
X216279503Y-47412001D01*
X216318680Y-47400117D01*
X216365556Y-47395500D01*
X221784444Y-47395500D01*
X221831320Y-47400117D01*
X221831320Y-47400117D01*
G37*
G36*
X185763320Y-40708117D02*
X185802497Y-40720001D01*
X185838594Y-40739295D01*
X185870236Y-40765264D01*
X185896205Y-40796906D01*
X185915499Y-40833003D01*
X185927383Y-40872180D01*
X185932000Y-40919056D01*
X185932000Y-42812944D01*
X185927383Y-42859820D01*
X185915499Y-42898997D01*
X185896205Y-42935094D01*
X185870236Y-42966736D01*
X185838594Y-42992705D01*
X185802497Y-43011999D01*
X185763320Y-43023883D01*
X185716444Y-43028500D01*
X180297556Y-43028500D01*
X180250680Y-43023883D01*
X180211503Y-43011999D01*
X180175406Y-42992705D01*
X180143764Y-42966736D01*
X180117795Y-42935094D01*
X180098501Y-42898997D01*
X180086617Y-42859820D01*
X180082000Y-42812944D01*
X180082000Y-40919056D01*
X180086617Y-40872180D01*
X180098501Y-40833003D01*
X180117795Y-40796906D01*
X180143764Y-40765264D01*
X180175406Y-40739295D01*
X180211503Y-40720001D01*
X180250680Y-40708117D01*
X180297556Y-40703500D01*
X185716444Y-40703500D01*
X185763320Y-40708117D01*
X185763320Y-40708117D01*
G37*
G36*
X197701320Y-40666617D02*
X197740497Y-40678501D01*
X197776594Y-40697795D01*
X197808236Y-40723764D01*
X197834205Y-40755406D01*
X197853499Y-40791503D01*
X197865383Y-40830680D01*
X197870000Y-40877556D01*
X197870000Y-42771444D01*
X197865383Y-42818320D01*
X197853499Y-42857497D01*
X197834205Y-42893594D01*
X197808236Y-42925236D01*
X197776594Y-42951205D01*
X197740497Y-42970499D01*
X197701320Y-42982383D01*
X197654444Y-42987000D01*
X192235556Y-42987000D01*
X192188680Y-42982383D01*
X192149503Y-42970499D01*
X192113406Y-42951205D01*
X192081764Y-42925236D01*
X192055795Y-42893594D01*
X192036501Y-42857497D01*
X192024617Y-42818320D01*
X192020000Y-42771444D01*
X192020000Y-40877556D01*
X192024617Y-40830680D01*
X192036501Y-40791503D01*
X192055795Y-40755406D01*
X192081764Y-40723764D01*
X192113406Y-40697795D01*
X192149503Y-40678501D01*
X192188680Y-40666617D01*
X192235556Y-40662000D01*
X197654444Y-40662000D01*
X197701320Y-40666617D01*
X197701320Y-40666617D01*
G37*
G36*
X221831320Y-40625117D02*
X221870497Y-40637001D01*
X221906594Y-40656295D01*
X221938236Y-40682264D01*
X221964205Y-40713906D01*
X221983499Y-40750003D01*
X221995383Y-40789180D01*
X222000000Y-40836056D01*
X222000000Y-42729944D01*
X221995383Y-42776820D01*
X221983499Y-42815997D01*
X221964205Y-42852094D01*
X221938236Y-42883736D01*
X221906594Y-42909705D01*
X221870497Y-42928999D01*
X221831320Y-42940883D01*
X221784444Y-42945500D01*
X216365556Y-42945500D01*
X216318680Y-42940883D01*
X216279503Y-42928999D01*
X216243406Y-42909705D01*
X216211764Y-42883736D01*
X216185795Y-42852094D01*
X216166501Y-42815997D01*
X216154617Y-42776820D01*
X216150000Y-42729944D01*
X216150000Y-40836056D01*
X216154617Y-40789180D01*
X216166501Y-40750003D01*
X216185795Y-40713906D01*
X216211764Y-40682264D01*
X216243406Y-40656295D01*
X216279503Y-40637001D01*
X216318680Y-40625117D01*
X216365556Y-40620500D01*
X221784444Y-40620500D01*
X221831320Y-40625117D01*
X221831320Y-40625117D01*
G37*
G36*
X209766320Y-40625117D02*
X209805497Y-40637001D01*
X209841594Y-40656295D01*
X209873236Y-40682264D01*
X209899205Y-40713906D01*
X209918499Y-40750003D01*
X209930383Y-40789180D01*
X209935000Y-40836056D01*
X209935000Y-42729944D01*
X209930383Y-42776820D01*
X209918499Y-42815997D01*
X209899205Y-42852094D01*
X209873236Y-42883736D01*
X209841594Y-42909705D01*
X209805497Y-42928999D01*
X209766320Y-42940883D01*
X209719444Y-42945500D01*
X204300556Y-42945500D01*
X204253680Y-42940883D01*
X204214503Y-42928999D01*
X204178406Y-42909705D01*
X204146764Y-42883736D01*
X204120795Y-42852094D01*
X204101501Y-42815997D01*
X204089617Y-42776820D01*
X204085000Y-42729944D01*
X204085000Y-40836056D01*
X204089617Y-40789180D01*
X204101501Y-40750003D01*
X204120795Y-40713906D01*
X204146764Y-40682264D01*
X204178406Y-40656295D01*
X204214503Y-40637001D01*
X204253680Y-40625117D01*
X204300556Y-40620500D01*
X209719444Y-40620500D01*
X209766320Y-40625117D01*
X209766320Y-40625117D01*
G37*
G36*
X220775000Y-37895000D02*
X217375000Y-37895000D01*
X217375000Y-34495000D01*
X220775000Y-34495000D01*
X220775000Y-37895000D01*
X220775000Y-37895000D01*
G37*
G36*
X202316393Y-34538553D02*
X202425872Y-34560330D01*
X202735252Y-34688479D01*
X203013687Y-34874523D01*
X203250477Y-35111313D01*
X203436521Y-35389748D01*
X203564670Y-35699128D01*
X203630000Y-36027565D01*
X203630000Y-36362435D01*
X203564670Y-36690872D01*
X203436521Y-37000252D01*
X203250477Y-37278687D01*
X203013687Y-37515477D01*
X202735252Y-37701521D01*
X202425872Y-37829670D01*
X202316393Y-37851447D01*
X202097437Y-37895000D01*
X201762563Y-37895000D01*
X201543607Y-37851447D01*
X201434128Y-37829670D01*
X201124748Y-37701521D01*
X200846313Y-37515477D01*
X200609523Y-37278687D01*
X200423479Y-37000252D01*
X200295330Y-36690872D01*
X200230000Y-36362435D01*
X200230000Y-36027565D01*
X200295330Y-35699128D01*
X200423479Y-35389748D01*
X200609523Y-35111313D01*
X200846313Y-34874523D01*
X201124748Y-34688479D01*
X201434128Y-34560330D01*
X201543607Y-34538553D01*
X201762563Y-34495000D01*
X202097437Y-34495000D01*
X202316393Y-34538553D01*
X202316393Y-34538553D01*
G37*
G36*
X117861393Y-34538553D02*
X117970872Y-34560330D01*
X118280252Y-34688479D01*
X118558687Y-34874523D01*
X118795477Y-35111313D01*
X118981521Y-35389748D01*
X119109670Y-35699128D01*
X119175000Y-36027565D01*
X119175000Y-36362435D01*
X119109670Y-36690872D01*
X118981521Y-37000252D01*
X118795477Y-37278687D01*
X118558687Y-37515477D01*
X118280252Y-37701521D01*
X117970872Y-37829670D01*
X117861393Y-37851447D01*
X117642437Y-37895000D01*
X117307563Y-37895000D01*
X117088607Y-37851447D01*
X116979128Y-37829670D01*
X116669748Y-37701521D01*
X116391313Y-37515477D01*
X116154523Y-37278687D01*
X115968479Y-37000252D01*
X115840330Y-36690872D01*
X115775000Y-36362435D01*
X115775000Y-36027565D01*
X115840330Y-35699128D01*
X115968479Y-35389748D01*
X116154523Y-35111313D01*
X116391313Y-34874523D01*
X116669748Y-34688479D01*
X116979128Y-34560330D01*
X117088607Y-34538553D01*
X117307563Y-34495000D01*
X117642437Y-34495000D01*
X117861393Y-34538553D01*
X117861393Y-34538553D01*
G37*
G36*
X124255000Y-37895000D02*
X120855000Y-37895000D01*
X120855000Y-34495000D01*
X124255000Y-34495000D01*
X124255000Y-37895000D01*
X124255000Y-37895000D01*
G37*
G36*
X141991393Y-34538553D02*
X142100872Y-34560330D01*
X142410252Y-34688479D01*
X142688687Y-34874523D01*
X142925477Y-35111313D01*
X143111521Y-35389748D01*
X143239670Y-35699128D01*
X143305000Y-36027565D01*
X143305000Y-36362435D01*
X143239670Y-36690872D01*
X143111521Y-37000252D01*
X142925477Y-37278687D01*
X142688687Y-37515477D01*
X142410252Y-37701521D01*
X142100872Y-37829670D01*
X141991393Y-37851447D01*
X141772437Y-37895000D01*
X141437563Y-37895000D01*
X141218607Y-37851447D01*
X141109128Y-37829670D01*
X140799748Y-37701521D01*
X140521313Y-37515477D01*
X140284523Y-37278687D01*
X140098479Y-37000252D01*
X139970330Y-36690872D01*
X139905000Y-36362435D01*
X139905000Y-36027565D01*
X139970330Y-35699128D01*
X140098479Y-35389748D01*
X140284523Y-35111313D01*
X140521313Y-34874523D01*
X140799748Y-34688479D01*
X141109128Y-34560330D01*
X141218607Y-34538553D01*
X141437563Y-34495000D01*
X141772437Y-34495000D01*
X141991393Y-34538553D01*
X141991393Y-34538553D01*
G37*
G36*
X148385000Y-37895000D02*
X144985000Y-37895000D01*
X144985000Y-34495000D01*
X148385000Y-34495000D01*
X148385000Y-37895000D01*
X148385000Y-37895000D01*
G37*
G36*
X100125000Y-37895000D02*
X96725000Y-37895000D01*
X96725000Y-34495000D01*
X100125000Y-34495000D01*
X100125000Y-37895000D01*
X100125000Y-37895000D01*
G37*
G36*
X93731393Y-34538553D02*
X93840872Y-34560330D01*
X94150252Y-34688479D01*
X94428687Y-34874523D01*
X94665477Y-35111313D01*
X94851521Y-35389748D01*
X94979670Y-35699128D01*
X95045000Y-36027565D01*
X95045000Y-36362435D01*
X94979670Y-36690872D01*
X94851521Y-37000252D01*
X94665477Y-37278687D01*
X94428687Y-37515477D01*
X94150252Y-37701521D01*
X93840872Y-37829670D01*
X93731393Y-37851447D01*
X93512437Y-37895000D01*
X93177563Y-37895000D01*
X92958607Y-37851447D01*
X92849128Y-37829670D01*
X92539748Y-37701521D01*
X92261313Y-37515477D01*
X92024523Y-37278687D01*
X91838479Y-37000252D01*
X91710330Y-36690872D01*
X91645000Y-36362435D01*
X91645000Y-36027565D01*
X91710330Y-35699128D01*
X91838479Y-35389748D01*
X92024523Y-35111313D01*
X92261313Y-34874523D01*
X92539748Y-34688479D01*
X92849128Y-34560330D01*
X92958607Y-34538553D01*
X93177563Y-34495000D01*
X93512437Y-34495000D01*
X93731393Y-34538553D01*
X93731393Y-34538553D01*
G37*
G36*
X160450000Y-37895000D02*
X157050000Y-37895000D01*
X157050000Y-34495000D01*
X160450000Y-34495000D01*
X160450000Y-37895000D01*
X160450000Y-37895000D01*
G37*
G36*
X184580000Y-37895000D02*
X181180000Y-37895000D01*
X181180000Y-34495000D01*
X184580000Y-34495000D01*
X184580000Y-37895000D01*
X184580000Y-37895000D01*
G37*
G36*
X190251393Y-34538553D02*
X190360872Y-34560330D01*
X190670252Y-34688479D01*
X190948687Y-34874523D01*
X191185477Y-35111313D01*
X191371521Y-35389748D01*
X191499670Y-35699128D01*
X191565000Y-36027565D01*
X191565000Y-36362435D01*
X191499670Y-36690872D01*
X191371521Y-37000252D01*
X191185477Y-37278687D01*
X190948687Y-37515477D01*
X190670252Y-37701521D01*
X190360872Y-37829670D01*
X190251393Y-37851447D01*
X190032437Y-37895000D01*
X189697563Y-37895000D01*
X189478607Y-37851447D01*
X189369128Y-37829670D01*
X189059748Y-37701521D01*
X188781313Y-37515477D01*
X188544523Y-37278687D01*
X188358479Y-37000252D01*
X188230330Y-36690872D01*
X188165000Y-36362435D01*
X188165000Y-36027565D01*
X188230330Y-35699128D01*
X188358479Y-35389748D01*
X188544523Y-35111313D01*
X188781313Y-34874523D01*
X189059748Y-34688479D01*
X189369128Y-34560330D01*
X189478607Y-34538553D01*
X189697563Y-34495000D01*
X190032437Y-34495000D01*
X190251393Y-34538553D01*
X190251393Y-34538553D01*
G37*
G36*
X196645000Y-37895000D02*
X193245000Y-37895000D01*
X193245000Y-34495000D01*
X196645000Y-34495000D01*
X196645000Y-37895000D01*
X196645000Y-37895000D01*
G37*
G36*
X214381393Y-34538553D02*
X214490872Y-34560330D01*
X214800252Y-34688479D01*
X215078687Y-34874523D01*
X215315477Y-35111313D01*
X215501521Y-35389748D01*
X215629670Y-35699128D01*
X215695000Y-36027565D01*
X215695000Y-36362435D01*
X215629670Y-36690872D01*
X215501521Y-37000252D01*
X215315477Y-37278687D01*
X215078687Y-37515477D01*
X214800252Y-37701521D01*
X214490872Y-37829670D01*
X214381393Y-37851447D01*
X214162437Y-37895000D01*
X213827563Y-37895000D01*
X213608607Y-37851447D01*
X213499128Y-37829670D01*
X213189748Y-37701521D01*
X212911313Y-37515477D01*
X212674523Y-37278687D01*
X212488479Y-37000252D01*
X212360330Y-36690872D01*
X212295000Y-36362435D01*
X212295000Y-36027565D01*
X212360330Y-35699128D01*
X212488479Y-35389748D01*
X212674523Y-35111313D01*
X212911313Y-34874523D01*
X213189748Y-34688479D01*
X213499128Y-34560330D01*
X213608607Y-34538553D01*
X213827563Y-34495000D01*
X214162437Y-34495000D01*
X214381393Y-34538553D01*
X214381393Y-34538553D01*
G37*
G36*
X208710000Y-37895000D02*
X205310000Y-37895000D01*
X205310000Y-34495000D01*
X208710000Y-34495000D01*
X208710000Y-37895000D01*
X208710000Y-37895000D01*
G37*
G36*
X129926393Y-34538553D02*
X130035872Y-34560330D01*
X130345252Y-34688479D01*
X130623687Y-34874523D01*
X130860477Y-35111313D01*
X131046521Y-35389748D01*
X131174670Y-35699128D01*
X131240000Y-36027565D01*
X131240000Y-36362435D01*
X131174670Y-36690872D01*
X131046521Y-37000252D01*
X130860477Y-37278687D01*
X130623687Y-37515477D01*
X130345252Y-37701521D01*
X130035872Y-37829670D01*
X129926393Y-37851447D01*
X129707437Y-37895000D01*
X129372563Y-37895000D01*
X129153607Y-37851447D01*
X129044128Y-37829670D01*
X128734748Y-37701521D01*
X128456313Y-37515477D01*
X128219523Y-37278687D01*
X128033479Y-37000252D01*
X127905330Y-36690872D01*
X127840000Y-36362435D01*
X127840000Y-36027565D01*
X127905330Y-35699128D01*
X128033479Y-35389748D01*
X128219523Y-35111313D01*
X128456313Y-34874523D01*
X128734748Y-34688479D01*
X129044128Y-34560330D01*
X129153607Y-34538553D01*
X129372563Y-34495000D01*
X129707437Y-34495000D01*
X129926393Y-34538553D01*
X129926393Y-34538553D01*
G37*
G36*
X178186393Y-34538553D02*
X178295872Y-34560330D01*
X178605252Y-34688479D01*
X178883687Y-34874523D01*
X179120477Y-35111313D01*
X179306521Y-35389748D01*
X179434670Y-35699128D01*
X179500000Y-36027565D01*
X179500000Y-36362435D01*
X179434670Y-36690872D01*
X179306521Y-37000252D01*
X179120477Y-37278687D01*
X178883687Y-37515477D01*
X178605252Y-37701521D01*
X178295872Y-37829670D01*
X178186393Y-37851447D01*
X177967437Y-37895000D01*
X177632563Y-37895000D01*
X177413607Y-37851447D01*
X177304128Y-37829670D01*
X176994748Y-37701521D01*
X176716313Y-37515477D01*
X176479523Y-37278687D01*
X176293479Y-37000252D01*
X176165330Y-36690872D01*
X176100000Y-36362435D01*
X176100000Y-36027565D01*
X176165330Y-35699128D01*
X176293479Y-35389748D01*
X176479523Y-35111313D01*
X176716313Y-34874523D01*
X176994748Y-34688479D01*
X177304128Y-34560330D01*
X177413607Y-34538553D01*
X177632563Y-34495000D01*
X177967437Y-34495000D01*
X178186393Y-34538553D01*
X178186393Y-34538553D01*
G37*
G36*
X81666393Y-34538553D02*
X81775872Y-34560330D01*
X82085252Y-34688479D01*
X82363687Y-34874523D01*
X82600477Y-35111313D01*
X82786521Y-35389748D01*
X82914670Y-35699128D01*
X82980000Y-36027565D01*
X82980000Y-36362435D01*
X82914670Y-36690872D01*
X82786521Y-37000252D01*
X82600477Y-37278687D01*
X82363687Y-37515477D01*
X82085252Y-37701521D01*
X81775872Y-37829670D01*
X81666393Y-37851447D01*
X81447437Y-37895000D01*
X81112563Y-37895000D01*
X80893607Y-37851447D01*
X80784128Y-37829670D01*
X80474748Y-37701521D01*
X80196313Y-37515477D01*
X79959523Y-37278687D01*
X79773479Y-37000252D01*
X79645330Y-36690872D01*
X79580000Y-36362435D01*
X79580000Y-36027565D01*
X79645330Y-35699128D01*
X79773479Y-35389748D01*
X79959523Y-35111313D01*
X80196313Y-34874523D01*
X80474748Y-34688479D01*
X80784128Y-34560330D01*
X80893607Y-34538553D01*
X81112563Y-34495000D01*
X81447437Y-34495000D01*
X81666393Y-34538553D01*
X81666393Y-34538553D01*
G37*
G36*
X88060000Y-37895000D02*
X84660000Y-37895000D01*
X84660000Y-34495000D01*
X88060000Y-34495000D01*
X88060000Y-37895000D01*
X88060000Y-37895000D01*
G37*
G36*
X166121393Y-34538553D02*
X166230872Y-34560330D01*
X166540252Y-34688479D01*
X166818687Y-34874523D01*
X167055477Y-35111313D01*
X167241521Y-35389748D01*
X167369670Y-35699128D01*
X167435000Y-36027565D01*
X167435000Y-36362435D01*
X167369670Y-36690872D01*
X167241521Y-37000252D01*
X167055477Y-37278687D01*
X166818687Y-37515477D01*
X166540252Y-37701521D01*
X166230872Y-37829670D01*
X166121393Y-37851447D01*
X165902437Y-37895000D01*
X165567563Y-37895000D01*
X165348607Y-37851447D01*
X165239128Y-37829670D01*
X164929748Y-37701521D01*
X164651313Y-37515477D01*
X164414523Y-37278687D01*
X164228479Y-37000252D01*
X164100330Y-36690872D01*
X164035000Y-36362435D01*
X164035000Y-36027565D01*
X164100330Y-35699128D01*
X164228479Y-35389748D01*
X164414523Y-35111313D01*
X164651313Y-34874523D01*
X164929748Y-34688479D01*
X165239128Y-34560330D01*
X165348607Y-34538553D01*
X165567563Y-34495000D01*
X165902437Y-34495000D01*
X166121393Y-34538553D01*
X166121393Y-34538553D01*
G37*
G36*
X172515000Y-37895000D02*
X169115000Y-37895000D01*
X169115000Y-34495000D01*
X172515000Y-34495000D01*
X172515000Y-37895000D01*
X172515000Y-37895000D01*
G37*
G36*
X136320000Y-37895000D02*
X132920000Y-37895000D01*
X132920000Y-34495000D01*
X136320000Y-34495000D01*
X136320000Y-37895000D01*
X136320000Y-37895000D01*
G37*
G36*
X154056393Y-34538553D02*
X154165872Y-34560330D01*
X154475252Y-34688479D01*
X154753687Y-34874523D01*
X154990477Y-35111313D01*
X155176521Y-35389748D01*
X155304670Y-35699128D01*
X155370000Y-36027565D01*
X155370000Y-36362435D01*
X155304670Y-36690872D01*
X155176521Y-37000252D01*
X154990477Y-37278687D01*
X154753687Y-37515477D01*
X154475252Y-37701521D01*
X154165872Y-37829670D01*
X154056393Y-37851447D01*
X153837437Y-37895000D01*
X153502563Y-37895000D01*
X153283607Y-37851447D01*
X153174128Y-37829670D01*
X152864748Y-37701521D01*
X152586313Y-37515477D01*
X152349523Y-37278687D01*
X152163479Y-37000252D01*
X152035330Y-36690872D01*
X151970000Y-36362435D01*
X151970000Y-36027565D01*
X152035330Y-35699128D01*
X152163479Y-35389748D01*
X152349523Y-35111313D01*
X152586313Y-34874523D01*
X152864748Y-34688479D01*
X153174128Y-34560330D01*
X153283607Y-34538553D01*
X153502563Y-34495000D01*
X153837437Y-34495000D01*
X154056393Y-34538553D01*
X154056393Y-34538553D01*
G37*
G36*
X112190000Y-37895000D02*
X108790000Y-37895000D01*
X108790000Y-34495000D01*
X112190000Y-34495000D01*
X112190000Y-37895000D01*
X112190000Y-37895000D01*
G37*
G36*
X105796393Y-34538553D02*
X105905872Y-34560330D01*
X106215252Y-34688479D01*
X106493687Y-34874523D01*
X106730477Y-35111313D01*
X106916521Y-35389748D01*
X107044670Y-35699128D01*
X107110000Y-36027565D01*
X107110000Y-36362435D01*
X107044670Y-36690872D01*
X106916521Y-37000252D01*
X106730477Y-37278687D01*
X106493687Y-37515477D01*
X106215252Y-37701521D01*
X105905872Y-37829670D01*
X105796393Y-37851447D01*
X105577437Y-37895000D01*
X105242563Y-37895000D01*
X105023607Y-37851447D01*
X104914128Y-37829670D01*
X104604748Y-37701521D01*
X104326313Y-37515477D01*
X104089523Y-37278687D01*
X103903479Y-37000252D01*
X103775330Y-36690872D01*
X103710000Y-36362435D01*
X103710000Y-36027565D01*
X103775330Y-35699128D01*
X103903479Y-35389748D01*
X104089523Y-35111313D01*
X104326313Y-34874523D01*
X104604748Y-34688479D01*
X104914128Y-34560330D01*
X105023607Y-34538553D01*
X105242563Y-34495000D01*
X105577437Y-34495000D01*
X105796393Y-34538553D01*
X105796393Y-34538553D01*
G37*
M02*
