  0
SECTION
  2
HEADER
  9
$ACADVER
  1
AC1009
  9
$INSBASE
 10
0.0
 20
0.0
 30
0.0
  9
$EXTMIN
 10
2.4423065004468119
 20
-118.9385258510999961
 30
0.0
  9
$EXTMAX
 10
174.2680835060799893
 20
-1.2731218504000019
 30
0.0
  9
$LIMMIN
 10
0.0
 20
0.0
  9
$LIMMAX
 10
12.0
 20
9.0
  9
$ORTHOMODE
 70
     0
  9
$REGENMODE
 70
     1
  9
$FILLMODE
 70
     1
  9
$QTEXTMODE
 70
     0
  9
$MIRRTEXT
 70
     1
  9
$DRAGMODE
 70
     2
  9
$LTSCALE
 40
1.0
  9
$OSMODE
 70
    37
  9
$ATTMODE
 70
     1
  9
$TEXTSIZE
 40
0.1377952756
  9
$TRACEWID
 40
0.05
  9
$TEXTSTYLE
  7
STANDARD
  9
$CLAYER
  8
0
  9
$CELTYPE
  6
BYLAYER
  9
$CECOLOR
 62
   256
  9
$DIMSCALE
 40
1.0
  9
$DIMASZ
 40
0.13
  9
$DIMEXO
 40
0.05
  9
$DIMDLI
 40
0.38
  9
$DIMRND
 40
0.0
  9
$DIMDLE
 40
0.0
  9
$DIMEXE
 40
0.125
  9
$DIMTP
 40
0.0
  9
$DIMTM
 40
0.0
  9
$DIMTXT
 40
0.1377952756
  9
$DIMCEN
 40
0.09
  9
$DIMTSZ
 40
0.0
  9
$DIMTOL
 70
     0
  9
$DIMLIM
 70
     0
  9
$DIMTIH
 70
     1
  9
$DIMTOH
 70
     1
  9
$DIMSE1
 70
     0
  9
$DIMSE2
 70
     0
  9
$DIMTAD
 70
     1
  9
$DIMZIN
 70
     1
  9
$DIMBLK
  1

  9
$DIMASO
 70
     1
  9
$DIMSHO
 70
     1
  9
$DIMPOST
  1

  9
$DIMAPOST
  1

  9
$DIMALT
 70
     0
  9
$DIMALTD
 70
     2
  9
$DIMALTF
 40
25.3999999999999986
  9
$DIMLFAC
 40
1.0
  9
$DIMTOFL
 70
     0
  9
$DIMTVP
 40
0.0
  9
$DIMTIX
 70
     0
  9
$DIMSOXD
 70
     0
  9
$DIMSAH
 70
     0
  9
$DIMBLK1
  1

  9
$DIMBLK2
  1

  9
$DIMSTYLE
  2
STANDARD
  9
$DIMCLRD
 70
     0
  9
$DIMCLRE
 70
     0
  9
$DIMCLRT
 70
     0
  9
$DIMTFAC
 40
1.0
  9
$DIMGAP
 40
0.06
  9
$LUNITS
 70
     2
  9
$LUPREC
 70
     2
  9
$SKETCHINC
 40
0.1
  9
$FILLETRAD
 40
0.5
  9
$AUNITS
 70
     0
  9
$AUPREC
 70
     2
  9
$MENU
  1
.
  9
$ELEVATION
 40
0.0
  9
$PELEVATION
 40
0.0
  9
$THICKNESS
 40
0.0
  9
$LIMCHECK
 70
     0
  9
$BLIPMODE
 70
     0
  9
$CHAMFERA
 40
0.0
  9
$CHAMFERB
 40
0.0
  9
$SKPOLY
 70
     0
  9
$TDCREATE
 40
2458413.6810416667722166
  9
$TDUPDATE
 40
2458413.7074537039734423
  9
$TDINDWG
 40
0.0255092708
  9
$TDUSRTIMER
 40
0.0255092708
  9
$USRTIMER
 70
     1
  9
$ANGBASE
 50
0.0
  9
$ANGDIR
 70
     0
  9
$PDMODE
 70
     0
  9
$PDSIZE
 40
-1.0
  9
$PLINEWID
 40
0.0
  9
$COORDS
 70
     1
  9
$SPLFRAME
 70
     0
  9
$SPLINETYPE
 70
     6
  9
$SPLINESEGS
 70
     8
  9
$ATTDIA
 70
     1
  9
$ATTREQ
 70
     1
  9
$HANDLING
 70
     1
  9
$HANDSEED
  5
1F8E
  9
$SURFTAB1
 70
     6
  9
$SURFTAB2
 70
     6
  9
$SURFTYPE
 70
     6
  9
$SURFU
 70
     6
  9
$SURFV
 70
     6
  9
$UCSNAME
  2

  9
$UCSORG
 10
0.0
 20
0.0
 30
0.0
  9
$UCSXDIR
 10
1.0
 20
0.0
 30
0.0
  9
$UCSYDIR
 10
0.0
 20
1.0
 30
0.0
  9
$PUCSNAME
  2

  9
$PUCSORG
 10
0.0
 20
0.0
 30
0.0
  9
$PUCSXDIR
 10
1.0
 20
0.0
 30
0.0
  9
$PUCSYDIR
 10
0.0
 20
1.0
 30
0.0
  9
$USERI1
 70
     0
  9
$USERI2
 70
     0
  9
$USERI3
 70
     0
  9
$USERI4
 70
     0
  9
$USERI5
 70
     0
  9
$USERR1
 40
0.0
  9
$USERR2
 40
0.0
  9
$USERR3
 40
0.0
  9
$USERR4
 40
0.0
  9
$USERR5
 40
0.0
  9
$WORLDVIEW
 70
     1
  9
$SHADEDGE
 70
     3
  9
$SHADEDIF
 70
    70
  9
$TILEMODE
 70
     1
  9
$MAXACTVP
 70
    64
  9
$PLIMCHECK
 70
     0
  9
$PEXTMIN
 10
1.0000000000000000E+20
 20
1.0000000000000000E+20
 30
1.0000000000000000E+20
  9
$PEXTMAX
 10
-1.0000000000000000E+20
 20
-1.0000000000000000E+20
 30
-1.0000000000000000E+20
  9
$PLIMMIN
 10
0.0
 20
0.0
  9
$PLIMMAX
 10
12.0
 20
9.0
  9
$UNITMODE
 70
     0
  9
$VISRETAIN
 70
     1
  9
$PLINEGEN
 70
     0
  9
$PSLTSCALE
 70
     1
  0
ENDSEC
  0
SECTION
  2
TABLES
  0
TABLE
  2
VPORT
 70
     1
  0
VPORT
  2
*ACTIVE
 70
     0
 10
0.0
 20
0.0
 11
1.0
 21
1.0
 12
132.6031375270690944
 22
-55.5458143514611606
 13
0.0
 23
0.0
 14
0.5
 24
0.5
 15
0.5
 25
0.5
 16
0.0
 26
0.0
 36
1.0
 17
0.0
 27
0.0
 37
0.0
 40
157.5429181848681992
 41
2.4598445595854921
 42
50.0
 43
0.0
 44
0.0
 50
0.0
 51
0.0
 71
     0
 72
   100
 73
     1
 74
     3
 75
     0
 76
     0
 77
     0
 78
     0
  0
ENDTAB
  0
TABLE
  2
LTYPE
 70
     7
  0
LTYPE
  2
CONTINUOUS
 70
     0
  3
Solid line
 72
    65
 73
     0
 40
0.0
  0
LTYPE
  2
HIDDEN
 70
     0
  3
Hidden __ __ __ __ __ __ __ __ __ __ __ __ __ __
 72
    65
 73
     2
 40
0.075
 49
0.05
 49
-0.025
  0
LTYPE
  2
PHANTOM
 70
     0
  3
Phantom ______  __  __  ______  __  __  ______
 72
    65
 73
     6
 40
0.5
 49
0.25
 49
-0.05
 49
0.05
 49
-0.05
 49
0.05
 49
-0.05
  0
LTYPE
  2
CENTER
 70
     0
  3
Center ____ _ ____ _ ____ _ ____ _ ____ _ ____
 72
    65
 73
     4
 40
0.4
 49
0.25
 49
-0.05
 49
0.05
 49
-0.05
  0
LTYPE
  2
CENTERX2
 70
     0
  3
Center (2x) ________  __  ________  __  _____
 72
    65
 73
     4
 40
0.8
 49
0.5
 49
-0.1
 49
0.1
 49
-0.1
  0
LTYPE
  2
DOT2
 70
     0
  3
Dot (.5x) ........................................
 72
    65
 73
     2
 40
0.025
 49
0.0
 49
-0.025
  0
ENDTAB
  0
TABLE
  2
LAYER
 70
     2
  0
LAYER
  2
0
 70
     0
 62
     7
  6
CONTINUOUS
  0
LAYER
  2
DEFPOINTS
 70
     0
 62
     7
  6
CONTINUOUS
  0
ENDTAB
  0
TABLE
  2
STYLE
 70
     2
  0
STYLE
  2
STANDARD
 70
     0
 40
0.0
 41
1.0
 50
0.0
 71
     0
 42
0.1377952756
  3
txt
  4

  0
STYLE
  2
SLDTEXTSTYLE0
 70
     0
 40
0.0
 41
0.7
 50
0.0
 71
     0
 42
0.1377952756
  3
TXT
  4

  0
ENDTAB
  0
TABLE
  2
VIEW
 70
     0
  0
ENDTAB
  0
TABLE
  2
UCS
 70
     0
  0
ENDTAB
  0
TABLE
  2
APPID
 70
     4
  0
APPID
  2
ACAD
 70
     0
  0
APPID
  2
ACAD_NAV_VCDISPLAY
 70
     0
  0
APPID
  2
ACAD_EXEMPT_FROM_CAD_STANDARDS
 70
     0
  0
APPID
  2
ACAD_MLEADERVER
 70
     0
  0
ENDTAB
  0
TABLE
  2
DIMSTYLE
 70
     2
  0
DIMSTYLE
  2
STANDARD
 70
     0
  3

  4

  5

  6

  7

 40
1.0
 41
0.18
 42
0.0625
 43
0.38
 44
0.18
 45
0.0
 46
0.0
 47
0.0
 48
0.0
140
0.18
141
0.09
142
0.0
143
25.3999999999999986
144
1.0
145
0.0
146
1.0
147
0.09
 71
     0
 72
     0
 73
     1
 74
     1
 75
     0
 76
     0
 77
     0
 78
     0
170
     0
171
     2
172
     0
173
     0
174
     0
175
     0
176
     0
177
     0
178
     0
  0
ENDTAB
  0
ENDSEC
  0
SECTION
  2
BLOCKS
  0
BLOCK
  8
0
  2
$MODEL_SPACE
 70
     0
 10
0.0
 20
0.0
 30
0.0
  3
$MODEL_SPACE
  1

  0
ENDBLK
  5
21
  8
0
  0
BLOCK
 67
     1
  8
0
  2
$PAPER_SPACE
 70
     0
 10
0.0
 20
0.0
 30
0.0
  3
$PAPER_SPACE
  1

  0
ENDBLK
  5
1D
 67
     1
  8
0
  0
BLOCK
  8
0
  2
*D1
 70
     1
 10
0.0
 20
0.0
 30
0.0
  3
*D1
  1

  0
LINE
  5
1E90
  8
0
 62
     0
 10
166.1401795060799884
 20
-1.2231218504000021
 30
0.0
 11
166.1401795060799884
 21
11.1602680082398393
 31
0.0
  0
LINE
  5
1E91
  8
0
 62
     0
 10
2.4531285038999959
 20
-1.2231218504000021
 30
0.0
 11
2.4531285038999968
 21
11.1602680082398393
 31
0.0
  0
LINE
  5
1E92
  8
0
 62
     0
 10
166.010179506079993
 20
11.0352680082398393
 30
0.0
 11
2.5831285038999972
 21
11.0352680082398393
 31
0.0
  0
SOLID
  5
1E93
  8
0
 62
     0
 10
166.010179506079993
 20
11.0569346749065094
 30
0.0
 11
166.010179506079993
 21
11.0136013415731799
 31
0.0
 12
166.1401795060799884
 22
11.0352680082398393
 32
0.0
 13
166.1401795060799884
 23
11.0352680082398393
 33
0.0
  0
SOLID
  5
1E94
  8
0
 62
     0
 10
2.5831285038999972
 20
11.0569346749065094
 30
0.0
 11
2.5831285038999972
 21
11.0136013415731799
 31
0.0
 12
2.4531285038999968
 22
11.0352680082398393
 32
0.0
 13
2.4531285038999968
 23
11.0352680082398393
 33
0.0
  0
INSERT
  5
1E95
  8
0
  2
*U3
 10
0.0
 20
0.0
 30
0.0
  0
POINT
  5
1E96
  8
DEFPOINTS
 62
     0
 10
166.1401795060799884
 20
-1.2731218504000019
 30
0.0
  0
POINT
  5
1E97
  8
DEFPOINTS
 62
     0
 10
2.4531285038999959
 20
-1.2731218504000019
 30
0.0
  0
POINT
  5
1E98
  8
DEFPOINTS
 62
     0
 10
2.4531285038999968
 20
11.0352680082398393
 30
0.0
  0
ENDBLK
  5
1E7D
  8
0
  0
BLOCK
  8
0
  2
*U3
 70
     1
 10
0.0
 20
0.0
 30
0.0
  3
*U3
  1

  0
TEXT
  5
1F88
  8
0
 62
     0
 10
83.975131695256664
 20
11.0952680082398398
 30
0.0
 40
0.1377952756
  1
163.69
  0
ENDBLK
  5
1F8A
  8
0
  0
ENDSEC
  0
SECTION
  2
ENTITIES
  0
CIRCLE
  5
73
  8
0
  6
CONTINUOUS
 62
     7
 10
169.3151795060798861
 20
-6.2260258510999966
 30
0.0
 40
1.7500000000492351
  0
ARC
  5
74
  8
0
  6
CONTINUOUS
 62
     7
 10
169.3151795060798861
 20
-6.2260258510999966
 30
0.0
 40
4.9529040000000171
 50
270.0
 51
90.0
  0
ARC
  5
75
  8
0
  6
CONTINUOUS
 62
     7
 10
169.3151795060798861
 20
-113.9856218503999941
 30
0.0
 40
4.9529040000000206
 50
270.0
 51
90.0
  0
ARC
  5
76
  8
0
  6
CONTINUOUS
 62
     7
 10
21.4376145048799991
 20
-117.6799758510599929
 30
0.0
 40
1.2602402685287211
 50
177.0321813250999128
 51
267.0321812049999153
  0
ARC
  5
77
  8
0
  6
CONTINUOUS
 62
     7
 10
4.0045165060200034
 20
-86.0128888500799746
 30
0.0
 40
1.5622100055731909
 50
173.2520348932000047
 51
263.2520348932000047
  0
ARC
  5
78
  8
0
  6
CONTINUOUS
 62
     7
 10
7.6909285058000023
 20
-100.0495058491799938
 30
0.0
 40
12.4878577774909694
 50
0.0
 51
91.1756503858999849
  0
CIRCLE
  5
79
  8
0
  6
CONTINUOUS
 62
     7
 10
169.3151795060798861
 20
-113.9856218503999941
 30
0.0
 40
1.7500000000492331
  0
LINE
  5
7D
  8
0
  6
CONTINUOUS
 62
     7
 10
21.3723655015200116
 20
-118.9385258510999961
 30
0.0
 11
166.1401795060799884
 21
-118.9385258510999961
 31
0.0
  0
LINE
  5
7F
  8
0
  6
CONTINUOUS
 62
     7
 10
2.4531285038999959
 20
-1.2731218504000019
 30
0.0
 11
2.4531285038999959
 21
-85.8293258491599858
 31
0.0
  0
LINE
  5
80
  8
0
  6
CONTINUOUS
 62
     7
 10
3.8209535050999999
 20
-87.5642768496599757
 30
0.0
 11
7.4347085051600033
 21
-87.5642768496599757
 31
0.0
  0
LINE
  5
81
  8
0
  6
CONTINUOUS
 62
     7
 10
20.1787858947799883
 20
-100.0495058491799938
 30
0.0
 11
20.1790645048399995
 21
-117.6147268502400038
 31
0.0
  0
LINE
  5
82
  8
0
  6
CONTINUOUS
 62
     7
 10
166.1401795060799884
 20
-118.9385258510999961
 30
0.0
 11
169.3151795060798861
 21
-118.9385258510999961
 31
0.0
  0
LINE
  5
83
  8
0
  6
CONTINUOUS
 62
     7
 10
169.3151795060798861
 20
-109.0327178497000062
 30
0.0
 11
169.3151795060798861
 21
-11.1789298492599904
 31
0.0
  0
CIRCLE
  5
8C
  8
0
  6
CONTINUOUS
 62
     7
 10
11.5214035042200003
 20
-83.0448018500200078
 30
0.0
 40
1.6000000000000181
  0
CIRCLE
  5
8D
  8
0
  6
CONTINUOUS
 62
     7
 10
21.4236645048400085
 20
-73.0758268502399915
 30
0.0
 40
3.047999999999992
  0
CIRCLE
  5
9A
  8
0
  6
CONTINUOUS
 62
     7
 10
21.4236645048400085
 20
-29.8958268502399918
 30
0.0
 40
3.048000000000024
  0
CIRCLE
  5
127
  8
0
  6
CONTINUOUS
 62
     7
 10
11.5214035042200003
 20
-45.0448018506800025
 30
0.0
 40
1.6000000000000181
  0
LINE
  5
1235
  8
0
  6
CONTINUOUS
 62
     7
 10
20.1787855036199986
 20
-100.0495058491799938
 30
0.0
 11
20.1790645048399995
 21
-117.6147268502400038
 31
0.0
  0
LINE
  5
1236
  8
0
  6
CONTINUOUS
 62
     7
 10
2.4531285038999959
 20
-1.2731218504000019
 30
0.0
 11
2.4531285038999959
 21
-85.8293258491599858
 31
0.0
  0
LINE
  5
124A
  8
0
  6
CONTINUOUS
 62
     7
 10
21.3723655015200116
 20
-118.9385258510999961
 30
0.0
 11
166.1401795060799884
 21
-118.9385258510999961
 31
0.0
  0
LINE
  5
124B
  8
0
  6
CONTINUOUS
 62
     7
 10
3.8209535050999999
 20
-87.5642768496599757
 30
0.0
 11
7.4347085051600033
 21
-87.5642768496599757
 31
0.0
  0
ARC
  5
1CC7
  8
0
  6
CONTINUOUS
 62
     7
 10
7.6909268065400047
 20
-100.0495068067599931
 30
0.0
 40
12.48785869811109
 50
0.0000043846999977
 51
91.1756425064999831
  0
ARC
  5
1CC8
  8
0
  6
CONTINUOUS
 62
     7
 10
4.0045165060200034
 20
-86.0128888500799746
 30
0.0
 40
1.5622100055731909
 50
173.2520348932000047
 51
263.2520348932000047
  0
ARC
  5
1CC9
  8
0
  6
CONTINUOUS
 62
     7
 10
21.4376145048799991
 20
-117.6799758510599929
 30
0.0
 40
1.2602402684345031
 50
177.0321813223000049
 51
267.0321812107000028
  0
LINE
  5
1EED
  8
0
 10
2.4531285038999959
 20
-1.2731218504000019
 30
0.0
 11
169.3151795060798861
 21
-1.27312185109998
 31
0.0
  0
ENDSEC
  0
EOF
