999
dxfrw 0.6.3
  0
SECTION
  2
HEADER
  9
$ACADVER
  1
AC1009
  9
$DWGCODEPAGE
  3
ANSI_1252
  9
$INSBASE
 10
0
 20
0
 30
0
  9
$EXTMIN
 10
-185.173505056154
 20
-40.11135514994366
 30
0
  9
$EXTMAX
 10
4.9470777629
 20
79.47684455655511
 30
0
  9
$LIMMIN
 10
0
 20
0
  9
$LIMMAX
 10
12
 20
9
  9
$ORTHOMODE
 70
    0
  9
$REGENMODE
 70
    1
  9
$FILLMODE
 70
    1
  9
$QTEXTMODE
 70
    0
  9
$MIRRTEXT
 70
    1
  9
$DRAGMODE
 70
    2
  9
$LTSCALE
 40
1
  9
$OSMODE
 70
    0
  9
$ATTMODE
 70
    1
  9
$TEXTSIZE
 40
0.1377952756
  9
$TRACEWID
 40
0.05
  9
$TEXTSTYLE
  7
STANDARD
  9
$CLAYER
  8
0
  9
$CELTYPE
  6
BYLAYER
  9
$CECOLOR
 62
  256
  9
$DIMSCALE
 40
1
  9
$DIMASZ
 40
0.13
  9
$DIMEXO
 40
0.05
  9
$DIMDLI
 40
0.38
  9
$DIMRND
 40
0
  9
$DIMDLE
 40
0
  9
$DIMEXE
 40
0.125
  9
$DIMTP
 40
0
  9
$DIMTM
 40
0
  9
$DIMTXT
 40
0.1377952756
  9
$DIMCEN
 40
0.09
  9
$DIMTSZ
 40
0
  9
$DIMTOL
 70
    0
  9
$DIMLIM
 70
    0
  9
$DIMTIH
 70
    1
  9
$DIMTOH
 70
    1
  9
$DIMSE1
 70
    0
  9
$DIMSE2
 70
    0
  9
$DIMTAD
 70
    1
  9
$DIMZIN
 70
    1
  9
$DIMBLK
  1

  9
$DIMASO
 70
    1
  9
$DIMSHO
 70
    1
  9
$DIMPOST
  1

  9
$DIMAPOST
  1

  9
$DIMALT
 70
    0
  9
$DIMALTD
 70
    2
  9
$DIMALTF
 40
25.4
  9
$DIMLFAC
 40
1
  9
$DIMTOFL
 70
    0
  9
$DIMTVP
 40
0
  9
$DIMTIX
 70
    0
  9
$DIMSOXD
 70
    0
  9
$DIMSAH
 70
    0
  9
$DIMBLK1
  1

  9
$DIMBLK2
  1

  9
$DIMSTYLE
  2
STANDARD
  9
$DIMCLRD
 70
    0
  9
$DIMCLRE
 70
    0
  9
$DIMCLRT
 70
    0
  9
$DIMTFAC
 40
1
  9
$DIMGAP
 40
0.06
  9
$LUNITS
 70
    2
  9
$LUPREC
 70
    2
  9
$SKETCHINC
 40
0.1
  9
$FILLETRAD
 40
0.5
  9
$AUNITS
 70
    0
  9
$AUPREC
 70
    2
  9
$MENU
  1
.
  9
$ELEVATION
 40
0
  9
$PELEVATION
 40
0
  9
$THICKNESS
 40
0
  9
$LIMCHECK
 70
    0
  9
$BLIPMODE
 70
    0
  9
$CHAMFERA
 40
0
  9
$CHAMFERB
 40
0
  9
$SKPOLY
 70
    0
  9
$USRTIMER
 70
    1
  9
$ANGBASE
 50
0
  9
$ANGDIR
 70
    0
  9
$PDMODE
 70
    0
  9
$PDSIZE
 40
-1
  9
$PLINEWID
 40
0
  9
$COORDS
 70
    2
  9
$SPLFRAME
 70
    0
  9
$SPLINETYPE
 70
    6
  9
$SPLINESEGS
 70
    8
  9
$ATTDIA
 70
    1
  9
$ATTREQ
 70
    1
  9
$HANDLING
 70
    1
  9
$HANDSEED
  5
20000
  9
$SURFTAB1
 70
    6
  9
$SURFTAB2
 70
    6
  9
$SURFTYPE
 70
    6
  9
$SURFU
 70
    6
  9
$SURFV
 70
    6
  9
$UCSNAME
  2

  9
$UCSORG
 10
0
 20
0
 30
0
  9
$UCSXDIR
 10
1
 20
0
 30
0
  9
$UCSYDIR
 10
0
 20
1
 30
0
  9
$PUCSNAME
  2

  9
$PUCSORG
 10
0
 20
0
 30
0
  9
$PUCSXDIR
 10
1
 20
0
 30
0
  9
$PUCSYDIR
 10
0
 20
1
 30
0
  9
$USERI1
 70
    0
  9
$USERI2
 70
    0
  9
$USERI3
 70
    0
  9
$USERI4
 70
    0
  9
$USERI5
 70
    0
  9
$USERR1
 40
0
  9
$USERR2
 40
0
  9
$USERR3
 40
0
  9
$USERR4
 40
0
  9
$USERR5
 40
0
  9
$WORLDVIEW
 70
    1
  9
$SHADEDGE
 70
    3
  9
$SHADEDIF
 70
   70
  9
$TILEMODE
 70
    1
  9
$MAXACTVP
 70
   64
  9
$PLIMCHECK
 70
    0
  9
$PEXTMIN
 10
1e+020
 20
1e+020
 30
1e+020
  9
$PEXTMAX
 10
-1e+020
 20
-1e+020
 30
-1e+020
  9
$GRIDMODE
 70
    0
  9
$SNAPSTYLE
 70
    0
  9
$PLIMMIN
 10
0
 20
0
  9
$PLIMMAX
 10
12
 20
9
  9
$UNITMODE
 70
    0
  9
$VISRETAIN
 70
    1
  9
$PLINEGEN
 70
    0
  9
$PSLTSCALE
 70
    1
  0
ENDSEC
  0
SECTION
  2
TABLES
  0
TABLE
  2
VPORT
 70
    1
  0
VPORT
  2
*ACTIVE
 70
    0
 10
0
 20
0
 11
1
 21
1
 12
129.1791285711929
 22
74.38637068059298
 13
0
 23
0
 14
10
 24
10
 15
10
 25
10
 16
0
 26
0
 36
1
 17
0
 27
0
 37
0
 40
276.3913167013175
 41
1.963613550815558
 42
50
 43
0
 44
0
 50
0
 51
0
 71
    0
 72
  100
 73
    1
 74
    3
 75
    0
 76
    0
 77
    0
 78
    0
  0
ENDTAB
  0
TABLE
  2
LTYPE
 70
    4
  0
LTYPE
  2
BYBLOCK
 70
    0
  3

 72
   65
 73
    0
 40
0
  0
LTYPE
  2
BYLAYER
 70
    0
  3

 72
   65
 73
    0
 40
0
  0
LTYPE
  2
CONTINUOUS
 70
    0
  3
Solid line
 72
   65
 73
    0
 40
0
  0
LTYPE
  2
DOT
 70
    0
  3
Dot . . . . . . . . . . . . . . . . . . . . . .
 72
   65
 73
    2
 40
6.35
 49
0
 49
-6.35
  0
LTYPE
  2
DOTTINY
 70
    0
  3
Dot (.15x) .....................................
 72
   65
 73
    2
 40
0.9525
 49
0
 49
-0.9525
  0
LTYPE
  2
DOT2
 70
    0
  3
Dot (.5x) .....................................
 72
   65
 73
    2
 40
3.175
 49
0
 49
-3.175
  0
LTYPE
  2
DOTX2
 70
    0
  3
Dot (2x) .  .  .  .  .  .  .  .  .  .  .  .  .
 72
   65
 73
    2
 40
12.7
 49
0
 49
-12.7
  0
LTYPE
  2
DASHED
 70
    0
  3
Dashed _ _ _ _ _ _ _ _ _ _ _ _ _ _ _ _ _
 72
   65
 73
    2
 40
19.05
 49
12.7
 49
-6.35
  0
LTYPE
  2
DASHEDTINY
 70
    0
  3
Dashed (.15x) _ _ _ _ _ _ _ _ _ _ _ _ _ _ _ _ _
 72
   65
 73
    2
 40
2.8575
 49
1.905
 49
-0.9525
  0
LTYPE
  2
DASHED2
 70
    0
  3
Dashed (.5x) _ _ _ _ _ _ _ _ _ _ _ _ _ _ _ _ _
 72
   65
 73
    2
 40
9.524999999999999
 49
6.35
 49
-3.175
  0
LTYPE
  2
DASHEDX2
 70
    0
  3
Dashed (2x) ____  ____  ____  ____  ____  ___
 72
   65
 73
    2
 40
38.09999999999999
 49
25.4
 49
-12.7
  0
LTYPE
  2
DASHDOT
 70
    0
  3
Dash dot __ . __ . __ . __ . __ . __ . __ . __
 72
   65
 73
    4
 40
25.4
 49
12.7
 49
-6.35
 49
0
 49
-6.35
  0
LTYPE
  2
DASHDOTTINY
 70
    0
  3
Dash dot (.15x) _._._._._._._._._._._._._._._.
 72
   65
 73
    4
 40
3.81
 49
1.905
 49
-0.9525
 49
0
 49
-0.9525
  0
LTYPE
  2
DASHDOT2
 70
    0
  3
Dash dot (.5x) _._._._._._._._._._._._._._._.
 72
   65
 73
    4
 40
12.7
 49
6.35
 49
-3.175
 49
0
 49
-3.175
  0
LTYPE
  2
DASHDOTX2
 70
    0
  3
Dash dot (2x) ____  .  ____  .  ____  .  ___
 72
   65
 73
    4
 40
50.8
 49
25.4
 49
-12.7
 49
0
 49
-12.7
  0
LTYPE
  2
DIVIDE
 70
    0
  3
Divide ____ . . ____ . . ____ . . ____ . . ____
 72
   65
 73
    6
 40
31.75
 49
12.7
 49
-6.35
 49
0
 49
-6.35
 49
0
 49
-6.35
  0
LTYPE
  2
DIVIDETINY
 70
    0
  3
Divide (.15x) __..__..__..__..__..__..__..__.._
 72
   65
 73
    6
 40
4.7625
 49
1.905
 49
-0.9525
 49
0
 49
-0.9525
 49
0
 49
-0.9525
  0
LTYPE
  2
DIVIDE2
 70
    0
  3
Divide (.5x) __..__..__..__..__..__..__..__.._
 72
   65
 73
    6
 40
15.875
 49
6.35
 49
-3.175
 49
0
 49
-3.175
 49
0
 49
-3.175
  0
LTYPE
  2
DIVIDEX2
 70
    0
  3
Divide (2x) ________  .  .  ________  .  .  _
 72
   65
 73
    6
 40
63.5
 49
25.4
 49
-12.7
 49
0
 49
-12.7
 49
0
 49
-12.7
  0
LTYPE
  2
BORDER
 70
    0
  3
Border __ __ . __ __ . __ __ . __ __ . __ __ .
 72
   65
 73
    6
 40
44.45
 49
12.7
 49
-6.35
 49
12.7
 49
-6.35
 49
0
 49
-6.35
  0
LTYPE
  2
BORDERTINY
 70
    0
  3
Border (.15x) __.__.__.__.__.__.__.__.__.__.__.
 72
   65
 73
    6
 40
6.6675
 49
1.905
 49
-0.9525
 49
1.905
 49
-0.9525
 49
0
 49
-0.9525
  0
LTYPE
  2
BORDER2
 70
    0
  3
Border (.5x) __.__.__.__.__.__.__.__.__.__.__.
 72
   65
 73
    6
 40
22.225
 49
6.35
 49
-3.175
 49
6.35
 49
-3.175
 49
0
 49
-3.175
  0
LTYPE
  2
BORDERX2
 70
    0
  3
Border (2x) ____  ____  .  ____  ____  .  ___
 72
   65
 73
    6
 40
88.89999999999999
 49
25.4
 49
-12.7
 49
25.4
 49
-12.7
 49
0
 49
-12.7
  0
LTYPE
  2
CENTER
 70
    0
  3
Center ____ _ ____ _ ____ _ ____ _ ____ _ ____
 72
   65
 73
    4
 40
50.8
 49
31.75
 49
-6.35
 49
6.35
 49
-6.35
  0
LTYPE
  2
CENTERTINY
 70
    0
  3
Center (.15x) ___ _ ___ _ ___ _ ___ _ ___ _ ___
 72
   65
 73
    4
 40
7.62
 49
4.7625
 49
-0.9525
 49
0.9525
 49
-0.9525
  0
LTYPE
  2
CENTER2
 70
    0
  3
Center (.5x) ___ _ ___ _ ___ _ ___ _ ___ _ ___
 72
   65
 73
    4
 40
28.575
 49
19.05
 49
-3.175
 49
3.175
 49
-3.175
  0
LTYPE
  2
CENTERX2
 70
    0
  3
Center (2x) ________  __  ________  __  _____
 72
   65
 73
    4
 40
101.6
 49
63.5
 49
-12.7
 49
12.7
 49
-12.7
  0
ENDTAB
  0
TABLE
  2
LAYER
 70
    1
  0
LAYER
  2
0
 70
    0
 62
    7
  6
CONTINUOUS
  0
ENDTAB
  0
TABLE
  2
STYLE
 70
    3
  0
STYLE
  2
STANDARD
 70
    0
 40
0
 41
1
 50
0
 71
    0
 42
1
  3
TXT
  4

  0
ENDTAB
  0
TABLE
  2
VIEW
 70
    0
  0
ENDTAB
  0
TABLE
  2
UCS
 70
    0
  0
ENDTAB
  0
TABLE
  2
APPID
 70
    1
  0
APPID
  2
ACAD
 70
    0
  0
APPID
  2
LIBRECAD
 70
    0
  0
ENDTAB
  0
TABLE
  2
DIMSTYLE
 70
    1
  0
DIMSTYLE
  2
STANDARD
 70
    0
  3

  4

  5

  6

  7

 40
1
 41
0.13
 42
0.05
 43
0.38
 44
0.125
 45
0
 46
0
 47
0
 48
0
 49
1
140
0.1377952756
141
0.09
142
0
143
25.4
144
1
145
0
146
1
147
0.06
 71
    0
 72
    0
 73
    1
 74
    1
 75
    0
 76
    0
 77
    0
 78
    1
170
    0
171
    2
172
    0
173
    0
174
    0
175
    0
176
    0
177
    0
178
    0
  0
ENDTAB
  0
ENDSEC
  0
SECTION
  2
BLOCKS
  0
BLOCK
  8
0
  2
$MODEL_SPACE
 70
    0
 10
0
 20
0
 30
0
  3
$MODEL_SPACE
  1

  0
ENDBLK
  8
0
  0
BLOCK
  8
0
  2
$PAPER_SPACE
 70
    0
 10
0
 20
0
 30
0
  3
$PAPER_SPACE
  1

  0
ENDBLK
  8
0
  0
ENDSEC
  0
SECTION
  2
ENTITIES
  0
CIRCLE
  5
31
  8
0
  6
CONTINUOUS
 62
    7
 10
-30.55472958515399
 20
3.995620027815129
 40
1.599999999999952
  0
CIRCLE
  5
32
  8
0
  6
CONTINUOUS
 62
    7
 10
-30.55472958515399
 20
41.99562002715513
 40
1.599999999999975
  0
CIRCLE
  5
33
  8
0
  6
CONTINUOUS
 62
    7
 10
-172.632855527394
 20
3.995620027815129
 40
1.500000000000002
  0
CIRCLE
  5
34
  8
0
  6
CONTINUOUS
 62
    7
 10
-172.632855527394
 20
41.99562002715513
 40
1.50000000000001
  0
CIRCLE
  5
35
  8
0
  6
CONTINUOUS
 62
    7
 10
-30.55472958515399
 20
-34.00437997152487
 40
1.600000000000019
  0
POLYLINE
  5
36
  8
0
  6
CONTINUOUS
 62
    7
 66
    1
 10
0
 20
0
 30
0
 70
    0
  0
VERTEX
  5
37
  8
0
  6
CONTINUOUS
 62
    7
 10
-22.85427940581764
 20
-40.11135514994366
 30
0
  0
VERTEX
  5
38
  8
0
  6
CONTINUOUS
 62
    7
 10
-22.82184052876361
 20
-40.11083103591014
 30
0
  0
VERTEX
  5
39
  8
0
  6
CONTINUOUS
 62
    7
 10
-22.7894053949577
 20
-40.11022061017309
 30
0
  0
VERTEX
  5
3A
  8
0
  6
CONTINUOUS
 62
    7
 10
-22.75697774764808
 20
-40.10943756102901
 30
0
  0
VERTEX
  5
3B
  8
0
  6
CONTINUOUS
 62
    7
 10
-22.72456133008285
 20
-40.10839557677438
 30
0
  0
VERTEX
  5
3C
  8
0
  6
CONTINUOUS
 62
    7
 10
-22.69215988551012
 20
-40.10700834570567
 30
0
  0
VERTEX
  5
3D
  8
0
  6
CONTINUOUS
 62
    7
 10
-22.65977718636542
 20
-40.1052006302228
 30
0
  0
VERTEX
  5
3E
  8
0
  6
CONTINUOUS
 62
    7
 10
-22.62741718932006
 20
-40.10296709441808
 30
0
  0
VERTEX
  5
3F
  8
0
  6
CONTINUOUS
 62
    7
 10
-22.5950839227336
 20
-40.10032960190831
 30
0
  0
VERTEX
  5
40
  8
0
  6
CONTINUOUS
 62
    7
 10
-22.56278141512642
 20
-40.09731007732842
 30
0
  0
VERTEX
  5
41
  8
0
  6
CONTINUOUS
 62
    7
 10
-22.53051369501889
 20
-40.09393044531337
 30
0
  0
VERTEX
  5
42
  8
0
  6
CONTINUOUS
 62
    7
 10
-22.49828479393222
 20
-40.09021072768003
 30
0
  0
VERTEX
  5
43
  8
0
  6
CONTINUOUS
 62
    7
 10
-22.46609877042236
 20
-40.08615380369987
 30
0
  0
VERTEX
  5
44
  8
0
  6
CONTINUOUS
 62
    7
 10
-22.4339596973634
 20
-40.08175347358191
 30
0
  0
VERTEX
  5
45
  8
0
  6
CONTINUOUS
 62
    7
 10
-22.40187164776019
 20
-40.0770034546309
 30
0
  0
VERTEX
  5
46
  8
0
  6
CONTINUOUS
 62
    7
 10
-22.36983869461757
 20
-40.07189746415153
 30
0
  0
VERTEX
  5
47
  8
0
  6
CONTINUOUS
 62
    7
 10
-22.33786490816311
 20
-40.06642962858871
 30
0
  0
VERTEX
  5
48
  8
0
  6
CONTINUOUS
 62
    7
 10
-22.30595432473246
 20
-40.06059906722619
 30
0
  0
VERTEX
  5
49
  8
0
  6
CONTINUOUS
 62
    7
 10
-22.27411095800798
 20
-40.05440823655261
 30
0
  0
VERTEX
  5
4A
  8
0
  6
CONTINUOUS
 62
    7
 10
-22.24233882125745
 20
-40.04785965412935
 30
0
  0
VERTEX
  5
4B
  8
0
  6
CONTINUOUS
 62
    7
 10
-22.21064192774867
 20
-40.0409558375178
 30
0
  0
VERTEX
  5
4C
  8
0
  6
CONTINUOUS
 62
    7
 10
-22.17902427809268
 20
-40.03369925961105
 30
0
  0
VERTEX
  5
4D
  8
0
  6
CONTINUOUS
 62
    7
 10
-22.14748966310857
 20
-40.02609165290294
 30
0
  0
VERTEX
  5
4E
  8
0
  6
CONTINUOUS
 62
    7
 10
-22.11604170099767
 20
-40.01813414068345
 30
0
  0
VERTEX
  5
4F
  8
0
  6
CONTINUOUS
 62
    7
 10
-22.08468400482814
 20
-40.00982782812663
 30
0
  0
VERTEX
  5
50
  8
0
  6
CONTINUOUS
 62
    7
 10
-22.05342018766818
 20
-40.00117382040656
 30
0
  0
VERTEX
  5
51
  8
0
  6
CONTINUOUS
 62
    7
 10
-22.0222538642162
 20
-39.99217326221305
 30
0
  0
VERTEX
  5
52
  8
0
  6
CONTINUOUS
 62
    7
 10
-21.99118868904134
 20
-39.98282826467327
 30
0
  0
VERTEX
  5
53
  8
0
  6
CONTINUOUS
 62
    7
 10
-21.96022835794952
 20
-39.97314193846318
 30
0
  0
VERTEX
  5
54
  8
0
  6
CONTINUOUS
 62
    7
 10
-21.92937656865018
 20
-39.9631174403992
 30
0
  0
VERTEX
  5
55
  8
0
  6
CONTINUOUS
 62
    7
 10
-21.89863701885277
 20
-39.95275792729775
 30
0
  0
VERTEX
  5
56
  8
0
  6
CONTINUOUS
 62
    7
 10
-21.8680133857344
 20
-39.94206653756927
 30
0
  0
VERTEX
  5
57
  8
0
  6
CONTINUOUS
 62
    7
 10
-21.83750841312
 20
-39.93104557293347
 30
0
  0
VERTEX
  5
58
  8
0
  6
CONTINUOUS
 62
    7
 10
-21.80712354781865
 20
-39.91969617241789
 30
0
  0
VERTEX
  5
59
  8
0
  6
CONTINUOUS
 62
    7
 10
-21.77686014089679
 20
-39.90801938922292
 30
0
  0
VERTEX
  5
5A
  8
0
  6
CONTINUOUS
 62
    7
 10
-21.74671954342091
 20
-39.89601627654901
 30
0
  0
VERTEX
  5
5B
  8
0
  6
CONTINUOUS
 62
    7
 10
-21.71670311221157
 20
-39.88368788759102
 30
0
  0
VERTEX
  5
5C
  8
0
  6
CONTINUOUS
 62
    7
 10
-21.6868131552337
 20
-39.87103527462961
 30
0
  0
VERTEX
  5
5D
  8
0
  6
CONTINUOUS
 62
    7
 10
-21.6570539837218
 20
-39.85805948801983
 30
0
  0
VERTEX
  5
5E
  8
0
  6
CONTINUOUS
 62
    7
 10
-21.62743016245265
 20
-39.84476157787308
 30
0
  0
VERTEX
  5
5F
  8
0
  6
CONTINUOUS
 62
    7
 10
-21.59794625620303
 20
-39.83114259430073
 30
0
  0
VERTEX
  5
60
  8
0
  6
CONTINUOUS
 62
    7
 10
-21.56860682974974
 20
-39.81720358741413
 30
0
  0
VERTEX
  5
61
  8
0
  6
CONTINUOUS
 62
    7
 10
-21.53941644786958
 20
-39.80294560732469
 30
0
  0
VERTEX
  5
62
  8
0
  6
CONTINUOUS
 62
    7
 10
-21.51037967533933
 20
-39.78836970414379
 30
0
  0
VERTEX
  5
63
  8
0
  6
CONTINUOUS
 62
    7
 10
-21.48150107693578
 20
-39.77347692798276
 30
0
  0
VERTEX
  5
64
  8
0
  6
CONTINUOUS
 62
    7
 10
-21.45278521743572
 20
-39.75826832895302
 30
0
  0
VERTEX
  5
65
  8
0
  6
CONTINUOUS
 62
    7
 10
-21.42423666161596
 20
-39.74274495716591
 30
0
  0
VERTEX
  5
66
  8
0
  6
CONTINUOUS
 62
    7
 10
-21.39585997425327
 20
-39.72690786273282
 30
0
  0
VERTEX
  5
67
  8
0
  6
CONTINUOUS
 62
    7
 10
-21.36765972012444
 20
-39.71075809576514
 30
0
  0
VERTEX
  5
68
  8
0
  6
CONTINUOUS
 62
    7
 10
-21.33964046400628
 20
-39.69429670637421
 30
0
  0
VERTEX
  5
69
  8
0
  6
CONTINUOUS
 62
    7
 10
-21.31180677067557
 20
-39.67752474467144
 30
0
  0
VERTEX
  5
6A
  8
0
  6
CONTINUOUS
 62
    7
 10
-21.28416320490909
 20
-39.66044326076819
 30
0
  0
VERTEX
  5
6B
  8
0
  6
CONTINUOUS
 62
    7
 10
-21.25671433148366
 20
-39.64305330477584
 30
0
  0
VERTEX
  5
6C
  8
0
  6
CONTINUOUS
 62
    7
 10
-21.22946471517604
 20
-39.62535592680575
 30
0
  0
VERTEX
  5
6D
  8
0
  6
CONTINUOUS
 62
    7
 10
-21.20241889883389
 20
-39.60735219812254
 30
0
  0
VERTEX
  5
6E
  8
0
  6
CONTINUOUS
 62
    7
 10
-21.17558047153433
 20
-39.58904411001471
 30
0
  0
VERTEX
  5
6F
  8
0
  6
CONTINUOUS
 62
    7
 10
-21.14895172137557
 20
-39.57043490871789
 30
0
  0
VERTEX
  5
70
  8
0
  6
CONTINUOUS
 62
    7
 10
-21.12253484298023
 20
-39.55152793063598
 30
0
  0
VERTEX
  5
71
  8
0
  6
CONTINUOUS
 62
    7
 10
-21.0963320309709
 20
-39.53232651217283
 30
0
  0
VERTEX
  5
72
  8
0
  6
CONTINUOUS
 62
    7
 10
-21.0703454799702
 20
-39.51283398973232
 30
0
  0
VERTEX
  5
73
  8
0
  6
CONTINUOUS
 62
    7
 10
-21.04457738460074
 20
-39.49305369971832
 30
0
  0
VERTEX
  5
74
  8
0
  6
CONTINUOUS
 62
    7
 10
-21.01902993948512
 20
-39.47298897853473
 30
0
  0
VERTEX
  5
75
  8
0
  6
CONTINUOUS
 62
    7
 10
-20.99370533924597
 20
-39.4526431625854
 30
0
  0
VERTEX
  5
76
  8
0
  6
CONTINUOUS
 62
    7
 10
-20.96860577850588
 20
-39.43201958827422
 30
0
  0
VERTEX
  5
77
  8
0
  6
CONTINUOUS
 62
    7
 10
-20.94373345188746
 20
-39.41112159200505
 30
0
  0
VERTEX
  5
78
  8
0
  6
CONTINUOUS
 62
    7
 10
-20.91909055401332
 20
-39.38995251018176
 30
0
  0
VERTEX
  5
79
  8
0
  6
CONTINUOUS
 62
    7
 10
-20.89467927950607
 20
-39.36851567920826
 30
0
  0
VERTEX
  5
7A
  8
0
  6
CONTINUOUS
 62
    7
 10
-20.87050182298833
 20
-39.3468144354884
 30
0
  0
VERTEX
  5
7B
  8
0
  6
CONTINUOUS
 62
    7
 10
-20.84656037908269
 20
-39.32485211542605
 30
0
  0
VERTEX
  5
7C
  8
0
  6
CONTINUOUS
 62
    7
 10
-20.82285714241177
 20
-39.30263205542509
 30
0
  0
VERTEX
  5
7D
  8
0
  6
CONTINUOUS
 62
    7
 10
-20.79939430759818
 20
-39.28015759188939
 30
0
  0
VERTEX
  5
7E
  8
0
  6
CONTINUOUS
 62
    7
 10
-20.77617406926452
 20
-39.25743206122284
 30
0
  0
VERTEX
  5
7F
  8
0
  6
CONTINUOUS
 62
    7
 10
-20.75319864951802
 20
-39.23445877355485
 30
0
  0
VERTEX
  5
80
  8
0
  6
CONTINUOUS
 62
    7
 10
-20.73047083271366
 20
-39.21124050152306
 30
0
  0
VERTEX
  5
81
  8
0
  6
CONTINUOUS
 62
    7
 10
-20.70799392916257
 20
-39.18777951496698
 30
0
  0
VERTEX
  5
82
  8
0
  6
CONTINUOUS
 62
    7
 10
-20.68577126939213
 20
-39.16407806440006
 30
0
  0
VERTEX
  5
83
  8
0
  6
CONTINUOUS
 62
    7
 10
-20.66380618392964
 20
-39.14013840033572
 30
0
  0
VERTEX
  5
84
  8
0
  6
CONTINUOUS
 62
    7
 10
-20.64210200330247
 20
-39.11596277328746
 30
0
  0
VERTEX
  5
85
  8
0
  6
CONTINUOUS
 62
    7
 10
-20.62066205803794
 20
-39.09155343376868
 30
0
  0
VERTEX
  5
86
  8
0
  6
CONTINUOUS
 62
    7
 10
-20.59948967866339
 20
-39.06691263229284
 30
0
  0
VERTEX
  5
87
  8
0
  6
CONTINUOUS
 62
    7
 10
-20.57858819570617
 20
-39.04204261937343
 30
0
  0
VERTEX
  5
88
  8
0
  6
CONTINUOUS
 62
    7
 10
-20.55796093969361
 20
-39.01694564552385
 30
0
  0
VERTEX
  5
89
  8
0
  6
CONTINUOUS
 62
    7
 10
-20.53761124115304
 20
-38.99162396125757
 30
0
  0
VERTEX
  5
8A
  8
0
  6
CONTINUOUS
 62
    7
 10
-20.51754243061182
 20
-38.96607981708803
 30
0
  0
VERTEX
  5
8B
  8
0
  6
CONTINUOUS
 62
    7
 10
-20.49775783859727
 20
-38.94031546352869
 30
0
  0
VERTEX
  5
8C
  8
0
  6
CONTINUOUS
 62
    7
 10
-20.47826079563673
 20
-38.91433315109299
 30
0
  0
VERTEX
  5
8D
  8
0
  6
CONTINUOUS
 62
    7
 10
-20.45905463225754
 20
-38.88813513029439
 30
0
  0
VERTEX
  5
8E
  8
0
  6
CONTINUOUS
 62
    7
 10
-20.44014267898705
 20
-38.86172365164632
 30
0
  0
VERTEX
  5
8F
  8
0
  6
CONTINUOUS
 62
    7
 10
-20.42152826635259
 20
-38.83510096566225
 30
0
  0
VERTEX
  5
90
  8
0
  6
CONTINUOUS
 62
    7
 10
-20.40321472488149
 20
-38.8082693228556
 30
0
  0
VERTEX
  5
91
  8
0
  6
CONTINUOUS
 62
    7
 10
-20.38520526291442
 20
-38.78123108870516
 30
0
  0
VERTEX
  5
92
  8
0
  6
CONTINUOUS
 62
    7
 10
-20.36750180368758
 20
-38.7539898378428
 30
0
  0
VERTEX
  5
93
  8
0
  6
CONTINUOUS
 62
    7
 10
-20.35010550137273
 20
-38.7265498685122
 30
0
  0
VERTEX
  5
94
  8
0
  6
CONTINUOUS
 62
    7
 10
-20.33301749976998
 20
-38.69891548871574
 30
0
  0
VERTEX
  5
95
  8
0
  6
CONTINUOUS
 62
    7
 10
-20.31623894267938
 20
-38.67109100645582
 30
0
  0
VERTEX
  5
96
  8
0
  6
CONTINUOUS
 62
    7
 10
-20.29977097390102
 20
-38.64308072973479
 30
0
  0
VERTEX
  5
97
  8
0
  6
CONTINUOUS
 62
    7
 10
-20.28361473723499
 20
-38.61488896655504
 30
0
  0
VERTEX
  5
98
  8
0
  6
CONTINUOUS
 62
    7
 10
-20.26777137648137
 20
-38.58652002491895
 30
0
  0
VERTEX
  5
99
  8
0
  6
CONTINUOUS
 62
    7
 10
-20.25224203544024
 20
-38.55797821282891
 30
0
  0
VERTEX
  5
9A
  8
0
  6
CONTINUOUS
 62
    7
 10
-20.23702785791168
 20
-38.52926783828729
 30
0
  0
VERTEX
  5
9B
  8
0
  6
CONTINUOUS
 62
    7
 10
-20.22212998769576
 20
-38.50039320929647
 30
0
  0
VERTEX
  5
9C
  8
0
  6
CONTINUOUS
 62
    7
 10
-20.20754956859259
 20
-38.47135863385883
 30
0
  0
VERTEX
  5
9D
  8
0
  6
CONTINUOUS
 62
    7
 10
-20.19328774440223
 20
-38.44216841997675
 30
0
  0
VERTEX
  5
9E
  8
0
  6
CONTINUOUS
 62
    7
 10
-20.17934565892476
 20
-38.4128268756526
 30
0
  0
VERTEX
  5
9F
  8
0
  6
CONTINUOUS
 62
    7
 10
-20.16572445596027
 20
-38.38333830888878
 30
0
  0
VERTEX
  5
A0
  8
0
  6
CONTINUOUS
 62
    7
 10
-20.15242527930883
 20
-38.35370702768765
 30
0
  0
VERTEX
  5
A1
  8
0
  6
CONTINUOUS
 62
    7
 10
-20.13944927277054
 20
-38.32393734005161
 30
0
  0
VERTEX
  5
A2
  8
0
  6
CONTINUOUS
 62
    7
 10
-20.12679758014547
 20
-38.29403355398301
 30
0
  0
VERTEX
  5
A3
  8
0
  6
CONTINUOUS
 62
    7
 10
-20.11447152287218
 20
-38.26399979901931
 30
0
  0
VERTEX
  5
A4
  8
0
  6
CONTINUOUS
 62
    7
 10
-20.10247355593941
 20
-38.23383906587379
 30
0
  0
VERTEX
  5
A5
  8
0
  6
CONTINUOUS
 62
    7
 10
-20.09080657983757
 20
-38.20355389768535
 30
0
  0
VERTEX
  5
A6
  8
0
  6
CONTINUOUS
 62
    7
 10
-20.07947349611869
 20
-38.17314683652632
 30
0
  0
VERTEX
  5
A7
  8
0
  6
CONTINUOUS
 62
    7
 10
-20.06847720633479
 20
-38.14262042446906
 30
0
  0
VERTEX
  5
A8
  8
0
  6
CONTINUOUS
 62
    7
 10
-20.0578206120379
 20
-38.11197720358591
 30
0
  0
VERTEX
  5
A9
  8
0
  6
CONTINUOUS
 62
    7
 10
-20.04750661478002
 20
-38.08121971594922
 30
0
  0
VERTEX
  5
AA
  8
0
  6
CONTINUOUS
 62
    7
 10
-20.0375381161132
 20
-38.05035050363132
 30
0
  0
VERTEX
  5
AB
  8
0
  6
CONTINUOUS
 62
    7
 10
-20.02791801758945
 20
-38.01937210870457
 30
0
  0
VERTEX
  5
AC
  8
0
  6
CONTINUOUS
 62
    7
 10
-20.01864827648825
 20
-37.98828731727102
 30
0
  0
VERTEX
  5
AD
  8
0
  6
CONTINUOUS
 62
    7
 10
-20.00972635175279
 20
-37.95710007794413
 30
0
  0
VERTEX
  5
AE
  8
0
  6
CONTINUOUS
 62
    7
 10
-20.00114836427312
 20
-37.92581468513237
 30
0
  0
VERTEX
  5
AF
  8
0
  6
CONTINUOUS
 62
    7
 10
-19.99291043471723
 20
-37.89443543330157
 30
0
  0
VERTEX
  5
B0
  8
0
  6
CONTINUOUS
 62
    7
 10
-19.98500868375308
 20
-37.86296661691761
 30
0
  0
VERTEX
  5
B1
  8
0
  6
CONTINUOUS
 62
    7
 10
-19.97743923204865
 20
-37.8314125304463
 30
0
  0
VERTEX
  5
B2
  8
0
  6
CONTINUOUS
 62
    7
 10
-19.97019820027192
 20
-37.79977746835352
 30
0
  0
VERTEX
  5
B3
  8
0
  6
CONTINUOUS
 62
    7
 10
-19.96328170909086
 20
-37.76806572510511
 30
0
  0
VERTEX
  5
B4
  8
0
  6
CONTINUOUS
 62
    7
 10
-19.95668587917345
 20
-37.7362815951669
 30
0
  0
VERTEX
  5
B5
  8
0
  6
CONTINUOUS
 62
    7
 10
-19.95040988154952
 20
-37.70442925651727
 30
0
  0
VERTEX
  5
B6
  8
0
  6
CONTINUOUS
 62
    7
 10
-19.94446561514369
 20
-37.67251240108065
 30
0
  0
VERTEX
  5
B7
  8
0
  6
CONTINUOUS
 62
    7
 10
-19.93886829809531
 20
-37.64053459402696
 30
0
  0
VERTEX
  5
B8
  8
0
  6
CONTINUOUS
 62
    7
 10
-19.93363314855265
 20
-37.60849940052584
 30
0
  0
VERTEX
  5
B9
  8
0
  6
CONTINUOUS
 62
    7
 10
-19.92877538466394
 20
-37.5764103857469
 30
0
  0
VERTEX
  5
BA
  8
0
  6
CONTINUOUS
 62
    7
 10
-19.92431022457743
 20
-37.54427111485975
 30
0
  0
VERTEX
  5
BB
  8
0
  6
CONTINUOUS
 62
    7
 10
-19.92025288644136
 20
-37.51208515303401
 30
0
  0
VERTEX
  5
BC
  8
0
  6
CONTINUOUS
 62
    7
 10
-19.91661858840398
 20
-37.47985606543929
 30
0
  0
VERTEX
  5
BD
  8
0
  6
CONTINUOUS
 62
    7
 10
-19.91342254861356
 20
-37.4475874172452
 30
0
  0
VERTEX
  5
BE
  8
0
  6
CONTINUOUS
 62
    7
 10
-19.91066965660453
 20
-37.41528284200016
 30
0
  0
VERTEX
  5
BF
  8
0
  6
CONTINUOUS
 62
    7
 10
-19.90832099537883
 20
-37.38294626326606
 30
0
  0
VERTEX
  5
C0
  8
0
  6
CONTINUOUS
 62
    7
 10
-19.90632603615987
 20
-37.35058168147857
 30
0
  0
VERTEX
  5
C1
  8
0
  6
CONTINUOUS
 62
    7
 10
-19.90463425008952
 20
-37.31819309707387
 30
0
  0
VERTEX
  5
C2
  8
0
  6
CONTINUOUS
 62
    7
 10
-19.9031951083097
 20
-37.28578451048818
 30
0
  0
VERTEX
  5
C3
  8
0
  6
CONTINUOUS
 62
    7
 10
-19.90195808196227
 20
-37.25335992215769
 30
0
  0
VERTEX
  5
C4
  8
0
  6
CONTINUOUS
 62
    7
 10
-19.90087264218916
 20
-37.22092333251861
 30
0
  0
VERTEX
  5
C5
  8
0
  6
CONTINUOUS
 62
    7
 10
-19.89988826013225
 20
-37.18847874200712
 30
0
  0
VERTEX
  5
C6
  8
0
  6
CONTINUOUS
 62
    7
 10
-19.89895440693344
 20
-37.15603015105943
 30
0
  0
SEQEND
  5
C7
  8
0
  6
CONTINUOUS
 62
    7
  0
POLYLINE
  5
C8
  8
0
  6
CONTINUOUS
 62
    7
 66
    1
 10
0
 20
0
 30
0
 70
    0
  0
VERTEX
  5
C9
  8
0
  6
CONTINUOUS
 62
    7
 10
-37.6248905443742
 20
76.69604362178296
 30
0
  0
VERTEX
  5
CA
  8
0
  6
CONTINUOUS
 62
    7
 10
-37.62538374308001
 20
76.72656789476565
 30
0
  0
VERTEX
  5
CB
  8
0
  6
CONTINUOUS
 62
    7
 10
-37.62595817013667
 20
76.75708864486288
 30
0
  0
VERTEX
  5
CC
  8
0
  6
CONTINUOUS
 62
    7
 10
-37.62669505389506
 20
76.78760234918917
 30
0
  0
VERTEX
  5
CD
  8
0
  6
CONTINUOUS
 62
    7
 10
-37.62767562270599
 20
76.8181054848591
 30
0
  0
VERTEX
  5
CE
  8
0
  6
CONTINUOUS
 62
    7
 10
-37.62898110492036
 20
76.84859452898721
 30
0
  0
VERTEX
  5
CF
  8
0
  6
CONTINUOUS
 62
    7
 10
-37.63068229534844
 20
76.879065931223
 30
0
  0
VERTEX
  5
D0
  8
0
  6
CONTINUOUS
 62
    7
 10
-37.63278419430374
 20
76.90951596801983
 30
0
  0
VERTEX
  5
D1
  8
0
  6
CONTINUOUS
 62
    7
 10
-37.63526622354691
 20
76.93994084849865
 30
0
  0
VERTEX
  5
D2
  8
0
  6
CONTINUOUS
 62
    7
 10
-37.6381077477694
 20
76.97033678163019
 30
0
  0
VERTEX
  5
D3
  8
0
  6
CONTINUOUS
 62
    7
 10
-37.64128813166268
 20
77.00069997638512
 30
0
  0
VERTEX
  5
D4
  8
0
  6
CONTINUOUS
 62
    7
 10
-37.64478853486854
 20
77.03102663892383
 30
0
  0
VERTEX
  5
D5
  8
0
  6
CONTINUOUS
 62
    7
 10
-37.64860625648816
 20
77.06131295013752
 30
0
  0
VERTEX
  5
D6
  8
0
  6
CONTINUOUS
 62
    7
 10
-37.65274712997462
 20
77.09155507755538
 30
0
  0
VERTEX
  5
D7
  8
0
  6
CONTINUOUS
 62
    7
 10
-37.65721706628675
 20
77.12174918858528
 30
0
  0
VERTEX
  5
D8
  8
0
  6
CONTINUOUS
 62
    7
 10
-37.66202197638334
 20
77.15189145063502
 30
0
  0
VERTEX
  5
D9
  8
0
  6
CONTINUOUS
 62
    7
 10
-37.66716738476555
 20
77.18197803374851
 30
0
  0
VERTEX
  5
DA
  8
0
  6
CONTINUOUS
 62
    7
 10
-37.67265411368273
 20
77.21200514004425
 30
0
  0
VERTEX
  5
DB
  8
0
  6
CONTINUOUS
 62
    7
 10
-37.67847984904608
 20
77.24196899303411
 30
0
  0
VERTEX
  5
DC
  8
0
  6
CONTINUOUS
 62
    7
 10
-37.68464221968405
 20
77.27186581661923
 30
0
  0
VERTEX
  5
DD
  8
0
  6
CONTINUOUS
 62
    7
 10
-37.6911388544251
 20
77.30169183470086
 30
0
  0
VERTEX
  5
DE
  8
0
  6
CONTINUOUS
 62
    7
 10
-37.69796742439738
 20
77.33144328316125
 30
0
  0
VERTEX
  5
DF
  8
0
  6
CONTINUOUS
 62
    7
 10
-37.70512629908209
 20
77.36111659568611
 30
0
  0
VERTEX
  5
E0
  8
0
  6
CONTINUOUS
 62
    7
 10
-37.71261442111187
 20
77.39070836830213
 30
0
  0
VERTEX
  5
E1
  8
0
  6
CONTINUOUS
 62
    7
 10
-37.72043075007191
 20
77.42021520183762
 30
0
  0
VERTEX
  5
E2
  8
0
  6
CONTINUOUS
 62
    7
 10
-37.72857424554744
 20
77.44963369712097
 30
0
  0
VERTEX
  5
E3
  8
0
  6
CONTINUOUS
 62
    7
 10
-37.73704382959379
 20
77.47896045343425
 30
0
  0
VERTEX
  5
E4
  8
0
  6
CONTINUOUS
 62
    7
 10
-37.74583751123895
 20
77.50819203244109
 30
0
  0
VERTEX
  5
E5
  8
0
  6
CONTINUOUS
 62
    7
 10
-37.75495235790523
 20
77.53732495700919
 30
0
  0
VERTEX
  5
E6
  8
0
  6
CONTINUOUS
 62
    7
 10
-37.76438539376769
 20
77.5663557482244
 30
0
  0
VERTEX
  5
E7
  8
0
  6
CONTINUOUS
 62
    7
 10
-37.77413364300138
 20
77.59528092717258
 30
0
  0
VERTEX
  5
E8
  8
0
  6
CONTINUOUS
 62
    7
 10
-37.78419414743395
 20
77.62409703445506
 30
0
  0
VERTEX
  5
E9
  8
0
  6
CONTINUOUS
 62
    7
 10
-37.79456474532566
 20
77.65280149115404
 30
0
  0
VERTEX
  5
EA
  8
0
  6
CONTINUOUS
 62
    7
 10
-37.80524437821399
 20
77.68139293805874
 30
0
  0
VERTEX
  5
EB
  8
0
  6
CONTINUOUS
 62
    7
 10
-37.81623206870844
 20
77.70987010558609
 30
0
  0
VERTEX
  5
EC
  8
0
  6
CONTINUOUS
 62
    7
 10
-37.82752683941852
 20
77.73823172415291
 30
0
  0
VERTEX
  5
ED
  8
0
  6
CONTINUOUS
 62
    7
 10
-37.83912771293419
 20
77.76647651865504
 30
0
  0
VERTEX
  5
EE
  8
0
  6
CONTINUOUS
 62
    7
 10
-37.85103370865606
 20
77.79460231411868
 30
0
  0
VERTEX
  5
EF
  8
0
  6
CONTINUOUS
 62
    7
 10
-37.86324383929056
 20
77.82260504680346
 30
0
  0
VERTEX
  5
F0
  8
0
  6
CONTINUOUS
 62
    7
 10
-37.87575711670032
 20
77.85048041488204
 30
0
  0
VERTEX
  5
F1
  8
0
  6
CONTINUOUS
 62
    7
 10
-37.88857255274795
 20
77.87822411652691
 30
0
  0
VERTEX
  5
F2
  8
0
  6
CONTINUOUS
 62
    7
 10
-37.90168915929607
 20
77.90583184991067
 30
0
  0
VERTEX
  5
F3
  8
0
  6
CONTINUOUS
 62
    7
 10
-37.91510594820727
 20
77.93329931320584
 30
0
  0
VERTEX
  5
F4
  8
0
  6
CONTINUOUS
 62
    7
 10
-37.92882193134417
 20
77.96062220458499
 30
0
  0
VERTEX
  5
F5
  8
0
  6
CONTINUOUS
 62
    7
 10
-37.94283612056939
 20
77.98779622222067
 30
0
  0
VERTEX
  5
F6
  8
0
  6
CONTINUOUS
 62
    7
 10
-37.95714752774553
 20
78.01481706428548
 30
0
  0
VERTEX
  5
F7
  8
0
  6
CONTINUOUS
 62
    7
 10
-37.97175516473522
 20
78.04168042895191
 30
0
  0
VERTEX
  5
F8
  8
0
  6
CONTINUOUS
 62
    7
 10
-37.98665804340104
 20
78.06838201439254
 30
0
  0
VERTEX
  5
F9
  8
0
  6
CONTINUOUS
 62
    7
 10
-38.00185517560564
 20
78.09491751877994
 30
0
  0
VERTEX
  5
FA
  8
0
  6
CONTINUOUS
 62
    7
 10
-38.0173455732116
 20
78.12128264028665
 30
0
  0
VERTEX
  5
FB
  8
0
  6
CONTINUOUS
 62
    7
 10
-38.03312824808155
 20
78.14747307708525
 30
0
  0
VERTEX
  5
FC
  8
0
  6
CONTINUOUS
 62
    7
 10
-38.0492022120781
 20
78.17348452734828
 30
0
  0
VERTEX
  5
FD
  8
0
  6
CONTINUOUS
 62
    7
 10
-38.06556647706385
 20
78.19931268924827
 30
0
  0
VERTEX
  5
FE
  8
0
  6
CONTINUOUS
 62
    7
 10
-38.08222005490142
 20
78.22495326095783
 30
0
  0
VERTEX
  5
FF
  8
0
  6
CONTINUOUS
 62
    7
 10
-38.09916193708672
 20
78.25040196195792
 30
0
  0
VERTEX
  5
100
  8
0
  6
CONTINUOUS
 62
    7
 10
-38.11639024230167
 20
78.27565542490055
 30
0
  0
VERTEX
  5
101
  8
0
  6
CONTINUOUS
 62
    7
 10
-38.13390190615403
 20
78.30071152021476
 30
0
  0
VERTEX
  5
102
  8
0
  6
CONTINUOUS
 62
    7
 10
-38.15169378002778
 20
78.32556820644774
 30
0
  0
VERTEX
  5
103
  8
0
  6
CONTINUOUS
 62
    7
 10
-38.16976271530691
 20
78.35022344214666
 30
0
  0
VERTEX
  5
104
  8
0
  6
CONTINUOUS
 62
    7
 10
-38.18810556337539
 20
78.37467518585865
 30
0
  0
VERTEX
  5
105
  8
0
  6
CONTINUOUS
 62
    7
 10
-38.20671917561719
 20
78.39892139613089
 30
0
  0
VERTEX
  5
106
  8
0
  6
CONTINUOUS
 62
    7
 10
-38.22560040341629
 20
78.42296003151054
 30
0
  0
VERTEX
  5
107
  8
0
  6
CONTINUOUS
 62
    7
 10
-38.24474609815668
 20
78.44678905054477
 30
0
  0
VERTEX
  5
108
  8
0
  6
CONTINUOUS
 62
    7
 10
-38.26415311122233
 20
78.47040641178069
 30
0
  0
VERTEX
  5
109
  8
0
  6
CONTINUOUS
 62
    7
 10
-38.28381829399723
 20
78.4938100737655
 30
0
  0
VERTEX
  5
10A
  8
0
  6
CONTINUOUS
 62
    7
 10
-38.30373849786537
 20
78.51699799504641
 30
0
  0
VERTEX
  5
10B
  8
0
  6
CONTINUOUS
 62
    7
 10
-38.3239105742107
 20
78.53996813417051
 30
0
  0
VERTEX
  5
10C
  8
0
  6
CONTINUOUS
 62
    7
 10
-38.34433137441721
 20
78.56271844968498
 30
0
  0
VERTEX
  5
10D
  8
0
  6
CONTINUOUS
 62
    7
 10
-38.36499774986887
 20
78.58524690013698
 30
0
  0
VERTEX
  5
10E
  8
0
  6
CONTINUOUS
 62
    7
 10
-38.38590655194968
 20
78.60755144407368
 30
0
  0
VERTEX
  5
10F
  8
0
  6
CONTINUOUS
 62
    7
 10
-38.40705463204361
 20
78.62963004004223
 30
0
  0
VERTEX
  5
110
  8
0
  6
CONTINUOUS
 62
    7
 10
-38.42843884153465
 20
78.65148064658982
 30
0
  0
VERTEX
  5
111
  8
0
  6
CONTINUOUS
 62
    7
 10
-38.45005605797652
 20
78.67310119325526
 30
0
  0
VERTEX
  5
112
  8
0
  6
CONTINUOUS
 62
    7
 10
-38.47190368842709
 20
78.69448902263983
 30
0
  0
VERTEX
  5
113
  8
0
  6
CONTINUOUS
 62
    7
 10
-38.49397963209955
 20
78.71564093180709
 30
0
  0
VERTEX
  5
114
  8
0
  6
CONTINUOUS
 62
    7
 10
-38.51628180689457
 20
78.73655369710613
 30
0
  0
VERTEX
  5
115
  8
0
  6
CONTINUOUS
 62
    7
 10
-38.53880813071284
 20
78.75722409488604
 30
0
  0
VERTEX
  5
116
  8
0
  6
CONTINUOUS
 62
    7
 10
-38.56155652145502
 20
78.77764890149592
 30
0
  0
VERTEX
  5
117
  8
0
  6
CONTINUOUS
 62
    7
 10
-38.58452489702181
 20
78.79782489328487
 30
0
  0
VERTEX
  5
118
  8
0
  6
CONTINUOUS
 62
    7
 10
-38.60771117531387
 20
78.81774884660194
 30
0
  0
VERTEX
  5
119
  8
0
  6
CONTINUOUS
 62
    7
 10
-38.63111327423188
 20
78.83741753779623
 30
0
  0
VERTEX
  5
11A
  8
0
  6
CONTINUOUS
 62
    7
 10
-38.65472911167652
 20
78.85682774321687
 30
0
  0
VERTEX
  5
11B
  8
0
  6
CONTINUOUS
 62
    7
 10
-38.67855660554849
 20
78.87597623921295
 30
0
  0
VERTEX
  5
11C
  8
0
  6
CONTINUOUS
 62
    7
 10
-38.70259367374843
 20
78.89485980213354
 30
0
  0
VERTEX
  5
11D
  8
0
  6
CONTINUOUS
 62
    7
 10
-38.72683823417704
 20
78.91347520832772
 30
0
  0
VERTEX
  5
11E
  8
0
  6
CONTINUOUS
 62
    7
 10
-38.751288204735
 20
78.93181923414461
 30
0
  0
VERTEX
  5
11F
  8
0
  6
CONTINUOUS
 62
    7
 10
-38.77594150332298
 20
78.94988865593329
 30
0
  0
VERTEX
  5
120
  8
0
  6
CONTINUOUS
 62
    7
 10
-38.80079604784166
 20
78.96768025004287
 30
0
  0
VERTEX
  5
121
  8
0
  6
CONTINUOUS
 62
    7
 10
-38.82584975619173
 20
78.98519079282241
 30
0
  0
VERTEX
  5
122
  8
0
  6
CONTINUOUS
 62
    7
 10
-38.85110054627386
 20
79.00241706062103
 30
0
  0
VERTEX
  5
123
  8
0
  6
CONTINUOUS
 62
    7
 10
-38.87654621650894
 20
79.01935597057947
 30
0
  0
VERTEX
  5
124
  8
0
  6
CONTINUOUS
 62
    7
 10
-38.90218332448261
 20
79.03600590200452
 30
0
  0
VERTEX
  5
125
  8
0
  6
CONTINUOUS
 62
    7
 10
-38.92800769238588
 20
79.05236610077161
 30
0
  0
VERTEX
  5
126
  8
0
  6
CONTINUOUS
 62
    7
 10
-38.9540151327735
 20
79.0684358241113
 30
0
  0
VERTEX
  5
127
  8
0
  6
CONTINUOUS
 62
    7
 10
-38.98020145820026
 20
79.0842143292541
 30
0
  0
VERTEX
  5
128
  8
0
  6
CONTINUOUS
 62
    7
 10
-39.00656248122091
 20
79.09970087343058
 30
0
  0
VERTEX
  5
129
  8
0
  6
CONTINUOUS
 62
    7
 10
-39.03309401439026
 20
79.11489471387125
 30
0
  0
VERTEX
  5
12A
  8
0
  6
CONTINUOUS
 62
    7
 10
-39.05979187026305
 20
79.12979510780666
 30
0
  0
VERTEX
  5
12B
  8
0
  6
CONTINUOUS
 62
    7
 10
-39.08665186139406
 20
79.14440131246731
 30
0
  0
VERTEX
  5
12C
  8
0
  6
CONTINUOUS
 62
    7
 10
-39.11366980033808
 20
79.15871258508379
 30
0
  0
VERTEX
  5
12D
  8
0
  6
CONTINUOUS
 62
    7
 10
-39.14084149964986
 20
79.1727281828866
 30
0
  0
VERTEX
  5
12E
  8
0
  6
CONTINUOUS
 62
    7
 10
-39.16816277188418
 20
79.18644736310627
 30
0
  0
VERTEX
  5
12F
  8
0
  6
CONTINUOUS
 62
    7
 10
-39.19562942959581
 20
79.19986938297333
 30
0
  0
VERTEX
  5
130
  8
0
  6
CONTINUOUS
 62
    7
 10
-39.22323728533954
 20
79.21299349971835
 30
0
  0
VERTEX
  5
131
  8
0
  6
CONTINUOUS
 62
    7
 10
-39.25098215167012
 20
79.22581897057184
 30
0
  0
VERTEX
  5
132
  8
0
  6
CONTINUOUS
 62
    7
 10
-39.27885984114233
 20
79.23834505276433
 30
0
  0
VERTEX
  5
133
  8
0
  6
CONTINUOUS
 62
    7
 10
-39.30686616631093
 20
79.25057100352636
 30
0
  0
VERTEX
  5
134
  8
0
  6
CONTINUOUS
 62
    7
 10
-39.33499693973073
 20
79.26249608008848
 30
0
  0
VERTEX
  5
135
  8
0
  6
CONTINUOUS
 62
    7
 10
-39.36324818385693
 20
79.27411931152579
 30
0
  0
VERTEX
  5
136
  8
0
  6
CONTINUOUS
 62
    7
 10
-39.39161724527001
 20
79.28543828762953
 30
0
  0
VERTEX
  5
137
  8
0
  6
CONTINUOUS
 62
    7
 10
-39.4201019854951
 20
79.29645003846177
 30
0
  0
VERTEX
  5
138
  8
0
  6
CONTINUOUS
 62
    7
 10
-39.44870026720864
 20
79.30715159283322
 30
0
  0
VERTEX
  5
139
  8
0
  6
CONTINUOUS
 62
    7
 10
-39.47740995308702
 20
79.3175399795545
 30
0
  0
VERTEX
  5
13A
  8
0
  6
CONTINUOUS
 62
    7
 10
-39.50622890580662
 20
79.32761222743629
 30
0
  0
VERTEX
  5
13B
  8
0
  6
CONTINUOUS
 62
    7
 10
-39.53515498804387
 20
79.33736536528927
 30
0
  0
VERTEX
  5
13C
  8
0
  6
CONTINUOUS
 62
    7
 10
-39.56418606247517
 20
79.34679642192415
 30
0
  0
VERTEX
  5
13D
  8
0
  6
CONTINUOUS
 62
    7
 10
-39.59331999177692
 20
79.35590242615156
 30
0
  0
VERTEX
  5
13E
  8
0
  6
CONTINUOUS
 62
    7
 10
-39.62255447277288
 20
79.36468087766831
 30
0
  0
VERTEX
  5
13F
  8
0
  6
CONTINUOUS
 62
    7
 10
-39.65188614674947
 20
79.37313227303618
 30
0
  0
VERTEX
  5
140
  8
0
  6
CONTINUOUS
 62
    7
 10
-39.68131124115907
 20
79.38125828376781
 30
0
  0
VERTEX
  5
141
  8
0
  6
CONTINUOUS
 62
    7
 10
-39.71082598248217
 20
79.38906058413517
 30
0
  0
VERTEX
  5
142
  8
0
  6
CONTINUOUS
 62
    7
 10
-39.74042659719931
 20
79.39654084841025
 30
0
  0
VERTEX
  5
143
  8
0
  6
CONTINUOUS
 62
    7
 10
-39.77010931179101
 20
79.40370075086506
 30
0
  0
VERTEX
  5
144
  8
0
  6
CONTINUOUS
 62
    7
 10
-39.79987035273776
 20
79.41054196577151
 30
0
  0
VERTEX
  5
145
  8
0
  6
CONTINUOUS
 62
    7
 10
-39.82970594652012
 20
79.41706616740166
 30
0
  0
VERTEX
  5
146
  8
0
  6
CONTINUOUS
 62
    7
 10
-39.85961231961856
 20
79.42327503002743
 30
0
  0
VERTEX
  5
147
  8
0
  6
CONTINUOUS
 62
    7
 10
-39.88958568928707
 20
79.42916835879926
 30
0
  0
VERTEX
  5
148
  8
0
  6
CONTINUOUS
 62
    7
 10
-39.91962222722215
 20
79.4347367298144
 30
0
  0
VERTEX
  5
149
  8
0
  6
CONTINUOUS
 62
    7
 10
-39.94971809108394
 20
79.43996787567205
 30
0
  0
VERTEX
  5
14A
  8
0
  6
CONTINUOUS
 62
    7
 10
-39.97986943852865
 20
79.4448495281744
 30
0
  0
VERTEX
  5
14B
  8
0
  6
CONTINUOUS
 62
    7
 10
-40.01007242721248
 20
79.44936941912363
 30
0
  0
VERTEX
  5
14C
  8
0
  6
CONTINUOUS
 62
    7
 10
-40.04032321479162
 20
79.45351528032188
 30
0
  0
VERTEX
  5
14D
  8
0
  6
CONTINUOUS
 62
    7
 10
-40.07061795892229
 20
79.45727484357135
 30
0
  0
VERTEX
  5
14E
  8
0
  6
CONTINUOUS
 62
    7
 10
-40.10095281726068
 20
79.46063584067421
 30
0
  0
VERTEX
  5
14F
  8
0
  6
CONTINUOUS
 62
    7
 10
-40.13132394746304
 20
79.46358600344328
 30
0
  0
VERTEX
  5
150
  8
0
  6
CONTINUOUS
 62
    7
 10
-40.16172754822054
 20
79.46612323894026
 30
0
  0
VERTEX
  5
151
  8
0
  6
CONTINUOUS
 62
    7
 10
-40.19215997739393
 20
79.46828492280501
 30
0
  0
VERTEX
  5
152
  8
0
  6
CONTINUOUS
 62
    7
 10
-40.22261763143121
 20
79.47011799899155
 30
0
  0
VERTEX
  5
153
  8
0
  6
CONTINUOUS
 62
    7
 10
-40.25309690678042
 20
79.47166941145396
 30
0
  0
VERTEX
  5
154
  8
0
  6
CONTINUOUS
 62
    7
 10
-40.28359419988956
 20
79.47298610414619
 30
0
  0
VERTEX
  5
155
  8
0
  6
CONTINUOUS
 62
    7
 10
-40.31410590720663
 20
79.47411502102233
 30
0
  0
VERTEX
  5
156
  8
0
  6
CONTINUOUS
 62
    7
 10
-40.34462842517966
 20
79.47510310603637
 30
0
  0
VERTEX
  5
157
  8
0
  6
CONTINUOUS
 62
    7
 10
-40.37515815025667
 20
79.47599730314238
 30
0
  0
VERTEX
  5
158
  8
0
  6
CONTINUOUS
 62
    7
 10
-40.40569147888568
 20
79.47684455629435
 30
0
  0
SEQEND
  5
159
  8
0
  6
CONTINUOUS
 62
    7
  0
POLYLINE
  5
15A
  8
0
  6
CONTINUOUS
 62
    7
 66
    1
 10
0
 20
0
 30
0
 70
    0
  0
VERTEX
  5
15B
  8
0
  6
CONTINUOUS
 62
    7
 10
-19.89895440693432
 20
45.14727020669233
 30
0
  0
VERTEX
  5
15C
  8
0
  6
CONTINUOUS
 62
    7
 10
-19.89947852096777
 20
45.17970908374637
 30
0
  0
VERTEX
  5
15D
  8
0
  6
CONTINUOUS
 62
    7
 10
-19.90008894670471
 20
45.21214421755228
 30
0
  0
VERTEX
  5
15E
  8
0
  6
CONTINUOUS
 62
    7
 10
-19.90087199584863
 20
45.24457186486192
 30
0
  0
VERTEX
  5
15F
  8
0
  6
CONTINUOUS
 62
    7
 10
-19.90191398010302
 20
45.27698828242717
 30
0
  0
VERTEX
  5
160
  8
0
  6
CONTINUOUS
 62
    7
 10
-19.90330121117137
 20
45.30938972699991
 30
0
  0
VERTEX
  5
161
  8
0
  6
CONTINUOUS
 62
    7
 10
-19.90510892665379
 20
45.34177242614464
 30
0
  0
VERTEX
  5
162
  8
0
  6
CONTINUOUS
 62
    7
 10
-19.90734246245801
 20
45.37413242319002
 30
0
  0
VERTEX
  5
163
  8
0
  6
CONTINUOUS
 62
    7
 10
-19.90997995496724
 20
45.40646568977651
 30
0
  0
VERTEX
  5
164
  8
0
  6
CONTINUOUS
 62
    7
 10
-19.91299947954656
 20
45.43876819738373
 30
0
  0
VERTEX
  5
165
  8
0
  6
CONTINUOUS
 62
    7
 10
-19.91637911156105
 20
45.47103591749131
 30
0
  0
VERTEX
  5
166
  8
0
  6
CONTINUOUS
 62
    7
 10
-19.92009882919383
 20
45.50326481857805
 30
0
  0
VERTEX
  5
167
  8
0
  6
CONTINUOUS
 62
    7
 10
-19.92415575317342
 20
45.53545084208798
 30
0
  0
VERTEX
  5
168
  8
0
  6
CONTINUOUS
 62
    7
 10
-19.9285560832908
 20
45.56758991514702
 30
0
  0
VERTEX
  5
169
  8
0
  6
CONTINUOUS
 62
    7
 10
-19.93330610224124
 20
45.59967796475033
 30
0
  0
VERTEX
  5
16A
  8
0
  6
CONTINUOUS
 62
    7
 10
-19.93841209272004
 20
45.63171091789303
 30
0
  0
VERTEX
  5
16B
  8
0
  6
CONTINUOUS
 62
    7
 10
-19.94387992828232
 20
45.6636847043476
 30
0
  0
VERTEX
  5
16C
  8
0
  6
CONTINUOUS
 62
    7
 10
-19.94971048964433
 20
45.69559528777835
 30
0
  0
VERTEX
  5
16D
  8
0
  6
CONTINUOUS
 62
    7
 10
-19.95590132031745
 20
45.72743865450293
 30
0
  0
VERTEX
  5
16E
  8
0
  6
CONTINUOUS
 62
    7
 10
-19.9624499027403
 20
45.75921079125355
 30
0
  0
VERTEX
  5
16F
  8
0
  6
CONTINUOUS
 62
    7
 10
-19.9693537193515
 20
45.79090768476242
 30
0
  0
VERTEX
  5
170
  8
0
  6
CONTINUOUS
 62
    7
 10
-19.97661029725798
 20
45.82252533441847
 30
0
  0
VERTEX
  5
171
  8
0
  6
CONTINUOUS
 62
    7
 10
-19.9842179039659
 20
45.85405994940263
 30
0
  0
VERTEX
  5
172
  8
0
  6
CONTINUOUS
 62
    7
 10
-19.99217541618528
 20
45.88550791151356
 30
0
  0
VERTEX
  5
173
  8
0
  6
CONTINUOUS
 62
    7
 10
-20.00048172874207
 20
45.91686560768309
 30
0
  0
VERTEX
  5
174
  8
0
  6
CONTINUOUS
 62
    7
 10
-20.00913573646219
 20
45.94812942484305
 30
0
  0
VERTEX
  5
175
  8
0
  6
CONTINUOUS
 62
    7
 10
-20.01813629465584
 20
45.979295748295
 30
0
  0
VERTEX
  5
176
  8
0
  6
CONTINUOUS
 62
    7
 10
-20.02748129219588
 20
46.0103609234698
 30
0
  0
VERTEX
  5
177
  8
0
  6
CONTINUOUS
 62
    7
 10
-20.03716761840634
 20
46.04132125456151
 30
0
  0
VERTEX
  5
178
  8
0
  6
CONTINUOUS
 62
    7
 10
-20.04719211647083
 20
46.07217304386069
 30
0
  0
VERTEX
  5
179
  8
0
  6
CONTINUOUS
 62
    7
 10
-20.05755162957298
 20
46.10291259365788
 30
0
  0
VERTEX
  5
17A
  8
0
  6
CONTINUOUS
 62
    7
 10
-20.06824301930233
 20
46.13353622677595
 30
0
  0
VERTEX
  5
17B
  8
0
  6
CONTINUOUS
 62
    7
 10
-20.07926398393919
 20
46.16404119938996
 30
0
  0
VERTEX
  5
17C
  8
0
  6
CONTINUOUS
 62
    7
 10
-20.09061338445596
 20
46.19442606469089
 30
0
  0
VERTEX
  5
17D
  8
0
  6
CONTINUOUS
 62
    7
 10
-20.10229016765215
 20
46.22468947161226
 30
0
  0
VERTEX
  5
17E
  8
0
  6
CONTINUOUS
 62
    7
 10
-20.11429328032731
 20
46.25483006908764
 30
0
  0
VERTEX
  5
17F
  8
0
  6
CONTINUOUS
 62
    7
 10
-20.1266216692865
 20
46.2848465002965
 30
0
  0
VERTEX
  5
180
  8
0
  6
CONTINUOUS
 62
    7
 10
-20.13927428224901
 20
46.3147364572739
 30
0
  0
VERTEX
  5
181
  8
0
  6
CONTINUOUS
 62
    7
 10
-20.15225006885978
 20
46.34449562878535
 30
0
  0
VERTEX
  5
182
  8
0
  6
CONTINUOUS
 62
    7
 10
-20.16554797900744
 20
46.37411945005408
 30
0
  0
VERTEX
  5
183
  8
0
  6
CONTINUOUS
 62
    7
 10
-20.17916696258061
 20
46.40360335630331
 30
0
  0
VERTEX
  5
184
  8
0
  6
CONTINUOUS
 62
    7
 10
-20.19310596946791
 20
46.43294278275621
 30
0
  0
VERTEX
  5
185
  8
0
  6
CONTINUOUS
 62
    7
 10
-20.20736394955798
 20
46.46213316463604
 30
0
  0
VERTEX
  5
186
  8
0
  6
CONTINUOUS
 62
    7
 10
-20.22193985273945
 20
46.49116993716598
 30
0
  0
VERTEX
  5
187
  8
0
  6
CONTINUOUS
 62
    7
 10
-20.23683262890094
 20
46.52004853556926
 30
0
  0
VERTEX
  5
188
  8
0
  6
CONTINUOUS
 62
    7
 10
-20.25204122793107
 20
46.54876439506906
 30
0
  0
VERTEX
  5
189
  8
0
  6
CONTINUOUS
 62
    7
 10
-20.26756459971849
 20
46.57731295088863
 30
0
  0
VERTEX
  5
18A
  8
0
  6
CONTINUOUS
 62
    7
 10
-20.28340169415181
 20
46.60568963825115
 30
0
  0
VERTEX
  5
18B
  8
0
  6
CONTINUOUS
 62
    7
 10
-20.29955146111966
 20
46.63388989237985
 30
0
  0
VERTEX
  5
18C
  8
0
  6
CONTINUOUS
 62
    7
 10
-20.31601285051068
 20
46.66190914849794
 30
0
  0
VERTEX
  5
18D
  8
0
  6
CONTINUOUS
 62
    7
 10
-20.33278481221348
 20
46.6897428418286
 30
0
  0
VERTEX
  5
18E
  8
0
  6
CONTINUOUS
 62
    7
 10
-20.34986629611669
 20
46.71738640759506
 30
0
  0
VERTEX
  5
18F
  8
0
  6
CONTINUOUS
 62
    7
 10
-20.36725625210895
 20
46.74483528102056
 30
0
  0
VERTEX
  5
190
  8
0
  6
CONTINUOUS
 62
    7
 10
-20.38495363007888
 20
46.77208489732828
 30
0
  0
VERTEX
  5
191
  8
0
  6
CONTINUOUS
 62
    7
 10
-20.40295735876187
 20
46.79913071367059
 30
0
  0
VERTEX
  5
192
  8
0
  6
CONTINUOUS
 62
    7
 10
-20.42126544686944
 20
46.82596914097033
 30
0
  0
VERTEX
  5
193
  8
0
  6
CONTINUOUS
 62
    7
 10
-20.43987464816595
 20
46.85259789112932
 30
0
  0
VERTEX
  5
194
  8
0
  6
CONTINUOUS
 62
    7
 10
-20.45878162624753
 20
46.87901476952494
 30
0
  0
VERTEX
  5
195
  8
0
  6
CONTINUOUS
 62
    7
 10
-20.4779830447103
 20
46.90521758153456
 30
0
  0
VERTEX
  5
196
  8
0
  6
CONTINUOUS
 62
    7
 10
-20.4974755671504
 20
46.93120413253559
 30
0
  0
VERTEX
  5
197
  8
0
  6
CONTINUOUS
 62
    7
 10
-20.51725585716397
 20
46.9569722279054
 30
0
  0
VERTEX
  5
198
  8
0
  6
CONTINUOUS
 62
    7
 10
-20.53732057834712
 20
46.98251967302137
 30
0
  0
VERTEX
  5
199
  8
0
  6
CONTINUOUS
 62
    7
 10
-20.557666394296
 20
47.0078442732609
 30
0
  0
VERTEX
  5
19A
  8
0
  6
CONTINUOUS
 62
    7
 10
-20.57828996860674
 20
47.03294383400135
 30
0
  0
VERTEX
  5
19B
  8
0
  6
CONTINUOUS
 62
    7
 10
-20.59918796487545
 20
47.05781616062015
 30
0
  0
VERTEX
  5
19C
  8
0
  6
CONTINUOUS
 62
    7
 10
-20.62035704669829
 20
47.08245905849466
 30
0
  0
VERTEX
  5
19D
  8
0
  6
CONTINUOUS
 62
    7
 10
-20.64179387767138
 20
47.10687033300225
 30
0
  0
VERTEX
  5
19E
  8
0
  6
CONTINUOUS
 62
    7
 10
-20.66349512139083
 20
47.13104778952034
 30
0
  0
VERTEX
  5
19F
  8
0
  6
CONTINUOUS
 62
    7
 10
-20.6854574414528
 20
47.15498923342629
 30
0
  0
VERTEX
  5
1A0
  8
0
  6
CONTINUOUS
 62
    7
 10
-20.70767750145341
 20
47.17869247009749
 30
0
  0
VERTEX
  5
1A1
  8
0
  6
CONTINUOUS
 62
    7
 10
-20.7301519649888
 20
47.20215530491132
 30
0
  0
VERTEX
  5
1A2
  8
0
  6
CONTINUOUS
 62
    7
 10
-20.75287749565507
 20
47.22537554324519
 30
0
  0
VERTEX
  5
1A3
  8
0
  6
CONTINUOUS
 62
    7
 10
-20.77585078332285
 20
47.24835096299186
 30
0
  0
VERTEX
  5
1A4
  8
0
  6
CONTINUOUS
 62
    7
 10
-20.79906905535447
 20
47.27107877979635
 30
0
  0
VERTEX
  5
1A5
  8
0
  6
CONTINUOUS
 62
    7
 10
-20.82253004191043
 20
47.29355568334751
 30
0
  0
VERTEX
  5
1A6
  8
0
  6
CONTINUOUS
 62
    7
 10
-20.84623149247728
 20
47.31577834311801
 30
0
  0
VERTEX
  5
1A7
  8
0
  6
CONTINUOUS
 62
    7
 10
-20.87017115654156
 20
47.33774342858051
 30
0
  0
VERTEX
  5
1A8
  8
0
  6
CONTINUOUS
 62
    7
 10
-20.89434678358982
 20
47.35944760920766
 30
0
  0
VERTEX
  5
1A9
  8
0
  6
CONTINUOUS
 62
    7
 10
-20.91875612310862
 20
47.38088755447215
 30
0
  0
VERTEX
  5
1AA
  8
0
  6
CONTINUOUS
 62
    7
 10
-20.94339692458449
 20
47.40205993384663
 30
0
  0
VERTEX
  5
1AB
  8
0
  6
CONTINUOUS
 62
    7
 10
-20.96826693750399
 20
47.42296141680377
 30
0
  0
VERTEX
  5
1AC
  8
0
  6
CONTINUOUS
 62
    7
 10
-20.99336391135365
 20
47.44358867281625
 30
0
  0
VERTEX
  5
1AD
  8
0
  6
CONTINUOUS
 62
    7
 10
-21.01868559562003
 20
47.46393837135671
 30
0
  0
VERTEX
  5
1AE
  8
0
  6
CONTINUOUS
 62
    7
 10
-21.04422973978968
 20
47.48400718189782
 30
0
  0
VERTEX
  5
1AF
  8
0
  6
CONTINUOUS
 62
    7
 10
-21.06999409334914
 20
47.50379177391227
 30
0
  0
VERTEX
  5
1B0
  8
0
  6
CONTINUOUS
 62
    7
 10
-21.09597640578496
 20
47.5232888168727
 30
0
  0
VERTEX
  5
1B1
  8
0
  6
CONTINUOUS
 62
    7
 10
-21.12217442658368
 20
47.54249498025178
 30
0
  0
VERTEX
  5
1B2
  8
0
  6
CONTINUOUS
 62
    7
 10
-21.14858590523185
 20
47.56140693352219
 30
0
  0
VERTEX
  5
1B3
  8
0
  6
CONTINUOUS
 62
    7
 10
-21.17520859121602
 20
47.58002134615657
 30
0
  0
VERTEX
  5
1B4
  8
0
  6
CONTINUOUS
 62
    7
 10
-21.20204023402275
 20
47.59833488762762
 30
0
  0
VERTEX
  5
1B5
  8
0
  6
CONTINUOUS
 62
    7
 10
-21.22907846817326
 20
47.61634434959463
 30
0
  0
VERTEX
  5
1B6
  8
0
  6
CONTINUOUS
 62
    7
 10
-21.25631971903567
 20
47.63404780882147
 30
0
  0
VERTEX
  5
1B7
  8
0
  6
CONTINUOUS
 62
    7
 10
-21.2837596883663
 20
47.65144411113633
 30
0
  0
VERTEX
  5
1B8
  8
0
  6
CONTINUOUS
 62
    7
 10
-21.31139406816276
 20
47.66853211273911
 30
0
  0
VERTEX
  5
1B9
  8
0
  6
CONTINUOUS
 62
    7
 10
-21.33921855042269
 20
47.68531066982974
 30
0
  0
VERTEX
  5
1BA
  8
0
  6
CONTINUOUS
 62
    7
 10
-21.36722882714371
 20
47.70177863860815
 30
0
  0
VERTEX
  5
1BB
  8
0
  6
CONTINUOUS
 62
    7
 10
-21.39542059032342
 20
47.71793487527423
 30
0
  0
VERTEX
  5
1BC
  8
0
  6
CONTINUOUS
 62
    7
 10
-21.42378953195948
 20
47.73377823602792
 30
0
  0
VERTEX
  5
1BD
  8
0
  6
CONTINUOUS
 62
    7
 10
-21.45233134404948
 20
47.74930757706914
 30
0
  0
VERTEX
  5
1BE
  8
0
  6
CONTINUOUS
 62
    7
 10
-21.48104171859106
 20
47.76452175459779
 30
0
  0
VERTEX
  5
1BF
  8
0
  6
CONTINUOUS
 62
    7
 10
-21.50991634758183
 20
47.77941962481377
 30
0
  0
VERTEX
  5
1C0
  8
0
  6
CONTINUOUS
 62
    7
 10
-21.53895092301942
 20
47.79400004391703
 30
0
  0
VERTEX
  5
1C1
  8
0
  6
CONTINUOUS
 62
    7
 10
-21.56814113690145
 20
47.80826186810746
 30
0
  0
VERTEX
  5
1C2
  8
0
  6
CONTINUOUS
 62
    7
 10
-21.59748268122555
 20
47.822203953585
 30
0
  0
VERTEX
  5
1C3
  8
0
  6
CONTINUOUS
 62
    7
 10
-21.62697124798932
 20
47.83582515654955
 30
0
  0
VERTEX
  5
1C4
  8
0
  6
CONTINUOUS
 62
    7
 10
-21.6566025291904
 20
47.84912433320103
 30
0
  0
VERTEX
  5
1C5
  8
0
  6
CONTINUOUS
 62
    7
 10
-21.68637221682642
 20
47.86210033973936
 30
0
  0
VERTEX
  5
1C6
  8
0
  6
CONTINUOUS
 62
    7
 10
-21.71627600289498
 20
47.87475203236446
 30
0
  0
VERTEX
  5
1C7
  8
0
  6
CONTINUOUS
 62
    7
 10
-21.74630975785868
 20
47.88707808963775
 30
0
  0
VERTEX
  5
1C8
  8
0
  6
CONTINUOUS
 62
    7
 10
-21.77647049100419
 20
47.89907605657051
 30
0
  0
VERTEX
  5
1C9
  8
0
  6
CONTINUOUS
 62
    7
 10
-21.80675565919264
 20
47.91074303267233
 30
0
  0
VERTEX
  5
1CA
  8
0
  6
CONTINUOUS
 62
    7
 10
-21.83716272035167
 20
47.92207611639117
 30
0
  0
VERTEX
  5
1CB
  8
0
  6
CONTINUOUS
 62
    7
 10
-21.86768913240894
 20
47.93307240617503
 30
0
  0
VERTEX
  5
1CC
  8
0
  6
CONTINUOUS
 62
    7
 10
-21.89833235329211
 20
47.94372900047189
 30
0
  0
VERTEX
  5
1CD
  8
0
  6
CONTINUOUS
 62
    7
 10
-21.92908984092882
 20
47.95404299772971
 30
0
  0
VERTEX
  5
1CE
  8
0
  6
CONTINUOUS
 62
    7
 10
-21.95995905324672
 20
47.96401149639649
 30
0
  0
VERTEX
  5
1CF
  8
0
  6
CONTINUOUS
 62
    7
 10
-21.99093744817348
 20
47.97363159492021
 30
0
  0
VERTEX
  5
1D0
  8
0
  6
CONTINUOUS
 62
    7
 10
-22.02202223960706
 20
47.98290133602138
 30
0
  0
VERTEX
  5
1D1
  8
0
  6
CONTINUOUS
 62
    7
 10
-22.05320947893395
 20
47.99182326075683
 30
0
  0
VERTEX
  5
1D2
  8
0
  6
CONTINUOUS
 62
    7
 10
-22.08449487174572
 20
48.00040124823649
 30
0
  0
VERTEX
  5
1D3
  8
0
  6
CONTINUOUS
 62
    7
 10
-22.11587412357651
 20
48.00863917779241
 30
0
  0
VERTEX
  5
1D4
  8
0
  6
CONTINUOUS
 62
    7
 10
-22.14734293996047
 20
48.0165409287566
 30
0
  0
VERTEX
  5
1D5
  8
0
  6
CONTINUOUS
 62
    7
 10
-22.17889702643177
 20
48.02411038046108
 30
0
  0
VERTEX
  5
1D6
  8
0
  6
CONTINUOUS
 62
    7
 10
-22.21053208852454
 20
48.03135141223787
 30
0
  0
VERTEX
  5
1D7
  8
0
  6
CONTINUOUS
 62
    7
 10
-22.24224383177295
 20
48.03826790341903
 30
0
  0
VERTEX
  5
1D8
  8
0
  6
CONTINUOUS
 62
    7
 10
-22.27402796171114
 20
48.04486373333654
 30
0
  0
VERTEX
  5
1D9
  8
0
  6
CONTINUOUS
 62
    7
 10
-22.30588030036075
 20
48.0511397309606
 30
0
  0
VERTEX
  5
1DA
  8
0
  6
CONTINUOUS
 62
    7
 10
-22.33779715579736
 20
48.05708399736658
 30
0
  0
VERTEX
  5
1DB
  8
0
  6
CONTINUOUS
 62
    7
 10
-22.36977496285103
 20
48.06268131441509
 30
0
  0
VERTEX
  5
1DC
  8
0
  6
CONTINUOUS
 62
    7
 10
-22.40181015635213
 20
48.06791646395791
 30
0
  0
VERTEX
  5
1DD
  8
0
  6
CONTINUOUS
 62
    7
 10
-22.43389917113106
 20
48.07277422784676
 30
0
  0
VERTEX
  5
1DE
  8
0
  6
CONTINUOUS
 62
    7
 10
-22.46603844201819
 20
48.0772393879334
 30
0
  0
VERTEX
  5
1DF
  8
0
  6
CONTINUOUS
 62
    7
 10
-22.49822440384392
 20
48.08129672606954
 30
0
  0
VERTEX
  5
1E0
  8
0
  6
CONTINUOUS
 62
    7
 10
-22.53045349143863
 20
48.08493102410696
 30
0
  0
VERTEX
  5
1E1
  8
0
  6
CONTINUOUS
 62
    7
 10
-22.5627221396327
 20
48.0881270638974
 30
0
  0
VERTEX
  5
1E2
  8
0
  6
CONTINUOUS
 62
    7
 10
-22.59502671487774
 20
48.09087995590641
 30
0
  0
VERTEX
  5
1E3
  8
0
  6
CONTINUOUS
 62
    7
 10
-22.62736329361185
 20
48.09322861713204
 30
0
  0
VERTEX
  5
1E4
  8
0
  6
CONTINUOUS
 62
    7
 10
-22.65972787539934
 20
48.09522357635091
 30
0
  0
VERTEX
  5
1E5
  8
0
  6
CONTINUOUS
 62
    7
 10
-22.69211645980404
 20
48.09691536242117
 30
0
  0
VERTEX
  5
1E6
  8
0
  6
CONTINUOUS
 62
    7
 10
-22.72452504638974
 20
48.09835450420087
 30
0
  0
VERTEX
  5
1E7
  8
0
  6
CONTINUOUS
 62
    7
 10
-22.75694963472024
 20
48.09959153054815
 30
0
  0
VERTEX
  5
1E8
  8
0
  6
CONTINUOUS
 62
    7
 10
-22.78938622435933
 20
48.1006769703211
 30
0
  0
VERTEX
  5
1E9
  8
0
  6
CONTINUOUS
 62
    7
 10
-22.82183081487082
 20
48.10166135237785
 30
0
  0
VERTEX
  5
1EA
  8
0
  6
CONTINUOUS
 62
    7
 10
-22.85427940581852
 20
48.10259520557648
 30
0
  0
SEQEND
  5
1EB
  8
0
  6
CONTINUOUS
 62
    7
  0
LINE
  5
1EC
  8
0
  6
CONTINUOUS
 62
    7
 10
-185.173505056154
 20
-34.82315544344485
 11
-37.066247758434
 21
-34.82315544344485
  0
LINE
  5
1ED
  8
0
  6
CONTINUOUS
 62
    7
 10
-185.173505056154
 20
79.47684455655511
 11
-185.173505056154
 21
-34.82315544344485
  0
LINE
  5
1EE
  8
0
  6
CONTINUOUS
 62
    7
 10
-19.89895440703399
 20
8.821069378675128
 11
-19.89895440703399
 21
-0.8298293230448706
  0
LINE
  5
1EF
  8
0
  6
CONTINUOUS
 62
    7
 10
-37.62489054513404
 20
58.9705634940151
 11
-37.62489054513404
 21
76.6960436208351
  0
LINE
  5
1F0
  8
0
  6
CONTINUOUS
 62
    7
 10
-19.89895440703399
 20
-37.15603015030487
 11
-19.89895440703399
 21
-29.17893062066487
  0
LINE
  5
1F1
  8
0
  6
CONTINUOUS
 62
    7
 10
-40.405691478314
 20
79.47684455655511
 11
-185.173505056154
 21
79.47684455655511
  0
LINE
  5
1F2
  8
0
  6
CONTINUOUS
 62
    7
 10
-19.89895440703399
 20
45.14727020593513
 11
-19.89895440703399
 21
37.17017067629513
  0
LINE
  5
1F3
  8
0
  6
CONTINUOUS
 62
    7
 10
-26.46803471817399
 20
-40.11135514896484
 11
-22.85427940569399
 21
-40.11135514896484
  0
LINE
  5
1F4
  8
0
  6
CONTINUOUS
 62
    7
 10
-22.85427940569399
 20
48.1025952045951
 11
-26.46803471817399
 21
48.1025952045951
  0
ARC
  5
1F5
  8
0
  6
CONTINUOUS
 62
    7
 10
-32.31077005833402
 20
-34.00437997152487
 40
4.825449350717783
 50
189.7691324886
 51
269.277484862
  0
LINE
  5
1F6
  8
0
  6
BYLAYER
 62
  256
 10
-32.37161865541663
 20
-38.82944565859853
 11
-26.46803471694647
 21
-40.11135514906533
  0
LINE
  5
1F7
  8
0
  6
BYLAYER
 62
  256
 10
-19.89895440703399
 20
-29.17893062066487
 11
-19.89895440703399
 21
-0.8298293230448706
  0
LINE
  5
1F8
  8
0
  6
BYLAYER
 62
  256
 10
-19.89895440703399
 20
37.17017067629513
 11
-19.89895440703399
 21
8.821069378675128
  0
ARC
  5
1F9
  8
0
  6
BYLAYER
 62
  256
 10
-26.94818627401236
 20
58.77037583870772
 40
10.67858085955817
 50
178.9258329505247
 51
272.5771154869032
  0
ENDSEC
  0
EOF
