999
dxfrw 0.6.3
  0
SECTION
  2
HEADER
  9
$ACADVER
  1
AC1009
  9
$DWGCODEPAGE
  3
ANSI_1252
  9
$INSBASE
 10
0
 20
0
 30
0
  9
$EXTMIN
 10
-1.5597943099
 20
-114.0637090494944
 30
0
  9
$EXTMAX
 10
164.4933890990635
 20
21.96109802743227
 30
0
  9
$LIMMIN
 10
0
 20
0
  9
$LIMMAX
 10
12
 20
9
  9
$ORTHOMODE
 70
    0
  9
$REGENMODE
 70
    1
  9
$FILLMODE
 70
    1
  9
$QTEXTMODE
 70
    0
  9
$MIRRTEXT
 70
    1
  9
$DRAGMODE
 70
    2
  9
$LTSCALE
 40
1
  9
$OSMODE
 70
    0
  9
$ATTMODE
 70
    1
  9
$TEXTSIZE
 40
0.1377952756
  9
$TRACEWID
 40
0.05
  9
$TEXTSTYLE
  7
STANDARD
  9
$CLAYER
  8
0
  9
$CELTYPE
  6
BYLAYER
  9
$CECOLOR
 62
  256
  9
$DIMSCALE
 40
1
  9
$DIMASZ
 40
0.13
  9
$DIMEXO
 40
0.05
  9
$DIMDLI
 40
0.38
  9
$DIMRND
 40
0
  9
$DIMDLE
 40
0
  9
$DIMEXE
 40
0.125
  9
$DIMTP
 40
0
  9
$DIMTM
 40
0
  9
$DIMTXT
 40
0.1377952756
  9
$DIMCEN
 40
0.09
  9
$DIMTSZ
 40
0
  9
$DIMTOL
 70
    0
  9
$DIMLIM
 70
    0
  9
$DIMTIH
 70
    1
  9
$DIMTOH
 70
    1
  9
$DIMSE1
 70
    0
  9
$DIMSE2
 70
    0
  9
$DIMTAD
 70
    1
  9
$DIMZIN
 70
    1
  9
$DIMBLK
  1

  9
$DIMASO
 70
    1
  9
$DIMSHO
 70
    1
  9
$DIMPOST
  1

  9
$DIMAPOST
  1

  9
$DIMALT
 70
    0
  9
$DIMALTD
 70
    2
  9
$DIMALTF
 40
25.4
  9
$DIMLFAC
 40
1
  9
$DIMTOFL
 70
    0
  9
$DIMTVP
 40
0
  9
$DIMTIX
 70
    0
  9
$DIMSOXD
 70
    0
  9
$DIMSAH
 70
    0
  9
$DIMBLK1
  1

  9
$DIMBLK2
  1

  9
$DIMSTYLE
  2
STANDARD
  9
$DIMCLRD
 70
    0
  9
$DIMCLRE
 70
    0
  9
$DIMCLRT
 70
    0
  9
$DIMTFAC
 40
1
  9
$DIMGAP
 40
0.06
  9
$LUNITS
 70
    2
  9
$LUPREC
 70
    2
  9
$SKETCHINC
 40
0.1
  9
$FILLETRAD
 40
0.5
  9
$AUNITS
 70
    0
  9
$AUPREC
 70
    2
  9
$MENU
  1
.
  9
$ELEVATION
 40
0
  9
$PELEVATION
 40
0
  9
$THICKNESS
 40
0
  9
$LIMCHECK
 70
    0
  9
$BLIPMODE
 70
    0
  9
$CHAMFERA
 40
0
  9
$CHAMFERB
 40
0
  9
$SKPOLY
 70
    0
  9
$USRTIMER
 70
    1
  9
$ANGBASE
 50
0
  9
$ANGDIR
 70
    0
  9
$PDMODE
 70
    0
  9
$PDSIZE
 40
-1
  9
$PLINEWID
 40
0
  9
$COORDS
 70
    2
  9
$SPLFRAME
 70
    0
  9
$SPLINETYPE
 70
    6
  9
$SPLINESEGS
 70
    8
  9
$ATTDIA
 70
    1
  9
$ATTREQ
 70
    1
  9
$HANDLING
 70
    1
  9
$HANDSEED
  5
20000
  9
$SURFTAB1
 70
    6
  9
$SURFTAB2
 70
    6
  9
$SURFTYPE
 70
    6
  9
$SURFU
 70
    6
  9
$SURFV
 70
    6
  9
$UCSNAME
  2

  9
$UCSORG
 10
0
 20
0
 30
0
  9
$UCSXDIR
 10
1
 20
0
 30
0
  9
$UCSYDIR
 10
0
 20
1
 30
0
  9
$PUCSNAME
  2

  9
$PUCSORG
 10
0
 20
0
 30
0
  9
$PUCSXDIR
 10
1
 20
0
 30
0
  9
$PUCSYDIR
 10
0
 20
1
 30
0
  9
$USERI1
 70
    0
  9
$USERI2
 70
    0
  9
$USERI3
 70
    0
  9
$USERI4
 70
    0
  9
$USERI5
 70
    0
  9
$USERR1
 40
0
  9
$USERR2
 40
0
  9
$USERR3
 40
0
  9
$USERR4
 40
0
  9
$USERR5
 40
0
  9
$WORLDVIEW
 70
    1
  9
$SHADEDGE
 70
    3
  9
$SHADEDIF
 70
   70
  9
$TILEMODE
 70
    1
  9
$MAXACTVP
 70
   64
  9
$PLIMCHECK
 70
    0
  9
$PEXTMIN
 10
1e+020
 20
1e+020
 30
1e+020
  9
$PEXTMAX
 10
-1e+020
 20
-1e+020
 30
-1e+020
  9
$GRIDMODE
 70
    0
  9
$SNAPSTYLE
 70
    0
  9
$PLIMMIN
 10
0
 20
0
  9
$PLIMMAX
 10
12
 20
9
  9
$UNITMODE
 70
    0
  9
$VISRETAIN
 70
    1
  9
$PLINEGEN
 70
    0
  9
$PSLTSCALE
 70
    1
  0
ENDSEC
  0
SECTION
  2
TABLES
  0
TABLE
  2
VPORT
 70
    1
  0
VPORT
  2
*ACTIVE
 70
    0
 10
0
 20
0
 11
1
 21
1
 12
182.7443991150401
 22
105.3184826478784
 13
0
 23
0
 14
10
 24
10
 15
10
 25
10
 16
0
 26
0
 36
1
 17
0
 27
0
 37
0
 40
383.2823318281236
 41
1.963613550815558
 42
50
 43
0
 44
0
 50
0
 51
0
 71
    0
 72
  100
 73
    1
 74
    3
 75
    0
 76
    0
 77
    0
 78
    0
  0
ENDTAB
  0
TABLE
  2
LTYPE
 70
    4
  0
LTYPE
  2
BYBLOCK
 70
    0
  3

 72
   65
 73
    0
 40
0
  0
LTYPE
  2
BYLAYER
 70
    0
  3

 72
   65
 73
    0
 40
0
  0
LTYPE
  2
CONTINUOUS
 70
    0
  3
Solid line
 72
   65
 73
    0
 40
0
  0
LTYPE
  2
DOT
 70
    0
  3
Dot . . . . . . . . . . . . . . . . . . . . . .
 72
   65
 73
    2
 40
6.35
 49
0
 49
-6.35
  0
LTYPE
  2
DOTTINY
 70
    0
  3
Dot (.15x) .....................................
 72
   65
 73
    2
 40
0.9525
 49
0
 49
-0.9525
  0
LTYPE
  2
DOT2
 70
    0
  3
Dot (.5x) .....................................
 72
   65
 73
    2
 40
3.175
 49
0
 49
-3.175
  0
LTYPE
  2
DOTX2
 70
    0
  3
Dot (2x) .  .  .  .  .  .  .  .  .  .  .  .  .
 72
   65
 73
    2
 40
12.7
 49
0
 49
-12.7
  0
LTYPE
  2
DASHED
 70
    0
  3
Dashed _ _ _ _ _ _ _ _ _ _ _ _ _ _ _ _ _
 72
   65
 73
    2
 40
19.05
 49
12.7
 49
-6.35
  0
LTYPE
  2
DASHEDTINY
 70
    0
  3
Dashed (.15x) _ _ _ _ _ _ _ _ _ _ _ _ _ _ _ _ _
 72
   65
 73
    2
 40
2.8575
 49
1.905
 49
-0.9525
  0
LTYPE
  2
DASHED2
 70
    0
  3
Dashed (.5x) _ _ _ _ _ _ _ _ _ _ _ _ _ _ _ _ _
 72
   65
 73
    2
 40
9.524999999999999
 49
6.35
 49
-3.175
  0
LTYPE
  2
DASHEDX2
 70
    0
  3
Dashed (2x) ____  ____  ____  ____  ____  ___
 72
   65
 73
    2
 40
38.09999999999999
 49
25.4
 49
-12.7
  0
LTYPE
  2
DASHDOT
 70
    0
  3
Dash dot __ . __ . __ . __ . __ . __ . __ . __
 72
   65
 73
    4
 40
25.4
 49
12.7
 49
-6.35
 49
0
 49
-6.35
  0
LTYPE
  2
DASHDOTTINY
 70
    0
  3
Dash dot (.15x) _._._._._._._._._._._._._._._.
 72
   65
 73
    4
 40
3.81
 49
1.905
 49
-0.9525
 49
0
 49
-0.9525
  0
LTYPE
  2
DASHDOT2
 70
    0
  3
Dash dot (.5x) _._._._._._._._._._._._._._._.
 72
   65
 73
    4
 40
12.7
 49
6.35
 49
-3.175
 49
0
 49
-3.175
  0
LTYPE
  2
DASHDOTX2
 70
    0
  3
Dash dot (2x) ____  .  ____  .  ____  .  ___
 72
   65
 73
    4
 40
50.8
 49
25.4
 49
-12.7
 49
0
 49
-12.7
  0
LTYPE
  2
DIVIDE
 70
    0
  3
Divide ____ . . ____ . . ____ . . ____ . . ____
 72
   65
 73
    6
 40
31.75
 49
12.7
 49
-6.35
 49
0
 49
-6.35
 49
0
 49
-6.35
  0
LTYPE
  2
DIVIDETINY
 70
    0
  3
Divide (.15x) __..__..__..__..__..__..__..__.._
 72
   65
 73
    6
 40
4.7625
 49
1.905
 49
-0.9525
 49
0
 49
-0.9525
 49
0
 49
-0.9525
  0
LTYPE
  2
DIVIDE2
 70
    0
  3
Divide (.5x) __..__..__..__..__..__..__..__.._
 72
   65
 73
    6
 40
15.875
 49
6.35
 49
-3.175
 49
0
 49
-3.175
 49
0
 49
-3.175
  0
LTYPE
  2
DIVIDEX2
 70
    0
  3
Divide (2x) ________  .  .  ________  .  .  _
 72
   65
 73
    6
 40
63.5
 49
25.4
 49
-12.7
 49
0
 49
-12.7
 49
0
 49
-12.7
  0
LTYPE
  2
BORDER
 70
    0
  3
Border __ __ . __ __ . __ __ . __ __ . __ __ .
 72
   65
 73
    6
 40
44.45
 49
12.7
 49
-6.35
 49
12.7
 49
-6.35
 49
0
 49
-6.35
  0
LTYPE
  2
BORDERTINY
 70
    0
  3
Border (.15x) __.__.__.__.__.__.__.__.__.__.__.
 72
   65
 73
    6
 40
6.6675
 49
1.905
 49
-0.9525
 49
1.905
 49
-0.9525
 49
0
 49
-0.9525
  0
LTYPE
  2
BORDER2
 70
    0
  3
Border (.5x) __.__.__.__.__.__.__.__.__.__.__.
 72
   65
 73
    6
 40
22.225
 49
6.35
 49
-3.175
 49
6.35
 49
-3.175
 49
0
 49
-3.175
  0
LTYPE
  2
BORDERX2
 70
    0
  3
Border (2x) ____  ____  .  ____  ____  .  ___
 72
   65
 73
    6
 40
88.89999999999999
 49
25.4
 49
-12.7
 49
25.4
 49
-12.7
 49
0
 49
-12.7
  0
LTYPE
  2
CENTER
 70
    0
  3
Center ____ _ ____ _ ____ _ ____ _ ____ _ ____
 72
   65
 73
    4
 40
50.8
 49
31.75
 49
-6.35
 49
6.35
 49
-6.35
  0
LTYPE
  2
CENTERTINY
 70
    0
  3
Center (.15x) ___ _ ___ _ ___ _ ___ _ ___ _ ___
 72
   65
 73
    4
 40
7.62
 49
4.7625
 49
-0.9525
 49
0.9525
 49
-0.9525
  0
LTYPE
  2
CENTER2
 70
    0
  3
Center (.5x) ___ _ ___ _ ___ _ ___ _ ___ _ ___
 72
   65
 73
    4
 40
28.575
 49
19.05
 49
-3.175
 49
3.175
 49
-3.175
  0
LTYPE
  2
CENTERX2
 70
    0
  3
Center (2x) ________  __  ________  __  _____
 72
   65
 73
    4
 40
101.6
 49
63.5
 49
-12.7
 49
12.7
 49
-12.7
  0
ENDTAB
  0
TABLE
  2
LAYER
 70
    1
  0
LAYER
  2
0
 70
    0
 62
    7
  6
CONTINUOUS
  0
ENDTAB
  0
TABLE
  2
STYLE
 70
    3
  0
STYLE
  2
SLDTEXTSTYLE0
 70
    0
 40
0
 41
1
 50
0
 71
    0
 42
1
  3
SLDTEXTSTYLE0
  4

  0
STYLE
  2
STANDARD
 70
    0
 40
0
 41
1
 50
0
 71
    0
 42
1
  3
TXT
  4

  0
ENDTAB
  0
TABLE
  2
VIEW
 70
    0
  0
ENDTAB
  0
TABLE
  2
UCS
 70
    0
  0
ENDTAB
  0
TABLE
  2
APPID
 70
    1
  0
APPID
  2
ACAD
 70
    0
  0
APPID
  2
LIBRECAD
 70
    0
  0
ENDTAB
  0
TABLE
  2
DIMSTYLE
 70
    1
  0
DIMSTYLE
  2
STANDARD
 70
    0
  3

  4

  5

  6

  7

 40
1
 41
0.13
 42
0.05
 43
0.38
 44
0.125
 45
0
 46
0
 47
0
 48
0
 49
1
140
0.1377952756
141
0.09
142
0
143
25.4
144
1
145
0
146
1
147
0.06
 71
    0
 72
    0
 73
    1
 74
    1
 75
    0
 76
    0
 77
    0
 78
    1
170
    0
171
    2
172
    0
173
    0
174
    0
175
    0
176
    0
177
    0
178
    0
  0
ENDTAB
  0
ENDSEC
  0
SECTION
  2
BLOCKS
  0
BLOCK
  8
0
  2
$MODEL_SPACE
 70
    0
 10
0
 20
0
 30
0
  3
$MODEL_SPACE
  1

  0
ENDBLK
  8
0
  0
BLOCK
  8
0
  2
$PAPER_SPACE
 70
    0
 10
0
 20
0
 30
0
  3
$PAPER_SPACE
  1

  0
ENDBLK
  8
0
  0
ENDSEC
  0
SECTION
  2
ENTITIES
  0
CIRCLE
  5
31
  8
0
  6
CONTINUOUS
 62
    7
 10
153.837613920843
 20
-53.52012650130772
 40
1.599999999999952
  0
CIRCLE
  5
32
  8
0
  6
CONTINUOUS
 62
    7
 10
153.837613920843
 20
-15.52012650196773
 40
1.599999999999975
  0
CIRCLE
  5
33
  8
0
  6
CONTINUOUS
 62
    7
 10
11.75948797860296
 20
-53.52012650130772
 40
1.500000000000002
  0
CIRCLE
  5
34
  8
0
  6
CONTINUOUS
 62
    7
 10
11.75948797860296
 20
-15.52012650196773
 40
1.50000000000001
  0
CIRCLE
  5
35
  8
0
  6
CONTINUOUS
 62
    7
 10
153.837613920843
 20
-91.52012650064772
 40
1.600000000000019
  0
LINE
  5
36
  8
0
  6
CONTINUOUS
 62
    7
 10
164.318838449843
 20
-86.52012650066771
 11
164.493389098963
 21
-86.69467714978772
  0
LINE
  5
37
  8
0
  6
CONTINUOUS
 62
    7
 10
152.0207248495229
 20
-96.34519218958772
 11
152.0207248495229
 21
-99.34888599168772
  0
LINE
  5
38
  8
0
  6
CONTINUOUS
 62
    7
 10
-0.7811615501570445
 20
-92.33890197256771
 11
147.326095747563
 21
-92.33890197256771
  0
LINE
  5
39
  8
0
  6
CONTINUOUS
 62
    7
 10
-0.7811615501570445
 20
21.96109802743227
 11
-0.7811615501570445
 21
-92.33890197256771
  0
LINE
  5
3A
  8
0
  6
CONTINUOUS
 62
    7
 10
164.493389098963
 20
-20.34557585282772
 11
164.318838449843
 21
-20.52012650194772
  0
LINE
  5
3B
  8
0
  6
CONTINUOUS
 62
    7
 10
164.318838449843
 20
-48.52012650132772
 11
164.318838449843
 21
-20.52012650194772
  0
LINE
  5
3C
  8
0
  6
CONTINUOUS
 62
    7
 10
164.318838449843
 20
-48.52012650132772
 11
164.493389098963
 21
-48.69467715044772
  0
LINE
  5
3D
  8
0
  6
CONTINUOUS
 62
    7
 10
164.493389098963
 20
-48.69467715044772
 11
164.493389098963
 21
-58.34557585216772
  0
LINE
  5
3E
  8
0
  6
CONTINUOUS
 62
    7
 10
164.493389098963
 20
-58.34557585216772
 11
164.318838449843
 21
-58.52012650128772
  0
LINE
  5
3F
  8
0
  6
CONTINUOUS
 62
    7
 10
164.318838449843
 20
-86.52012650066771
 11
164.318838449843
 21
-58.52012650128772
  0
LINE
  5
40
  8
0
  6
CONTINUOUS
 62
    7
 10
146.767452960863
 20
1.454816964892272
 11
146.767452960863
 21
19.18029709171227
  0
LINE
  5
41
  8
0
  6
CONTINUOUS
 62
    7
 10
164.493389098963
 20
-94.67177667942772
 11
164.493389098963
 21
-86.69467714978772
  0
LINE
  5
42
  8
0
  6
CONTINUOUS
 62
    7
 10
143.9866520276829
 20
21.96109802743227
 11
-0.7811615501570445
 21
21.96109802743227
  0
LINE
  5
43
  8
0
  6
CONTINUOUS
 62
    7
 10
164.493389098963
 20
-12.36847632318772
 11
164.493389098963
 21
-20.34557585282772
  0
LINE
  5
44
  8
0
  6
CONTINUOUS
 62
    7
 10
157.924308787823
 20
-97.62710167808773
 11
161.538064100303
 21
-97.62710167808773
  0
LINE
  5
45
  8
0
  6
CONTINUOUS
 62
    7
 10
161.538064100303
 20
-9.413151324527723
 11
157.924308787823
 21
-9.413151324527723
  0
ARC
  5
46
  8
0
  6
CONTINUOUS
 62
    7
 10
157.9243768242629
 20
-108.6092112175077
 40
10.98210953953027
 50
90.0003549528
 51
122.5183668943
  0
ARC
  5
47
  8
0
  6
CONTINUOUS
 62
    7
 10
152.0815734476629
 20
-91.52012650064772
 40
4.825449350717783
 50
189.7691324886
 51
269.277484862
  0
ARC
  5
48
  8
0
  6
CONTINUOUS
 62
    7
 10
157.9243764356429
 20
1.568956886472274
 40
10.98210821055761
 50
237.4816310835
 51
269.9996470693
  0
TEXT
  5
49
  8
0
  6
CONTINUOUS
 62
    7
 10
-0.7811615501570445
 20
-100.3684523828277
 30
0
 40
4.83362
  1
SOLIDWORKS Educational Product.
 50
0
 41
1
 51
0
  7
SLDTEXTSTYLE0
 71
    0
 11
-0.7811615501570445
 21
-100.3684523828277
 31
0
210
0
220
0
230
1
 73
    3
  0
TEXT
  5
4A
  8
0
  6
CONTINUOUS
 62
    7
 10
-0.7811615501570445
 20
-107.6188823828277
 30
0
 40
4.83362
  1
For Instructional Use Only.
 50
0
 41
1
 51
0
  7
SLDTEXTSTYLE0
 71
    0
 11
-0.7811615501570445
 21
-107.6188823828277
 31
0
210
0
220
0
230
1
 73
    3
  0
LINE
  5
4B
  8
0
  6
CONTINUOUS
 62
    7
 10
161.5380641001793
 20
-97.62710167906653
 11
161.5705029772334
 21
-97.62657756503302
  0
LINE
  5
4C
  8
0
  6
CONTINUOUS
 62
    7
 10
161.5705029772334
 20
-97.62657756503302
 11
161.6029381110393
 21
-97.62596713929597
  0
LINE
  5
4D
  8
0
  6
CONTINUOUS
 62
    7
 10
161.6029381110393
 20
-97.62596713929597
 11
161.6353657583489
 21
-97.62518409015188
  0
LINE
  5
4E
  8
0
  6
CONTINUOUS
 62
    7
 10
161.6353657583489
 20
-97.62518409015188
 11
161.6677821759141
 21
-97.62414210589725
  0
LINE
  5
4F
  8
0
  6
CONTINUOUS
 62
    7
 10
161.6677821759141
 20
-97.62414210589725
 11
161.7001836204869
 21
-97.62275487482854
  0
LINE
  5
50
  8
0
  6
CONTINUOUS
 62
    7
 10
161.7001836204869
 20
-97.62275487482854
 11
161.7325663196315
 21
-97.62094715934568
  0
LINE
  5
51
  8
0
  6
CONTINUOUS
 62
    7
 10
161.7325663196315
 20
-97.62094715934568
 11
161.7649263166769
 21
-97.61871362354097
  0
LINE
  5
52
  8
0
  6
CONTINUOUS
 62
    7
 10
161.7649263166769
 20
-97.61871362354097
 11
161.7972595832634
 21
-97.61607613103119
  0
LINE
  5
53
  8
0
  6
CONTINUOUS
 62
    7
 10
161.7972595832634
 20
-97.61607613103119
 11
161.8295620908705
 21
-97.61305660645129
  0
LINE
  5
54
  8
0
  6
CONTINUOUS
 62
    7
 10
161.8295620908705
 20
-97.61305660645129
 11
161.8618298109781
 21
-97.60967697443624
  0
LINE
  5
55
  8
0
  6
CONTINUOUS
 62
    7
 10
161.8618298109781
 20
-97.60967697443624
 11
161.8940587120647
 21
-97.6059572568029
  0
LINE
  5
56
  8
0
  6
CONTINUOUS
 62
    7
 10
161.8940587120647
 20
-97.6059572568029
 11
161.9262447355746
 21
-97.60190033282272
  0
LINE
  5
57
  8
0
  6
CONTINUOUS
 62
    7
 10
161.9262447355746
 20
-97.60190033282272
 11
161.9583838086336
 21
-97.59750000270476
  0
LINE
  5
58
  8
0
  6
CONTINUOUS
 62
    7
 10
161.9583838086336
 20
-97.59750000270476
 11
161.9904718582368
 21
-97.59274998375376
  0
LINE
  5
59
  8
0
  6
CONTINUOUS
 62
    7
 10
161.9904718582368
 20
-97.59274998375376
 11
162.0225048113793
 21
-97.58764399327438
  0
LINE
  5
5A
  8
0
  6
CONTINUOUS
 62
    7
 10
162.0225048113793
 20
-97.58764399327438
 11
162.0544785978338
 21
-97.58217615771156
  0
LINE
  5
5B
  8
0
  6
CONTINUOUS
 62
    7
 10
162.0544785978338
 20
-97.58217615771156
 11
162.0863891812645
 21
-97.57634559634904
  0
LINE
  5
5C
  8
0
  6
CONTINUOUS
 62
    7
 10
162.0863891812645
 20
-97.57634559634904
 11
162.118232547989
 21
-97.57015476567547
  0
LINE
  5
5D
  8
0
  6
CONTINUOUS
 62
    7
 10
162.118232547989
 20
-97.57015476567547
 11
162.1500046847395
 21
-97.56360618325219
  0
LINE
  5
5E
  8
0
  6
CONTINUOUS
 62
    7
 10
162.1500046847395
 20
-97.56360618325219
 11
162.1817015782483
 21
-97.55670236664066
  0
LINE
  5
5F
  8
0
  6
CONTINUOUS
 62
    7
 10
162.1817015782483
 20
-97.55670236664066
 11
162.2133192279043
 21
-97.54944578873391
  0
LINE
  5
60
  8
0
  6
CONTINUOUS
 62
    7
 10
162.2133192279043
 20
-97.54944578873391
 11
162.2448538428884
 21
-97.5418381820258
  0
LINE
  5
61
  8
0
  6
CONTINUOUS
 62
    7
 10
162.2448538428884
 20
-97.5418381820258
 11
162.2763018049993
 21
-97.53388066980631
  0
LINE
  5
62
  8
0
  6
CONTINUOUS
 62
    7
 10
162.2763018049993
 20
-97.53388066980631
 11
162.3076595011688
 21
-97.5255743572495
  0
LINE
  5
63
  8
0
  6
CONTINUOUS
 62
    7
 10
162.3076595011688
 20
-97.5255743572495
 11
162.3389233183288
 21
-97.51692034952943
  0
LINE
  5
64
  8
0
  6
CONTINUOUS
 62
    7
 10
162.3389233183288
 20
-97.51692034952943
 11
162.3700896417807
 21
-97.50791979133592
  0
LINE
  5
65
  8
0
  6
CONTINUOUS
 62
    7
 10
162.3700896417807
 20
-97.50791979133592
 11
162.4011548169556
 21
-97.49857479379614
  0
LINE
  5
66
  8
0
  6
CONTINUOUS
 62
    7
 10
162.4011548169556
 20
-97.49857479379614
 11
162.4321151480474
 21
-97.48888846758605
  0
LINE
  5
67
  8
0
  6
CONTINUOUS
 62
    7
 10
162.4321151480474
 20
-97.48888846758605
 11
162.4629669373468
 21
-97.47886396952207
  0
LINE
  5
68
  8
0
  6
CONTINUOUS
 62
    7
 10
162.4629669373468
 20
-97.47886396952207
 11
162.4937064871442
 21
-97.46850445642062
  0
LINE
  5
69
  8
0
  6
CONTINUOUS
 62
    7
 10
162.4937064871442
 20
-97.46850445642062
 11
162.5243301202626
 21
-97.45781306669213
  0
LINE
  5
6A
  8
0
  6
CONTINUOUS
 62
    7
 10
162.5243301202626
 20
-97.45781306669213
 11
162.554835092877
 21
-97.44679210205632
  0
LINE
  5
6B
  8
0
  6
CONTINUOUS
 62
    7
 10
162.554835092877
 20
-97.44679210205632
 11
162.5852199581783
 21
-97.43544270154074
  0
LINE
  5
6C
  8
0
  6
CONTINUOUS
 62
    7
 10
162.5852199581783
 20
-97.43544270154074
 11
162.6154833651002
 21
-97.42376591834578
  0
LINE
  5
6D
  8
0
  6
CONTINUOUS
 62
    7
 10
162.6154833651002
 20
-97.42376591834578
 11
162.6456239625761
 21
-97.41176280567187
  0
LINE
  5
6E
  8
0
  6
CONTINUOUS
 62
    7
 10
162.6456239625761
 20
-97.41176280567187
 11
162.6756403937854
 21
-97.39943441671389
  0
LINE
  5
6F
  8
0
  6
CONTINUOUS
 62
    7
 10
162.6756403937854
 20
-97.39943441671389
 11
162.7055303507632
 21
-97.38678180375246
  0
LINE
  5
70
  8
0
  6
CONTINUOUS
 62
    7
 10
162.7055303507632
 20
-97.38678180375246
 11
162.7352895222752
 21
-97.37380601714268
  0
LINE
  5
71
  8
0
  6
CONTINUOUS
 62
    7
 10
162.7352895222752
 20
-97.37380601714268
 11
162.7649133435444
 21
-97.36050810699594
  0
LINE
  5
72
  8
0
  6
CONTINUOUS
 62
    7
 10
162.7649133435444
 20
-97.36050810699594
 11
162.7943972497939
 21
-97.34688912342358
  0
LINE
  5
73
  8
0
  6
CONTINUOUS
 62
    7
 10
162.7943972497939
 20
-97.34688912342358
 11
162.8237366762472
 21
-97.33295011653699
  0
LINE
  5
74
  8
0
  6
CONTINUOUS
 62
    7
 10
162.8237366762472
 20
-97.33295011653699
 11
162.8529270581274
 21
-97.31869213644755
  0
LINE
  5
75
  8
0
  6
CONTINUOUS
 62
    7
 10
162.8529270581274
 20
-97.31869213644755
 11
162.8819638306576
 21
-97.30411623326664
  0
LINE
  5
76
  8
0
  6
CONTINUOUS
 62
    7
 10
162.8819638306576
 20
-97.30411623326664
 11
162.9108424290612
 21
-97.28922345710561
  0
LINE
  5
77
  8
0
  6
CONTINUOUS
 62
    7
 10
162.9108424290612
 20
-97.28922345710561
 11
162.9395582885612
 21
-97.27401485807586
  0
LINE
  5
78
  8
0
  6
CONTINUOUS
 62
    7
 10
162.9395582885612
 20
-97.27401485807586
 11
162.968106844381
 21
-97.25849148628876
  0
LINE
  5
79
  8
0
  6
CONTINUOUS
 62
    7
 10
162.968106844381
 20
-97.25849148628876
 11
162.9964835317437
 21
-97.24265439185568
  0
LINE
  5
7A
  8
0
  6
CONTINUOUS
 62
    7
 10
162.9964835317437
 20
-97.24265439185568
 11
163.0246837858725
 21
-97.22650462488798
  0
LINE
  5
7B
  8
0
  6
CONTINUOUS
 62
    7
 10
163.0246837858725
 20
-97.22650462488798
 11
163.0527030419906
 21
-97.21004323549707
  0
LINE
  5
7C
  8
0
  6
CONTINUOUS
 62
    7
 10
163.0527030419906
 20
-97.21004323549707
 11
163.0805367353214
 21
-97.19327127379429
  0
LINE
  5
7D
  8
0
  6
CONTINUOUS
 62
    7
 10
163.0805367353214
 20
-97.19327127379429
 11
163.1081803010879
 21
-97.17618978989104
  0
LINE
  5
7E
  8
0
  6
CONTINUOUS
 62
    7
 10
163.1081803010879
 20
-97.17618978989104
 11
163.1356291745133
 21
-97.15879983389868
  0
LINE
  5
7F
  8
0
  6
CONTINUOUS
 62
    7
 10
163.1356291745133
 20
-97.15879983389868
 11
163.1628787908209
 21
-97.1411024559286
  0
LINE
  5
80
  8
0
  6
CONTINUOUS
 62
    7
 10
163.1628787908209
 20
-97.1411024559286
 11
163.1899246071631
 21
-97.12309872724539
  0
LINE
  5
81
  8
0
  6
CONTINUOUS
 62
    7
 10
163.1899246071631
 20
-97.12309872724539
 11
163.2167630344626
 21
-97.10479063913756
  0
LINE
  5
82
  8
0
  6
CONTINUOUS
 62
    7
 10
163.2167630344626
 20
-97.10479063913756
 11
163.2433917846214
 21
-97.08618143784075
  0
LINE
  5
83
  8
0
  6
CONTINUOUS
 62
    7
 10
163.2433917846214
 20
-97.08618143784075
 11
163.2698086630167
 21
-97.06727445975883
  0
LINE
  5
84
  8
0
  6
CONTINUOUS
 62
    7
 10
163.2698086630167
 20
-97.06727445975883
 11
163.2960114750261
 21
-97.04807304129568
  0
LINE
  5
85
  8
0
  6
CONTINUOUS
 62
    7
 10
163.2960114750261
 20
-97.04807304129568
 11
163.3219980260267
 21
-97.02858051885516
  0
LINE
  5
86
  8
0
  6
CONTINUOUS
 62
    7
 10
163.3219980260267
 20
-97.02858051885516
 11
163.3477661213962
 21
-97.00880022884118
  0
LINE
  5
87
  8
0
  6
CONTINUOUS
 62
    7
 10
163.3477661213962
 20
-97.00880022884118
 11
163.3733135665118
 21
-96.98873550765758
  0
LINE
  5
88
  8
0
  6
CONTINUOUS
 62
    7
 10
163.3733135665118
 20
-96.98873550765758
 11
163.398638166751
 21
-96.96838969170825
  0
LINE
  5
89
  8
0
  6
CONTINUOUS
 62
    7
 10
163.398638166751
 20
-96.96838969170825
 11
163.4237377274911
 21
-96.94776611739708
  0
LINE
  5
8A
  8
0
  6
CONTINUOUS
 62
    7
 10
163.4237377274911
 20
-96.94776611739708
 11
163.4486100541095
 21
-96.9268681211279
  0
LINE
  5
8B
  8
0
  6
CONTINUOUS
 62
    7
 10
163.4486100541095
 20
-96.9268681211279
 11
163.4732529519836
 21
-96.90569903930462
  0
LINE
  5
8C
  8
0
  6
CONTINUOUS
 62
    7
 10
163.4732529519836
 20
-96.90569903930462
 11
163.4976642264909
 21
-96.88426220833111
  0
LINE
  5
8D
  8
0
  6
CONTINUOUS
 62
    7
 10
163.4976642264909
 20
-96.88426220833111
 11
163.5218416830086
 21
-96.86256096461123
  0
LINE
  5
8E
  8
0
  6
CONTINUOUS
 62
    7
 10
163.5218416830086
 20
-96.86256096461123
 11
163.5457831269142
 21
-96.84059864454889
  0
LINE
  5
8F
  8
0
  6
CONTINUOUS
 62
    7
 10
163.5457831269142
 20
-96.84059864454889
 11
163.5694863635852
 21
-96.81837858454793
  0
LINE
  5
90
  8
0
  6
CONTINUOUS
 62
    7
 10
163.5694863635852
 20
-96.81837858454793
 11
163.5929491983988
 21
-96.79590412101224
  0
LINE
  5
91
  8
0
  6
CONTINUOUS
 62
    7
 10
163.5929491983988
 20
-96.79590412101224
 11
163.6161694367324
 21
-96.77317859034569
  0
LINE
  5
92
  8
0
  6
CONTINUOUS
 62
    7
 10
163.6161694367324
 20
-96.77317859034569
 11
163.6391448564789
 21
-96.7502053026777
  0
LINE
  5
93
  8
0
  6
CONTINUOUS
 62
    7
 10
163.6391448564789
 20
-96.7502053026777
 11
163.6618726732833
 21
-96.72698703064592
  0
LINE
  5
94
  8
0
  6
CONTINUOUS
 62
    7
 10
163.6618726732833
 20
-96.72698703064592
 11
163.6843495768344
 21
-96.70352604408983
  0
LINE
  5
95
  8
0
  6
CONTINUOUS
 62
    7
 10
163.6843495768344
 20
-96.70352604408983
 11
163.7065722366048
 21
-96.67982459352291
  0
LINE
  5
96
  8
0
  6
CONTINUOUS
 62
    7
 10
163.7065722366048
 20
-96.67982459352291
 11
163.7285373220673
 21
-96.65588492945858
  0
LINE
  5
97
  8
0
  6
CONTINUOUS
 62
    7
 10
163.7285373220673
 20
-96.65588492945858
 11
163.7502415026945
 21
-96.6317093024103
  0
LINE
  5
98
  8
0
  6
CONTINUOUS
 62
    7
 10
163.7502415026945
 20
-96.6317093024103
 11
163.771681447959
 21
-96.60729996289153
  0
LINE
  5
99
  8
0
  6
CONTINUOUS
 62
    7
 10
163.771681447959
 20
-96.60729996289153
 11
163.7928538273335
 21
-96.58265916141569
  0
LINE
  5
9A
  8
0
  6
CONTINUOUS
 62
    7
 10
163.7928538273335
 20
-96.58265916141569
 11
163.8137553102908
 21
-96.55778914849628
  0
LINE
  5
9B
  8
0
  6
CONTINUOUS
 62
    7
 10
163.8137553102908
 20
-96.55778914849628
 11
163.8343825663034
 21
-96.5326921746467
  0
LINE
  5
9C
  8
0
  6
CONTINUOUS
 62
    7
 10
163.8343825663034
 20
-96.5326921746467
 11
163.8547322648439
 21
-96.50737049038041
  0
LINE
  5
9D
  8
0
  6
CONTINUOUS
 62
    7
 10
163.8547322648439
 20
-96.50737049038041
 11
163.8748010753851
 21
-96.48182634621088
  0
LINE
  5
9E
  8
0
  6
CONTINUOUS
 62
    7
 10
163.8748010753851
 20
-96.48182634621088
 11
163.8945856673997
 21
-96.45606199265154
  0
LINE
  5
9F
  8
0
  6
CONTINUOUS
 62
    7
 10
163.8945856673997
 20
-96.45606199265154
 11
163.9140827103602
 21
-96.43007968021584
  0
LINE
  5
A0
  8
0
  6
CONTINUOUS
 62
    7
 10
163.9140827103602
 20
-96.43007968021584
 11
163.9332888737394
 21
-96.40388165941725
  0
LINE
  5
A1
  8
0
  6
CONTINUOUS
 62
    7
 10
163.9332888737394
 20
-96.40388165941725
 11
163.9522008270099
 21
-96.37747018076918
  0
LINE
  5
A2
  8
0
  6
CONTINUOUS
 62
    7
 10
163.9522008270099
 20
-96.37747018076918
 11
163.9708152396444
 21
-96.3508474947851
  0
LINE
  5
A3
  8
0
  6
CONTINUOUS
 62
    7
 10
163.9708152396444
 20
-96.3508474947851
 11
163.9891287811155
 21
-96.32401585197847
  0
LINE
  5
A4
  8
0
  6
CONTINUOUS
 62
    7
 10
163.9891287811155
 20
-96.32401585197847
 11
164.0071382430825
 21
-96.29697761782801
  0
LINE
  5
A5
  8
0
  6
CONTINUOUS
 62
    7
 10
164.0071382430825
 20
-96.29697761782801
 11
164.0248417023094
 21
-96.26973636696566
  0
LINE
  5
A6
  8
0
  6
CONTINUOUS
 62
    7
 10
164.0248417023094
 20
-96.26973636696566
 11
164.0422380046242
 21
-96.24229639763506
  0
LINE
  5
A7
  8
0
  6
CONTINUOUS
 62
    7
 10
164.0422380046242
 20
-96.24229639763506
 11
164.059326006227
 21
-96.21466201783861
  0
LINE
  5
A8
  8
0
  6
CONTINUOUS
 62
    7
 10
164.059326006227
 20
-96.21466201783861
 11
164.0761045633176
 21
-96.18683753557869
  0
LINE
  5
A9
  8
0
  6
CONTINUOUS
 62
    7
 10
164.0761045633176
 20
-96.18683753557869
 11
164.0925725320959
 21
-96.15882725885766
  0
LINE
  5
AA
  8
0
  6
CONTINUOUS
 62
    7
 10
164.0925725320959
 20
-96.15882725885766
 11
164.1087287687619
 21
-96.13063549567791
  0
LINE
  5
AB
  8
0
  6
CONTINUOUS
 62
    7
 10
164.1087287687619
 20
-96.13063549567791
 11
164.1245721295156
 21
-96.10226655404182
  0
LINE
  5
AC
  8
0
  6
CONTINUOUS
 62
    7
 10
164.1245721295156
 20
-96.10226655404182
 11
164.1401014705567
 21
-96.07372474195178
  0
LINE
  5
AD
  8
0
  6
CONTINUOUS
 62
    7
 10
164.1401014705567
 20
-96.07372474195178
 11
164.1553156480853
 21
-96.04501436741016
  0
LINE
  5
AE
  8
0
  6
CONTINUOUS
 62
    7
 10
164.1553156480853
 20
-96.04501436741016
 11
164.1702135183012
 21
-96.01613973841933
  0
LINE
  5
AF
  8
0
  6
CONTINUOUS
 62
    7
 10
164.1702135183012
 20
-96.01613973841933
 11
164.1847939374043
 21
-95.98710516298168
  0
LINE
  5
B0
  8
0
  6
CONTINUOUS
 62
    7
 10
164.1847939374043
 20
-95.98710516298168
 11
164.1990557615947
 21
-95.9579149490996
  0
LINE
  5
B1
  8
0
  6
CONTINUOUS
 62
    7
 10
164.1990557615947
 20
-95.9579149490996
 11
164.2129978470722
 21
-95.92857340477546
  0
LINE
  5
B2
  8
0
  6
CONTINUOUS
 62
    7
 10
164.2129978470722
 20
-95.92857340477546
 11
164.2266190500367
 21
-95.89908483801165
  0
LINE
  5
B3
  8
0
  6
CONTINUOUS
 62
    7
 10
164.2266190500367
 20
-95.89908483801165
 11
164.2399182266881
 21
-95.86945355681051
  0
LINE
  5
B4
  8
0
  6
CONTINUOUS
 62
    7
 10
164.2399182266881
 20
-95.86945355681051
 11
164.2528942332264
 21
-95.83968386917448
  0
LINE
  5
B5
  8
0
  6
CONTINUOUS
 62
    7
 10
164.2528942332264
 20
-95.83968386917448
 11
164.2655459258515
 21
-95.80978008310588
  0
LINE
  5
B6
  8
0
  6
CONTINUOUS
 62
    7
 10
164.2655459258515
 20
-95.80978008310588
 11
164.2778719831248
 21
-95.77974632814217
  0
LINE
  5
B7
  8
0
  6
CONTINUOUS
 62
    7
 10
164.2778719831248
 20
-95.77974632814217
 11
164.2898699500575
 21
-95.74958559499666
  0
LINE
  5
B8
  8
0
  6
CONTINUOUS
 62
    7
 10
164.2898699500575
 20
-95.74958559499666
 11
164.3015369261594
 21
-95.71930042680822
  0
LINE
  5
B9
  8
0
  6
CONTINUOUS
 62
    7
 10
164.3015369261594
 20
-95.71930042680822
 11
164.3128700098783
 21
-95.68889336564919
  0
LINE
  5
BA
  8
0
  6
CONTINUOUS
 62
    7
 10
164.3128700098783
 20
-95.68889336564919
 11
164.3238662996622
 21
-95.65836695359192
  0
LINE
  5
BB
  8
0
  6
CONTINUOUS
 62
    7
 10
164.3238662996622
 20
-95.65836695359192
 11
164.334522893959
 21
-95.62772373270877
  0
LINE
  5
BC
  8
0
  6
CONTINUOUS
 62
    7
 10
164.334522893959
 20
-95.62772373270877
 11
164.3448368912169
 21
-95.5969662450721
  0
LINE
  5
BD
  8
0
  6
CONTINUOUS
 62
    7
 10
164.3448368912169
 20
-95.5969662450721
 11
164.3548053898838
 21
-95.56609703275419
  0
LINE
  5
BE
  8
0
  6
CONTINUOUS
 62
    7
 10
164.3548053898838
 20
-95.56609703275419
 11
164.3644254884075
 21
-95.53511863782744
  0
LINE
  5
BF
  8
0
  6
CONTINUOUS
 62
    7
 10
164.3644254884075
 20
-95.53511863782744
 11
164.3736952295087
 21
-95.5040338463939
  0
LINE
  5
C0
  8
0
  6
CONTINUOUS
 62
    7
 10
164.3736952295087
 20
-95.5040338463939
 11
164.3826171542442
 21
-95.472846607067
  0
LINE
  5
C1
  8
0
  6
CONTINUOUS
 62
    7
 10
164.3826171542442
 20
-95.472846607067
 11
164.3911951417238
 21
-95.44156121425523
  0
LINE
  5
C2
  8
0
  6
CONTINUOUS
 62
    7
 10
164.3911951417238
 20
-95.44156121425523
 11
164.3994330712797
 21
-95.41018196242443
  0
LINE
  5
C3
  8
0
  6
CONTINUOUS
 62
    7
 10
164.3994330712797
 20
-95.41018196242443
 11
164.4073348222439
 21
-95.37871314604048
  0
LINE
  5
C4
  8
0
  6
CONTINUOUS
 62
    7
 10
164.4073348222439
 20
-95.37871314604048
 11
164.4149042739483
 21
-95.34715905956917
  0
LINE
  5
C5
  8
0
  6
CONTINUOUS
 62
    7
 10
164.4149042739483
 20
-95.34715905956917
 11
164.422145305725
 21
-95.31552399747638
  0
LINE
  5
C6
  8
0
  6
CONTINUOUS
 62
    7
 10
164.422145305725
 20
-95.31552399747638
 11
164.4290617969061
 21
-95.28381225422795
  0
LINE
  5
C7
  8
0
  6
CONTINUOUS
 62
    7
 10
164.4290617969061
 20
-95.28381225422795
 11
164.4356576268235
 21
-95.25202812428977
  0
LINE
  5
C8
  8
0
  6
CONTINUOUS
 62
    7
 10
164.4356576268235
 20
-95.25202812428977
 11
164.4419336244474
 21
-95.22017578564012
  0
LINE
  5
C9
  8
0
  6
CONTINUOUS
 62
    7
 10
164.4419336244474
 20
-95.22017578564012
 11
164.4478778908533
 21
-95.1882589302035
  0
LINE
  5
CA
  8
0
  6
CONTINUOUS
 62
    7
 10
164.4478778908533
 20
-95.1882589302035
 11
164.4534752079016
 21
-95.15628112314981
  0
LINE
  5
CB
  8
0
  6
CONTINUOUS
 62
    7
 10
164.4534752079016
 20
-95.15628112314981
 11
164.4587103574443
 21
-95.12424592964869
  0
LINE
  5
CC
  8
0
  6
CONTINUOUS
 62
    7
 10
164.4587103574443
 20
-95.12424592964869
 11
164.463568121333
 21
-95.09215691486975
  0
LINE
  5
CD
  8
0
  6
CONTINUOUS
 62
    7
 10
164.463568121333
 20
-95.09215691486975
 11
164.4680332814196
 21
-95.0600176439826
  0
LINE
  5
CE
  8
0
  6
CONTINUOUS
 62
    7
 10
164.4680332814196
 20
-95.0600176439826
 11
164.4720906195556
 21
-95.02783168215686
  0
LINE
  5
CF
  8
0
  6
CONTINUOUS
 62
    7
 10
164.4720906195556
 20
-95.02783168215686
 11
164.475724917593
 21
-94.99560259456213
  0
LINE
  5
D0
  8
0
  6
CONTINUOUS
 62
    7
 10
164.475724917593
 20
-94.99560259456213
 11
164.4789209573834
 21
-94.96333394636805
  0
LINE
  5
D1
  8
0
  6
CONTINUOUS
 62
    7
 10
164.4789209573834
 20
-94.96333394636805
 11
164.4816738493924
 21
-94.93102937112302
  0
LINE
  5
D2
  8
0
  6
CONTINUOUS
 62
    7
 10
164.4816738493924
 20
-94.93102937112302
 11
164.4840225106181
 21
-94.8986927923889
  0
LINE
  5
D3
  8
0
  6
CONTINUOUS
 62
    7
 10
164.4840225106181
 20
-94.8986927923889
 11
164.4860174698371
 21
-94.86632821060141
  0
LINE
  5
D4
  8
0
  6
CONTINUOUS
 62
    7
 10
164.4860174698371
 20
-94.86632821060141
 11
164.4877092559074
 21
-94.83393962619672
  0
LINE
  5
D5
  8
0
  6
CONTINUOUS
 62
    7
 10
164.4877092559074
 20
-94.83393962619672
 11
164.4891483976873
 21
-94.80153103961104
  0
LINE
  5
D6
  8
0
  6
CONTINUOUS
 62
    7
 10
164.4891483976873
 20
-94.80153103961104
 11
164.4903854240347
 21
-94.76910645128055
  0
LINE
  5
D7
  8
0
  6
CONTINUOUS
 62
    7
 10
164.4903854240347
 20
-94.76910645128055
 11
164.4914708638078
 21
-94.73666986164147
  0
LINE
  5
D8
  8
0
  6
CONTINUOUS
 62
    7
 10
164.4914708638078
 20
-94.73666986164147
 11
164.4924552458647
 21
-94.70422527112999
  0
LINE
  5
D9
  8
0
  6
CONTINUOUS
 62
    7
 10
164.4924552458647
 20
-94.70422527112999
 11
164.4933890990635
 21
-94.6717766801823
  0
LINE
  5
DA
  8
0
  6
CONTINUOUS
 62
    7
 10
146.7674529616228
 20
19.1802970926601
 11
146.7669597629169
 21
19.2108213656428
  0
LINE
  5
DB
  8
0
  6
CONTINUOUS
 62
    7
 10
146.7669597629169
 20
19.2108213656428
 11
146.7663853358603
 21
19.24134211574003
  0
LINE
  5
DC
  8
0
  6
CONTINUOUS
 62
    7
 10
146.7663853358603
 20
19.24134211574003
 11
146.7656484521019
 21
19.27185582006634
  0
LINE
  5
DD
  8
0
  6
CONTINUOUS
 62
    7
 10
146.7656484521019
 20
19.27185582006634
 11
146.7646678832909
 21
19.30235895573628
  0
LINE
  5
DE
  8
0
  6
CONTINUOUS
 62
    7
 10
146.7646678832909
 20
19.30235895573628
 11
146.7633624010766
 21
19.33284799986438
  0
LINE
  5
DF
  8
0
  6
CONTINUOUS
 62
    7
 10
146.7633624010766
 20
19.33284799986438
 11
146.7616612106485
 21
19.36331940210016
  0
LINE
  5
E0
  8
0
  6
CONTINUOUS
 62
    7
 10
146.7616612106485
 20
19.36331940210016
 11
146.7595593116932
 21
19.39376943889699
  0
LINE
  5
E1
  8
0
  6
CONTINUOUS
 62
    7
 10
146.7595593116932
 20
19.39376943889699
 11
146.75707728245
 21
19.42419431937583
  0
LINE
  5
E2
  8
0
  6
CONTINUOUS
 62
    7
 10
146.75707728245
 20
19.42419431937583
 11
146.7542357582275
 21
19.45459025250735
  0
LINE
  5
E3
  8
0
  6
CONTINUOUS
 62
    7
 10
146.7542357582275
 20
19.45459025250735
 11
146.7510553743343
 21
19.48495344726227
  0
LINE
  5
E4
  8
0
  6
CONTINUOUS
 62
    7
 10
146.7510553743343
 20
19.48495344726227
 11
146.7475549711284
 21
19.51528010980099
  0
LINE
  5
E5
  8
0
  6
CONTINUOUS
 62
    7
 10
146.7475549711284
 20
19.51528010980099
 11
146.7437372495088
 21
19.54556642101467
  0
LINE
  5
E6
  8
0
  6
CONTINUOUS
 62
    7
 10
146.7437372495088
 20
19.54556642101467
 11
146.7395963760223
 21
19.57580854843255
  0
LINE
  5
E7
  8
0
  6
CONTINUOUS
 62
    7
 10
146.7395963760223
 20
19.57580854843255
 11
146.7351264397102
 21
19.60600265946244
  0
LINE
  5
E8
  8
0
  6
CONTINUOUS
 62
    7
 10
146.7351264397102
 20
19.60600265946244
 11
146.7303215296136
 21
19.63614492151218
  0
LINE
  5
E9
  8
0
  6
CONTINUOUS
 62
    7
 10
146.7303215296136
 20
19.63614492151218
 11
146.7251761212314
 21
19.66623150462568
  0
LINE
  5
EA
  8
0
  6
CONTINUOUS
 62
    7
 10
146.7251761212314
 20
19.66623150462568
 11
146.7196893923143
 21
19.69625861092143
  0
LINE
  5
EB
  8
0
  6
CONTINUOUS
 62
    7
 10
146.7196893923143
 20
19.69625861092143
 11
146.7138636569509
 21
19.72622246391128
  0
LINE
  5
EC
  8
0
  6
CONTINUOUS
 62
    7
 10
146.7138636569509
 20
19.72622246391128
 11
146.7077012863129
 21
19.7561192874964
  0
LINE
  5
ED
  8
0
  6
CONTINUOUS
 62
    7
 10
146.7077012863129
 20
19.7561192874964
 11
146.7012046515719
 21
19.78594530557804
  0
LINE
  5
EE
  8
0
  6
CONTINUOUS
 62
    7
 10
146.7012046515719
 20
19.78594530557804
 11
146.6943760815996
 21
19.81569675403843
  0
LINE
  5
EF
  8
0
  6
CONTINUOUS
 62
    7
 10
146.6943760815996
 20
19.81569675403843
 11
146.6872172069149
 21
19.84537006656329
  0
LINE
  5
F0
  8
0
  6
CONTINUOUS
 62
    7
 10
146.6872172069149
 20
19.84537006656329
 11
146.6797290848851
 21
19.87496183917929
  0
LINE
  5
F1
  8
0
  6
CONTINUOUS
 62
    7
 10
146.6797290848851
 20
19.87496183917929
 11
146.671912755925
 21
19.90446867271478
  0
LINE
  5
F2
  8
0
  6
CONTINUOUS
 62
    7
 10
146.671912755925
 20
19.90446867271478
 11
146.6637692604495
 21
19.93388716799813
  0
LINE
  5
F3
  8
0
  6
CONTINUOUS
 62
    7
 10
146.6637692604495
 20
19.93388716799813
 11
146.6552996764032
 21
19.96321392431141
  0
LINE
  5
F4
  8
0
  6
CONTINUOUS
 62
    7
 10
146.6552996764032
 20
19.96321392431141
 11
146.646505994758
 21
19.99244550331825
  0
LINE
  5
F5
  8
0
  6
CONTINUOUS
 62
    7
 10
146.646505994758
 20
19.99244550331825
 11
146.6373911480917
 21
20.02157842788635
  0
LINE
  5
F6
  8
0
  6
CONTINUOUS
 62
    7
 10
146.6373911480917
 20
20.02157842788635
 11
146.6279581122293
 21
20.05060921910156
  0
LINE
  5
F7
  8
0
  6
CONTINUOUS
 62
    7
 10
146.6279581122293
 20
20.05060921910156
 11
146.6182098629956
 21
20.07953439804973
  0
LINE
  5
F8
  8
0
  6
CONTINUOUS
 62
    7
 10
146.6182098629956
 20
20.07953439804973
 11
146.6081493585631
 21
20.10835050533221
  0
LINE
  5
F9
  8
0
  6
CONTINUOUS
 62
    7
 10
146.6081493585631
 20
20.10835050533221
 11
146.5977787606713
 21
20.13705496203117
  0
LINE
  5
FA
  8
0
  6
CONTINUOUS
 62
    7
 10
146.5977787606713
 20
20.13705496203117
 11
146.587099127783
 21
20.1656464089359
  0
LINE
  5
FB
  8
0
  6
CONTINUOUS
 62
    7
 10
146.587099127783
 20
20.1656464089359
 11
146.5761114372885
 21
20.19412357646323
  0
LINE
  5
FC
  8
0
  6
CONTINUOUS
 62
    7
 10
146.5761114372885
 20
20.19412357646323
 11
146.5648166665784
 21
20.22248519503007
  0
LINE
  5
FD
  8
0
  6
CONTINUOUS
 62
    7
 10
146.5648166665784
 20
20.22248519503007
 11
146.5532157930628
 21
20.25072998953219
  0
LINE
  5
FE
  8
0
  6
CONTINUOUS
 62
    7
 10
146.5532157930628
 20
20.25072998953219
 11
146.5413097973409
 21
20.27885578499584
  0
LINE
  5
FF
  8
0
  6
CONTINUOUS
 62
    7
 10
146.5413097973409
 20
20.27885578499584
 11
146.5290996667064
 21
20.30685851768063
  0
LINE
  5
100
  8
0
  6
CONTINUOUS
 62
    7
 10
146.5290996667064
 20
20.30685851768063
 11
146.5165863892967
 21
20.33473388575921
  0
LINE
  5
101
  8
0
  6
CONTINUOUS
 62
    7
 10
146.5165863892967
 20
20.33473388575921
 11
146.503770953249
 21
20.36247758740408
  0
LINE
  5
102
  8
0
  6
CONTINUOUS
 62
    7
 10
146.503770953249
 20
20.36247758740408
 11
146.4906543467009
 21
20.39008532078784
  0
LINE
  5
103
  8
0
  6
CONTINUOUS
 62
    7
 10
146.4906543467009
 20
20.39008532078784
 11
146.4772375577897
 21
20.41755278408301
  0
LINE
  5
104
  8
0
  6
CONTINUOUS
 62
    7
 10
146.4772375577897
 20
20.41755278408301
 11
146.4635215746528
 21
20.44487567546215
  0
LINE
  5
105
  8
0
  6
CONTINUOUS
 62
    7
 10
146.4635215746528
 20
20.44487567546215
 11
146.4495073854276
 21
20.47204969309784
  0
LINE
  5
106
  8
0
  6
CONTINUOUS
 62
    7
 10
146.4495073854276
 20
20.47204969309784
 11
146.4351959782514
 21
20.49907053516263
  0
LINE
  5
107
  8
0
  6
CONTINUOUS
 62
    7
 10
146.4351959782514
 20
20.49907053516263
 11
146.4205883412618
 21
20.52593389982907
  0
LINE
  5
108
  8
0
  6
CONTINUOUS
 62
    7
 10
146.4205883412618
 20
20.52593389982907
 11
146.4056854625959
 21
20.55263548526969
  0
LINE
  5
109
  8
0
  6
CONTINUOUS
 62
    7
 10
146.4056854625959
 20
20.55263548526969
 11
146.3904883303914
 21
20.57917098965711
  0
LINE
  5
10A
  8
0
  6
CONTINUOUS
 62
    7
 10
146.3904883303914
 20
20.57917098965711
 11
146.3749979327854
 21
20.60553611116383
  0
LINE
  5
10B
  8
0
  6
CONTINUOUS
 62
    7
 10
146.3749979327854
 20
20.60553611116383
 11
146.3592152579154
 21
20.63172654796242
  0
LINE
  5
10C
  8
0
  6
CONTINUOUS
 62
    7
 10
146.3592152579154
 20
20.63172654796242
 11
146.3431412939189
 21
20.65773799822544
  0
LINE
  5
10D
  8
0
  6
CONTINUOUS
 62
    7
 10
146.3431412939189
 20
20.65773799822544
 11
146.3267770289331
 21
20.68356616012546
  0
LINE
  5
10E
  8
0
  6
CONTINUOUS
 62
    7
 10
146.3267770289331
 20
20.68356616012546
 11
146.3101234510955
 21
20.70920673183501
  0
LINE
  5
10F
  8
0
  6
CONTINUOUS
 62
    7
 10
146.3101234510955
 20
20.70920673183501
 11
146.2931815689103
 21
20.73465543283509
  0
LINE
  5
110
  8
0
  6
CONTINUOUS
 62
    7
 10
146.2931815689103
 20
20.73465543283509
 11
146.2759532636953
 21
20.75990889577772
  0
LINE
  5
111
  8
0
  6
CONTINUOUS
 62
    7
 10
146.2759532636953
 20
20.75990889577772
 11
146.2584415998429
 21
20.78496499109192
  0
LINE
  5
112
  8
0
  6
CONTINUOUS
 62
    7
 10
146.2584415998429
 20
20.78496499109192
 11
146.2406497259691
 21
20.80982167732491
  0
LINE
  5
113
  8
0
  6
CONTINUOUS
 62
    7
 10
146.2406497259691
 20
20.80982167732491
 11
146.22258079069
 21
20.83447691302381
  0
LINE
  5
114
  8
0
  6
CONTINUOUS
 62
    7
 10
146.22258079069
 20
20.83447691302381
 11
146.2042379426216
 21
20.85892865673582
  0
LINE
  5
115
  8
0
  6
CONTINUOUS
 62
    7
 10
146.2042379426216
 20
20.85892865673582
 11
146.1856243303798
 21
20.88317486700805
  0
LINE
  5
116
  8
0
  6
CONTINUOUS
 62
    7
 10
146.1856243303798
 20
20.88317486700805
 11
146.1667431025807
 21
20.9072135023877
  0
LINE
  5
117
  8
0
  6
CONTINUOUS
 62
    7
 10
146.1667431025807
 20
20.9072135023877
 11
146.1475974078403
 21
20.9310425214219
  0
LINE
  5
118
  8
0
  6
CONTINUOUS
 62
    7
 10
146.1475974078403
 20
20.9310425214219
 11
146.1281903947746
 21
20.95465988265786
  0
LINE
  5
119
  8
0
  6
CONTINUOUS
 62
    7
 10
146.1281903947746
 20
20.95465988265786
 11
146.1085252119997
 21
20.97806354464269
  0
LINE
  5
11A
  8
0
  6
CONTINUOUS
 62
    7
 10
146.1085252119997
 20
20.97806354464269
 11
146.0886050081316
 21
21.00125146592358
  0
LINE
  5
11B
  8
0
  6
CONTINUOUS
 62
    7
 10
146.0886050081316
 20
21.00125146592358
 11
146.0684329317863
 21
21.02422160504769
  0
LINE
  5
11C
  8
0
  6
CONTINUOUS
 62
    7
 10
146.0684329317863
 20
21.02422160504769
 11
146.0480121315798
 21
21.04697192056215
  0
LINE
  5
11D
  8
0
  6
CONTINUOUS
 62
    7
 10
146.0480121315798
 20
21.04697192056215
 11
146.0273457561281
 21
21.06950037101415
  0
LINE
  5
11E
  8
0
  6
CONTINUOUS
 62
    7
 10
146.0273457561281
 20
21.06950037101415
 11
146.0064369540473
 21
21.09180491495085
  0
LINE
  5
11F
  8
0
  6
CONTINUOUS
 62
    7
 10
146.0064369540473
 20
21.09180491495085
 11
145.9852888739534
 21
21.1138835109194
  0
LINE
  5
120
  8
0
  6
CONTINUOUS
 62
    7
 10
145.9852888739534
 20
21.1138835109194
 11
145.9639046644623
 21
21.13573411746698
  0
LINE
  5
121
  8
0
  6
CONTINUOUS
 62
    7
 10
145.9639046644623
 20
21.13573411746698
 11
145.9422874480204
 21
21.15735466413244
  0
LINE
  5
122
  8
0
  6
CONTINUOUS
 62
    7
 10
145.9422874480204
 20
21.15735466413244
 11
145.9204398175699
 21
21.178742493517
  0
LINE
  5
123
  8
0
  6
CONTINUOUS
 62
    7
 10
145.9204398175699
 20
21.178742493517
 11
145.8983638738974
 21
21.19989440268427
  0
LINE
  5
124
  8
0
  6
CONTINUOUS
 62
    7
 10
145.8983638738974
 20
21.19989440268427
 11
145.8760616991024
 21
21.2208071679833
  0
LINE
  5
125
  8
0
  6
CONTINUOUS
 62
    7
 10
145.8760616991024
 20
21.2208071679833
 11
145.8535353752841
 21
21.24147756576321
  0
LINE
  5
126
  8
0
  6
CONTINUOUS
 62
    7
 10
145.8535353752841
 20
21.24147756576321
 11
145.830786984542
 21
21.2619023723731
  0
LINE
  5
127
  8
0
  6
CONTINUOUS
 62
    7
 10
145.830786984542
 20
21.2619023723731
 11
145.8078186089752
 21
21.28207836416203
  0
LINE
  5
128
  8
0
  6
CONTINUOUS
 62
    7
 10
145.8078186089752
 20
21.28207836416203
 11
145.7846323306831
 21
21.3020023174791
  0
LINE
  5
129
  8
0
  6
CONTINUOUS
 62
    7
 10
145.7846323306831
 20
21.3020023174791
 11
145.7612302317651
 21
21.3216710086734
  0
LINE
  5
12A
  8
0
  6
CONTINUOUS
 62
    7
 10
145.7612302317651
 20
21.3216710086734
 11
145.7376143943204
 21
21.34108121409404
  0
LINE
  5
12B
  8
0
  6
CONTINUOUS
 62
    7
 10
145.7376143943204
 20
21.34108121409404
 11
145.7137869004485
 21
21.36022971009012
  0
LINE
  5
12C
  8
0
  6
CONTINUOUS
 62
    7
 10
145.7137869004485
 20
21.36022971009012
 11
145.6897498322485
 21
21.3791132730107
  0
LINE
  5
12D
  8
0
  6
CONTINUOUS
 62
    7
 10
145.6897498322485
 20
21.3791132730107
 11
145.6655052718199
 21
21.39772867920489
  0
LINE
  5
12E
  8
0
  6
CONTINUOUS
 62
    7
 10
145.6655052718199
 20
21.39772867920489
 11
145.6410553012619
 21
21.41607270502179
  0
LINE
  5
12F
  8
0
  6
CONTINUOUS
 62
    7
 10
145.6410553012619
 20
21.41607270502179
 11
145.616402002674
 21
21.43414212681047
  0
LINE
  5
130
  8
0
  6
CONTINUOUS
 62
    7
 10
145.616402002674
 20
21.43414212681047
 11
145.5915474581553
 21
21.45193372092004
  0
LINE
  5
131
  8
0
  6
CONTINUOUS
 62
    7
 10
145.5915474581553
 20
21.45193372092004
 11
145.5664937498052
 21
21.46944426369958
  0
LINE
  5
132
  8
0
  6
CONTINUOUS
 62
    7
 10
145.5664937498052
 20
21.46944426369958
 11
145.5412429597231
 21
21.48667053149821
  0
LINE
  5
133
  8
0
  6
CONTINUOUS
 62
    7
 10
145.5412429597231
 20
21.48667053149821
 11
145.515797289488
 21
21.50360944145664
  0
LINE
  5
134
  8
0
  6
CONTINUOUS
 62
    7
 10
145.515797289488
 20
21.50360944145664
 11
145.4901601815143
 21
21.52025937288168
  0
LINE
  5
135
  8
0
  6
CONTINUOUS
 62
    7
 10
145.4901601815143
 20
21.52025937288168
 11
145.4643358136111
 21
21.53661957164878
  0
LINE
  5
136
  8
0
  6
CONTINUOUS
 62
    7
 10
145.4643358136111
 20
21.53661957164878
 11
145.4383283732235
 21
21.55268929498846
  0
LINE
  5
137
  8
0
  6
CONTINUOUS
 62
    7
 10
145.4383283732235
 20
21.55268929498846
 11
145.4121420477967
 21
21.56846780013127
  0
LINE
  5
138
  8
0
  6
CONTINUOUS
 62
    7
 10
145.4121420477967
 20
21.56846780013127
 11
145.385781024776
 21
21.58395434430774
  0
LINE
  5
139
  8
0
  6
CONTINUOUS
 62
    7
 10
145.385781024776
 20
21.58395434430774
 11
145.3592494916067
 21
21.5991481847484
  0
LINE
  5
13A
  8
0
  6
CONTINUOUS
 62
    7
 10
145.3592494916067
 20
21.5991481847484
 11
145.3325516357339
 21
21.61404857868382
  0
LINE
  5
13B
  8
0
  6
CONTINUOUS
 62
    7
 10
145.3325516357339
 20
21.61404857868382
 11
145.3056916446029
 21
21.62865478334448
  0
LINE
  5
13C
  8
0
  6
CONTINUOUS
 62
    7
 10
145.3056916446029
 20
21.62865478334448
 11
145.2786737056589
 21
21.64296605596095
  0
LINE
  5
13D
  8
0
  6
CONTINUOUS
 62
    7
 10
145.2786737056589
 20
21.64296605596095
 11
145.2515020063471
 21
21.65698165376375
  0
LINE
  5
13E
  8
0
  6
CONTINUOUS
 62
    7
 10
145.2515020063471
 20
21.65698165376375
 11
145.2241807341128
 21
21.67070083398344
  0
LINE
  5
13F
  8
0
  6
CONTINUOUS
 62
    7
 10
145.2241807341128
 20
21.67070083398344
 11
145.1967140764011
 21
21.6841228538505
  0
LINE
  5
140
  8
0
  6
CONTINUOUS
 62
    7
 10
145.1967140764011
 20
21.6841228538505
 11
145.1691062206574
 21
21.69724697059549
  0
LINE
  5
141
  8
0
  6
CONTINUOUS
 62
    7
 10
145.1691062206574
 20
21.69724697059549
 11
145.1413613543268
 21
21.71007244144898
  0
LINE
  5
142
  8
0
  6
CONTINUOUS
 62
    7
 10
145.1413613543268
 20
21.71007244144898
 11
145.1134836648546
 21
21.72259852364149
  0
LINE
  5
143
  8
0
  6
CONTINUOUS
 62
    7
 10
145.1134836648546
 20
21.72259852364149
 11
145.085477339686
 21
21.73482447440352
  0
LINE
  5
144
  8
0
  6
CONTINUOUS
 62
    7
 10
145.085477339686
 20
21.73482447440352
 11
145.0573465662662
 21
21.74674955096563
  0
LINE
  5
145
  8
0
  6
CONTINUOUS
 62
    7
 10
145.0573465662662
 20
21.74674955096563
 11
145.0290953221401
 21
21.75837278240293
  0
LINE
  5
146
  8
0
  6
CONTINUOUS
 62
    7
 10
145.0290953221401
 20
21.75837278240293
 11
145.000726260727
 21
21.76969175850668
  0
LINE
  5
147
  8
0
  6
CONTINUOUS
 62
    7
 10
145.000726260727
 20
21.76969175850668
 11
144.9722415205019
 21
21.78070350933893
  0
LINE
  5
148
  8
0
  6
CONTINUOUS
 62
    7
 10
144.9722415205019
 20
21.78070350933893
 11
144.9436432387883
 21
21.79140506371035
  0
LINE
  5
149
  8
0
  6
CONTINUOUS
 62
    7
 10
144.9436432387883
 20
21.79140506371035
 11
144.9149335529099
 21
21.80179345043162
  0
LINE
  5
14A
  8
0
  6
CONTINUOUS
 62
    7
 10
144.9149335529099
 20
21.80179345043162
 11
144.8861146001903
 21
21.81186569831343
  0
LINE
  5
14B
  8
0
  6
CONTINUOUS
 62
    7
 10
144.8861146001903
 20
21.81186569831343
 11
144.8571885179531
 21
21.82161883616642
  0
LINE
  5
14C
  8
0
  6
CONTINUOUS
 62
    7
 10
144.8571885179531
 20
21.82161883616642
 11
144.8281574435218
 21
21.83104989280129
  0
LINE
  5
14D
  8
0
  6
CONTINUOUS
 62
    7
 10
144.8281574435218
 20
21.83104989280129
 11
144.79902351422
 21
21.84015589702871
  0
LINE
  5
14E
  8
0
  6
CONTINUOUS
 62
    7
 10
144.79902351422
 20
21.84015589702871
 11
144.7697890332241
 21
21.84893434854548
  0
LINE
  5
14F
  8
0
  6
CONTINUOUS
 62
    7
 10
144.7697890332241
 20
21.84893434854548
 11
144.7404573592475
 21
21.85738574391334
  0
LINE
  5
150
  8
0
  6
CONTINUOUS
 62
    7
 10
144.7404573592475
 20
21.85738574391334
 11
144.7110322648379
 21
21.86551175464496
  0
LINE
  5
151
  8
0
  6
CONTINUOUS
 62
    7
 10
144.7110322648379
 20
21.86551175464496
 11
144.6815175235148
 21
21.87331405501234
  0
LINE
  5
152
  8
0
  6
CONTINUOUS
 62
    7
 10
144.6815175235148
 20
21.87331405501234
 11
144.6519169087976
 21
21.88079431928742
  0
LINE
  5
153
  8
0
  6
CONTINUOUS
 62
    7
 10
144.6519169087976
 20
21.88079431928742
 11
144.622234194206
 21
21.88795422174223
  0
LINE
  5
154
  8
0
  6
CONTINUOUS
 62
    7
 10
144.622234194206
 20
21.88795422174223
 11
144.5924731532592
 21
21.89479543664869
  0
LINE
  5
155
  8
0
  6
CONTINUOUS
 62
    7
 10
144.5924731532592
 20
21.89479543664869
 11
144.5626375594768
 21
21.90131963827881
  0
LINE
  5
156
  8
0
  6
CONTINUOUS
 62
    7
 10
144.5626375594768
 20
21.90131963827881
 11
144.5327311863784
 21
21.90752850090459
  0
LINE
  5
157
  8
0
  6
CONTINUOUS
 62
    7
 10
144.5327311863784
 20
21.90752850090459
 11
144.5027578167099
 21
21.91342182967643
  0
LINE
  5
158
  8
0
  6
CONTINUOUS
 62
    7
 10
144.5027578167099
 20
21.91342182967643
 11
144.4727212787748
 21
21.91899020069157
  0
LINE
  5
159
  8
0
  6
CONTINUOUS
 62
    7
 10
144.4727212787748
 20
21.91899020069157
 11
144.442625414913
 21
21.92422134654923
  0
LINE
  5
15A
  8
0
  6
CONTINUOUS
 62
    7
 10
144.442625414913
 20
21.92422134654923
 11
144.4124740674683
 21
21.92910299905158
  0
LINE
  5
15B
  8
0
  6
CONTINUOUS
 62
    7
 10
144.4124740674683
 20
21.92910299905158
 11
144.3822710787845
 21
21.93362289000079
  0
LINE
  5
15C
  8
0
  6
CONTINUOUS
 62
    7
 10
144.3822710787845
 20
21.93362289000079
 11
144.3520202912053
 21
21.93776875119903
  0
LINE
  5
15D
  8
0
  6
CONTINUOUS
 62
    7
 10
144.3520202912053
 20
21.93776875119903
 11
144.3217255470747
 21
21.94152831444851
  0
LINE
  5
15E
  8
0
  6
CONTINUOUS
 62
    7
 10
144.3217255470747
 20
21.94152831444851
 11
144.2913906887363
 21
21.94488931155137
  0
LINE
  5
15F
  8
0
  6
CONTINUOUS
 62
    7
 10
144.2913906887363
 20
21.94488931155137
 11
144.2610195585339
 21
21.94783947432044
  0
LINE
  5
160
  8
0
  6
CONTINUOUS
 62
    7
 10
144.2610195585339
 20
21.94783947432044
 11
144.2306159577764
 21
21.95037670981742
  0
LINE
  5
161
  8
0
  6
CONTINUOUS
 62
    7
 10
144.2306159577764
 20
21.95037670981742
 11
144.200183528603
 21
21.95253839368218
  0
LINE
  5
162
  8
0
  6
CONTINUOUS
 62
    7
 10
144.200183528603
 20
21.95253839368218
 11
144.1697258745657
 21
21.95437146986873
  0
LINE
  5
163
  8
0
  6
CONTINUOUS
 62
    7
 10
144.1697258745657
 20
21.95437146986873
 11
144.1392465992165
 21
21.95592288233112
  0
LINE
  5
164
  8
0
  6
CONTINUOUS
 62
    7
 10
144.1392465992165
 20
21.95592288233112
 11
144.1087493061074
 21
21.95723957502338
  0
LINE
  5
165
  8
0
  6
CONTINUOUS
 62
    7
 10
144.1087493061074
 20
21.95723957502338
 11
144.0782375987903
 21
21.95836849189949
  0
LINE
  5
166
  8
0
  6
CONTINUOUS
 62
    7
 10
144.0782375987903
 20
21.95836849189949
 11
144.0477150808173
 21
21.95935657691355
  0
LINE
  5
167
  8
0
  6
CONTINUOUS
 62
    7
 10
144.0477150808173
 20
21.95935657691355
 11
144.0171853557403
 21
21.96025077401954
  0
LINE
  5
168
  8
0
  6
CONTINUOUS
 62
    7
 10
144.0171853557403
 20
21.96025077401954
 11
143.9866520271113
 21
21.96109802717152
  0
LINE
  5
169
  8
0
  6
CONTINUOUS
 62
    7
 10
151.8461742014805
 20
-7.839031953311932
 11
151.7880670744267
 21
-7.800991095062815
  0
LINE
  5
16A
  8
0
  6
CONTINUOUS
 62
    7
 10
151.7880670744267
 20
-7.800991095062815
 11
151.7300218634211
 21
-7.762858735474738
  0
LINE
  5
16B
  8
0
  6
CONTINUOUS
 62
    7
 10
151.7300218634211
 20
-7.762858735474738
 11
151.6721004845119
 21
-7.724543373208774
  0
LINE
  5
16C
  8
0
  6
CONTINUOUS
 62
    7
 10
151.6721004845119
 20
-7.724543373208774
 11
151.6143648537474
 21
-7.685953506925967
  0
LINE
  5
16D
  8
0
  6
CONTINUOUS
 62
    7
 10
151.6143648537474
 20
-7.685953506925967
 11
151.5568768870689
 21
-7.646997635454008
  0
LINE
  5
16E
  8
0
  6
CONTINUOUS
 62
    7
 10
151.5568768870689
 20
-7.646997635454008
 11
151.4996851772078
 21
-7.607605046337653
  0
LINE
  5
16F
  8
0
  6
CONTINUOUS
 62
    7
 10
151.4996851772078
 20
-7.607605046337653
 11
151.4427881894281
 21
-7.567783242935683
  0
LINE
  5
170
  8
0
  6
CONTINUOUS
 62
    7
 10
151.4427881894281
 20
-7.567783242935683
 11
151.3861726019952
 21
-7.527558120314251
  0
LINE
  5
171
  8
0
  6
CONTINUOUS
 62
    7
 10
151.3861726019952
 20
-7.527558120314251
 11
151.3298250931743
 21
-7.486955573539563
  0
LINE
  5
172
  8
0
  6
CONTINUOUS
 62
    7
 10
151.3298250931743
 20
-7.486955573539563
 11
151.2737323417917
 21
-7.446001496804965
  0
LINE
  5
173
  8
0
  6
CONTINUOUS
 62
    7
 10
151.2737323417917
 20
-7.446001496804965
 11
151.2178849486723
 21
-7.404715680836211
  0
LINE
  5
174
  8
0
  6
CONTINUOUS
 62
    7
 10
151.2178849486723
 20
-7.404715680836211
 11
151.1622868167186
 21
-7.363097215485871
  0
LINE
  5
175
  8
0
  6
CONTINUOUS
 62
    7
 10
151.1622868167186
 20
-7.363097215485871
 11
151.106944666284
 21
-7.321140806051575
  0
LINE
  5
176
  8
0
  6
CONTINUOUS
 62
    7
 10
151.106944666284
 20
-7.321140806051575
 11
151.0518652177217
 21
-7.278841157830918
  0
LINE
  5
177
  8
0
  6
CONTINUOUS
 62
    7
 10
151.0518652177217
 20
-7.278841157830918
 11
150.9970551904637
 21
-7.236192977552045
  0
LINE
  5
178
  8
0
  6
CONTINUOUS
 62
    7
 10
150.9970551904637
 20
-7.236192977552045
 11
150.942520061516
 21
-7.193192901237316
  0
LINE
  5
179
  8
0
  6
CONTINUOUS
 62
    7
 10
150.942520061516
 20
-7.193192901237316
 11
150.8882616097985
 21
-7.149843307460844
  0
LINE
  5
17A
  8
0
  6
CONTINUOUS
 62
    7
 10
150.8882616097985
 20
-7.149843307460844
 11
150.8342809292786
 21
-7.106147638420902
  0
LINE
  5
17B
  8
0
  6
CONTINUOUS
 62
    7
 10
150.8342809292786
 20
-7.106147638420902
 11
150.780579113924
 21
-7.062109336315803
  0
LINE
  5
17C
  8
0
  6
CONTINUOUS
 62
    7
 10
150.780579113924
 20
-7.062109336315803
 11
150.7271572583786
 21
-7.017731842278844
  0
LINE
  5
17D
  8
0
  6
CONTINUOUS
 62
    7
 10
150.7271572583786
 20
-7.017731842278844
 11
150.6740167685992
 21
-6.973018107205172
  0
LINE
  5
17E
  8
0
  6
CONTINUOUS
 62
    7
 10
150.6740167685992
 20
-6.973018107205172
 11
150.6211598547917
 21
-6.927969815503242
  0
LINE
  5
17F
  8
0
  6
CONTINUOUS
 62
    7
 10
150.6211598547917
 20
-6.927969815503242
 11
150.5685888552998
 21
-6.882588449797761
  0
LINE
  5
180
  8
0
  6
CONTINUOUS
 62
    7
 10
150.5685888552998
 20
-6.882588449797761
 11
150.5163061084669
 21
-6.836875492713422
  0
LINE
  5
181
  8
0
  6
CONTINUOUS
 62
    7
 10
150.5163061084669
 20
-6.836875492713422
 11
150.4643139517546
 21
-6.790832427761702
  0
LINE
  5
182
  8
0
  6
CONTINUOUS
 62
    7
 10
150.4643139517546
 20
-6.790832427761702
 11
150.4126145281666
 21
-6.744460933996531
  0
LINE
  5
183
  8
0
  6
CONTINUOUS
 62
    7
 10
150.4126145281666
 20
-6.744460933996531
 11
150.3612095430997
 21
-6.69776313051837
  0
LINE
  5
184
  8
0
  6
CONTINUOUS
 62
    7
 10
150.3612095430997
 20
-6.69776313051837
 11
150.3101006421551
 21
-6.650741196556879
  0
LINE
  5
185
  8
0
  6
CONTINUOUS
 62
    7
 10
150.3101006421551
 20
-6.650741196556879
 11
150.259289470934
 21
-6.603397311341722
  0
LINE
  5
186
  8
0
  6
CONTINUOUS
 62
    7
 10
150.259289470934
 20
-6.603397311341722
 11
150.2087776751113
 21
-6.555733655541295
  0
LINE
  5
187
  8
0
  6
CONTINUOUS
 62
    7
 10
150.2087776751113
 20
-6.555733655541295
 11
150.1585669101947
 21
-6.50775260154792
  0
LINE
  5
188
  8
0
  6
CONTINUOUS
 62
    7
 10
150.1585669101947
 20
-6.50775260154792
 11
150.108658851295
 21
-6.459456903994045
  0
LINE
  5
189
  8
0
  6
CONTINUOUS
 62
    7
 10
150.108658851295
 20
-6.459456903994045
 11
150.0590551758477
 21
-6.41084936284068
  0
LINE
  5
18A
  8
0
  6
CONTINUOUS
 62
    7
 10
150.0590551758477
 20
-6.41084936284068
 11
150.0097575612885
 21
-6.361932778048857
  0
LINE
  5
18B
  8
0
  6
CONTINUOUS
 62
    7
 10
150.0097575612885
 20
-6.361932778048857
 11
149.9607676814759
 21
-6.312709943055618
  0
LINE
  5
18C
  8
0
  6
CONTINUOUS
 62
    7
 10
149.9607676814759
 20
-6.312709943055618
 11
149.9120868652021
 21
-6.263183021948312
  0
LINE
  5
18D
  8
0
  6
CONTINUOUS
 62
    7
 10
149.9120868652021
 20
-6.263183021948312
 11
149.8637158137578
 21
-6.213353034346055
  0
LINE
  5
18E
  8
0
  6
CONTINUOUS
 62
    7
 10
149.8637158137578
 20
-6.213353034346055
 11
149.8156551619566
 21
-6.163220878623004
  0
LINE
  5
18F
  8
0
  6
CONTINUOUS
 62
    7
 10
149.8156551619566
 20
-6.163220878623004
 11
149.7679055446121
 21
-6.112787453153328
  0
LINE
  5
190
  8
0
  6
CONTINUOUS
 62
    7
 10
149.7679055446121
 20
-6.112787453153328
 11
149.7204676040358
 21
-6.062053661283237
  0
LINE
  5
191
  8
0
  6
CONTINUOUS
 62
    7
 10
149.7204676040358
 20
-6.062053661283237
 11
149.6733425976534
 21
-6.011020814240626
  0
LINE
  5
192
  8
0
  6
CONTINUOUS
 62
    7
 10
149.6733425976534
 20
-6.011020814240626
 11
149.6265328458588
 21
-5.959690928106785
  0
LINE
  5
193
  8
0
  6
CONTINUOUS
 62
    7
 10
149.6265328458588
 20
-5.959690928106785
 11
149.5800407746051
 21
-5.90806608895929
  0
LINE
  5
194
  8
0
  6
CONTINUOUS
 62
    7
 10
149.5800407746051
 20
-5.90806608895929
 11
149.5338688098453
 21
-5.856148382875768
  0
LINE
  5
195
  8
0
  6
CONTINUOUS
 62
    7
 10
149.5338688098453
 20
-5.856148382875768
 11
149.4880193775325
 21
-5.803939895933767
  0
LINE
  5
196
  8
0
  6
CONTINUOUS
 62
    7
 10
149.4880193775325
 20
-5.803939895933767
 11
149.4424949036197
 21
-5.751442714210911
  0
LINE
  5
197
  8
0
  6
CONTINUOUS
 62
    7
 10
149.4424949036197
 20
-5.751442714210911
 11
149.3972978140601
 21
-5.69865892378477
  0
LINE
  5
198
  8
0
  6
CONTINUOUS
 62
    7
 10
149.3972978140601
 20
-5.69865892378477
 11
149.3524305348068
 21
-5.645590610732928
  0
LINE
  5
199
  8
0
  6
CONTINUOUS
 62
    7
 10
149.3524305348068
 20
-5.645590610732928
 11
149.3078954918128
 21
-5.592239861132976
  0
LINE
  5
19A
  8
0
  6
CONTINUOUS
 62
    7
 10
149.3078954918128
 20
-5.592239861132976
 11
149.2636951110312
 21
-5.53860876106251
  0
LINE
  5
19B
  8
0
  6
CONTINUOUS
 62
    7
 10
149.2636951110312
 20
-5.53860876106251
 11
149.2198318184151
 21
-5.484699396599117
  0
LINE
  5
19C
  8
0
  6
CONTINUOUS
 62
    7
 10
149.2198318184151
 20
-5.484699396599117
 11
149.1763080399177
 21
-5.430513853820363
  0
LINE
  5
19D
  8
0
  6
CONTINUOUS
 62
    7
 10
149.1763080399177
 20
-5.430513853820363
 11
149.1331262014918
 21
-5.376054218803882
  0
LINE
  5
19E
  8
0
  6
CONTINUOUS
 62
    7
 10
149.1331262014918
 20
-5.376054218803882
 11
149.0902887290907
 21
-5.321322577627222
  0
LINE
  5
19F
  8
0
  6
CONTINUOUS
 62
    7
 10
149.0902887290907
 20
-5.321322577627222
 11
149.0477980486675
 21
-5.266321016367987
  0
LINE
  5
1A0
  8
0
  6
CONTINUOUS
 62
    7
 10
149.0477980486675
 20
-5.266321016367987
 11
149.0056565861752
 21
-5.211051621103767
  0
LINE
  5
1A1
  8
0
  6
CONTINUOUS
 62
    7
 10
149.0056565861752
 20
-5.211051621103767
 11
148.9638667675668
 21
-5.155516477912144
  0
LINE
  5
1A2
  8
0
  6
CONTINUOUS
 62
    7
 10
148.9638667675668
 20
-5.155516477912144
 11
148.9224310187956
 21
-5.099717672870717
  0
LINE
  5
1A3
  8
0
  6
CONTINUOUS
 62
    7
 10
148.9224310187956
 20
-5.099717672870717
 11
148.8813517658144
 21
-5.043657292057068
  0
LINE
  5
1A4
  8
0
  6
CONTINUOUS
 62
    7
 10
148.8813517658144
 20
-5.043657292057068
 11
148.8406314182532
 21
-4.987337426724941
  0
LINE
  5
1A5
  8
0
  6
CONTINUOUS
 62
    7
 10
148.8406314182532
 20
-4.987337426724941
 11
148.8002717733584
 21
-4.930760362315981
  0
LINE
  5
1A6
  8
0
  6
CONTINUOUS
 62
    7
 10
148.8002717733584
 20
-4.930760362315981
 11
148.7602738454722
 21
-4.87392863253225
  0
LINE
  5
1A7
  8
0
  6
CONTINUOUS
 62
    7
 10
148.7602738454722
 20
-4.87392863253225
 11
148.7206385978625
 21
-4.816844787271557
  0
LINE
  5
1A8
  8
0
  6
CONTINUOUS
 62
    7
 10
148.7206385978625
 20
-4.816844787271557
 11
148.6813669937974
 21
-4.759511376431679
  0
LINE
  5
1A9
  8
0
  6
CONTINUOUS
 62
    7
 10
148.6813669937974
 20
-4.759511376431679
 11
148.6424599965449
 21
-4.701930949910375
  0
LINE
  5
1AA
  8
0
  6
CONTINUOUS
 62
    7
 10
148.6424599965449
 20
-4.701930949910375
 11
148.6039185693731
 21
-4.644106057605451
  0
LINE
  5
1AB
  8
0
  6
CONTINUOUS
 62
    7
 10
148.6039185693731
 20
-4.644106057605451
 11
148.5657436755499
 21
-4.586039249414671
  0
LINE
  5
1AC
  8
0
  6
CONTINUOUS
 62
    7
 10
148.5657436755499
 20
-4.586039249414671
 11
148.5279362783434
 21
-4.527733075235834
  0
LINE
  5
1AD
  8
0
  6
CONTINUOUS
 62
    7
 10
148.5279362783434
 20
-4.527733075235834
 11
148.4904973410217
 21
-4.4691900849667
  0
LINE
  5
1AE
  8
0
  6
CONTINUOUS
 62
    7
 10
148.4904973410217
 20
-4.4691900849667
 11
148.4534278268527
 21
-4.410412828505057
  0
LINE
  5
1AF
  8
0
  6
CONTINUOUS
 62
    7
 10
148.4534278268527
 20
-4.410412828505057
 11
148.4167286991044
 21
-4.351403855748696
  0
LINE
  5
1B0
  8
0
  6
CONTINUOUS
 62
    7
 10
148.4167286991044
 20
-4.351403855748696
 11
148.380400921045
 21
-4.292165716595386
  0
LINE
  5
1B1
  8
0
  6
CONTINUOUS
 62
    7
 10
148.380400921045
 20
-4.292165716595386
 11
148.3444454559424
 21
-4.232700960942901
  0
LINE
  5
1B2
  8
0
  6
CONTINUOUS
 62
    7
 10
148.3444454559424
 20
-4.232700960942901
 11
148.3088632670647
 21
-4.173012138689042
  0
LINE
  5
1B3
  8
0
  6
CONTINUOUS
 62
    7
 10
148.3088632670647
 20
-4.173012138689042
 11
148.2736553176798
 21
-4.11310179973157
  0
LINE
  5
1B4
  8
0
  6
CONTINUOUS
 62
    7
 10
148.2736553176798
 20
-4.11310179973157
 11
148.2388225710558
 21
-4.05297249396829
  0
LINE
  5
1B5
  8
0
  6
CONTINUOUS
 62
    7
 10
148.2388225710558
 20
-4.05297249396829
 11
148.2043659904608
 21
-3.992626771296945
  0
LINE
  5
1B6
  8
0
  6
CONTINUOUS
 62
    7
 10
148.2043659904608
 20
-3.992626771296945
 11
148.1702865391628
 21
-3.932067181615353
  0
LINE
  5
1B7
  8
0
  6
CONTINUOUS
 62
    7
 10
148.1702865391628
 20
-3.932067181615353
 11
148.1365851804298
 21
-3.871296274821274
  0
LINE
  5
1B8
  8
0
  6
CONTINUOUS
 62
    7
 10
148.1365851804298
 20
-3.871296274821274
 11
148.1032628925801
 21
-3.81031659324
  0
LINE
  5
1B9
  8
0
  6
CONTINUOUS
 62
    7
 10
148.1032628925801
 20
-3.81031659324
 11
148.0703209823984
 21
-3.749130513931215
  0
LINE
  5
1BA
  8
0
  6
CONTINUOUS
 62
    7
 10
148.0703209823984
 20
-3.749130513931215
 11
148.0377610755966
 21
-3.687740253488304
  0
LINE
  5
1BB
  8
0
  6
CONTINUOUS
 62
    7
 10
148.0377610755966
 20
-3.687740253488304
 11
148.0055848110291
 21
-3.62614802189226
  0
LINE
  5
1BC
  8
0
  6
CONTINUOUS
 62
    7
 10
148.0055848110291
 20
-3.62614802189226
 11
147.9737938275499
 21
-3.564356029124072
  0
LINE
  5
1BD
  8
0
  6
CONTINUOUS
 62
    7
 10
147.9737938275499
 20
-3.564356029124072
 11
147.9423897640133
 21
-3.502366485164721
  0
LINE
  5
1BE
  8
0
  6
CONTINUOUS
 62
    7
 10
147.9423897640133
 20
-3.502366485164721
 11
147.9113742592737
 21
-3.440181599995185
  0
LINE
  5
1BF
  8
0
  6
CONTINUOUS
 62
    7
 10
147.9113742592737
 20
-3.440181599995185
 11
147.880748952185
 21
-3.377803583596484
  0
LINE
  5
1C0
  8
0
  6
CONTINUOUS
 62
    7
 10
147.880748952185
 20
-3.377803583596484
 11
147.8505154816016
 21
-3.315234645949584
  0
LINE
  5
1C1
  8
0
  6
CONTINUOUS
 62
    7
 10
147.8505154816016
 20
-3.315234645949584
 11
147.8206754863778
 21
-3.252476997035485
  0
LINE
  5
1C2
  8
0
  6
CONTINUOUS
 62
    7
 10
147.8206754863778
 20
-3.252476997035485
 11
147.7912306053676
 21
-3.189532846835156
  0
LINE
  5
1C3
  8
0
  6
CONTINUOUS
 62
    7
 10
147.7912306053676
 20
-3.189532846835156
 11
147.7621824774254
 21
-3.126404405329609
  0
LINE
  5
1C4
  8
0
  6
CONTINUOUS
 62
    7
 10
147.7621824774254
 20
-3.126404405329609
 11
147.7335327414053
 21
-3.063093882499825
  0
LINE
  5
1C5
  8
0
  6
CONTINUOUS
 62
    7
 10
147.7335327414053
 20
-3.063093882499825
 11
147.7052830361615
 21
-2.999603488326793
  0
LINE
  5
1C6
  8
0
  6
CONTINUOUS
 62
    7
 10
147.7052830361615
 20
-2.999603488326793
 11
147.6774350005484
 21
-2.935935432791494
  0
LINE
  5
1C7
  8
0
  6
CONTINUOUS
 62
    7
 10
147.6774350005484
 20
-2.935935432791494
 11
147.64999027342
 21
-2.872091925874922
  0
LINE
  5
1C8
  8
0
  6
CONTINUOUS
 62
    7
 10
147.64999027342
 20
-2.872091925874922
 11
147.6229504936306
 21
-2.808075177558071
  0
LINE
  5
1C9
  8
0
  6
CONTINUOUS
 62
    7
 10
147.6229504936306
 20
-2.808075177558071
 11
147.5963173000344
 21
-2.743887397821934
  0
LINE
  5
1CA
  8
0
  6
CONTINUOUS
 62
    7
 10
147.5963173000344
 20
-2.743887397821934
 11
147.5700923314857
 21
-2.679530796647492
  0
LINE
  5
1CB
  8
0
  6
CONTINUOUS
 62
    7
 10
147.5700923314857
 20
-2.679530796647492
 11
147.5442772268387
 21
-2.615007584015717
  0
LINE
  5
1CC
  8
0
  6
CONTINUOUS
 62
    7
 10
147.5442772268387
 20
-2.615007584015717
 11
147.5188735737117
 21
-2.550320006605254
  0
LINE
  5
1CD
  8
0
  6
CONTINUOUS
 62
    7
 10
147.5188735737117
 20
-2.550320006605254
 11
147.4938822692708
 21
-2.485470805630892
  0
LINE
  5
1CE
  8
0
  6
CONTINUOUS
 62
    7
 10
147.4938822692708
 20
-2.485470805630892
 11
147.4693037156261
 21
-2.42046307689127
  0
LINE
  5
1CF
  8
0
  6
CONTINUOUS
 62
    7
 10
147.4693037156261
 20
-2.42046307689127
 11
147.4451383040917
 21
-2.355299923917455
  0
LINE
  5
1D0
  8
0
  6
CONTINUOUS
 62
    7
 10
147.4451383040917
 20
-2.355299923917455
 11
147.4213864259817
 21
-2.289984450240511
  0
LINE
  5
1D1
  8
0
  6
CONTINUOUS
 62
    7
 10
147.4213864259817
 20
-2.289984450240511
 11
147.3980484726104
 21
-2.224519759391483
  0
LINE
  5
1D2
  8
0
  6
CONTINUOUS
 62
    7
 10
147.3980484726104
 20
-2.224519759391483
 11
147.375124835292
 21
-2.158908954901482
  0
LINE
  5
1D3
  8
0
  6
CONTINUOUS
 62
    7
 10
147.375124835292
 20
-2.158908954901482
 11
147.3526159053406
 21
-2.093155140301528
  0
LINE
  5
1D4
  8
0
  6
CONTINUOUS
 62
    7
 10
147.3526159053406
 20
-2.093155140301528
 11
147.3305220740704
 21
-2.027261419122734
  0
LINE
  5
1D5
  8
0
  6
CONTINUOUS
 62
    7
 10
147.3305220740704
 20
-2.027261419122734
 11
147.3088437327957
 21
-1.96123089489613
  0
LINE
  5
1D6
  8
0
  6
CONTINUOUS
 62
    7
 10
147.3088437327957
 20
-1.96123089489613
 11
147.2875812728305
 21
-1.895066671152817
  0
LINE
  5
1D7
  8
0
  6
CONTINUOUS
 62
    7
 10
147.2875812728305
 20
-1.895066671152817
 11
147.2667350854891
 21
-1.828771851423827
  0
LINE
  5
1D8
  8
0
  6
CONTINUOUS
 62
    7
 10
147.2667350854891
 20
-1.828771851423827
 11
147.2463055620857
 21
-1.762349539240237
  0
LINE
  5
1D9
  8
0
  6
CONTINUOUS
 62
    7
 10
147.2463055620857
 20
-1.762349539240237
 11
147.2262930939345
 21
-1.695802838133136
  0
LINE
  5
1DA
  8
0
  6
CONTINUOUS
 62
    7
 10
147.2262930939345
 20
-1.695802838133136
 11
147.2066980723495
 21
-1.629134851633568
  0
LINE
  5
1DB
  8
0
  6
CONTINUOUS
 62
    7
 10
147.2066980723495
 20
-1.629134851633568
 11
147.1875208886451
 21
-1.562348683272609
  0
LINE
  5
1DC
  8
0
  6
CONTINUOUS
 62
    7
 10
147.1875208886451
 20
-1.562348683272609
 11
147.1687619341354
 21
-1.495447436581314
  0
LINE
  5
1DD
  8
0
  6
CONTINUOUS
 62
    7
 10
147.1687619341354
 20
-1.495447436581314
 11
147.1504216001346
 21
-1.42843421509076
  0
LINE
  5
1DE
  8
0
  6
CONTINUOUS
 62
    7
 10
147.1504216001346
 20
-1.42843421509076
 11
147.1325002779569
 21
-1.361312122332026
  0
LINE
  5
1DF
  8
0
  6
CONTINUOUS
 62
    7
 10
147.1325002779569
 20
-1.361312122332026
 11
147.1149983589165
 21
-1.294084261836165
  0
LINE
  5
1E0
  8
0
  6
CONTINUOUS
 62
    7
 10
147.1149983589165
 20
-1.294084261836165
 11
147.0979162556731
 21
-1.226753644834203
  0
LINE
  5
1E1
  8
0
  6
CONTINUOUS
 62
    7
 10
147.0979162556731
 20
-1.226753644834203
 11
147.0812545768334
 21
-1.159322435264406
  0
LINE
  5
1E2
  8
0
  6
CONTINUOUS
 62
    7
 10
147.0812545768334
 20
-1.159322435264406
 11
147.065014036372
 21
-1.091792341445528
  0
LINE
  5
1E3
  8
0
  6
CONTINUOUS
 62
    7
 10
147.065014036372
 20
-1.091792341445528
 11
147.0491953492769
 21
-1.024165067313338
  0
LINE
  5
1E4
  8
0
  6
CONTINUOUS
 62
    7
 10
147.0491953492769
 20
-1.024165067313338
 11
147.0337992305363
 21
-0.9564423168036376
  0
LINE
  5
1E5
  8
0
  6
CONTINUOUS
 62
    7
 10
147.0337992305363
 20
-0.9564423168036376
 11
147.0188263951382
 21
-0.8886257938522084
  0
LINE
  5
1E6
  8
0
  6
CONTINUOUS
 62
    7
 10
147.0188263951382
 20
-0.8886257938522084
 11
147.0042775580707
 21
-0.8207172023948194
  0
LINE
  5
1E7
  8
0
  6
CONTINUOUS
 62
    7
 10
147.0042775580707
 20
-0.8207172023948194
 11
146.9901534343219
 21
-0.7527182463672507
  0
LINE
  5
1E8
  8
0
  6
CONTINUOUS
 62
    7
 10
146.9901534343219
 20
-0.7527182463672507
 11
146.9764548582901
 21
-0.6846307180149019
  0
LINE
  5
1E9
  8
0
  6
CONTINUOUS
 62
    7
 10
146.9764548582901
 20
-0.6846307180149019
 11
146.9631836407714
 21
-0.616457131677529
  0
LINE
  5
1EA
  8
0
  6
CONTINUOUS
 62
    7
 10
146.9631836407714
 20
-0.616457131677529
 11
146.9503420698284
 21
-0.5482003546565568
  0
LINE
  5
1EB
  8
0
  6
CONTINUOUS
 62
    7
 10
146.9503420698284
 20
-0.5482003546565568
 11
146.9379324367674
 21
-0.4798632566525359
  0
LINE
  5
1EC
  8
0
  6
CONTINUOUS
 62
    7
 10
146.9379324367674
 20
-0.4798632566525359
 11
146.9259570328949
 21
-0.411448707366096
  0
LINE
  5
1ED
  8
0
  6
CONTINUOUS
 62
    7
 10
146.9259570328949
 20
-0.411448707366096
 11
146.9144181495174
 21
-0.3429595764978329
  0
LINE
  5
1EE
  8
0
  6
CONTINUOUS
 62
    7
 10
146.9144181495174
 20
-0.3429595764978329
 11
146.9033180779414
 21
-0.2743987337483312
  0
LINE
  5
1EF
  8
0
  6
CONTINUOUS
 62
    7
 10
146.9033180779414
 20
-0.2743987337483312
 11
146.8926591094734
 21
-0.2057690488181866
  0
LINE
  5
1F0
  8
0
  6
CONTINUOUS
 62
    7
 10
146.8926591094734
 20
-0.2057690488181866
 11
146.8824428681755
 21
-0.1370733769658864
  0
LINE
  5
1F1
  8
0
  6
CONTINUOUS
 62
    7
 10
146.8824428681755
 20
-0.1370733769658864
 11
146.8726665342049
 21
-0.06831447726428999
  0
LINE
  5
1F2
  8
0
  6
CONTINUOUS
 62
    7
 10
146.8726665342049
 20
-0.06831447726428999
 11
146.8633254718824
 21
0.0005049305164506084
  0
LINE
  5
1F3
  8
0
  6
CONTINUOUS
 62
    7
 10
146.8633254718824
 20
0.0005049305164506084
 11
146.8544150401241
 21
0.06938212672320082
  0
LINE
  5
1F4
  8
0
  6
CONTINUOUS
 62
    7
 10
146.8544150401241
 20
0.06938212672320082
 11
146.8459305978459
 21
0.1383143917027696
  0
LINE
  5
1F5
  8
0
  6
CONTINUOUS
 62
    7
 10
146.8459305978459
 20
0.1383143917027696
 11
146.8378675039636
 21
0.2072990058019886
  0
LINE
  5
1F6
  8
0
  6
CONTINUOUS
 62
    7
 10
146.8378675039636
 20
0.2072990058019886
 11
146.8302211173934
 21
0.2763332493677005
  0
LINE
  5
1F7
  8
0
  6
CONTINUOUS
 62
    7
 10
146.8302211173934
 20
0.2763332493677005
 11
146.8229867970511
 21
0.3454144027467257
  0
LINE
  5
1F8
  8
0
  6
CONTINUOUS
 62
    7
 10
146.8229867970511
 20
0.3454144027467257
 11
146.8161627349818
 21
0.4145397341418003
  0
LINE
  5
1F9
  8
0
  6
CONTINUOUS
 62
    7
 10
146.8161627349818
 20
0.4145397341418003
 11
146.8097621740555
 21
0.4837064472407831
  0
LINE
  5
1FA
  8
0
  6
CONTINUOUS
 62
    7
 10
146.8097621740555
 20
0.4837064472407831
 11
146.8038033356983
 21
0.5529117243911206
  0
LINE
  5
1FB
  8
0
  6
CONTINUOUS
 62
    7
 10
146.8038033356983
 20
0.5529117243911206
 11
146.7983044445123
 21
0.6221527479266221
  0
LINE
  5
1FC
  8
0
  6
CONTINUOUS
 62
    7
 10
146.7983044445123
 20
0.6221527479266221
 11
146.7932837250994
 21
0.6914267001811646
  0
LINE
  5
1FD
  8
0
  6
CONTINUOUS
 62
    7
 10
146.7932837250994
 20
0.6914267001811646
 11
146.7887594020618
 21
0.7607307634885572
  0
LINE
  5
1FE
  8
0
  6
CONTINUOUS
 62
    7
 10
146.7887594020618
 20
0.7607307634885572
 11
146.7847497000014
 21
0.8300621201826429
  0
LINE
  5
1FF
  8
0
  6
CONTINUOUS
 62
    7
 10
146.7847497000014
 20
0.8300621201826429
 11
146.7812728435203
 21
0.8994179525972537
  0
LINE
  5
200
  8
0
  6
CONTINUOUS
 62
    7
 10
146.7812728435203
 20
0.8994179525972537
 11
146.7783338247871
 21
0.9687954598382539
  0
LINE
  5
201
  8
0
  6
CONTINUOUS
 62
    7
 10
146.7783338247871
 20
0.9687954598382539
 11
146.77587941915
 21
1.038191914801029
  0
LINE
  5
202
  8
0
  6
CONTINUOUS
 62
    7
 10
146.77587941915
 20
1.038191914801029
 11
146.7738403965654
 21
1.107604610667625
  0
LINE
  5
203
  8
0
  6
CONTINUOUS
 62
    7
 10
146.7738403965654
 20
1.107604610667625
 11
146.7721475265245
 21
1.177030840620795
  0
LINE
  5
204
  8
0
  6
CONTINUOUS
 62
    7
 10
146.7721475265245
 20
1.177030840620795
 11
146.7707315785185
 21
1.246467897843204
  0
LINE
  5
205
  8
0
  6
CONTINUOUS
 62
    7
 10
146.7707315785185
 20
1.246467897843204
 11
146.7695233220387
 21
1.315913075517518
  0
LINE
  5
206
  8
0
  6
CONTINUOUS
 62
    7
 10
146.7695233220387
 20
1.315913075517518
 11
146.7684535265764
 21
1.385363666826458
  0
LINE
  5
207
  8
0
  6
CONTINUOUS
 62
    7
 10
146.7684535265764
 20
1.385363666826458
 11
146.7674529616229
 21
1.454816964952698
  0
LINE
  5
208
  8
0
  6
CONTINUOUS
 62
    7
 10
152.0207248507626
 20
-7.691367011590004
 11
152.0160151024008
 21
-7.694876447878973
  0
LINE
  5
209
  8
0
  6
CONTINUOUS
 62
    7
 10
152.0160151024008
 20
-7.694876447878973
 11
152.0113065910963
 21
-7.698387347157539
  0
LINE
  5
20A
  8
0
  6
CONTINUOUS
 62
    7
 10
152.0113065910963
 20
-7.698387347157539
 11
152.0066005539065
 21
-7.701901172415281
  0
LINE
  5
20B
  8
0
  6
CONTINUOUS
 62
    7
 10
152.0066005539065
 20
-7.701901172415281
 11
152.0018982278888
 21
-7.705419386641795
  0
LINE
  5
20C
  8
0
  6
CONTINUOUS
 62
    7
 10
152.0018982278888
 20
-7.705419386641795
 11
151.9972008501005
 21
-7.70894345282667
  0
LINE
  5
20D
  8
0
  6
CONTINUOUS
 62
    7
 10
151.9972008501005
 20
-7.70894345282667
 11
151.9925096575991
 21
-7.71247483395952
  0
LINE
  5
20E
  8
0
  6
CONTINUOUS
 62
    7
 10
151.9925096575991
 20
-7.71247483395952
 11
151.9878258874418
 21
-7.7160149930299
  0
LINE
  5
20F
  8
0
  6
CONTINUOUS
 62
    7
 10
151.9878258874418
 20
-7.7160149930299
 11
151.9831507766861
 21
-7.719565393027435
  0
LINE
  5
210
  8
0
  6
CONTINUOUS
 62
    7
 10
151.9831507766861
 20
-7.719565393027435
 11
151.9784855623892
 21
-7.723127496941691
  0
LINE
  5
211
  8
0
  6
CONTINUOUS
 62
    7
 10
151.9784855623892
 20
-7.723127496941691
 11
151.9738314816086
 21
-7.726702767762272
  0
LINE
  5
212
  8
0
  6
CONTINUOUS
 62
    7
 10
151.9738314816086
 20
-7.726702767762272
 11
151.9691897714017
 21
-7.730292668478754
  0
LINE
  5
213
  8
0
  6
CONTINUOUS
 62
    7
 10
151.9691897714017
 20
-7.730292668478754
 11
151.9645616688257
 21
-7.733898662080751
  0
LINE
  5
214
  8
0
  6
CONTINUOUS
 62
    7
 10
151.9645616688257
 20
-7.733898662080751
 11
151.9599484109381
 21
-7.737522211557841
  0
LINE
  5
215
  8
0
  6
CONTINUOUS
 62
    7
 10
151.9599484109381
 20
-7.737522211557841
 11
151.9553512347962
 21
-7.741164779899622
  0
LINE
  5
216
  8
0
  6
CONTINUOUS
 62
    7
 10
151.9553512347962
 20
-7.741164779899622
 11
151.9507713774574
 21
-7.744827830095675
  0
LINE
  5
217
  8
0
  6
CONTINUOUS
 62
    7
 10
151.9507713774574
 20
-7.744827830095675
 11
151.9462100759789
 21
-7.748512825135598
  0
LINE
  5
218
  8
0
  6
CONTINUOUS
 62
    7
 10
151.9462100759789
 20
-7.748512825135598
 11
151.9416685674183
 21
-7.75222122800898
  0
LINE
  5
219
  8
0
  6
CONTINUOUS
 62
    7
 10
151.9416685674183
 20
-7.75222122800898
 11
151.9371480888329
 21
-7.755954501705412
  0
LINE
  5
21A
  8
0
  6
CONTINUOUS
 62
    7
 10
151.9371480888329
 20
-7.755954501705412
 11
151.9326498772799
 21
-7.759714109214495
  0
LINE
  5
21B
  8
0
  6
CONTINUOUS
 62
    7
 10
151.9326498772799
 20
-7.759714109214495
 11
151.9281750760902
 21
-7.763501402681126
  0
LINE
  5
21C
  8
0
  6
CONTINUOUS
 62
    7
 10
151.9281750760902
 20
-7.763501402681126
 11
151.9237234878096
 21
-7.767316148589043
  0
LINE
  5
21D
  8
0
  6
CONTINUOUS
 62
    7
 10
151.9237234878096
 20
-7.767316148589043
 11
151.9192939134925
 21
-7.771156929020847
  0
LINE
  5
21E
  8
0
  6
CONTINUOUS
 62
    7
 10
151.9192939134925
 20
-7.771156929020847
 11
151.914885130141
 21
-7.775022297614067
  0
LINE
  5
21F
  8
0
  6
CONTINUOUS
 62
    7
 10
151.914885130141
 20
-7.775022297614067
 11
151.910495914757
 21
-7.778910808006291
  0
LINE
  5
220
  8
0
  6
CONTINUOUS
 62
    7
 10
151.910495914757
 20
-7.778910808006291
 11
151.9061250443425
 21
-7.782821013835081
  0
LINE
  5
221
  8
0
  6
CONTINUOUS
 62
    7
 10
151.9061250443425
 20
-7.782821013835081
 11
151.9017712958996
 21
-7.786751468737987
  0
LINE
  5
222
  8
0
  6
CONTINUOUS
 62
    7
 10
151.9017712958996
 20
-7.786751468737987
 11
151.8974334464304
 21
-7.790700726352568
  0
LINE
  5
223
  8
0
  6
CONTINUOUS
 62
    7
 10
151.8974334464304
 20
-7.790700726352568
 11
151.8931102729368
 21
-7.794667340316417
  0
LINE
  5
224
  8
0
  6
CONTINUOUS
 62
    7
 10
151.8931102729368
 20
-7.794667340316417
 11
151.8888005524209
 21
-7.79864986426707
  0
LINE
  5
225
  8
0
  6
CONTINUOUS
 62
    7
 10
151.8888005524209
 20
-7.79864986426707
 11
151.8845030618847
 21
-7.802646851842083
  0
LINE
  5
226
  8
0
  6
CONTINUOUS
 62
    7
 10
151.8845030618847
 20
-7.802646851842083
 11
151.8802165783302
 21
-7.806656856679045
  0
LINE
  5
227
  8
0
  6
CONTINUOUS
 62
    7
 10
151.8802165783302
 20
-7.806656856679045
 11
151.8759398787595
 21
-7.810678432415502
  0
LINE
  5
228
  8
0
  6
CONTINUOUS
 62
    7
 10
151.8759398787595
 20
-7.810678432415502
 11
151.8716717401746
 21
-7.814710132689025
  0
LINE
  5
229
  8
0
  6
CONTINUOUS
 62
    7
 10
151.8716717401746
 20
-7.814710132689025
 11
151.8674109395775
 21
-7.818750511137163
  0
LINE
  5
22A
  8
0
  6
CONTINUOUS
 62
    7
 10
151.8674109395775
 20
-7.818750511137163
 11
151.8631562539703
 21
-7.822798121397491
  0
LINE
  5
22B
  8
0
  6
CONTINUOUS
 62
    7
 10
151.8631562539703
 20
-7.822798121397491
 11
151.8589064603549
 21
-7.826851517107573
  0
LINE
  5
22C
  8
0
  6
CONTINUOUS
 62
    7
 10
151.8589064603549
 20
-7.826851517107573
 11
151.8546603357335
 21
-7.830909251904962
  0
LINE
  5
22D
  8
0
  6
CONTINUOUS
 62
    7
 10
151.8546603357335
 20
-7.830909251904962
 11
151.850416657108
 21
-7.834969879427227
  0
LINE
  5
22E
  8
0
  6
CONTINUOUS
 62
    7
 10
151.850416657108
 20
-7.834969879427227
 11
151.8461742014805
 21
-7.839031953311932
  0
LINE
  5
22F
  8
0
  6
CONTINUOUS
 62
    7
 10
164.4933890990627
 20
-12.3684763224305
 11
164.4928649850292
 21
-12.33603744537647
  0
LINE
  5
230
  8
0
  6
CONTINUOUS
 62
    7
 10
164.4928649850292
 20
-12.33603744537647
 11
164.4922545592923
 21
-12.30360231157057
  0
LINE
  5
231
  8
0
  6
CONTINUOUS
 62
    7
 10
164.4922545592923
 20
-12.30360231157057
 11
164.4914715101483
 21
-12.27117466426093
  0
LINE
  5
232
  8
0
  6
CONTINUOUS
 62
    7
 10
164.4914715101483
 20
-12.27117466426093
 11
164.4904295258939
 21
-12.23875824669567
  0
LINE
  5
233
  8
0
  6
CONTINUOUS
 62
    7
 10
164.4904295258939
 20
-12.23875824669567
 11
164.4890422948256
 21
-12.20635680212292
  0
LINE
  5
234
  8
0
  6
CONTINUOUS
 62
    7
 10
164.4890422948256
 20
-12.20635680212292
 11
164.4872345793432
 21
-12.17397410297819
  0
LINE
  5
235
  8
0
  6
CONTINUOUS
 62
    7
 10
164.4872345793432
 20
-12.17397410297819
 11
164.4850010435389
 21
-12.14161410593281
  0
LINE
  5
236
  8
0
  6
CONTINUOUS
 62
    7
 10
164.4850010435389
 20
-12.14161410593281
 11
164.4823635510297
 21
-12.10928083934632
  0
LINE
  5
237
  8
0
  6
CONTINUOUS
 62
    7
 10
164.4823635510297
 20
-12.10928083934632
 11
164.4793440264504
 21
-12.0769783317391
  0
LINE
  5
238
  8
0
  6
CONTINUOUS
 62
    7
 10
164.4793440264504
 20
-12.0769783317391
 11
164.4759643944359
 21
-12.04471061163152
  0
LINE
  5
239
  8
0
  6
CONTINUOUS
 62
    7
 10
164.4759643944359
 20
-12.04471061163152
 11
164.4722446768031
 21
-12.0124817105448
  0
LINE
  5
23A
  8
0
  6
CONTINUOUS
 62
    7
 10
164.4722446768031
 20
-12.0124817105448
 11
164.4681877528235
 21
-11.98029568703486
  0
LINE
  5
23B
  8
0
  6
CONTINUOUS
 62
    7
 10
164.4681877528235
 20
-11.98029568703486
 11
164.4637874227062
 21
-11.94815661397582
  0
LINE
  5
23C
  8
0
  6
CONTINUOUS
 62
    7
 10
164.4637874227062
 20
-11.94815661397582
 11
164.4590374037557
 21
-11.91606856437252
  0
LINE
  5
23D
  8
0
  6
CONTINUOUS
 62
    7
 10
164.4590374037557
 20
-11.91606856437252
 11
164.4539314132769
 21
-11.88403561122981
  0
LINE
  5
23E
  8
0
  6
CONTINUOUS
 62
    7
 10
164.4539314132769
 20
-11.88403561122981
 11
164.4484635777146
 21
-11.85206182477525
  0
LINE
  5
23F
  8
0
  6
CONTINUOUS
 62
    7
 10
164.4484635777146
 20
-11.85206182477525
 11
164.4426330163526
 21
-11.8201512413445
  0
LINE
  5
240
  8
0
  6
CONTINUOUS
 62
    7
 10
164.4426330163526
 20
-11.8201512413445
 11
164.4364421856795
 21
-11.78830787461992
  0
LINE
  5
241
  8
0
  6
CONTINUOUS
 62
    7
 10
164.4364421856795
 20
-11.78830787461992
 11
164.4298936032566
 21
-11.7565357378693
  0
LINE
  5
242
  8
0
  6
CONTINUOUS
 62
    7
 10
164.4298936032566
 20
-11.7565357378693
 11
164.4229897866454
 21
-11.72483884436043
  0
LINE
  5
243
  8
0
  6
CONTINUOUS
 62
    7
 10
164.4229897866454
 20
-11.72483884436043
 11
164.4157332087389
 21
-11.69322119470438
  0
LINE
  5
244
  8
0
  6
CONTINUOUS
 62
    7
 10
164.4157332087389
 20
-11.69322119470438
 11
164.408125602031
 21
-11.66168657972021
  0
LINE
  5
245
  8
0
  6
CONTINUOUS
 62
    7
 10
164.408125602031
 20
-11.66168657972021
 11
164.4001680898117
 21
-11.63023861760928
  0
LINE
  5
246
  8
0
  6
CONTINUOUS
 62
    7
 10
164.4001680898117
 20
-11.63023861760928
 11
164.3918617772549
 21
-11.59888092143975
  0
LINE
  5
247
  8
0
  6
CONTINUOUS
 62
    7
 10
164.3918617772549
 20
-11.59888092143975
 11
164.3832077695347
 21
-11.56761710427979
  0
LINE
  5
248
  8
0
  6
CONTINUOUS
 62
    7
 10
164.3832077695347
 20
-11.56761710427979
 11
164.3742072113411
 21
-11.53645078082784
  0
LINE
  5
249
  8
0
  6
CONTINUOUS
 62
    7
 10
164.3742072113411
 20
-11.53645078082784
 11
164.3648622138011
 21
-11.50538560565304
  0
LINE
  5
24A
  8
0
  6
CONTINUOUS
 62
    7
 10
164.3648622138011
 20
-11.50538560565304
 11
164.3551758875906
 21
-11.47442527456133
  0
LINE
  5
24B
  8
0
  6
CONTINUOUS
 62
    7
 10
164.3551758875906
 20
-11.47442527456133
 11
164.3451513895261
 21
-11.44357348526215
  0
LINE
  5
24C
  8
0
  6
CONTINUOUS
 62
    7
 10
164.3451513895261
 20
-11.44357348526215
 11
164.334791876424
 21
-11.41283393546496
  0
LINE
  5
24D
  8
0
  6
CONTINUOUS
 62
    7
 10
164.334791876424
 20
-11.41283393546496
 11
164.3241004866946
 21
-11.38221030234689
  0
LINE
  5
24E
  8
0
  6
CONTINUOUS
 62
    7
 10
164.3241004866946
 20
-11.38221030234689
 11
164.3130795220578
 21
-11.35170532973289
  0
LINE
  5
24F
  8
0
  6
CONTINUOUS
 62
    7
 10
164.3130795220578
 20
-11.35170532973289
 11
164.301730121541
 21
-11.32132046443196
  0
LINE
  5
250
  8
0
  6
CONTINUOUS
 62
    7
 10
164.301730121541
 20
-11.32132046443196
 11
164.2900533383448
 21
-11.29105705751059
  0
LINE
  5
251
  8
0
  6
CONTINUOUS
 62
    7
 10
164.2900533383448
 20
-11.29105705751059
 11
164.2780502256697
 21
-11.26091646003521
  0
LINE
  5
252
  8
0
  6
CONTINUOUS
 62
    7
 10
164.2780502256697
 20
-11.26091646003521
 11
164.2657218367105
 21
-11.23090002882634
  0
LINE
  5
253
  8
0
  6
CONTINUOUS
 62
    7
 10
164.2657218367105
 20
-11.23090002882634
 11
164.253069223748
 21
-11.20101007184896
  0
LINE
  5
254
  8
0
  6
CONTINUOUS
 62
    7
 10
164.253069223748
 20
-11.20101007184896
 11
164.2400934371372
 21
-11.17125090033751
  0
LINE
  5
255
  8
0
  6
CONTINUOUS
 62
    7
 10
164.2400934371372
 20
-11.17125090033751
 11
164.2267955269895
 21
-11.14162707906878
  0
LINE
  5
256
  8
0
  6
CONTINUOUS
 62
    7
 10
164.2267955269895
 20
-11.14162707906878
 11
164.2131765434164
 21
-11.11214317281955
  0
LINE
  5
257
  8
0
  6
CONTINUOUS
 62
    7
 10
164.2131765434164
 20
-11.11214317281955
 11
164.1992375365291
 21
-11.08280374636665
  0
LINE
  5
258
  8
0
  6
CONTINUOUS
 62
    7
 10
164.1992375365291
 20
-11.08280374636665
 11
164.184979556439
 21
-11.05361336448681
  0
LINE
  5
259
  8
0
  6
CONTINUOUS
 62
    7
 10
164.184979556439
 20
-11.05361336448681
 11
164.1704036532576
 21
-11.02457659195687
  0
LINE
  5
25A
  8
0
  6
CONTINUOUS
 62
    7
 10
164.1704036532576
 20
-11.02457659195687
 11
164.155510877096
 21
-10.99569799355359
  0
LINE
  5
25B
  8
0
  6
CONTINUOUS
 62
    7
 10
164.155510877096
 20
-10.99569799355359
 11
164.1403022780659
 21
-10.96698213405379
  0
LINE
  5
25C
  8
0
  6
CONTINUOUS
 62
    7
 10
164.1403022780659
 20
-10.96698213405379
 11
164.1247789062785
 21
-10.93843357823422
  0
LINE
  5
25D
  8
0
  6
CONTINUOUS
 62
    7
 10
164.1247789062785
 20
-10.93843357823422
 11
164.1089418118451
 21
-10.91005689087169
  0
LINE
  5
25E
  8
0
  6
CONTINUOUS
 62
    7
 10
164.1089418118451
 20
-10.91005689087169
 11
164.0927920448773
 21
-10.881856636743
  0
LINE
  5
25F
  8
0
  6
CONTINUOUS
 62
    7
 10
164.0927920448773
 20
-10.881856636743
 11
164.0763306554863
 21
-10.85383738062491
  0
LINE
  5
260
  8
0
  6
CONTINUOUS
 62
    7
 10
164.0763306554863
 20
-10.85383738062491
 11
164.0595586937835
 21
-10.82600368729424
  0
LINE
  5
261
  8
0
  6
CONTINUOUS
 62
    7
 10
164.0595586937835
 20
-10.82600368729424
 11
164.0424772098802
 21
-10.79836012152778
  0
LINE
  5
262
  8
0
  6
CONTINUOUS
 62
    7
 10
164.0424772098802
 20
-10.79836012152778
 11
164.025087253888
 21
-10.77091124810229
  0
LINE
  5
263
  8
0
  6
CONTINUOUS
 62
    7
 10
164.025087253888
 20
-10.77091124810229
 11
164.0073898759181
 21
-10.74366163179457
  0
LINE
  5
264
  8
0
  6
CONTINUOUS
 62
    7
 10
164.0073898759181
 20
-10.74366163179457
 11
163.9893861472351
 21
-10.71661581545227
  0
LINE
  5
265
  8
0
  6
CONTINUOUS
 62
    7
 10
163.9893861472351
 20
-10.71661581545227
 11
163.9710780591275
 21
-10.68977738815252
  0
LINE
  5
266
  8
0
  6
CONTINUOUS
 62
    7
 10
163.9710780591275
 20
-10.68977738815252
 11
163.952468857831
 21
-10.66314863799353
  0
LINE
  5
267
  8
0
  6
CONTINUOUS
 62
    7
 10
163.952468857831
 20
-10.66314863799353
 11
163.9335618797494
 21
-10.63673175959791
  0
LINE
  5
268
  8
0
  6
CONTINUOUS
 62
    7
 10
163.9335618797494
 20
-10.63673175959791
 11
163.9143604612867
 21
-10.61052894758828
  0
LINE
  5
269
  8
0
  6
CONTINUOUS
 62
    7
 10
163.9143604612867
 20
-10.61052894758828
 11
163.8948679388465
 21
-10.58454239658726
  0
LINE
  5
26A
  8
0
  6
CONTINUOUS
 62
    7
 10
163.8948679388465
 20
-10.58454239658726
 11
163.875087648833
 21
-10.55877430121746
  0
LINE
  5
26B
  8
0
  6
CONTINUOUS
 62
    7
 10
163.875087648833
 20
-10.55877430121746
 11
163.8550229276498
 21
-10.53322685610148
  0
LINE
  5
26C
  8
0
  6
CONTINUOUS
 62
    7
 10
163.8550229276498
 20
-10.53322685610148
 11
163.8346771117009
 21
-10.50790225586196
  0
LINE
  5
26D
  8
0
  6
CONTINUOUS
 62
    7
 10
163.8346771117009
 20
-10.50790225586196
 11
163.8140535373902
 21
-10.4828026951215
  0
LINE
  5
26E
  8
0
  6
CONTINUOUS
 62
    7
 10
163.8140535373902
 20
-10.4828026951215
 11
163.7931555411215
 21
-10.4579303685027
  0
LINE
  5
26F
  8
0
  6
CONTINUOUS
 62
    7
 10
163.7931555411215
 20
-10.4579303685027
 11
163.7719864592987
 21
-10.4332874706282
  0
LINE
  5
270
  8
0
  6
CONTINUOUS
 62
    7
 10
163.7719864592987
 20
-10.4332874706282
 11
163.7505496283256
 21
-10.40887619612059
  0
LINE
  5
271
  8
0
  6
CONTINUOUS
 62
    7
 10
163.7505496283256
 20
-10.40887619612059
 11
163.7288483846061
 21
-10.38469873960252
  0
LINE
  5
272
  8
0
  6
CONTINUOUS
 62
    7
 10
163.7288483846061
 20
-10.38469873960252
 11
163.7068860645442
 21
-10.36075729569657
  0
LINE
  5
273
  8
0
  6
CONTINUOUS
 62
    7
 10
163.7068860645442
 20
-10.36075729569657
 11
163.6846660045435
 21
-10.33705405902537
  0
LINE
  5
274
  8
0
  6
CONTINUOUS
 62
    7
 10
163.6846660045435
 20
-10.33705405902537
 11
163.6621915410082
 21
-10.31359122421152
  0
LINE
  5
275
  8
0
  6
CONTINUOUS
 62
    7
 10
163.6621915410082
 20
-10.31359122421152
 11
163.6394660103419
 21
-10.29037098587766
  0
LINE
  5
276
  8
0
  6
CONTINUOUS
 62
    7
 10
163.6394660103419
 20
-10.29037098587766
 11
163.6164927226741
 21
-10.26739556613099
  0
LINE
  5
277
  8
0
  6
CONTINUOUS
 62
    7
 10
163.6164927226741
 20
-10.26739556613099
 11
163.5932744506425
 21
-10.2446677493265
  0
LINE
  5
278
  8
0
  6
CONTINUOUS
 62
    7
 10
163.5932744506425
 20
-10.2446677493265
 11
163.5698134640865
 21
-10.22219084577534
  0
LINE
  5
279
  8
0
  6
CONTINUOUS
 62
    7
 10
163.5698134640865
 20
-10.22219084577534
 11
163.5461120135197
 21
-10.19996818600485
  0
LINE
  5
27A
  8
0
  6
CONTINUOUS
 62
    7
 10
163.5461120135197
 20
-10.19996818600485
 11
163.5221723494554
 21
-10.17800310054235
  0
LINE
  5
27B
  8
0
  6
CONTINUOUS
 62
    7
 10
163.5221723494554
 20
-10.17800310054235
 11
163.4979967224071
 21
-10.15629891991519
  0
LINE
  5
27C
  8
0
  6
CONTINUOUS
 62
    7
 10
163.4979967224071
 20
-10.15629891991519
 11
163.4735873828883
 21
-10.1348589746507
  0
LINE
  5
27D
  8
0
  6
CONTINUOUS
 62
    7
 10
163.4735873828883
 20
-10.1348589746507
 11
163.4489465814125
 21
-10.11368659527622
  0
LINE
  5
27E
  8
0
  6
CONTINUOUS
 62
    7
 10
163.4489465814125
 20
-10.11368659527622
 11
163.4240765684929
 21
-10.09278511231908
  0
LINE
  5
27F
  8
0
  6
CONTINUOUS
 62
    7
 10
163.4240765684929
 20
-10.09278511231908
 11
163.3989795946433
 21
-10.0721578563066
  0
LINE
  5
280
  8
0
  6
CONTINUOUS
 62
    7
 10
163.3989795946433
 20
-10.0721578563066
 11
163.3736579103769
 21
-10.05180815776614
  0
LINE
  5
281
  8
0
  6
CONTINUOUS
 62
    7
 10
163.3736579103769
 20
-10.05180815776614
 11
163.3481137662073
 21
-10.03173934722502
  0
LINE
  5
282
  8
0
  6
CONTINUOUS
 62
    7
 10
163.3481137662073
 20
-10.03173934722502
 11
163.3223494126478
 21
-10.01195475521058
  0
LINE
  5
283
  8
0
  6
CONTINUOUS
 62
    7
 10
163.3223494126478
 20
-10.01195475521058
 11
163.296367100212
 21
-9.992457712250154
  0
LINE
  5
284
  8
0
  6
CONTINUOUS
 62
    7
 10
163.296367100212
 20
-9.992457712250154
 11
163.2701690794133
 21
-9.97325154887106
  0
LINE
  5
285
  8
0
  6
CONTINUOUS
 62
    7
 10
163.2701690794133
 20
-9.97325154887106
 11
163.2437576007651
 21
-9.954339595600665
  0
LINE
  5
286
  8
0
  6
CONTINUOUS
 62
    7
 10
163.2437576007651
 20
-9.954339595600665
 11
163.2171349147809
 21
-9.935725182966275
  0
LINE
  5
287
  8
0
  6
CONTINUOUS
 62
    7
 10
163.2171349147809
 20
-9.935725182966275
 11
163.1903032719742
 21
-9.91741164149524
  0
LINE
  5
288
  8
0
  6
CONTINUOUS
 62
    7
 10
163.1903032719742
 20
-9.91741164149524
 11
163.1632650378237
 21
-9.899402179528209
  0
LINE
  5
289
  8
0
  6
CONTINUOUS
 62
    7
 10
163.1632650378237
 20
-9.899402179528209
 11
163.1360237869613
 21
-9.881698720301376
  0
LINE
  5
28A
  8
0
  6
CONTINUOUS
 62
    7
 10
163.1360237869613
 20
-9.881698720301376
 11
163.1085838176306
 21
-9.864302417986519
  0
LINE
  5
28B
  8
0
  6
CONTINUOUS
 62
    7
 10
163.1085838176306
 20
-9.864302417986519
 11
163.0809494378342
 21
-9.847214416383743
  0
LINE
  5
28C
  8
0
  6
CONTINUOUS
 62
    7
 10
163.0809494378342
 20
-9.847214416383743
 11
163.0531249555742
 21
-9.830435859293102
  0
LINE
  5
28D
  8
0
  6
CONTINUOUS
 62
    7
 10
163.0531249555742
 20
-9.830435859293102
 11
163.0251146788532
 21
-9.813967890514705
  0
LINE
  5
28E
  8
0
  6
CONTINUOUS
 62
    7
 10
163.0251146788532
 20
-9.813967890514705
 11
162.9969229156735
 21
-9.797811653848612
  0
LINE
  5
28F
  8
0
  6
CONTINUOUS
 62
    7
 10
162.9969229156735
 20
-9.797811653848612
 11
162.9685539740375
 21
-9.78196829309492
  0
LINE
  5
290
  8
0
  6
CONTINUOUS
 62
    7
 10
162.9685539740375
 20
-9.78196829309492
 11
162.9400121619475
 21
-9.766438952053706
  0
LINE
  5
291
  8
0
  6
CONTINUOUS
 62
    7
 10
162.9400121619475
 20
-9.766438952053706
 11
162.9113017874059
 21
-9.751224774525072
  0
LINE
  5
292
  8
0
  6
CONTINUOUS
 62
    7
 10
162.9113017874059
 20
-9.751224774525072
 11
162.8824271584151
 21
-9.736326904309086
  0
LINE
  5
293
  8
0
  6
CONTINUOUS
 62
    7
 10
162.8824271584151
 20
-9.736326904309086
 11
162.8533925829775
 21
-9.721746485205824
  0
LINE
  5
294
  8
0
  6
CONTINUOUS
 62
    7
 10
162.8533925829775
 20
-9.721746485205824
 11
162.8242023690955
 21
-9.707484661015389
  0
LINE
  5
295
  8
0
  6
CONTINUOUS
 62
    7
 10
162.8242023690955
 20
-9.707484661015389
 11
162.7948608247714
 21
-9.693542575537847
  0
LINE
  5
296
  8
0
  6
CONTINUOUS
 62
    7
 10
162.7948608247714
 20
-9.693542575537847
 11
162.7653722580076
 21
-9.679921372573295
  0
LINE
  5
297
  8
0
  6
CONTINUOUS
 62
    7
 10
162.7653722580076
 20
-9.679921372573295
 11
162.7357409768065
 21
-9.666622195921821
  0
LINE
  5
298
  8
0
  6
CONTINUOUS
 62
    7
 10
162.7357409768065
 20
-9.666622195921821
 11
162.7059712891705
 21
-9.65364618938349
  0
LINE
  5
299
  8
0
  6
CONTINUOUS
 62
    7
 10
162.7059712891705
 20
-9.65364618938349
 11
162.676067503102
 21
-9.640994496758399
  0
LINE
  5
29A
  8
0
  6
CONTINUOUS
 62
    7
 10
162.676067503102
 20
-9.640994496758399
 11
162.6460337481383
 21
-9.628668439485107
  0
LINE
  5
29B
  8
0
  6
CONTINUOUS
 62
    7
 10
162.6460337481383
 20
-9.628668439485107
 11
162.6158730149928
 21
-9.616670472552331
  0
LINE
  5
29C
  8
0
  6
CONTINUOUS
 62
    7
 10
162.6158730149928
 20
-9.616670472552331
 11
162.5855878468043
 21
-9.605003496450523
  0
LINE
  5
29D
  8
0
  6
CONTINUOUS
 62
    7
 10
162.5855878468043
 20
-9.605003496450523
 11
162.5551807856453
 21
-9.593670412731687
  0
LINE
  5
29E
  8
0
  6
CONTINUOUS
 62
    7
 10
162.5551807856453
 20
-9.593670412731687
 11
162.524654373588
 21
-9.582674122947815
  0
LINE
  5
29F
  8
0
  6
CONTINUOUS
 62
    7
 10
162.524654373588
 20
-9.582674122947815
 11
162.4940111527048
 21
-9.572017528650973
  0
LINE
  5
2A0
  8
0
  6
CONTINUOUS
 62
    7
 10
162.4940111527048
 20
-9.572017528650973
 11
162.4632536650681
 21
-9.561703531393146
  0
LINE
  5
2A1
  8
0
  6
CONTINUOUS
 62
    7
 10
162.4632536650681
 20
-9.561703531393146
 11
162.4323844527502
 21
-9.551735032726363
  0
LINE
  5
2A2
  8
0
  6
CONTINUOUS
 62
    7
 10
162.4323844527502
 20
-9.551735032726363
 11
162.4014060578235
 21
-9.542114934202642
  0
LINE
  5
2A3
  8
0
  6
CONTINUOUS
 62
    7
 10
162.4014060578235
 20
-9.542114934202642
 11
162.3703212663899
 21
-9.53284519310146
  0
LINE
  5
2A4
  8
0
  6
CONTINUOUS
 62
    7
 10
162.3703212663899
 20
-9.53284519310146
 11
162.339134027063
 21
-9.52392326836601
  0
LINE
  5
2A5
  8
0
  6
CONTINUOUS
 62
    7
 10
162.339134027063
 20
-9.52392326836601
 11
162.3078486342512
 21
-9.515345280886352
  0
LINE
  5
2A6
  8
0
  6
CONTINUOUS
 62
    7
 10
162.3078486342512
 20
-9.515345280886352
 11
162.2764693824204
 21
-9.507107351330442
  0
LINE
  5
2A7
  8
0
  6
CONTINUOUS
 62
    7
 10
162.2764693824204
 20
-9.507107351330442
 11
162.2450005660365
 21
-9.499205600366247
  0
LINE
  5
2A8
  8
0
  6
CONTINUOUS
 62
    7
 10
162.2450005660365
 20
-9.499205600366247
 11
162.2134464795652
 21
-9.491636148661776
  0
LINE
  5
2A9
  8
0
  6
CONTINUOUS
 62
    7
 10
162.2134464795652
 20
-9.491636148661776
 11
162.1818114174724
 21
-9.48439511688497
  0
LINE
  5
2AA
  8
0
  6
CONTINUOUS
 62
    7
 10
162.1818114174724
 20
-9.48439511688497
 11
162.150099674224
 21
-9.477478625703828
  0
LINE
  5
2AB
  8
0
  6
CONTINUOUS
 62
    7
 10
162.150099674224
 20
-9.477478625703828
 11
162.1183155442858
 21
-9.470882795786302
  0
LINE
  5
2AC
  8
0
  6
CONTINUOUS
 62
    7
 10
162.1183155442858
 20
-9.470882795786302
 11
162.0864632056362
 21
-9.464606798162226
  0
LINE
  5
2AD
  8
0
  6
CONTINUOUS
 62
    7
 10
162.0864632056362
 20
-9.464606798162226
 11
162.0545463501996
 21
-9.458662531756271
  0
LINE
  5
2AE
  8
0
  6
CONTINUOUS
 62
    7
 10
162.0545463501996
 20
-9.458662531756271
 11
162.022568543146
 21
-9.453065214707738
  0
LINE
  5
2AF
  8
0
  6
CONTINUOUS
 62
    7
 10
162.022568543146
 20
-9.453065214707738
 11
161.9905333496448
 21
-9.447830065164924
  0
LINE
  5
2B0
  8
0
  6
CONTINUOUS
 62
    7
 10
161.9905333496448
 20
-9.447830065164924
 11
161.9584443348659
 21
-9.442972301276086
  0
LINE
  5
2B1
  8
0
  6
CONTINUOUS
 62
    7
 10
161.9584443348659
 20
-9.442972301276086
 11
161.9263050639788
 21
-9.438507141189435
  0
LINE
  5
2B2
  8
0
  6
CONTINUOUS
 62
    7
 10
161.9263050639788
 20
-9.438507141189435
 11
161.894119102153
 21
-9.434449803053292
  0
LINE
  5
2B3
  8
0
  6
CONTINUOUS
 62
    7
 10
161.894119102153
 20
-9.434449803053292
 11
161.8618900145584
 21
-9.43081550501587
  0
LINE
  5
2B4
  8
0
  6
CONTINUOUS
 62
    7
 10
161.8618900145584
 20
-9.43081550501587
 11
161.8296213663643
 21
-9.427619465225428
  0
LINE
  5
2B5
  8
0
  6
CONTINUOUS
 62
    7
 10
161.8296213663643
 20
-9.427619465225428
 11
161.7973167911192
 21
-9.424866573216439
  0
LINE
  5
2B6
  8
0
  6
CONTINUOUS
 62
    7
 10
161.7973167911192
 20
-9.424866573216439
 11
161.7649802123851
 21
-9.422517911990806
  0
LINE
  5
2B7
  8
0
  6
CONTINUOUS
 62
    7
 10
161.7649802123851
 20
-9.422517911990806
 11
161.7326156305976
 21
-9.420522952771918
  0
LINE
  5
2B8
  8
0
  6
CONTINUOUS
 62
    7
 10
161.7326156305976
 20
-9.420522952771918
 11
161.7002270461929
 21
-9.418831166701681
  0
LINE
  5
2B9
  8
0
  6
CONTINUOUS
 62
    7
 10
161.7002270461929
 20
-9.418831166701681
 11
161.6678184596072
 21
-9.417392024921966
  0
LINE
  5
2BA
  8
0
  6
CONTINUOUS
 62
    7
 10
161.6678184596072
 20
-9.417392024921966
 11
161.6353938712767
 21
-9.416154998574694
  0
LINE
  5
2BB
  8
0
  6
CONTINUOUS
 62
    7
 10
161.6353938712767
 20
-9.416154998574694
 11
161.6029572816377
 21
-9.415069558801727
  0
LINE
  5
2BC
  8
0
  6
CONTINUOUS
 62
    7
 10
161.6029572816377
 20
-9.415069558801727
 11
161.5705126911261
 21
-9.41408517674498
  0
LINE
  5
2BD
  8
0
  6
CONTINUOUS
 62
    7
 10
161.5705126911261
 20
-9.41408517674498
 11
161.5380641001784
 21
-9.413151323546346
  0
ENDSEC
  0
EOF
