M48
;DRILL file {KiCad (5.0.1)-3} date 11/1/2018 7:24:09 PM
;FORMAT={-:-/ absolute / inch / decimal}
FMAT,2
INCH,TZ
T1C0.0157
T2C0.0315
T3C0.0394
%
G90
G05
M72
T1
X4.05Y-3.6
X4.7Y-2.66
X4.7Y-2.7
X4.7Y-2.74
X4.7Y-2.88
X4.7Y-2.92
X4.7Y-2.96
X4.7Y-3.
X4.7Y-3.04
X4.7Y-3.08
X4.7Y-3.12
X4.7Y-3.16
X4.7Y-3.2
X4.7Y-3.24
X4.7Y-3.28
X4.7Y-3.32
X4.7Y-3.36
X4.7Y-3.4
X4.7Y-3.44
X4.7Y-3.48
X4.7Y-3.52
X4.7Y-3.56
X4.7Y-3.56
X4.7Y-3.56
X4.7Y-3.6
X4.7Y-3.64
X4.7Y-3.68
X4.7Y-3.72
X4.7Y-3.76
X4.7Y-3.8
X4.7Y-3.84
X4.7Y-3.88
X4.7Y-3.92
X4.7Y-3.96
X4.7Y-4.
X4.7Y-4.04
X4.7Y-4.08
X4.7Y-4.12
X4.7Y-4.16
X4.7Y-4.2
X4.7Y-4.24
X4.7Y-4.28
X4.7Y-4.32
X4.7Y-4.36
X4.7Y-4.4
X4.7Y-4.44
X4.7Y-4.48
X4.7Y-4.52
X4.7Y-4.56
X4.7Y-4.6
X4.7Y-4.64
X4.7Y-4.68
X4.74Y-2.66
X4.74Y-4.68
X4.78Y-2.66
X4.78Y-4.68
X4.82Y-4.68
X4.86Y-4.68
X4.9Y-2.66
X4.9Y-4.68
X4.94Y-2.66
X4.94Y-4.68
X4.98Y-2.66
X4.98Y-4.68
X5.02Y-2.66
X5.02Y-4.68
X5.06Y-2.66
X5.06Y-4.68
X5.1Y-2.66
X5.1Y-4.68
X5.14Y-2.66
X5.14Y-4.68
X5.18Y-2.66
X5.18Y-4.68
X5.22Y-2.66
X5.22Y-4.68
X5.26Y-2.66
X5.26Y-4.68
X5.28Y-4.16
X5.3Y-2.66
X5.3Y-4.68
X5.34Y-2.66
X5.34Y-4.11
X5.34Y-4.68
X5.38Y-2.66
X5.38Y-4.68
X5.4Y-4.05
X5.42Y-2.66
X5.42Y-4.68
X5.45Y-4.05
X5.46Y-2.66
X5.46Y-4.68
X5.5Y-2.66
X5.5Y-4.05
X5.5Y-4.68
X5.54Y-2.66
X5.54Y-4.68
X5.55Y-4.05
X5.58Y-2.66
X5.58Y-4.68
X5.62Y-2.66
X5.62Y-4.68
X5.66Y-2.66
X5.66Y-4.68
X5.7Y-2.66
X5.7Y-4.68
X5.71Y-4.04
X5.74Y-2.66
X5.74Y-4.68
X5.7567Y-4.1408
X5.76Y-4.19
X5.78Y-2.66
X5.82Y-2.66
X5.82Y-4.53
X5.85Y-3.1
X5.85Y-3.15
X5.85Y-3.2
X5.85Y-3.25
X5.85Y-3.3
X5.85Y-3.5
X5.85Y-3.6
X5.85Y-3.8
X5.85Y-3.85
X5.86Y-2.66
X5.87Y-4.05
X5.9Y-2.66
X5.9Y-3.5
X5.9Y-3.6
X5.9Y-3.8
X5.9Y-3.85
X5.94Y-2.66
X5.94Y-4.05
X5.95Y-3.06
X5.95Y-3.22
X5.95Y-3.5
X5.95Y-3.6
X5.95Y-3.8
X5.95Y-3.85
X5.98Y-2.66
X6.Y-3.5
X6.Y-3.6
X6.Y-3.8
X6.Y-3.85
X6.02Y-2.66
X6.05Y-3.5
X6.05Y-3.6
X6.05Y-3.69
X6.05Y-3.8
X6.05Y-3.85
X6.06Y-2.66
X6.1Y-2.66
X6.1Y-3.5
X6.1Y-3.6
X6.1Y-3.8
X6.1Y-3.85
X6.13Y-4.53
X6.14Y-2.66
X6.15Y-3.6
X6.15Y-3.8
X6.15Y-3.85
X6.17Y-3.07
X6.18Y-2.66
X6.18Y-4.68
X6.19Y-3.66
X6.2Y-3.2
X6.2Y-3.25
X6.2Y-3.3
X6.2Y-3.35
X6.2Y-3.8
X6.2Y-3.85
X6.21Y-3.51
X6.22Y-2.66
X6.22Y-3.63
X6.22Y-4.68
X6.23Y-2.9
X6.23Y-2.95
X6.25Y-3.25
X6.25Y-3.35
X6.26Y-2.66
X6.26Y-4.68
X6.29Y-3.96
X6.3Y-2.66
X6.3Y-2.66
X6.3Y-2.66
X6.3Y-3.3
X6.3Y-3.35
X6.3Y-3.49
X6.3Y-4.68
X6.34Y-2.66
X6.34Y-4.68
X6.35Y-3.35
X6.35Y-3.63
X6.35Y-3.99
X6.37Y-3.56
X6.38Y-2.66
X6.38Y-4.68
X6.39Y-3.2
X6.42Y-2.66
X6.42Y-3.905
X6.42Y-4.68
X6.46Y-2.66
X6.46Y-3.55
X6.46Y-4.68
X6.47Y-2.97
X6.48Y-3.51
X6.48Y-3.95
X6.5Y-2.66
X6.5Y-3.38
X6.5Y-4.68
X6.51Y-3.48
X6.52Y-3.99
X6.54Y-2.66
X6.54Y-2.97
X6.54Y-4.68
X6.57Y-2.89
X6.58Y-2.66
X6.58Y-4.68
X6.6Y-2.95
X6.62Y-2.66
X6.62Y-4.68
X6.63Y-3.51
X6.63Y-3.68
X6.63Y-3.96
X6.64Y-3.1
X6.645Y-3.7646
X6.65Y-3.25
X6.65Y-3.3
X6.66Y-2.66
X6.66Y-4.68
X6.685Y-2.7801
X6.7Y-2.66
X6.7Y-3.3
X6.7Y-3.35
X6.7Y-3.9
X6.7Y-4.68
X6.71Y-3.96
X6.74Y-2.66
X6.74Y-4.68
X6.75Y-3.35
X6.75Y-3.4
X6.78Y-2.66
X6.78Y-4.68
X6.8Y-3.4
X6.8Y-3.45
X6.82Y-2.66
X6.82Y-4.68
X6.85Y-3.45
X6.85Y-3.5
X6.86Y-2.66
X6.88Y-2.72
X6.9Y-2.66
X6.9Y-3.5
X6.94Y-2.66
X6.97Y-2.79
X6.98Y-2.66
X7.Y-4.68
X7.02Y-2.66
X7.04Y-4.68
X7.06Y-2.66
X7.08Y-4.68
X7.1Y-2.66
X7.12Y-4.68
X7.14Y-2.66
X7.16Y-3.68
X7.16Y-4.08
X7.18Y-2.66
X7.22Y-2.66
X7.26Y-2.66
X7.26Y-4.68
X7.3Y-2.66
X7.3Y-4.68
X7.34Y-2.66
X7.34Y-2.7
X7.34Y-2.74
X7.34Y-2.78
X7.34Y-2.82
X7.34Y-2.86
X7.34Y-2.9
X7.34Y-2.94
X7.34Y-2.98
X7.34Y-3.02
X7.34Y-3.06
X7.34Y-3.1
X7.34Y-3.14
X7.34Y-3.18
X7.34Y-3.22
X7.34Y-3.26
X7.34Y-3.3
X7.34Y-3.3
X7.34Y-3.3
X7.34Y-3.34
X7.34Y-3.38
X7.34Y-3.42
X7.34Y-3.46
X7.34Y-3.5
X7.34Y-3.54
X7.34Y-3.58
X7.34Y-3.62
X7.34Y-3.66
X7.34Y-3.7
X7.34Y-3.74
X7.34Y-3.78
X7.34Y-3.82
X7.34Y-3.86
X7.34Y-3.9
X7.34Y-3.94
X7.34Y-3.98
X7.34Y-4.02
X7.34Y-4.06
X7.34Y-4.1
X7.34Y-4.14
X7.34Y-4.18
X7.34Y-4.22
X7.34Y-4.26
X7.34Y-4.3
X7.34Y-4.34
X7.34Y-4.38
X7.34Y-4.42
X7.34Y-4.46
X7.34Y-4.6
X7.34Y-4.64
X7.34Y-4.68
T2
X5.74Y-3.05
X6.4Y-2.8
X6.26Y-4.14
X6.26Y-4.24
X6.26Y-4.34
X6.26Y-4.44
X6.56Y-4.14
X6.56Y-4.24
X6.56Y-4.34
X6.56Y-4.44
X5.04Y-3.05
X5.04Y-3.15
X5.04Y-3.25
X5.04Y-3.35
X5.04Y-3.45
X5.04Y-3.55
X5.04Y-3.65
X5.04Y-3.75
X5.04Y-3.85
X5.04Y-3.95
X5.04Y-4.05
X5.04Y-4.15
X5.04Y-4.25
X5.04Y-4.35
X5.04Y-4.45
X5.64Y-3.05
X5.64Y-3.15
X5.64Y-3.25
X5.64Y-3.35
X5.64Y-3.45
X5.64Y-3.55
X5.64Y-3.65
X5.64Y-3.75
X5.64Y-3.85
X5.64Y-3.95
X5.64Y-4.05
X5.64Y-4.15
X5.64Y-4.25
X5.64Y-4.35
X5.64Y-4.45
T3
X6.7Y-4.14
X6.7Y-4.24
X6.7Y-4.34
X6.7Y-4.44
X5.97Y-4.16
X5.97Y-4.3962
X6.91Y-3.94
X6.91Y-4.04
X6.91Y-4.14
X6.91Y-4.24
X6.91Y-4.34
X6.91Y-4.44
X6.91Y-4.54
X6.91Y-4.64
T0
M30
