G04 #@! TF.GenerationSoftware,KiCad,Pcbnew,(5.0.1)-3*
G04 #@! TF.CreationDate,2018-11-01T19:24:07-05:00*
G04 #@! TF.ProjectId,module-tester-board,6D6F64756C652D7465737465722D626F,rev?*
G04 #@! TF.SameCoordinates,Original*
G04 #@! TF.FileFunction,Paste,Top*
G04 #@! TF.FilePolarity,Positive*
%FSLAX46Y46*%
G04 Gerber Fmt 4.6, Leading zero omitted, Abs format (unit mm)*
G04 Created by KiCad (PCBNEW (5.0.1)-3) date 11/1/2018 7:24:07 PM*
%MOMM*%
%LPD*%
G01*
G04 APERTURE LIST*
%ADD10C,0.100000*%
%ADD11C,0.875000*%
%ADD12R,1.100000X1.100000*%
%ADD13R,1.219200X0.508000*%
%ADD14R,1.450000X0.450000*%
%ADD15R,1.550000X0.600000*%
%ADD16R,2.500000X1.900000*%
G04 APERTURE END LIST*
D10*
G04 #@! TO.C,C1*
G36*
X164615691Y-71674053D02*
X164636926Y-71677203D01*
X164657750Y-71682419D01*
X164677962Y-71689651D01*
X164697368Y-71698830D01*
X164715781Y-71709866D01*
X164733024Y-71722654D01*
X164748930Y-71737070D01*
X164763346Y-71752976D01*
X164776134Y-71770219D01*
X164787170Y-71788632D01*
X164796349Y-71808038D01*
X164803581Y-71828250D01*
X164808797Y-71849074D01*
X164811947Y-71870309D01*
X164813000Y-71891750D01*
X164813000Y-72329250D01*
X164811947Y-72350691D01*
X164808797Y-72371926D01*
X164803581Y-72392750D01*
X164796349Y-72412962D01*
X164787170Y-72432368D01*
X164776134Y-72450781D01*
X164763346Y-72468024D01*
X164748930Y-72483930D01*
X164733024Y-72498346D01*
X164715781Y-72511134D01*
X164697368Y-72522170D01*
X164677962Y-72531349D01*
X164657750Y-72538581D01*
X164636926Y-72543797D01*
X164615691Y-72546947D01*
X164594250Y-72548000D01*
X164081750Y-72548000D01*
X164060309Y-72546947D01*
X164039074Y-72543797D01*
X164018250Y-72538581D01*
X163998038Y-72531349D01*
X163978632Y-72522170D01*
X163960219Y-72511134D01*
X163942976Y-72498346D01*
X163927070Y-72483930D01*
X163912654Y-72468024D01*
X163899866Y-72450781D01*
X163888830Y-72432368D01*
X163879651Y-72412962D01*
X163872419Y-72392750D01*
X163867203Y-72371926D01*
X163864053Y-72350691D01*
X163863000Y-72329250D01*
X163863000Y-71891750D01*
X163864053Y-71870309D01*
X163867203Y-71849074D01*
X163872419Y-71828250D01*
X163879651Y-71808038D01*
X163888830Y-71788632D01*
X163899866Y-71770219D01*
X163912654Y-71752976D01*
X163927070Y-71737070D01*
X163942976Y-71722654D01*
X163960219Y-71709866D01*
X163978632Y-71698830D01*
X163998038Y-71689651D01*
X164018250Y-71682419D01*
X164039074Y-71677203D01*
X164060309Y-71674053D01*
X164081750Y-71673000D01*
X164594250Y-71673000D01*
X164615691Y-71674053D01*
X164615691Y-71674053D01*
G37*
D11*
X164338000Y-72110500D03*
D10*
G36*
X164615691Y-73249053D02*
X164636926Y-73252203D01*
X164657750Y-73257419D01*
X164677962Y-73264651D01*
X164697368Y-73273830D01*
X164715781Y-73284866D01*
X164733024Y-73297654D01*
X164748930Y-73312070D01*
X164763346Y-73327976D01*
X164776134Y-73345219D01*
X164787170Y-73363632D01*
X164796349Y-73383038D01*
X164803581Y-73403250D01*
X164808797Y-73424074D01*
X164811947Y-73445309D01*
X164813000Y-73466750D01*
X164813000Y-73904250D01*
X164811947Y-73925691D01*
X164808797Y-73946926D01*
X164803581Y-73967750D01*
X164796349Y-73987962D01*
X164787170Y-74007368D01*
X164776134Y-74025781D01*
X164763346Y-74043024D01*
X164748930Y-74058930D01*
X164733024Y-74073346D01*
X164715781Y-74086134D01*
X164697368Y-74097170D01*
X164677962Y-74106349D01*
X164657750Y-74113581D01*
X164636926Y-74118797D01*
X164615691Y-74121947D01*
X164594250Y-74123000D01*
X164081750Y-74123000D01*
X164060309Y-74121947D01*
X164039074Y-74118797D01*
X164018250Y-74113581D01*
X163998038Y-74106349D01*
X163978632Y-74097170D01*
X163960219Y-74086134D01*
X163942976Y-74073346D01*
X163927070Y-74058930D01*
X163912654Y-74043024D01*
X163899866Y-74025781D01*
X163888830Y-74007368D01*
X163879651Y-73987962D01*
X163872419Y-73967750D01*
X163867203Y-73946926D01*
X163864053Y-73925691D01*
X163863000Y-73904250D01*
X163863000Y-73466750D01*
X163864053Y-73445309D01*
X163867203Y-73424074D01*
X163872419Y-73403250D01*
X163879651Y-73383038D01*
X163888830Y-73363632D01*
X163899866Y-73345219D01*
X163912654Y-73327976D01*
X163927070Y-73312070D01*
X163942976Y-73297654D01*
X163960219Y-73284866D01*
X163978632Y-73273830D01*
X163998038Y-73264651D01*
X164018250Y-73257419D01*
X164039074Y-73252203D01*
X164060309Y-73249053D01*
X164081750Y-73248000D01*
X164594250Y-73248000D01*
X164615691Y-73249053D01*
X164615691Y-73249053D01*
G37*
D11*
X164338000Y-73685500D03*
G04 #@! TD*
D10*
G04 #@! TO.C,C2*
G36*
X164869691Y-76754053D02*
X164890926Y-76757203D01*
X164911750Y-76762419D01*
X164931962Y-76769651D01*
X164951368Y-76778830D01*
X164969781Y-76789866D01*
X164987024Y-76802654D01*
X165002930Y-76817070D01*
X165017346Y-76832976D01*
X165030134Y-76850219D01*
X165041170Y-76868632D01*
X165050349Y-76888038D01*
X165057581Y-76908250D01*
X165062797Y-76929074D01*
X165065947Y-76950309D01*
X165067000Y-76971750D01*
X165067000Y-77409250D01*
X165065947Y-77430691D01*
X165062797Y-77451926D01*
X165057581Y-77472750D01*
X165050349Y-77492962D01*
X165041170Y-77512368D01*
X165030134Y-77530781D01*
X165017346Y-77548024D01*
X165002930Y-77563930D01*
X164987024Y-77578346D01*
X164969781Y-77591134D01*
X164951368Y-77602170D01*
X164931962Y-77611349D01*
X164911750Y-77618581D01*
X164890926Y-77623797D01*
X164869691Y-77626947D01*
X164848250Y-77628000D01*
X164335750Y-77628000D01*
X164314309Y-77626947D01*
X164293074Y-77623797D01*
X164272250Y-77618581D01*
X164252038Y-77611349D01*
X164232632Y-77602170D01*
X164214219Y-77591134D01*
X164196976Y-77578346D01*
X164181070Y-77563930D01*
X164166654Y-77548024D01*
X164153866Y-77530781D01*
X164142830Y-77512368D01*
X164133651Y-77492962D01*
X164126419Y-77472750D01*
X164121203Y-77451926D01*
X164118053Y-77430691D01*
X164117000Y-77409250D01*
X164117000Y-76971750D01*
X164118053Y-76950309D01*
X164121203Y-76929074D01*
X164126419Y-76908250D01*
X164133651Y-76888038D01*
X164142830Y-76868632D01*
X164153866Y-76850219D01*
X164166654Y-76832976D01*
X164181070Y-76817070D01*
X164196976Y-76802654D01*
X164214219Y-76789866D01*
X164232632Y-76778830D01*
X164252038Y-76769651D01*
X164272250Y-76762419D01*
X164293074Y-76757203D01*
X164314309Y-76754053D01*
X164335750Y-76753000D01*
X164848250Y-76753000D01*
X164869691Y-76754053D01*
X164869691Y-76754053D01*
G37*
D11*
X164592000Y-77190500D03*
D10*
G36*
X164869691Y-78329053D02*
X164890926Y-78332203D01*
X164911750Y-78337419D01*
X164931962Y-78344651D01*
X164951368Y-78353830D01*
X164969781Y-78364866D01*
X164987024Y-78377654D01*
X165002930Y-78392070D01*
X165017346Y-78407976D01*
X165030134Y-78425219D01*
X165041170Y-78443632D01*
X165050349Y-78463038D01*
X165057581Y-78483250D01*
X165062797Y-78504074D01*
X165065947Y-78525309D01*
X165067000Y-78546750D01*
X165067000Y-78984250D01*
X165065947Y-79005691D01*
X165062797Y-79026926D01*
X165057581Y-79047750D01*
X165050349Y-79067962D01*
X165041170Y-79087368D01*
X165030134Y-79105781D01*
X165017346Y-79123024D01*
X165002930Y-79138930D01*
X164987024Y-79153346D01*
X164969781Y-79166134D01*
X164951368Y-79177170D01*
X164931962Y-79186349D01*
X164911750Y-79193581D01*
X164890926Y-79198797D01*
X164869691Y-79201947D01*
X164848250Y-79203000D01*
X164335750Y-79203000D01*
X164314309Y-79201947D01*
X164293074Y-79198797D01*
X164272250Y-79193581D01*
X164252038Y-79186349D01*
X164232632Y-79177170D01*
X164214219Y-79166134D01*
X164196976Y-79153346D01*
X164181070Y-79138930D01*
X164166654Y-79123024D01*
X164153866Y-79105781D01*
X164142830Y-79087368D01*
X164133651Y-79067962D01*
X164126419Y-79047750D01*
X164121203Y-79026926D01*
X164118053Y-79005691D01*
X164117000Y-78984250D01*
X164117000Y-78546750D01*
X164118053Y-78525309D01*
X164121203Y-78504074D01*
X164126419Y-78483250D01*
X164133651Y-78463038D01*
X164142830Y-78443632D01*
X164153866Y-78425219D01*
X164166654Y-78407976D01*
X164181070Y-78392070D01*
X164196976Y-78377654D01*
X164214219Y-78364866D01*
X164232632Y-78353830D01*
X164252038Y-78344651D01*
X164272250Y-78337419D01*
X164293074Y-78332203D01*
X164314309Y-78329053D01*
X164335750Y-78328000D01*
X164848250Y-78328000D01*
X164869691Y-78329053D01*
X164869691Y-78329053D01*
G37*
D11*
X164592000Y-78765500D03*
G04 #@! TD*
D10*
G04 #@! TO.C,C3*
G36*
X175283691Y-77033553D02*
X175304926Y-77036703D01*
X175325750Y-77041919D01*
X175345962Y-77049151D01*
X175365368Y-77058330D01*
X175383781Y-77069366D01*
X175401024Y-77082154D01*
X175416930Y-77096570D01*
X175431346Y-77112476D01*
X175444134Y-77129719D01*
X175455170Y-77148132D01*
X175464349Y-77167538D01*
X175471581Y-77187750D01*
X175476797Y-77208574D01*
X175479947Y-77229809D01*
X175481000Y-77251250D01*
X175481000Y-77688750D01*
X175479947Y-77710191D01*
X175476797Y-77731426D01*
X175471581Y-77752250D01*
X175464349Y-77772462D01*
X175455170Y-77791868D01*
X175444134Y-77810281D01*
X175431346Y-77827524D01*
X175416930Y-77843430D01*
X175401024Y-77857846D01*
X175383781Y-77870634D01*
X175365368Y-77881670D01*
X175345962Y-77890849D01*
X175325750Y-77898081D01*
X175304926Y-77903297D01*
X175283691Y-77906447D01*
X175262250Y-77907500D01*
X174749750Y-77907500D01*
X174728309Y-77906447D01*
X174707074Y-77903297D01*
X174686250Y-77898081D01*
X174666038Y-77890849D01*
X174646632Y-77881670D01*
X174628219Y-77870634D01*
X174610976Y-77857846D01*
X174595070Y-77843430D01*
X174580654Y-77827524D01*
X174567866Y-77810281D01*
X174556830Y-77791868D01*
X174547651Y-77772462D01*
X174540419Y-77752250D01*
X174535203Y-77731426D01*
X174532053Y-77710191D01*
X174531000Y-77688750D01*
X174531000Y-77251250D01*
X174532053Y-77229809D01*
X174535203Y-77208574D01*
X174540419Y-77187750D01*
X174547651Y-77167538D01*
X174556830Y-77148132D01*
X174567866Y-77129719D01*
X174580654Y-77112476D01*
X174595070Y-77096570D01*
X174610976Y-77082154D01*
X174628219Y-77069366D01*
X174646632Y-77058330D01*
X174666038Y-77049151D01*
X174686250Y-77041919D01*
X174707074Y-77036703D01*
X174728309Y-77033553D01*
X174749750Y-77032500D01*
X175262250Y-77032500D01*
X175283691Y-77033553D01*
X175283691Y-77033553D01*
G37*
D11*
X175006000Y-77470000D03*
D10*
G36*
X175283691Y-78608553D02*
X175304926Y-78611703D01*
X175325750Y-78616919D01*
X175345962Y-78624151D01*
X175365368Y-78633330D01*
X175383781Y-78644366D01*
X175401024Y-78657154D01*
X175416930Y-78671570D01*
X175431346Y-78687476D01*
X175444134Y-78704719D01*
X175455170Y-78723132D01*
X175464349Y-78742538D01*
X175471581Y-78762750D01*
X175476797Y-78783574D01*
X175479947Y-78804809D01*
X175481000Y-78826250D01*
X175481000Y-79263750D01*
X175479947Y-79285191D01*
X175476797Y-79306426D01*
X175471581Y-79327250D01*
X175464349Y-79347462D01*
X175455170Y-79366868D01*
X175444134Y-79385281D01*
X175431346Y-79402524D01*
X175416930Y-79418430D01*
X175401024Y-79432846D01*
X175383781Y-79445634D01*
X175365368Y-79456670D01*
X175345962Y-79465849D01*
X175325750Y-79473081D01*
X175304926Y-79478297D01*
X175283691Y-79481447D01*
X175262250Y-79482500D01*
X174749750Y-79482500D01*
X174728309Y-79481447D01*
X174707074Y-79478297D01*
X174686250Y-79473081D01*
X174666038Y-79465849D01*
X174646632Y-79456670D01*
X174628219Y-79445634D01*
X174610976Y-79432846D01*
X174595070Y-79418430D01*
X174580654Y-79402524D01*
X174567866Y-79385281D01*
X174556830Y-79366868D01*
X174547651Y-79347462D01*
X174540419Y-79327250D01*
X174535203Y-79306426D01*
X174532053Y-79285191D01*
X174531000Y-79263750D01*
X174531000Y-78826250D01*
X174532053Y-78804809D01*
X174535203Y-78783574D01*
X174540419Y-78762750D01*
X174547651Y-78742538D01*
X174556830Y-78723132D01*
X174567866Y-78704719D01*
X174580654Y-78687476D01*
X174595070Y-78671570D01*
X174610976Y-78657154D01*
X174628219Y-78644366D01*
X174646632Y-78633330D01*
X174666038Y-78624151D01*
X174686250Y-78616919D01*
X174707074Y-78611703D01*
X174728309Y-78608553D01*
X174749750Y-78607500D01*
X175262250Y-78607500D01*
X175283691Y-78608553D01*
X175283691Y-78608553D01*
G37*
D11*
X175006000Y-79045000D03*
G04 #@! TD*
D10*
G04 #@! TO.C,C4*
G36*
X177315691Y-71674053D02*
X177336926Y-71677203D01*
X177357750Y-71682419D01*
X177377962Y-71689651D01*
X177397368Y-71698830D01*
X177415781Y-71709866D01*
X177433024Y-71722654D01*
X177448930Y-71737070D01*
X177463346Y-71752976D01*
X177476134Y-71770219D01*
X177487170Y-71788632D01*
X177496349Y-71808038D01*
X177503581Y-71828250D01*
X177508797Y-71849074D01*
X177511947Y-71870309D01*
X177513000Y-71891750D01*
X177513000Y-72329250D01*
X177511947Y-72350691D01*
X177508797Y-72371926D01*
X177503581Y-72392750D01*
X177496349Y-72412962D01*
X177487170Y-72432368D01*
X177476134Y-72450781D01*
X177463346Y-72468024D01*
X177448930Y-72483930D01*
X177433024Y-72498346D01*
X177415781Y-72511134D01*
X177397368Y-72522170D01*
X177377962Y-72531349D01*
X177357750Y-72538581D01*
X177336926Y-72543797D01*
X177315691Y-72546947D01*
X177294250Y-72548000D01*
X176781750Y-72548000D01*
X176760309Y-72546947D01*
X176739074Y-72543797D01*
X176718250Y-72538581D01*
X176698038Y-72531349D01*
X176678632Y-72522170D01*
X176660219Y-72511134D01*
X176642976Y-72498346D01*
X176627070Y-72483930D01*
X176612654Y-72468024D01*
X176599866Y-72450781D01*
X176588830Y-72432368D01*
X176579651Y-72412962D01*
X176572419Y-72392750D01*
X176567203Y-72371926D01*
X176564053Y-72350691D01*
X176563000Y-72329250D01*
X176563000Y-71891750D01*
X176564053Y-71870309D01*
X176567203Y-71849074D01*
X176572419Y-71828250D01*
X176579651Y-71808038D01*
X176588830Y-71788632D01*
X176599866Y-71770219D01*
X176612654Y-71752976D01*
X176627070Y-71737070D01*
X176642976Y-71722654D01*
X176660219Y-71709866D01*
X176678632Y-71698830D01*
X176698038Y-71689651D01*
X176718250Y-71682419D01*
X176739074Y-71677203D01*
X176760309Y-71674053D01*
X176781750Y-71673000D01*
X177294250Y-71673000D01*
X177315691Y-71674053D01*
X177315691Y-71674053D01*
G37*
D11*
X177038000Y-72110500D03*
D10*
G36*
X177315691Y-73249053D02*
X177336926Y-73252203D01*
X177357750Y-73257419D01*
X177377962Y-73264651D01*
X177397368Y-73273830D01*
X177415781Y-73284866D01*
X177433024Y-73297654D01*
X177448930Y-73312070D01*
X177463346Y-73327976D01*
X177476134Y-73345219D01*
X177487170Y-73363632D01*
X177496349Y-73383038D01*
X177503581Y-73403250D01*
X177508797Y-73424074D01*
X177511947Y-73445309D01*
X177513000Y-73466750D01*
X177513000Y-73904250D01*
X177511947Y-73925691D01*
X177508797Y-73946926D01*
X177503581Y-73967750D01*
X177496349Y-73987962D01*
X177487170Y-74007368D01*
X177476134Y-74025781D01*
X177463346Y-74043024D01*
X177448930Y-74058930D01*
X177433024Y-74073346D01*
X177415781Y-74086134D01*
X177397368Y-74097170D01*
X177377962Y-74106349D01*
X177357750Y-74113581D01*
X177336926Y-74118797D01*
X177315691Y-74121947D01*
X177294250Y-74123000D01*
X176781750Y-74123000D01*
X176760309Y-74121947D01*
X176739074Y-74118797D01*
X176718250Y-74113581D01*
X176698038Y-74106349D01*
X176678632Y-74097170D01*
X176660219Y-74086134D01*
X176642976Y-74073346D01*
X176627070Y-74058930D01*
X176612654Y-74043024D01*
X176599866Y-74025781D01*
X176588830Y-74007368D01*
X176579651Y-73987962D01*
X176572419Y-73967750D01*
X176567203Y-73946926D01*
X176564053Y-73925691D01*
X176563000Y-73904250D01*
X176563000Y-73466750D01*
X176564053Y-73445309D01*
X176567203Y-73424074D01*
X176572419Y-73403250D01*
X176579651Y-73383038D01*
X176588830Y-73363632D01*
X176599866Y-73345219D01*
X176612654Y-73327976D01*
X176627070Y-73312070D01*
X176642976Y-73297654D01*
X176660219Y-73284866D01*
X176678632Y-73273830D01*
X176698038Y-73264651D01*
X176718250Y-73257419D01*
X176739074Y-73252203D01*
X176760309Y-73249053D01*
X176781750Y-73248000D01*
X177294250Y-73248000D01*
X177315691Y-73249053D01*
X177315691Y-73249053D01*
G37*
D11*
X177038000Y-73685500D03*
G04 #@! TD*
D10*
G04 #@! TO.C,C5*
G36*
X152157691Y-94522053D02*
X152178926Y-94525203D01*
X152199750Y-94530419D01*
X152219962Y-94537651D01*
X152239368Y-94546830D01*
X152257781Y-94557866D01*
X152275024Y-94570654D01*
X152290930Y-94585070D01*
X152305346Y-94600976D01*
X152318134Y-94618219D01*
X152329170Y-94636632D01*
X152338349Y-94656038D01*
X152345581Y-94676250D01*
X152350797Y-94697074D01*
X152353947Y-94718309D01*
X152355000Y-94739750D01*
X152355000Y-95252250D01*
X152353947Y-95273691D01*
X152350797Y-95294926D01*
X152345581Y-95315750D01*
X152338349Y-95335962D01*
X152329170Y-95355368D01*
X152318134Y-95373781D01*
X152305346Y-95391024D01*
X152290930Y-95406930D01*
X152275024Y-95421346D01*
X152257781Y-95434134D01*
X152239368Y-95445170D01*
X152219962Y-95454349D01*
X152199750Y-95461581D01*
X152178926Y-95466797D01*
X152157691Y-95469947D01*
X152136250Y-95471000D01*
X151698750Y-95471000D01*
X151677309Y-95469947D01*
X151656074Y-95466797D01*
X151635250Y-95461581D01*
X151615038Y-95454349D01*
X151595632Y-95445170D01*
X151577219Y-95434134D01*
X151559976Y-95421346D01*
X151544070Y-95406930D01*
X151529654Y-95391024D01*
X151516866Y-95373781D01*
X151505830Y-95355368D01*
X151496651Y-95335962D01*
X151489419Y-95315750D01*
X151484203Y-95294926D01*
X151481053Y-95273691D01*
X151480000Y-95252250D01*
X151480000Y-94739750D01*
X151481053Y-94718309D01*
X151484203Y-94697074D01*
X151489419Y-94676250D01*
X151496651Y-94656038D01*
X151505830Y-94636632D01*
X151516866Y-94618219D01*
X151529654Y-94600976D01*
X151544070Y-94585070D01*
X151559976Y-94570654D01*
X151577219Y-94557866D01*
X151595632Y-94546830D01*
X151615038Y-94537651D01*
X151635250Y-94530419D01*
X151656074Y-94525203D01*
X151677309Y-94522053D01*
X151698750Y-94521000D01*
X152136250Y-94521000D01*
X152157691Y-94522053D01*
X152157691Y-94522053D01*
G37*
D11*
X151917500Y-94996000D03*
D10*
G36*
X150582691Y-94522053D02*
X150603926Y-94525203D01*
X150624750Y-94530419D01*
X150644962Y-94537651D01*
X150664368Y-94546830D01*
X150682781Y-94557866D01*
X150700024Y-94570654D01*
X150715930Y-94585070D01*
X150730346Y-94600976D01*
X150743134Y-94618219D01*
X150754170Y-94636632D01*
X150763349Y-94656038D01*
X150770581Y-94676250D01*
X150775797Y-94697074D01*
X150778947Y-94718309D01*
X150780000Y-94739750D01*
X150780000Y-95252250D01*
X150778947Y-95273691D01*
X150775797Y-95294926D01*
X150770581Y-95315750D01*
X150763349Y-95335962D01*
X150754170Y-95355368D01*
X150743134Y-95373781D01*
X150730346Y-95391024D01*
X150715930Y-95406930D01*
X150700024Y-95421346D01*
X150682781Y-95434134D01*
X150664368Y-95445170D01*
X150644962Y-95454349D01*
X150624750Y-95461581D01*
X150603926Y-95466797D01*
X150582691Y-95469947D01*
X150561250Y-95471000D01*
X150123750Y-95471000D01*
X150102309Y-95469947D01*
X150081074Y-95466797D01*
X150060250Y-95461581D01*
X150040038Y-95454349D01*
X150020632Y-95445170D01*
X150002219Y-95434134D01*
X149984976Y-95421346D01*
X149969070Y-95406930D01*
X149954654Y-95391024D01*
X149941866Y-95373781D01*
X149930830Y-95355368D01*
X149921651Y-95335962D01*
X149914419Y-95315750D01*
X149909203Y-95294926D01*
X149906053Y-95273691D01*
X149905000Y-95252250D01*
X149905000Y-94739750D01*
X149906053Y-94718309D01*
X149909203Y-94697074D01*
X149914419Y-94676250D01*
X149921651Y-94656038D01*
X149930830Y-94636632D01*
X149941866Y-94618219D01*
X149954654Y-94600976D01*
X149969070Y-94585070D01*
X149984976Y-94570654D01*
X150002219Y-94557866D01*
X150020632Y-94546830D01*
X150040038Y-94537651D01*
X150060250Y-94530419D01*
X150081074Y-94525203D01*
X150102309Y-94522053D01*
X150123750Y-94521000D01*
X150561250Y-94521000D01*
X150582691Y-94522053D01*
X150582691Y-94522053D01*
G37*
D11*
X150342500Y-94996000D03*
G04 #@! TD*
D10*
G04 #@! TO.C,C6*
G36*
X150582691Y-99094053D02*
X150603926Y-99097203D01*
X150624750Y-99102419D01*
X150644962Y-99109651D01*
X150664368Y-99118830D01*
X150682781Y-99129866D01*
X150700024Y-99142654D01*
X150715930Y-99157070D01*
X150730346Y-99172976D01*
X150743134Y-99190219D01*
X150754170Y-99208632D01*
X150763349Y-99228038D01*
X150770581Y-99248250D01*
X150775797Y-99269074D01*
X150778947Y-99290309D01*
X150780000Y-99311750D01*
X150780000Y-99824250D01*
X150778947Y-99845691D01*
X150775797Y-99866926D01*
X150770581Y-99887750D01*
X150763349Y-99907962D01*
X150754170Y-99927368D01*
X150743134Y-99945781D01*
X150730346Y-99963024D01*
X150715930Y-99978930D01*
X150700024Y-99993346D01*
X150682781Y-100006134D01*
X150664368Y-100017170D01*
X150644962Y-100026349D01*
X150624750Y-100033581D01*
X150603926Y-100038797D01*
X150582691Y-100041947D01*
X150561250Y-100043000D01*
X150123750Y-100043000D01*
X150102309Y-100041947D01*
X150081074Y-100038797D01*
X150060250Y-100033581D01*
X150040038Y-100026349D01*
X150020632Y-100017170D01*
X150002219Y-100006134D01*
X149984976Y-99993346D01*
X149969070Y-99978930D01*
X149954654Y-99963024D01*
X149941866Y-99945781D01*
X149930830Y-99927368D01*
X149921651Y-99907962D01*
X149914419Y-99887750D01*
X149909203Y-99866926D01*
X149906053Y-99845691D01*
X149905000Y-99824250D01*
X149905000Y-99311750D01*
X149906053Y-99290309D01*
X149909203Y-99269074D01*
X149914419Y-99248250D01*
X149921651Y-99228038D01*
X149930830Y-99208632D01*
X149941866Y-99190219D01*
X149954654Y-99172976D01*
X149969070Y-99157070D01*
X149984976Y-99142654D01*
X150002219Y-99129866D01*
X150020632Y-99118830D01*
X150040038Y-99109651D01*
X150060250Y-99102419D01*
X150081074Y-99097203D01*
X150102309Y-99094053D01*
X150123750Y-99093000D01*
X150561250Y-99093000D01*
X150582691Y-99094053D01*
X150582691Y-99094053D01*
G37*
D11*
X150342500Y-99568000D03*
D10*
G36*
X152157691Y-99094053D02*
X152178926Y-99097203D01*
X152199750Y-99102419D01*
X152219962Y-99109651D01*
X152239368Y-99118830D01*
X152257781Y-99129866D01*
X152275024Y-99142654D01*
X152290930Y-99157070D01*
X152305346Y-99172976D01*
X152318134Y-99190219D01*
X152329170Y-99208632D01*
X152338349Y-99228038D01*
X152345581Y-99248250D01*
X152350797Y-99269074D01*
X152353947Y-99290309D01*
X152355000Y-99311750D01*
X152355000Y-99824250D01*
X152353947Y-99845691D01*
X152350797Y-99866926D01*
X152345581Y-99887750D01*
X152338349Y-99907962D01*
X152329170Y-99927368D01*
X152318134Y-99945781D01*
X152305346Y-99963024D01*
X152290930Y-99978930D01*
X152275024Y-99993346D01*
X152257781Y-100006134D01*
X152239368Y-100017170D01*
X152219962Y-100026349D01*
X152199750Y-100033581D01*
X152178926Y-100038797D01*
X152157691Y-100041947D01*
X152136250Y-100043000D01*
X151698750Y-100043000D01*
X151677309Y-100041947D01*
X151656074Y-100038797D01*
X151635250Y-100033581D01*
X151615038Y-100026349D01*
X151595632Y-100017170D01*
X151577219Y-100006134D01*
X151559976Y-99993346D01*
X151544070Y-99978930D01*
X151529654Y-99963024D01*
X151516866Y-99945781D01*
X151505830Y-99927368D01*
X151496651Y-99907962D01*
X151489419Y-99887750D01*
X151484203Y-99866926D01*
X151481053Y-99845691D01*
X151480000Y-99824250D01*
X151480000Y-99311750D01*
X151481053Y-99290309D01*
X151484203Y-99269074D01*
X151489419Y-99248250D01*
X151496651Y-99228038D01*
X151505830Y-99208632D01*
X151516866Y-99190219D01*
X151529654Y-99172976D01*
X151544070Y-99157070D01*
X151559976Y-99142654D01*
X151577219Y-99129866D01*
X151595632Y-99118830D01*
X151615038Y-99109651D01*
X151635250Y-99102419D01*
X151656074Y-99097203D01*
X151677309Y-99094053D01*
X151698750Y-99093000D01*
X152136250Y-99093000D01*
X152157691Y-99094053D01*
X152157691Y-99094053D01*
G37*
D11*
X151917500Y-99568000D03*
G04 #@! TD*
D10*
G04 #@! TO.C,C7*
G36*
X174941191Y-96808053D02*
X174962426Y-96811203D01*
X174983250Y-96816419D01*
X175003462Y-96823651D01*
X175022868Y-96832830D01*
X175041281Y-96843866D01*
X175058524Y-96856654D01*
X175074430Y-96871070D01*
X175088846Y-96886976D01*
X175101634Y-96904219D01*
X175112670Y-96922632D01*
X175121849Y-96942038D01*
X175129081Y-96962250D01*
X175134297Y-96983074D01*
X175137447Y-97004309D01*
X175138500Y-97025750D01*
X175138500Y-97538250D01*
X175137447Y-97559691D01*
X175134297Y-97580926D01*
X175129081Y-97601750D01*
X175121849Y-97621962D01*
X175112670Y-97641368D01*
X175101634Y-97659781D01*
X175088846Y-97677024D01*
X175074430Y-97692930D01*
X175058524Y-97707346D01*
X175041281Y-97720134D01*
X175022868Y-97731170D01*
X175003462Y-97740349D01*
X174983250Y-97747581D01*
X174962426Y-97752797D01*
X174941191Y-97755947D01*
X174919750Y-97757000D01*
X174482250Y-97757000D01*
X174460809Y-97755947D01*
X174439574Y-97752797D01*
X174418750Y-97747581D01*
X174398538Y-97740349D01*
X174379132Y-97731170D01*
X174360719Y-97720134D01*
X174343476Y-97707346D01*
X174327570Y-97692930D01*
X174313154Y-97677024D01*
X174300366Y-97659781D01*
X174289330Y-97641368D01*
X174280151Y-97621962D01*
X174272919Y-97601750D01*
X174267703Y-97580926D01*
X174264553Y-97559691D01*
X174263500Y-97538250D01*
X174263500Y-97025750D01*
X174264553Y-97004309D01*
X174267703Y-96983074D01*
X174272919Y-96962250D01*
X174280151Y-96942038D01*
X174289330Y-96922632D01*
X174300366Y-96904219D01*
X174313154Y-96886976D01*
X174327570Y-96871070D01*
X174343476Y-96856654D01*
X174360719Y-96843866D01*
X174379132Y-96832830D01*
X174398538Y-96823651D01*
X174418750Y-96816419D01*
X174439574Y-96811203D01*
X174460809Y-96808053D01*
X174482250Y-96807000D01*
X174919750Y-96807000D01*
X174941191Y-96808053D01*
X174941191Y-96808053D01*
G37*
D11*
X174701000Y-97282000D03*
D10*
G36*
X176516191Y-96808053D02*
X176537426Y-96811203D01*
X176558250Y-96816419D01*
X176578462Y-96823651D01*
X176597868Y-96832830D01*
X176616281Y-96843866D01*
X176633524Y-96856654D01*
X176649430Y-96871070D01*
X176663846Y-96886976D01*
X176676634Y-96904219D01*
X176687670Y-96922632D01*
X176696849Y-96942038D01*
X176704081Y-96962250D01*
X176709297Y-96983074D01*
X176712447Y-97004309D01*
X176713500Y-97025750D01*
X176713500Y-97538250D01*
X176712447Y-97559691D01*
X176709297Y-97580926D01*
X176704081Y-97601750D01*
X176696849Y-97621962D01*
X176687670Y-97641368D01*
X176676634Y-97659781D01*
X176663846Y-97677024D01*
X176649430Y-97692930D01*
X176633524Y-97707346D01*
X176616281Y-97720134D01*
X176597868Y-97731170D01*
X176578462Y-97740349D01*
X176558250Y-97747581D01*
X176537426Y-97752797D01*
X176516191Y-97755947D01*
X176494750Y-97757000D01*
X176057250Y-97757000D01*
X176035809Y-97755947D01*
X176014574Y-97752797D01*
X175993750Y-97747581D01*
X175973538Y-97740349D01*
X175954132Y-97731170D01*
X175935719Y-97720134D01*
X175918476Y-97707346D01*
X175902570Y-97692930D01*
X175888154Y-97677024D01*
X175875366Y-97659781D01*
X175864330Y-97641368D01*
X175855151Y-97621962D01*
X175847919Y-97601750D01*
X175842703Y-97580926D01*
X175839553Y-97559691D01*
X175838500Y-97538250D01*
X175838500Y-97025750D01*
X175839553Y-97004309D01*
X175842703Y-96983074D01*
X175847919Y-96962250D01*
X175855151Y-96942038D01*
X175864330Y-96922632D01*
X175875366Y-96904219D01*
X175888154Y-96886976D01*
X175902570Y-96871070D01*
X175918476Y-96856654D01*
X175935719Y-96843866D01*
X175954132Y-96832830D01*
X175973538Y-96823651D01*
X175993750Y-96816419D01*
X176014574Y-96811203D01*
X176035809Y-96808053D01*
X176057250Y-96807000D01*
X176494750Y-96807000D01*
X176516191Y-96808053D01*
X176516191Y-96808053D01*
G37*
D11*
X176276000Y-97282000D03*
G04 #@! TD*
D12*
G04 #@! TO.C,D1*
X171072000Y-69088000D03*
X168272000Y-69088000D03*
G04 #@! TD*
D10*
G04 #@! TO.C,D2*
G36*
X174966691Y-91474053D02*
X174987926Y-91477203D01*
X175008750Y-91482419D01*
X175028962Y-91489651D01*
X175048368Y-91498830D01*
X175066781Y-91509866D01*
X175084024Y-91522654D01*
X175099930Y-91537070D01*
X175114346Y-91552976D01*
X175127134Y-91570219D01*
X175138170Y-91588632D01*
X175147349Y-91608038D01*
X175154581Y-91628250D01*
X175159797Y-91649074D01*
X175162947Y-91670309D01*
X175164000Y-91691750D01*
X175164000Y-92204250D01*
X175162947Y-92225691D01*
X175159797Y-92246926D01*
X175154581Y-92267750D01*
X175147349Y-92287962D01*
X175138170Y-92307368D01*
X175127134Y-92325781D01*
X175114346Y-92343024D01*
X175099930Y-92358930D01*
X175084024Y-92373346D01*
X175066781Y-92386134D01*
X175048368Y-92397170D01*
X175028962Y-92406349D01*
X175008750Y-92413581D01*
X174987926Y-92418797D01*
X174966691Y-92421947D01*
X174945250Y-92423000D01*
X174507750Y-92423000D01*
X174486309Y-92421947D01*
X174465074Y-92418797D01*
X174444250Y-92413581D01*
X174424038Y-92406349D01*
X174404632Y-92397170D01*
X174386219Y-92386134D01*
X174368976Y-92373346D01*
X174353070Y-92358930D01*
X174338654Y-92343024D01*
X174325866Y-92325781D01*
X174314830Y-92307368D01*
X174305651Y-92287962D01*
X174298419Y-92267750D01*
X174293203Y-92246926D01*
X174290053Y-92225691D01*
X174289000Y-92204250D01*
X174289000Y-91691750D01*
X174290053Y-91670309D01*
X174293203Y-91649074D01*
X174298419Y-91628250D01*
X174305651Y-91608038D01*
X174314830Y-91588632D01*
X174325866Y-91570219D01*
X174338654Y-91552976D01*
X174353070Y-91537070D01*
X174368976Y-91522654D01*
X174386219Y-91509866D01*
X174404632Y-91498830D01*
X174424038Y-91489651D01*
X174444250Y-91482419D01*
X174465074Y-91477203D01*
X174486309Y-91474053D01*
X174507750Y-91473000D01*
X174945250Y-91473000D01*
X174966691Y-91474053D01*
X174966691Y-91474053D01*
G37*
D11*
X174726500Y-91948000D03*
D10*
G36*
X176541691Y-91474053D02*
X176562926Y-91477203D01*
X176583750Y-91482419D01*
X176603962Y-91489651D01*
X176623368Y-91498830D01*
X176641781Y-91509866D01*
X176659024Y-91522654D01*
X176674930Y-91537070D01*
X176689346Y-91552976D01*
X176702134Y-91570219D01*
X176713170Y-91588632D01*
X176722349Y-91608038D01*
X176729581Y-91628250D01*
X176734797Y-91649074D01*
X176737947Y-91670309D01*
X176739000Y-91691750D01*
X176739000Y-92204250D01*
X176737947Y-92225691D01*
X176734797Y-92246926D01*
X176729581Y-92267750D01*
X176722349Y-92287962D01*
X176713170Y-92307368D01*
X176702134Y-92325781D01*
X176689346Y-92343024D01*
X176674930Y-92358930D01*
X176659024Y-92373346D01*
X176641781Y-92386134D01*
X176623368Y-92397170D01*
X176603962Y-92406349D01*
X176583750Y-92413581D01*
X176562926Y-92418797D01*
X176541691Y-92421947D01*
X176520250Y-92423000D01*
X176082750Y-92423000D01*
X176061309Y-92421947D01*
X176040074Y-92418797D01*
X176019250Y-92413581D01*
X175999038Y-92406349D01*
X175979632Y-92397170D01*
X175961219Y-92386134D01*
X175943976Y-92373346D01*
X175928070Y-92358930D01*
X175913654Y-92343024D01*
X175900866Y-92325781D01*
X175889830Y-92307368D01*
X175880651Y-92287962D01*
X175873419Y-92267750D01*
X175868203Y-92246926D01*
X175865053Y-92225691D01*
X175864000Y-92204250D01*
X175864000Y-91691750D01*
X175865053Y-91670309D01*
X175868203Y-91649074D01*
X175873419Y-91628250D01*
X175880651Y-91608038D01*
X175889830Y-91588632D01*
X175900866Y-91570219D01*
X175913654Y-91552976D01*
X175928070Y-91537070D01*
X175943976Y-91522654D01*
X175961219Y-91509866D01*
X175979632Y-91498830D01*
X175999038Y-91489651D01*
X176019250Y-91482419D01*
X176040074Y-91477203D01*
X176061309Y-91474053D01*
X176082750Y-91473000D01*
X176520250Y-91473000D01*
X176541691Y-91474053D01*
X176541691Y-91474053D01*
G37*
D11*
X176301500Y-91948000D03*
G04 #@! TD*
D10*
G04 #@! TO.C,L1*
G36*
X164527191Y-68614053D02*
X164548426Y-68617203D01*
X164569250Y-68622419D01*
X164589462Y-68629651D01*
X164608868Y-68638830D01*
X164627281Y-68649866D01*
X164644524Y-68662654D01*
X164660430Y-68677070D01*
X164674846Y-68692976D01*
X164687634Y-68710219D01*
X164698670Y-68728632D01*
X164707849Y-68748038D01*
X164715081Y-68768250D01*
X164720297Y-68789074D01*
X164723447Y-68810309D01*
X164724500Y-68831750D01*
X164724500Y-69344250D01*
X164723447Y-69365691D01*
X164720297Y-69386926D01*
X164715081Y-69407750D01*
X164707849Y-69427962D01*
X164698670Y-69447368D01*
X164687634Y-69465781D01*
X164674846Y-69483024D01*
X164660430Y-69498930D01*
X164644524Y-69513346D01*
X164627281Y-69526134D01*
X164608868Y-69537170D01*
X164589462Y-69546349D01*
X164569250Y-69553581D01*
X164548426Y-69558797D01*
X164527191Y-69561947D01*
X164505750Y-69563000D01*
X164068250Y-69563000D01*
X164046809Y-69561947D01*
X164025574Y-69558797D01*
X164004750Y-69553581D01*
X163984538Y-69546349D01*
X163965132Y-69537170D01*
X163946719Y-69526134D01*
X163929476Y-69513346D01*
X163913570Y-69498930D01*
X163899154Y-69483024D01*
X163886366Y-69465781D01*
X163875330Y-69447368D01*
X163866151Y-69427962D01*
X163858919Y-69407750D01*
X163853703Y-69386926D01*
X163850553Y-69365691D01*
X163849500Y-69344250D01*
X163849500Y-68831750D01*
X163850553Y-68810309D01*
X163853703Y-68789074D01*
X163858919Y-68768250D01*
X163866151Y-68748038D01*
X163875330Y-68728632D01*
X163886366Y-68710219D01*
X163899154Y-68692976D01*
X163913570Y-68677070D01*
X163929476Y-68662654D01*
X163946719Y-68649866D01*
X163965132Y-68638830D01*
X163984538Y-68629651D01*
X164004750Y-68622419D01*
X164025574Y-68617203D01*
X164046809Y-68614053D01*
X164068250Y-68613000D01*
X164505750Y-68613000D01*
X164527191Y-68614053D01*
X164527191Y-68614053D01*
G37*
D11*
X164287000Y-69088000D03*
D10*
G36*
X166102191Y-68614053D02*
X166123426Y-68617203D01*
X166144250Y-68622419D01*
X166164462Y-68629651D01*
X166183868Y-68638830D01*
X166202281Y-68649866D01*
X166219524Y-68662654D01*
X166235430Y-68677070D01*
X166249846Y-68692976D01*
X166262634Y-68710219D01*
X166273670Y-68728632D01*
X166282849Y-68748038D01*
X166290081Y-68768250D01*
X166295297Y-68789074D01*
X166298447Y-68810309D01*
X166299500Y-68831750D01*
X166299500Y-69344250D01*
X166298447Y-69365691D01*
X166295297Y-69386926D01*
X166290081Y-69407750D01*
X166282849Y-69427962D01*
X166273670Y-69447368D01*
X166262634Y-69465781D01*
X166249846Y-69483024D01*
X166235430Y-69498930D01*
X166219524Y-69513346D01*
X166202281Y-69526134D01*
X166183868Y-69537170D01*
X166164462Y-69546349D01*
X166144250Y-69553581D01*
X166123426Y-69558797D01*
X166102191Y-69561947D01*
X166080750Y-69563000D01*
X165643250Y-69563000D01*
X165621809Y-69561947D01*
X165600574Y-69558797D01*
X165579750Y-69553581D01*
X165559538Y-69546349D01*
X165540132Y-69537170D01*
X165521719Y-69526134D01*
X165504476Y-69513346D01*
X165488570Y-69498930D01*
X165474154Y-69483024D01*
X165461366Y-69465781D01*
X165450330Y-69447368D01*
X165441151Y-69427962D01*
X165433919Y-69407750D01*
X165428703Y-69386926D01*
X165425553Y-69365691D01*
X165424500Y-69344250D01*
X165424500Y-68831750D01*
X165425553Y-68810309D01*
X165428703Y-68789074D01*
X165433919Y-68768250D01*
X165441151Y-68748038D01*
X165450330Y-68728632D01*
X165461366Y-68710219D01*
X165474154Y-68692976D01*
X165488570Y-68677070D01*
X165504476Y-68662654D01*
X165521719Y-68649866D01*
X165540132Y-68638830D01*
X165559538Y-68629651D01*
X165579750Y-68622419D01*
X165600574Y-68617203D01*
X165621809Y-68614053D01*
X165643250Y-68613000D01*
X166080750Y-68613000D01*
X166102191Y-68614053D01*
X166102191Y-68614053D01*
G37*
D11*
X165862000Y-69088000D03*
G04 #@! TD*
D10*
G04 #@! TO.C,R1*
G36*
X161313691Y-97633053D02*
X161334926Y-97636203D01*
X161355750Y-97641419D01*
X161375962Y-97648651D01*
X161395368Y-97657830D01*
X161413781Y-97668866D01*
X161431024Y-97681654D01*
X161446930Y-97696070D01*
X161461346Y-97711976D01*
X161474134Y-97729219D01*
X161485170Y-97747632D01*
X161494349Y-97767038D01*
X161501581Y-97787250D01*
X161506797Y-97808074D01*
X161509947Y-97829309D01*
X161511000Y-97850750D01*
X161511000Y-98288250D01*
X161509947Y-98309691D01*
X161506797Y-98330926D01*
X161501581Y-98351750D01*
X161494349Y-98371962D01*
X161485170Y-98391368D01*
X161474134Y-98409781D01*
X161461346Y-98427024D01*
X161446930Y-98442930D01*
X161431024Y-98457346D01*
X161413781Y-98470134D01*
X161395368Y-98481170D01*
X161375962Y-98490349D01*
X161355750Y-98497581D01*
X161334926Y-98502797D01*
X161313691Y-98505947D01*
X161292250Y-98507000D01*
X160779750Y-98507000D01*
X160758309Y-98505947D01*
X160737074Y-98502797D01*
X160716250Y-98497581D01*
X160696038Y-98490349D01*
X160676632Y-98481170D01*
X160658219Y-98470134D01*
X160640976Y-98457346D01*
X160625070Y-98442930D01*
X160610654Y-98427024D01*
X160597866Y-98409781D01*
X160586830Y-98391368D01*
X160577651Y-98371962D01*
X160570419Y-98351750D01*
X160565203Y-98330926D01*
X160562053Y-98309691D01*
X160561000Y-98288250D01*
X160561000Y-97850750D01*
X160562053Y-97829309D01*
X160565203Y-97808074D01*
X160570419Y-97787250D01*
X160577651Y-97767038D01*
X160586830Y-97747632D01*
X160597866Y-97729219D01*
X160610654Y-97711976D01*
X160625070Y-97696070D01*
X160640976Y-97681654D01*
X160658219Y-97668866D01*
X160676632Y-97657830D01*
X160696038Y-97648651D01*
X160716250Y-97641419D01*
X160737074Y-97636203D01*
X160758309Y-97633053D01*
X160779750Y-97632000D01*
X161292250Y-97632000D01*
X161313691Y-97633053D01*
X161313691Y-97633053D01*
G37*
D11*
X161036000Y-98069500D03*
D10*
G36*
X161313691Y-96058053D02*
X161334926Y-96061203D01*
X161355750Y-96066419D01*
X161375962Y-96073651D01*
X161395368Y-96082830D01*
X161413781Y-96093866D01*
X161431024Y-96106654D01*
X161446930Y-96121070D01*
X161461346Y-96136976D01*
X161474134Y-96154219D01*
X161485170Y-96172632D01*
X161494349Y-96192038D01*
X161501581Y-96212250D01*
X161506797Y-96233074D01*
X161509947Y-96254309D01*
X161511000Y-96275750D01*
X161511000Y-96713250D01*
X161509947Y-96734691D01*
X161506797Y-96755926D01*
X161501581Y-96776750D01*
X161494349Y-96796962D01*
X161485170Y-96816368D01*
X161474134Y-96834781D01*
X161461346Y-96852024D01*
X161446930Y-96867930D01*
X161431024Y-96882346D01*
X161413781Y-96895134D01*
X161395368Y-96906170D01*
X161375962Y-96915349D01*
X161355750Y-96922581D01*
X161334926Y-96927797D01*
X161313691Y-96930947D01*
X161292250Y-96932000D01*
X160779750Y-96932000D01*
X160758309Y-96930947D01*
X160737074Y-96927797D01*
X160716250Y-96922581D01*
X160696038Y-96915349D01*
X160676632Y-96906170D01*
X160658219Y-96895134D01*
X160640976Y-96882346D01*
X160625070Y-96867930D01*
X160610654Y-96852024D01*
X160597866Y-96834781D01*
X160586830Y-96816368D01*
X160577651Y-96796962D01*
X160570419Y-96776750D01*
X160565203Y-96755926D01*
X160562053Y-96734691D01*
X160561000Y-96713250D01*
X160561000Y-96275750D01*
X160562053Y-96254309D01*
X160565203Y-96233074D01*
X160570419Y-96212250D01*
X160577651Y-96192038D01*
X160586830Y-96172632D01*
X160597866Y-96154219D01*
X160610654Y-96136976D01*
X160625070Y-96121070D01*
X160640976Y-96106654D01*
X160658219Y-96093866D01*
X160676632Y-96082830D01*
X160696038Y-96073651D01*
X160716250Y-96066419D01*
X160737074Y-96061203D01*
X160758309Y-96058053D01*
X160779750Y-96057000D01*
X161292250Y-96057000D01*
X161313691Y-96058053D01*
X161313691Y-96058053D01*
G37*
D11*
X161036000Y-96494500D03*
G04 #@! TD*
D10*
G04 #@! TO.C,R2*
G36*
X167409691Y-76754053D02*
X167430926Y-76757203D01*
X167451750Y-76762419D01*
X167471962Y-76769651D01*
X167491368Y-76778830D01*
X167509781Y-76789866D01*
X167527024Y-76802654D01*
X167542930Y-76817070D01*
X167557346Y-76832976D01*
X167570134Y-76850219D01*
X167581170Y-76868632D01*
X167590349Y-76888038D01*
X167597581Y-76908250D01*
X167602797Y-76929074D01*
X167605947Y-76950309D01*
X167607000Y-76971750D01*
X167607000Y-77409250D01*
X167605947Y-77430691D01*
X167602797Y-77451926D01*
X167597581Y-77472750D01*
X167590349Y-77492962D01*
X167581170Y-77512368D01*
X167570134Y-77530781D01*
X167557346Y-77548024D01*
X167542930Y-77563930D01*
X167527024Y-77578346D01*
X167509781Y-77591134D01*
X167491368Y-77602170D01*
X167471962Y-77611349D01*
X167451750Y-77618581D01*
X167430926Y-77623797D01*
X167409691Y-77626947D01*
X167388250Y-77628000D01*
X166875750Y-77628000D01*
X166854309Y-77626947D01*
X166833074Y-77623797D01*
X166812250Y-77618581D01*
X166792038Y-77611349D01*
X166772632Y-77602170D01*
X166754219Y-77591134D01*
X166736976Y-77578346D01*
X166721070Y-77563930D01*
X166706654Y-77548024D01*
X166693866Y-77530781D01*
X166682830Y-77512368D01*
X166673651Y-77492962D01*
X166666419Y-77472750D01*
X166661203Y-77451926D01*
X166658053Y-77430691D01*
X166657000Y-77409250D01*
X166657000Y-76971750D01*
X166658053Y-76950309D01*
X166661203Y-76929074D01*
X166666419Y-76908250D01*
X166673651Y-76888038D01*
X166682830Y-76868632D01*
X166693866Y-76850219D01*
X166706654Y-76832976D01*
X166721070Y-76817070D01*
X166736976Y-76802654D01*
X166754219Y-76789866D01*
X166772632Y-76778830D01*
X166792038Y-76769651D01*
X166812250Y-76762419D01*
X166833074Y-76757203D01*
X166854309Y-76754053D01*
X166875750Y-76753000D01*
X167388250Y-76753000D01*
X167409691Y-76754053D01*
X167409691Y-76754053D01*
G37*
D11*
X167132000Y-77190500D03*
D10*
G36*
X167409691Y-78329053D02*
X167430926Y-78332203D01*
X167451750Y-78337419D01*
X167471962Y-78344651D01*
X167491368Y-78353830D01*
X167509781Y-78364866D01*
X167527024Y-78377654D01*
X167542930Y-78392070D01*
X167557346Y-78407976D01*
X167570134Y-78425219D01*
X167581170Y-78443632D01*
X167590349Y-78463038D01*
X167597581Y-78483250D01*
X167602797Y-78504074D01*
X167605947Y-78525309D01*
X167607000Y-78546750D01*
X167607000Y-78984250D01*
X167605947Y-79005691D01*
X167602797Y-79026926D01*
X167597581Y-79047750D01*
X167590349Y-79067962D01*
X167581170Y-79087368D01*
X167570134Y-79105781D01*
X167557346Y-79123024D01*
X167542930Y-79138930D01*
X167527024Y-79153346D01*
X167509781Y-79166134D01*
X167491368Y-79177170D01*
X167471962Y-79186349D01*
X167451750Y-79193581D01*
X167430926Y-79198797D01*
X167409691Y-79201947D01*
X167388250Y-79203000D01*
X166875750Y-79203000D01*
X166854309Y-79201947D01*
X166833074Y-79198797D01*
X166812250Y-79193581D01*
X166792038Y-79186349D01*
X166772632Y-79177170D01*
X166754219Y-79166134D01*
X166736976Y-79153346D01*
X166721070Y-79138930D01*
X166706654Y-79123024D01*
X166693866Y-79105781D01*
X166682830Y-79087368D01*
X166673651Y-79067962D01*
X166666419Y-79047750D01*
X166661203Y-79026926D01*
X166658053Y-79005691D01*
X166657000Y-78984250D01*
X166657000Y-78546750D01*
X166658053Y-78525309D01*
X166661203Y-78504074D01*
X166666419Y-78483250D01*
X166673651Y-78463038D01*
X166682830Y-78443632D01*
X166693866Y-78425219D01*
X166706654Y-78407976D01*
X166721070Y-78392070D01*
X166736976Y-78377654D01*
X166754219Y-78364866D01*
X166772632Y-78353830D01*
X166792038Y-78344651D01*
X166812250Y-78337419D01*
X166833074Y-78332203D01*
X166854309Y-78329053D01*
X166875750Y-78328000D01*
X167388250Y-78328000D01*
X167409691Y-78329053D01*
X167409691Y-78329053D01*
G37*
D11*
X167132000Y-78765500D03*
G04 #@! TD*
D10*
G04 #@! TO.C,R3*
G36*
X170648691Y-78266053D02*
X170669926Y-78269203D01*
X170690750Y-78274419D01*
X170710962Y-78281651D01*
X170730368Y-78290830D01*
X170748781Y-78301866D01*
X170766024Y-78314654D01*
X170781930Y-78329070D01*
X170796346Y-78344976D01*
X170809134Y-78362219D01*
X170820170Y-78380632D01*
X170829349Y-78400038D01*
X170836581Y-78420250D01*
X170841797Y-78441074D01*
X170844947Y-78462309D01*
X170846000Y-78483750D01*
X170846000Y-78996250D01*
X170844947Y-79017691D01*
X170841797Y-79038926D01*
X170836581Y-79059750D01*
X170829349Y-79079962D01*
X170820170Y-79099368D01*
X170809134Y-79117781D01*
X170796346Y-79135024D01*
X170781930Y-79150930D01*
X170766024Y-79165346D01*
X170748781Y-79178134D01*
X170730368Y-79189170D01*
X170710962Y-79198349D01*
X170690750Y-79205581D01*
X170669926Y-79210797D01*
X170648691Y-79213947D01*
X170627250Y-79215000D01*
X170189750Y-79215000D01*
X170168309Y-79213947D01*
X170147074Y-79210797D01*
X170126250Y-79205581D01*
X170106038Y-79198349D01*
X170086632Y-79189170D01*
X170068219Y-79178134D01*
X170050976Y-79165346D01*
X170035070Y-79150930D01*
X170020654Y-79135024D01*
X170007866Y-79117781D01*
X169996830Y-79099368D01*
X169987651Y-79079962D01*
X169980419Y-79059750D01*
X169975203Y-79038926D01*
X169972053Y-79017691D01*
X169971000Y-78996250D01*
X169971000Y-78483750D01*
X169972053Y-78462309D01*
X169975203Y-78441074D01*
X169980419Y-78420250D01*
X169987651Y-78400038D01*
X169996830Y-78380632D01*
X170007866Y-78362219D01*
X170020654Y-78344976D01*
X170035070Y-78329070D01*
X170050976Y-78314654D01*
X170068219Y-78301866D01*
X170086632Y-78290830D01*
X170106038Y-78281651D01*
X170126250Y-78274419D01*
X170147074Y-78269203D01*
X170168309Y-78266053D01*
X170189750Y-78265000D01*
X170627250Y-78265000D01*
X170648691Y-78266053D01*
X170648691Y-78266053D01*
G37*
D11*
X170408500Y-78740000D03*
D10*
G36*
X172223691Y-78266053D02*
X172244926Y-78269203D01*
X172265750Y-78274419D01*
X172285962Y-78281651D01*
X172305368Y-78290830D01*
X172323781Y-78301866D01*
X172341024Y-78314654D01*
X172356930Y-78329070D01*
X172371346Y-78344976D01*
X172384134Y-78362219D01*
X172395170Y-78380632D01*
X172404349Y-78400038D01*
X172411581Y-78420250D01*
X172416797Y-78441074D01*
X172419947Y-78462309D01*
X172421000Y-78483750D01*
X172421000Y-78996250D01*
X172419947Y-79017691D01*
X172416797Y-79038926D01*
X172411581Y-79059750D01*
X172404349Y-79079962D01*
X172395170Y-79099368D01*
X172384134Y-79117781D01*
X172371346Y-79135024D01*
X172356930Y-79150930D01*
X172341024Y-79165346D01*
X172323781Y-79178134D01*
X172305368Y-79189170D01*
X172285962Y-79198349D01*
X172265750Y-79205581D01*
X172244926Y-79210797D01*
X172223691Y-79213947D01*
X172202250Y-79215000D01*
X171764750Y-79215000D01*
X171743309Y-79213947D01*
X171722074Y-79210797D01*
X171701250Y-79205581D01*
X171681038Y-79198349D01*
X171661632Y-79189170D01*
X171643219Y-79178134D01*
X171625976Y-79165346D01*
X171610070Y-79150930D01*
X171595654Y-79135024D01*
X171582866Y-79117781D01*
X171571830Y-79099368D01*
X171562651Y-79079962D01*
X171555419Y-79059750D01*
X171550203Y-79038926D01*
X171547053Y-79017691D01*
X171546000Y-78996250D01*
X171546000Y-78483750D01*
X171547053Y-78462309D01*
X171550203Y-78441074D01*
X171555419Y-78420250D01*
X171562651Y-78400038D01*
X171571830Y-78380632D01*
X171582866Y-78362219D01*
X171595654Y-78344976D01*
X171610070Y-78329070D01*
X171625976Y-78314654D01*
X171643219Y-78301866D01*
X171661632Y-78290830D01*
X171681038Y-78281651D01*
X171701250Y-78274419D01*
X171722074Y-78269203D01*
X171743309Y-78266053D01*
X171764750Y-78265000D01*
X172202250Y-78265000D01*
X172223691Y-78266053D01*
X172223691Y-78266053D01*
G37*
D11*
X171983500Y-78740000D03*
G04 #@! TD*
D10*
G04 #@! TO.C,R4*
G36*
X159472691Y-80298053D02*
X159493926Y-80301203D01*
X159514750Y-80306419D01*
X159534962Y-80313651D01*
X159554368Y-80322830D01*
X159572781Y-80333866D01*
X159590024Y-80346654D01*
X159605930Y-80361070D01*
X159620346Y-80376976D01*
X159633134Y-80394219D01*
X159644170Y-80412632D01*
X159653349Y-80432038D01*
X159660581Y-80452250D01*
X159665797Y-80473074D01*
X159668947Y-80494309D01*
X159670000Y-80515750D01*
X159670000Y-81028250D01*
X159668947Y-81049691D01*
X159665797Y-81070926D01*
X159660581Y-81091750D01*
X159653349Y-81111962D01*
X159644170Y-81131368D01*
X159633134Y-81149781D01*
X159620346Y-81167024D01*
X159605930Y-81182930D01*
X159590024Y-81197346D01*
X159572781Y-81210134D01*
X159554368Y-81221170D01*
X159534962Y-81230349D01*
X159514750Y-81237581D01*
X159493926Y-81242797D01*
X159472691Y-81245947D01*
X159451250Y-81247000D01*
X159013750Y-81247000D01*
X158992309Y-81245947D01*
X158971074Y-81242797D01*
X158950250Y-81237581D01*
X158930038Y-81230349D01*
X158910632Y-81221170D01*
X158892219Y-81210134D01*
X158874976Y-81197346D01*
X158859070Y-81182930D01*
X158844654Y-81167024D01*
X158831866Y-81149781D01*
X158820830Y-81131368D01*
X158811651Y-81111962D01*
X158804419Y-81091750D01*
X158799203Y-81070926D01*
X158796053Y-81049691D01*
X158795000Y-81028250D01*
X158795000Y-80515750D01*
X158796053Y-80494309D01*
X158799203Y-80473074D01*
X158804419Y-80452250D01*
X158811651Y-80432038D01*
X158820830Y-80412632D01*
X158831866Y-80394219D01*
X158844654Y-80376976D01*
X158859070Y-80361070D01*
X158874976Y-80346654D01*
X158892219Y-80333866D01*
X158910632Y-80322830D01*
X158930038Y-80313651D01*
X158950250Y-80306419D01*
X158971074Y-80301203D01*
X158992309Y-80298053D01*
X159013750Y-80297000D01*
X159451250Y-80297000D01*
X159472691Y-80298053D01*
X159472691Y-80298053D01*
G37*
D11*
X159232500Y-80772000D03*
D10*
G36*
X161047691Y-80298053D02*
X161068926Y-80301203D01*
X161089750Y-80306419D01*
X161109962Y-80313651D01*
X161129368Y-80322830D01*
X161147781Y-80333866D01*
X161165024Y-80346654D01*
X161180930Y-80361070D01*
X161195346Y-80376976D01*
X161208134Y-80394219D01*
X161219170Y-80412632D01*
X161228349Y-80432038D01*
X161235581Y-80452250D01*
X161240797Y-80473074D01*
X161243947Y-80494309D01*
X161245000Y-80515750D01*
X161245000Y-81028250D01*
X161243947Y-81049691D01*
X161240797Y-81070926D01*
X161235581Y-81091750D01*
X161228349Y-81111962D01*
X161219170Y-81131368D01*
X161208134Y-81149781D01*
X161195346Y-81167024D01*
X161180930Y-81182930D01*
X161165024Y-81197346D01*
X161147781Y-81210134D01*
X161129368Y-81221170D01*
X161109962Y-81230349D01*
X161089750Y-81237581D01*
X161068926Y-81242797D01*
X161047691Y-81245947D01*
X161026250Y-81247000D01*
X160588750Y-81247000D01*
X160567309Y-81245947D01*
X160546074Y-81242797D01*
X160525250Y-81237581D01*
X160505038Y-81230349D01*
X160485632Y-81221170D01*
X160467219Y-81210134D01*
X160449976Y-81197346D01*
X160434070Y-81182930D01*
X160419654Y-81167024D01*
X160406866Y-81149781D01*
X160395830Y-81131368D01*
X160386651Y-81111962D01*
X160379419Y-81091750D01*
X160374203Y-81070926D01*
X160371053Y-81049691D01*
X160370000Y-81028250D01*
X160370000Y-80515750D01*
X160371053Y-80494309D01*
X160374203Y-80473074D01*
X160379419Y-80452250D01*
X160386651Y-80432038D01*
X160395830Y-80412632D01*
X160406866Y-80394219D01*
X160419654Y-80376976D01*
X160434070Y-80361070D01*
X160449976Y-80346654D01*
X160467219Y-80333866D01*
X160485632Y-80322830D01*
X160505038Y-80313651D01*
X160525250Y-80306419D01*
X160546074Y-80301203D01*
X160567309Y-80298053D01*
X160588750Y-80297000D01*
X161026250Y-80297000D01*
X161047691Y-80298053D01*
X161047691Y-80298053D01*
G37*
D11*
X160807500Y-80772000D03*
G04 #@! TD*
D10*
G04 #@! TO.C,R5*
G36*
X160793691Y-69376053D02*
X160814926Y-69379203D01*
X160835750Y-69384419D01*
X160855962Y-69391651D01*
X160875368Y-69400830D01*
X160893781Y-69411866D01*
X160911024Y-69424654D01*
X160926930Y-69439070D01*
X160941346Y-69454976D01*
X160954134Y-69472219D01*
X160965170Y-69490632D01*
X160974349Y-69510038D01*
X160981581Y-69530250D01*
X160986797Y-69551074D01*
X160989947Y-69572309D01*
X160991000Y-69593750D01*
X160991000Y-70106250D01*
X160989947Y-70127691D01*
X160986797Y-70148926D01*
X160981581Y-70169750D01*
X160974349Y-70189962D01*
X160965170Y-70209368D01*
X160954134Y-70227781D01*
X160941346Y-70245024D01*
X160926930Y-70260930D01*
X160911024Y-70275346D01*
X160893781Y-70288134D01*
X160875368Y-70299170D01*
X160855962Y-70308349D01*
X160835750Y-70315581D01*
X160814926Y-70320797D01*
X160793691Y-70323947D01*
X160772250Y-70325000D01*
X160334750Y-70325000D01*
X160313309Y-70323947D01*
X160292074Y-70320797D01*
X160271250Y-70315581D01*
X160251038Y-70308349D01*
X160231632Y-70299170D01*
X160213219Y-70288134D01*
X160195976Y-70275346D01*
X160180070Y-70260930D01*
X160165654Y-70245024D01*
X160152866Y-70227781D01*
X160141830Y-70209368D01*
X160132651Y-70189962D01*
X160125419Y-70169750D01*
X160120203Y-70148926D01*
X160117053Y-70127691D01*
X160116000Y-70106250D01*
X160116000Y-69593750D01*
X160117053Y-69572309D01*
X160120203Y-69551074D01*
X160125419Y-69530250D01*
X160132651Y-69510038D01*
X160141830Y-69490632D01*
X160152866Y-69472219D01*
X160165654Y-69454976D01*
X160180070Y-69439070D01*
X160195976Y-69424654D01*
X160213219Y-69411866D01*
X160231632Y-69400830D01*
X160251038Y-69391651D01*
X160271250Y-69384419D01*
X160292074Y-69379203D01*
X160313309Y-69376053D01*
X160334750Y-69375000D01*
X160772250Y-69375000D01*
X160793691Y-69376053D01*
X160793691Y-69376053D01*
G37*
D11*
X160553500Y-69850000D03*
D10*
G36*
X159218691Y-69376053D02*
X159239926Y-69379203D01*
X159260750Y-69384419D01*
X159280962Y-69391651D01*
X159300368Y-69400830D01*
X159318781Y-69411866D01*
X159336024Y-69424654D01*
X159351930Y-69439070D01*
X159366346Y-69454976D01*
X159379134Y-69472219D01*
X159390170Y-69490632D01*
X159399349Y-69510038D01*
X159406581Y-69530250D01*
X159411797Y-69551074D01*
X159414947Y-69572309D01*
X159416000Y-69593750D01*
X159416000Y-70106250D01*
X159414947Y-70127691D01*
X159411797Y-70148926D01*
X159406581Y-70169750D01*
X159399349Y-70189962D01*
X159390170Y-70209368D01*
X159379134Y-70227781D01*
X159366346Y-70245024D01*
X159351930Y-70260930D01*
X159336024Y-70275346D01*
X159318781Y-70288134D01*
X159300368Y-70299170D01*
X159280962Y-70308349D01*
X159260750Y-70315581D01*
X159239926Y-70320797D01*
X159218691Y-70323947D01*
X159197250Y-70325000D01*
X158759750Y-70325000D01*
X158738309Y-70323947D01*
X158717074Y-70320797D01*
X158696250Y-70315581D01*
X158676038Y-70308349D01*
X158656632Y-70299170D01*
X158638219Y-70288134D01*
X158620976Y-70275346D01*
X158605070Y-70260930D01*
X158590654Y-70245024D01*
X158577866Y-70227781D01*
X158566830Y-70209368D01*
X158557651Y-70189962D01*
X158550419Y-70169750D01*
X158545203Y-70148926D01*
X158542053Y-70127691D01*
X158541000Y-70106250D01*
X158541000Y-69593750D01*
X158542053Y-69572309D01*
X158545203Y-69551074D01*
X158550419Y-69530250D01*
X158557651Y-69510038D01*
X158566830Y-69490632D01*
X158577866Y-69472219D01*
X158590654Y-69454976D01*
X158605070Y-69439070D01*
X158620976Y-69424654D01*
X158638219Y-69411866D01*
X158656632Y-69400830D01*
X158676038Y-69391651D01*
X158696250Y-69384419D01*
X158717074Y-69379203D01*
X158738309Y-69376053D01*
X158759750Y-69375000D01*
X159197250Y-69375000D01*
X159218691Y-69376053D01*
X159218691Y-69376053D01*
G37*
D11*
X158978500Y-69850000D03*
G04 #@! TD*
D10*
G04 #@! TO.C,R6*
G36*
X176541691Y-93252053D02*
X176562926Y-93255203D01*
X176583750Y-93260419D01*
X176603962Y-93267651D01*
X176623368Y-93276830D01*
X176641781Y-93287866D01*
X176659024Y-93300654D01*
X176674930Y-93315070D01*
X176689346Y-93330976D01*
X176702134Y-93348219D01*
X176713170Y-93366632D01*
X176722349Y-93386038D01*
X176729581Y-93406250D01*
X176734797Y-93427074D01*
X176737947Y-93448309D01*
X176739000Y-93469750D01*
X176739000Y-93982250D01*
X176737947Y-94003691D01*
X176734797Y-94024926D01*
X176729581Y-94045750D01*
X176722349Y-94065962D01*
X176713170Y-94085368D01*
X176702134Y-94103781D01*
X176689346Y-94121024D01*
X176674930Y-94136930D01*
X176659024Y-94151346D01*
X176641781Y-94164134D01*
X176623368Y-94175170D01*
X176603962Y-94184349D01*
X176583750Y-94191581D01*
X176562926Y-94196797D01*
X176541691Y-94199947D01*
X176520250Y-94201000D01*
X176082750Y-94201000D01*
X176061309Y-94199947D01*
X176040074Y-94196797D01*
X176019250Y-94191581D01*
X175999038Y-94184349D01*
X175979632Y-94175170D01*
X175961219Y-94164134D01*
X175943976Y-94151346D01*
X175928070Y-94136930D01*
X175913654Y-94121024D01*
X175900866Y-94103781D01*
X175889830Y-94085368D01*
X175880651Y-94065962D01*
X175873419Y-94045750D01*
X175868203Y-94024926D01*
X175865053Y-94003691D01*
X175864000Y-93982250D01*
X175864000Y-93469750D01*
X175865053Y-93448309D01*
X175868203Y-93427074D01*
X175873419Y-93406250D01*
X175880651Y-93386038D01*
X175889830Y-93366632D01*
X175900866Y-93348219D01*
X175913654Y-93330976D01*
X175928070Y-93315070D01*
X175943976Y-93300654D01*
X175961219Y-93287866D01*
X175979632Y-93276830D01*
X175999038Y-93267651D01*
X176019250Y-93260419D01*
X176040074Y-93255203D01*
X176061309Y-93252053D01*
X176082750Y-93251000D01*
X176520250Y-93251000D01*
X176541691Y-93252053D01*
X176541691Y-93252053D01*
G37*
D11*
X176301500Y-93726000D03*
D10*
G36*
X174966691Y-93252053D02*
X174987926Y-93255203D01*
X175008750Y-93260419D01*
X175028962Y-93267651D01*
X175048368Y-93276830D01*
X175066781Y-93287866D01*
X175084024Y-93300654D01*
X175099930Y-93315070D01*
X175114346Y-93330976D01*
X175127134Y-93348219D01*
X175138170Y-93366632D01*
X175147349Y-93386038D01*
X175154581Y-93406250D01*
X175159797Y-93427074D01*
X175162947Y-93448309D01*
X175164000Y-93469750D01*
X175164000Y-93982250D01*
X175162947Y-94003691D01*
X175159797Y-94024926D01*
X175154581Y-94045750D01*
X175147349Y-94065962D01*
X175138170Y-94085368D01*
X175127134Y-94103781D01*
X175114346Y-94121024D01*
X175099930Y-94136930D01*
X175084024Y-94151346D01*
X175066781Y-94164134D01*
X175048368Y-94175170D01*
X175028962Y-94184349D01*
X175008750Y-94191581D01*
X174987926Y-94196797D01*
X174966691Y-94199947D01*
X174945250Y-94201000D01*
X174507750Y-94201000D01*
X174486309Y-94199947D01*
X174465074Y-94196797D01*
X174444250Y-94191581D01*
X174424038Y-94184349D01*
X174404632Y-94175170D01*
X174386219Y-94164134D01*
X174368976Y-94151346D01*
X174353070Y-94136930D01*
X174338654Y-94121024D01*
X174325866Y-94103781D01*
X174314830Y-94085368D01*
X174305651Y-94065962D01*
X174298419Y-94045750D01*
X174293203Y-94024926D01*
X174290053Y-94003691D01*
X174289000Y-93982250D01*
X174289000Y-93469750D01*
X174290053Y-93448309D01*
X174293203Y-93427074D01*
X174298419Y-93406250D01*
X174305651Y-93386038D01*
X174314830Y-93366632D01*
X174325866Y-93348219D01*
X174338654Y-93330976D01*
X174353070Y-93315070D01*
X174368976Y-93300654D01*
X174386219Y-93287866D01*
X174404632Y-93276830D01*
X174424038Y-93267651D01*
X174444250Y-93260419D01*
X174465074Y-93255203D01*
X174486309Y-93252053D01*
X174507750Y-93251000D01*
X174945250Y-93251000D01*
X174966691Y-93252053D01*
X174966691Y-93252053D01*
G37*
D11*
X174726500Y-93726000D03*
G04 #@! TD*
D10*
G04 #@! TO.C,R7*
G36*
X174966691Y-95030053D02*
X174987926Y-95033203D01*
X175008750Y-95038419D01*
X175028962Y-95045651D01*
X175048368Y-95054830D01*
X175066781Y-95065866D01*
X175084024Y-95078654D01*
X175099930Y-95093070D01*
X175114346Y-95108976D01*
X175127134Y-95126219D01*
X175138170Y-95144632D01*
X175147349Y-95164038D01*
X175154581Y-95184250D01*
X175159797Y-95205074D01*
X175162947Y-95226309D01*
X175164000Y-95247750D01*
X175164000Y-95760250D01*
X175162947Y-95781691D01*
X175159797Y-95802926D01*
X175154581Y-95823750D01*
X175147349Y-95843962D01*
X175138170Y-95863368D01*
X175127134Y-95881781D01*
X175114346Y-95899024D01*
X175099930Y-95914930D01*
X175084024Y-95929346D01*
X175066781Y-95942134D01*
X175048368Y-95953170D01*
X175028962Y-95962349D01*
X175008750Y-95969581D01*
X174987926Y-95974797D01*
X174966691Y-95977947D01*
X174945250Y-95979000D01*
X174507750Y-95979000D01*
X174486309Y-95977947D01*
X174465074Y-95974797D01*
X174444250Y-95969581D01*
X174424038Y-95962349D01*
X174404632Y-95953170D01*
X174386219Y-95942134D01*
X174368976Y-95929346D01*
X174353070Y-95914930D01*
X174338654Y-95899024D01*
X174325866Y-95881781D01*
X174314830Y-95863368D01*
X174305651Y-95843962D01*
X174298419Y-95823750D01*
X174293203Y-95802926D01*
X174290053Y-95781691D01*
X174289000Y-95760250D01*
X174289000Y-95247750D01*
X174290053Y-95226309D01*
X174293203Y-95205074D01*
X174298419Y-95184250D01*
X174305651Y-95164038D01*
X174314830Y-95144632D01*
X174325866Y-95126219D01*
X174338654Y-95108976D01*
X174353070Y-95093070D01*
X174368976Y-95078654D01*
X174386219Y-95065866D01*
X174404632Y-95054830D01*
X174424038Y-95045651D01*
X174444250Y-95038419D01*
X174465074Y-95033203D01*
X174486309Y-95030053D01*
X174507750Y-95029000D01*
X174945250Y-95029000D01*
X174966691Y-95030053D01*
X174966691Y-95030053D01*
G37*
D11*
X174726500Y-95504000D03*
D10*
G36*
X176541691Y-95030053D02*
X176562926Y-95033203D01*
X176583750Y-95038419D01*
X176603962Y-95045651D01*
X176623368Y-95054830D01*
X176641781Y-95065866D01*
X176659024Y-95078654D01*
X176674930Y-95093070D01*
X176689346Y-95108976D01*
X176702134Y-95126219D01*
X176713170Y-95144632D01*
X176722349Y-95164038D01*
X176729581Y-95184250D01*
X176734797Y-95205074D01*
X176737947Y-95226309D01*
X176739000Y-95247750D01*
X176739000Y-95760250D01*
X176737947Y-95781691D01*
X176734797Y-95802926D01*
X176729581Y-95823750D01*
X176722349Y-95843962D01*
X176713170Y-95863368D01*
X176702134Y-95881781D01*
X176689346Y-95899024D01*
X176674930Y-95914930D01*
X176659024Y-95929346D01*
X176641781Y-95942134D01*
X176623368Y-95953170D01*
X176603962Y-95962349D01*
X176583750Y-95969581D01*
X176562926Y-95974797D01*
X176541691Y-95977947D01*
X176520250Y-95979000D01*
X176082750Y-95979000D01*
X176061309Y-95977947D01*
X176040074Y-95974797D01*
X176019250Y-95969581D01*
X175999038Y-95962349D01*
X175979632Y-95953170D01*
X175961219Y-95942134D01*
X175943976Y-95929346D01*
X175928070Y-95914930D01*
X175913654Y-95899024D01*
X175900866Y-95881781D01*
X175889830Y-95863368D01*
X175880651Y-95843962D01*
X175873419Y-95823750D01*
X175868203Y-95802926D01*
X175865053Y-95781691D01*
X175864000Y-95760250D01*
X175864000Y-95247750D01*
X175865053Y-95226309D01*
X175868203Y-95205074D01*
X175873419Y-95184250D01*
X175880651Y-95164038D01*
X175889830Y-95144632D01*
X175900866Y-95126219D01*
X175913654Y-95108976D01*
X175928070Y-95093070D01*
X175943976Y-95078654D01*
X175961219Y-95065866D01*
X175979632Y-95054830D01*
X175999038Y-95045651D01*
X176019250Y-95038419D01*
X176040074Y-95033203D01*
X176061309Y-95030053D01*
X176082750Y-95029000D01*
X176520250Y-95029000D01*
X176541691Y-95030053D01*
X176541691Y-95030053D01*
G37*
D11*
X176301500Y-95504000D03*
G04 #@! TD*
D13*
G04 #@! TO.C,U1*
X169799000Y-73218000D03*
X169799000Y-74168000D03*
X169799000Y-75118000D03*
X172085000Y-75118000D03*
X172085000Y-74168000D03*
X172085000Y-73218000D03*
G04 #@! TD*
D14*
G04 #@! TO.C,U4*
X164436000Y-92325000D03*
X164436000Y-92975000D03*
X164436000Y-93625000D03*
X164436000Y-94275000D03*
X164436000Y-94925000D03*
X164436000Y-95575000D03*
X164436000Y-96225000D03*
X164436000Y-96875000D03*
X164436000Y-97525000D03*
X164436000Y-98175000D03*
X170336000Y-98175000D03*
X170336000Y-97525000D03*
X170336000Y-96875000D03*
X170336000Y-96225000D03*
X170336000Y-95575000D03*
X170336000Y-94925000D03*
X170336000Y-94275000D03*
X170336000Y-93625000D03*
X170336000Y-92975000D03*
X170336000Y-92325000D03*
G04 #@! TD*
D15*
G04 #@! TO.C,U5*
X155288000Y-72263000D03*
X155288000Y-73533000D03*
X155288000Y-74803000D03*
X155288000Y-76073000D03*
X160688000Y-76073000D03*
X160688000Y-74803000D03*
X160688000Y-73533000D03*
X160688000Y-72263000D03*
G04 #@! TD*
D16*
G04 #@! TO.C,Y1*
X156464000Y-95082000D03*
X156464000Y-99482000D03*
G04 #@! TD*
M02*
