G04 #@! TF.GenerationSoftware,KiCad,Pcbnew,(5.0.1)-3*
G04 #@! TF.CreationDate,2018-11-01T19:24:07-05:00*
G04 #@! TF.ProjectId,module-tester-board,6D6F64756C652D7465737465722D626F,rev?*
G04 #@! TF.SameCoordinates,Original*
G04 #@! TF.FileFunction,Copper,L1,Top,Signal*
G04 #@! TF.FilePolarity,Positive*
%FSLAX46Y46*%
G04 Gerber Fmt 4.6, Leading zero omitted, Abs format (unit mm)*
G04 Created by KiCad (PCBNEW (5.0.1)-3) date 11/1/2018 7:24:07 PM*
%MOMM*%
%LPD*%
G01*
G04 APERTURE LIST*
G04 #@! TA.AperFunction,ComponentPad*
%ADD10R,1.600000X1.600000*%
G04 #@! TD*
G04 #@! TA.AperFunction,ComponentPad*
%ADD11O,1.600000X1.600000*%
G04 #@! TD*
G04 #@! TA.AperFunction,Conductor*
%ADD12C,0.100000*%
G04 #@! TD*
G04 #@! TA.AperFunction,SMDPad,CuDef*
%ADD13C,0.875000*%
G04 #@! TD*
G04 #@! TA.AperFunction,SMDPad,CuDef*
%ADD14R,1.100000X1.100000*%
G04 #@! TD*
G04 #@! TA.AperFunction,ComponentPad*
%ADD15R,1.700000X1.700000*%
G04 #@! TD*
G04 #@! TA.AperFunction,ComponentPad*
%ADD16O,1.700000X1.700000*%
G04 #@! TD*
G04 #@! TA.AperFunction,ComponentPad*
%ADD17O,5.000000X2.500000*%
G04 #@! TD*
G04 #@! TA.AperFunction,ComponentPad*
%ADD18O,4.500000X2.250000*%
G04 #@! TD*
G04 #@! TA.AperFunction,SMDPad,CuDef*
%ADD19R,1.219200X0.508000*%
G04 #@! TD*
G04 #@! TA.AperFunction,SMDPad,CuDef*
%ADD20R,1.450000X0.450000*%
G04 #@! TD*
G04 #@! TA.AperFunction,SMDPad,CuDef*
%ADD21R,1.550000X0.600000*%
G04 #@! TD*
G04 #@! TA.AperFunction,SMDPad,CuDef*
%ADD22R,2.500000X1.900000*%
G04 #@! TD*
G04 #@! TA.AperFunction,ViaPad*
%ADD23C,0.800000*%
G04 #@! TD*
G04 #@! TA.AperFunction,ViaPad*
%ADD24C,1.200000*%
G04 #@! TD*
G04 #@! TA.AperFunction,Conductor*
%ADD25C,0.250000*%
G04 #@! TD*
G04 #@! TA.AperFunction,Conductor*
%ADD26C,0.304800*%
G04 #@! TD*
G04 #@! TA.AperFunction,Conductor*
%ADD27C,1.063000*%
G04 #@! TD*
G04 #@! TA.AperFunction,Conductor*
%ADD28C,0.254000*%
G04 #@! TD*
G04 APERTURE END LIST*
D10*
G04 #@! TO.P,A1,1*
G04 #@! TO.N,Net-(A1-Pad1)*
X128016000Y-77470000D03*
D11*
G04 #@! TO.P,A1,17*
G04 #@! TO.N,Net-(A1-Pad17)*
X143256000Y-110490000D03*
G04 #@! TO.P,A1,2*
G04 #@! TO.N,Net-(A1-Pad2)*
X128016000Y-80010000D03*
G04 #@! TO.P,A1,18*
G04 #@! TO.N,Net-(A1-Pad18)*
X143256000Y-107950000D03*
G04 #@! TO.P,A1,3*
G04 #@! TO.N,Net-(A1-Pad3)*
X128016000Y-82550000D03*
G04 #@! TO.P,A1,19*
G04 #@! TO.N,A0*
X143256000Y-105410000D03*
G04 #@! TO.P,A1,4*
G04 #@! TO.N,GND*
X128016000Y-85090000D03*
G04 #@! TO.P,A1,20*
G04 #@! TO.N,A1*
X143256000Y-102870000D03*
G04 #@! TO.P,A1,5*
G04 #@! TO.N,INT*
X128016000Y-87630000D03*
G04 #@! TO.P,A1,21*
G04 #@! TO.N,Net-(A1-Pad21)*
X143256000Y-100330000D03*
G04 #@! TO.P,A1,6*
G04 #@! TO.N,RX0*
X128016000Y-90170000D03*
G04 #@! TO.P,A1,22*
G04 #@! TO.N,Net-(A1-Pad22)*
X143256000Y-97790000D03*
G04 #@! TO.P,A1,7*
G04 #@! TO.N,RX1*
X128016000Y-92710000D03*
G04 #@! TO.P,A1,23*
G04 #@! TO.N,Net-(A1-Pad23)*
X143256000Y-95250000D03*
G04 #@! TO.P,A1,8*
G04 #@! TO.N,PWM0*
X128016000Y-95250000D03*
G04 #@! TO.P,A1,24*
G04 #@! TO.N,Net-(A1-Pad24)*
X143256000Y-92710000D03*
G04 #@! TO.P,A1,9*
G04 #@! TO.N,PWM1*
X128016000Y-97790000D03*
G04 #@! TO.P,A1,25*
G04 #@! TO.N,Net-(A1-Pad25)*
X143256000Y-90170000D03*
G04 #@! TO.P,A1,10*
G04 #@! TO.N,TX0*
X128016000Y-100330000D03*
G04 #@! TO.P,A1,26*
G04 #@! TO.N,Net-(A1-Pad26)*
X143256000Y-87630000D03*
G04 #@! TO.P,A1,11*
G04 #@! TO.N,TX1*
X128016000Y-102870000D03*
G04 #@! TO.P,A1,27*
G04 #@! TO.N,+5V*
X143256000Y-85090000D03*
G04 #@! TO.P,A1,12*
G04 #@! TO.N,TX2*
X128016000Y-105410000D03*
G04 #@! TO.P,A1,28*
G04 #@! TO.N,Net-(A1-Pad28)*
X143256000Y-82550000D03*
G04 #@! TO.P,A1,13*
G04 #@! TO.N,SS*
X128016000Y-107950000D03*
G04 #@! TO.P,A1,29*
G04 #@! TO.N,GND*
X143256000Y-80010000D03*
G04 #@! TO.P,A1,14*
G04 #@! TO.N,SI*
X128016000Y-110490000D03*
G04 #@! TO.P,A1,30*
G04 #@! TO.N,+12V*
X143256000Y-77470000D03*
G04 #@! TO.P,A1,15*
G04 #@! TO.N,SO*
X128016000Y-113030000D03*
G04 #@! TO.P,A1,16*
G04 #@! TO.N,SCK*
X143256000Y-113030000D03*
G04 #@! TD*
D12*
G04 #@! TO.N,+12V*
G04 #@! TO.C,C1*
G36*
X164615691Y-71674053D02*
X164636926Y-71677203D01*
X164657750Y-71682419D01*
X164677962Y-71689651D01*
X164697368Y-71698830D01*
X164715781Y-71709866D01*
X164733024Y-71722654D01*
X164748930Y-71737070D01*
X164763346Y-71752976D01*
X164776134Y-71770219D01*
X164787170Y-71788632D01*
X164796349Y-71808038D01*
X164803581Y-71828250D01*
X164808797Y-71849074D01*
X164811947Y-71870309D01*
X164813000Y-71891750D01*
X164813000Y-72329250D01*
X164811947Y-72350691D01*
X164808797Y-72371926D01*
X164803581Y-72392750D01*
X164796349Y-72412962D01*
X164787170Y-72432368D01*
X164776134Y-72450781D01*
X164763346Y-72468024D01*
X164748930Y-72483930D01*
X164733024Y-72498346D01*
X164715781Y-72511134D01*
X164697368Y-72522170D01*
X164677962Y-72531349D01*
X164657750Y-72538581D01*
X164636926Y-72543797D01*
X164615691Y-72546947D01*
X164594250Y-72548000D01*
X164081750Y-72548000D01*
X164060309Y-72546947D01*
X164039074Y-72543797D01*
X164018250Y-72538581D01*
X163998038Y-72531349D01*
X163978632Y-72522170D01*
X163960219Y-72511134D01*
X163942976Y-72498346D01*
X163927070Y-72483930D01*
X163912654Y-72468024D01*
X163899866Y-72450781D01*
X163888830Y-72432368D01*
X163879651Y-72412962D01*
X163872419Y-72392750D01*
X163867203Y-72371926D01*
X163864053Y-72350691D01*
X163863000Y-72329250D01*
X163863000Y-71891750D01*
X163864053Y-71870309D01*
X163867203Y-71849074D01*
X163872419Y-71828250D01*
X163879651Y-71808038D01*
X163888830Y-71788632D01*
X163899866Y-71770219D01*
X163912654Y-71752976D01*
X163927070Y-71737070D01*
X163942976Y-71722654D01*
X163960219Y-71709866D01*
X163978632Y-71698830D01*
X163998038Y-71689651D01*
X164018250Y-71682419D01*
X164039074Y-71677203D01*
X164060309Y-71674053D01*
X164081750Y-71673000D01*
X164594250Y-71673000D01*
X164615691Y-71674053D01*
X164615691Y-71674053D01*
G37*
D13*
G04 #@! TD*
G04 #@! TO.P,C1,1*
G04 #@! TO.N,+12V*
X164338000Y-72110500D03*
D12*
G04 #@! TO.N,GND*
G04 #@! TO.C,C1*
G36*
X164615691Y-73249053D02*
X164636926Y-73252203D01*
X164657750Y-73257419D01*
X164677962Y-73264651D01*
X164697368Y-73273830D01*
X164715781Y-73284866D01*
X164733024Y-73297654D01*
X164748930Y-73312070D01*
X164763346Y-73327976D01*
X164776134Y-73345219D01*
X164787170Y-73363632D01*
X164796349Y-73383038D01*
X164803581Y-73403250D01*
X164808797Y-73424074D01*
X164811947Y-73445309D01*
X164813000Y-73466750D01*
X164813000Y-73904250D01*
X164811947Y-73925691D01*
X164808797Y-73946926D01*
X164803581Y-73967750D01*
X164796349Y-73987962D01*
X164787170Y-74007368D01*
X164776134Y-74025781D01*
X164763346Y-74043024D01*
X164748930Y-74058930D01*
X164733024Y-74073346D01*
X164715781Y-74086134D01*
X164697368Y-74097170D01*
X164677962Y-74106349D01*
X164657750Y-74113581D01*
X164636926Y-74118797D01*
X164615691Y-74121947D01*
X164594250Y-74123000D01*
X164081750Y-74123000D01*
X164060309Y-74121947D01*
X164039074Y-74118797D01*
X164018250Y-74113581D01*
X163998038Y-74106349D01*
X163978632Y-74097170D01*
X163960219Y-74086134D01*
X163942976Y-74073346D01*
X163927070Y-74058930D01*
X163912654Y-74043024D01*
X163899866Y-74025781D01*
X163888830Y-74007368D01*
X163879651Y-73987962D01*
X163872419Y-73967750D01*
X163867203Y-73946926D01*
X163864053Y-73925691D01*
X163863000Y-73904250D01*
X163863000Y-73466750D01*
X163864053Y-73445309D01*
X163867203Y-73424074D01*
X163872419Y-73403250D01*
X163879651Y-73383038D01*
X163888830Y-73363632D01*
X163899866Y-73345219D01*
X163912654Y-73327976D01*
X163927070Y-73312070D01*
X163942976Y-73297654D01*
X163960219Y-73284866D01*
X163978632Y-73273830D01*
X163998038Y-73264651D01*
X164018250Y-73257419D01*
X164039074Y-73252203D01*
X164060309Y-73249053D01*
X164081750Y-73248000D01*
X164594250Y-73248000D01*
X164615691Y-73249053D01*
X164615691Y-73249053D01*
G37*
D13*
G04 #@! TD*
G04 #@! TO.P,C1,2*
G04 #@! TO.N,GND*
X164338000Y-73685500D03*
D12*
G04 #@! TO.N,Net-(C2-Pad2)*
G04 #@! TO.C,C2*
G36*
X164869691Y-76754053D02*
X164890926Y-76757203D01*
X164911750Y-76762419D01*
X164931962Y-76769651D01*
X164951368Y-76778830D01*
X164969781Y-76789866D01*
X164987024Y-76802654D01*
X165002930Y-76817070D01*
X165017346Y-76832976D01*
X165030134Y-76850219D01*
X165041170Y-76868632D01*
X165050349Y-76888038D01*
X165057581Y-76908250D01*
X165062797Y-76929074D01*
X165065947Y-76950309D01*
X165067000Y-76971750D01*
X165067000Y-77409250D01*
X165065947Y-77430691D01*
X165062797Y-77451926D01*
X165057581Y-77472750D01*
X165050349Y-77492962D01*
X165041170Y-77512368D01*
X165030134Y-77530781D01*
X165017346Y-77548024D01*
X165002930Y-77563930D01*
X164987024Y-77578346D01*
X164969781Y-77591134D01*
X164951368Y-77602170D01*
X164931962Y-77611349D01*
X164911750Y-77618581D01*
X164890926Y-77623797D01*
X164869691Y-77626947D01*
X164848250Y-77628000D01*
X164335750Y-77628000D01*
X164314309Y-77626947D01*
X164293074Y-77623797D01*
X164272250Y-77618581D01*
X164252038Y-77611349D01*
X164232632Y-77602170D01*
X164214219Y-77591134D01*
X164196976Y-77578346D01*
X164181070Y-77563930D01*
X164166654Y-77548024D01*
X164153866Y-77530781D01*
X164142830Y-77512368D01*
X164133651Y-77492962D01*
X164126419Y-77472750D01*
X164121203Y-77451926D01*
X164118053Y-77430691D01*
X164117000Y-77409250D01*
X164117000Y-76971750D01*
X164118053Y-76950309D01*
X164121203Y-76929074D01*
X164126419Y-76908250D01*
X164133651Y-76888038D01*
X164142830Y-76868632D01*
X164153866Y-76850219D01*
X164166654Y-76832976D01*
X164181070Y-76817070D01*
X164196976Y-76802654D01*
X164214219Y-76789866D01*
X164232632Y-76778830D01*
X164252038Y-76769651D01*
X164272250Y-76762419D01*
X164293074Y-76757203D01*
X164314309Y-76754053D01*
X164335750Y-76753000D01*
X164848250Y-76753000D01*
X164869691Y-76754053D01*
X164869691Y-76754053D01*
G37*
D13*
G04 #@! TD*
G04 #@! TO.P,C2,2*
G04 #@! TO.N,Net-(C2-Pad2)*
X164592000Y-77190500D03*
D12*
G04 #@! TO.N,+48V*
G04 #@! TO.C,C2*
G36*
X164869691Y-78329053D02*
X164890926Y-78332203D01*
X164911750Y-78337419D01*
X164931962Y-78344651D01*
X164951368Y-78353830D01*
X164969781Y-78364866D01*
X164987024Y-78377654D01*
X165002930Y-78392070D01*
X165017346Y-78407976D01*
X165030134Y-78425219D01*
X165041170Y-78443632D01*
X165050349Y-78463038D01*
X165057581Y-78483250D01*
X165062797Y-78504074D01*
X165065947Y-78525309D01*
X165067000Y-78546750D01*
X165067000Y-78984250D01*
X165065947Y-79005691D01*
X165062797Y-79026926D01*
X165057581Y-79047750D01*
X165050349Y-79067962D01*
X165041170Y-79087368D01*
X165030134Y-79105781D01*
X165017346Y-79123024D01*
X165002930Y-79138930D01*
X164987024Y-79153346D01*
X164969781Y-79166134D01*
X164951368Y-79177170D01*
X164931962Y-79186349D01*
X164911750Y-79193581D01*
X164890926Y-79198797D01*
X164869691Y-79201947D01*
X164848250Y-79203000D01*
X164335750Y-79203000D01*
X164314309Y-79201947D01*
X164293074Y-79198797D01*
X164272250Y-79193581D01*
X164252038Y-79186349D01*
X164232632Y-79177170D01*
X164214219Y-79166134D01*
X164196976Y-79153346D01*
X164181070Y-79138930D01*
X164166654Y-79123024D01*
X164153866Y-79105781D01*
X164142830Y-79087368D01*
X164133651Y-79067962D01*
X164126419Y-79047750D01*
X164121203Y-79026926D01*
X164118053Y-79005691D01*
X164117000Y-78984250D01*
X164117000Y-78546750D01*
X164118053Y-78525309D01*
X164121203Y-78504074D01*
X164126419Y-78483250D01*
X164133651Y-78463038D01*
X164142830Y-78443632D01*
X164153866Y-78425219D01*
X164166654Y-78407976D01*
X164181070Y-78392070D01*
X164196976Y-78377654D01*
X164214219Y-78364866D01*
X164232632Y-78353830D01*
X164252038Y-78344651D01*
X164272250Y-78337419D01*
X164293074Y-78332203D01*
X164314309Y-78329053D01*
X164335750Y-78328000D01*
X164848250Y-78328000D01*
X164869691Y-78329053D01*
X164869691Y-78329053D01*
G37*
D13*
G04 #@! TD*
G04 #@! TO.P,C2,1*
G04 #@! TO.N,+48V*
X164592000Y-78765500D03*
D12*
G04 #@! TO.N,Net-(C3-Pad1)*
G04 #@! TO.C,C3*
G36*
X175283691Y-77033553D02*
X175304926Y-77036703D01*
X175325750Y-77041919D01*
X175345962Y-77049151D01*
X175365368Y-77058330D01*
X175383781Y-77069366D01*
X175401024Y-77082154D01*
X175416930Y-77096570D01*
X175431346Y-77112476D01*
X175444134Y-77129719D01*
X175455170Y-77148132D01*
X175464349Y-77167538D01*
X175471581Y-77187750D01*
X175476797Y-77208574D01*
X175479947Y-77229809D01*
X175481000Y-77251250D01*
X175481000Y-77688750D01*
X175479947Y-77710191D01*
X175476797Y-77731426D01*
X175471581Y-77752250D01*
X175464349Y-77772462D01*
X175455170Y-77791868D01*
X175444134Y-77810281D01*
X175431346Y-77827524D01*
X175416930Y-77843430D01*
X175401024Y-77857846D01*
X175383781Y-77870634D01*
X175365368Y-77881670D01*
X175345962Y-77890849D01*
X175325750Y-77898081D01*
X175304926Y-77903297D01*
X175283691Y-77906447D01*
X175262250Y-77907500D01*
X174749750Y-77907500D01*
X174728309Y-77906447D01*
X174707074Y-77903297D01*
X174686250Y-77898081D01*
X174666038Y-77890849D01*
X174646632Y-77881670D01*
X174628219Y-77870634D01*
X174610976Y-77857846D01*
X174595070Y-77843430D01*
X174580654Y-77827524D01*
X174567866Y-77810281D01*
X174556830Y-77791868D01*
X174547651Y-77772462D01*
X174540419Y-77752250D01*
X174535203Y-77731426D01*
X174532053Y-77710191D01*
X174531000Y-77688750D01*
X174531000Y-77251250D01*
X174532053Y-77229809D01*
X174535203Y-77208574D01*
X174540419Y-77187750D01*
X174547651Y-77167538D01*
X174556830Y-77148132D01*
X174567866Y-77129719D01*
X174580654Y-77112476D01*
X174595070Y-77096570D01*
X174610976Y-77082154D01*
X174628219Y-77069366D01*
X174646632Y-77058330D01*
X174666038Y-77049151D01*
X174686250Y-77041919D01*
X174707074Y-77036703D01*
X174728309Y-77033553D01*
X174749750Y-77032500D01*
X175262250Y-77032500D01*
X175283691Y-77033553D01*
X175283691Y-77033553D01*
G37*
D13*
G04 #@! TD*
G04 #@! TO.P,C3,1*
G04 #@! TO.N,Net-(C3-Pad1)*
X175006000Y-77470000D03*
D12*
G04 #@! TO.N,GND*
G04 #@! TO.C,C3*
G36*
X175283691Y-78608553D02*
X175304926Y-78611703D01*
X175325750Y-78616919D01*
X175345962Y-78624151D01*
X175365368Y-78633330D01*
X175383781Y-78644366D01*
X175401024Y-78657154D01*
X175416930Y-78671570D01*
X175431346Y-78687476D01*
X175444134Y-78704719D01*
X175455170Y-78723132D01*
X175464349Y-78742538D01*
X175471581Y-78762750D01*
X175476797Y-78783574D01*
X175479947Y-78804809D01*
X175481000Y-78826250D01*
X175481000Y-79263750D01*
X175479947Y-79285191D01*
X175476797Y-79306426D01*
X175471581Y-79327250D01*
X175464349Y-79347462D01*
X175455170Y-79366868D01*
X175444134Y-79385281D01*
X175431346Y-79402524D01*
X175416930Y-79418430D01*
X175401024Y-79432846D01*
X175383781Y-79445634D01*
X175365368Y-79456670D01*
X175345962Y-79465849D01*
X175325750Y-79473081D01*
X175304926Y-79478297D01*
X175283691Y-79481447D01*
X175262250Y-79482500D01*
X174749750Y-79482500D01*
X174728309Y-79481447D01*
X174707074Y-79478297D01*
X174686250Y-79473081D01*
X174666038Y-79465849D01*
X174646632Y-79456670D01*
X174628219Y-79445634D01*
X174610976Y-79432846D01*
X174595070Y-79418430D01*
X174580654Y-79402524D01*
X174567866Y-79385281D01*
X174556830Y-79366868D01*
X174547651Y-79347462D01*
X174540419Y-79327250D01*
X174535203Y-79306426D01*
X174532053Y-79285191D01*
X174531000Y-79263750D01*
X174531000Y-78826250D01*
X174532053Y-78804809D01*
X174535203Y-78783574D01*
X174540419Y-78762750D01*
X174547651Y-78742538D01*
X174556830Y-78723132D01*
X174567866Y-78704719D01*
X174580654Y-78687476D01*
X174595070Y-78671570D01*
X174610976Y-78657154D01*
X174628219Y-78644366D01*
X174646632Y-78633330D01*
X174666038Y-78624151D01*
X174686250Y-78616919D01*
X174707074Y-78611703D01*
X174728309Y-78608553D01*
X174749750Y-78607500D01*
X175262250Y-78607500D01*
X175283691Y-78608553D01*
X175283691Y-78608553D01*
G37*
D13*
G04 #@! TD*
G04 #@! TO.P,C3,2*
G04 #@! TO.N,GND*
X175006000Y-79045000D03*
D12*
G04 #@! TO.N,+48V*
G04 #@! TO.C,C4*
G36*
X177315691Y-71674053D02*
X177336926Y-71677203D01*
X177357750Y-71682419D01*
X177377962Y-71689651D01*
X177397368Y-71698830D01*
X177415781Y-71709866D01*
X177433024Y-71722654D01*
X177448930Y-71737070D01*
X177463346Y-71752976D01*
X177476134Y-71770219D01*
X177487170Y-71788632D01*
X177496349Y-71808038D01*
X177503581Y-71828250D01*
X177508797Y-71849074D01*
X177511947Y-71870309D01*
X177513000Y-71891750D01*
X177513000Y-72329250D01*
X177511947Y-72350691D01*
X177508797Y-72371926D01*
X177503581Y-72392750D01*
X177496349Y-72412962D01*
X177487170Y-72432368D01*
X177476134Y-72450781D01*
X177463346Y-72468024D01*
X177448930Y-72483930D01*
X177433024Y-72498346D01*
X177415781Y-72511134D01*
X177397368Y-72522170D01*
X177377962Y-72531349D01*
X177357750Y-72538581D01*
X177336926Y-72543797D01*
X177315691Y-72546947D01*
X177294250Y-72548000D01*
X176781750Y-72548000D01*
X176760309Y-72546947D01*
X176739074Y-72543797D01*
X176718250Y-72538581D01*
X176698038Y-72531349D01*
X176678632Y-72522170D01*
X176660219Y-72511134D01*
X176642976Y-72498346D01*
X176627070Y-72483930D01*
X176612654Y-72468024D01*
X176599866Y-72450781D01*
X176588830Y-72432368D01*
X176579651Y-72412962D01*
X176572419Y-72392750D01*
X176567203Y-72371926D01*
X176564053Y-72350691D01*
X176563000Y-72329250D01*
X176563000Y-71891750D01*
X176564053Y-71870309D01*
X176567203Y-71849074D01*
X176572419Y-71828250D01*
X176579651Y-71808038D01*
X176588830Y-71788632D01*
X176599866Y-71770219D01*
X176612654Y-71752976D01*
X176627070Y-71737070D01*
X176642976Y-71722654D01*
X176660219Y-71709866D01*
X176678632Y-71698830D01*
X176698038Y-71689651D01*
X176718250Y-71682419D01*
X176739074Y-71677203D01*
X176760309Y-71674053D01*
X176781750Y-71673000D01*
X177294250Y-71673000D01*
X177315691Y-71674053D01*
X177315691Y-71674053D01*
G37*
D13*
G04 #@! TD*
G04 #@! TO.P,C4,2*
G04 #@! TO.N,+48V*
X177038000Y-72110500D03*
D12*
G04 #@! TO.N,GND*
G04 #@! TO.C,C4*
G36*
X177315691Y-73249053D02*
X177336926Y-73252203D01*
X177357750Y-73257419D01*
X177377962Y-73264651D01*
X177397368Y-73273830D01*
X177415781Y-73284866D01*
X177433024Y-73297654D01*
X177448930Y-73312070D01*
X177463346Y-73327976D01*
X177476134Y-73345219D01*
X177487170Y-73363632D01*
X177496349Y-73383038D01*
X177503581Y-73403250D01*
X177508797Y-73424074D01*
X177511947Y-73445309D01*
X177513000Y-73466750D01*
X177513000Y-73904250D01*
X177511947Y-73925691D01*
X177508797Y-73946926D01*
X177503581Y-73967750D01*
X177496349Y-73987962D01*
X177487170Y-74007368D01*
X177476134Y-74025781D01*
X177463346Y-74043024D01*
X177448930Y-74058930D01*
X177433024Y-74073346D01*
X177415781Y-74086134D01*
X177397368Y-74097170D01*
X177377962Y-74106349D01*
X177357750Y-74113581D01*
X177336926Y-74118797D01*
X177315691Y-74121947D01*
X177294250Y-74123000D01*
X176781750Y-74123000D01*
X176760309Y-74121947D01*
X176739074Y-74118797D01*
X176718250Y-74113581D01*
X176698038Y-74106349D01*
X176678632Y-74097170D01*
X176660219Y-74086134D01*
X176642976Y-74073346D01*
X176627070Y-74058930D01*
X176612654Y-74043024D01*
X176599866Y-74025781D01*
X176588830Y-74007368D01*
X176579651Y-73987962D01*
X176572419Y-73967750D01*
X176567203Y-73946926D01*
X176564053Y-73925691D01*
X176563000Y-73904250D01*
X176563000Y-73466750D01*
X176564053Y-73445309D01*
X176567203Y-73424074D01*
X176572419Y-73403250D01*
X176579651Y-73383038D01*
X176588830Y-73363632D01*
X176599866Y-73345219D01*
X176612654Y-73327976D01*
X176627070Y-73312070D01*
X176642976Y-73297654D01*
X176660219Y-73284866D01*
X176678632Y-73273830D01*
X176698038Y-73264651D01*
X176718250Y-73257419D01*
X176739074Y-73252203D01*
X176760309Y-73249053D01*
X176781750Y-73248000D01*
X177294250Y-73248000D01*
X177315691Y-73249053D01*
X177315691Y-73249053D01*
G37*
D13*
G04 #@! TD*
G04 #@! TO.P,C4,1*
G04 #@! TO.N,GND*
X177038000Y-73685500D03*
D12*
G04 #@! TO.N,Net-(C5-Pad1)*
G04 #@! TO.C,C5*
G36*
X152157691Y-94522053D02*
X152178926Y-94525203D01*
X152199750Y-94530419D01*
X152219962Y-94537651D01*
X152239368Y-94546830D01*
X152257781Y-94557866D01*
X152275024Y-94570654D01*
X152290930Y-94585070D01*
X152305346Y-94600976D01*
X152318134Y-94618219D01*
X152329170Y-94636632D01*
X152338349Y-94656038D01*
X152345581Y-94676250D01*
X152350797Y-94697074D01*
X152353947Y-94718309D01*
X152355000Y-94739750D01*
X152355000Y-95252250D01*
X152353947Y-95273691D01*
X152350797Y-95294926D01*
X152345581Y-95315750D01*
X152338349Y-95335962D01*
X152329170Y-95355368D01*
X152318134Y-95373781D01*
X152305346Y-95391024D01*
X152290930Y-95406930D01*
X152275024Y-95421346D01*
X152257781Y-95434134D01*
X152239368Y-95445170D01*
X152219962Y-95454349D01*
X152199750Y-95461581D01*
X152178926Y-95466797D01*
X152157691Y-95469947D01*
X152136250Y-95471000D01*
X151698750Y-95471000D01*
X151677309Y-95469947D01*
X151656074Y-95466797D01*
X151635250Y-95461581D01*
X151615038Y-95454349D01*
X151595632Y-95445170D01*
X151577219Y-95434134D01*
X151559976Y-95421346D01*
X151544070Y-95406930D01*
X151529654Y-95391024D01*
X151516866Y-95373781D01*
X151505830Y-95355368D01*
X151496651Y-95335962D01*
X151489419Y-95315750D01*
X151484203Y-95294926D01*
X151481053Y-95273691D01*
X151480000Y-95252250D01*
X151480000Y-94739750D01*
X151481053Y-94718309D01*
X151484203Y-94697074D01*
X151489419Y-94676250D01*
X151496651Y-94656038D01*
X151505830Y-94636632D01*
X151516866Y-94618219D01*
X151529654Y-94600976D01*
X151544070Y-94585070D01*
X151559976Y-94570654D01*
X151577219Y-94557866D01*
X151595632Y-94546830D01*
X151615038Y-94537651D01*
X151635250Y-94530419D01*
X151656074Y-94525203D01*
X151677309Y-94522053D01*
X151698750Y-94521000D01*
X152136250Y-94521000D01*
X152157691Y-94522053D01*
X152157691Y-94522053D01*
G37*
D13*
G04 #@! TD*
G04 #@! TO.P,C5,1*
G04 #@! TO.N,Net-(C5-Pad1)*
X151917500Y-94996000D03*
D12*
G04 #@! TO.N,GND*
G04 #@! TO.C,C5*
G36*
X150582691Y-94522053D02*
X150603926Y-94525203D01*
X150624750Y-94530419D01*
X150644962Y-94537651D01*
X150664368Y-94546830D01*
X150682781Y-94557866D01*
X150700024Y-94570654D01*
X150715930Y-94585070D01*
X150730346Y-94600976D01*
X150743134Y-94618219D01*
X150754170Y-94636632D01*
X150763349Y-94656038D01*
X150770581Y-94676250D01*
X150775797Y-94697074D01*
X150778947Y-94718309D01*
X150780000Y-94739750D01*
X150780000Y-95252250D01*
X150778947Y-95273691D01*
X150775797Y-95294926D01*
X150770581Y-95315750D01*
X150763349Y-95335962D01*
X150754170Y-95355368D01*
X150743134Y-95373781D01*
X150730346Y-95391024D01*
X150715930Y-95406930D01*
X150700024Y-95421346D01*
X150682781Y-95434134D01*
X150664368Y-95445170D01*
X150644962Y-95454349D01*
X150624750Y-95461581D01*
X150603926Y-95466797D01*
X150582691Y-95469947D01*
X150561250Y-95471000D01*
X150123750Y-95471000D01*
X150102309Y-95469947D01*
X150081074Y-95466797D01*
X150060250Y-95461581D01*
X150040038Y-95454349D01*
X150020632Y-95445170D01*
X150002219Y-95434134D01*
X149984976Y-95421346D01*
X149969070Y-95406930D01*
X149954654Y-95391024D01*
X149941866Y-95373781D01*
X149930830Y-95355368D01*
X149921651Y-95335962D01*
X149914419Y-95315750D01*
X149909203Y-95294926D01*
X149906053Y-95273691D01*
X149905000Y-95252250D01*
X149905000Y-94739750D01*
X149906053Y-94718309D01*
X149909203Y-94697074D01*
X149914419Y-94676250D01*
X149921651Y-94656038D01*
X149930830Y-94636632D01*
X149941866Y-94618219D01*
X149954654Y-94600976D01*
X149969070Y-94585070D01*
X149984976Y-94570654D01*
X150002219Y-94557866D01*
X150020632Y-94546830D01*
X150040038Y-94537651D01*
X150060250Y-94530419D01*
X150081074Y-94525203D01*
X150102309Y-94522053D01*
X150123750Y-94521000D01*
X150561250Y-94521000D01*
X150582691Y-94522053D01*
X150582691Y-94522053D01*
G37*
D13*
G04 #@! TD*
G04 #@! TO.P,C5,2*
G04 #@! TO.N,GND*
X150342500Y-94996000D03*
D12*
G04 #@! TO.N,GND*
G04 #@! TO.C,C6*
G36*
X150582691Y-99094053D02*
X150603926Y-99097203D01*
X150624750Y-99102419D01*
X150644962Y-99109651D01*
X150664368Y-99118830D01*
X150682781Y-99129866D01*
X150700024Y-99142654D01*
X150715930Y-99157070D01*
X150730346Y-99172976D01*
X150743134Y-99190219D01*
X150754170Y-99208632D01*
X150763349Y-99228038D01*
X150770581Y-99248250D01*
X150775797Y-99269074D01*
X150778947Y-99290309D01*
X150780000Y-99311750D01*
X150780000Y-99824250D01*
X150778947Y-99845691D01*
X150775797Y-99866926D01*
X150770581Y-99887750D01*
X150763349Y-99907962D01*
X150754170Y-99927368D01*
X150743134Y-99945781D01*
X150730346Y-99963024D01*
X150715930Y-99978930D01*
X150700024Y-99993346D01*
X150682781Y-100006134D01*
X150664368Y-100017170D01*
X150644962Y-100026349D01*
X150624750Y-100033581D01*
X150603926Y-100038797D01*
X150582691Y-100041947D01*
X150561250Y-100043000D01*
X150123750Y-100043000D01*
X150102309Y-100041947D01*
X150081074Y-100038797D01*
X150060250Y-100033581D01*
X150040038Y-100026349D01*
X150020632Y-100017170D01*
X150002219Y-100006134D01*
X149984976Y-99993346D01*
X149969070Y-99978930D01*
X149954654Y-99963024D01*
X149941866Y-99945781D01*
X149930830Y-99927368D01*
X149921651Y-99907962D01*
X149914419Y-99887750D01*
X149909203Y-99866926D01*
X149906053Y-99845691D01*
X149905000Y-99824250D01*
X149905000Y-99311750D01*
X149906053Y-99290309D01*
X149909203Y-99269074D01*
X149914419Y-99248250D01*
X149921651Y-99228038D01*
X149930830Y-99208632D01*
X149941866Y-99190219D01*
X149954654Y-99172976D01*
X149969070Y-99157070D01*
X149984976Y-99142654D01*
X150002219Y-99129866D01*
X150020632Y-99118830D01*
X150040038Y-99109651D01*
X150060250Y-99102419D01*
X150081074Y-99097203D01*
X150102309Y-99094053D01*
X150123750Y-99093000D01*
X150561250Y-99093000D01*
X150582691Y-99094053D01*
X150582691Y-99094053D01*
G37*
D13*
G04 #@! TD*
G04 #@! TO.P,C6,1*
G04 #@! TO.N,GND*
X150342500Y-99568000D03*
D12*
G04 #@! TO.N,Net-(C6-Pad2)*
G04 #@! TO.C,C6*
G36*
X152157691Y-99094053D02*
X152178926Y-99097203D01*
X152199750Y-99102419D01*
X152219962Y-99109651D01*
X152239368Y-99118830D01*
X152257781Y-99129866D01*
X152275024Y-99142654D01*
X152290930Y-99157070D01*
X152305346Y-99172976D01*
X152318134Y-99190219D01*
X152329170Y-99208632D01*
X152338349Y-99228038D01*
X152345581Y-99248250D01*
X152350797Y-99269074D01*
X152353947Y-99290309D01*
X152355000Y-99311750D01*
X152355000Y-99824250D01*
X152353947Y-99845691D01*
X152350797Y-99866926D01*
X152345581Y-99887750D01*
X152338349Y-99907962D01*
X152329170Y-99927368D01*
X152318134Y-99945781D01*
X152305346Y-99963024D01*
X152290930Y-99978930D01*
X152275024Y-99993346D01*
X152257781Y-100006134D01*
X152239368Y-100017170D01*
X152219962Y-100026349D01*
X152199750Y-100033581D01*
X152178926Y-100038797D01*
X152157691Y-100041947D01*
X152136250Y-100043000D01*
X151698750Y-100043000D01*
X151677309Y-100041947D01*
X151656074Y-100038797D01*
X151635250Y-100033581D01*
X151615038Y-100026349D01*
X151595632Y-100017170D01*
X151577219Y-100006134D01*
X151559976Y-99993346D01*
X151544070Y-99978930D01*
X151529654Y-99963024D01*
X151516866Y-99945781D01*
X151505830Y-99927368D01*
X151496651Y-99907962D01*
X151489419Y-99887750D01*
X151484203Y-99866926D01*
X151481053Y-99845691D01*
X151480000Y-99824250D01*
X151480000Y-99311750D01*
X151481053Y-99290309D01*
X151484203Y-99269074D01*
X151489419Y-99248250D01*
X151496651Y-99228038D01*
X151505830Y-99208632D01*
X151516866Y-99190219D01*
X151529654Y-99172976D01*
X151544070Y-99157070D01*
X151559976Y-99142654D01*
X151577219Y-99129866D01*
X151595632Y-99118830D01*
X151615038Y-99109651D01*
X151635250Y-99102419D01*
X151656074Y-99097203D01*
X151677309Y-99094053D01*
X151698750Y-99093000D01*
X152136250Y-99093000D01*
X152157691Y-99094053D01*
X152157691Y-99094053D01*
G37*
D13*
G04 #@! TD*
G04 #@! TO.P,C6,2*
G04 #@! TO.N,Net-(C6-Pad2)*
X151917500Y-99568000D03*
D12*
G04 #@! TO.N,GND*
G04 #@! TO.C,C7*
G36*
X174941191Y-96808053D02*
X174962426Y-96811203D01*
X174983250Y-96816419D01*
X175003462Y-96823651D01*
X175022868Y-96832830D01*
X175041281Y-96843866D01*
X175058524Y-96856654D01*
X175074430Y-96871070D01*
X175088846Y-96886976D01*
X175101634Y-96904219D01*
X175112670Y-96922632D01*
X175121849Y-96942038D01*
X175129081Y-96962250D01*
X175134297Y-96983074D01*
X175137447Y-97004309D01*
X175138500Y-97025750D01*
X175138500Y-97538250D01*
X175137447Y-97559691D01*
X175134297Y-97580926D01*
X175129081Y-97601750D01*
X175121849Y-97621962D01*
X175112670Y-97641368D01*
X175101634Y-97659781D01*
X175088846Y-97677024D01*
X175074430Y-97692930D01*
X175058524Y-97707346D01*
X175041281Y-97720134D01*
X175022868Y-97731170D01*
X175003462Y-97740349D01*
X174983250Y-97747581D01*
X174962426Y-97752797D01*
X174941191Y-97755947D01*
X174919750Y-97757000D01*
X174482250Y-97757000D01*
X174460809Y-97755947D01*
X174439574Y-97752797D01*
X174418750Y-97747581D01*
X174398538Y-97740349D01*
X174379132Y-97731170D01*
X174360719Y-97720134D01*
X174343476Y-97707346D01*
X174327570Y-97692930D01*
X174313154Y-97677024D01*
X174300366Y-97659781D01*
X174289330Y-97641368D01*
X174280151Y-97621962D01*
X174272919Y-97601750D01*
X174267703Y-97580926D01*
X174264553Y-97559691D01*
X174263500Y-97538250D01*
X174263500Y-97025750D01*
X174264553Y-97004309D01*
X174267703Y-96983074D01*
X174272919Y-96962250D01*
X174280151Y-96942038D01*
X174289330Y-96922632D01*
X174300366Y-96904219D01*
X174313154Y-96886976D01*
X174327570Y-96871070D01*
X174343476Y-96856654D01*
X174360719Y-96843866D01*
X174379132Y-96832830D01*
X174398538Y-96823651D01*
X174418750Y-96816419D01*
X174439574Y-96811203D01*
X174460809Y-96808053D01*
X174482250Y-96807000D01*
X174919750Y-96807000D01*
X174941191Y-96808053D01*
X174941191Y-96808053D01*
G37*
D13*
G04 #@! TD*
G04 #@! TO.P,C7,2*
G04 #@! TO.N,GND*
X174701000Y-97282000D03*
D12*
G04 #@! TO.N,Net-(C7-Pad1)*
G04 #@! TO.C,C7*
G36*
X176516191Y-96808053D02*
X176537426Y-96811203D01*
X176558250Y-96816419D01*
X176578462Y-96823651D01*
X176597868Y-96832830D01*
X176616281Y-96843866D01*
X176633524Y-96856654D01*
X176649430Y-96871070D01*
X176663846Y-96886976D01*
X176676634Y-96904219D01*
X176687670Y-96922632D01*
X176696849Y-96942038D01*
X176704081Y-96962250D01*
X176709297Y-96983074D01*
X176712447Y-97004309D01*
X176713500Y-97025750D01*
X176713500Y-97538250D01*
X176712447Y-97559691D01*
X176709297Y-97580926D01*
X176704081Y-97601750D01*
X176696849Y-97621962D01*
X176687670Y-97641368D01*
X176676634Y-97659781D01*
X176663846Y-97677024D01*
X176649430Y-97692930D01*
X176633524Y-97707346D01*
X176616281Y-97720134D01*
X176597868Y-97731170D01*
X176578462Y-97740349D01*
X176558250Y-97747581D01*
X176537426Y-97752797D01*
X176516191Y-97755947D01*
X176494750Y-97757000D01*
X176057250Y-97757000D01*
X176035809Y-97755947D01*
X176014574Y-97752797D01*
X175993750Y-97747581D01*
X175973538Y-97740349D01*
X175954132Y-97731170D01*
X175935719Y-97720134D01*
X175918476Y-97707346D01*
X175902570Y-97692930D01*
X175888154Y-97677024D01*
X175875366Y-97659781D01*
X175864330Y-97641368D01*
X175855151Y-97621962D01*
X175847919Y-97601750D01*
X175842703Y-97580926D01*
X175839553Y-97559691D01*
X175838500Y-97538250D01*
X175838500Y-97025750D01*
X175839553Y-97004309D01*
X175842703Y-96983074D01*
X175847919Y-96962250D01*
X175855151Y-96942038D01*
X175864330Y-96922632D01*
X175875366Y-96904219D01*
X175888154Y-96886976D01*
X175902570Y-96871070D01*
X175918476Y-96856654D01*
X175935719Y-96843866D01*
X175954132Y-96832830D01*
X175973538Y-96823651D01*
X175993750Y-96816419D01*
X176014574Y-96811203D01*
X176035809Y-96808053D01*
X176057250Y-96807000D01*
X176494750Y-96807000D01*
X176516191Y-96808053D01*
X176516191Y-96808053D01*
G37*
D13*
G04 #@! TD*
G04 #@! TO.P,C7,1*
G04 #@! TO.N,Net-(C7-Pad1)*
X176276000Y-97282000D03*
D14*
G04 #@! TO.P,D1,1*
G04 #@! TO.N,+48V*
X171072000Y-69088000D03*
G04 #@! TO.P,D1,2*
G04 #@! TO.N,Net-(D1-Pad2)*
X168272000Y-69088000D03*
G04 #@! TD*
D12*
G04 #@! TO.N,+5V*
G04 #@! TO.C,D2*
G36*
X174966691Y-91474053D02*
X174987926Y-91477203D01*
X175008750Y-91482419D01*
X175028962Y-91489651D01*
X175048368Y-91498830D01*
X175066781Y-91509866D01*
X175084024Y-91522654D01*
X175099930Y-91537070D01*
X175114346Y-91552976D01*
X175127134Y-91570219D01*
X175138170Y-91588632D01*
X175147349Y-91608038D01*
X175154581Y-91628250D01*
X175159797Y-91649074D01*
X175162947Y-91670309D01*
X175164000Y-91691750D01*
X175164000Y-92204250D01*
X175162947Y-92225691D01*
X175159797Y-92246926D01*
X175154581Y-92267750D01*
X175147349Y-92287962D01*
X175138170Y-92307368D01*
X175127134Y-92325781D01*
X175114346Y-92343024D01*
X175099930Y-92358930D01*
X175084024Y-92373346D01*
X175066781Y-92386134D01*
X175048368Y-92397170D01*
X175028962Y-92406349D01*
X175008750Y-92413581D01*
X174987926Y-92418797D01*
X174966691Y-92421947D01*
X174945250Y-92423000D01*
X174507750Y-92423000D01*
X174486309Y-92421947D01*
X174465074Y-92418797D01*
X174444250Y-92413581D01*
X174424038Y-92406349D01*
X174404632Y-92397170D01*
X174386219Y-92386134D01*
X174368976Y-92373346D01*
X174353070Y-92358930D01*
X174338654Y-92343024D01*
X174325866Y-92325781D01*
X174314830Y-92307368D01*
X174305651Y-92287962D01*
X174298419Y-92267750D01*
X174293203Y-92246926D01*
X174290053Y-92225691D01*
X174289000Y-92204250D01*
X174289000Y-91691750D01*
X174290053Y-91670309D01*
X174293203Y-91649074D01*
X174298419Y-91628250D01*
X174305651Y-91608038D01*
X174314830Y-91588632D01*
X174325866Y-91570219D01*
X174338654Y-91552976D01*
X174353070Y-91537070D01*
X174368976Y-91522654D01*
X174386219Y-91509866D01*
X174404632Y-91498830D01*
X174424038Y-91489651D01*
X174444250Y-91482419D01*
X174465074Y-91477203D01*
X174486309Y-91474053D01*
X174507750Y-91473000D01*
X174945250Y-91473000D01*
X174966691Y-91474053D01*
X174966691Y-91474053D01*
G37*
D13*
G04 #@! TD*
G04 #@! TO.P,D2,1*
G04 #@! TO.N,+5V*
X174726500Y-91948000D03*
D12*
G04 #@! TO.N,Net-(C7-Pad1)*
G04 #@! TO.C,D2*
G36*
X176541691Y-91474053D02*
X176562926Y-91477203D01*
X176583750Y-91482419D01*
X176603962Y-91489651D01*
X176623368Y-91498830D01*
X176641781Y-91509866D01*
X176659024Y-91522654D01*
X176674930Y-91537070D01*
X176689346Y-91552976D01*
X176702134Y-91570219D01*
X176713170Y-91588632D01*
X176722349Y-91608038D01*
X176729581Y-91628250D01*
X176734797Y-91649074D01*
X176737947Y-91670309D01*
X176739000Y-91691750D01*
X176739000Y-92204250D01*
X176737947Y-92225691D01*
X176734797Y-92246926D01*
X176729581Y-92267750D01*
X176722349Y-92287962D01*
X176713170Y-92307368D01*
X176702134Y-92325781D01*
X176689346Y-92343024D01*
X176674930Y-92358930D01*
X176659024Y-92373346D01*
X176641781Y-92386134D01*
X176623368Y-92397170D01*
X176603962Y-92406349D01*
X176583750Y-92413581D01*
X176562926Y-92418797D01*
X176541691Y-92421947D01*
X176520250Y-92423000D01*
X176082750Y-92423000D01*
X176061309Y-92421947D01*
X176040074Y-92418797D01*
X176019250Y-92413581D01*
X175999038Y-92406349D01*
X175979632Y-92397170D01*
X175961219Y-92386134D01*
X175943976Y-92373346D01*
X175928070Y-92358930D01*
X175913654Y-92343024D01*
X175900866Y-92325781D01*
X175889830Y-92307368D01*
X175880651Y-92287962D01*
X175873419Y-92267750D01*
X175868203Y-92246926D01*
X175865053Y-92225691D01*
X175864000Y-92204250D01*
X175864000Y-91691750D01*
X175865053Y-91670309D01*
X175868203Y-91649074D01*
X175873419Y-91628250D01*
X175880651Y-91608038D01*
X175889830Y-91588632D01*
X175900866Y-91570219D01*
X175913654Y-91552976D01*
X175928070Y-91537070D01*
X175943976Y-91522654D01*
X175961219Y-91509866D01*
X175979632Y-91498830D01*
X175999038Y-91489651D01*
X176019250Y-91482419D01*
X176040074Y-91477203D01*
X176061309Y-91474053D01*
X176082750Y-91473000D01*
X176520250Y-91473000D01*
X176541691Y-91474053D01*
X176541691Y-91474053D01*
G37*
D13*
G04 #@! TD*
G04 #@! TO.P,D2,2*
G04 #@! TO.N,Net-(C7-Pad1)*
X176301500Y-91948000D03*
D15*
G04 #@! TO.P,J1,1*
G04 #@! TO.N,CANH*
X175514000Y-100076000D03*
D16*
G04 #@! TO.P,J1,2*
G04 #@! TO.N,CANL*
X175514000Y-102616000D03*
G04 #@! TO.P,J1,3*
G04 #@! TO.N,Net-(J1-Pad3)*
X175514000Y-105156000D03*
G04 #@! TO.P,J1,4*
G04 #@! TO.N,Net-(J1-Pad4)*
X175514000Y-107696000D03*
G04 #@! TO.P,J1,5*
G04 #@! TO.N,Net-(J1-Pad5)*
X175514000Y-110236000D03*
G04 #@! TO.P,J1,6*
G04 #@! TO.N,Net-(J1-Pad6)*
X175514000Y-112776000D03*
G04 #@! TO.P,J1,7*
G04 #@! TO.N,+48V*
X175514000Y-115316000D03*
G04 #@! TO.P,J1,8*
G04 #@! TO.N,GND*
X175514000Y-117856000D03*
G04 #@! TD*
D17*
G04 #@! TO.P,J2,1*
G04 #@! TO.N,+12V*
X151638000Y-105664000D03*
D18*
G04 #@! TO.P,J2,2*
G04 #@! TO.N,GND*
X151638000Y-111664000D03*
G04 #@! TD*
D15*
G04 #@! TO.P,J4,1*
G04 #@! TO.N,Net-(J1-Pad3)*
X170180000Y-105156000D03*
D16*
G04 #@! TO.P,J4,2*
G04 #@! TO.N,Net-(J1-Pad4)*
X170180000Y-107696000D03*
G04 #@! TO.P,J4,3*
G04 #@! TO.N,Net-(J1-Pad5)*
X170180000Y-110236000D03*
G04 #@! TO.P,J4,4*
G04 #@! TO.N,Net-(J1-Pad6)*
X170180000Y-112776000D03*
G04 #@! TD*
D12*
G04 #@! TO.N,+12V*
G04 #@! TO.C,L1*
G36*
X164527191Y-68614053D02*
X164548426Y-68617203D01*
X164569250Y-68622419D01*
X164589462Y-68629651D01*
X164608868Y-68638830D01*
X164627281Y-68649866D01*
X164644524Y-68662654D01*
X164660430Y-68677070D01*
X164674846Y-68692976D01*
X164687634Y-68710219D01*
X164698670Y-68728632D01*
X164707849Y-68748038D01*
X164715081Y-68768250D01*
X164720297Y-68789074D01*
X164723447Y-68810309D01*
X164724500Y-68831750D01*
X164724500Y-69344250D01*
X164723447Y-69365691D01*
X164720297Y-69386926D01*
X164715081Y-69407750D01*
X164707849Y-69427962D01*
X164698670Y-69447368D01*
X164687634Y-69465781D01*
X164674846Y-69483024D01*
X164660430Y-69498930D01*
X164644524Y-69513346D01*
X164627281Y-69526134D01*
X164608868Y-69537170D01*
X164589462Y-69546349D01*
X164569250Y-69553581D01*
X164548426Y-69558797D01*
X164527191Y-69561947D01*
X164505750Y-69563000D01*
X164068250Y-69563000D01*
X164046809Y-69561947D01*
X164025574Y-69558797D01*
X164004750Y-69553581D01*
X163984538Y-69546349D01*
X163965132Y-69537170D01*
X163946719Y-69526134D01*
X163929476Y-69513346D01*
X163913570Y-69498930D01*
X163899154Y-69483024D01*
X163886366Y-69465781D01*
X163875330Y-69447368D01*
X163866151Y-69427962D01*
X163858919Y-69407750D01*
X163853703Y-69386926D01*
X163850553Y-69365691D01*
X163849500Y-69344250D01*
X163849500Y-68831750D01*
X163850553Y-68810309D01*
X163853703Y-68789074D01*
X163858919Y-68768250D01*
X163866151Y-68748038D01*
X163875330Y-68728632D01*
X163886366Y-68710219D01*
X163899154Y-68692976D01*
X163913570Y-68677070D01*
X163929476Y-68662654D01*
X163946719Y-68649866D01*
X163965132Y-68638830D01*
X163984538Y-68629651D01*
X164004750Y-68622419D01*
X164025574Y-68617203D01*
X164046809Y-68614053D01*
X164068250Y-68613000D01*
X164505750Y-68613000D01*
X164527191Y-68614053D01*
X164527191Y-68614053D01*
G37*
D13*
G04 #@! TD*
G04 #@! TO.P,L1,1*
G04 #@! TO.N,+12V*
X164287000Y-69088000D03*
D12*
G04 #@! TO.N,Net-(D1-Pad2)*
G04 #@! TO.C,L1*
G36*
X166102191Y-68614053D02*
X166123426Y-68617203D01*
X166144250Y-68622419D01*
X166164462Y-68629651D01*
X166183868Y-68638830D01*
X166202281Y-68649866D01*
X166219524Y-68662654D01*
X166235430Y-68677070D01*
X166249846Y-68692976D01*
X166262634Y-68710219D01*
X166273670Y-68728632D01*
X166282849Y-68748038D01*
X166290081Y-68768250D01*
X166295297Y-68789074D01*
X166298447Y-68810309D01*
X166299500Y-68831750D01*
X166299500Y-69344250D01*
X166298447Y-69365691D01*
X166295297Y-69386926D01*
X166290081Y-69407750D01*
X166282849Y-69427962D01*
X166273670Y-69447368D01*
X166262634Y-69465781D01*
X166249846Y-69483024D01*
X166235430Y-69498930D01*
X166219524Y-69513346D01*
X166202281Y-69526134D01*
X166183868Y-69537170D01*
X166164462Y-69546349D01*
X166144250Y-69553581D01*
X166123426Y-69558797D01*
X166102191Y-69561947D01*
X166080750Y-69563000D01*
X165643250Y-69563000D01*
X165621809Y-69561947D01*
X165600574Y-69558797D01*
X165579750Y-69553581D01*
X165559538Y-69546349D01*
X165540132Y-69537170D01*
X165521719Y-69526134D01*
X165504476Y-69513346D01*
X165488570Y-69498930D01*
X165474154Y-69483024D01*
X165461366Y-69465781D01*
X165450330Y-69447368D01*
X165441151Y-69427962D01*
X165433919Y-69407750D01*
X165428703Y-69386926D01*
X165425553Y-69365691D01*
X165424500Y-69344250D01*
X165424500Y-68831750D01*
X165425553Y-68810309D01*
X165428703Y-68789074D01*
X165433919Y-68768250D01*
X165441151Y-68748038D01*
X165450330Y-68728632D01*
X165461366Y-68710219D01*
X165474154Y-68692976D01*
X165488570Y-68677070D01*
X165504476Y-68662654D01*
X165521719Y-68649866D01*
X165540132Y-68638830D01*
X165559538Y-68629651D01*
X165579750Y-68622419D01*
X165600574Y-68617203D01*
X165621809Y-68614053D01*
X165643250Y-68613000D01*
X166080750Y-68613000D01*
X166102191Y-68614053D01*
X166102191Y-68614053D01*
G37*
D13*
G04 #@! TD*
G04 #@! TO.P,L1,2*
G04 #@! TO.N,Net-(D1-Pad2)*
X165862000Y-69088000D03*
D12*
G04 #@! TO.N,Net-(C6-Pad2)*
G04 #@! TO.C,R1*
G36*
X161313691Y-97633053D02*
X161334926Y-97636203D01*
X161355750Y-97641419D01*
X161375962Y-97648651D01*
X161395368Y-97657830D01*
X161413781Y-97668866D01*
X161431024Y-97681654D01*
X161446930Y-97696070D01*
X161461346Y-97711976D01*
X161474134Y-97729219D01*
X161485170Y-97747632D01*
X161494349Y-97767038D01*
X161501581Y-97787250D01*
X161506797Y-97808074D01*
X161509947Y-97829309D01*
X161511000Y-97850750D01*
X161511000Y-98288250D01*
X161509947Y-98309691D01*
X161506797Y-98330926D01*
X161501581Y-98351750D01*
X161494349Y-98371962D01*
X161485170Y-98391368D01*
X161474134Y-98409781D01*
X161461346Y-98427024D01*
X161446930Y-98442930D01*
X161431024Y-98457346D01*
X161413781Y-98470134D01*
X161395368Y-98481170D01*
X161375962Y-98490349D01*
X161355750Y-98497581D01*
X161334926Y-98502797D01*
X161313691Y-98505947D01*
X161292250Y-98507000D01*
X160779750Y-98507000D01*
X160758309Y-98505947D01*
X160737074Y-98502797D01*
X160716250Y-98497581D01*
X160696038Y-98490349D01*
X160676632Y-98481170D01*
X160658219Y-98470134D01*
X160640976Y-98457346D01*
X160625070Y-98442930D01*
X160610654Y-98427024D01*
X160597866Y-98409781D01*
X160586830Y-98391368D01*
X160577651Y-98371962D01*
X160570419Y-98351750D01*
X160565203Y-98330926D01*
X160562053Y-98309691D01*
X160561000Y-98288250D01*
X160561000Y-97850750D01*
X160562053Y-97829309D01*
X160565203Y-97808074D01*
X160570419Y-97787250D01*
X160577651Y-97767038D01*
X160586830Y-97747632D01*
X160597866Y-97729219D01*
X160610654Y-97711976D01*
X160625070Y-97696070D01*
X160640976Y-97681654D01*
X160658219Y-97668866D01*
X160676632Y-97657830D01*
X160696038Y-97648651D01*
X160716250Y-97641419D01*
X160737074Y-97636203D01*
X160758309Y-97633053D01*
X160779750Y-97632000D01*
X161292250Y-97632000D01*
X161313691Y-97633053D01*
X161313691Y-97633053D01*
G37*
D13*
G04 #@! TD*
G04 #@! TO.P,R1,1*
G04 #@! TO.N,Net-(C6-Pad2)*
X161036000Y-98069500D03*
D12*
G04 #@! TO.N,Net-(C5-Pad1)*
G04 #@! TO.C,R1*
G36*
X161313691Y-96058053D02*
X161334926Y-96061203D01*
X161355750Y-96066419D01*
X161375962Y-96073651D01*
X161395368Y-96082830D01*
X161413781Y-96093866D01*
X161431024Y-96106654D01*
X161446930Y-96121070D01*
X161461346Y-96136976D01*
X161474134Y-96154219D01*
X161485170Y-96172632D01*
X161494349Y-96192038D01*
X161501581Y-96212250D01*
X161506797Y-96233074D01*
X161509947Y-96254309D01*
X161511000Y-96275750D01*
X161511000Y-96713250D01*
X161509947Y-96734691D01*
X161506797Y-96755926D01*
X161501581Y-96776750D01*
X161494349Y-96796962D01*
X161485170Y-96816368D01*
X161474134Y-96834781D01*
X161461346Y-96852024D01*
X161446930Y-96867930D01*
X161431024Y-96882346D01*
X161413781Y-96895134D01*
X161395368Y-96906170D01*
X161375962Y-96915349D01*
X161355750Y-96922581D01*
X161334926Y-96927797D01*
X161313691Y-96930947D01*
X161292250Y-96932000D01*
X160779750Y-96932000D01*
X160758309Y-96930947D01*
X160737074Y-96927797D01*
X160716250Y-96922581D01*
X160696038Y-96915349D01*
X160676632Y-96906170D01*
X160658219Y-96895134D01*
X160640976Y-96882346D01*
X160625070Y-96867930D01*
X160610654Y-96852024D01*
X160597866Y-96834781D01*
X160586830Y-96816368D01*
X160577651Y-96796962D01*
X160570419Y-96776750D01*
X160565203Y-96755926D01*
X160562053Y-96734691D01*
X160561000Y-96713250D01*
X160561000Y-96275750D01*
X160562053Y-96254309D01*
X160565203Y-96233074D01*
X160570419Y-96212250D01*
X160577651Y-96192038D01*
X160586830Y-96172632D01*
X160597866Y-96154219D01*
X160610654Y-96136976D01*
X160625070Y-96121070D01*
X160640976Y-96106654D01*
X160658219Y-96093866D01*
X160676632Y-96082830D01*
X160696038Y-96073651D01*
X160716250Y-96066419D01*
X160737074Y-96061203D01*
X160758309Y-96058053D01*
X160779750Y-96057000D01*
X161292250Y-96057000D01*
X161313691Y-96058053D01*
X161313691Y-96058053D01*
G37*
D13*
G04 #@! TD*
G04 #@! TO.P,R1,2*
G04 #@! TO.N,Net-(C5-Pad1)*
X161036000Y-96494500D03*
D12*
G04 #@! TO.N,Net-(C2-Pad2)*
G04 #@! TO.C,R2*
G36*
X167409691Y-76754053D02*
X167430926Y-76757203D01*
X167451750Y-76762419D01*
X167471962Y-76769651D01*
X167491368Y-76778830D01*
X167509781Y-76789866D01*
X167527024Y-76802654D01*
X167542930Y-76817070D01*
X167557346Y-76832976D01*
X167570134Y-76850219D01*
X167581170Y-76868632D01*
X167590349Y-76888038D01*
X167597581Y-76908250D01*
X167602797Y-76929074D01*
X167605947Y-76950309D01*
X167607000Y-76971750D01*
X167607000Y-77409250D01*
X167605947Y-77430691D01*
X167602797Y-77451926D01*
X167597581Y-77472750D01*
X167590349Y-77492962D01*
X167581170Y-77512368D01*
X167570134Y-77530781D01*
X167557346Y-77548024D01*
X167542930Y-77563930D01*
X167527024Y-77578346D01*
X167509781Y-77591134D01*
X167491368Y-77602170D01*
X167471962Y-77611349D01*
X167451750Y-77618581D01*
X167430926Y-77623797D01*
X167409691Y-77626947D01*
X167388250Y-77628000D01*
X166875750Y-77628000D01*
X166854309Y-77626947D01*
X166833074Y-77623797D01*
X166812250Y-77618581D01*
X166792038Y-77611349D01*
X166772632Y-77602170D01*
X166754219Y-77591134D01*
X166736976Y-77578346D01*
X166721070Y-77563930D01*
X166706654Y-77548024D01*
X166693866Y-77530781D01*
X166682830Y-77512368D01*
X166673651Y-77492962D01*
X166666419Y-77472750D01*
X166661203Y-77451926D01*
X166658053Y-77430691D01*
X166657000Y-77409250D01*
X166657000Y-76971750D01*
X166658053Y-76950309D01*
X166661203Y-76929074D01*
X166666419Y-76908250D01*
X166673651Y-76888038D01*
X166682830Y-76868632D01*
X166693866Y-76850219D01*
X166706654Y-76832976D01*
X166721070Y-76817070D01*
X166736976Y-76802654D01*
X166754219Y-76789866D01*
X166772632Y-76778830D01*
X166792038Y-76769651D01*
X166812250Y-76762419D01*
X166833074Y-76757203D01*
X166854309Y-76754053D01*
X166875750Y-76753000D01*
X167388250Y-76753000D01*
X167409691Y-76754053D01*
X167409691Y-76754053D01*
G37*
D13*
G04 #@! TD*
G04 #@! TO.P,R2,2*
G04 #@! TO.N,Net-(C2-Pad2)*
X167132000Y-77190500D03*
D12*
G04 #@! TO.N,+48V*
G04 #@! TO.C,R2*
G36*
X167409691Y-78329053D02*
X167430926Y-78332203D01*
X167451750Y-78337419D01*
X167471962Y-78344651D01*
X167491368Y-78353830D01*
X167509781Y-78364866D01*
X167527024Y-78377654D01*
X167542930Y-78392070D01*
X167557346Y-78407976D01*
X167570134Y-78425219D01*
X167581170Y-78443632D01*
X167590349Y-78463038D01*
X167597581Y-78483250D01*
X167602797Y-78504074D01*
X167605947Y-78525309D01*
X167607000Y-78546750D01*
X167607000Y-78984250D01*
X167605947Y-79005691D01*
X167602797Y-79026926D01*
X167597581Y-79047750D01*
X167590349Y-79067962D01*
X167581170Y-79087368D01*
X167570134Y-79105781D01*
X167557346Y-79123024D01*
X167542930Y-79138930D01*
X167527024Y-79153346D01*
X167509781Y-79166134D01*
X167491368Y-79177170D01*
X167471962Y-79186349D01*
X167451750Y-79193581D01*
X167430926Y-79198797D01*
X167409691Y-79201947D01*
X167388250Y-79203000D01*
X166875750Y-79203000D01*
X166854309Y-79201947D01*
X166833074Y-79198797D01*
X166812250Y-79193581D01*
X166792038Y-79186349D01*
X166772632Y-79177170D01*
X166754219Y-79166134D01*
X166736976Y-79153346D01*
X166721070Y-79138930D01*
X166706654Y-79123024D01*
X166693866Y-79105781D01*
X166682830Y-79087368D01*
X166673651Y-79067962D01*
X166666419Y-79047750D01*
X166661203Y-79026926D01*
X166658053Y-79005691D01*
X166657000Y-78984250D01*
X166657000Y-78546750D01*
X166658053Y-78525309D01*
X166661203Y-78504074D01*
X166666419Y-78483250D01*
X166673651Y-78463038D01*
X166682830Y-78443632D01*
X166693866Y-78425219D01*
X166706654Y-78407976D01*
X166721070Y-78392070D01*
X166736976Y-78377654D01*
X166754219Y-78364866D01*
X166772632Y-78353830D01*
X166792038Y-78344651D01*
X166812250Y-78337419D01*
X166833074Y-78332203D01*
X166854309Y-78329053D01*
X166875750Y-78328000D01*
X167388250Y-78328000D01*
X167409691Y-78329053D01*
X167409691Y-78329053D01*
G37*
D13*
G04 #@! TD*
G04 #@! TO.P,R2,1*
G04 #@! TO.N,+48V*
X167132000Y-78765500D03*
D12*
G04 #@! TO.N,Net-(C2-Pad2)*
G04 #@! TO.C,R3*
G36*
X170648691Y-78266053D02*
X170669926Y-78269203D01*
X170690750Y-78274419D01*
X170710962Y-78281651D01*
X170730368Y-78290830D01*
X170748781Y-78301866D01*
X170766024Y-78314654D01*
X170781930Y-78329070D01*
X170796346Y-78344976D01*
X170809134Y-78362219D01*
X170820170Y-78380632D01*
X170829349Y-78400038D01*
X170836581Y-78420250D01*
X170841797Y-78441074D01*
X170844947Y-78462309D01*
X170846000Y-78483750D01*
X170846000Y-78996250D01*
X170844947Y-79017691D01*
X170841797Y-79038926D01*
X170836581Y-79059750D01*
X170829349Y-79079962D01*
X170820170Y-79099368D01*
X170809134Y-79117781D01*
X170796346Y-79135024D01*
X170781930Y-79150930D01*
X170766024Y-79165346D01*
X170748781Y-79178134D01*
X170730368Y-79189170D01*
X170710962Y-79198349D01*
X170690750Y-79205581D01*
X170669926Y-79210797D01*
X170648691Y-79213947D01*
X170627250Y-79215000D01*
X170189750Y-79215000D01*
X170168309Y-79213947D01*
X170147074Y-79210797D01*
X170126250Y-79205581D01*
X170106038Y-79198349D01*
X170086632Y-79189170D01*
X170068219Y-79178134D01*
X170050976Y-79165346D01*
X170035070Y-79150930D01*
X170020654Y-79135024D01*
X170007866Y-79117781D01*
X169996830Y-79099368D01*
X169987651Y-79079962D01*
X169980419Y-79059750D01*
X169975203Y-79038926D01*
X169972053Y-79017691D01*
X169971000Y-78996250D01*
X169971000Y-78483750D01*
X169972053Y-78462309D01*
X169975203Y-78441074D01*
X169980419Y-78420250D01*
X169987651Y-78400038D01*
X169996830Y-78380632D01*
X170007866Y-78362219D01*
X170020654Y-78344976D01*
X170035070Y-78329070D01*
X170050976Y-78314654D01*
X170068219Y-78301866D01*
X170086632Y-78290830D01*
X170106038Y-78281651D01*
X170126250Y-78274419D01*
X170147074Y-78269203D01*
X170168309Y-78266053D01*
X170189750Y-78265000D01*
X170627250Y-78265000D01*
X170648691Y-78266053D01*
X170648691Y-78266053D01*
G37*
D13*
G04 #@! TD*
G04 #@! TO.P,R3,1*
G04 #@! TO.N,Net-(C2-Pad2)*
X170408500Y-78740000D03*
D12*
G04 #@! TO.N,GND*
G04 #@! TO.C,R3*
G36*
X172223691Y-78266053D02*
X172244926Y-78269203D01*
X172265750Y-78274419D01*
X172285962Y-78281651D01*
X172305368Y-78290830D01*
X172323781Y-78301866D01*
X172341024Y-78314654D01*
X172356930Y-78329070D01*
X172371346Y-78344976D01*
X172384134Y-78362219D01*
X172395170Y-78380632D01*
X172404349Y-78400038D01*
X172411581Y-78420250D01*
X172416797Y-78441074D01*
X172419947Y-78462309D01*
X172421000Y-78483750D01*
X172421000Y-78996250D01*
X172419947Y-79017691D01*
X172416797Y-79038926D01*
X172411581Y-79059750D01*
X172404349Y-79079962D01*
X172395170Y-79099368D01*
X172384134Y-79117781D01*
X172371346Y-79135024D01*
X172356930Y-79150930D01*
X172341024Y-79165346D01*
X172323781Y-79178134D01*
X172305368Y-79189170D01*
X172285962Y-79198349D01*
X172265750Y-79205581D01*
X172244926Y-79210797D01*
X172223691Y-79213947D01*
X172202250Y-79215000D01*
X171764750Y-79215000D01*
X171743309Y-79213947D01*
X171722074Y-79210797D01*
X171701250Y-79205581D01*
X171681038Y-79198349D01*
X171661632Y-79189170D01*
X171643219Y-79178134D01*
X171625976Y-79165346D01*
X171610070Y-79150930D01*
X171595654Y-79135024D01*
X171582866Y-79117781D01*
X171571830Y-79099368D01*
X171562651Y-79079962D01*
X171555419Y-79059750D01*
X171550203Y-79038926D01*
X171547053Y-79017691D01*
X171546000Y-78996250D01*
X171546000Y-78483750D01*
X171547053Y-78462309D01*
X171550203Y-78441074D01*
X171555419Y-78420250D01*
X171562651Y-78400038D01*
X171571830Y-78380632D01*
X171582866Y-78362219D01*
X171595654Y-78344976D01*
X171610070Y-78329070D01*
X171625976Y-78314654D01*
X171643219Y-78301866D01*
X171661632Y-78290830D01*
X171681038Y-78281651D01*
X171701250Y-78274419D01*
X171722074Y-78269203D01*
X171743309Y-78266053D01*
X171764750Y-78265000D01*
X172202250Y-78265000D01*
X172223691Y-78266053D01*
X172223691Y-78266053D01*
G37*
D13*
G04 #@! TD*
G04 #@! TO.P,R3,2*
G04 #@! TO.N,GND*
X171983500Y-78740000D03*
D12*
G04 #@! TO.N,+5V*
G04 #@! TO.C,R4*
G36*
X159472691Y-80298053D02*
X159493926Y-80301203D01*
X159514750Y-80306419D01*
X159534962Y-80313651D01*
X159554368Y-80322830D01*
X159572781Y-80333866D01*
X159590024Y-80346654D01*
X159605930Y-80361070D01*
X159620346Y-80376976D01*
X159633134Y-80394219D01*
X159644170Y-80412632D01*
X159653349Y-80432038D01*
X159660581Y-80452250D01*
X159665797Y-80473074D01*
X159668947Y-80494309D01*
X159670000Y-80515750D01*
X159670000Y-81028250D01*
X159668947Y-81049691D01*
X159665797Y-81070926D01*
X159660581Y-81091750D01*
X159653349Y-81111962D01*
X159644170Y-81131368D01*
X159633134Y-81149781D01*
X159620346Y-81167024D01*
X159605930Y-81182930D01*
X159590024Y-81197346D01*
X159572781Y-81210134D01*
X159554368Y-81221170D01*
X159534962Y-81230349D01*
X159514750Y-81237581D01*
X159493926Y-81242797D01*
X159472691Y-81245947D01*
X159451250Y-81247000D01*
X159013750Y-81247000D01*
X158992309Y-81245947D01*
X158971074Y-81242797D01*
X158950250Y-81237581D01*
X158930038Y-81230349D01*
X158910632Y-81221170D01*
X158892219Y-81210134D01*
X158874976Y-81197346D01*
X158859070Y-81182930D01*
X158844654Y-81167024D01*
X158831866Y-81149781D01*
X158820830Y-81131368D01*
X158811651Y-81111962D01*
X158804419Y-81091750D01*
X158799203Y-81070926D01*
X158796053Y-81049691D01*
X158795000Y-81028250D01*
X158795000Y-80515750D01*
X158796053Y-80494309D01*
X158799203Y-80473074D01*
X158804419Y-80452250D01*
X158811651Y-80432038D01*
X158820830Y-80412632D01*
X158831866Y-80394219D01*
X158844654Y-80376976D01*
X158859070Y-80361070D01*
X158874976Y-80346654D01*
X158892219Y-80333866D01*
X158910632Y-80322830D01*
X158930038Y-80313651D01*
X158950250Y-80306419D01*
X158971074Y-80301203D01*
X158992309Y-80298053D01*
X159013750Y-80297000D01*
X159451250Y-80297000D01*
X159472691Y-80298053D01*
X159472691Y-80298053D01*
G37*
D13*
G04 #@! TD*
G04 #@! TO.P,R4,2*
G04 #@! TO.N,+5V*
X159232500Y-80772000D03*
D12*
G04 #@! TO.N,Net-(R4-Pad1)*
G04 #@! TO.C,R4*
G36*
X161047691Y-80298053D02*
X161068926Y-80301203D01*
X161089750Y-80306419D01*
X161109962Y-80313651D01*
X161129368Y-80322830D01*
X161147781Y-80333866D01*
X161165024Y-80346654D01*
X161180930Y-80361070D01*
X161195346Y-80376976D01*
X161208134Y-80394219D01*
X161219170Y-80412632D01*
X161228349Y-80432038D01*
X161235581Y-80452250D01*
X161240797Y-80473074D01*
X161243947Y-80494309D01*
X161245000Y-80515750D01*
X161245000Y-81028250D01*
X161243947Y-81049691D01*
X161240797Y-81070926D01*
X161235581Y-81091750D01*
X161228349Y-81111962D01*
X161219170Y-81131368D01*
X161208134Y-81149781D01*
X161195346Y-81167024D01*
X161180930Y-81182930D01*
X161165024Y-81197346D01*
X161147781Y-81210134D01*
X161129368Y-81221170D01*
X161109962Y-81230349D01*
X161089750Y-81237581D01*
X161068926Y-81242797D01*
X161047691Y-81245947D01*
X161026250Y-81247000D01*
X160588750Y-81247000D01*
X160567309Y-81245947D01*
X160546074Y-81242797D01*
X160525250Y-81237581D01*
X160505038Y-81230349D01*
X160485632Y-81221170D01*
X160467219Y-81210134D01*
X160449976Y-81197346D01*
X160434070Y-81182930D01*
X160419654Y-81167024D01*
X160406866Y-81149781D01*
X160395830Y-81131368D01*
X160386651Y-81111962D01*
X160379419Y-81091750D01*
X160374203Y-81070926D01*
X160371053Y-81049691D01*
X160370000Y-81028250D01*
X160370000Y-80515750D01*
X160371053Y-80494309D01*
X160374203Y-80473074D01*
X160379419Y-80452250D01*
X160386651Y-80432038D01*
X160395830Y-80412632D01*
X160406866Y-80394219D01*
X160419654Y-80376976D01*
X160434070Y-80361070D01*
X160449976Y-80346654D01*
X160467219Y-80333866D01*
X160485632Y-80322830D01*
X160505038Y-80313651D01*
X160525250Y-80306419D01*
X160546074Y-80301203D01*
X160567309Y-80298053D01*
X160588750Y-80297000D01*
X161026250Y-80297000D01*
X161047691Y-80298053D01*
X161047691Y-80298053D01*
G37*
D13*
G04 #@! TD*
G04 #@! TO.P,R4,1*
G04 #@! TO.N,Net-(R4-Pad1)*
X160807500Y-80772000D03*
D12*
G04 #@! TO.N,Net-(R5-Pad1)*
G04 #@! TO.C,R5*
G36*
X160793691Y-69376053D02*
X160814926Y-69379203D01*
X160835750Y-69384419D01*
X160855962Y-69391651D01*
X160875368Y-69400830D01*
X160893781Y-69411866D01*
X160911024Y-69424654D01*
X160926930Y-69439070D01*
X160941346Y-69454976D01*
X160954134Y-69472219D01*
X160965170Y-69490632D01*
X160974349Y-69510038D01*
X160981581Y-69530250D01*
X160986797Y-69551074D01*
X160989947Y-69572309D01*
X160991000Y-69593750D01*
X160991000Y-70106250D01*
X160989947Y-70127691D01*
X160986797Y-70148926D01*
X160981581Y-70169750D01*
X160974349Y-70189962D01*
X160965170Y-70209368D01*
X160954134Y-70227781D01*
X160941346Y-70245024D01*
X160926930Y-70260930D01*
X160911024Y-70275346D01*
X160893781Y-70288134D01*
X160875368Y-70299170D01*
X160855962Y-70308349D01*
X160835750Y-70315581D01*
X160814926Y-70320797D01*
X160793691Y-70323947D01*
X160772250Y-70325000D01*
X160334750Y-70325000D01*
X160313309Y-70323947D01*
X160292074Y-70320797D01*
X160271250Y-70315581D01*
X160251038Y-70308349D01*
X160231632Y-70299170D01*
X160213219Y-70288134D01*
X160195976Y-70275346D01*
X160180070Y-70260930D01*
X160165654Y-70245024D01*
X160152866Y-70227781D01*
X160141830Y-70209368D01*
X160132651Y-70189962D01*
X160125419Y-70169750D01*
X160120203Y-70148926D01*
X160117053Y-70127691D01*
X160116000Y-70106250D01*
X160116000Y-69593750D01*
X160117053Y-69572309D01*
X160120203Y-69551074D01*
X160125419Y-69530250D01*
X160132651Y-69510038D01*
X160141830Y-69490632D01*
X160152866Y-69472219D01*
X160165654Y-69454976D01*
X160180070Y-69439070D01*
X160195976Y-69424654D01*
X160213219Y-69411866D01*
X160231632Y-69400830D01*
X160251038Y-69391651D01*
X160271250Y-69384419D01*
X160292074Y-69379203D01*
X160313309Y-69376053D01*
X160334750Y-69375000D01*
X160772250Y-69375000D01*
X160793691Y-69376053D01*
X160793691Y-69376053D01*
G37*
D13*
G04 #@! TD*
G04 #@! TO.P,R5,1*
G04 #@! TO.N,Net-(R5-Pad1)*
X160553500Y-69850000D03*
D12*
G04 #@! TO.N,GND*
G04 #@! TO.C,R5*
G36*
X159218691Y-69376053D02*
X159239926Y-69379203D01*
X159260750Y-69384419D01*
X159280962Y-69391651D01*
X159300368Y-69400830D01*
X159318781Y-69411866D01*
X159336024Y-69424654D01*
X159351930Y-69439070D01*
X159366346Y-69454976D01*
X159379134Y-69472219D01*
X159390170Y-69490632D01*
X159399349Y-69510038D01*
X159406581Y-69530250D01*
X159411797Y-69551074D01*
X159414947Y-69572309D01*
X159416000Y-69593750D01*
X159416000Y-70106250D01*
X159414947Y-70127691D01*
X159411797Y-70148926D01*
X159406581Y-70169750D01*
X159399349Y-70189962D01*
X159390170Y-70209368D01*
X159379134Y-70227781D01*
X159366346Y-70245024D01*
X159351930Y-70260930D01*
X159336024Y-70275346D01*
X159318781Y-70288134D01*
X159300368Y-70299170D01*
X159280962Y-70308349D01*
X159260750Y-70315581D01*
X159239926Y-70320797D01*
X159218691Y-70323947D01*
X159197250Y-70325000D01*
X158759750Y-70325000D01*
X158738309Y-70323947D01*
X158717074Y-70320797D01*
X158696250Y-70315581D01*
X158676038Y-70308349D01*
X158656632Y-70299170D01*
X158638219Y-70288134D01*
X158620976Y-70275346D01*
X158605070Y-70260930D01*
X158590654Y-70245024D01*
X158577866Y-70227781D01*
X158566830Y-70209368D01*
X158557651Y-70189962D01*
X158550419Y-70169750D01*
X158545203Y-70148926D01*
X158542053Y-70127691D01*
X158541000Y-70106250D01*
X158541000Y-69593750D01*
X158542053Y-69572309D01*
X158545203Y-69551074D01*
X158550419Y-69530250D01*
X158557651Y-69510038D01*
X158566830Y-69490632D01*
X158577866Y-69472219D01*
X158590654Y-69454976D01*
X158605070Y-69439070D01*
X158620976Y-69424654D01*
X158638219Y-69411866D01*
X158656632Y-69400830D01*
X158676038Y-69391651D01*
X158696250Y-69384419D01*
X158717074Y-69379203D01*
X158738309Y-69376053D01*
X158759750Y-69375000D01*
X159197250Y-69375000D01*
X159218691Y-69376053D01*
X159218691Y-69376053D01*
G37*
D13*
G04 #@! TD*
G04 #@! TO.P,R5,2*
G04 #@! TO.N,GND*
X158978500Y-69850000D03*
D12*
G04 #@! TO.N,Net-(C7-Pad1)*
G04 #@! TO.C,R6*
G36*
X176541691Y-93252053D02*
X176562926Y-93255203D01*
X176583750Y-93260419D01*
X176603962Y-93267651D01*
X176623368Y-93276830D01*
X176641781Y-93287866D01*
X176659024Y-93300654D01*
X176674930Y-93315070D01*
X176689346Y-93330976D01*
X176702134Y-93348219D01*
X176713170Y-93366632D01*
X176722349Y-93386038D01*
X176729581Y-93406250D01*
X176734797Y-93427074D01*
X176737947Y-93448309D01*
X176739000Y-93469750D01*
X176739000Y-93982250D01*
X176737947Y-94003691D01*
X176734797Y-94024926D01*
X176729581Y-94045750D01*
X176722349Y-94065962D01*
X176713170Y-94085368D01*
X176702134Y-94103781D01*
X176689346Y-94121024D01*
X176674930Y-94136930D01*
X176659024Y-94151346D01*
X176641781Y-94164134D01*
X176623368Y-94175170D01*
X176603962Y-94184349D01*
X176583750Y-94191581D01*
X176562926Y-94196797D01*
X176541691Y-94199947D01*
X176520250Y-94201000D01*
X176082750Y-94201000D01*
X176061309Y-94199947D01*
X176040074Y-94196797D01*
X176019250Y-94191581D01*
X175999038Y-94184349D01*
X175979632Y-94175170D01*
X175961219Y-94164134D01*
X175943976Y-94151346D01*
X175928070Y-94136930D01*
X175913654Y-94121024D01*
X175900866Y-94103781D01*
X175889830Y-94085368D01*
X175880651Y-94065962D01*
X175873419Y-94045750D01*
X175868203Y-94024926D01*
X175865053Y-94003691D01*
X175864000Y-93982250D01*
X175864000Y-93469750D01*
X175865053Y-93448309D01*
X175868203Y-93427074D01*
X175873419Y-93406250D01*
X175880651Y-93386038D01*
X175889830Y-93366632D01*
X175900866Y-93348219D01*
X175913654Y-93330976D01*
X175928070Y-93315070D01*
X175943976Y-93300654D01*
X175961219Y-93287866D01*
X175979632Y-93276830D01*
X175999038Y-93267651D01*
X176019250Y-93260419D01*
X176040074Y-93255203D01*
X176061309Y-93252053D01*
X176082750Y-93251000D01*
X176520250Y-93251000D01*
X176541691Y-93252053D01*
X176541691Y-93252053D01*
G37*
D13*
G04 #@! TD*
G04 #@! TO.P,R6,2*
G04 #@! TO.N,Net-(C7-Pad1)*
X176301500Y-93726000D03*
D12*
G04 #@! TO.N,+5V*
G04 #@! TO.C,R6*
G36*
X174966691Y-93252053D02*
X174987926Y-93255203D01*
X175008750Y-93260419D01*
X175028962Y-93267651D01*
X175048368Y-93276830D01*
X175066781Y-93287866D01*
X175084024Y-93300654D01*
X175099930Y-93315070D01*
X175114346Y-93330976D01*
X175127134Y-93348219D01*
X175138170Y-93366632D01*
X175147349Y-93386038D01*
X175154581Y-93406250D01*
X175159797Y-93427074D01*
X175162947Y-93448309D01*
X175164000Y-93469750D01*
X175164000Y-93982250D01*
X175162947Y-94003691D01*
X175159797Y-94024926D01*
X175154581Y-94045750D01*
X175147349Y-94065962D01*
X175138170Y-94085368D01*
X175127134Y-94103781D01*
X175114346Y-94121024D01*
X175099930Y-94136930D01*
X175084024Y-94151346D01*
X175066781Y-94164134D01*
X175048368Y-94175170D01*
X175028962Y-94184349D01*
X175008750Y-94191581D01*
X174987926Y-94196797D01*
X174966691Y-94199947D01*
X174945250Y-94201000D01*
X174507750Y-94201000D01*
X174486309Y-94199947D01*
X174465074Y-94196797D01*
X174444250Y-94191581D01*
X174424038Y-94184349D01*
X174404632Y-94175170D01*
X174386219Y-94164134D01*
X174368976Y-94151346D01*
X174353070Y-94136930D01*
X174338654Y-94121024D01*
X174325866Y-94103781D01*
X174314830Y-94085368D01*
X174305651Y-94065962D01*
X174298419Y-94045750D01*
X174293203Y-94024926D01*
X174290053Y-94003691D01*
X174289000Y-93982250D01*
X174289000Y-93469750D01*
X174290053Y-93448309D01*
X174293203Y-93427074D01*
X174298419Y-93406250D01*
X174305651Y-93386038D01*
X174314830Y-93366632D01*
X174325866Y-93348219D01*
X174338654Y-93330976D01*
X174353070Y-93315070D01*
X174368976Y-93300654D01*
X174386219Y-93287866D01*
X174404632Y-93276830D01*
X174424038Y-93267651D01*
X174444250Y-93260419D01*
X174465074Y-93255203D01*
X174486309Y-93252053D01*
X174507750Y-93251000D01*
X174945250Y-93251000D01*
X174966691Y-93252053D01*
X174966691Y-93252053D01*
G37*
D13*
G04 #@! TD*
G04 #@! TO.P,R6,1*
G04 #@! TO.N,+5V*
X174726500Y-93726000D03*
D12*
G04 #@! TO.N,Reset*
G04 #@! TO.C,R7*
G36*
X174966691Y-95030053D02*
X174987926Y-95033203D01*
X175008750Y-95038419D01*
X175028962Y-95045651D01*
X175048368Y-95054830D01*
X175066781Y-95065866D01*
X175084024Y-95078654D01*
X175099930Y-95093070D01*
X175114346Y-95108976D01*
X175127134Y-95126219D01*
X175138170Y-95144632D01*
X175147349Y-95164038D01*
X175154581Y-95184250D01*
X175159797Y-95205074D01*
X175162947Y-95226309D01*
X175164000Y-95247750D01*
X175164000Y-95760250D01*
X175162947Y-95781691D01*
X175159797Y-95802926D01*
X175154581Y-95823750D01*
X175147349Y-95843962D01*
X175138170Y-95863368D01*
X175127134Y-95881781D01*
X175114346Y-95899024D01*
X175099930Y-95914930D01*
X175084024Y-95929346D01*
X175066781Y-95942134D01*
X175048368Y-95953170D01*
X175028962Y-95962349D01*
X175008750Y-95969581D01*
X174987926Y-95974797D01*
X174966691Y-95977947D01*
X174945250Y-95979000D01*
X174507750Y-95979000D01*
X174486309Y-95977947D01*
X174465074Y-95974797D01*
X174444250Y-95969581D01*
X174424038Y-95962349D01*
X174404632Y-95953170D01*
X174386219Y-95942134D01*
X174368976Y-95929346D01*
X174353070Y-95914930D01*
X174338654Y-95899024D01*
X174325866Y-95881781D01*
X174314830Y-95863368D01*
X174305651Y-95843962D01*
X174298419Y-95823750D01*
X174293203Y-95802926D01*
X174290053Y-95781691D01*
X174289000Y-95760250D01*
X174289000Y-95247750D01*
X174290053Y-95226309D01*
X174293203Y-95205074D01*
X174298419Y-95184250D01*
X174305651Y-95164038D01*
X174314830Y-95144632D01*
X174325866Y-95126219D01*
X174338654Y-95108976D01*
X174353070Y-95093070D01*
X174368976Y-95078654D01*
X174386219Y-95065866D01*
X174404632Y-95054830D01*
X174424038Y-95045651D01*
X174444250Y-95038419D01*
X174465074Y-95033203D01*
X174486309Y-95030053D01*
X174507750Y-95029000D01*
X174945250Y-95029000D01*
X174966691Y-95030053D01*
X174966691Y-95030053D01*
G37*
D13*
G04 #@! TD*
G04 #@! TO.P,R7,1*
G04 #@! TO.N,Reset*
X174726500Y-95504000D03*
D12*
G04 #@! TO.N,Net-(C7-Pad1)*
G04 #@! TO.C,R7*
G36*
X176541691Y-95030053D02*
X176562926Y-95033203D01*
X176583750Y-95038419D01*
X176603962Y-95045651D01*
X176623368Y-95054830D01*
X176641781Y-95065866D01*
X176659024Y-95078654D01*
X176674930Y-95093070D01*
X176689346Y-95108976D01*
X176702134Y-95126219D01*
X176713170Y-95144632D01*
X176722349Y-95164038D01*
X176729581Y-95184250D01*
X176734797Y-95205074D01*
X176737947Y-95226309D01*
X176739000Y-95247750D01*
X176739000Y-95760250D01*
X176737947Y-95781691D01*
X176734797Y-95802926D01*
X176729581Y-95823750D01*
X176722349Y-95843962D01*
X176713170Y-95863368D01*
X176702134Y-95881781D01*
X176689346Y-95899024D01*
X176674930Y-95914930D01*
X176659024Y-95929346D01*
X176641781Y-95942134D01*
X176623368Y-95953170D01*
X176603962Y-95962349D01*
X176583750Y-95969581D01*
X176562926Y-95974797D01*
X176541691Y-95977947D01*
X176520250Y-95979000D01*
X176082750Y-95979000D01*
X176061309Y-95977947D01*
X176040074Y-95974797D01*
X176019250Y-95969581D01*
X175999038Y-95962349D01*
X175979632Y-95953170D01*
X175961219Y-95942134D01*
X175943976Y-95929346D01*
X175928070Y-95914930D01*
X175913654Y-95899024D01*
X175900866Y-95881781D01*
X175889830Y-95863368D01*
X175880651Y-95843962D01*
X175873419Y-95823750D01*
X175868203Y-95802926D01*
X175865053Y-95781691D01*
X175864000Y-95760250D01*
X175864000Y-95247750D01*
X175865053Y-95226309D01*
X175868203Y-95205074D01*
X175873419Y-95184250D01*
X175880651Y-95164038D01*
X175889830Y-95144632D01*
X175900866Y-95126219D01*
X175913654Y-95108976D01*
X175928070Y-95093070D01*
X175943976Y-95078654D01*
X175961219Y-95065866D01*
X175979632Y-95054830D01*
X175999038Y-95045651D01*
X176019250Y-95038419D01*
X176040074Y-95033203D01*
X176061309Y-95030053D01*
X176082750Y-95029000D01*
X176520250Y-95029000D01*
X176541691Y-95030053D01*
X176541691Y-95030053D01*
G37*
D13*
G04 #@! TD*
G04 #@! TO.P,R7,2*
G04 #@! TO.N,Net-(C7-Pad1)*
X176301500Y-95504000D03*
D19*
G04 #@! TO.P,U1,1*
G04 #@! TO.N,Net-(D1-Pad2)*
X169799000Y-73218000D03*
G04 #@! TO.P,U1,2*
G04 #@! TO.N,GND*
X169799000Y-74168000D03*
G04 #@! TO.P,U1,3*
G04 #@! TO.N,Net-(C2-Pad2)*
X169799000Y-75118000D03*
G04 #@! TO.P,U1,4*
G04 #@! TO.N,+12V*
X172085000Y-75118000D03*
G04 #@! TO.P,U1,5*
G04 #@! TO.N,Net-(C3-Pad1)*
X172085000Y-74168000D03*
G04 #@! TO.P,U1,6*
G04 #@! TO.N,+12V*
X172085000Y-73218000D03*
G04 #@! TD*
D20*
G04 #@! TO.P,U4,1*
G04 #@! TO.N,Net-(U4-Pad1)*
X164436000Y-92325000D03*
G04 #@! TO.P,U4,2*
G04 #@! TO.N,Net-(U4-Pad2)*
X164436000Y-92975000D03*
G04 #@! TO.P,U4,3*
G04 #@! TO.N,Net-(U4-Pad3)*
X164436000Y-93625000D03*
G04 #@! TO.P,U4,4*
G04 #@! TO.N,TX0*
X164436000Y-94275000D03*
G04 #@! TO.P,U4,5*
G04 #@! TO.N,TX1*
X164436000Y-94925000D03*
G04 #@! TO.P,U4,6*
G04 #@! TO.N,Net-(U4-Pad6)*
X164436000Y-95575000D03*
G04 #@! TO.P,U4,7*
G04 #@! TO.N,TX2*
X164436000Y-96225000D03*
G04 #@! TO.P,U4,8*
G04 #@! TO.N,Net-(C5-Pad1)*
X164436000Y-96875000D03*
G04 #@! TO.P,U4,9*
G04 #@! TO.N,Net-(C6-Pad2)*
X164436000Y-97525000D03*
G04 #@! TO.P,U4,10*
G04 #@! TO.N,GND*
X164436000Y-98175000D03*
G04 #@! TO.P,U4,11*
G04 #@! TO.N,RX1*
X170336000Y-98175000D03*
G04 #@! TO.P,U4,12*
G04 #@! TO.N,RX0*
X170336000Y-97525000D03*
G04 #@! TO.P,U4,13*
G04 #@! TO.N,INT*
X170336000Y-96875000D03*
G04 #@! TO.P,U4,14*
G04 #@! TO.N,SCK*
X170336000Y-96225000D03*
G04 #@! TO.P,U4,15*
G04 #@! TO.N,Net-(U4-Pad15)*
X170336000Y-95575000D03*
G04 #@! TO.P,U4,16*
G04 #@! TO.N,SI*
X170336000Y-94925000D03*
G04 #@! TO.P,U4,17*
G04 #@! TO.N,SO*
X170336000Y-94275000D03*
G04 #@! TO.P,U4,18*
G04 #@! TO.N,SS*
X170336000Y-93625000D03*
G04 #@! TO.P,U4,19*
G04 #@! TO.N,Reset*
X170336000Y-92975000D03*
G04 #@! TO.P,U4,20*
G04 #@! TO.N,+5V*
X170336000Y-92325000D03*
G04 #@! TD*
D21*
G04 #@! TO.P,U5,1*
G04 #@! TO.N,Net-(U4-Pad1)*
X155288000Y-72263000D03*
G04 #@! TO.P,U5,2*
G04 #@! TO.N,GND*
X155288000Y-73533000D03*
G04 #@! TO.P,U5,3*
G04 #@! TO.N,+5V*
X155288000Y-74803000D03*
G04 #@! TO.P,U5,4*
G04 #@! TO.N,Net-(U4-Pad2)*
X155288000Y-76073000D03*
G04 #@! TO.P,U5,5*
G04 #@! TO.N,Net-(R4-Pad1)*
X160688000Y-76073000D03*
G04 #@! TO.P,U5,6*
G04 #@! TO.N,CANL*
X160688000Y-74803000D03*
G04 #@! TO.P,U5,7*
G04 #@! TO.N,CANH*
X160688000Y-73533000D03*
G04 #@! TO.P,U5,8*
G04 #@! TO.N,Net-(R5-Pad1)*
X160688000Y-72263000D03*
G04 #@! TD*
D22*
G04 #@! TO.P,Y1,1*
G04 #@! TO.N,Net-(C5-Pad1)*
X156464000Y-95082000D03*
G04 #@! TO.P,Y1,2*
G04 #@! TO.N,Net-(C6-Pad2)*
X156464000Y-99482000D03*
G04 #@! TD*
D10*
G04 #@! TO.P,SW1,1*
G04 #@! TO.N,A0*
X159004000Y-105156000D03*
D11*
G04 #@! TO.P,SW1,5*
G04 #@! TO.N,Net-(J1-Pad6)*
X166624000Y-112776000D03*
G04 #@! TO.P,SW1,2*
G04 #@! TO.N,A1*
X159004000Y-107696000D03*
G04 #@! TO.P,SW1,6*
G04 #@! TO.N,Net-(J1-Pad5)*
X166624000Y-110236000D03*
G04 #@! TO.P,SW1,3*
G04 #@! TO.N,PWM0*
X159004000Y-110236000D03*
G04 #@! TO.P,SW1,7*
G04 #@! TO.N,Net-(J1-Pad4)*
X166624000Y-107696000D03*
G04 #@! TO.P,SW1,4*
G04 #@! TO.N,PWM1*
X159004000Y-112776000D03*
G04 #@! TO.P,SW1,8*
G04 #@! TO.N,Net-(J1-Pad3)*
X166624000Y-105156000D03*
G04 #@! TD*
D23*
G04 #@! TO.N,*
X102870000Y-91440000D03*
G04 #@! TO.N,GND*
X119380000Y-67564000D03*
X119380000Y-118872000D03*
X186436000Y-118872000D03*
X186436000Y-67564000D03*
X120396000Y-67564000D03*
X121412000Y-67564000D03*
X125476000Y-67564000D03*
X126492000Y-67564000D03*
X127508000Y-67564000D03*
X128524000Y-67564000D03*
X129540000Y-67564000D03*
X130556000Y-67564000D03*
X131572000Y-67564000D03*
X132588000Y-67564000D03*
X133604000Y-67564000D03*
X134620000Y-67564000D03*
X135636000Y-67564000D03*
X136652000Y-67564000D03*
X137668000Y-67564000D03*
X138684000Y-67564000D03*
X139700000Y-67564000D03*
X140716000Y-67564000D03*
X141732000Y-67564000D03*
X142748000Y-67564000D03*
X143764000Y-67564000D03*
X144780000Y-67564000D03*
X145796000Y-67564000D03*
X146812000Y-67564000D03*
X147828000Y-67564000D03*
X148844000Y-67564000D03*
X149860000Y-67564000D03*
X150876000Y-67564000D03*
X151892000Y-67564000D03*
X152908000Y-67564000D03*
X153924000Y-67564000D03*
X154940000Y-67564000D03*
X155956000Y-67564000D03*
X156972000Y-67564000D03*
X157988000Y-67564000D03*
X159004000Y-67564000D03*
X160020000Y-67564000D03*
X160020000Y-67564000D03*
X160020000Y-67564000D03*
X161036000Y-67564000D03*
X162052000Y-67564000D03*
X163068000Y-67564000D03*
X164084000Y-67564000D03*
X165100000Y-67564000D03*
X166116000Y-67564000D03*
X167132000Y-67564000D03*
X168148000Y-67564000D03*
X169164000Y-67564000D03*
X170180000Y-67564000D03*
X171196000Y-67564000D03*
X172212000Y-67564000D03*
X173228000Y-67564000D03*
X174244000Y-67564000D03*
X175260000Y-67564000D03*
X176276000Y-67564000D03*
X177292000Y-67564000D03*
X178308000Y-67564000D03*
X183388000Y-67564000D03*
X185420000Y-67564000D03*
X184404000Y-67564000D03*
X182372000Y-67564000D03*
X181356000Y-67564000D03*
X180340000Y-67564000D03*
X179324000Y-67564000D03*
X124460000Y-67564000D03*
X119380000Y-68580000D03*
X119380000Y-69596000D03*
X186436000Y-117856000D03*
X186436000Y-116840000D03*
X185420000Y-118872000D03*
X184404000Y-118872000D03*
X119380000Y-117856000D03*
X119380000Y-116840000D03*
X119380000Y-115824000D03*
X119380000Y-114808000D03*
X119380000Y-113792000D03*
X119380000Y-112776000D03*
X119380000Y-111760000D03*
X119380000Y-110744000D03*
X119380000Y-109728000D03*
X119380000Y-108712000D03*
X119380000Y-107696000D03*
X119380000Y-106680000D03*
X119380000Y-105664000D03*
X119380000Y-104648000D03*
X119380000Y-103632000D03*
X119380000Y-102616000D03*
X119380000Y-101600000D03*
X119380000Y-100584000D03*
X119380000Y-99568000D03*
X119380000Y-98552000D03*
X119380000Y-97536000D03*
X119380000Y-96520000D03*
X119380000Y-95504000D03*
X119380000Y-94488000D03*
X119380000Y-93472000D03*
X119380000Y-92456000D03*
X119380000Y-91440000D03*
X119380000Y-90424000D03*
X119380000Y-90424000D03*
X119380000Y-90424000D03*
X119380000Y-89408000D03*
X119380000Y-88392000D03*
X119380000Y-87376000D03*
X119380000Y-86360000D03*
X119380000Y-84328000D03*
X119380000Y-85344000D03*
X119380000Y-83312000D03*
X119380000Y-82296000D03*
X119380000Y-81280000D03*
X119380000Y-80264000D03*
X119380000Y-79248000D03*
X119380000Y-78232000D03*
X119380000Y-77216000D03*
X119380000Y-76200000D03*
X119380000Y-75184000D03*
X119380000Y-74168000D03*
X119380000Y-73152000D03*
X120396000Y-118872000D03*
X121412000Y-118872000D03*
X122428000Y-118872000D03*
X123444000Y-118872000D03*
X124460000Y-118872000D03*
X125476000Y-118872000D03*
X126492000Y-118872000D03*
X138684000Y-118872000D03*
X134620000Y-118872000D03*
X139700000Y-118872000D03*
X135636000Y-118872000D03*
X129540000Y-118872000D03*
X128524000Y-118872000D03*
X144780000Y-118872000D03*
X140716000Y-118872000D03*
X131572000Y-118872000D03*
X137668000Y-118872000D03*
X127508000Y-118872000D03*
X143764000Y-118872000D03*
X142748000Y-118872000D03*
X130556000Y-118872000D03*
X133604000Y-118872000D03*
X145796000Y-118872000D03*
X132588000Y-118872000D03*
X141732000Y-118872000D03*
X136652000Y-118872000D03*
X161036000Y-118872000D03*
X156972000Y-118872000D03*
X162052000Y-118872000D03*
X157988000Y-118872000D03*
X167132000Y-118872000D03*
X163068000Y-118872000D03*
X160020000Y-118872000D03*
X166116000Y-118872000D03*
X165100000Y-118872000D03*
X168148000Y-118872000D03*
X164084000Y-118872000D03*
X159004000Y-118872000D03*
X169164000Y-118872000D03*
X170180000Y-118872000D03*
X171196000Y-118872000D03*
X172212000Y-118872000D03*
X173228000Y-118872000D03*
X177800000Y-118872000D03*
X178816000Y-118872000D03*
X179832000Y-118872000D03*
X180848000Y-118872000D03*
X186436000Y-100076000D03*
X186436000Y-74676000D03*
X186436000Y-102108000D03*
X186436000Y-83820000D03*
X186436000Y-77724000D03*
X186436000Y-92964000D03*
X186436000Y-72644000D03*
X186436000Y-85852000D03*
X186436000Y-71628000D03*
X186436000Y-79756000D03*
X186436000Y-98044000D03*
X186436000Y-91948000D03*
X186436000Y-81788000D03*
X186436000Y-68580000D03*
X186436000Y-69596000D03*
X186436000Y-94996000D03*
X186436000Y-89916000D03*
X186436000Y-87884000D03*
X186436000Y-101092000D03*
X186436000Y-83820000D03*
X186436000Y-99060000D03*
X186436000Y-82804000D03*
X186436000Y-80772000D03*
X186436000Y-90932000D03*
X186436000Y-96012000D03*
X186436000Y-76708000D03*
X186436000Y-73660000D03*
X186436000Y-70612000D03*
X186436000Y-83820000D03*
X186436000Y-84836000D03*
X186436000Y-78740000D03*
X186436000Y-86868000D03*
X186436000Y-88900000D03*
X186436000Y-75692000D03*
X186436000Y-93980000D03*
X186436000Y-97028000D03*
X186436000Y-105156000D03*
X186436000Y-106172000D03*
X186436000Y-103124000D03*
X186436000Y-104140000D03*
X186436000Y-109220000D03*
X186436000Y-110236000D03*
X186436000Y-107188000D03*
X186436000Y-108204000D03*
X186436000Y-113284000D03*
X186436000Y-111252000D03*
X186436000Y-112268000D03*
X170434000Y-100584000D03*
X168402000Y-100584000D03*
X166116000Y-75438000D03*
X167640000Y-74930000D03*
X164338000Y-75438000D03*
X158242000Y-73660000D03*
X163068000Y-99187000D03*
X157480000Y-81280000D03*
X157480000Y-82550000D03*
X157480000Y-83820000D03*
X157480000Y-85090000D03*
X160020000Y-85090000D03*
X158750000Y-85090000D03*
X161290000Y-85090000D03*
X160020000Y-83820000D03*
X158750000Y-82550000D03*
X148590000Y-88900000D03*
X149860000Y-88900000D03*
X151130000Y-88900000D03*
X152400000Y-88900000D03*
X153670000Y-88900000D03*
X154940000Y-88900000D03*
X149860000Y-91440000D03*
X148590000Y-91440000D03*
X151130000Y-91440000D03*
X152400000Y-91440000D03*
X153670000Y-91440000D03*
X154940000Y-91440000D03*
X156210000Y-91440000D03*
X156210000Y-97790000D03*
X157480000Y-97790000D03*
X157480000Y-96520000D03*
X156210000Y-96520000D03*
X154940000Y-96520000D03*
X154940000Y-97790000D03*
X152400000Y-97790000D03*
X153670000Y-96520000D03*
X152400000Y-96520000D03*
X151130000Y-96520000D03*
X149860000Y-96520000D03*
X148590000Y-96520000D03*
X148590000Y-97790000D03*
X149860000Y-97790000D03*
X151130000Y-97790000D03*
X153670000Y-97790000D03*
X168910000Y-82550000D03*
X168910000Y-83820000D03*
X170180000Y-83820000D03*
X170180000Y-85090000D03*
X171450000Y-85090000D03*
X172720000Y-86360000D03*
X171450000Y-86360000D03*
X172720000Y-87630000D03*
X173990000Y-87630000D03*
X173990000Y-88900000D03*
X175260000Y-88900000D03*
X148590000Y-83820000D03*
X148590000Y-82550000D03*
X148590000Y-81280000D03*
X148590000Y-80010000D03*
X148590000Y-78740000D03*
X140970000Y-102870000D03*
X139700000Y-102870000D03*
X138430000Y-102870000D03*
X137160000Y-102870000D03*
X170180000Y-99060000D03*
G04 #@! TO.N,INT*
X165354000Y-88392000D03*
G04 #@! TO.N,RX0*
X164592000Y-89154000D03*
G04 #@! TO.N,RX1*
X164084000Y-90170000D03*
G04 #@! TO.N,PWM0*
X135636000Y-104394000D03*
G04 #@! TO.N,PWM1*
X134112000Y-105664000D03*
X155702000Y-115062000D03*
X147828000Y-115062000D03*
G04 #@! TO.N,TX0*
X157988000Y-92202000D03*
G04 #@! TO.N,TX1*
X157226000Y-92964000D03*
G04 #@! TO.N,+5V*
X156718000Y-77978000D03*
X168402000Y-89154000D03*
X165100000Y-85852000D03*
G04 #@! TO.N,TX2*
X153670000Y-93726000D03*
G04 #@! TO.N,SS*
X168402000Y-93472000D03*
X164592000Y-100330000D03*
X159766000Y-100584000D03*
G04 #@! TO.N,SI*
X149098000Y-102870000D03*
X146220524Y-105176294D03*
D24*
G04 #@! TO.N,+12V*
X145796000Y-77470000D03*
X162560000Y-71120000D03*
D23*
G04 #@! TO.N,SO*
X146304000Y-106426000D03*
X150876000Y-102870000D03*
G04 #@! TO.N,SCK*
X168782441Y-95621135D03*
X145034000Y-102616000D03*
X165608000Y-101346000D03*
X161290000Y-101346000D03*
G04 #@! TO.N,+48V*
X181864000Y-93472000D03*
X181864000Y-103632000D03*
X177038000Y-70866000D03*
X174752000Y-69088000D03*
X168656000Y-78740000D03*
G04 #@! TO.N,Net-(D1-Pad2)*
X169799000Y-70615000D03*
X166878000Y-73406000D03*
G04 #@! TO.N,CANL*
X158242000Y-74930000D03*
G04 #@! TO.N,CANH*
X162306000Y-81280000D03*
G04 #@! TO.N,Net-(U4-Pad1)*
X161290000Y-92202000D03*
X157734000Y-89154000D03*
X151130000Y-81788000D03*
X151130000Y-77724000D03*
G04 #@! TO.N,Net-(U4-Pad2)*
X160020000Y-88646000D03*
X161798000Y-90424000D03*
G04 #@! TD*
D25*
G04 #@! TO.N,GND*
X151638000Y-111664000D02*
X149138000Y-111664000D01*
D26*
X151638000Y-111664000D02*
X151638000Y-110289000D01*
X154192800Y-111664000D02*
X154138000Y-111664000D01*
X151638000Y-111664000D02*
X154192800Y-111664000D01*
X151638000Y-111664000D02*
X151638000Y-113039000D01*
X151638000Y-111664000D02*
X148940000Y-111664000D01*
X168656000Y-74396600D02*
X168656000Y-74451400D01*
X168884600Y-74168000D02*
X168656000Y-74396600D01*
X169799000Y-74168000D02*
X168884600Y-74168000D01*
D25*
X164080000Y-98175000D02*
X163068000Y-99187000D01*
X164436000Y-98175000D02*
X164080000Y-98175000D01*
D26*
G04 #@! TO.N,INT*
X169306200Y-96875000D02*
X170336000Y-96875000D01*
X168922752Y-96875000D02*
X169306200Y-96875000D01*
X167386000Y-95338248D02*
X168922752Y-96875000D01*
X167386000Y-90424000D02*
X167386000Y-95338248D01*
X165354000Y-88392000D02*
X167386000Y-90424000D01*
G04 #@! TO.N,RX0*
X170336000Y-97525000D02*
X169040818Y-97525000D01*
X170336000Y-97525000D02*
X168137000Y-97525000D01*
X168137000Y-97525000D02*
X166878000Y-96266000D01*
X166878000Y-96266000D02*
X166878000Y-91440000D01*
X165522329Y-90084329D02*
X164592000Y-89154000D01*
X166878000Y-91440000D02*
X165522329Y-90084329D01*
G04 #@! TO.N,RX1*
X169306200Y-98175000D02*
X170336000Y-98175000D01*
X168976910Y-98175000D02*
X169306200Y-98175000D01*
X167517000Y-98175000D02*
X170336000Y-98175000D01*
X166116000Y-96774000D02*
X167517000Y-98175000D01*
X166116000Y-91440000D02*
X166116000Y-96774000D01*
X164084000Y-90170000D02*
X164797908Y-90170000D01*
X164797908Y-90170000D02*
X166116000Y-91440000D01*
G04 #@! TO.N,PWM0*
X135636000Y-102870000D02*
X135636000Y-104394000D01*
X128016000Y-95250000D02*
X135636000Y-102870000D01*
G04 #@! TO.N,PWM1*
X155702000Y-115062000D02*
X147828000Y-115062000D01*
X134112000Y-103886000D02*
X134112000Y-105664000D01*
X128016000Y-97790000D02*
X134112000Y-103886000D01*
G04 #@! TO.N,TX0*
X164436000Y-94275000D02*
X161716230Y-94275000D01*
X161716230Y-94275000D02*
X159643230Y-92202000D01*
X159643230Y-92202000D02*
X157988000Y-92202000D01*
G04 #@! TO.N,TX1*
X159512000Y-93012092D02*
X159512000Y-92964000D01*
X161424908Y-94925000D02*
X159512000Y-93012092D01*
X164436000Y-94925000D02*
X161424908Y-94925000D01*
D25*
X157226000Y-92964000D02*
X159512000Y-92964000D01*
D26*
X159463908Y-92964000D02*
X157226000Y-92964000D01*
X159512000Y-93012092D02*
X159463908Y-92964000D01*
D25*
G04 #@! TO.N,+5V*
X159258000Y-80772000D02*
X159232500Y-80772000D01*
X155763000Y-74803000D02*
X155288000Y-74803000D01*
D26*
X174726500Y-91948000D02*
X174726500Y-93726000D01*
X170713000Y-91948000D02*
X170336000Y-92325000D01*
X174726500Y-91948000D02*
X170713000Y-91948000D01*
X170336000Y-91088000D02*
X168402000Y-89154000D01*
X170336000Y-92325000D02*
X170336000Y-91088000D01*
X156367800Y-74803000D02*
X155288000Y-74803000D01*
X156718000Y-75153200D02*
X156367800Y-74803000D01*
X156718000Y-77978000D02*
X156718000Y-75153200D01*
X159232500Y-80492500D02*
X159232500Y-80772000D01*
X156718000Y-77978000D02*
X159232500Y-80492500D01*
X164312500Y-85852000D02*
X165100000Y-85852000D01*
X159232500Y-80772000D02*
X164312500Y-85852000D01*
G04 #@! TO.N,TX2*
X162432160Y-96225000D02*
X162412785Y-96205625D01*
X164436000Y-96225000D02*
X162432160Y-96225000D01*
D25*
X162393410Y-96225000D02*
X162412785Y-96205625D01*
D26*
X161490590Y-95704590D02*
X159512000Y-93726000D01*
X161911750Y-95704590D02*
X161490590Y-95704590D01*
X162432160Y-96225000D02*
X161911750Y-95704590D01*
X159512000Y-93726000D02*
X153670000Y-93726000D01*
G04 #@! TO.N,SS*
X168555000Y-93625000D02*
X168402000Y-93472000D01*
X170336000Y-93625000D02*
X168555000Y-93625000D01*
X160020000Y-100330000D02*
X159766000Y-100584000D01*
X164592000Y-100330000D02*
X160020000Y-100330000D01*
D25*
G04 #@! TO.N,SI*
X145484010Y-112466992D02*
X143796001Y-114155001D01*
D26*
X172466000Y-100838000D02*
X171196000Y-102108000D01*
X172466000Y-96025200D02*
X172466000Y-100838000D01*
X170336000Y-94925000D02*
X171365800Y-94925000D01*
X171365800Y-94925000D02*
X172466000Y-96025200D01*
X149497999Y-102470001D02*
X149098000Y-102870000D01*
X149869599Y-102098401D02*
X149497999Y-102470001D01*
X171186401Y-102098401D02*
X149869599Y-102098401D01*
X171196000Y-102108000D02*
X171186401Y-102098401D01*
X128016000Y-110490000D02*
X129168401Y-111642401D01*
X142566446Y-114046000D02*
X142820446Y-114300000D01*
X131572000Y-114046000D02*
X142566446Y-114046000D01*
X129168401Y-111642401D02*
X131572000Y-114046000D01*
X143651002Y-114300000D02*
X145484010Y-112466992D01*
X142820446Y-114300000D02*
X143651002Y-114300000D01*
X145484010Y-105912808D02*
X146220524Y-105176294D01*
X145484010Y-112466992D02*
X145484010Y-105912808D01*
D25*
G04 #@! TO.N,+12V*
X164592000Y-69393000D02*
X164287000Y-69088000D01*
D27*
X145796000Y-77470000D02*
X143256000Y-77470000D01*
X147320000Y-78994000D02*
X145796000Y-77470000D01*
X147320000Y-104909000D02*
X147320000Y-78994000D01*
X151638000Y-105664000D02*
X148075000Y-105664000D01*
X148075000Y-105664000D02*
X147320000Y-104909000D01*
X164338000Y-72110500D02*
X170977500Y-72110500D01*
X170977500Y-72110500D02*
X173710500Y-72110500D01*
X173279801Y-75153501D02*
X172085000Y-75153501D01*
X173710500Y-74722802D02*
X173279801Y-75153501D01*
X173710500Y-72110500D02*
X173710500Y-74722802D01*
X170977500Y-72110500D02*
X172049499Y-73182499D01*
X164338000Y-69139000D02*
X164287000Y-69088000D01*
X164338000Y-72110500D02*
X164338000Y-70104000D01*
X164338000Y-70104000D02*
X164338000Y-69139000D01*
X162560000Y-71120000D02*
X164338000Y-71120000D01*
D26*
G04 #@! TO.N,SO*
X173228000Y-100869750D02*
X173005750Y-101092000D01*
X173228000Y-95758000D02*
X173228000Y-100869750D01*
X171745000Y-94275000D02*
X173228000Y-95758000D01*
X170336000Y-94275000D02*
X171745000Y-94275000D01*
X172974000Y-101092000D02*
X171196000Y-102870000D01*
X173005750Y-101092000D02*
X172974000Y-101092000D01*
X154178000Y-102870000D02*
X150876000Y-102870000D01*
X171196000Y-102870000D02*
X154178000Y-102870000D01*
X146304000Y-106991685D02*
X146304000Y-106426000D01*
X146304000Y-112360911D02*
X146304000Y-106991685D01*
X143860101Y-114804810D02*
X146304000Y-112360911D01*
X128659440Y-114804810D02*
X143860101Y-114804810D01*
X128016000Y-114161370D02*
X128659440Y-114804810D01*
X128016000Y-113030000D02*
X128016000Y-114161370D01*
G04 #@! TO.N,SCK*
X169386306Y-96225000D02*
X170336000Y-96225000D01*
X168782441Y-95621135D02*
X169386306Y-96225000D01*
X161290000Y-101346000D02*
X165608000Y-101346000D01*
X144634001Y-103015999D02*
X145034000Y-102616000D01*
X144634001Y-111651999D02*
X144634001Y-110236000D01*
X143256000Y-113030000D02*
X144634001Y-111651999D01*
X144634001Y-110398801D02*
X144634001Y-110236000D01*
X144634001Y-110236000D02*
X144634001Y-103015999D01*
G04 #@! TO.N,Net-(C2-Pad2)*
X170408500Y-78740000D02*
X168859000Y-77190500D01*
X168859000Y-77190500D02*
X168859000Y-75702400D01*
X169443400Y-75118000D02*
X169799000Y-75118000D01*
X168859000Y-75702400D02*
X169443400Y-75118000D01*
X167132000Y-77190500D02*
X168859000Y-77190500D01*
X167132000Y-77190500D02*
X164592000Y-77190500D01*
G04 #@! TO.N,+48V*
X181864000Y-93472000D02*
X181864000Y-103632000D01*
X171072000Y-69088000D02*
X174752000Y-69088000D01*
X177038000Y-72110500D02*
X177038000Y-70866000D01*
X164592000Y-78765500D02*
X167132000Y-78765500D01*
X167157500Y-78740000D02*
X167132000Y-78765500D01*
X168656000Y-78740000D02*
X167157500Y-78740000D01*
G04 #@! TO.N,Net-(C3-Pad1)*
X171170600Y-74168000D02*
X172085000Y-74168000D01*
X170942000Y-74396600D02*
X171170600Y-74168000D01*
X170942000Y-75423602D02*
X170942000Y-74396600D01*
X172988398Y-77470000D02*
X170942000Y-75423602D01*
X175006000Y-77470000D02*
X172988398Y-77470000D01*
D25*
G04 #@! TO.N,Net-(C5-Pad1)*
X159402000Y-96520000D02*
X159427500Y-96494500D01*
D26*
X161987751Y-96494500D02*
X161036000Y-96494500D01*
X164436000Y-96875000D02*
X162368251Y-96875000D01*
X162368251Y-96875000D02*
X161987751Y-96494500D01*
X161036000Y-96494500D02*
X159427500Y-96494500D01*
X159402000Y-96520000D02*
X157964000Y-95082000D01*
X157964000Y-95082000D02*
X156464000Y-95082000D01*
X152003500Y-95082000D02*
X151917500Y-94996000D01*
X156464000Y-95082000D02*
X152003500Y-95082000D01*
G04 #@! TO.N,Net-(C6-Pad2)*
X159376500Y-98069500D02*
X161036000Y-98069500D01*
X157964000Y-99482000D02*
X159376500Y-98069500D01*
X156464000Y-99482000D02*
X157964000Y-99482000D01*
X162571000Y-97525000D02*
X164436000Y-97525000D01*
X161036000Y-98069500D02*
X162026500Y-98069500D01*
X162026500Y-98069500D02*
X162571000Y-97525000D01*
X156378000Y-99568000D02*
X156464000Y-99482000D01*
X151917500Y-99568000D02*
X156378000Y-99568000D01*
G04 #@! TO.N,Net-(C7-Pad1)*
X176276000Y-95529500D02*
X176301500Y-95504000D01*
X176276000Y-97282000D02*
X176276000Y-95529500D01*
X176301500Y-95504000D02*
X176301500Y-93726000D01*
X176301500Y-93726000D02*
X176301500Y-91948000D01*
D25*
G04 #@! TO.N,Net-(D1-Pad2)*
X169799000Y-73218000D02*
X169799000Y-73242000D01*
D26*
X165862000Y-69088000D02*
X168272000Y-69088000D01*
X168272000Y-69088000D02*
X169799000Y-70615000D01*
X167066000Y-73218000D02*
X166878000Y-73406000D01*
X169799000Y-73218000D02*
X167066000Y-73218000D01*
G04 #@! TO.N,Net-(J1-Pad3)*
X167755370Y-105156000D02*
X170180000Y-105156000D01*
X166624000Y-105156000D02*
X167755370Y-105156000D01*
X170180000Y-105156000D02*
X175514000Y-105156000D01*
G04 #@! TO.N,Net-(J1-Pad4)*
X174311919Y-107696000D02*
X170180000Y-107696000D01*
X175514000Y-107696000D02*
X174311919Y-107696000D01*
X167755370Y-107696000D02*
X170180000Y-107696000D01*
X166624000Y-107696000D02*
X167755370Y-107696000D01*
G04 #@! TO.N,Net-(J1-Pad5)*
X167755370Y-110236000D02*
X170180000Y-110236000D01*
X166624000Y-110236000D02*
X167755370Y-110236000D01*
X175514000Y-110236000D02*
X170180000Y-110236000D01*
G04 #@! TO.N,Net-(J1-Pad6)*
X167755370Y-112776000D02*
X170180000Y-112776000D01*
X166624000Y-112776000D02*
X167755370Y-112776000D01*
X170180000Y-112776000D02*
X175514000Y-112776000D01*
G04 #@! TO.N,CANL*
X160688000Y-74803000D02*
X158369000Y-74803000D01*
X158369000Y-74803000D02*
X158242000Y-74930000D01*
G04 #@! TO.N,CANH*
X162306000Y-80714315D02*
X162306000Y-81280000D01*
X162306000Y-74071200D02*
X162306000Y-80714315D01*
X161767800Y-73533000D02*
X162306000Y-74071200D01*
X160688000Y-73533000D02*
X161767800Y-73533000D01*
G04 #@! TO.N,Net-(R4-Pad1)*
X160807500Y-76192500D02*
X160688000Y-76073000D01*
X160807500Y-80772000D02*
X160807500Y-76192500D01*
G04 #@! TO.N,Net-(R5-Pad1)*
X160688000Y-69984500D02*
X160553500Y-69850000D01*
X160688000Y-72263000D02*
X160688000Y-69984500D01*
G04 #@! TO.N,Reset*
X173482000Y-94996000D02*
X173990000Y-95504000D01*
X173482000Y-93472000D02*
X173482000Y-94996000D01*
X170336000Y-92975000D02*
X172985000Y-92975000D01*
X172985000Y-92975000D02*
X173482000Y-93472000D01*
X173990000Y-95504000D02*
X174726500Y-95504000D01*
G04 #@! TO.N,Net-(U4-Pad1)*
X164313000Y-92202000D02*
X164436000Y-92325000D01*
X161290000Y-92202000D02*
X164313000Y-92202000D01*
X157334001Y-88754001D02*
X156831641Y-88754001D01*
X157734000Y-89154000D02*
X157334001Y-88754001D01*
X156831641Y-88754001D02*
X151130000Y-83052360D01*
X151130000Y-83052360D02*
X151130000Y-81788000D01*
X154263000Y-72263000D02*
X151130000Y-75396000D01*
X155288000Y-72263000D02*
X154263000Y-72263000D01*
X151130000Y-77724000D02*
X151130000Y-75396000D01*
D25*
G04 #@! TO.N,Net-(U4-Pad2)*
X165608000Y-91694000D02*
X164846000Y-90932000D01*
X165608000Y-92964000D02*
X165608000Y-91694000D01*
D26*
X165597000Y-92975000D02*
X165608000Y-92964000D01*
X164436000Y-92975000D02*
X165597000Y-92975000D01*
X165597000Y-91683000D02*
X164846000Y-90932000D01*
X165597000Y-92975000D02*
X165597000Y-91683000D01*
X162306000Y-90932000D02*
X161798000Y-90424000D01*
X164846000Y-90932000D02*
X162306000Y-90932000D01*
X160020000Y-88646000D02*
X159258000Y-87884000D01*
X159258000Y-87884000D02*
X157988000Y-87884000D01*
X157988000Y-87884000D02*
X155288000Y-85184000D01*
X155288000Y-85184000D02*
X155288000Y-76073000D01*
G04 #@! TD*
D28*
G04 #@! TO.N,GND*
G36*
X186742001Y-119178000D02*
X176125320Y-119178000D01*
X176395358Y-119051183D01*
X176785645Y-118622924D01*
X176955476Y-118212890D01*
X176834155Y-117983000D01*
X175641000Y-117983000D01*
X175641000Y-118003000D01*
X175387000Y-118003000D01*
X175387000Y-117983000D01*
X174193845Y-117983000D01*
X174072524Y-118212890D01*
X174242355Y-118622924D01*
X174632642Y-119051183D01*
X174902680Y-119178000D01*
X119074000Y-119178000D01*
X119074000Y-87630000D01*
X126552887Y-87630000D01*
X126664260Y-88189909D01*
X126981423Y-88664577D01*
X127333758Y-88900000D01*
X126981423Y-89135423D01*
X126664260Y-89610091D01*
X126552887Y-90170000D01*
X126664260Y-90729909D01*
X126981423Y-91204577D01*
X127333758Y-91440000D01*
X126981423Y-91675423D01*
X126664260Y-92150091D01*
X126552887Y-92710000D01*
X126664260Y-93269909D01*
X126981423Y-93744577D01*
X127333758Y-93980000D01*
X126981423Y-94215423D01*
X126664260Y-94690091D01*
X126552887Y-95250000D01*
X126664260Y-95809909D01*
X126981423Y-96284577D01*
X127333758Y-96520000D01*
X126981423Y-96755423D01*
X126664260Y-97230091D01*
X126552887Y-97790000D01*
X126664260Y-98349909D01*
X126981423Y-98824577D01*
X127333758Y-99060000D01*
X126981423Y-99295423D01*
X126664260Y-99770091D01*
X126552887Y-100330000D01*
X126664260Y-100889909D01*
X126981423Y-101364577D01*
X127333758Y-101600000D01*
X126981423Y-101835423D01*
X126664260Y-102310091D01*
X126552887Y-102870000D01*
X126664260Y-103429909D01*
X126981423Y-103904577D01*
X127333758Y-104140000D01*
X126981423Y-104375423D01*
X126664260Y-104850091D01*
X126552887Y-105410000D01*
X126664260Y-105969909D01*
X126981423Y-106444577D01*
X127333758Y-106680000D01*
X126981423Y-106915423D01*
X126664260Y-107390091D01*
X126552887Y-107950000D01*
X126664260Y-108509909D01*
X126981423Y-108984577D01*
X127333758Y-109220000D01*
X126981423Y-109455423D01*
X126664260Y-109930091D01*
X126552887Y-110490000D01*
X126664260Y-111049909D01*
X126981423Y-111524577D01*
X127333758Y-111760000D01*
X126981423Y-111995423D01*
X126664260Y-112470091D01*
X126552887Y-113030000D01*
X126664260Y-113589909D01*
X126981423Y-114064577D01*
X127226493Y-114228327D01*
X127257009Y-114381740D01*
X127274286Y-114468598D01*
X127448317Y-114729054D01*
X127514063Y-114772984D01*
X128047826Y-115306747D01*
X128091756Y-115372494D01*
X128226942Y-115462822D01*
X128352211Y-115546525D01*
X128659440Y-115607636D01*
X128736993Y-115592210D01*
X143782550Y-115592210D01*
X143860101Y-115607636D01*
X143937652Y-115592210D01*
X143937653Y-115592210D01*
X144167329Y-115546525D01*
X144427785Y-115372494D01*
X144471717Y-115306745D01*
X144922336Y-114856126D01*
X146793000Y-114856126D01*
X146793000Y-115267874D01*
X146950569Y-115648280D01*
X147241720Y-115939431D01*
X147622126Y-116097000D01*
X148033874Y-116097000D01*
X148414280Y-115939431D01*
X148504311Y-115849400D01*
X155025689Y-115849400D01*
X155115720Y-115939431D01*
X155496126Y-116097000D01*
X155907874Y-116097000D01*
X156288280Y-115939431D01*
X156579431Y-115648280D01*
X156737000Y-115267874D01*
X156737000Y-114856126D01*
X156579431Y-114475720D01*
X156288280Y-114184569D01*
X155907874Y-114027000D01*
X155496126Y-114027000D01*
X155115720Y-114184569D01*
X155025689Y-114274600D01*
X148504311Y-114274600D01*
X148414280Y-114184569D01*
X148033874Y-114027000D01*
X147622126Y-114027000D01*
X147241720Y-114184569D01*
X146950569Y-114475720D01*
X146793000Y-114856126D01*
X144922336Y-114856126D01*
X146805938Y-112972525D01*
X146871684Y-112928595D01*
X147045715Y-112668139D01*
X147091400Y-112438463D01*
X147091400Y-112438462D01*
X147106826Y-112360912D01*
X147091400Y-112283361D01*
X147091400Y-111263957D01*
X148799067Y-111263957D01*
X148916794Y-111537000D01*
X149502951Y-111537000D01*
X149502950Y-111791000D01*
X148916794Y-111791000D01*
X148799067Y-112064043D01*
X148838371Y-112220190D01*
X149178689Y-112818705D01*
X149722144Y-113241427D01*
X150386000Y-113424000D01*
X151511000Y-113424000D01*
X151511000Y-112799050D01*
X151765000Y-112799050D01*
X151765000Y-113424000D01*
X152890000Y-113424000D01*
X153553856Y-113241427D01*
X154097311Y-112818705D01*
X154437629Y-112220190D01*
X154476933Y-112064043D01*
X154359206Y-111791000D01*
X153773050Y-111791000D01*
X153773050Y-111537000D01*
X154359206Y-111537000D01*
X154476933Y-111263957D01*
X154437629Y-111107810D01*
X154097311Y-110509295D01*
X153553856Y-110086573D01*
X152890000Y-109904000D01*
X151765000Y-109904000D01*
X151765000Y-110528950D01*
X151511000Y-110528950D01*
X151511000Y-109904000D01*
X150386000Y-109904000D01*
X149722144Y-110086573D01*
X149178689Y-110509295D01*
X148838371Y-111107810D01*
X148799067Y-111263957D01*
X147091400Y-111263957D01*
X147091400Y-107696000D01*
X157540887Y-107696000D01*
X157652260Y-108255909D01*
X157969423Y-108730577D01*
X158321758Y-108966000D01*
X157969423Y-109201423D01*
X157652260Y-109676091D01*
X157540887Y-110236000D01*
X157652260Y-110795909D01*
X157969423Y-111270577D01*
X158321758Y-111506000D01*
X157969423Y-111741423D01*
X157652260Y-112216091D01*
X157540887Y-112776000D01*
X157652260Y-113335909D01*
X157969423Y-113810577D01*
X158444091Y-114127740D01*
X158862667Y-114211000D01*
X159145333Y-114211000D01*
X159563909Y-114127740D01*
X160038577Y-113810577D01*
X160355740Y-113335909D01*
X160467113Y-112776000D01*
X160355740Y-112216091D01*
X160038577Y-111741423D01*
X159686242Y-111506000D01*
X160038577Y-111270577D01*
X160355740Y-110795909D01*
X160467113Y-110236000D01*
X160355740Y-109676091D01*
X160038577Y-109201423D01*
X159686242Y-108966000D01*
X160038577Y-108730577D01*
X160355740Y-108255909D01*
X160467113Y-107696000D01*
X160355740Y-107136091D01*
X160038577Y-106661423D01*
X159917894Y-106580785D01*
X160051765Y-106554157D01*
X160261809Y-106413809D01*
X160402157Y-106203765D01*
X160451440Y-105956000D01*
X160451440Y-104356000D01*
X160402157Y-104108235D01*
X160261809Y-103898191D01*
X160051765Y-103757843D01*
X159804000Y-103708560D01*
X158204000Y-103708560D01*
X157956235Y-103757843D01*
X157746191Y-103898191D01*
X157605843Y-104108235D01*
X157556560Y-104356000D01*
X157556560Y-105956000D01*
X157605843Y-106203765D01*
X157746191Y-106413809D01*
X157956235Y-106554157D01*
X158090106Y-106580785D01*
X157969423Y-106661423D01*
X157652260Y-107136091D01*
X157540887Y-107696000D01*
X147091400Y-107696000D01*
X147091400Y-107102311D01*
X147181431Y-107012280D01*
X147339000Y-106631874D01*
X147339000Y-106575159D01*
X147502577Y-106684457D01*
X147619854Y-106762819D01*
X148074999Y-106853353D01*
X148189889Y-106830500D01*
X148900361Y-106830500D01*
X149028991Y-107023009D01*
X149652510Y-107439631D01*
X150202345Y-107549000D01*
X153073655Y-107549000D01*
X153623490Y-107439631D01*
X154247009Y-107023009D01*
X154663631Y-106399490D01*
X154809929Y-105664000D01*
X154663631Y-104928510D01*
X154247009Y-104304991D01*
X153623490Y-103888369D01*
X153073655Y-103779000D01*
X151386066Y-103779000D01*
X151462280Y-103747431D01*
X151552311Y-103657400D01*
X171118449Y-103657400D01*
X171196000Y-103672826D01*
X171273551Y-103657400D01*
X171273552Y-103657400D01*
X171503228Y-103611715D01*
X171763684Y-103437684D01*
X171807616Y-103371935D01*
X173412004Y-101767548D01*
X173573434Y-101659684D01*
X173617366Y-101593935D01*
X173729935Y-101481366D01*
X173795684Y-101437434D01*
X173969715Y-101176978D01*
X174015400Y-100947302D01*
X174015400Y-100947301D01*
X174018099Y-100933735D01*
X174065843Y-101173765D01*
X174206191Y-101383809D01*
X174416235Y-101524157D01*
X174461619Y-101533184D01*
X174443375Y-101545375D01*
X174115161Y-102036582D01*
X173999908Y-102616000D01*
X174115161Y-103195418D01*
X174443375Y-103686625D01*
X174741761Y-103886000D01*
X174443375Y-104085375D01*
X174254130Y-104368600D01*
X171677440Y-104368600D01*
X171677440Y-104306000D01*
X171628157Y-104058235D01*
X171487809Y-103848191D01*
X171277765Y-103707843D01*
X171030000Y-103658560D01*
X169330000Y-103658560D01*
X169082235Y-103707843D01*
X168872191Y-103848191D01*
X168731843Y-104058235D01*
X168682560Y-104306000D01*
X168682560Y-104368600D01*
X167823735Y-104368600D01*
X167658577Y-104121423D01*
X167183909Y-103804260D01*
X166765333Y-103721000D01*
X166482667Y-103721000D01*
X166064091Y-103804260D01*
X165589423Y-104121423D01*
X165272260Y-104596091D01*
X165160887Y-105156000D01*
X165272260Y-105715909D01*
X165589423Y-106190577D01*
X165941758Y-106426000D01*
X165589423Y-106661423D01*
X165272260Y-107136091D01*
X165160887Y-107696000D01*
X165272260Y-108255909D01*
X165589423Y-108730577D01*
X165941758Y-108966000D01*
X165589423Y-109201423D01*
X165272260Y-109676091D01*
X165160887Y-110236000D01*
X165272260Y-110795909D01*
X165589423Y-111270577D01*
X165941758Y-111506000D01*
X165589423Y-111741423D01*
X165272260Y-112216091D01*
X165160887Y-112776000D01*
X165272260Y-113335909D01*
X165589423Y-113810577D01*
X166064091Y-114127740D01*
X166482667Y-114211000D01*
X166765333Y-114211000D01*
X167183909Y-114127740D01*
X167658577Y-113810577D01*
X167823735Y-113563400D01*
X168920130Y-113563400D01*
X169109375Y-113846625D01*
X169600582Y-114174839D01*
X170033744Y-114261000D01*
X170326256Y-114261000D01*
X170759418Y-114174839D01*
X171250625Y-113846625D01*
X171439870Y-113563400D01*
X174254130Y-113563400D01*
X174443375Y-113846625D01*
X174741761Y-114046000D01*
X174443375Y-114245375D01*
X174115161Y-114736582D01*
X173999908Y-115316000D01*
X174115161Y-115895418D01*
X174443375Y-116386625D01*
X174762478Y-116599843D01*
X174632642Y-116660817D01*
X174242355Y-117089076D01*
X174072524Y-117499110D01*
X174193845Y-117729000D01*
X175387000Y-117729000D01*
X175387000Y-117709000D01*
X175641000Y-117709000D01*
X175641000Y-117729000D01*
X176834155Y-117729000D01*
X176955476Y-117499110D01*
X176785645Y-117089076D01*
X176395358Y-116660817D01*
X176265522Y-116599843D01*
X176584625Y-116386625D01*
X176912839Y-115895418D01*
X177028092Y-115316000D01*
X176912839Y-114736582D01*
X176833225Y-114617431D01*
X180391000Y-114617431D01*
X180391000Y-115506569D01*
X180731259Y-116328026D01*
X181359974Y-116956741D01*
X182181431Y-117297000D01*
X183070569Y-117297000D01*
X183892026Y-116956741D01*
X184520741Y-116328026D01*
X184861000Y-115506569D01*
X184861000Y-114617431D01*
X184520741Y-113795974D01*
X183892026Y-113167259D01*
X183070569Y-112827000D01*
X182181431Y-112827000D01*
X181359974Y-113167259D01*
X180731259Y-113795974D01*
X180391000Y-114617431D01*
X176833225Y-114617431D01*
X176584625Y-114245375D01*
X176286239Y-114046000D01*
X176584625Y-113846625D01*
X176912839Y-113355418D01*
X177028092Y-112776000D01*
X176912839Y-112196582D01*
X176584625Y-111705375D01*
X176286239Y-111506000D01*
X176584625Y-111306625D01*
X176912839Y-110815418D01*
X177028092Y-110236000D01*
X176912839Y-109656582D01*
X176584625Y-109165375D01*
X176286239Y-108966000D01*
X176584625Y-108766625D01*
X176912839Y-108275418D01*
X177028092Y-107696000D01*
X176912839Y-107116582D01*
X176584625Y-106625375D01*
X176286239Y-106426000D01*
X176584625Y-106226625D01*
X176912839Y-105735418D01*
X177028092Y-105156000D01*
X176912839Y-104576582D01*
X176584625Y-104085375D01*
X176286239Y-103886000D01*
X176584625Y-103686625D01*
X176912839Y-103195418D01*
X177028092Y-102616000D01*
X176912839Y-102036582D01*
X176584625Y-101545375D01*
X176566381Y-101533184D01*
X176611765Y-101524157D01*
X176821809Y-101383809D01*
X176962157Y-101173765D01*
X177011440Y-100926000D01*
X177011440Y-99226000D01*
X176962157Y-98978235D01*
X176821809Y-98768191D01*
X176611765Y-98627843D01*
X176364000Y-98578560D01*
X174664000Y-98578560D01*
X174416235Y-98627843D01*
X174206191Y-98768191D01*
X174065843Y-98978235D01*
X174016560Y-99226000D01*
X174016560Y-100798031D01*
X174015400Y-100792199D01*
X174015400Y-98341552D01*
X174137191Y-98392000D01*
X174415250Y-98392000D01*
X174574000Y-98233250D01*
X174574000Y-97409000D01*
X174554000Y-97409000D01*
X174554000Y-97155000D01*
X174574000Y-97155000D01*
X174574000Y-97135000D01*
X174828000Y-97135000D01*
X174828000Y-97155000D01*
X174848000Y-97155000D01*
X174848000Y-97409000D01*
X174828000Y-97409000D01*
X174828000Y-98233250D01*
X174986750Y-98392000D01*
X175264809Y-98392000D01*
X175498198Y-98295327D01*
X175563469Y-98230057D01*
X175725773Y-98338505D01*
X176057250Y-98404440D01*
X176494750Y-98404440D01*
X176826227Y-98338505D01*
X177107239Y-98150739D01*
X177295005Y-97869727D01*
X177360940Y-97538250D01*
X177360940Y-97025750D01*
X177295005Y-96694273D01*
X177107239Y-96413261D01*
X177089666Y-96401519D01*
X177132739Y-96372739D01*
X177320505Y-96091727D01*
X177386440Y-95760250D01*
X177386440Y-95247750D01*
X177320505Y-94916273D01*
X177132739Y-94635261D01*
X177102416Y-94615000D01*
X177132739Y-94594739D01*
X177320505Y-94313727D01*
X177386440Y-93982250D01*
X177386440Y-93469750D01*
X177345937Y-93266126D01*
X180829000Y-93266126D01*
X180829000Y-93677874D01*
X180986569Y-94058280D01*
X181076600Y-94148311D01*
X181076601Y-102955688D01*
X180986569Y-103045720D01*
X180829000Y-103426126D01*
X180829000Y-103837874D01*
X180986569Y-104218280D01*
X181277720Y-104509431D01*
X181658126Y-104667000D01*
X182069874Y-104667000D01*
X182450280Y-104509431D01*
X182741431Y-104218280D01*
X182899000Y-103837874D01*
X182899000Y-103426126D01*
X182741431Y-103045720D01*
X182651400Y-102955689D01*
X182651400Y-94148311D01*
X182741431Y-94058280D01*
X182899000Y-93677874D01*
X182899000Y-93266126D01*
X182741431Y-92885720D01*
X182450280Y-92594569D01*
X182069874Y-92437000D01*
X181658126Y-92437000D01*
X181277720Y-92594569D01*
X180986569Y-92885720D01*
X180829000Y-93266126D01*
X177345937Y-93266126D01*
X177320505Y-93138273D01*
X177132739Y-92857261D01*
X177102416Y-92837000D01*
X177132739Y-92816739D01*
X177320505Y-92535727D01*
X177386440Y-92204250D01*
X177386440Y-91691750D01*
X177320505Y-91360273D01*
X177132739Y-91079261D01*
X176851727Y-90891495D01*
X176520250Y-90825560D01*
X176082750Y-90825560D01*
X175751273Y-90891495D01*
X175514000Y-91050036D01*
X175276727Y-90891495D01*
X174945250Y-90825560D01*
X174507750Y-90825560D01*
X174176273Y-90891495D01*
X173895261Y-91079261D01*
X173840912Y-91160600D01*
X171124385Y-91160600D01*
X171138826Y-91087999D01*
X171107796Y-90932000D01*
X171077715Y-90780772D01*
X170903684Y-90520316D01*
X170837938Y-90476386D01*
X169437000Y-89075449D01*
X169437000Y-88948126D01*
X169279431Y-88567720D01*
X168988280Y-88276569D01*
X168607874Y-88119000D01*
X168196126Y-88119000D01*
X167815720Y-88276569D01*
X167524569Y-88567720D01*
X167367000Y-88948126D01*
X167367000Y-89291448D01*
X166389000Y-88313449D01*
X166389000Y-88186126D01*
X166231431Y-87805720D01*
X165940280Y-87514569D01*
X165559874Y-87357000D01*
X165148126Y-87357000D01*
X164767720Y-87514569D01*
X164476569Y-87805720D01*
X164338661Y-88138661D01*
X164005720Y-88276569D01*
X163714569Y-88567720D01*
X163557000Y-88948126D01*
X163557000Y-89268014D01*
X163497720Y-89292569D01*
X163206569Y-89583720D01*
X163049000Y-89964126D01*
X163049000Y-90144600D01*
X162802545Y-90144600D01*
X162675431Y-89837720D01*
X162384280Y-89546569D01*
X162003874Y-89389000D01*
X161592126Y-89389000D01*
X161211720Y-89546569D01*
X160920569Y-89837720D01*
X160763000Y-90218126D01*
X160763000Y-90629874D01*
X160920569Y-91010280D01*
X161079292Y-91169003D01*
X160703720Y-91324569D01*
X160412569Y-91615720D01*
X160341669Y-91786888D01*
X160254846Y-91700065D01*
X160210914Y-91634316D01*
X159950458Y-91460285D01*
X159720782Y-91414600D01*
X159720781Y-91414600D01*
X159643230Y-91399174D01*
X159565679Y-91414600D01*
X158664311Y-91414600D01*
X158574280Y-91324569D01*
X158193874Y-91167000D01*
X157782126Y-91167000D01*
X157401720Y-91324569D01*
X157110569Y-91615720D01*
X156972661Y-91948661D01*
X156639720Y-92086569D01*
X156348569Y-92377720D01*
X156191000Y-92758126D01*
X156191000Y-92938600D01*
X154346311Y-92938600D01*
X154256280Y-92848569D01*
X153875874Y-92691000D01*
X153464126Y-92691000D01*
X153083720Y-92848569D01*
X152792569Y-93139720D01*
X152635000Y-93520126D01*
X152635000Y-93931874D01*
X152703377Y-94096951D01*
X152467727Y-93939495D01*
X152136250Y-93873560D01*
X151698750Y-93873560D01*
X151367273Y-93939495D01*
X151204969Y-94047943D01*
X151139698Y-93982673D01*
X150906309Y-93886000D01*
X150628250Y-93886000D01*
X150469500Y-94044750D01*
X150469500Y-94869000D01*
X150489500Y-94869000D01*
X150489500Y-95123000D01*
X150469500Y-95123000D01*
X150469500Y-95947250D01*
X150628250Y-96106000D01*
X150906309Y-96106000D01*
X151139698Y-96009327D01*
X151204969Y-95944057D01*
X151367273Y-96052505D01*
X151698750Y-96118440D01*
X152136250Y-96118440D01*
X152467727Y-96052505D01*
X152741763Y-95869400D01*
X154566560Y-95869400D01*
X154566560Y-96032000D01*
X154615843Y-96279765D01*
X154756191Y-96489809D01*
X154966235Y-96630157D01*
X155214000Y-96679440D01*
X157714000Y-96679440D01*
X157961765Y-96630157D01*
X158171809Y-96489809D01*
X158206436Y-96437987D01*
X158900061Y-97131613D01*
X159094771Y-97261714D01*
X159248102Y-97292214D01*
X159069272Y-97327785D01*
X158808816Y-97501816D01*
X158764886Y-97567562D01*
X158206436Y-98126013D01*
X158171809Y-98074191D01*
X157961765Y-97933843D01*
X157714000Y-97884560D01*
X155214000Y-97884560D01*
X154966235Y-97933843D01*
X154756191Y-98074191D01*
X154615843Y-98284235D01*
X154566560Y-98532000D01*
X154566560Y-98780600D01*
X152803088Y-98780600D01*
X152748739Y-98699261D01*
X152467727Y-98511495D01*
X152136250Y-98445560D01*
X151698750Y-98445560D01*
X151367273Y-98511495D01*
X151204969Y-98619943D01*
X151139698Y-98554673D01*
X150906309Y-98458000D01*
X150628250Y-98458000D01*
X150469500Y-98616750D01*
X150469500Y-99441000D01*
X150489500Y-99441000D01*
X150489500Y-99695000D01*
X150469500Y-99695000D01*
X150469500Y-100519250D01*
X150628250Y-100678000D01*
X150906309Y-100678000D01*
X151139698Y-100581327D01*
X151204969Y-100516057D01*
X151367273Y-100624505D01*
X151698750Y-100690440D01*
X152136250Y-100690440D01*
X152467727Y-100624505D01*
X152748739Y-100436739D01*
X152803088Y-100355400D01*
X154566560Y-100355400D01*
X154566560Y-100432000D01*
X154615843Y-100679765D01*
X154756191Y-100889809D01*
X154966235Y-101030157D01*
X155214000Y-101079440D01*
X157714000Y-101079440D01*
X157961765Y-101030157D01*
X158171809Y-100889809D01*
X158312157Y-100679765D01*
X158361440Y-100432000D01*
X158361440Y-100163437D01*
X158531684Y-100049684D01*
X158575616Y-99983935D01*
X159702652Y-98856900D01*
X160137969Y-98856900D01*
X160167261Y-98900739D01*
X160448273Y-99088505D01*
X160779750Y-99154440D01*
X161292250Y-99154440D01*
X161623727Y-99088505D01*
X161904739Y-98900739D01*
X161934031Y-98856900D01*
X161948949Y-98856900D01*
X162026500Y-98872326D01*
X162104051Y-98856900D01*
X162104052Y-98856900D01*
X162333728Y-98811215D01*
X162594184Y-98637184D01*
X162638116Y-98571435D01*
X162897152Y-98312400D01*
X163209850Y-98312400D01*
X163076000Y-98446250D01*
X163076000Y-98526310D01*
X163172673Y-98759699D01*
X163351302Y-98938327D01*
X163584691Y-99035000D01*
X164150250Y-99035000D01*
X164309000Y-98876250D01*
X164309000Y-98397440D01*
X164563000Y-98397440D01*
X164563000Y-98876250D01*
X164721750Y-99035000D01*
X165287309Y-99035000D01*
X165520698Y-98938327D01*
X165699327Y-98759699D01*
X165796000Y-98526310D01*
X165796000Y-98446250D01*
X165637250Y-98287500D01*
X165499544Y-98287500D01*
X165618809Y-98207809D01*
X165759157Y-97997765D01*
X165773353Y-97926397D01*
X165796000Y-97903750D01*
X165796000Y-97823690D01*
X165794502Y-97820073D01*
X165808440Y-97750000D01*
X165808440Y-97579991D01*
X166905386Y-98676938D01*
X166949316Y-98742684D01*
X167209772Y-98916715D01*
X167439448Y-98962400D01*
X167516999Y-98977826D01*
X167594550Y-98962400D01*
X169309721Y-98962400D01*
X169363235Y-98998157D01*
X169611000Y-99047440D01*
X171061000Y-99047440D01*
X171308765Y-98998157D01*
X171518809Y-98857809D01*
X171659157Y-98647765D01*
X171678601Y-98550015D01*
X171678601Y-100511847D01*
X170879448Y-101311001D01*
X166643000Y-101311001D01*
X166643000Y-101140126D01*
X166485431Y-100759720D01*
X166194280Y-100468569D01*
X165813874Y-100311000D01*
X165627000Y-100311000D01*
X165627000Y-100124126D01*
X165469431Y-99743720D01*
X165178280Y-99452569D01*
X164797874Y-99295000D01*
X164386126Y-99295000D01*
X164005720Y-99452569D01*
X163915689Y-99542600D01*
X160097550Y-99542600D01*
X160019999Y-99527174D01*
X159942448Y-99542600D01*
X159910273Y-99549000D01*
X159560126Y-99549000D01*
X159179720Y-99706569D01*
X158888569Y-99997720D01*
X158731000Y-100378126D01*
X158731000Y-100789874D01*
X158888569Y-101170280D01*
X159029290Y-101311001D01*
X149947150Y-101311001D01*
X149869599Y-101295575D01*
X149792048Y-101311001D01*
X149792047Y-101311001D01*
X149562371Y-101356686D01*
X149301915Y-101530717D01*
X149257983Y-101596466D01*
X149019449Y-101835000D01*
X148892126Y-101835000D01*
X148511720Y-101992569D01*
X148486500Y-102017789D01*
X148486500Y-99853750D01*
X149270000Y-99853750D01*
X149270000Y-100169310D01*
X149366673Y-100402699D01*
X149545302Y-100581327D01*
X149778691Y-100678000D01*
X150056750Y-100678000D01*
X150215500Y-100519250D01*
X150215500Y-99695000D01*
X149428750Y-99695000D01*
X149270000Y-99853750D01*
X148486500Y-99853750D01*
X148486500Y-98966690D01*
X149270000Y-98966690D01*
X149270000Y-99282250D01*
X149428750Y-99441000D01*
X150215500Y-99441000D01*
X150215500Y-98616750D01*
X150056750Y-98458000D01*
X149778691Y-98458000D01*
X149545302Y-98554673D01*
X149366673Y-98733301D01*
X149270000Y-98966690D01*
X148486500Y-98966690D01*
X148486500Y-95281750D01*
X149270000Y-95281750D01*
X149270000Y-95597310D01*
X149366673Y-95830699D01*
X149545302Y-96009327D01*
X149778691Y-96106000D01*
X150056750Y-96106000D01*
X150215500Y-95947250D01*
X150215500Y-95123000D01*
X149428750Y-95123000D01*
X149270000Y-95281750D01*
X148486500Y-95281750D01*
X148486500Y-94394690D01*
X149270000Y-94394690D01*
X149270000Y-94710250D01*
X149428750Y-94869000D01*
X150215500Y-94869000D01*
X150215500Y-94044750D01*
X150056750Y-93886000D01*
X149778691Y-93886000D01*
X149545302Y-93982673D01*
X149366673Y-94161301D01*
X149270000Y-94394690D01*
X148486500Y-94394690D01*
X148486500Y-79108888D01*
X148509353Y-78993999D01*
X148484091Y-78867000D01*
X148418819Y-78538854D01*
X148161000Y-78153000D01*
X148063598Y-78087918D01*
X147493806Y-77518126D01*
X150095000Y-77518126D01*
X150095000Y-77929874D01*
X150252569Y-78310280D01*
X150543720Y-78601431D01*
X150924126Y-78759000D01*
X151335874Y-78759000D01*
X151716280Y-78601431D01*
X152007431Y-78310280D01*
X152165000Y-77929874D01*
X152165000Y-77518126D01*
X152007431Y-77137720D01*
X151917400Y-77047689D01*
X151917400Y-75722151D01*
X153979550Y-73660002D01*
X154036748Y-73660002D01*
X153878000Y-73818750D01*
X153878000Y-73959310D01*
X153967768Y-74176028D01*
X153914843Y-74255235D01*
X153865560Y-74503000D01*
X153865560Y-75103000D01*
X153914843Y-75350765D01*
X153973132Y-75438000D01*
X153914843Y-75525235D01*
X153865560Y-75773000D01*
X153865560Y-76373000D01*
X153914843Y-76620765D01*
X154055191Y-76830809D01*
X154265235Y-76971157D01*
X154500601Y-77017974D01*
X154500600Y-85106449D01*
X154485174Y-85184000D01*
X154500600Y-85261551D01*
X154512483Y-85321292D01*
X151917400Y-82726209D01*
X151917400Y-82464311D01*
X152007431Y-82374280D01*
X152165000Y-81993874D01*
X152165000Y-81582126D01*
X152007431Y-81201720D01*
X151716280Y-80910569D01*
X151335874Y-80753000D01*
X150924126Y-80753000D01*
X150543720Y-80910569D01*
X150252569Y-81201720D01*
X150095000Y-81582126D01*
X150095000Y-81993874D01*
X150252569Y-82374280D01*
X150342600Y-82464311D01*
X150342600Y-82974808D01*
X150327174Y-83052360D01*
X150342600Y-83129911D01*
X150388285Y-83359587D01*
X150562316Y-83620044D01*
X150628065Y-83663976D01*
X156220027Y-89255939D01*
X156263957Y-89321685D01*
X156524413Y-89495716D01*
X156754089Y-89541401D01*
X156775996Y-89545759D01*
X156856569Y-89740280D01*
X157147720Y-90031431D01*
X157528126Y-90189000D01*
X157939874Y-90189000D01*
X158320280Y-90031431D01*
X158611431Y-89740280D01*
X158769000Y-89359874D01*
X158769000Y-88948126D01*
X158654377Y-88671400D01*
X158931849Y-88671400D01*
X158985000Y-88724551D01*
X158985000Y-88851874D01*
X159142569Y-89232280D01*
X159433720Y-89523431D01*
X159814126Y-89681000D01*
X160225874Y-89681000D01*
X160606280Y-89523431D01*
X160897431Y-89232280D01*
X161055000Y-88851874D01*
X161055000Y-88440126D01*
X160897431Y-88059720D01*
X160606280Y-87768569D01*
X160225874Y-87611000D01*
X160098551Y-87611000D01*
X159869616Y-87382065D01*
X159825684Y-87316316D01*
X159565228Y-87142285D01*
X159335552Y-87096600D01*
X159335551Y-87096600D01*
X159258000Y-87081174D01*
X159180449Y-87096600D01*
X158314152Y-87096600D01*
X156075400Y-84857849D01*
X156075400Y-78799111D01*
X156131720Y-78855431D01*
X156512126Y-79013000D01*
X156639449Y-79013000D01*
X158147560Y-80521112D01*
X158147560Y-81028250D01*
X158213495Y-81359727D01*
X158401261Y-81640739D01*
X158682273Y-81828505D01*
X159013750Y-81894440D01*
X159241389Y-81894440D01*
X163700886Y-86353938D01*
X163744816Y-86419684D01*
X164005272Y-86593715D01*
X164234948Y-86639400D01*
X164234949Y-86639400D01*
X164312500Y-86654826D01*
X164390051Y-86639400D01*
X164423689Y-86639400D01*
X164513720Y-86729431D01*
X164894126Y-86887000D01*
X165305874Y-86887000D01*
X165686280Y-86729431D01*
X165977431Y-86438280D01*
X166135000Y-86057874D01*
X166135000Y-85646126D01*
X165977431Y-85265720D01*
X165686280Y-84974569D01*
X165305874Y-84817000D01*
X164894126Y-84817000D01*
X164538399Y-84964347D01*
X161739800Y-82165748D01*
X162100126Y-82315000D01*
X162511874Y-82315000D01*
X162892280Y-82157431D01*
X163183431Y-81866280D01*
X163341000Y-81485874D01*
X163341000Y-81074126D01*
X163183431Y-80693720D01*
X163093400Y-80603689D01*
X163093400Y-74148751D01*
X163108826Y-74071200D01*
X163088945Y-73971250D01*
X163228000Y-73971250D01*
X163228000Y-74249309D01*
X163324673Y-74482698D01*
X163503301Y-74661327D01*
X163736690Y-74758000D01*
X164052250Y-74758000D01*
X164211000Y-74599250D01*
X164211000Y-73812500D01*
X164465000Y-73812500D01*
X164465000Y-74599250D01*
X164623750Y-74758000D01*
X164939310Y-74758000D01*
X165172699Y-74661327D01*
X165351327Y-74482698D01*
X165448000Y-74249309D01*
X165448000Y-73971250D01*
X165289250Y-73812500D01*
X164465000Y-73812500D01*
X164211000Y-73812500D01*
X163386750Y-73812500D01*
X163228000Y-73971250D01*
X163088945Y-73971250D01*
X163086290Y-73957904D01*
X163047715Y-73763972D01*
X162873684Y-73503516D01*
X162807938Y-73459586D01*
X162379416Y-73031065D01*
X162335484Y-72965316D01*
X162075028Y-72791285D01*
X162065412Y-72789372D01*
X162110440Y-72563000D01*
X162110440Y-72270540D01*
X162314343Y-72355000D01*
X162805657Y-72355000D01*
X162971030Y-72286500D01*
X163183656Y-72286500D01*
X163239181Y-72565646D01*
X163272502Y-72615514D01*
X163281495Y-72660727D01*
X163389943Y-72823031D01*
X163324673Y-72888302D01*
X163228000Y-73121691D01*
X163228000Y-73399750D01*
X163386750Y-73558500D01*
X164211000Y-73558500D01*
X164211000Y-73538500D01*
X164465000Y-73538500D01*
X164465000Y-73558500D01*
X165289250Y-73558500D01*
X165448000Y-73399750D01*
X165448000Y-73277000D01*
X165843000Y-73277000D01*
X165843000Y-73611874D01*
X166000569Y-73992280D01*
X166291720Y-74283431D01*
X166672126Y-74441000D01*
X167083874Y-74441000D01*
X167464280Y-74283431D01*
X167742311Y-74005400D01*
X168677550Y-74005400D01*
X168713150Y-74041000D01*
X168897999Y-74041000D01*
X168941635Y-74070157D01*
X169189400Y-74119440D01*
X169946000Y-74119440D01*
X169946000Y-74216560D01*
X169189400Y-74216560D01*
X168941635Y-74265843D01*
X168897999Y-74295000D01*
X168713150Y-74295000D01*
X168554400Y-74453750D01*
X168554400Y-74548310D01*
X168588418Y-74630437D01*
X168541960Y-74864000D01*
X168541960Y-74905889D01*
X168357063Y-75090786D01*
X168291317Y-75134716D01*
X168247387Y-75200462D01*
X168117286Y-75395172D01*
X168056174Y-75702400D01*
X168071601Y-75779956D01*
X168071601Y-76403100D01*
X168030031Y-76403100D01*
X168000739Y-76359261D01*
X167719727Y-76171495D01*
X167388250Y-76105560D01*
X166875750Y-76105560D01*
X166544273Y-76171495D01*
X166263261Y-76359261D01*
X166233969Y-76403100D01*
X165490031Y-76403100D01*
X165460739Y-76359261D01*
X165179727Y-76171495D01*
X164848250Y-76105560D01*
X164335750Y-76105560D01*
X164004273Y-76171495D01*
X163723261Y-76359261D01*
X163535495Y-76640273D01*
X163469560Y-76971750D01*
X163469560Y-77409250D01*
X163535495Y-77740727D01*
X163694036Y-77978000D01*
X163535495Y-78215273D01*
X163469560Y-78546750D01*
X163469560Y-78984250D01*
X163535495Y-79315727D01*
X163723261Y-79596739D01*
X164004273Y-79784505D01*
X164335750Y-79850440D01*
X164848250Y-79850440D01*
X165179727Y-79784505D01*
X165460739Y-79596739D01*
X165490031Y-79552900D01*
X166233969Y-79552900D01*
X166263261Y-79596739D01*
X166544273Y-79784505D01*
X166875750Y-79850440D01*
X167388250Y-79850440D01*
X167719727Y-79784505D01*
X168000739Y-79596739D01*
X168020081Y-79567792D01*
X168069720Y-79617431D01*
X168450126Y-79775000D01*
X168861874Y-79775000D01*
X169242280Y-79617431D01*
X169446568Y-79413143D01*
X169577261Y-79608739D01*
X169858273Y-79796505D01*
X170189750Y-79862440D01*
X170627250Y-79862440D01*
X170958727Y-79796505D01*
X171121031Y-79688057D01*
X171186302Y-79753327D01*
X171419691Y-79850000D01*
X171697750Y-79850000D01*
X171856500Y-79691250D01*
X171856500Y-78867000D01*
X172110500Y-78867000D01*
X172110500Y-79691250D01*
X172269250Y-79850000D01*
X172547309Y-79850000D01*
X172780698Y-79753327D01*
X172959327Y-79574699D01*
X173056000Y-79341310D01*
X173056000Y-79330750D01*
X173896000Y-79330750D01*
X173896000Y-79608809D01*
X173992673Y-79842198D01*
X174171301Y-80020827D01*
X174404690Y-80117500D01*
X174720250Y-80117500D01*
X174879000Y-79958750D01*
X174879000Y-79172000D01*
X175133000Y-79172000D01*
X175133000Y-79958750D01*
X175291750Y-80117500D01*
X175607310Y-80117500D01*
X175840699Y-80020827D01*
X176019327Y-79842198D01*
X176116000Y-79608809D01*
X176116000Y-79330750D01*
X175957250Y-79172000D01*
X175133000Y-79172000D01*
X174879000Y-79172000D01*
X174054750Y-79172000D01*
X173896000Y-79330750D01*
X173056000Y-79330750D01*
X173056000Y-79025750D01*
X172897250Y-78867000D01*
X172110500Y-78867000D01*
X171856500Y-78867000D01*
X171836500Y-78867000D01*
X171836500Y-78613000D01*
X171856500Y-78613000D01*
X171856500Y-77788750D01*
X171697750Y-77630000D01*
X171419691Y-77630000D01*
X171186302Y-77726673D01*
X171121031Y-77791943D01*
X170958727Y-77683495D01*
X170627250Y-77617560D01*
X170399612Y-77617560D01*
X169646400Y-76864349D01*
X169646400Y-76028551D01*
X169655511Y-76019440D01*
X170408600Y-76019440D01*
X170414650Y-76018237D01*
X170440065Y-76035218D01*
X172152048Y-77747202D01*
X172110500Y-77788750D01*
X172110500Y-78613000D01*
X172897250Y-78613000D01*
X173056000Y-78454250D01*
X173056000Y-78259379D01*
X173065949Y-78257400D01*
X173988697Y-78257400D01*
X173896000Y-78481191D01*
X173896000Y-78759250D01*
X174054750Y-78918000D01*
X174879000Y-78918000D01*
X174879000Y-78898000D01*
X175133000Y-78898000D01*
X175133000Y-78918000D01*
X175957250Y-78918000D01*
X176116000Y-78759250D01*
X176116000Y-78481191D01*
X176019327Y-78247802D01*
X175954057Y-78182531D01*
X176062505Y-78020227D01*
X176128440Y-77688750D01*
X176128440Y-77251250D01*
X176062505Y-76919773D01*
X175874739Y-76638761D01*
X175593727Y-76450995D01*
X175262250Y-76385060D01*
X174749750Y-76385060D01*
X174418273Y-76450995D01*
X174137261Y-76638761D01*
X174107969Y-76682600D01*
X173314550Y-76682600D01*
X172951951Y-76320001D01*
X173164911Y-76320001D01*
X173279801Y-76342854D01*
X173394691Y-76320001D01*
X173734947Y-76252320D01*
X174120801Y-75994501D01*
X174185885Y-75897096D01*
X174454095Y-75628886D01*
X174551500Y-75563802D01*
X174809319Y-75177948D01*
X174877000Y-74837692D01*
X174877000Y-74837691D01*
X174899853Y-74722803D01*
X174877000Y-74607914D01*
X174877000Y-73971250D01*
X175928000Y-73971250D01*
X175928000Y-74249309D01*
X176024673Y-74482698D01*
X176203301Y-74661327D01*
X176436690Y-74758000D01*
X176752250Y-74758000D01*
X176911000Y-74599250D01*
X176911000Y-73812500D01*
X177165000Y-73812500D01*
X177165000Y-74599250D01*
X177323750Y-74758000D01*
X177639310Y-74758000D01*
X177872699Y-74661327D01*
X178051327Y-74482698D01*
X178148000Y-74249309D01*
X178148000Y-73971250D01*
X177989250Y-73812500D01*
X177165000Y-73812500D01*
X176911000Y-73812500D01*
X176086750Y-73812500D01*
X175928000Y-73971250D01*
X174877000Y-73971250D01*
X174877000Y-72225389D01*
X174899853Y-72110500D01*
X174856342Y-71891750D01*
X175915560Y-71891750D01*
X175915560Y-72329250D01*
X175981495Y-72660727D01*
X176089943Y-72823031D01*
X176024673Y-72888302D01*
X175928000Y-73121691D01*
X175928000Y-73399750D01*
X176086750Y-73558500D01*
X176911000Y-73558500D01*
X176911000Y-73538500D01*
X177165000Y-73538500D01*
X177165000Y-73558500D01*
X177989250Y-73558500D01*
X178148000Y-73399750D01*
X178148000Y-73121691D01*
X178051327Y-72888302D01*
X177986057Y-72823031D01*
X178094505Y-72660727D01*
X178160440Y-72329250D01*
X178160440Y-71891750D01*
X178094505Y-71560273D01*
X177956346Y-71353503D01*
X178073000Y-71071874D01*
X178073000Y-70660126D01*
X177915431Y-70279720D01*
X177624280Y-69988569D01*
X177243874Y-69831000D01*
X176832126Y-69831000D01*
X176451720Y-69988569D01*
X176160569Y-70279720D01*
X176003000Y-70660126D01*
X176003000Y-71071874D01*
X176119654Y-71353503D01*
X175981495Y-71560273D01*
X175915560Y-71891750D01*
X174856342Y-71891750D01*
X174809319Y-71655354D01*
X174551500Y-71269500D01*
X174165646Y-71011681D01*
X173825390Y-70944000D01*
X173710500Y-70921147D01*
X173595610Y-70944000D01*
X171092390Y-70944000D01*
X170977500Y-70921147D01*
X170862610Y-70944000D01*
X170783000Y-70944000D01*
X170834000Y-70820874D01*
X170834000Y-70409126D01*
X170782768Y-70285440D01*
X171622000Y-70285440D01*
X171869765Y-70236157D01*
X172079809Y-70095809D01*
X172220157Y-69885765D01*
X172222219Y-69875400D01*
X174075689Y-69875400D01*
X174165720Y-69965431D01*
X174546126Y-70123000D01*
X174957874Y-70123000D01*
X175338280Y-69965431D01*
X175629431Y-69674280D01*
X175787000Y-69293874D01*
X175787000Y-68882126D01*
X175629431Y-68501720D01*
X175338280Y-68210569D01*
X174957874Y-68053000D01*
X174546126Y-68053000D01*
X174165720Y-68210569D01*
X174075689Y-68300600D01*
X172222219Y-68300600D01*
X172220157Y-68290235D01*
X172079809Y-68080191D01*
X171869765Y-67939843D01*
X171622000Y-67890560D01*
X170522000Y-67890560D01*
X170274235Y-67939843D01*
X170064191Y-68080191D01*
X169923843Y-68290235D01*
X169874560Y-68538000D01*
X169874560Y-69577008D01*
X169469440Y-69171889D01*
X169469440Y-68538000D01*
X169420157Y-68290235D01*
X169279809Y-68080191D01*
X169069765Y-67939843D01*
X168822000Y-67890560D01*
X167722000Y-67890560D01*
X167474235Y-67939843D01*
X167264191Y-68080191D01*
X167123843Y-68290235D01*
X167121781Y-68300600D01*
X166747588Y-68300600D01*
X166693239Y-68219261D01*
X166412227Y-68031495D01*
X166080750Y-67965560D01*
X165643250Y-67965560D01*
X165311773Y-68031495D01*
X165074500Y-68190036D01*
X164837227Y-68031495D01*
X164792012Y-68022501D01*
X164742145Y-67989181D01*
X164287000Y-67898647D01*
X163831855Y-67989181D01*
X163781988Y-68022501D01*
X163736773Y-68031495D01*
X163455761Y-68219261D01*
X163267995Y-68500273D01*
X163264276Y-68518972D01*
X163188181Y-68632855D01*
X163097647Y-69088000D01*
X163171500Y-69459284D01*
X163171500Y-69953500D01*
X162971030Y-69953500D01*
X162805657Y-69885000D01*
X162314343Y-69885000D01*
X161860429Y-70073018D01*
X161591571Y-70341876D01*
X161638440Y-70106250D01*
X161638440Y-69593750D01*
X161572505Y-69262273D01*
X161384739Y-68981261D01*
X161103727Y-68793495D01*
X160772250Y-68727560D01*
X160334750Y-68727560D01*
X160003273Y-68793495D01*
X159840969Y-68901943D01*
X159775698Y-68836673D01*
X159542309Y-68740000D01*
X159264250Y-68740000D01*
X159105500Y-68898750D01*
X159105500Y-69723000D01*
X159125500Y-69723000D01*
X159125500Y-69977000D01*
X159105500Y-69977000D01*
X159105500Y-70801250D01*
X159264250Y-70960000D01*
X159542309Y-70960000D01*
X159775698Y-70863327D01*
X159840969Y-70798057D01*
X159900601Y-70837902D01*
X159900600Y-71318026D01*
X159665235Y-71364843D01*
X159455191Y-71505191D01*
X159314843Y-71715235D01*
X159265560Y-71963000D01*
X159265560Y-72563000D01*
X159314843Y-72810765D01*
X159373132Y-72898000D01*
X159314843Y-72985235D01*
X159265560Y-73233000D01*
X159265560Y-73833000D01*
X159301881Y-74015600D01*
X158739029Y-74015600D01*
X158447874Y-73895000D01*
X158036126Y-73895000D01*
X157655720Y-74052569D01*
X157364569Y-74343720D01*
X157269025Y-74574385D01*
X157219935Y-74541584D01*
X156979416Y-74301065D01*
X156935484Y-74235316D01*
X156675028Y-74061285D01*
X156657227Y-74057744D01*
X156698000Y-73959310D01*
X156698000Y-73818750D01*
X156539250Y-73660000D01*
X155415000Y-73660000D01*
X155415000Y-73680000D01*
X155161000Y-73680000D01*
X155161000Y-73660000D01*
X155141000Y-73660000D01*
X155141000Y-73406000D01*
X155161000Y-73406000D01*
X155161000Y-73386000D01*
X155415000Y-73386000D01*
X155415000Y-73406000D01*
X156539250Y-73406000D01*
X156698000Y-73247250D01*
X156698000Y-73106690D01*
X156608232Y-72889972D01*
X156661157Y-72810765D01*
X156710440Y-72563000D01*
X156710440Y-71963000D01*
X156661157Y-71715235D01*
X156520809Y-71505191D01*
X156310765Y-71364843D01*
X156063000Y-71315560D01*
X154513000Y-71315560D01*
X154265235Y-71364843D01*
X154063036Y-71499949D01*
X153955772Y-71521285D01*
X153695316Y-71695316D01*
X153651386Y-71761062D01*
X150628063Y-74784386D01*
X150562317Y-74828316D01*
X150518387Y-74894062D01*
X150388286Y-75088772D01*
X150327174Y-75396000D01*
X150342601Y-75473556D01*
X150342600Y-77047689D01*
X150252569Y-77137720D01*
X150095000Y-77518126D01*
X147493806Y-77518126D01*
X146911483Y-76935803D01*
X146842982Y-76770429D01*
X146495571Y-76423018D01*
X146041657Y-76235000D01*
X145550343Y-76235000D01*
X145384970Y-76303500D01*
X144093140Y-76303500D01*
X143815909Y-76118260D01*
X143397333Y-76035000D01*
X143114667Y-76035000D01*
X142696091Y-76118260D01*
X142221423Y-76435423D01*
X141904260Y-76910091D01*
X141792887Y-77470000D01*
X141904260Y-78029909D01*
X142221423Y-78504577D01*
X142605108Y-78760947D01*
X142400866Y-78857611D01*
X142024959Y-79272577D01*
X141864096Y-79660961D01*
X141986085Y-79883000D01*
X143129000Y-79883000D01*
X143129000Y-79863000D01*
X143383000Y-79863000D01*
X143383000Y-79883000D01*
X144525915Y-79883000D01*
X144647904Y-79660961D01*
X144487041Y-79272577D01*
X144111134Y-78857611D01*
X143906892Y-78760947D01*
X144093140Y-78636500D01*
X145312821Y-78636500D01*
X146153501Y-79477181D01*
X146153500Y-104141294D01*
X146014650Y-104141294D01*
X145634244Y-104298863D01*
X145421401Y-104511706D01*
X145421401Y-103575809D01*
X145620280Y-103493431D01*
X145911431Y-103202280D01*
X146069000Y-102821874D01*
X146069000Y-102410126D01*
X145911431Y-102029720D01*
X145620280Y-101738569D01*
X145239874Y-101581000D01*
X144828126Y-101581000D01*
X144447720Y-101738569D01*
X144314725Y-101871564D01*
X144290577Y-101835423D01*
X143938242Y-101600000D01*
X144290577Y-101364577D01*
X144607740Y-100889909D01*
X144719113Y-100330000D01*
X144607740Y-99770091D01*
X144290577Y-99295423D01*
X143938242Y-99060000D01*
X144290577Y-98824577D01*
X144607740Y-98349909D01*
X144719113Y-97790000D01*
X144607740Y-97230091D01*
X144290577Y-96755423D01*
X143938242Y-96520000D01*
X144290577Y-96284577D01*
X144607740Y-95809909D01*
X144719113Y-95250000D01*
X144607740Y-94690091D01*
X144290577Y-94215423D01*
X143938242Y-93980000D01*
X144290577Y-93744577D01*
X144607740Y-93269909D01*
X144719113Y-92710000D01*
X144607740Y-92150091D01*
X144290577Y-91675423D01*
X143938242Y-91440000D01*
X144290577Y-91204577D01*
X144607740Y-90729909D01*
X144719113Y-90170000D01*
X144607740Y-89610091D01*
X144290577Y-89135423D01*
X143938242Y-88900000D01*
X144290577Y-88664577D01*
X144607740Y-88189909D01*
X144719113Y-87630000D01*
X144607740Y-87070091D01*
X144290577Y-86595423D01*
X143938242Y-86360000D01*
X144290577Y-86124577D01*
X144607740Y-85649909D01*
X144719113Y-85090000D01*
X144607740Y-84530091D01*
X144290577Y-84055423D01*
X143938242Y-83820000D01*
X144290577Y-83584577D01*
X144607740Y-83109909D01*
X144719113Y-82550000D01*
X144607740Y-81990091D01*
X144290577Y-81515423D01*
X143906892Y-81259053D01*
X144111134Y-81162389D01*
X144487041Y-80747423D01*
X144647904Y-80359039D01*
X144525915Y-80137000D01*
X143383000Y-80137000D01*
X143383000Y-80157000D01*
X143129000Y-80157000D01*
X143129000Y-80137000D01*
X141986085Y-80137000D01*
X141864096Y-80359039D01*
X142024959Y-80747423D01*
X142400866Y-81162389D01*
X142605108Y-81259053D01*
X142221423Y-81515423D01*
X141904260Y-81990091D01*
X141792887Y-82550000D01*
X141904260Y-83109909D01*
X142221423Y-83584577D01*
X142573758Y-83820000D01*
X142221423Y-84055423D01*
X141904260Y-84530091D01*
X141792887Y-85090000D01*
X141904260Y-85649909D01*
X142221423Y-86124577D01*
X142573758Y-86360000D01*
X142221423Y-86595423D01*
X141904260Y-87070091D01*
X141792887Y-87630000D01*
X141904260Y-88189909D01*
X142221423Y-88664577D01*
X142573758Y-88900000D01*
X142221423Y-89135423D01*
X141904260Y-89610091D01*
X141792887Y-90170000D01*
X141904260Y-90729909D01*
X142221423Y-91204577D01*
X142573758Y-91440000D01*
X142221423Y-91675423D01*
X141904260Y-92150091D01*
X141792887Y-92710000D01*
X141904260Y-93269909D01*
X142221423Y-93744577D01*
X142573758Y-93980000D01*
X142221423Y-94215423D01*
X141904260Y-94690091D01*
X141792887Y-95250000D01*
X141904260Y-95809909D01*
X142221423Y-96284577D01*
X142573758Y-96520000D01*
X142221423Y-96755423D01*
X141904260Y-97230091D01*
X141792887Y-97790000D01*
X141904260Y-98349909D01*
X142221423Y-98824577D01*
X142573758Y-99060000D01*
X142221423Y-99295423D01*
X141904260Y-99770091D01*
X141792887Y-100330000D01*
X141904260Y-100889909D01*
X142221423Y-101364577D01*
X142573758Y-101600000D01*
X142221423Y-101835423D01*
X141904260Y-102310091D01*
X141792887Y-102870000D01*
X141904260Y-103429909D01*
X142221423Y-103904577D01*
X142573758Y-104140000D01*
X142221423Y-104375423D01*
X141904260Y-104850091D01*
X141792887Y-105410000D01*
X141904260Y-105969909D01*
X142221423Y-106444577D01*
X142573758Y-106680000D01*
X142221423Y-106915423D01*
X141904260Y-107390091D01*
X141792887Y-107950000D01*
X141904260Y-108509909D01*
X142221423Y-108984577D01*
X142573758Y-109220000D01*
X142221423Y-109455423D01*
X141904260Y-109930091D01*
X141792887Y-110490000D01*
X141904260Y-111049909D01*
X142221423Y-111524577D01*
X142573758Y-111760000D01*
X142221423Y-111995423D01*
X141904260Y-112470091D01*
X141792887Y-113030000D01*
X141838358Y-113258600D01*
X131898152Y-113258600D01*
X129780016Y-111140465D01*
X129780014Y-111140462D01*
X129421117Y-110781565D01*
X129479113Y-110490000D01*
X129367740Y-109930091D01*
X129050577Y-109455423D01*
X128698242Y-109220000D01*
X129050577Y-108984577D01*
X129367740Y-108509909D01*
X129479113Y-107950000D01*
X129367740Y-107390091D01*
X129050577Y-106915423D01*
X128698242Y-106680000D01*
X129050577Y-106444577D01*
X129367740Y-105969909D01*
X129479113Y-105410000D01*
X129367740Y-104850091D01*
X129050577Y-104375423D01*
X128698242Y-104140000D01*
X129050577Y-103904577D01*
X129367740Y-103429909D01*
X129479113Y-102870000D01*
X129367740Y-102310091D01*
X129050577Y-101835423D01*
X128698242Y-101600000D01*
X129050577Y-101364577D01*
X129367740Y-100889909D01*
X129473030Y-100360581D01*
X133324600Y-104212152D01*
X133324601Y-104987688D01*
X133234569Y-105077720D01*
X133077000Y-105458126D01*
X133077000Y-105869874D01*
X133234569Y-106250280D01*
X133525720Y-106541431D01*
X133906126Y-106699000D01*
X134317874Y-106699000D01*
X134698280Y-106541431D01*
X134989431Y-106250280D01*
X135147000Y-105869874D01*
X135147000Y-105458126D01*
X135073800Y-105281405D01*
X135430126Y-105429000D01*
X135841874Y-105429000D01*
X136222280Y-105271431D01*
X136513431Y-104980280D01*
X136671000Y-104599874D01*
X136671000Y-104188126D01*
X136513431Y-103807720D01*
X136423400Y-103717689D01*
X136423400Y-102947550D01*
X136438826Y-102869999D01*
X136408912Y-102719613D01*
X136377715Y-102562772D01*
X136203684Y-102302316D01*
X136137938Y-102258386D01*
X129421117Y-95541566D01*
X129479113Y-95250000D01*
X129367740Y-94690091D01*
X129050577Y-94215423D01*
X128698242Y-93980000D01*
X129050577Y-93744577D01*
X129367740Y-93269909D01*
X129479113Y-92710000D01*
X129367740Y-92150091D01*
X129050577Y-91675423D01*
X128698242Y-91440000D01*
X129050577Y-91204577D01*
X129367740Y-90729909D01*
X129479113Y-90170000D01*
X129367740Y-89610091D01*
X129050577Y-89135423D01*
X128698242Y-88900000D01*
X129050577Y-88664577D01*
X129367740Y-88189909D01*
X129479113Y-87630000D01*
X129367740Y-87070091D01*
X129050577Y-86595423D01*
X128666892Y-86339053D01*
X128871134Y-86242389D01*
X129247041Y-85827423D01*
X129407904Y-85439039D01*
X129285915Y-85217000D01*
X128143000Y-85217000D01*
X128143000Y-85237000D01*
X127889000Y-85237000D01*
X127889000Y-85217000D01*
X126746085Y-85217000D01*
X126624096Y-85439039D01*
X126784959Y-85827423D01*
X127160866Y-86242389D01*
X127365108Y-86339053D01*
X126981423Y-86595423D01*
X126664260Y-87070091D01*
X126552887Y-87630000D01*
X119074000Y-87630000D01*
X119074000Y-80010000D01*
X126552887Y-80010000D01*
X126664260Y-80569909D01*
X126981423Y-81044577D01*
X127333758Y-81280000D01*
X126981423Y-81515423D01*
X126664260Y-81990091D01*
X126552887Y-82550000D01*
X126664260Y-83109909D01*
X126981423Y-83584577D01*
X127365108Y-83840947D01*
X127160866Y-83937611D01*
X126784959Y-84352577D01*
X126624096Y-84740961D01*
X126746085Y-84963000D01*
X127889000Y-84963000D01*
X127889000Y-84943000D01*
X128143000Y-84943000D01*
X128143000Y-84963000D01*
X129285915Y-84963000D01*
X129407904Y-84740961D01*
X129247041Y-84352577D01*
X128871134Y-83937611D01*
X128666892Y-83840947D01*
X129050577Y-83584577D01*
X129367740Y-83109909D01*
X129479113Y-82550000D01*
X129367740Y-81990091D01*
X129050577Y-81515423D01*
X128698242Y-81280000D01*
X129050577Y-81044577D01*
X129367740Y-80569909D01*
X129479113Y-80010000D01*
X129367740Y-79450091D01*
X129050577Y-78975423D01*
X128929894Y-78894785D01*
X129063765Y-78868157D01*
X129273809Y-78727809D01*
X129414157Y-78517765D01*
X129463440Y-78270000D01*
X129463440Y-76670000D01*
X129414157Y-76422235D01*
X129273809Y-76212191D01*
X129063765Y-76071843D01*
X128816000Y-76022560D01*
X127216000Y-76022560D01*
X126968235Y-76071843D01*
X126758191Y-76212191D01*
X126617843Y-76422235D01*
X126568560Y-76670000D01*
X126568560Y-78270000D01*
X126617843Y-78517765D01*
X126758191Y-78727809D01*
X126968235Y-78868157D01*
X127102106Y-78894785D01*
X126981423Y-78975423D01*
X126664260Y-79450091D01*
X126552887Y-80010000D01*
X119074000Y-80010000D01*
X119074000Y-70929431D01*
X120955000Y-70929431D01*
X120955000Y-71818569D01*
X121295259Y-72640026D01*
X121923974Y-73268741D01*
X122745431Y-73609000D01*
X123634569Y-73609000D01*
X124456026Y-73268741D01*
X125084741Y-72640026D01*
X125425000Y-71818569D01*
X125425000Y-70929431D01*
X125096247Y-70135750D01*
X157906000Y-70135750D01*
X157906000Y-70451310D01*
X158002673Y-70684699D01*
X158181302Y-70863327D01*
X158414691Y-70960000D01*
X158692750Y-70960000D01*
X158851500Y-70801250D01*
X158851500Y-69977000D01*
X158064750Y-69977000D01*
X157906000Y-70135750D01*
X125096247Y-70135750D01*
X125084741Y-70107974D01*
X124456026Y-69479259D01*
X123899384Y-69248690D01*
X157906000Y-69248690D01*
X157906000Y-69564250D01*
X158064750Y-69723000D01*
X158851500Y-69723000D01*
X158851500Y-68898750D01*
X158692750Y-68740000D01*
X158414691Y-68740000D01*
X158181302Y-68836673D01*
X158002673Y-69015301D01*
X157906000Y-69248690D01*
X123899384Y-69248690D01*
X123634569Y-69139000D01*
X122745431Y-69139000D01*
X121923974Y-69479259D01*
X121295259Y-70107974D01*
X120955000Y-70929431D01*
X119074000Y-70929431D01*
X119074000Y-67258000D01*
X186742000Y-67258000D01*
X186742001Y-119178000D01*
X186742001Y-119178000D01*
G37*
X186742001Y-119178000D02*
X176125320Y-119178000D01*
X176395358Y-119051183D01*
X176785645Y-118622924D01*
X176955476Y-118212890D01*
X176834155Y-117983000D01*
X175641000Y-117983000D01*
X175641000Y-118003000D01*
X175387000Y-118003000D01*
X175387000Y-117983000D01*
X174193845Y-117983000D01*
X174072524Y-118212890D01*
X174242355Y-118622924D01*
X174632642Y-119051183D01*
X174902680Y-119178000D01*
X119074000Y-119178000D01*
X119074000Y-87630000D01*
X126552887Y-87630000D01*
X126664260Y-88189909D01*
X126981423Y-88664577D01*
X127333758Y-88900000D01*
X126981423Y-89135423D01*
X126664260Y-89610091D01*
X126552887Y-90170000D01*
X126664260Y-90729909D01*
X126981423Y-91204577D01*
X127333758Y-91440000D01*
X126981423Y-91675423D01*
X126664260Y-92150091D01*
X126552887Y-92710000D01*
X126664260Y-93269909D01*
X126981423Y-93744577D01*
X127333758Y-93980000D01*
X126981423Y-94215423D01*
X126664260Y-94690091D01*
X126552887Y-95250000D01*
X126664260Y-95809909D01*
X126981423Y-96284577D01*
X127333758Y-96520000D01*
X126981423Y-96755423D01*
X126664260Y-97230091D01*
X126552887Y-97790000D01*
X126664260Y-98349909D01*
X126981423Y-98824577D01*
X127333758Y-99060000D01*
X126981423Y-99295423D01*
X126664260Y-99770091D01*
X126552887Y-100330000D01*
X126664260Y-100889909D01*
X126981423Y-101364577D01*
X127333758Y-101600000D01*
X126981423Y-101835423D01*
X126664260Y-102310091D01*
X126552887Y-102870000D01*
X126664260Y-103429909D01*
X126981423Y-103904577D01*
X127333758Y-104140000D01*
X126981423Y-104375423D01*
X126664260Y-104850091D01*
X126552887Y-105410000D01*
X126664260Y-105969909D01*
X126981423Y-106444577D01*
X127333758Y-106680000D01*
X126981423Y-106915423D01*
X126664260Y-107390091D01*
X126552887Y-107950000D01*
X126664260Y-108509909D01*
X126981423Y-108984577D01*
X127333758Y-109220000D01*
X126981423Y-109455423D01*
X126664260Y-109930091D01*
X126552887Y-110490000D01*
X126664260Y-111049909D01*
X126981423Y-111524577D01*
X127333758Y-111760000D01*
X126981423Y-111995423D01*
X126664260Y-112470091D01*
X126552887Y-113030000D01*
X126664260Y-113589909D01*
X126981423Y-114064577D01*
X127226493Y-114228327D01*
X127257009Y-114381740D01*
X127274286Y-114468598D01*
X127448317Y-114729054D01*
X127514063Y-114772984D01*
X128047826Y-115306747D01*
X128091756Y-115372494D01*
X128226942Y-115462822D01*
X128352211Y-115546525D01*
X128659440Y-115607636D01*
X128736993Y-115592210D01*
X143782550Y-115592210D01*
X143860101Y-115607636D01*
X143937652Y-115592210D01*
X143937653Y-115592210D01*
X144167329Y-115546525D01*
X144427785Y-115372494D01*
X144471717Y-115306745D01*
X144922336Y-114856126D01*
X146793000Y-114856126D01*
X146793000Y-115267874D01*
X146950569Y-115648280D01*
X147241720Y-115939431D01*
X147622126Y-116097000D01*
X148033874Y-116097000D01*
X148414280Y-115939431D01*
X148504311Y-115849400D01*
X155025689Y-115849400D01*
X155115720Y-115939431D01*
X155496126Y-116097000D01*
X155907874Y-116097000D01*
X156288280Y-115939431D01*
X156579431Y-115648280D01*
X156737000Y-115267874D01*
X156737000Y-114856126D01*
X156579431Y-114475720D01*
X156288280Y-114184569D01*
X155907874Y-114027000D01*
X155496126Y-114027000D01*
X155115720Y-114184569D01*
X155025689Y-114274600D01*
X148504311Y-114274600D01*
X148414280Y-114184569D01*
X148033874Y-114027000D01*
X147622126Y-114027000D01*
X147241720Y-114184569D01*
X146950569Y-114475720D01*
X146793000Y-114856126D01*
X144922336Y-114856126D01*
X146805938Y-112972525D01*
X146871684Y-112928595D01*
X147045715Y-112668139D01*
X147091400Y-112438463D01*
X147091400Y-112438462D01*
X147106826Y-112360912D01*
X147091400Y-112283361D01*
X147091400Y-111263957D01*
X148799067Y-111263957D01*
X148916794Y-111537000D01*
X149502951Y-111537000D01*
X149502950Y-111791000D01*
X148916794Y-111791000D01*
X148799067Y-112064043D01*
X148838371Y-112220190D01*
X149178689Y-112818705D01*
X149722144Y-113241427D01*
X150386000Y-113424000D01*
X151511000Y-113424000D01*
X151511000Y-112799050D01*
X151765000Y-112799050D01*
X151765000Y-113424000D01*
X152890000Y-113424000D01*
X153553856Y-113241427D01*
X154097311Y-112818705D01*
X154437629Y-112220190D01*
X154476933Y-112064043D01*
X154359206Y-111791000D01*
X153773050Y-111791000D01*
X153773050Y-111537000D01*
X154359206Y-111537000D01*
X154476933Y-111263957D01*
X154437629Y-111107810D01*
X154097311Y-110509295D01*
X153553856Y-110086573D01*
X152890000Y-109904000D01*
X151765000Y-109904000D01*
X151765000Y-110528950D01*
X151511000Y-110528950D01*
X151511000Y-109904000D01*
X150386000Y-109904000D01*
X149722144Y-110086573D01*
X149178689Y-110509295D01*
X148838371Y-111107810D01*
X148799067Y-111263957D01*
X147091400Y-111263957D01*
X147091400Y-107696000D01*
X157540887Y-107696000D01*
X157652260Y-108255909D01*
X157969423Y-108730577D01*
X158321758Y-108966000D01*
X157969423Y-109201423D01*
X157652260Y-109676091D01*
X157540887Y-110236000D01*
X157652260Y-110795909D01*
X157969423Y-111270577D01*
X158321758Y-111506000D01*
X157969423Y-111741423D01*
X157652260Y-112216091D01*
X157540887Y-112776000D01*
X157652260Y-113335909D01*
X157969423Y-113810577D01*
X158444091Y-114127740D01*
X158862667Y-114211000D01*
X159145333Y-114211000D01*
X159563909Y-114127740D01*
X160038577Y-113810577D01*
X160355740Y-113335909D01*
X160467113Y-112776000D01*
X160355740Y-112216091D01*
X160038577Y-111741423D01*
X159686242Y-111506000D01*
X160038577Y-111270577D01*
X160355740Y-110795909D01*
X160467113Y-110236000D01*
X160355740Y-109676091D01*
X160038577Y-109201423D01*
X159686242Y-108966000D01*
X160038577Y-108730577D01*
X160355740Y-108255909D01*
X160467113Y-107696000D01*
X160355740Y-107136091D01*
X160038577Y-106661423D01*
X159917894Y-106580785D01*
X160051765Y-106554157D01*
X160261809Y-106413809D01*
X160402157Y-106203765D01*
X160451440Y-105956000D01*
X160451440Y-104356000D01*
X160402157Y-104108235D01*
X160261809Y-103898191D01*
X160051765Y-103757843D01*
X159804000Y-103708560D01*
X158204000Y-103708560D01*
X157956235Y-103757843D01*
X157746191Y-103898191D01*
X157605843Y-104108235D01*
X157556560Y-104356000D01*
X157556560Y-105956000D01*
X157605843Y-106203765D01*
X157746191Y-106413809D01*
X157956235Y-106554157D01*
X158090106Y-106580785D01*
X157969423Y-106661423D01*
X157652260Y-107136091D01*
X157540887Y-107696000D01*
X147091400Y-107696000D01*
X147091400Y-107102311D01*
X147181431Y-107012280D01*
X147339000Y-106631874D01*
X147339000Y-106575159D01*
X147502577Y-106684457D01*
X147619854Y-106762819D01*
X148074999Y-106853353D01*
X148189889Y-106830500D01*
X148900361Y-106830500D01*
X149028991Y-107023009D01*
X149652510Y-107439631D01*
X150202345Y-107549000D01*
X153073655Y-107549000D01*
X153623490Y-107439631D01*
X154247009Y-107023009D01*
X154663631Y-106399490D01*
X154809929Y-105664000D01*
X154663631Y-104928510D01*
X154247009Y-104304991D01*
X153623490Y-103888369D01*
X153073655Y-103779000D01*
X151386066Y-103779000D01*
X151462280Y-103747431D01*
X151552311Y-103657400D01*
X171118449Y-103657400D01*
X171196000Y-103672826D01*
X171273551Y-103657400D01*
X171273552Y-103657400D01*
X171503228Y-103611715D01*
X171763684Y-103437684D01*
X171807616Y-103371935D01*
X173412004Y-101767548D01*
X173573434Y-101659684D01*
X173617366Y-101593935D01*
X173729935Y-101481366D01*
X173795684Y-101437434D01*
X173969715Y-101176978D01*
X174015400Y-100947302D01*
X174015400Y-100947301D01*
X174018099Y-100933735D01*
X174065843Y-101173765D01*
X174206191Y-101383809D01*
X174416235Y-101524157D01*
X174461619Y-101533184D01*
X174443375Y-101545375D01*
X174115161Y-102036582D01*
X173999908Y-102616000D01*
X174115161Y-103195418D01*
X174443375Y-103686625D01*
X174741761Y-103886000D01*
X174443375Y-104085375D01*
X174254130Y-104368600D01*
X171677440Y-104368600D01*
X171677440Y-104306000D01*
X171628157Y-104058235D01*
X171487809Y-103848191D01*
X171277765Y-103707843D01*
X171030000Y-103658560D01*
X169330000Y-103658560D01*
X169082235Y-103707843D01*
X168872191Y-103848191D01*
X168731843Y-104058235D01*
X168682560Y-104306000D01*
X168682560Y-104368600D01*
X167823735Y-104368600D01*
X167658577Y-104121423D01*
X167183909Y-103804260D01*
X166765333Y-103721000D01*
X166482667Y-103721000D01*
X166064091Y-103804260D01*
X165589423Y-104121423D01*
X165272260Y-104596091D01*
X165160887Y-105156000D01*
X165272260Y-105715909D01*
X165589423Y-106190577D01*
X165941758Y-106426000D01*
X165589423Y-106661423D01*
X165272260Y-107136091D01*
X165160887Y-107696000D01*
X165272260Y-108255909D01*
X165589423Y-108730577D01*
X165941758Y-108966000D01*
X165589423Y-109201423D01*
X165272260Y-109676091D01*
X165160887Y-110236000D01*
X165272260Y-110795909D01*
X165589423Y-111270577D01*
X165941758Y-111506000D01*
X165589423Y-111741423D01*
X165272260Y-112216091D01*
X165160887Y-112776000D01*
X165272260Y-113335909D01*
X165589423Y-113810577D01*
X166064091Y-114127740D01*
X166482667Y-114211000D01*
X166765333Y-114211000D01*
X167183909Y-114127740D01*
X167658577Y-113810577D01*
X167823735Y-113563400D01*
X168920130Y-113563400D01*
X169109375Y-113846625D01*
X169600582Y-114174839D01*
X170033744Y-114261000D01*
X170326256Y-114261000D01*
X170759418Y-114174839D01*
X171250625Y-113846625D01*
X171439870Y-113563400D01*
X174254130Y-113563400D01*
X174443375Y-113846625D01*
X174741761Y-114046000D01*
X174443375Y-114245375D01*
X174115161Y-114736582D01*
X173999908Y-115316000D01*
X174115161Y-115895418D01*
X174443375Y-116386625D01*
X174762478Y-116599843D01*
X174632642Y-116660817D01*
X174242355Y-117089076D01*
X174072524Y-117499110D01*
X174193845Y-117729000D01*
X175387000Y-117729000D01*
X175387000Y-117709000D01*
X175641000Y-117709000D01*
X175641000Y-117729000D01*
X176834155Y-117729000D01*
X176955476Y-117499110D01*
X176785645Y-117089076D01*
X176395358Y-116660817D01*
X176265522Y-116599843D01*
X176584625Y-116386625D01*
X176912839Y-115895418D01*
X177028092Y-115316000D01*
X176912839Y-114736582D01*
X176833225Y-114617431D01*
X180391000Y-114617431D01*
X180391000Y-115506569D01*
X180731259Y-116328026D01*
X181359974Y-116956741D01*
X182181431Y-117297000D01*
X183070569Y-117297000D01*
X183892026Y-116956741D01*
X184520741Y-116328026D01*
X184861000Y-115506569D01*
X184861000Y-114617431D01*
X184520741Y-113795974D01*
X183892026Y-113167259D01*
X183070569Y-112827000D01*
X182181431Y-112827000D01*
X181359974Y-113167259D01*
X180731259Y-113795974D01*
X180391000Y-114617431D01*
X176833225Y-114617431D01*
X176584625Y-114245375D01*
X176286239Y-114046000D01*
X176584625Y-113846625D01*
X176912839Y-113355418D01*
X177028092Y-112776000D01*
X176912839Y-112196582D01*
X176584625Y-111705375D01*
X176286239Y-111506000D01*
X176584625Y-111306625D01*
X176912839Y-110815418D01*
X177028092Y-110236000D01*
X176912839Y-109656582D01*
X176584625Y-109165375D01*
X176286239Y-108966000D01*
X176584625Y-108766625D01*
X176912839Y-108275418D01*
X177028092Y-107696000D01*
X176912839Y-107116582D01*
X176584625Y-106625375D01*
X176286239Y-106426000D01*
X176584625Y-106226625D01*
X176912839Y-105735418D01*
X177028092Y-105156000D01*
X176912839Y-104576582D01*
X176584625Y-104085375D01*
X176286239Y-103886000D01*
X176584625Y-103686625D01*
X176912839Y-103195418D01*
X177028092Y-102616000D01*
X176912839Y-102036582D01*
X176584625Y-101545375D01*
X176566381Y-101533184D01*
X176611765Y-101524157D01*
X176821809Y-101383809D01*
X176962157Y-101173765D01*
X177011440Y-100926000D01*
X177011440Y-99226000D01*
X176962157Y-98978235D01*
X176821809Y-98768191D01*
X176611765Y-98627843D01*
X176364000Y-98578560D01*
X174664000Y-98578560D01*
X174416235Y-98627843D01*
X174206191Y-98768191D01*
X174065843Y-98978235D01*
X174016560Y-99226000D01*
X174016560Y-100798031D01*
X174015400Y-100792199D01*
X174015400Y-98341552D01*
X174137191Y-98392000D01*
X174415250Y-98392000D01*
X174574000Y-98233250D01*
X174574000Y-97409000D01*
X174554000Y-97409000D01*
X174554000Y-97155000D01*
X174574000Y-97155000D01*
X174574000Y-97135000D01*
X174828000Y-97135000D01*
X174828000Y-97155000D01*
X174848000Y-97155000D01*
X174848000Y-97409000D01*
X174828000Y-97409000D01*
X174828000Y-98233250D01*
X174986750Y-98392000D01*
X175264809Y-98392000D01*
X175498198Y-98295327D01*
X175563469Y-98230057D01*
X175725773Y-98338505D01*
X176057250Y-98404440D01*
X176494750Y-98404440D01*
X176826227Y-98338505D01*
X177107239Y-98150739D01*
X177295005Y-97869727D01*
X177360940Y-97538250D01*
X177360940Y-97025750D01*
X177295005Y-96694273D01*
X177107239Y-96413261D01*
X177089666Y-96401519D01*
X177132739Y-96372739D01*
X177320505Y-96091727D01*
X177386440Y-95760250D01*
X177386440Y-95247750D01*
X177320505Y-94916273D01*
X177132739Y-94635261D01*
X177102416Y-94615000D01*
X177132739Y-94594739D01*
X177320505Y-94313727D01*
X177386440Y-93982250D01*
X177386440Y-93469750D01*
X177345937Y-93266126D01*
X180829000Y-93266126D01*
X180829000Y-93677874D01*
X180986569Y-94058280D01*
X181076600Y-94148311D01*
X181076601Y-102955688D01*
X180986569Y-103045720D01*
X180829000Y-103426126D01*
X180829000Y-103837874D01*
X180986569Y-104218280D01*
X181277720Y-104509431D01*
X181658126Y-104667000D01*
X182069874Y-104667000D01*
X182450280Y-104509431D01*
X182741431Y-104218280D01*
X182899000Y-103837874D01*
X182899000Y-103426126D01*
X182741431Y-103045720D01*
X182651400Y-102955689D01*
X182651400Y-94148311D01*
X182741431Y-94058280D01*
X182899000Y-93677874D01*
X182899000Y-93266126D01*
X182741431Y-92885720D01*
X182450280Y-92594569D01*
X182069874Y-92437000D01*
X181658126Y-92437000D01*
X181277720Y-92594569D01*
X180986569Y-92885720D01*
X180829000Y-93266126D01*
X177345937Y-93266126D01*
X177320505Y-93138273D01*
X177132739Y-92857261D01*
X177102416Y-92837000D01*
X177132739Y-92816739D01*
X177320505Y-92535727D01*
X177386440Y-92204250D01*
X177386440Y-91691750D01*
X177320505Y-91360273D01*
X177132739Y-91079261D01*
X176851727Y-90891495D01*
X176520250Y-90825560D01*
X176082750Y-90825560D01*
X175751273Y-90891495D01*
X175514000Y-91050036D01*
X175276727Y-90891495D01*
X174945250Y-90825560D01*
X174507750Y-90825560D01*
X174176273Y-90891495D01*
X173895261Y-91079261D01*
X173840912Y-91160600D01*
X171124385Y-91160600D01*
X171138826Y-91087999D01*
X171107796Y-90932000D01*
X171077715Y-90780772D01*
X170903684Y-90520316D01*
X170837938Y-90476386D01*
X169437000Y-89075449D01*
X169437000Y-88948126D01*
X169279431Y-88567720D01*
X168988280Y-88276569D01*
X168607874Y-88119000D01*
X168196126Y-88119000D01*
X167815720Y-88276569D01*
X167524569Y-88567720D01*
X167367000Y-88948126D01*
X167367000Y-89291448D01*
X166389000Y-88313449D01*
X166389000Y-88186126D01*
X166231431Y-87805720D01*
X165940280Y-87514569D01*
X165559874Y-87357000D01*
X165148126Y-87357000D01*
X164767720Y-87514569D01*
X164476569Y-87805720D01*
X164338661Y-88138661D01*
X164005720Y-88276569D01*
X163714569Y-88567720D01*
X163557000Y-88948126D01*
X163557000Y-89268014D01*
X163497720Y-89292569D01*
X163206569Y-89583720D01*
X163049000Y-89964126D01*
X163049000Y-90144600D01*
X162802545Y-90144600D01*
X162675431Y-89837720D01*
X162384280Y-89546569D01*
X162003874Y-89389000D01*
X161592126Y-89389000D01*
X161211720Y-89546569D01*
X160920569Y-89837720D01*
X160763000Y-90218126D01*
X160763000Y-90629874D01*
X160920569Y-91010280D01*
X161079292Y-91169003D01*
X160703720Y-91324569D01*
X160412569Y-91615720D01*
X160341669Y-91786888D01*
X160254846Y-91700065D01*
X160210914Y-91634316D01*
X159950458Y-91460285D01*
X159720782Y-91414600D01*
X159720781Y-91414600D01*
X159643230Y-91399174D01*
X159565679Y-91414600D01*
X158664311Y-91414600D01*
X158574280Y-91324569D01*
X158193874Y-91167000D01*
X157782126Y-91167000D01*
X157401720Y-91324569D01*
X157110569Y-91615720D01*
X156972661Y-91948661D01*
X156639720Y-92086569D01*
X156348569Y-92377720D01*
X156191000Y-92758126D01*
X156191000Y-92938600D01*
X154346311Y-92938600D01*
X154256280Y-92848569D01*
X153875874Y-92691000D01*
X153464126Y-92691000D01*
X153083720Y-92848569D01*
X152792569Y-93139720D01*
X152635000Y-93520126D01*
X152635000Y-93931874D01*
X152703377Y-94096951D01*
X152467727Y-93939495D01*
X152136250Y-93873560D01*
X151698750Y-93873560D01*
X151367273Y-93939495D01*
X151204969Y-94047943D01*
X151139698Y-93982673D01*
X150906309Y-93886000D01*
X150628250Y-93886000D01*
X150469500Y-94044750D01*
X150469500Y-94869000D01*
X150489500Y-94869000D01*
X150489500Y-95123000D01*
X150469500Y-95123000D01*
X150469500Y-95947250D01*
X150628250Y-96106000D01*
X150906309Y-96106000D01*
X151139698Y-96009327D01*
X151204969Y-95944057D01*
X151367273Y-96052505D01*
X151698750Y-96118440D01*
X152136250Y-96118440D01*
X152467727Y-96052505D01*
X152741763Y-95869400D01*
X154566560Y-95869400D01*
X154566560Y-96032000D01*
X154615843Y-96279765D01*
X154756191Y-96489809D01*
X154966235Y-96630157D01*
X155214000Y-96679440D01*
X157714000Y-96679440D01*
X157961765Y-96630157D01*
X158171809Y-96489809D01*
X158206436Y-96437987D01*
X158900061Y-97131613D01*
X159094771Y-97261714D01*
X159248102Y-97292214D01*
X159069272Y-97327785D01*
X158808816Y-97501816D01*
X158764886Y-97567562D01*
X158206436Y-98126013D01*
X158171809Y-98074191D01*
X157961765Y-97933843D01*
X157714000Y-97884560D01*
X155214000Y-97884560D01*
X154966235Y-97933843D01*
X154756191Y-98074191D01*
X154615843Y-98284235D01*
X154566560Y-98532000D01*
X154566560Y-98780600D01*
X152803088Y-98780600D01*
X152748739Y-98699261D01*
X152467727Y-98511495D01*
X152136250Y-98445560D01*
X151698750Y-98445560D01*
X151367273Y-98511495D01*
X151204969Y-98619943D01*
X151139698Y-98554673D01*
X150906309Y-98458000D01*
X150628250Y-98458000D01*
X150469500Y-98616750D01*
X150469500Y-99441000D01*
X150489500Y-99441000D01*
X150489500Y-99695000D01*
X150469500Y-99695000D01*
X150469500Y-100519250D01*
X150628250Y-100678000D01*
X150906309Y-100678000D01*
X151139698Y-100581327D01*
X151204969Y-100516057D01*
X151367273Y-100624505D01*
X151698750Y-100690440D01*
X152136250Y-100690440D01*
X152467727Y-100624505D01*
X152748739Y-100436739D01*
X152803088Y-100355400D01*
X154566560Y-100355400D01*
X154566560Y-100432000D01*
X154615843Y-100679765D01*
X154756191Y-100889809D01*
X154966235Y-101030157D01*
X155214000Y-101079440D01*
X157714000Y-101079440D01*
X157961765Y-101030157D01*
X158171809Y-100889809D01*
X158312157Y-100679765D01*
X158361440Y-100432000D01*
X158361440Y-100163437D01*
X158531684Y-100049684D01*
X158575616Y-99983935D01*
X159702652Y-98856900D01*
X160137969Y-98856900D01*
X160167261Y-98900739D01*
X160448273Y-99088505D01*
X160779750Y-99154440D01*
X161292250Y-99154440D01*
X161623727Y-99088505D01*
X161904739Y-98900739D01*
X161934031Y-98856900D01*
X161948949Y-98856900D01*
X162026500Y-98872326D01*
X162104051Y-98856900D01*
X162104052Y-98856900D01*
X162333728Y-98811215D01*
X162594184Y-98637184D01*
X162638116Y-98571435D01*
X162897152Y-98312400D01*
X163209850Y-98312400D01*
X163076000Y-98446250D01*
X163076000Y-98526310D01*
X163172673Y-98759699D01*
X163351302Y-98938327D01*
X163584691Y-99035000D01*
X164150250Y-99035000D01*
X164309000Y-98876250D01*
X164309000Y-98397440D01*
X164563000Y-98397440D01*
X164563000Y-98876250D01*
X164721750Y-99035000D01*
X165287309Y-99035000D01*
X165520698Y-98938327D01*
X165699327Y-98759699D01*
X165796000Y-98526310D01*
X165796000Y-98446250D01*
X165637250Y-98287500D01*
X165499544Y-98287500D01*
X165618809Y-98207809D01*
X165759157Y-97997765D01*
X165773353Y-97926397D01*
X165796000Y-97903750D01*
X165796000Y-97823690D01*
X165794502Y-97820073D01*
X165808440Y-97750000D01*
X165808440Y-97579991D01*
X166905386Y-98676938D01*
X166949316Y-98742684D01*
X167209772Y-98916715D01*
X167439448Y-98962400D01*
X167516999Y-98977826D01*
X167594550Y-98962400D01*
X169309721Y-98962400D01*
X169363235Y-98998157D01*
X169611000Y-99047440D01*
X171061000Y-99047440D01*
X171308765Y-98998157D01*
X171518809Y-98857809D01*
X171659157Y-98647765D01*
X171678601Y-98550015D01*
X171678601Y-100511847D01*
X170879448Y-101311001D01*
X166643000Y-101311001D01*
X166643000Y-101140126D01*
X166485431Y-100759720D01*
X166194280Y-100468569D01*
X165813874Y-100311000D01*
X165627000Y-100311000D01*
X165627000Y-100124126D01*
X165469431Y-99743720D01*
X165178280Y-99452569D01*
X164797874Y-99295000D01*
X164386126Y-99295000D01*
X164005720Y-99452569D01*
X163915689Y-99542600D01*
X160097550Y-99542600D01*
X160019999Y-99527174D01*
X159942448Y-99542600D01*
X159910273Y-99549000D01*
X159560126Y-99549000D01*
X159179720Y-99706569D01*
X158888569Y-99997720D01*
X158731000Y-100378126D01*
X158731000Y-100789874D01*
X158888569Y-101170280D01*
X159029290Y-101311001D01*
X149947150Y-101311001D01*
X149869599Y-101295575D01*
X149792048Y-101311001D01*
X149792047Y-101311001D01*
X149562371Y-101356686D01*
X149301915Y-101530717D01*
X149257983Y-101596466D01*
X149019449Y-101835000D01*
X148892126Y-101835000D01*
X148511720Y-101992569D01*
X148486500Y-102017789D01*
X148486500Y-99853750D01*
X149270000Y-99853750D01*
X149270000Y-100169310D01*
X149366673Y-100402699D01*
X149545302Y-100581327D01*
X149778691Y-100678000D01*
X150056750Y-100678000D01*
X150215500Y-100519250D01*
X150215500Y-99695000D01*
X149428750Y-99695000D01*
X149270000Y-99853750D01*
X148486500Y-99853750D01*
X148486500Y-98966690D01*
X149270000Y-98966690D01*
X149270000Y-99282250D01*
X149428750Y-99441000D01*
X150215500Y-99441000D01*
X150215500Y-98616750D01*
X150056750Y-98458000D01*
X149778691Y-98458000D01*
X149545302Y-98554673D01*
X149366673Y-98733301D01*
X149270000Y-98966690D01*
X148486500Y-98966690D01*
X148486500Y-95281750D01*
X149270000Y-95281750D01*
X149270000Y-95597310D01*
X149366673Y-95830699D01*
X149545302Y-96009327D01*
X149778691Y-96106000D01*
X150056750Y-96106000D01*
X150215500Y-95947250D01*
X150215500Y-95123000D01*
X149428750Y-95123000D01*
X149270000Y-95281750D01*
X148486500Y-95281750D01*
X148486500Y-94394690D01*
X149270000Y-94394690D01*
X149270000Y-94710250D01*
X149428750Y-94869000D01*
X150215500Y-94869000D01*
X150215500Y-94044750D01*
X150056750Y-93886000D01*
X149778691Y-93886000D01*
X149545302Y-93982673D01*
X149366673Y-94161301D01*
X149270000Y-94394690D01*
X148486500Y-94394690D01*
X148486500Y-79108888D01*
X148509353Y-78993999D01*
X148484091Y-78867000D01*
X148418819Y-78538854D01*
X148161000Y-78153000D01*
X148063598Y-78087918D01*
X147493806Y-77518126D01*
X150095000Y-77518126D01*
X150095000Y-77929874D01*
X150252569Y-78310280D01*
X150543720Y-78601431D01*
X150924126Y-78759000D01*
X151335874Y-78759000D01*
X151716280Y-78601431D01*
X152007431Y-78310280D01*
X152165000Y-77929874D01*
X152165000Y-77518126D01*
X152007431Y-77137720D01*
X151917400Y-77047689D01*
X151917400Y-75722151D01*
X153979550Y-73660002D01*
X154036748Y-73660002D01*
X153878000Y-73818750D01*
X153878000Y-73959310D01*
X153967768Y-74176028D01*
X153914843Y-74255235D01*
X153865560Y-74503000D01*
X153865560Y-75103000D01*
X153914843Y-75350765D01*
X153973132Y-75438000D01*
X153914843Y-75525235D01*
X153865560Y-75773000D01*
X153865560Y-76373000D01*
X153914843Y-76620765D01*
X154055191Y-76830809D01*
X154265235Y-76971157D01*
X154500601Y-77017974D01*
X154500600Y-85106449D01*
X154485174Y-85184000D01*
X154500600Y-85261551D01*
X154512483Y-85321292D01*
X151917400Y-82726209D01*
X151917400Y-82464311D01*
X152007431Y-82374280D01*
X152165000Y-81993874D01*
X152165000Y-81582126D01*
X152007431Y-81201720D01*
X151716280Y-80910569D01*
X151335874Y-80753000D01*
X150924126Y-80753000D01*
X150543720Y-80910569D01*
X150252569Y-81201720D01*
X150095000Y-81582126D01*
X150095000Y-81993874D01*
X150252569Y-82374280D01*
X150342600Y-82464311D01*
X150342600Y-82974808D01*
X150327174Y-83052360D01*
X150342600Y-83129911D01*
X150388285Y-83359587D01*
X150562316Y-83620044D01*
X150628065Y-83663976D01*
X156220027Y-89255939D01*
X156263957Y-89321685D01*
X156524413Y-89495716D01*
X156754089Y-89541401D01*
X156775996Y-89545759D01*
X156856569Y-89740280D01*
X157147720Y-90031431D01*
X157528126Y-90189000D01*
X157939874Y-90189000D01*
X158320280Y-90031431D01*
X158611431Y-89740280D01*
X158769000Y-89359874D01*
X158769000Y-88948126D01*
X158654377Y-88671400D01*
X158931849Y-88671400D01*
X158985000Y-88724551D01*
X158985000Y-88851874D01*
X159142569Y-89232280D01*
X159433720Y-89523431D01*
X159814126Y-89681000D01*
X160225874Y-89681000D01*
X160606280Y-89523431D01*
X160897431Y-89232280D01*
X161055000Y-88851874D01*
X161055000Y-88440126D01*
X160897431Y-88059720D01*
X160606280Y-87768569D01*
X160225874Y-87611000D01*
X160098551Y-87611000D01*
X159869616Y-87382065D01*
X159825684Y-87316316D01*
X159565228Y-87142285D01*
X159335552Y-87096600D01*
X159335551Y-87096600D01*
X159258000Y-87081174D01*
X159180449Y-87096600D01*
X158314152Y-87096600D01*
X156075400Y-84857849D01*
X156075400Y-78799111D01*
X156131720Y-78855431D01*
X156512126Y-79013000D01*
X156639449Y-79013000D01*
X158147560Y-80521112D01*
X158147560Y-81028250D01*
X158213495Y-81359727D01*
X158401261Y-81640739D01*
X158682273Y-81828505D01*
X159013750Y-81894440D01*
X159241389Y-81894440D01*
X163700886Y-86353938D01*
X163744816Y-86419684D01*
X164005272Y-86593715D01*
X164234948Y-86639400D01*
X164234949Y-86639400D01*
X164312500Y-86654826D01*
X164390051Y-86639400D01*
X164423689Y-86639400D01*
X164513720Y-86729431D01*
X164894126Y-86887000D01*
X165305874Y-86887000D01*
X165686280Y-86729431D01*
X165977431Y-86438280D01*
X166135000Y-86057874D01*
X166135000Y-85646126D01*
X165977431Y-85265720D01*
X165686280Y-84974569D01*
X165305874Y-84817000D01*
X164894126Y-84817000D01*
X164538399Y-84964347D01*
X161739800Y-82165748D01*
X162100126Y-82315000D01*
X162511874Y-82315000D01*
X162892280Y-82157431D01*
X163183431Y-81866280D01*
X163341000Y-81485874D01*
X163341000Y-81074126D01*
X163183431Y-80693720D01*
X163093400Y-80603689D01*
X163093400Y-74148751D01*
X163108826Y-74071200D01*
X163088945Y-73971250D01*
X163228000Y-73971250D01*
X163228000Y-74249309D01*
X163324673Y-74482698D01*
X163503301Y-74661327D01*
X163736690Y-74758000D01*
X164052250Y-74758000D01*
X164211000Y-74599250D01*
X164211000Y-73812500D01*
X164465000Y-73812500D01*
X164465000Y-74599250D01*
X164623750Y-74758000D01*
X164939310Y-74758000D01*
X165172699Y-74661327D01*
X165351327Y-74482698D01*
X165448000Y-74249309D01*
X165448000Y-73971250D01*
X165289250Y-73812500D01*
X164465000Y-73812500D01*
X164211000Y-73812500D01*
X163386750Y-73812500D01*
X163228000Y-73971250D01*
X163088945Y-73971250D01*
X163086290Y-73957904D01*
X163047715Y-73763972D01*
X162873684Y-73503516D01*
X162807938Y-73459586D01*
X162379416Y-73031065D01*
X162335484Y-72965316D01*
X162075028Y-72791285D01*
X162065412Y-72789372D01*
X162110440Y-72563000D01*
X162110440Y-72270540D01*
X162314343Y-72355000D01*
X162805657Y-72355000D01*
X162971030Y-72286500D01*
X163183656Y-72286500D01*
X163239181Y-72565646D01*
X163272502Y-72615514D01*
X163281495Y-72660727D01*
X163389943Y-72823031D01*
X163324673Y-72888302D01*
X163228000Y-73121691D01*
X163228000Y-73399750D01*
X163386750Y-73558500D01*
X164211000Y-73558500D01*
X164211000Y-73538500D01*
X164465000Y-73538500D01*
X164465000Y-73558500D01*
X165289250Y-73558500D01*
X165448000Y-73399750D01*
X165448000Y-73277000D01*
X165843000Y-73277000D01*
X165843000Y-73611874D01*
X166000569Y-73992280D01*
X166291720Y-74283431D01*
X166672126Y-74441000D01*
X167083874Y-74441000D01*
X167464280Y-74283431D01*
X167742311Y-74005400D01*
X168677550Y-74005400D01*
X168713150Y-74041000D01*
X168897999Y-74041000D01*
X168941635Y-74070157D01*
X169189400Y-74119440D01*
X169946000Y-74119440D01*
X169946000Y-74216560D01*
X169189400Y-74216560D01*
X168941635Y-74265843D01*
X168897999Y-74295000D01*
X168713150Y-74295000D01*
X168554400Y-74453750D01*
X168554400Y-74548310D01*
X168588418Y-74630437D01*
X168541960Y-74864000D01*
X168541960Y-74905889D01*
X168357063Y-75090786D01*
X168291317Y-75134716D01*
X168247387Y-75200462D01*
X168117286Y-75395172D01*
X168056174Y-75702400D01*
X168071601Y-75779956D01*
X168071601Y-76403100D01*
X168030031Y-76403100D01*
X168000739Y-76359261D01*
X167719727Y-76171495D01*
X167388250Y-76105560D01*
X166875750Y-76105560D01*
X166544273Y-76171495D01*
X166263261Y-76359261D01*
X166233969Y-76403100D01*
X165490031Y-76403100D01*
X165460739Y-76359261D01*
X165179727Y-76171495D01*
X164848250Y-76105560D01*
X164335750Y-76105560D01*
X164004273Y-76171495D01*
X163723261Y-76359261D01*
X163535495Y-76640273D01*
X163469560Y-76971750D01*
X163469560Y-77409250D01*
X163535495Y-77740727D01*
X163694036Y-77978000D01*
X163535495Y-78215273D01*
X163469560Y-78546750D01*
X163469560Y-78984250D01*
X163535495Y-79315727D01*
X163723261Y-79596739D01*
X164004273Y-79784505D01*
X164335750Y-79850440D01*
X164848250Y-79850440D01*
X165179727Y-79784505D01*
X165460739Y-79596739D01*
X165490031Y-79552900D01*
X166233969Y-79552900D01*
X166263261Y-79596739D01*
X166544273Y-79784505D01*
X166875750Y-79850440D01*
X167388250Y-79850440D01*
X167719727Y-79784505D01*
X168000739Y-79596739D01*
X168020081Y-79567792D01*
X168069720Y-79617431D01*
X168450126Y-79775000D01*
X168861874Y-79775000D01*
X169242280Y-79617431D01*
X169446568Y-79413143D01*
X169577261Y-79608739D01*
X169858273Y-79796505D01*
X170189750Y-79862440D01*
X170627250Y-79862440D01*
X170958727Y-79796505D01*
X171121031Y-79688057D01*
X171186302Y-79753327D01*
X171419691Y-79850000D01*
X171697750Y-79850000D01*
X171856500Y-79691250D01*
X171856500Y-78867000D01*
X172110500Y-78867000D01*
X172110500Y-79691250D01*
X172269250Y-79850000D01*
X172547309Y-79850000D01*
X172780698Y-79753327D01*
X172959327Y-79574699D01*
X173056000Y-79341310D01*
X173056000Y-79330750D01*
X173896000Y-79330750D01*
X173896000Y-79608809D01*
X173992673Y-79842198D01*
X174171301Y-80020827D01*
X174404690Y-80117500D01*
X174720250Y-80117500D01*
X174879000Y-79958750D01*
X174879000Y-79172000D01*
X175133000Y-79172000D01*
X175133000Y-79958750D01*
X175291750Y-80117500D01*
X175607310Y-80117500D01*
X175840699Y-80020827D01*
X176019327Y-79842198D01*
X176116000Y-79608809D01*
X176116000Y-79330750D01*
X175957250Y-79172000D01*
X175133000Y-79172000D01*
X174879000Y-79172000D01*
X174054750Y-79172000D01*
X173896000Y-79330750D01*
X173056000Y-79330750D01*
X173056000Y-79025750D01*
X172897250Y-78867000D01*
X172110500Y-78867000D01*
X171856500Y-78867000D01*
X171836500Y-78867000D01*
X171836500Y-78613000D01*
X171856500Y-78613000D01*
X171856500Y-77788750D01*
X171697750Y-77630000D01*
X171419691Y-77630000D01*
X171186302Y-77726673D01*
X171121031Y-77791943D01*
X170958727Y-77683495D01*
X170627250Y-77617560D01*
X170399612Y-77617560D01*
X169646400Y-76864349D01*
X169646400Y-76028551D01*
X169655511Y-76019440D01*
X170408600Y-76019440D01*
X170414650Y-76018237D01*
X170440065Y-76035218D01*
X172152048Y-77747202D01*
X172110500Y-77788750D01*
X172110500Y-78613000D01*
X172897250Y-78613000D01*
X173056000Y-78454250D01*
X173056000Y-78259379D01*
X173065949Y-78257400D01*
X173988697Y-78257400D01*
X173896000Y-78481191D01*
X173896000Y-78759250D01*
X174054750Y-78918000D01*
X174879000Y-78918000D01*
X174879000Y-78898000D01*
X175133000Y-78898000D01*
X175133000Y-78918000D01*
X175957250Y-78918000D01*
X176116000Y-78759250D01*
X176116000Y-78481191D01*
X176019327Y-78247802D01*
X175954057Y-78182531D01*
X176062505Y-78020227D01*
X176128440Y-77688750D01*
X176128440Y-77251250D01*
X176062505Y-76919773D01*
X175874739Y-76638761D01*
X175593727Y-76450995D01*
X175262250Y-76385060D01*
X174749750Y-76385060D01*
X174418273Y-76450995D01*
X174137261Y-76638761D01*
X174107969Y-76682600D01*
X173314550Y-76682600D01*
X172951951Y-76320001D01*
X173164911Y-76320001D01*
X173279801Y-76342854D01*
X173394691Y-76320001D01*
X173734947Y-76252320D01*
X174120801Y-75994501D01*
X174185885Y-75897096D01*
X174454095Y-75628886D01*
X174551500Y-75563802D01*
X174809319Y-75177948D01*
X174877000Y-74837692D01*
X174877000Y-74837691D01*
X174899853Y-74722803D01*
X174877000Y-74607914D01*
X174877000Y-73971250D01*
X175928000Y-73971250D01*
X175928000Y-74249309D01*
X176024673Y-74482698D01*
X176203301Y-74661327D01*
X176436690Y-74758000D01*
X176752250Y-74758000D01*
X176911000Y-74599250D01*
X176911000Y-73812500D01*
X177165000Y-73812500D01*
X177165000Y-74599250D01*
X177323750Y-74758000D01*
X177639310Y-74758000D01*
X177872699Y-74661327D01*
X178051327Y-74482698D01*
X178148000Y-74249309D01*
X178148000Y-73971250D01*
X177989250Y-73812500D01*
X177165000Y-73812500D01*
X176911000Y-73812500D01*
X176086750Y-73812500D01*
X175928000Y-73971250D01*
X174877000Y-73971250D01*
X174877000Y-72225389D01*
X174899853Y-72110500D01*
X174856342Y-71891750D01*
X175915560Y-71891750D01*
X175915560Y-72329250D01*
X175981495Y-72660727D01*
X176089943Y-72823031D01*
X176024673Y-72888302D01*
X175928000Y-73121691D01*
X175928000Y-73399750D01*
X176086750Y-73558500D01*
X176911000Y-73558500D01*
X176911000Y-73538500D01*
X177165000Y-73538500D01*
X177165000Y-73558500D01*
X177989250Y-73558500D01*
X178148000Y-73399750D01*
X178148000Y-73121691D01*
X178051327Y-72888302D01*
X177986057Y-72823031D01*
X178094505Y-72660727D01*
X178160440Y-72329250D01*
X178160440Y-71891750D01*
X178094505Y-71560273D01*
X177956346Y-71353503D01*
X178073000Y-71071874D01*
X178073000Y-70660126D01*
X177915431Y-70279720D01*
X177624280Y-69988569D01*
X177243874Y-69831000D01*
X176832126Y-69831000D01*
X176451720Y-69988569D01*
X176160569Y-70279720D01*
X176003000Y-70660126D01*
X176003000Y-71071874D01*
X176119654Y-71353503D01*
X175981495Y-71560273D01*
X175915560Y-71891750D01*
X174856342Y-71891750D01*
X174809319Y-71655354D01*
X174551500Y-71269500D01*
X174165646Y-71011681D01*
X173825390Y-70944000D01*
X173710500Y-70921147D01*
X173595610Y-70944000D01*
X171092390Y-70944000D01*
X170977500Y-70921147D01*
X170862610Y-70944000D01*
X170783000Y-70944000D01*
X170834000Y-70820874D01*
X170834000Y-70409126D01*
X170782768Y-70285440D01*
X171622000Y-70285440D01*
X171869765Y-70236157D01*
X172079809Y-70095809D01*
X172220157Y-69885765D01*
X172222219Y-69875400D01*
X174075689Y-69875400D01*
X174165720Y-69965431D01*
X174546126Y-70123000D01*
X174957874Y-70123000D01*
X175338280Y-69965431D01*
X175629431Y-69674280D01*
X175787000Y-69293874D01*
X175787000Y-68882126D01*
X175629431Y-68501720D01*
X175338280Y-68210569D01*
X174957874Y-68053000D01*
X174546126Y-68053000D01*
X174165720Y-68210569D01*
X174075689Y-68300600D01*
X172222219Y-68300600D01*
X172220157Y-68290235D01*
X172079809Y-68080191D01*
X171869765Y-67939843D01*
X171622000Y-67890560D01*
X170522000Y-67890560D01*
X170274235Y-67939843D01*
X170064191Y-68080191D01*
X169923843Y-68290235D01*
X169874560Y-68538000D01*
X169874560Y-69577008D01*
X169469440Y-69171889D01*
X169469440Y-68538000D01*
X169420157Y-68290235D01*
X169279809Y-68080191D01*
X169069765Y-67939843D01*
X168822000Y-67890560D01*
X167722000Y-67890560D01*
X167474235Y-67939843D01*
X167264191Y-68080191D01*
X167123843Y-68290235D01*
X167121781Y-68300600D01*
X166747588Y-68300600D01*
X166693239Y-68219261D01*
X166412227Y-68031495D01*
X166080750Y-67965560D01*
X165643250Y-67965560D01*
X165311773Y-68031495D01*
X165074500Y-68190036D01*
X164837227Y-68031495D01*
X164792012Y-68022501D01*
X164742145Y-67989181D01*
X164287000Y-67898647D01*
X163831855Y-67989181D01*
X163781988Y-68022501D01*
X163736773Y-68031495D01*
X163455761Y-68219261D01*
X163267995Y-68500273D01*
X163264276Y-68518972D01*
X163188181Y-68632855D01*
X163097647Y-69088000D01*
X163171500Y-69459284D01*
X163171500Y-69953500D01*
X162971030Y-69953500D01*
X162805657Y-69885000D01*
X162314343Y-69885000D01*
X161860429Y-70073018D01*
X161591571Y-70341876D01*
X161638440Y-70106250D01*
X161638440Y-69593750D01*
X161572505Y-69262273D01*
X161384739Y-68981261D01*
X161103727Y-68793495D01*
X160772250Y-68727560D01*
X160334750Y-68727560D01*
X160003273Y-68793495D01*
X159840969Y-68901943D01*
X159775698Y-68836673D01*
X159542309Y-68740000D01*
X159264250Y-68740000D01*
X159105500Y-68898750D01*
X159105500Y-69723000D01*
X159125500Y-69723000D01*
X159125500Y-69977000D01*
X159105500Y-69977000D01*
X159105500Y-70801250D01*
X159264250Y-70960000D01*
X159542309Y-70960000D01*
X159775698Y-70863327D01*
X159840969Y-70798057D01*
X159900601Y-70837902D01*
X159900600Y-71318026D01*
X159665235Y-71364843D01*
X159455191Y-71505191D01*
X159314843Y-71715235D01*
X159265560Y-71963000D01*
X159265560Y-72563000D01*
X159314843Y-72810765D01*
X159373132Y-72898000D01*
X159314843Y-72985235D01*
X159265560Y-73233000D01*
X159265560Y-73833000D01*
X159301881Y-74015600D01*
X158739029Y-74015600D01*
X158447874Y-73895000D01*
X158036126Y-73895000D01*
X157655720Y-74052569D01*
X157364569Y-74343720D01*
X157269025Y-74574385D01*
X157219935Y-74541584D01*
X156979416Y-74301065D01*
X156935484Y-74235316D01*
X156675028Y-74061285D01*
X156657227Y-74057744D01*
X156698000Y-73959310D01*
X156698000Y-73818750D01*
X156539250Y-73660000D01*
X155415000Y-73660000D01*
X155415000Y-73680000D01*
X155161000Y-73680000D01*
X155161000Y-73660000D01*
X155141000Y-73660000D01*
X155141000Y-73406000D01*
X155161000Y-73406000D01*
X155161000Y-73386000D01*
X155415000Y-73386000D01*
X155415000Y-73406000D01*
X156539250Y-73406000D01*
X156698000Y-73247250D01*
X156698000Y-73106690D01*
X156608232Y-72889972D01*
X156661157Y-72810765D01*
X156710440Y-72563000D01*
X156710440Y-71963000D01*
X156661157Y-71715235D01*
X156520809Y-71505191D01*
X156310765Y-71364843D01*
X156063000Y-71315560D01*
X154513000Y-71315560D01*
X154265235Y-71364843D01*
X154063036Y-71499949D01*
X153955772Y-71521285D01*
X153695316Y-71695316D01*
X153651386Y-71761062D01*
X150628063Y-74784386D01*
X150562317Y-74828316D01*
X150518387Y-74894062D01*
X150388286Y-75088772D01*
X150327174Y-75396000D01*
X150342601Y-75473556D01*
X150342600Y-77047689D01*
X150252569Y-77137720D01*
X150095000Y-77518126D01*
X147493806Y-77518126D01*
X146911483Y-76935803D01*
X146842982Y-76770429D01*
X146495571Y-76423018D01*
X146041657Y-76235000D01*
X145550343Y-76235000D01*
X145384970Y-76303500D01*
X144093140Y-76303500D01*
X143815909Y-76118260D01*
X143397333Y-76035000D01*
X143114667Y-76035000D01*
X142696091Y-76118260D01*
X142221423Y-76435423D01*
X141904260Y-76910091D01*
X141792887Y-77470000D01*
X141904260Y-78029909D01*
X142221423Y-78504577D01*
X142605108Y-78760947D01*
X142400866Y-78857611D01*
X142024959Y-79272577D01*
X141864096Y-79660961D01*
X141986085Y-79883000D01*
X143129000Y-79883000D01*
X143129000Y-79863000D01*
X143383000Y-79863000D01*
X143383000Y-79883000D01*
X144525915Y-79883000D01*
X144647904Y-79660961D01*
X144487041Y-79272577D01*
X144111134Y-78857611D01*
X143906892Y-78760947D01*
X144093140Y-78636500D01*
X145312821Y-78636500D01*
X146153501Y-79477181D01*
X146153500Y-104141294D01*
X146014650Y-104141294D01*
X145634244Y-104298863D01*
X145421401Y-104511706D01*
X145421401Y-103575809D01*
X145620280Y-103493431D01*
X145911431Y-103202280D01*
X146069000Y-102821874D01*
X146069000Y-102410126D01*
X145911431Y-102029720D01*
X145620280Y-101738569D01*
X145239874Y-101581000D01*
X144828126Y-101581000D01*
X144447720Y-101738569D01*
X144314725Y-101871564D01*
X144290577Y-101835423D01*
X143938242Y-101600000D01*
X144290577Y-101364577D01*
X144607740Y-100889909D01*
X144719113Y-100330000D01*
X144607740Y-99770091D01*
X144290577Y-99295423D01*
X143938242Y-99060000D01*
X144290577Y-98824577D01*
X144607740Y-98349909D01*
X144719113Y-97790000D01*
X144607740Y-97230091D01*
X144290577Y-96755423D01*
X143938242Y-96520000D01*
X144290577Y-96284577D01*
X144607740Y-95809909D01*
X144719113Y-95250000D01*
X144607740Y-94690091D01*
X144290577Y-94215423D01*
X143938242Y-93980000D01*
X144290577Y-93744577D01*
X144607740Y-93269909D01*
X144719113Y-92710000D01*
X144607740Y-92150091D01*
X144290577Y-91675423D01*
X143938242Y-91440000D01*
X144290577Y-91204577D01*
X144607740Y-90729909D01*
X144719113Y-90170000D01*
X144607740Y-89610091D01*
X144290577Y-89135423D01*
X143938242Y-88900000D01*
X144290577Y-88664577D01*
X144607740Y-88189909D01*
X144719113Y-87630000D01*
X144607740Y-87070091D01*
X144290577Y-86595423D01*
X143938242Y-86360000D01*
X144290577Y-86124577D01*
X144607740Y-85649909D01*
X144719113Y-85090000D01*
X144607740Y-84530091D01*
X144290577Y-84055423D01*
X143938242Y-83820000D01*
X144290577Y-83584577D01*
X144607740Y-83109909D01*
X144719113Y-82550000D01*
X144607740Y-81990091D01*
X144290577Y-81515423D01*
X143906892Y-81259053D01*
X144111134Y-81162389D01*
X144487041Y-80747423D01*
X144647904Y-80359039D01*
X144525915Y-80137000D01*
X143383000Y-80137000D01*
X143383000Y-80157000D01*
X143129000Y-80157000D01*
X143129000Y-80137000D01*
X141986085Y-80137000D01*
X141864096Y-80359039D01*
X142024959Y-80747423D01*
X142400866Y-81162389D01*
X142605108Y-81259053D01*
X142221423Y-81515423D01*
X141904260Y-81990091D01*
X141792887Y-82550000D01*
X141904260Y-83109909D01*
X142221423Y-83584577D01*
X142573758Y-83820000D01*
X142221423Y-84055423D01*
X141904260Y-84530091D01*
X141792887Y-85090000D01*
X141904260Y-85649909D01*
X142221423Y-86124577D01*
X142573758Y-86360000D01*
X142221423Y-86595423D01*
X141904260Y-87070091D01*
X141792887Y-87630000D01*
X141904260Y-88189909D01*
X142221423Y-88664577D01*
X142573758Y-88900000D01*
X142221423Y-89135423D01*
X141904260Y-89610091D01*
X141792887Y-90170000D01*
X141904260Y-90729909D01*
X142221423Y-91204577D01*
X142573758Y-91440000D01*
X142221423Y-91675423D01*
X141904260Y-92150091D01*
X141792887Y-92710000D01*
X141904260Y-93269909D01*
X142221423Y-93744577D01*
X142573758Y-93980000D01*
X142221423Y-94215423D01*
X141904260Y-94690091D01*
X141792887Y-95250000D01*
X141904260Y-95809909D01*
X142221423Y-96284577D01*
X142573758Y-96520000D01*
X142221423Y-96755423D01*
X141904260Y-97230091D01*
X141792887Y-97790000D01*
X141904260Y-98349909D01*
X142221423Y-98824577D01*
X142573758Y-99060000D01*
X142221423Y-99295423D01*
X141904260Y-99770091D01*
X141792887Y-100330000D01*
X141904260Y-100889909D01*
X142221423Y-101364577D01*
X142573758Y-101600000D01*
X142221423Y-101835423D01*
X141904260Y-102310091D01*
X141792887Y-102870000D01*
X141904260Y-103429909D01*
X142221423Y-103904577D01*
X142573758Y-104140000D01*
X142221423Y-104375423D01*
X141904260Y-104850091D01*
X141792887Y-105410000D01*
X141904260Y-105969909D01*
X142221423Y-106444577D01*
X142573758Y-106680000D01*
X142221423Y-106915423D01*
X141904260Y-107390091D01*
X141792887Y-107950000D01*
X141904260Y-108509909D01*
X142221423Y-108984577D01*
X142573758Y-109220000D01*
X142221423Y-109455423D01*
X141904260Y-109930091D01*
X141792887Y-110490000D01*
X141904260Y-111049909D01*
X142221423Y-111524577D01*
X142573758Y-111760000D01*
X142221423Y-111995423D01*
X141904260Y-112470091D01*
X141792887Y-113030000D01*
X141838358Y-113258600D01*
X131898152Y-113258600D01*
X129780016Y-111140465D01*
X129780014Y-111140462D01*
X129421117Y-110781565D01*
X129479113Y-110490000D01*
X129367740Y-109930091D01*
X129050577Y-109455423D01*
X128698242Y-109220000D01*
X129050577Y-108984577D01*
X129367740Y-108509909D01*
X129479113Y-107950000D01*
X129367740Y-107390091D01*
X129050577Y-106915423D01*
X128698242Y-106680000D01*
X129050577Y-106444577D01*
X129367740Y-105969909D01*
X129479113Y-105410000D01*
X129367740Y-104850091D01*
X129050577Y-104375423D01*
X128698242Y-104140000D01*
X129050577Y-103904577D01*
X129367740Y-103429909D01*
X129479113Y-102870000D01*
X129367740Y-102310091D01*
X129050577Y-101835423D01*
X128698242Y-101600000D01*
X129050577Y-101364577D01*
X129367740Y-100889909D01*
X129473030Y-100360581D01*
X133324600Y-104212152D01*
X133324601Y-104987688D01*
X133234569Y-105077720D01*
X133077000Y-105458126D01*
X133077000Y-105869874D01*
X133234569Y-106250280D01*
X133525720Y-106541431D01*
X133906126Y-106699000D01*
X134317874Y-106699000D01*
X134698280Y-106541431D01*
X134989431Y-106250280D01*
X135147000Y-105869874D01*
X135147000Y-105458126D01*
X135073800Y-105281405D01*
X135430126Y-105429000D01*
X135841874Y-105429000D01*
X136222280Y-105271431D01*
X136513431Y-104980280D01*
X136671000Y-104599874D01*
X136671000Y-104188126D01*
X136513431Y-103807720D01*
X136423400Y-103717689D01*
X136423400Y-102947550D01*
X136438826Y-102869999D01*
X136408912Y-102719613D01*
X136377715Y-102562772D01*
X136203684Y-102302316D01*
X136137938Y-102258386D01*
X129421117Y-95541566D01*
X129479113Y-95250000D01*
X129367740Y-94690091D01*
X129050577Y-94215423D01*
X128698242Y-93980000D01*
X129050577Y-93744577D01*
X129367740Y-93269909D01*
X129479113Y-92710000D01*
X129367740Y-92150091D01*
X129050577Y-91675423D01*
X128698242Y-91440000D01*
X129050577Y-91204577D01*
X129367740Y-90729909D01*
X129479113Y-90170000D01*
X129367740Y-89610091D01*
X129050577Y-89135423D01*
X128698242Y-88900000D01*
X129050577Y-88664577D01*
X129367740Y-88189909D01*
X129479113Y-87630000D01*
X129367740Y-87070091D01*
X129050577Y-86595423D01*
X128666892Y-86339053D01*
X128871134Y-86242389D01*
X129247041Y-85827423D01*
X129407904Y-85439039D01*
X129285915Y-85217000D01*
X128143000Y-85217000D01*
X128143000Y-85237000D01*
X127889000Y-85237000D01*
X127889000Y-85217000D01*
X126746085Y-85217000D01*
X126624096Y-85439039D01*
X126784959Y-85827423D01*
X127160866Y-86242389D01*
X127365108Y-86339053D01*
X126981423Y-86595423D01*
X126664260Y-87070091D01*
X126552887Y-87630000D01*
X119074000Y-87630000D01*
X119074000Y-80010000D01*
X126552887Y-80010000D01*
X126664260Y-80569909D01*
X126981423Y-81044577D01*
X127333758Y-81280000D01*
X126981423Y-81515423D01*
X126664260Y-81990091D01*
X126552887Y-82550000D01*
X126664260Y-83109909D01*
X126981423Y-83584577D01*
X127365108Y-83840947D01*
X127160866Y-83937611D01*
X126784959Y-84352577D01*
X126624096Y-84740961D01*
X126746085Y-84963000D01*
X127889000Y-84963000D01*
X127889000Y-84943000D01*
X128143000Y-84943000D01*
X128143000Y-84963000D01*
X129285915Y-84963000D01*
X129407904Y-84740961D01*
X129247041Y-84352577D01*
X128871134Y-83937611D01*
X128666892Y-83840947D01*
X129050577Y-83584577D01*
X129367740Y-83109909D01*
X129479113Y-82550000D01*
X129367740Y-81990091D01*
X129050577Y-81515423D01*
X128698242Y-81280000D01*
X129050577Y-81044577D01*
X129367740Y-80569909D01*
X129479113Y-80010000D01*
X129367740Y-79450091D01*
X129050577Y-78975423D01*
X128929894Y-78894785D01*
X129063765Y-78868157D01*
X129273809Y-78727809D01*
X129414157Y-78517765D01*
X129463440Y-78270000D01*
X129463440Y-76670000D01*
X129414157Y-76422235D01*
X129273809Y-76212191D01*
X129063765Y-76071843D01*
X128816000Y-76022560D01*
X127216000Y-76022560D01*
X126968235Y-76071843D01*
X126758191Y-76212191D01*
X126617843Y-76422235D01*
X126568560Y-76670000D01*
X126568560Y-78270000D01*
X126617843Y-78517765D01*
X126758191Y-78727809D01*
X126968235Y-78868157D01*
X127102106Y-78894785D01*
X126981423Y-78975423D01*
X126664260Y-79450091D01*
X126552887Y-80010000D01*
X119074000Y-80010000D01*
X119074000Y-70929431D01*
X120955000Y-70929431D01*
X120955000Y-71818569D01*
X121295259Y-72640026D01*
X121923974Y-73268741D01*
X122745431Y-73609000D01*
X123634569Y-73609000D01*
X124456026Y-73268741D01*
X125084741Y-72640026D01*
X125425000Y-71818569D01*
X125425000Y-70929431D01*
X125096247Y-70135750D01*
X157906000Y-70135750D01*
X157906000Y-70451310D01*
X158002673Y-70684699D01*
X158181302Y-70863327D01*
X158414691Y-70960000D01*
X158692750Y-70960000D01*
X158851500Y-70801250D01*
X158851500Y-69977000D01*
X158064750Y-69977000D01*
X157906000Y-70135750D01*
X125096247Y-70135750D01*
X125084741Y-70107974D01*
X124456026Y-69479259D01*
X123899384Y-69248690D01*
X157906000Y-69248690D01*
X157906000Y-69564250D01*
X158064750Y-69723000D01*
X158851500Y-69723000D01*
X158851500Y-68898750D01*
X158692750Y-68740000D01*
X158414691Y-68740000D01*
X158181302Y-68836673D01*
X158002673Y-69015301D01*
X157906000Y-69248690D01*
X123899384Y-69248690D01*
X123634569Y-69139000D01*
X122745431Y-69139000D01*
X121923974Y-69479259D01*
X121295259Y-70107974D01*
X120955000Y-70929431D01*
X119074000Y-70929431D01*
X119074000Y-67258000D01*
X186742000Y-67258000D01*
X186742001Y-119178000D01*
G04 #@! TD*
M02*
